<svg width="159" height="119" viewBox="0 0 159 119" fill="none" xmlns="http://www.w3.org/2000/svg">
<g opacity="0.1">
<path d="M144.491 51.6C144.091 51.6 143.591 51.4 143.291 51C142.791 50.4 142.991 49.5 143.591 49C148.991 45 153.291 39.4 155.691 33.1C155.991 32.4 156.791 32 157.591 32.3C158.291 32.6 158.691 33.4 158.391 34.2C155.791 40.9 151.091 47 145.291 51.3C145.091 51.5 144.791 51.6 144.491 51.6Z" fill="#1F1C35"/>
<path d="M82.791 104.4C70.491 104.4 58.591 99.2 50.291 90.2L52.391 88.2C60.191 96.6 71.291 101.5 82.791 101.5C105.691 101.5 124.291 82.9 124.291 60C124.291 56.8 123.891 53.7 123.191 50.6L125.991 50C126.791 53.3 127.091 56.7 127.091 60.1C127.091 84.5 107.191 104.4 82.791 104.4Z" fill="#1F1C35"/>
<path d="M43.091 80.1016C39.891 73.8016 38.291 67.1016 38.291 60.0016C38.291 35.5016 58.191 15.6016 82.691 15.6016C98.891 15.6016 113.891 24.5016 121.691 38.7016L119.191 40.1016C111.891 26.8016 97.891 18.5016 82.691 18.5016C59.791 18.5016 41.191 37.1016 41.191 60.0016C41.191 66.6016 42.691 72.9016 45.691 78.8016L43.091 80.1016Z" fill="#1F1C35"/>
<path d="M19.2915 89.0982C17.6915 89.0982 15.6915 88.6982 14.7915 87.1982C13.8915 85.6982 14.2915 83.5982 15.9915 81.0982C23.5915 70.2982 30.9915 62.2982 39.4915 56.0982L41.1915 58.3982C32.9915 64.3982 25.7915 72.0982 18.3915 82.6982C17.0915 84.4982 17.0915 85.3982 17.1915 85.6982C17.3915 86.0982 18.6915 86.3982 20.7915 86.0982C25.3915 85.3982 103.292 60.3982 133.392 24.4982C136.092 21.2982 136.392 20.0982 136.592 19.4982C136.592 19.2982 136.692 19.1982 136.692 18.9982V18.8982C135.392 17.6982 124.292 18.3982 109.792 26.3982L108.392 23.8982C120.992 16.7982 134.792 13.5982 138.492 16.6982C139.492 17.4982 139.692 18.6982 139.292 19.8982C139.292 19.9982 139.292 19.9982 139.192 20.0982C138.892 21.1982 138.292 22.6982 135.392 26.1982C104.992 62.7982 25.8915 88.2982 21.1915 88.9982C20.6915 89.0982 19.9915 89.0982 19.2915 89.0982Z" fill="#1F1C35"/>
<path d="M7.49057 103.9C6.09057 103.9 4.59056 103.7 3.29056 102.9C0.59056 101.2 -0.309436 97.8004 0.0905635 95.1004C0.490564 92.4005 1.79057 90.1005 3.19057 87.9005C12.4906 73.1005 24.9906 60.0004 39.4906 50.1004L41.0906 52.5005C26.9906 62.2005 14.6906 75.0005 5.59056 89.4005C4.39056 91.3005 3.19057 93.3005 2.89057 95.5005C2.69057 97.2005 3.19056 99.5005 4.79056 100.5C6.09056 101.3 7.89056 101.2 9.59056 101C16.3906 100.1 22.9906 97.6005 29.3906 95.2005L29.8906 95.0005C58.4906 84.2005 85.5906 74.0005 111.691 57.0005C124.791 48.5005 140.591 36.6005 146.591 20.3005C147.391 18.1005 146.991 15.1005 145.691 13.3005C144.391 11.5005 141.591 10.8005 137.291 11.4005C124.891 13.0005 114.891 17.6005 103.091 23.4005L101.791 20.8005C113.791 14.9005 123.991 10.2005 136.891 8.50047C142.291 7.80047 145.991 8.80045 147.991 11.6004C149.891 14.2004 150.391 18.2005 149.291 21.3005C142.991 38.4005 126.791 50.7005 113.291 59.4005C86.8906 76.5005 59.6906 86.8005 30.9906 97.7005L30.4906 97.9005C23.8906 100.4 17.1906 102.9 9.99057 103.9C9.09057 103.8 8.29057 103.9 7.49057 103.9Z" fill="#1F1C35"/>
<path d="M53.4915 75.7013C52.8915 75.7013 52.3915 75.4013 52.0915 74.8013C49.1915 69.3013 47.8915 63.1013 48.2915 56.9013C48.4915 53.6013 49.1915 50.3013 50.2915 47.2013C50.5915 46.4013 51.4915 45.9013 52.3915 46.2013C53.1915 46.5013 53.6915 47.4013 53.3915 48.3013C52.3915 51.1013 51.7915 54.1013 51.5915 57.1013C51.2915 62.7013 52.4915 68.4013 55.0915 73.4013C55.4915 74.2013 55.1915 75.2013 54.3915 75.6013C53.9915 75.6013 53.6915 75.7013 53.4915 75.7013Z" fill="#1F1C35"/>
<path d="M82.5898 93.1008C81.8898 93.1008 81.2898 93.1008 80.5898 93.0008C72.7898 92.5008 66.4898 90.1008 60.8898 85.1008C60.2898 84.6008 60.1898 83.7008 60.7898 83.1008C61.2898 82.5008 62.1898 82.4008 62.7898 83.0008C67.8898 87.5008 73.5898 89.7008 80.7898 90.1008C86.5898 90.4008 92.2898 89.2008 97.3898 86.5008C98.0898 86.1008 98.9898 86.4008 99.2898 87.1008C99.6898 87.8008 99.3898 88.7008 98.6898 89.0008C93.6898 91.8008 88.1898 93.1008 82.5898 93.1008Z" fill="#1F1C35"/>
<path d="M134.591 52.2004C134.191 52.2004 133.691 52.0004 133.391 51.6004C132.891 51.0004 133.091 50.1004 133.691 49.6004C143.691 42.4004 151.191 32.0004 154.891 20.3004C155.091 19.5004 155.891 19.1004 156.691 19.4004C157.491 19.6004 157.891 20.4004 157.591 21.2004C153.691 33.5004 145.791 44.4004 135.291 52.0004C135.191 52.1004 134.891 52.2004 134.591 52.2004Z" fill="#1F1C35"/>
<path d="M47.5899 7.59921L48.6899 10.7992H52.0899L49.2899 12.7992L50.3899 15.9992L47.5899 13.9992L44.7899 15.9992L45.8899 12.7992L43.0899 10.7992H46.4899L47.5899 7.59921ZM47.5899 5.69922C46.7899 5.69922 45.9899 6.19924 45.7899 6.99924L45.1899 8.89923H43.1899C42.3899 8.89923 41.5899 9.39922 41.3899 10.1992C41.1899 10.9992 41.3899 11.8992 42.0899 12.2992L43.6899 13.4992L43.0899 15.3992C42.7899 16.1992 43.0899 17.0992 43.7899 17.4992C44.0899 17.6992 44.4899 17.8992 44.8899 17.8992C45.2899 17.8992 45.6899 17.7992 45.9899 17.4992L47.5899 16.2992L49.1899 17.4992C49.4899 17.6992 49.8899 17.8992 50.2899 17.8992C50.6899 17.8992 51.0899 17.7992 51.3899 17.4992C52.0899 16.9992 52.3899 16.1992 52.0899 15.3992L51.4899 13.4992L53.0899 12.2992C53.5899 11.9992 53.8899 11.3992 53.8899 10.6992C53.8899 9.59922 52.9899 8.79922 51.9899 8.79922H49.9899L49.3899 6.89923C49.1899 6.19923 48.3899 5.69922 47.5899 5.69922Z" fill="#1F1C35"/>
<path d="M63.9903 108.201L65.0903 111.401H68.4903L65.6903 113.401L66.7903 116.601L63.9903 114.601L61.1903 116.601L62.2903 113.401L59.4903 111.401H62.8903L63.9903 108.201ZM63.9903 106.301C63.1903 106.301 62.3903 106.801 62.1903 107.601L61.5903 109.501H59.5903C58.7903 109.501 57.9903 110.001 57.7903 110.801C57.5903 111.601 57.7903 112.501 58.4903 112.901L60.0903 114.101L59.4903 116.001C59.1903 116.801 59.4903 117.701 60.1903 118.101C60.4903 118.301 60.8903 118.501 61.2903 118.501C61.6903 118.501 62.0903 118.401 62.3903 118.101L63.9903 116.901L65.5903 118.101C65.8903 118.301 66.2903 118.501 66.6903 118.501C67.0903 118.501 67.4903 118.401 67.7903 118.101C68.4903 117.601 68.7903 116.801 68.4903 116.001L67.8903 114.101L69.4903 112.901C69.9903 112.601 70.2903 112.001 70.2903 111.301C70.2903 110.201 69.3903 109.401 68.3903 109.401H66.3903L65.7903 107.501C65.4903 106.801 64.7903 106.301 63.9903 106.301Z" fill="#1F1C35"/>
<path d="M19.19 45.8984L21.39 48.4984L24.59 47.2984L22.79 50.1984L24.99 52.7984L21.69 51.8984L19.89 54.7984L19.69 51.3984L16.39 50.4984L19.59 49.2984L19.19 45.8984ZM19.19 43.8984C18.99 43.8984 18.69 43.8984 18.49 43.9984C17.69 44.2984 17.19 45.0984 17.29 45.8984L17.39 47.8984L15.49 48.5984C14.69 48.8984 14.19 49.6984 14.29 50.4984C14.29 51.2984 14.89 51.9984 15.69 52.1984L17.69 52.6984L17.79 54.6984C17.79 55.4984 18.39 56.1984 19.19 56.3984C19.39 56.3984 19.49 56.4984 19.69 56.4984C20.29 56.4984 20.89 56.1984 21.29 55.5984L22.39 53.8984L24.39 54.3984C24.59 54.3984 24.69 54.4984 24.89 54.4984C25.49 54.4984 26.09 54.1984 26.49 53.5984C26.89 52.8984 26.89 51.9984 26.39 51.3984L25.09 49.7984L26.19 48.1984C26.39 47.8984 26.49 47.4984 26.49 47.0984C26.49 46.0984 25.69 45.1984 24.59 45.1984C24.49 45.1984 24.49 45.1984 24.39 45.1984C24.19 45.1984 23.99 45.2984 23.89 45.2984L22.09 45.9984L20.79 44.3984C20.29 44.1984 19.69 43.8984 19.19 43.8984Z" fill="#1F1C35"/>
<path d="M103.591 1.89999L104.691 5.09998H108.091L105.291 7.09998L106.391 10.3L103.591 8.29999L100.791 10.3L101.891 7.09998L99.0912 5.09998H102.491L103.591 1.89999ZM103.591 0C102.791 0 101.991 0.499988 101.791 1.29999L101.191 3.19998H99.1912C98.3912 3.19998 97.5912 3.7 97.3912 4.5C97.0912 5.3 97.3912 6.19998 98.0912 6.59998L99.6912 7.79999L99.0912 9.69998C98.7912 10.5 99.0912 11.4 99.7912 11.8C100.091 12 100.491 12.2 100.891 12.2C101.291 12.2 101.691 12.1 101.991 11.8L103.591 10.6L105.191 11.8C105.491 12 105.891 12.2 106.291 12.2C106.691 12.2 107.091 12.1 107.391 11.8C108.091 11.3 108.391 10.5 108.091 9.69998L107.491 7.79999L109.091 6.59998C109.591 6.29998 109.891 5.7 109.891 5C109.891 3.9 108.991 3.09998 107.991 3.09998H105.991L105.391 1.19998C105.091 0.499982 104.391 0 103.591 0Z" fill="#1F1C35"/>
<path d="M131.091 87.2984L132.191 90.4984H135.591L132.791 92.4984L133.891 95.6984L131.091 93.6984L128.291 95.6984L129.391 92.4984L126.591 90.4984H129.991L131.091 87.2984ZM131.091 85.3984C130.291 85.3984 129.491 85.8984 129.291 86.6984L128.691 88.5984H126.691C125.891 88.5984 125.091 89.0984 124.891 89.8984C124.591 90.6984 124.891 91.5984 125.591 91.9984L127.191 93.1984L126.591 95.0984C126.291 95.8984 126.591 96.7984 127.291 97.1984C127.591 97.3984 127.991 97.5984 128.391 97.5984C128.791 97.5984 129.191 97.4984 129.491 97.1984L131.091 95.9984L132.691 97.1984C132.991 97.3984 133.391 97.5984 133.791 97.5984C134.191 97.5984 134.591 97.4984 134.891 97.1984C135.591 96.6984 135.891 95.8984 135.591 95.0984L134.991 93.1984L136.591 91.9984C137.091 91.6984 137.391 91.0984 137.391 90.3984C137.391 89.2984 136.491 88.4984 135.491 88.4984H133.491L132.891 86.5984C132.691 85.8984 131.991 85.3984 131.091 85.3984Z" fill="#1F1C35"/>
</g>
</svg>
