<svg width="340" height="290" viewBox="0 0 340 290" fill="none" xmlns="http://www.w3.org/2000/svg">
<path d="M197.858 194.214C199.535 188.457 206.231 188.839 209.422 192.443C210.848 194.057 210.728 196.26 210.183 198.22C209.95 199.274 209.411 200.236 208.634 200.986" fill="#00BFAD"/>
<path d="M177.184 153.549C179.929 152.991 181.917 154.139 183.429 156.536C184.122 157.514 184.492 158.684 184.487 159.882C184.483 161.08 184.104 162.247 183.404 163.22" fill="#00BFAD"/>
<path d="M194.729 185.726C192.841 182.609 193.586 179.384 196.784 177.331C199.982 175.278 203.276 175.963 205.416 179.304C207.556 182.644 206.677 185.698 203.34 187.931C202.696 188.388 201.964 188.706 201.191 188.864C200.417 189.021 199.619 189.016 198.848 188.848" fill="#00BFAD"/>
<path d="M190.502 172.212C188.531 169.114 189.301 165.878 192.506 163.816C195.711 161.753 199.003 162.43 201.142 165.762C203.281 169.093 202.454 172.218 199.09 174.369C195.867 176.426 192.678 175.624 190.502 172.212Z" fill="#00BFAD"/>
<path d="M169.484 149.854C168.6 148.467 168.304 146.786 168.659 145.181C169.015 143.575 169.994 142.176 171.381 141.292C172.767 140.409 174.448 140.112 176.054 140.467C177.66 140.823 179.058 141.802 179.942 143.189C180.393 143.881 180.697 144.658 180.836 145.472C180.976 146.286 180.947 147.12 180.752 147.923C180.557 148.726 180.199 149.48 179.702 150.139C179.204 150.799 178.577 151.35 177.859 151.758" fill="#00BFAD"/>
<path d="M212.163 195.526C211.713 194.837 211.405 194.064 211.258 193.254C211.111 192.444 211.128 191.612 211.307 190.809C211.486 190.005 211.824 189.245 212.301 188.574C212.778 187.903 213.384 187.334 214.084 186.901C214.776 186.451 215.553 186.146 216.366 186.004C217.179 185.863 218.013 185.887 218.816 186.077C219.62 186.266 220.377 186.617 221.041 187.107C221.705 187.598 222.263 188.218 222.681 188.93C223.121 189.6 223.422 190.352 223.566 191.14C223.711 191.929 223.695 192.739 223.521 193.522C223.347 194.305 223.018 195.044 222.553 195.698C222.088 196.351 221.496 196.904 220.814 197.325C220.133 197.791 219.365 198.114 218.556 198.276C217.747 198.437 216.913 198.434 216.105 198.266C215.298 198.098 214.532 197.769 213.855 197.298C213.177 196.827 212.602 196.225 212.163 195.526Z" fill="#00BFAD"/>
<path d="M153.579 131.934C154.272 131.486 155.048 131.182 155.861 131.042C156.674 130.902 157.506 130.927 158.309 131.118C159.112 131.308 159.868 131.659 160.531 132.15C161.194 132.641 161.751 133.26 162.168 133.972C162.608 134.642 162.91 135.393 163.055 136.182C163.2 136.97 163.185 137.779 163.012 138.562C162.839 139.344 162.51 140.084 162.046 140.738C161.582 141.391 160.992 141.945 160.31 142.367" fill="#00BFAD"/>
<path d="M195.185 161.348C194.483 161.8 193.697 162.106 192.875 162.247C192.052 162.389 191.209 162.364 190.396 162.173C189.584 161.982 188.817 161.63 188.144 161.137C187.47 160.644 186.902 160.021 186.474 159.304C186.046 158.587 185.767 157.791 185.652 156.964C185.538 156.138 185.591 155.296 185.809 154.49C186.026 153.684 186.404 152.93 186.919 152.273C187.434 151.616 188.076 151.069 188.806 150.665C190.22 149.883 191.882 149.682 193.441 150.103C195 150.524 196.335 151.534 197.163 152.921C197.991 154.308 198.248 155.962 197.879 157.535C197.51 159.107 196.544 160.475 195.185 161.348Z" fill="#00BFAD"/>
<path d="M225.017 210.916C224.328 211.366 223.555 211.673 222.745 211.82C221.935 211.967 221.104 211.951 220.3 211.771C219.496 211.592 218.737 211.254 218.066 210.777C217.395 210.3 216.826 209.694 216.393 208.994C215.942 208.301 215.637 207.525 215.495 206.712C215.354 205.899 215.378 205.065 215.568 204.262C215.758 203.458 216.108 202.701 216.599 202.037C217.089 201.373 217.709 200.815 218.421 200.397C219.091 199.957 219.843 199.656 220.632 199.512C221.42 199.367 222.23 199.383 223.013 199.557C223.796 199.731 224.536 200.06 225.189 200.525C225.842 200.99 226.396 201.582 226.816 202.264C227.282 202.945 227.605 203.713 227.767 204.522C227.929 205.331 227.925 206.165 227.757 206.973C227.589 207.78 227.26 208.546 226.789 209.223C226.318 209.901 225.716 210.476 225.017 210.916Z" fill="#00BFAD"/>
<path d="M220.594 222.325C218.776 219.097 219.637 215.968 222.56 213.968C223.954 213.096 225.637 212.813 227.24 213.182C228.842 213.551 230.233 214.541 231.105 215.935C231.977 217.329 232.26 219.012 231.891 220.615C231.523 222.217 230.532 223.608 229.138 224.48C228.445 224.933 227.666 225.237 226.849 225.373C226.033 225.51 225.197 225.476 224.394 225.273C223.592 225.071 222.84 224.704 222.186 224.197C221.532 223.69 220.99 223.053 220.594 222.325Z" fill="#00BFAD"/>
<path d="M225.897 227.375C226.583 226.932 227.349 226.629 228.152 226.482C228.956 226.335 229.78 226.347 230.579 226.519C231.377 226.691 232.134 227.018 232.806 227.482C233.478 227.946 234.052 228.538 234.495 229.224C234.938 229.91 235.242 230.677 235.389 231.48C235.536 232.283 235.523 233.108 235.351 233.906C235.179 234.704 234.852 235.461 234.388 236.133C233.924 236.805 233.332 237.379 232.646 237.822" fill="#00BFAD"/>
<path d="M91.017 121.177C93.5096 119.541 97.942 120.375 99.5579 122.785L91.017 121.177Z" fill="#00BFAD"/>
<path d="M218.387 175.337C220.046 177.946 218.992 182.33 216.307 183.991C213.835 185.521 209.45 184.467 207.863 181.951C206.276 179.435 207.258 174.958 209.952 173.296C212.415 171.767 216.8 172.821 218.387 175.337Z" fill="#00BFAD"/>
<path d="M229.963 240.995C232.607 239.212 237.034 240.004 238.714 242.576C240.394 245.148 239.625 249.495 237.184 251.132" fill="#00BFAD"/>
<path d="M102.88 125.653C101.139 123.268 102.016 118.642 104.536 116.892C106.886 115.276 111.336 116.116 113.068 118.502C114.801 120.888 113.933 125.521 111.412 127.263" fill="#00BFAD"/>
<path d="M173.791 138.153C171.377 139.736 166.991 138.861 165.273 136.456C163.555 134.052 164.486 129.384 167.027 127.726C169.441 126.143 173.828 127.018 175.538 129.432C177.249 131.846 176.332 136.494 173.791 138.153Z" fill="#00BFAD"/>
<path d="M214.962 161.968C216.581 164.531 215.507 169.149 212.934 170.632C210.362 172.116 206.025 171.098 204.481 168.654C202.862 166.091 203.937 161.473 206.509 159.989C209.082 158.506 213.41 159.524 214.962 161.968Z" fill="#00BFAD"/>
<path d="M192.895 139.166C194.538 141.718 193.473 146.343 190.894 147.844C188.316 149.346 184.004 148.325 182.436 145.892C180.869 143.459 181.858 138.715 184.437 137.214C187.015 135.712 191.327 136.733 192.895 139.166Z" fill="#00BFAD"/>
<path d="M146.939 121.993C147.626 120.724 148.261 119.06 149.374 118.554C150.831 117.734 152.548 117.508 154.168 117.923C155.689 118.44 156.701 119.639 157.967 120.498C157.901 122.138 159.132 123.761 158.3 125.357C157.603 126.591 156.839 127.787 156.012 128.939" fill="#00BFAD"/>
<path d="M202.492 147.026C205.699 144.972 208.116 145.551 210.245 148.875C212.266 152.026 211.656 154.464 208.291 156.607C205.28 158.525 202.758 157.926 200.75 154.807C198.742 151.689 199.247 149.103 202.492 147.026Z" fill="#00BFAD"/>
<path d="M230.298 204.184C228.348 201.118 229.042 198.669 232.472 196.5C235.438 194.632 237.901 195.298 239.957 198.521C242.013 201.744 241.368 204.11 238.003 206.253C234.905 208.225 232.444 207.566 230.298 204.184Z" fill="#00BFAD"/>
<path d="M235.668 184.958C237.712 188.157 237.124 190.567 233.784 192.707C230.631 194.711 228.207 194.074 226.063 190.708C224.158 187.722 224.772 185.189 227.899 183.18C231.026 181.17 233.57 181.681 235.668 184.958Z" fill="#00BFAD"/>
<path d="M117.144 121.394C115.131 118.243 115.617 115.71 118.592 113.78C121.94 111.631 124.419 112.039 126.462 115.161C128.61 118.491 128.152 120.918 124.931 122.991" fill="#00BFAD"/>
<path d="M243.577 212.183C245.712 215.422 245.191 217.95 241.94 219.985C238.688 222.019 236.252 221.486 234.167 218.241C232.082 214.996 232.679 212.654 235.731 210.663C239.037 208.519 241.507 208.988 243.577 212.183Z" fill="#00BFAD"/>
<path d="M224.16 170.197C225.172 168.475 226.991 169.055 228.255 169.248C229.017 169.437 229.733 169.777 230.361 170.25C230.988 170.722 231.514 171.316 231.906 171.996C232.319 172.612 232.597 173.309 232.721 174.041C232.845 174.772 232.813 175.522 232.627 176.24C232.434 177.007 232.083 177.725 231.598 178.349C231.112 178.973 230.503 179.49 229.808 179.867C228.528 180.617 227.011 180.853 225.564 180.528C224.137 180.121 222.914 179.194 222.138 177.93C221.714 177.322 221.421 176.633 221.278 175.906C221.135 175.179 221.145 174.431 221.308 173.708C221.594 172.312 222.161 170.52 224.16 170.197Z" fill="#00BFAD"/>
<path d="M240.369 224.102C241.371 222.372 243.199 222.951 244.463 223.144C245.225 223.332 245.942 223.673 246.568 224.147C247.195 224.622 247.718 225.218 248.106 225.901C248.515 226.52 248.791 227.217 248.915 227.947C249.039 228.678 249.009 229.427 248.828 230.146C248.632 230.912 248.281 231.629 247.796 232.253C247.311 232.877 246.702 233.394 246.008 233.772C244.727 234.52 243.21 234.753 241.763 234.425C240.336 234.018 239.113 233.091 238.337 231.827C237.913 231.219 237.62 230.53 237.477 229.803C237.334 229.076 237.344 228.328 237.507 227.605C237.793 226.209 238.369 224.416 240.369 224.102Z" fill="#00BFAD"/>
<path d="M58.004 119.828C58.291 118.44 58.858 116.649 60.8571 116.325C61.8678 114.595 63.688 115.184 64.9519 115.376C65.7157 115.564 66.4334 115.905 67.0612 116.379C67.689 116.853 68.2139 117.449 68.604 118.132C69.0126 118.749 69.2878 119.445 69.4118 120.174C69.5359 120.904 69.506 121.651 69.3243 122.369" fill="#00BFAD"/>
<path d="M188.021 126.015C189.643 127.168 189.322 129.013 189.044 130.407C188.66 131.842 187.735 133.072 186.464 133.84C185.225 134.676 183.706 134.987 182.238 134.704C180.702 134.314 179.377 133.343 178.541 131.996C178.137 131.379 177.86 130.687 177.726 129.961C177.593 129.235 177.605 128.49 177.763 127.769C177.921 127.048 178.222 126.366 178.646 125.763C179.071 125.159 179.612 124.647 180.238 124.255C181.454 123.436 182.929 123.093 184.382 123.291C185.803 123.633 187.649 124.031 188.021 126.015Z" fill="#00BFAD"/>
<path d="M130.437 116.881C129.123 115.465 129.903 114.056 130.015 112.572C130.139 110.924 131.17 110.19 132.35 109.291C133.77 108.199 135.092 108.315 136.633 108.727C138.876 109.286 138.887 109.242 140.275 111.408C141.633 112.451 140.891 113.949 140.722 115.449C140.531 117.183 139.44 117.976 138.231 118.981" fill="#00BFAD"/>
<path d="M227.479 158.448C227.856 159.079 228.105 159.779 228.212 160.506C228.318 161.234 228.281 161.975 228.101 162.688C227.921 163.401 227.603 164.072 227.164 164.662C226.725 165.252 226.174 165.75 225.543 166.127C224.912 166.504 224.212 166.753 223.485 166.86C222.757 166.966 222.016 166.929 221.303 166.749C220.59 166.569 219.919 166.251 219.329 165.812C218.739 165.373 218.242 164.822 217.865 164.191C217.188 162.929 217.003 161.461 217.345 160.07C217.687 158.679 218.532 157.464 219.717 156.66C220.987 155.882 222.512 155.633 223.964 155.967C225.415 156.301 226.677 157.192 227.479 158.448Z" fill="#00BFAD"/>
<path d="M81.828 113.627C82.447 114.541 82.7819 115.618 82.7906 116.722C82.7993 117.826 82.4814 118.908 81.8769 119.832C81.2724 120.755 80.4082 121.48 79.3931 121.914C78.378 122.348 77.2572 122.472 76.1717 122.271C75.0862 122.069 74.0845 121.552 73.2925 120.782C72.5005 120.013 71.9536 119.027 71.7205 117.948C71.4874 116.869 71.5787 115.745 71.9827 114.718C72.3866 113.69 73.0854 112.805 73.991 112.174C75.2288 111.346 76.7411 111.035 78.2052 111.306C79.6693 111.578 80.9693 112.411 81.828 113.627Z" fill="#00BFAD"/>
<path d="M170.865 116.414C171.262 117.041 171.53 117.74 171.654 118.471C171.778 119.202 171.756 119.95 171.589 120.673C171.421 121.395 171.112 122.077 170.679 122.679C170.246 123.281 169.697 123.791 169.066 124.179C168.434 124.567 167.731 124.826 166.999 124.94C166.266 125.055 165.518 125.022 164.798 124.845C164.078 124.668 163.4 124.35 162.804 123.909C162.208 123.468 161.706 122.912 161.326 122.275C160.573 121.011 160.347 119.501 160.699 118.072C161.05 116.643 161.95 115.41 163.204 114.639C164.458 113.869 165.965 113.623 167.399 113.955C168.833 114.287 170.078 115.171 170.865 116.414Z" fill="#00BFAD"/>
<path d="M93.748 117.207C92.8203 117.805 91.7362 118.116 90.6322 118.1C89.5282 118.084 88.4536 117.742 87.5436 117.117C86.6335 116.492 85.9285 115.612 85.5174 114.587C85.1063 113.562 85.0074 112.439 85.2331 111.358C85.4588 110.277 85.9991 109.287 86.786 108.513C87.5728 107.738 88.5712 107.214 89.6554 107.005C90.7397 106.797 91.8613 106.913 92.8794 107.341C93.8975 107.768 94.7665 108.487 95.3771 109.406C96.1698 110.664 96.4431 112.181 96.1391 113.636C95.8352 115.091 94.9779 116.372 93.748 117.207Z" fill="#00BFAD"/>
<path d="M205.89 135.239C206.489 136.167 206.8 137.251 206.784 138.355C206.768 139.459 206.426 140.533 205.801 141.443C205.176 142.353 204.295 143.058 203.27 143.469C202.246 143.881 201.122 143.979 200.042 143.754C198.961 143.528 197.971 142.988 197.196 142.201C196.422 141.414 195.897 140.416 195.689 139.331C195.48 138.247 195.597 137.126 196.024 136.107C196.451 135.089 197.17 134.22 198.09 133.61C199.347 132.815 200.864 132.54 202.32 132.845C203.776 133.149 205.056 134.007 205.89 135.239Z" fill="#00BFAD"/>
<path d="M153.077 107.19C153.846 108.46 154.079 109.984 153.724 111.426C153.37 112.869 152.457 114.111 151.186 114.88C149.916 115.648 148.392 115.881 146.95 115.526C145.507 115.172 144.265 114.259 143.496 112.988C142.814 111.732 142.621 110.267 142.953 108.877C143.286 107.486 144.121 106.268 145.297 105.456C146.565 104.677 148.087 104.423 149.539 104.746C150.991 105.07 152.26 105.947 153.077 107.19Z" fill="#00BFAD"/>
<path d="M107.076 113.805C106.147 114.402 105.063 114.711 103.959 114.694C102.855 114.677 101.781 114.333 100.872 113.707C99.9629 113.081 99.259 112.2 98.8491 111.175C98.4392 110.15 98.3414 109.027 98.5682 107.946C98.795 106.866 99.3362 105.877 100.124 105.103C100.911 104.329 101.91 103.806 102.994 103.598C104.078 103.39 105.2 103.508 106.217 103.936C107.235 104.364 108.103 105.083 108.713 106.003C109.508 107.261 109.781 108.78 109.475 110.236C109.169 111.692 108.309 112.972 107.076 113.805Z" fill="#00BFAD"/>
<path d="M251.837 238.806C252.246 239.433 252.525 240.135 252.658 240.871C252.792 241.608 252.776 242.364 252.611 243.094C252.447 243.824 252.139 244.514 251.703 245.123C251.268 245.732 250.715 246.247 250.077 246.639C249.439 247.03 248.729 247.289 247.989 247.402C247.249 247.514 246.494 247.477 245.769 247.292C245.043 247.107 244.362 246.779 243.766 246.327C243.17 245.875 242.67 245.307 242.297 244.658C241.605 243.405 241.401 241.94 241.725 240.545C242.049 239.151 242.878 237.926 244.053 237.106C245.317 236.325 246.836 236.066 248.288 236.383C249.74 236.7 251.013 237.569 251.837 238.806Z" fill="#00BFAD"/>
<path d="M223.781 144.578C224.158 145.209 224.407 145.909 224.514 146.636C224.621 147.364 224.583 148.105 224.404 148.818C224.224 149.531 223.906 150.202 223.467 150.792C223.028 151.382 222.477 151.879 221.846 152.257C221.214 152.634 220.515 152.883 219.788 152.989C219.06 153.096 218.319 153.059 217.606 152.879C216.893 152.699 216.222 152.381 215.632 151.942C215.042 151.503 214.544 150.952 214.167 150.321C213.489 149.059 213.302 147.59 213.645 146.199C213.987 144.808 214.833 143.593 216.02 142.79C217.29 142.014 218.814 141.766 220.265 142.1C221.716 142.434 222.979 143.324 223.781 144.578Z" fill="#00BFAD"/>
<path d="M201.535 121.549C203.225 124.325 202.335 128.073 199.828 129.531C197.32 130.989 193.411 130.171 192.152 127.552C191.784 126.915 191.546 126.212 191.45 125.483C191.354 124.754 191.402 124.014 191.592 123.303C191.96 121.979 192.795 120.834 193.944 120.08C195.183 119.291 196.684 119.025 198.118 119.343C199.732 119.66 200.602 120.818 201.535 121.549Z" fill="#00BFAD"/>
<path d="M245.884 254.509C246.099 252.772 247.366 251.819 248.264 250.53C249.714 250.254 251.005 249.418 252.571 249.963C253.929 250.468 255.145 251.292 256.117 252.366C256.827 253.605 257.059 255.06 256.772 256.459C256.484 257.857 255.696 259.103 254.555 259.961" fill="#00BFAD"/>
<path d="M251.131 202.246C248.986 203.537 244.584 202.477 243.386 200.388C242.188 198.299 243.271 193.808 245.349 192.663C247.428 191.518 251.635 192.518 252.883 194.472C254.224 196.542 253.229 200.987 251.131 202.246Z" fill="#00BFAD"/>
<path d="M249.056 180.482C250.468 182.449 249.592 186.887 247.522 188.296C245.617 189.589 241.373 188.824 239.891 186.909C238.408 184.994 239.197 180.542 241.212 179.047C243.228 177.551 247.6 178.444 249.056 180.482Z" fill="#00BFAD"/>
<path d="M122.226 101.714C123.611 103.727 122.693 108.171 120.615 109.521C118.538 110.871 114.441 109.992 113 108.064C111.558 106.135 112.364 101.681 114.397 100.191C116.431 98.702 120.801 99.6469 122.226 101.714Z" fill="#00BFAD"/>
<path d="M182.616 119.894C180.471 121.184 176.07 120.133 174.871 118.035C173.672 115.938 174.747 111.457 176.835 110.31C178.922 109.164 183.121 110.174 184.368 112.12C185.711 114.207 184.714 118.635 182.616 119.894Z" fill="#00BFAD"/>
<path d="M249.315 206.299C250.678 206.076 252.167 205.453 253.513 205.746C254.924 206.052 256.177 206.858 257.041 208.014C257.77 209.258 258.021 210.726 257.747 212.141C257.407 213.54 256.592 214.777 255.44 215.64C254.297 216.354 252.927 216.607 251.604 216.351C250.187 216.068 248.913 215.299 248.003 214.177C247.242 212.953 246.953 211.494 247.189 210.073C247.373 208.741 248.521 207.599 249.315 206.299Z" fill="#00BFAD"/>
<path d="M217.735 138.806C216.265 138.999 214.749 139.549 213.452 139.233C212.744 139.092 212.074 138.804 211.484 138.389C210.893 137.974 210.396 137.44 210.024 136.822C209.651 136.204 209.412 135.515 209.321 134.799C209.229 134.083 209.288 133.356 209.494 132.665C209.873 131.273 210.747 130.068 211.952 129.274C213.253 128.622 214.743 128.45 216.159 128.788C217.468 129.106 218.609 129.908 219.351 131.033C220.037 132.298 220.266 133.762 219.999 135.176C219.685 136.49 218.516 137.601 217.735 138.806Z" fill="#00BFAD"/>
<path d="M243.579 175.419C242.126 175.611 240.622 176.193 239.327 175.894C237.929 175.547 236.701 174.712 235.865 173.54C235.167 172.275 234.954 170.8 235.267 169.39C235.65 168.002 236.497 166.787 237.667 165.947C238.832 165.272 240.209 165.057 241.525 165.345C242.93 165.671 244.179 166.472 245.062 167.613C245.783 168.86 246.034 170.324 245.768 171.74C245.513 173.046 244.364 174.18 243.579 175.419Z" fill="#00BFAD"/>
<path d="M166.67 102.859C166.86 104.295 167.426 105.809 167.114 107.072C166.978 107.78 166.695 108.452 166.284 109.045C165.874 109.638 165.344 110.138 164.729 110.515C164.114 110.892 163.427 111.137 162.712 111.233C161.997 111.33 161.27 111.276 160.577 111.076C159.189 110.69 157.98 109.831 157.157 108.648C156.491 107.477 156.288 106.099 156.588 104.785C156.896 103.377 157.715 102.134 158.887 101.296C160 100.662 161.631 100.012 163.058 100.533C164.336 101.187 165.546 101.966 166.67 102.859Z" fill="#00BFAD"/>
<path d="M133.533 104.85C132.602 106.015 131.355 105.692 129.972 105.567C128.241 105.402 127.634 104.166 126.757 103.086C125.88 102.005 125.98 100.754 126.097 99.3714C126.251 97.5572 127.555 97.0779 128.643 96.1915C129.73 95.305 130.988 95.387 132.367 95.6068C133.894 95.8499 134.574 96.794 135.354 97.9213C135.739 98.4459 136.006 99.0469 136.139 99.6837C136.271 100.321 136.266 100.978 136.122 101.613C136.02 102.335 135.726 103.016 135.27 103.585C134.815 104.155 134.215 104.591 133.533 104.85Z" fill="#00BFAD"/>
<path d="M197.283 109.308C198.447 110.231 198.125 111.478 197.999 112.862C197.834 114.592 196.6 115.207 195.519 116.084C194.439 116.961 193.187 116.861 191.805 116.744C189.991 116.59 189.511 115.287 188.625 114.199C187.738 113.111 187.821 111.853 188.04 110.475C188.292 108.947 189.227 108.268 190.346 107.489C190.872 107.104 191.475 106.836 192.113 106.703C192.751 106.57 193.411 106.576 194.046 106.719C194.769 106.821 195.45 107.115 196.02 107.57C196.589 108.026 197.026 108.626 197.283 109.308Z" fill="#00BFAD"/>
<path d="M234.417 147.893C233.485 149.05 232.238 148.727 230.854 148.602C229.124 148.437 228.517 147.201 227.64 146.121C226.763 145.041 226.863 143.789 226.98 142.407C227.134 140.592 228.438 140.113 229.525 139.227C230.613 138.34 231.871 138.422 233.25 138.642C234.777 138.885 235.457 139.838 236.237 140.956C236.622 141.481 236.889 142.082 237.022 142.719C237.154 143.356 237.149 144.014 237.005 144.648C236.902 145.37 236.607 146.052 236.152 146.623C235.698 147.193 235.098 147.632 234.417 147.893Z" fill="#00BFAD"/>
<path d="M233.537 153.005C234.007 152.541 234.592 152.211 235.233 152.047C235.873 151.883 236.545 151.892 237.181 152.073C237.876 152.188 238.536 152.462 239.11 152.872C239.684 153.282 240.156 153.818 240.491 154.438C240.865 154.97 241.128 155.572 241.261 156.208C241.395 156.844 241.398 157.5 241.269 158.137C240.99 159.78 240.058 160.552 238.846 161.404C238.309 161.768 237.703 162.019 237.065 162.142C236.428 162.264 235.772 162.255 235.138 162.115C234.504 161.976 233.905 161.709 233.378 161.33C232.851 160.951 232.406 160.469 232.072 159.913C231.288 158.632 230.799 157.518 231.256 155.928C231.655 154.543 232.137 153.472 233.537 153.005Z" fill="#00BFAD"/>
<path d="M253.995 220.427C254.467 219.963 255.054 219.632 255.695 219.468C256.337 219.304 257.011 219.313 257.648 219.493C258.343 219.609 259.003 219.883 259.577 220.293C260.151 220.703 260.623 221.238 260.958 221.859C261.33 222.391 261.591 222.993 261.725 223.629C261.859 224.265 261.862 224.921 261.735 225.558C261.456 227.201 260.525 227.973 259.313 228.824C258.775 229.189 258.17 229.44 257.532 229.562C256.895 229.685 256.239 229.676 255.605 229.536C254.971 229.397 254.372 229.129 253.845 228.751C253.318 228.372 252.873 227.89 252.539 227.333C251.746 226.054 251.258 224.939 251.715 223.35C252.113 221.965 252.629 220.889 253.995 220.427Z" fill="#00BFAD"/>
<path d="M30.1343 111.59C30.6723 111.192 31.2882 110.912 31.9418 110.769C32.5953 110.626 33.2718 110.622 33.9268 110.758C34.5818 110.895 35.2007 111.168 35.7428 111.56C36.285 111.952 36.7384 112.454 37.0731 113.033" fill="#00BFAD"/>
<path d="M208.086 116.819C208.63 116.429 209.251 116.159 209.907 116.026C210.564 115.893 211.241 115.9 211.894 116.047C212.548 116.194 213.163 116.478 213.699 116.879C214.235 117.28 214.68 117.791 215.005 118.376C216.602 120.899 215.931 123.653 213.35 125.266C212.795 125.611 212.178 125.844 211.534 125.95C210.889 126.057 210.23 126.035 209.594 125.887C208.957 125.739 208.356 125.467 207.825 125.086C207.294 124.706 206.843 124.225 206.498 123.67C206.153 123.115 205.92 122.498 205.814 121.853C205.707 121.209 205.729 120.55 205.877 119.913C206.025 119.277 206.297 118.676 206.678 118.145C207.058 117.614 207.539 117.163 208.094 116.818L208.086 116.819Z" fill="#00BFAD"/>
<path d="M263.302 241.732C262.755 242.117 262.133 242.382 261.477 242.51C260.82 242.639 260.144 242.628 259.493 242.477C258.841 242.327 258.228 242.041 257.694 241.638C257.161 241.235 256.718 240.724 256.395 240.139C254.817 237.63 255.496 234.875 258.051 233.257C259.173 232.628 260.495 232.458 261.74 232.782C262.985 233.106 264.056 233.899 264.729 234.995C265.402 236.091 265.625 237.405 265.352 238.662C265.078 239.919 264.328 241.021 263.26 241.737L263.302 241.732Z" fill="#00BFAD"/>
<path d="M178.531 106.265C176.008 107.93 173.326 107.284 171.519 104.916C170.069 102.989 170.68 99.3886 172.765 98.0974C175.38 96.4885 178.183 96.8796 179.755 99.2864C181.502 101.841 180.998 104.633 178.531 106.265Z" fill="#00BFAD"/>
<path d="M104.531 92.6051C106.128 95.1284 105.457 97.882 102.876 99.4949C100.295 101.108 97.622 100.332 96.0058 97.7262C95.3835 96.5972 95.2232 95.271 95.5586 94.0263C95.894 92.7817 96.6989 91.7155 97.8042 91.0521C98.9094 90.3887 100.229 90.1798 101.485 90.4692C102.741 90.7586 103.836 91.5239 104.54 92.604L104.531 92.6051Z" fill="#00BFAD"/>
<path d="M89.4055 103.717C86.8907 105.313 84.137 104.642 82.5158 102.062C80.8945 99.4823 81.6784 96.8078 84.2929 95.1905C85.4247 94.5124 86.7796 94.3116 88.0594 94.6324C89.3392 94.9533 90.4393 95.7693 91.1174 96.9012C91.7955 98.033 91.9962 99.3879 91.6754 100.668C91.3546 101.948 90.5385 103.047 89.4066 103.726L89.4055 103.717Z" fill="#00BFAD"/>
<path d="M230.919 133.916C230.374 134.305 229.753 134.576 229.097 134.709C228.44 134.842 227.763 134.835 227.11 134.687C226.456 134.54 225.842 134.257 225.305 133.856C224.769 133.454 224.324 132.944 223.999 132.358C222.402 129.835 223.074 127.09 225.654 125.469C226.774 124.772 228.126 124.548 229.411 124.848C230.696 125.147 231.809 125.944 232.506 127.065C233.203 128.185 233.427 129.536 233.127 130.821C232.828 132.106 232.03 133.22 230.91 133.917L230.919 133.916Z" fill="#00BFAD"/>
<path d="M77.1062 100.547C77.496 101.091 77.7665 101.71 77.8999 102.366C78.0333 103.021 78.0266 103.697 77.8802 104.35C77.7339 105.002 77.4511 105.616 77.0506 106.152C76.6501 106.688 76.1408 107.132 75.5563 107.457C73.033 109.054 70.2805 108.391 68.6582 105.803C67.9623 104.683 67.74 103.332 68.0402 102.047C68.3404 100.763 69.1385 99.6507 70.2589 98.9548C71.3793 98.2589 72.7303 98.0366 74.0146 98.3368C75.2989 98.637 76.4114 99.4351 77.1073 100.556L77.1062 100.547Z" fill="#00BFAD"/>
<path d="M148.867 93.7131C150.436 96.2229 149.739 98.9714 147.134 100.596C144.677 102.116 141.958 101.32 140.247 98.7696C138.886 96.7364 139.813 93.2058 141.924 92.0478C144.548 90.6343 147.257 91.1574 148.867 93.7131Z" fill="#00BFAD"/>
<path d="M62.1836 111.641C61.0991 112.329 59.791 112.571 58.5324 112.317C57.2738 112.063 56.162 111.332 55.4291 110.278C54.6961 109.224 54.3986 107.927 54.5987 106.659C54.7988 105.391 55.481 104.249 56.5029 103.471C59.0538 101.76 61.8849 102.241 63.4947 104.669C65.187 107.205 64.6583 110 62.1836 111.641Z" fill="#00BFAD"/>
<path d="M42.18 114.063C40.5917 111.538 41.2542 108.786 43.834 107.164C44.9543 106.467 46.3056 106.244 47.5906 106.543C48.8756 106.843 49.9891 107.64 50.6861 108.76C51.3831 109.881 51.6064 111.232 51.3071 112.517C51.0078 113.802 50.2103 114.916 49.09 115.613" fill="#00BFAD"/>
<path d="M253.549 182.87C252.904 181.683 252.736 180.294 253.08 178.987C253.424 177.679 254.253 176.553 255.398 175.836C257.313 174.678 260.606 175.747 262.083 177.62C262.446 178.152 262.679 178.763 262.763 179.401C262.847 180.04 262.78 180.69 262.568 181.298C262.445 181.976 262.184 182.621 261.801 183.193C261.418 183.766 260.921 184.253 260.34 184.624C259.025 185.404 257.773 184.586 256.604 185.116C255.664 184.138 253.685 184.484 253.549 182.87Z" fill="#00BFAD"/>
<path d="M268.483 248.589C269.16 249.713 269.393 251.048 269.138 252.335C268.882 253.621 268.156 254.766 267.101 255.546C265.032 256.895 261.784 256.169 260.29 254.358C259.872 253.809 259.589 253.169 259.462 252.49C259.336 251.811 259.37 251.112 259.561 250.448C259.803 249.425 260.096 248.02 261.474 247.266C263.73 246.038 267.11 246.532 268.483 248.589Z" fill="#00BFAD"/>
<path d="M162.365 90.1935C162.543 91.5454 163.02 92.9604 162.718 94.1705C162.335 95.3587 161.542 96.3718 160.48 97.0281C159.957 97.3667 159.373 97.5985 158.76 97.71C158.147 97.8216 157.518 97.8106 156.91 97.6778C155.766 97.2305 154.17 96.7915 153.692 95.3681C153.292 94.2078 152.765 92.7395 153.156 91.7484C153.498 90.5298 154.221 89.4526 155.219 88.6746C156.47 87.8606 157.94 87.9916 159.174 88.0853C160.248 88.2 161.227 89.4037 162.365 90.1935Z" fill="#00BFAD"/>
<path d="M266.04 190.47C266.216 191.805 266.902 193.192 266.533 194.215C266.105 195.373 265.631 196.897 264.251 197.446C263.103 197.879 261.628 198.415 260.646 198.032C259.502 197.584 257.914 197.136 257.435 195.704C257.043 194.543 256.536 193.097 256.957 192.077C257.299 190.857 258.03 189.782 259.04 189.017C260.259 188.392 261.651 188.191 262.997 188.445C264.018 188.549 264.996 189.745 266.04 190.47Z" fill="#00BFAD"/>
<path d="M258.443 163.665C258.621 165.017 259.098 166.432 258.796 167.642C258.419 168.845 257.625 169.874 256.556 170.543C255.5 171.22 254.218 171.45 252.992 171.183C251.841 170.745 250.254 170.305 249.767 168.874C249.375 167.713 248.841 166.254 249.231 165.263C249.578 164.042 250.304 162.963 251.302 162.18C252.516 161.551 253.904 161.344 255.248 161.592C256.318 161.673 257.307 162.884 258.443 163.665Z" fill="#00BFAD"/>
<path d="M116.143 95.6607C114.724 95.8477 113.197 96.5102 112.131 96.0697C111.065 95.6293 109.575 95.2788 109.121 93.9036C108.727 92.7338 108.227 91.3988 108.455 90.2753C108.858 89.0953 109.557 88.0384 110.485 87.2059C111.528 86.1117 113.153 86.3846 114.376 86.4626C114.985 86.5938 115.562 86.8451 116.072 87.2017C116.583 87.5584 117.017 88.0132 117.349 88.5397C118.043 89.5901 118.34 90.8534 118.186 92.1028C117.942 93.365 116.896 94.434 116.143 95.6607Z" fill="#00BFAD"/>
<path d="M185.053 100.58C183.903 98.724 184.824 94.7585 186.705 93.6651C188.585 92.5716 192.613 93.5104 193.57 95.3918C194.024 96.5312 194.119 97.782 193.843 98.9771C193.567 100.172 192.933 101.254 192.025 102.079C190.351 103.248 186.027 102.331 185.053 100.58Z" fill="#00BFAD"/>
<path d="M253.891 150.082C255.063 151.457 254.367 155.828 252.467 157.035C250.781 158.112 246.935 157.388 245.712 155.755C244.489 154.123 245.148 150.047 246.926 148.762C248.705 147.477 252.656 148.289 253.891 150.082Z" fill="#00BFAD"/>
<path d="M261.73 209.375C260.63 207.512 261.567 203.536 263.385 202.485C265.203 201.434 269.235 202.407 270.256 204.262C271.278 206.118 270.306 209.826 268.634 210.943C266.854 212.151 262.549 211.053 261.73 209.375Z" fill="#00BFAD"/>
<path d="M209.251 111.629C207.701 112.832 203.38 111.941 202.316 110.15C201.341 108.519 201.791 104.932 203.668 103.42C205.313 102.102 209.372 102.891 210.667 104.677C211.961 106.462 211.064 110.416 209.251 111.629Z" fill="#00BFAD"/>
<path d="M228.507 114.194C228.614 115.401 229.199 116.665 228.798 118.093C228.449 119.335 227.327 119.893 226.905 120.974C225.463 120.984 224.024 121.926 222.587 121.073C221.664 120.545 220.32 120.005 220.151 119.241C219.889 118.097 219.358 116.92 219.746 115.519C220.134 114.118 221.095 113.633 221.654 112.628C221.897 112.203 223.076 112.201 223.794 112.013C224.819 111.902 225.852 112.105 226.758 112.596C227.419 112.876 227.882 113.601 228.507 114.194Z" fill="#00BFAD"/>
<path d="M129.555 91.2666C128.01 91.2737 126.574 92.2403 125.137 91.3873C124.212 90.8514 122.925 90.3546 122.667 89.5601C122.238 88.2498 121.674 86.6924 122.508 85.3097C123.028 84.387 123.583 83.0923 124.368 82.8864C125.597 82.5537 126.928 82.0879 128.406 82.6107C129.517 83.0025 129.888 84.2008 131.015 84.3856C131.089 85.7256 131.695 86.9527 131.341 88.4174C131.028 89.6717 129.707 90.0849 129.555 91.2666Z" fill="#00BFAD"/>
<path d="M248.252 143.506C247.277 143.634 246.248 143.864 245.21 143.958C243.523 144.12 242.456 142.894 241.412 141.972C240.842 141.475 240.87 140.19 240.806 139.25C240.707 137.657 241.704 136.407 242.632 135.345C243.151 134.747 244.387 134.661 245.324 134.58C247.011 134.418 248.398 135.474 249.484 136.518C250.108 137.111 250.041 138.478 250.152 139.514C250.338 141.189 248.888 142.115 248.252 143.506Z" fill="#00BFAD"/>
<path d="M268.342 216.308C269.419 214.884 271.048 215.515 272.381 216.1C273.18 216.456 273.576 217.651 274.233 218.419C274.557 218.806 274.776 219.269 274.871 219.765C274.967 220.261 274.934 220.772 274.777 221.252C274.722 221.753 274.54 222.233 274.247 222.644C273.954 223.055 273.561 223.384 273.104 223.599C272.625 223.8 272.186 224.083 271.805 224.437C271.012 225.225 270.167 224.969 269.236 224.775C268.305 224.582 267.482 224.434 267.047 223.398C266.846 222.92 266.566 222.481 266.218 222.097C265.889 221.713 265.666 221.25 265.569 220.754C265.472 220.258 265.505 219.745 265.665 219.266C265.715 218.762 265.897 218.281 266.192 217.87C266.488 217.459 266.886 217.134 267.347 216.926C267.692 216.742 268.024 216.535 268.342 216.308Z" fill="#00BFAD"/>
<path d="M169.196 84.9157C171.788 83.2586 173.454 83.6542 175.176 86.3489C176.898 89.0436 176.446 90.6066 173.752 92.3367C171.059 94.0669 169.485 93.5994 167.763 90.9047C166.042 88.21 166.502 86.6459 169.196 84.9157Z" fill="#00BFAD"/>
<path d="M245.253 124.012C246.793 126.452 246.336 128.454 243.883 130.018C241.429 131.583 239.438 131.125 237.91 128.644C236.359 126.212 236.813 124.21 239.271 122.639C241.73 121.068 243.723 121.525 245.253 124.012Z" fill="#00BFAD"/>
<path d="M277.623 231.771C279.248 233.607 278.334 236.59 276.366 237.857C275.876 238.2 275.323 238.44 274.738 238.564C274.154 238.688 273.55 238.692 272.964 238.577C272.378 238.462 271.821 238.23 271.327 237.894C270.832 237.559 270.411 237.127 270.087 236.625C269.764 236.122 269.545 235.56 269.445 234.971C269.344 234.382 269.363 233.779 269.501 233.198C269.639 232.616 269.893 232.069 270.247 231.588C270.602 231.107 271.05 230.703 271.565 230.4C273.596 229.09 276.678 229.598 277.623 231.771Z" fill="#00BFAD"/>
<path d="M143.046 86.9471C140.581 88.5361 138.603 88.1048 137.024 85.656C135.446 83.2072 135.866 81.2127 138.324 79.6332C140.781 78.0538 142.76 78.485 144.338 80.9338C145.916 83.3826 145.495 85.3688 143.046 86.9471Z" fill="#00BFAD"/>
<path d="M205.888 91.5607C207.487 94.0097 207.074 96.0203 204.65 97.5925C202.226 99.1648 200.215 98.7491 198.617 96.3457C197.031 93.9008 197.446 91.8898 199.864 90.3127C202.282 88.7356 204.29 89.1516 205.888 91.5607Z" fill="#00BFAD"/>
<path d="M217.947 99.3898C219.984 97.9938 222.599 98.777 223.904 101.099C224.182 101.607 224.357 102.164 224.419 102.739C224.482 103.314 224.43 103.896 224.268 104.451C224.105 105.007 223.835 105.525 223.473 105.975C223.11 106.426 222.662 106.801 222.155 107.079C221.647 107.357 221.09 107.532 220.515 107.594C219.94 107.657 219.358 107.605 218.803 107.443C218.247 107.28 217.73 107.01 217.279 106.647C216.828 106.285 216.453 105.837 216.175 105.33C215.861 104.833 215.656 104.275 215.576 103.694C215.495 103.112 215.54 102.519 215.708 101.956C215.876 101.393 216.163 100.873 216.549 100.43C216.935 99.9873 217.412 99.6325 217.947 99.3898Z" fill="#00BFAD"/>
<path d="M156.433 82.7779C155.704 83.7282 154.644 83.4663 153.511 83.1629C152.378 82.8594 151.166 82.8055 150.488 81.417C150.017 80.4368 149.647 79.6399 150.017 78.5575C150.387 77.4751 150.248 76.1608 151.633 75.4572C152.674 74.9272 153.521 74.3543 154.765 74.8482C156.009 75.3421 157.085 75.2089 157.821 76.5213C158.405 77.5512 158.586 78.7608 158.329 79.9163C158.073 81.0719 157.397 82.0914 156.433 82.7779Z" fill="#00BFAD"/>
<path d="M270.762 160.191C271.712 160.92 271.45 161.98 271.148 163.122C270.846 164.264 270.781 165.459 269.393 166.138C268.979 166.42 268.509 166.608 268.015 166.689C267.521 166.77 267.015 166.743 266.533 166.609C265.422 166.217 264.136 166.378 263.433 164.992C262.903 163.952 262.33 163.105 262.825 161.869C263.32 160.634 263.185 159.541 264.505 158.803C265.535 158.22 266.745 158.039 267.9 158.295C269.056 158.551 270.075 159.227 270.762 160.191Z" fill="#00BFAD"/>
<path d="M182.396 80.8559C183.423 80.23 184.647 80.0115 185.827 80.2434C187.007 80.4753 188.058 81.1409 188.771 82.1089C189.667 83.3321 189.074 84.4096 189.034 85.5938C188.993 86.778 188.093 87.4689 187.18 88.1872C185.972 89.2006 184.863 88.4925 183.694 88.3731C182.525 88.2538 181.977 87.5998 181.286 86.7598C180.276 85.5773 180.712 84.4776 180.949 83.2932C181.185 82.1088 181.23 80.9581 182.396 80.8559Z" fill="#00BFAD"/>
<path d="M234.709 109.3C235.735 108.672 236.96 108.452 238.14 108.684C239.321 108.916 240.372 109.583 241.084 110.553C241.979 111.767 241.387 112.853 241.346 114.029C241.246 115.349 240.4 115.862 239.501 116.63C238.279 117.594 237.175 116.936 236.005 116.809C235.51 116.735 235.038 116.553 234.622 116.276C234.206 115.998 233.856 115.632 233.598 115.204C232.587 114.013 233.024 112.921 233.26 111.729C233.496 110.536 233.56 109.4 234.709 109.3Z" fill="#00BFAD"/>
<path d="M269.052 172.31C270.099 171.044 271.307 171.85 272.488 171.934C273.67 172.017 274.375 172.83 275.102 173.751C276.117 174.967 275.348 176.068 275.315 177.242C275.273 178.615 274.301 179.084 273.432 179.814C272.225 180.827 271.105 180.044 269.932 179.959C268.759 179.874 268.237 179.157 267.554 178.316C266.543 177.125 267.09 176.028 267.241 174.838C267.392 173.647 267.791 172.655 269.052 172.31Z" fill="#00BFAD"/>
<path d="M72.5846 87.8697C73.607 88.6918 73.4755 89.7684 73.1396 90.9146C72.8037 92.0609 72.8096 93.2731 71.4032 93.9453C70.4314 94.415 69.6282 94.8027 68.5543 94.4317C67.4803 94.0606 66.1419 94.2113 65.4383 92.8261C64.9188 91.8011 64.3376 90.9551 64.8136 89.705C65.2507 88.6138 65.1016 87.3521 66.4666 86.6255C67.5197 86.0597 68.4057 85.6525 69.605 86.0668C70.8043 86.4812 72.1237 86.3159 72.5846 87.8697Z" fill="#00BFAD"/>
<path d="M32.322 99.8841C33.4194 101.73 32.6555 104.88 30.845 105.922C29.0346 106.963 25.8462 106.17 24.8361 104.338C23.826 102.507 24.5923 99.5697 26.2652 98.5207C28.2937 97.254 31.4642 98.3655 32.322 99.8841Z" fill="#00BFAD"/>
<path d="M273.264 185.789C275.101 184.693 278.251 185.448 279.292 187.259C280.334 189.069 279.549 192.256 277.71 193.276C275.871 194.296 272.949 193.51 271.9 191.838C270.636 189.834 271.719 186.642 273.264 185.789Z" fill="#00BFAD"/>
<path d="M39.8904 94.1765C41.753 93.0769 44.8858 93.9029 45.9116 95.724C46.9374 97.545 46.0784 100.751 44.259 101.725C42.4397 102.699 39.4709 101.886 38.4482 100.218C37.3373 98.3997 38.0894 95.2253 39.8904 94.1765Z" fill="#00BFAD"/>
<path d="M256.93 131.974C258.356 130.931 261.705 131.259 263.008 133.24C264.08 134.893 263.508 137.941 261.904 139.126C260.3 140.311 257.033 139.828 255.786 138.078C254.539 136.329 255.162 133.206 256.93 131.974Z" fill="#00BFAD"/>
<path d="M80.2347 82.2729C82.0721 81.1765 85.2213 81.932 86.264 83.7509C87.3066 85.5698 86.5113 88.7413 84.6807 89.7598C83.6884 90.1974 82.579 90.2937 81.5261 90.0336C80.4732 89.7735 79.5363 89.1717 78.8619 88.3224C77.6069 86.3179 78.6898 83.1256 80.2347 82.2729Z" fill="#00BFAD"/>
<path d="M281.618 244.873C282.717 246.736 281.9 249.868 280.07 250.895C278.241 251.921 275.052 251.06 274.078 249.241C273.104 247.422 273.91 244.462 275.577 243.439C277.403 242.319 280.569 243.072 281.618 244.873Z" fill="#00BFAD"/>
<path d="M93.7111 78.0523C95.7335 76.8035 98.8849 77.9003 99.7763 79.4145C100.875 81.2687 100.11 84.4106 98.291 85.4533C97.3079 85.9081 96.2021 86.0259 95.1452 85.7883C94.0884 85.5506 93.1394 84.9709 92.4456 84.1389C91.4035 82.713 91.7082 79.3839 93.7111 78.0523Z" fill="#00BFAD"/>
<path d="M113.141 74.9643C114.356 76.6665 113.785 79.8512 111.984 81.0964C110.373 82.1629 107.316 81.7115 106.077 80.0893C104.838 78.4671 105.297 75.2117 106.976 73.9483C108.655 72.685 111.869 73.2184 113.141 74.9643Z" fill="#00BFAD"/>
<path d="M281.768 206.186C279.922 207.284 276.782 206.527 275.739 204.708C274.696 202.89 275.491 199.718 277.322 198.7C278.314 198.258 279.424 198.159 280.478 198.419C281.532 198.68 282.469 199.284 283.141 200.137C284.407 202.157 283.297 205.344 281.768 206.186Z" fill="#00BFAD"/>
<path d="M260.793 145.012C262.495 143.797 265.679 144.368 266.925 146.169C267.991 147.779 267.539 150.829 265.926 152.075C264.313 153.321 261.04 152.855 259.771 151.135C258.502 149.414 259.028 146.269 260.793 145.012Z" fill="#00BFAD"/>
<path d="M59.3124 91.2663C60.3468 92.6335 60.0174 96.0341 57.9754 97.3282C57.0046 97.8117 55.9004 97.9579 54.8372 97.7437C53.774 97.5295 52.8125 96.9671 52.1047 96.1454C50.8738 94.4538 51.462 91.2669 53.2196 90.0188C54.9773 88.7707 58.1388 89.4903 59.3124 91.2663Z" fill="#00BFAD"/>
<path d="M218.237 93.414C216.908 93.1791 215.808 94.4259 214.655 93.715C213.73 93.1791 212.4 92.6795 212.178 91.9057C211.881 90.8771 211.031 89.682 211.781 88.4983C212.317 87.5735 212.981 86.777 213.594 85.9189C214.703 86.4305 215.524 85.135 216.774 85.5511C218.025 85.9672 218.276 87.1558 219.424 87.3121C219.178 88.4976 220.243 89.4424 219.878 90.7632C219.514 92.084 218.187 92.1904 218.237 93.414Z" fill="#00BFAD"/>
<path d="M170.854 72.5536C171 73.662 171.238 74.6899 171.333 75.7367C171.462 77.1036 169.976 77.624 169.627 78.7377C168.54 78.5905 167.664 79.3979 166.506 79.3026C165.106 79.1795 164.75 77.7059 163.549 77.4712C163.855 76.363 162.881 75.5175 163.016 74.3379C163.151 73.1583 164.631 72.784 164.649 71.56C165.681 71.3473 166.708 71.1094 167.746 70.947C169.17 70.7338 169.538 72.4878 170.854 72.5536Z" fill="#00BFAD"/>
<path d="M120.565 70.2848C121.832 70.5621 122.918 69.3342 124.096 70.0418C125.022 70.5861 126.421 71.162 126.533 71.8819C126.679 72.9903 127.75 74.1135 126.892 75.32C126.279 76.1781 125.739 77.5904 124.996 77.7224C123.905 77.8662 122.747 78.8729 121.542 78.0237C120.767 77.4595 119.498 77.0288 119.328 76.325C119.068 75.2573 118.184 74.1265 118.88 72.9243C119.4 72.0101 120.013 71.1519 120.565 70.2848Z" fill="#00BFAD"/>
<path d="M258.804 119.8C259.03 120.916 259.091 122.059 258.986 123.193C258.751 124.23 258.128 125.137 257.244 125.729C256.189 126.156 255.021 126.217 253.927 125.901C252.892 125.648 251.984 125.027 251.373 124.153C250.923 123.186 250.83 122.09 251.111 121.061C251.339 120.024 251.943 119.108 252.805 118.489C253.855 117.993 255.04 117.861 256.173 118.114C257.122 118.313 257.931 119.206 258.804 119.8Z" fill="#00BFAD"/>
<path d="M285.363 219.402C283.005 220.959 281.669 220.742 280.201 218.544C278.732 216.345 278.994 214.833 280.931 213.322C283.055 211.676 285.29 212.364 286.356 214.231C287.658 216.528 287.475 217.996 285.363 219.402Z" fill="#00BFAD"/>
<path d="M235.554 102.105C235.17 102.431 234.717 102.666 234.229 102.792C233.741 102.918 233.231 102.932 232.737 102.832C232.243 102.733 231.778 102.523 231.377 102.218C230.976 101.914 230.649 101.522 230.42 101.073C229.059 98.647 229.352 97.3698 231.68 95.7218C232.091 95.4297 232.56 95.2309 233.056 95.1393C233.551 95.0478 234.061 95.0657 234.549 95.1919C235.037 95.3181 235.491 95.5494 235.88 95.8698C236.269 96.1901 236.583 96.5916 236.801 97.0462C238.006 99.2537 237.76 100.696 235.554 102.105Z" fill="#00BFAD"/>
<path d="M200.537 83.233C198.341 84.65 196.831 84.3448 195.421 82.1985C193.847 79.7833 194.148 78.4367 196.621 76.9149C198.776 75.5717 200.278 75.9462 201.691 78.1776C203.104 80.409 202.702 81.8288 200.537 83.233Z" fill="#00BFAD"/>
<path d="M178.707 67.705C179.326 67.3071 180.05 67.1016 180.786 67.1146C181.523 67.1276 182.239 67.3585 182.844 67.7781C183.449 68.1977 183.916 68.7872 184.187 69.4722C184.457 70.1572 184.519 70.9069 184.363 71.6267C184.208 72.3466 183.843 73.0043 183.314 73.5167C182.785 74.0292 182.116 74.3735 181.392 74.5061C180.667 74.6387 179.92 74.5537 179.244 74.2619C178.568 73.97 177.993 73.4843 177.593 72.8662C177.291 72.4661 177.08 72.0057 176.972 71.5165C176.865 71.0272 176.864 70.5205 176.969 70.0308C177.075 69.5411 177.285 69.08 177.585 68.6787C177.884 68.2773 178.267 67.9453 178.707 67.705Z" fill="#00BFAD"/>
<path d="M254.167 106.848C255.127 107.645 254.482 108.652 254.441 109.64C254.379 110.921 253.332 111.204 252.599 111.864C251.653 112.724 250.713 112.207 249.724 112.158C248.443 112.096 248.16 111.048 247.5 110.315C246.64 109.369 247.157 108.43 247.206 107.441C247.278 106.167 248.316 105.877 249.049 105.216C249.995 104.357 250.943 104.745 251.919 104.958C253.191 105.269 253.191 105.269 254.167 106.848Z" fill="#00BFAD"/>
<path d="M139.609 67.8325C139.994 68.4633 140.183 69.1942 140.152 69.9326C140.122 70.671 139.873 71.3837 139.437 71.9805C139.001 72.5774 138.398 73.0315 137.704 73.2855C137.01 73.5395 136.256 73.5818 135.538 73.4072C134.82 73.2327 134.17 72.849 133.67 72.3047C133.17 71.7605 132.843 71.0801 132.729 70.3498C132.616 69.6195 132.722 68.872 133.034 68.202C133.346 67.532 133.85 66.9696 134.481 66.5859C134.89 66.2983 135.355 66.1013 135.846 66.0082C136.337 65.9151 136.842 65.928 137.328 66.0461C137.813 66.1641 138.268 66.3846 138.661 66.6927C139.055 67.0008 139.378 67.3894 139.609 67.8325Z" fill="#00BFAD"/>
<path d="M283.732 156.237C284.524 157.841 284.565 160.031 282.474 161.34C282.058 161.594 281.597 161.763 281.117 161.838C280.636 161.913 280.145 161.892 279.672 161.778C278.717 161.546 277.894 160.945 277.382 160.106C276.871 159.267 276.713 158.26 276.945 157.305C277.176 156.35 277.777 155.526 278.616 155.015C279.032 154.757 279.494 154.583 279.977 154.505C280.46 154.427 280.953 154.445 281.429 154.559C281.905 154.673 282.353 154.879 282.749 155.167C283.144 155.456 283.478 155.819 283.732 156.237Z" fill="#00BFAD"/>
<path d="M286.721 174.911C284.821 175.793 282.731 175.488 281.643 173.589C281.365 173.173 281.174 172.704 281.083 172.211C280.992 171.719 281.001 171.212 281.112 170.724C281.222 170.235 281.431 169.774 281.726 169.368C282.02 168.963 282.394 168.622 282.824 168.365C283.255 168.109 283.733 167.943 284.23 167.877C284.727 167.812 285.231 167.848 285.714 167.983C286.196 168.119 286.646 168.352 287.035 168.667C287.425 168.982 287.746 169.373 287.98 169.816C288.232 170.233 288.4 170.696 288.473 171.178C288.546 171.66 288.523 172.151 288.406 172.624C288.289 173.098 288.08 173.543 287.791 173.935C287.502 174.328 287.138 174.659 286.721 174.911Z" fill="#00BFAD"/>
<path d="M249.717 93.0322C250.112 93.657 250.312 94.385 250.293 95.124C250.274 95.863 250.037 96.5797 249.61 97.1834C249.183 97.7871 248.587 98.2506 247.897 98.5153C247.207 98.78 246.454 98.8339 245.733 98.6702C245.012 98.5065 244.356 98.1326 243.848 97.5958C243.339 97.059 243.002 96.3835 242.878 95.6547C242.754 94.926 242.849 94.1769 243.151 93.5021C243.453 92.8274 243.948 92.2575 244.574 91.8645C245.418 91.3649 246.421 91.2075 247.378 91.4247C248.334 91.6419 249.171 92.2171 249.717 93.0322Z" fill="#00BFAD"/>
<path d="M279.753 143.157C280.153 143.776 280.361 144.5 280.35 145.237C280.338 145.974 280.109 146.691 279.69 147.298C279.271 147.904 278.682 148.373 277.997 148.645C277.312 148.916 276.561 148.979 275.841 148.824C275.12 148.669 274.462 148.304 273.948 147.775C273.435 147.246 273.09 146.576 272.958 145.851C272.825 145.126 272.91 144.378 273.203 143.702C273.495 143.025 273.982 142.45 274.601 142.05C275.44 141.546 276.439 141.38 277.396 141.586C278.352 141.791 279.195 142.353 279.753 143.157Z" fill="#00BFAD"/>
<path d="M292.136 183.084C292.414 183.485 292.61 183.937 292.713 184.414C292.816 184.891 292.824 185.384 292.735 185.864C292.647 186.344 292.464 186.802 292.198 187.211C291.932 187.621 291.588 187.973 291.185 188.249C290.786 188.526 290.338 188.721 289.864 188.825C289.39 188.928 288.9 188.937 288.423 188.851C287.946 188.765 287.49 188.586 287.082 188.324C286.674 188.062 286.321 187.723 286.044 187.324C285.767 186.926 285.572 186.477 285.468 186.003C285.365 185.53 285.356 185.04 285.442 184.563C285.528 184.085 285.707 183.63 285.969 183.221C286.231 182.813 286.57 182.461 286.969 182.184C288.737 180.883 290.77 181.47 292.136 183.084Z" fill="#00BFAD"/>
<path d="M147.916 62.3657C148.757 61.8661 149.756 61.7034 150.712 61.9103C151.668 62.1172 152.51 62.6783 153.069 63.4808C153.606 64.3163 153.79 65.3309 153.579 66.3015C153.368 67.2721 152.78 68.1191 151.944 68.6563C151.109 69.1934 150.094 69.3766 149.124 69.1657C148.153 68.9547 147.306 68.3668 146.769 67.5313C146.271 66.685 146.112 65.6812 146.325 64.7225C146.538 63.7638 147.107 62.9215 147.916 62.3657Z" fill="#00BFAD"/>
<path d="M213.533 79.306C212.914 79.7062 212.19 79.9138 211.453 79.9027C210.716 79.8915 209.999 79.6621 209.392 79.2433C208.786 78.8245 208.317 78.2353 208.045 77.5501C207.774 76.8649 207.711 76.1146 207.866 75.3939C208.021 74.6733 208.386 74.0147 208.915 73.5016C209.444 72.9884 210.113 72.6437 210.838 72.511C211.564 72.3783 212.312 72.4636 212.988 72.7561C213.665 73.0486 214.239 73.5352 214.639 74.1543C215.14 74.9941 215.303 75.992 215.098 76.9476C214.893 77.9031 214.334 78.7457 213.533 79.306Z" fill="#00BFAD"/>
<path d="M290.575 227.776C290.848 228.181 291.038 228.636 291.134 229.115C291.231 229.594 291.231 230.087 291.135 230.566C291.039 231.045 290.849 231.5 290.576 231.905C290.303 232.31 289.953 232.657 289.545 232.926C289.143 233.199 288.692 233.39 288.216 233.488C287.741 233.586 287.251 233.59 286.774 233.499C286.297 233.408 285.843 233.224 285.437 232.957C285.032 232.69 284.682 232.347 284.41 231.945C284.137 231.543 283.946 231.092 283.847 230.617C283.749 230.141 283.745 229.651 283.836 229.174C283.928 228.698 284.112 228.243 284.378 227.838C284.645 227.432 284.989 227.083 285.39 226.81C287.47 225.477 289.444 226.387 290.575 227.776Z" fill="#00BFAD"/>
<path d="M231.286 88.5831C230.661 88.9781 229.933 89.1788 229.194 89.1598C228.455 89.1408 227.739 88.9029 227.135 88.4763C226.531 88.0497 226.068 87.4536 225.803 86.7634C225.538 86.0732 225.484 85.3199 225.648 84.5991C225.812 83.8782 226.186 83.2221 226.723 82.7139C227.259 82.2057 227.935 81.8682 228.664 81.7441C229.392 81.62 230.141 81.715 230.816 82.017C231.491 82.319 232.061 82.8144 232.454 83.4405C232.953 84.2845 233.111 85.2878 232.894 86.2442C232.677 87.2007 232.101 88.0376 231.286 88.5831Z" fill="#00BFAD"/>
<path d="M276.09 129.419C276.973 131.319 276.667 133.409 274.76 134.498C273.924 134.929 272.955 135.024 272.05 134.765C271.145 134.506 270.374 133.91 269.894 133.101C269.413 132.292 269.259 131.33 269.464 130.412C269.669 129.494 270.217 128.688 270.995 128.16C271.413 127.908 271.875 127.74 272.357 127.667C272.839 127.594 273.331 127.617 273.804 127.734C274.277 127.851 274.722 128.06 275.115 128.349C275.507 128.638 275.839 129.002 276.09 129.419Z" fill="#00BFAD"/>
<path d="M196.627 70.223C195.584 70.9328 192.021 70.1464 191.418 69.0726C190.815 67.9988 191.468 64.8461 192.415 64.0635C193.363 63.2809 196.83 63.9176 197.664 64.9951C198.498 66.0727 197.708 69.4826 196.627 70.223Z" fill="#00BFAD"/>
<path d="M270.695 120.905C269.715 121.64 266.168 120.912 265.429 119.839C264.826 118.893 265.422 115.637 266.355 114.805C267.287 113.973 270.753 114.601 271.594 115.67C272.424 116.585 271.807 120.075 270.695 120.905Z" fill="#00BFAD"/>
<path d="M161.272 58.189C162.583 57.5038 165.91 58.1163 166.482 59.1514C166.789 59.8592 166.892 60.6387 166.778 61.4018C166.555 64.0537 164.855 65.1491 162.318 64.3727C160.54 63.8467 159.815 62.7547 160.158 60.9498C160.44 59.9957 160.813 59.0712 161.272 58.189Z" fill="#00BFAD"/>
<path d="M262.733 101.624C264.577 100.45 265.758 100.73 266.962 102.604C268.25 104.596 267.968 105.701 265.836 107.024C264.074 108.11 262.877 107.781 261.66 105.866C260.51 104.01 260.809 102.843 262.733 101.624Z" fill="#00BFAD"/>
<path d="M294.358 241.69C295.57 243.563 295.326 244.757 293.509 245.945C291.503 247.251 290.349 246.993 289.105 244.936C287.959 243.114 288.257 241.938 290.164 240.722C292.071 239.505 293.164 239.822 294.358 241.69Z" fill="#00BFAD"/>
<path d="M294.518 201.687C292.635 202.892 291.451 202.655 290.255 200.839C288.949 198.842 289.215 197.679 291.264 196.435C293.085 195.281 294.26 195.579 295.477 197.486C296.693 199.393 296.367 200.487 294.518 201.687Z" fill="#00BFAD"/>
<path d="M76.5729 69.8384C78.4474 68.6347 79.6403 68.8705 80.829 70.6957C82.1344 72.6936 81.8689 73.8561 79.8174 75.143C77.995 76.2885 76.828 75.9895 75.602 74.0752C74.376 72.1609 74.7067 71.041 76.5729 69.8384Z" fill="#00BFAD"/>
<path d="M228.029 70.8198C229.194 72.6567 228.922 73.8372 227.049 75.0493C225.175 76.2614 223.951 76.0468 222.629 73.923C221.542 72.1528 221.872 70.9646 223.786 69.7385C225.634 68.5896 226.802 68.8971 228.029 70.8198Z" fill="#00BFAD"/>
<path d="M54.2981 78.8748C55.5504 80.7942 55.3482 81.9826 53.5733 83.1647C51.6477 84.4349 50.4111 84.2561 49.2212 82.5506C47.8269 80.462 48.023 79.2915 49.9949 78.0493C51.9669 76.8071 53.1105 77.058 54.2981 78.8748Z" fill="#00BFAD"/>
<path d="M67.845 74.6568C69.0772 76.5532 68.8498 77.745 67.0498 78.9303C65.0362 80.2463 63.8674 79.9988 62.5839 77.9725C61.4288 76.1428 61.7089 74.9612 63.6002 73.7553C65.4916 72.5493 66.6541 72.8148 67.845 74.6568Z" fill="#00BFAD"/>
<path d="M94.4404 66.5751C95.6061 68.4205 95.3345 69.601 93.4599 70.8047C91.5854 72.0084 90.3623 71.8022 89.0403 69.6784C87.9529 67.9082 88.2833 66.7199 90.1987 65.5023C92.0463 64.3534 93.2133 64.6524 94.4404 66.5751Z" fill="#00BFAD"/>
<path d="M108.319 62.8517C109.465 64.6741 109.176 65.8484 107.277 67.0638C105.378 68.2793 104.189 68.0088 102.848 65.8704C101.754 64.0498 102.05 62.9857 104.11 61.6978C105.939 60.6026 107.092 60.929 108.319 62.8517Z" fill="#00BFAD"/>
<path d="M120.753 62.8338C120.064 63.263 119.233 63.4035 118.44 63.225C117.648 63.0464 116.958 62.5631 116.519 61.8796C116.273 61.5241 116.106 61.12 116.03 60.6945C115.953 60.2691 115.969 59.8323 116.076 59.4134C116.183 58.9946 116.378 58.6035 116.649 58.2665C116.919 57.9295 117.259 57.6545 117.645 57.46C117.991 57.2467 118.377 57.1072 118.779 57.0503C119.181 56.9933 119.591 57.0201 119.982 57.129C120.374 57.2379 120.738 57.4265 121.053 57.683C121.368 57.9394 121.627 58.2583 121.813 58.6194C122.215 59.3226 122.33 60.1543 122.132 60.94C121.935 61.7258 121.441 62.4045 120.753 62.8338Z" fill="#00BFAD"/>
<path d="M210.723 61.1465C211.172 61.8261 211.333 62.656 211.171 63.4542C211.008 64.2524 210.536 64.9535 209.857 65.4037C209.507 65.6559 209.108 65.8307 208.685 65.9166C208.262 66.0025 207.826 65.9974 207.405 65.9017C206.985 65.806 206.589 65.6219 206.245 65.3616C205.901 65.1014 205.616 64.7709 205.41 64.3921C205.023 63.6846 204.92 62.8568 205.12 62.0758C205.32 61.2949 205.808 60.6188 206.487 60.184C207.177 59.7529 208.01 59.6122 208.803 59.7925C209.597 59.9729 210.287 60.4596 210.723 61.1465Z" fill="#00BFAD"/>
<path d="M299.322 210.34C299.765 211.016 299.931 211.836 299.786 212.631C299.641 213.426 299.197 214.135 298.544 214.611C298.224 214.863 297.856 215.046 297.462 215.149C297.068 215.252 296.657 215.272 296.255 215.209C295.853 215.146 295.468 215 295.125 214.781C294.782 214.562 294.488 214.275 294.261 213.937C293.993 213.599 293.8 213.208 293.695 212.79C293.591 212.373 293.576 211.937 293.653 211.513C293.73 211.089 293.896 210.686 294.14 210.332C294.385 209.977 294.702 209.679 295.071 209.456C295.754 209.015 296.583 208.861 297.378 209.026C298.174 209.191 298.872 209.663 299.322 210.34Z" fill="#00BFAD"/>
<path d="M179.426 56.1825C179.849 56.8903 179.973 57.7371 179.772 58.5367C179.57 59.3362 179.059 60.0229 178.352 60.4458C177.644 60.8687 176.797 60.9931 175.997 60.7916C175.198 60.5902 174.511 60.0794 174.088 59.3716C173.721 58.6536 173.636 57.8241 173.85 57.0465C174.063 56.2689 174.561 55.5996 175.243 55.1703C175.937 54.769 176.758 54.6502 177.537 54.8387C178.316 55.0272 178.992 55.5085 179.426 56.1825Z" fill="#00BFAD"/>
<path d="M40.5036 82.6659C40.9442 83.344 41.1065 84.1658 40.9566 84.9604C40.8067 85.755 40.3562 86.4612 39.6989 86.9321C39.0249 87.3725 38.2105 87.545 37.4159 87.4157C36.6212 87.2865 35.9036 86.8649 35.4039 86.2336C35.142 85.9004 34.9508 85.5172 34.8421 85.1075C34.7333 84.6978 34.7094 84.2702 34.7715 83.8509C34.8337 83.4316 34.9807 83.0294 35.2036 82.6689C35.4265 82.3084 35.7206 81.9971 36.0679 81.7541C36.4152 81.5112 36.8085 81.3416 37.2236 81.2558C37.6387 81.1699 38.0668 81.1697 38.482 81.2551C38.8972 81.3404 39.2907 81.5095 39.6383 81.7521C39.9859 81.9947 40.2803 82.3056 40.5036 82.6659Z" fill="#00BFAD"/>
<path d="M245.836 80.1101C246.238 80.8331 246.336 81.6863 246.11 82.4819C245.883 83.2776 245.349 83.9505 244.626 84.3528C243.903 84.755 243.05 84.8535 242.254 84.6267C241.459 84.3999 240.786 83.8663 240.384 83.1434C240.184 82.7854 240.058 82.3917 240.011 81.9847C239.964 81.5778 239.997 81.1655 240.11 80.7716C240.222 80.3776 240.411 80.0096 240.665 79.6886C240.92 79.3676 241.235 79.0999 241.593 78.9007C241.951 78.7016 242.345 78.5749 242.752 78.5279C243.158 78.4809 243.571 78.5144 243.965 78.6267C244.359 78.7391 244.727 78.9279 245.048 79.1824C245.369 79.4369 245.636 79.7521 245.836 80.1101Z" fill="#00BFAD"/>
<path d="M22.7965 85.9676C23.5087 85.552 24.3568 85.4364 25.1542 85.6462C25.9516 85.8559 26.6329 86.3739 27.0485 87.086C27.464 87.7982 27.5797 88.6462 27.3699 89.4437C27.1602 90.2411 26.6422 90.9225 25.9301 91.338C25.5774 91.5438 25.1878 91.678 24.7832 91.7332C24.3787 91.7883 23.9673 91.7633 23.5724 91.6594C23.1776 91.5556 22.8071 91.3749 22.482 91.1279C22.157 90.8808 21.8839 90.5722 21.6781 90.2196C21.4724 89.8669 21.3381 89.4772 21.2829 89.0727C21.2278 88.6682 21.2528 88.2568 21.3567 87.8619C21.4605 87.4671 21.6412 87.0966 21.8882 86.7715C22.1353 86.4465 22.4439 86.1733 22.7965 85.9676Z" fill="#00BFAD"/>
<path d="M134.744 54.5457C135.083 55.0584 135.262 55.66 135.26 56.2746C135.257 56.8892 135.072 57.4892 134.728 57.9988C134.384 58.5083 133.897 58.9045 133.329 59.1372C132.76 59.37 132.135 59.4289 131.532 59.3065C130.93 59.1841 130.378 58.8859 129.945 58.4495C129.512 58.0131 129.218 57.4582 129.101 56.855C128.983 56.2517 129.047 55.6271 129.284 55.0602C129.522 54.4932 129.922 54.0094 130.434 53.6698C131.153 53.3411 131.957 53.2488 132.732 53.4062C133.506 53.5636 134.211 53.9626 134.744 54.5457Z" fill="#00BFAD"/>
<path d="M262.097 93.9026C261.58 94.2339 260.976 94.4045 260.362 94.3927C259.747 94.3809 259.15 94.1874 258.646 93.8365C258.142 93.4856 257.753 92.9931 257.528 92.4212C257.303 91.8493 257.253 91.2237 257.384 90.6234C257.515 90.0231 257.821 89.475 258.263 89.0484C258.705 88.6217 259.264 88.3357 259.868 88.2264C260.473 88.1171 261.096 88.1894 261.66 88.4342C262.223 88.679 262.702 89.0854 263.034 89.6019C263.352 90.3258 263.433 91.1319 263.265 91.9045C263.096 92.6771 262.688 93.3765 262.097 93.9026Z" fill="#00BFAD"/>
<path d="M288.439 125.642C289.036 126.417 288.503 129.306 287.632 129.959C286.761 130.612 283.967 130.023 283.306 129.154C282.645 128.284 283.25 125.488 284.12 124.827C284.99 124.165 287.803 124.769 288.439 125.642Z" fill="#00BFAD"/>
<path d="M291.82 143.528C291.035 144.059 288.056 143.426 287.529 142.598C287.001 141.771 287.631 138.835 288.458 138.307C289.286 137.78 292.222 138.409 292.749 139.237C293.277 140.064 292.647 143 291.82 143.528Z" fill="#00BFAD"/>
<path d="M296.61 164.84C297.391 164.284 300.321 164.872 300.919 165.716C301.517 166.56 300.896 169.426 300.043 170.026C299.191 170.625 296.34 169.992 295.742 169.149C295.144 168.305 295.766 165.438 296.61 164.84Z" fill="#00BFAD"/>
<path d="M148.315 50.343C148.836 51.2482 148.159 54.1479 147.325 54.6251C146.491 55.1023 143.52 54.4686 143.043 53.6345C142.566 52.8004 143.199 49.8296 144.033 49.3523C144.867 48.8751 147.838 49.5089 148.315 50.343Z" fill="#00BFAD"/>
<path d="M192.933 51.892C193.469 52.7184 192.831 55.6557 192.005 56.1916C191.179 56.7276 188.241 56.0895 187.714 55.262C187.186 54.4346 187.816 51.4984 188.642 50.9624C189.469 50.4264 192.406 51.0646 192.933 51.892Z" fill="#00BFAD"/>
<path d="M296.942 152.648C297.548 153.423 297.049 156.308 296.202 157.017C295.356 157.727 292.543 157.123 291.834 156.277C291.124 155.431 291.727 152.618 292.574 151.908C293.42 151.199 296.267 151.798 296.942 152.648Z" fill="#00BFAD"/>
<path d="M279.956 114.756C278.862 112.935 278.9 112.64 280.847 111.401C282.793 110.162 283.071 110.322 284.402 112.453C285.412 114.088 285.272 114.517 283.291 115.752C281.523 116.856 281.219 116.759 279.956 114.756Z" fill="#00BFAD"/>
<path d="M13.5373 91.3667C14.6734 93.1818 14.5935 93.4828 12.6372 94.7144C10.6809 95.9459 10.4142 95.8017 9.08272 93.6706C8.07284 92.0354 8.21282 91.6069 10.1943 90.372C11.9707 89.2666 12.2728 89.355 13.5373 91.3667Z" fill="#00BFAD"/>
<path d="M302.229 227.804C300.417 228.897 300.122 228.859 298.882 226.903C297.642 224.948 297.803 224.679 299.934 223.348C301.569 222.338 301.998 222.478 303.233 224.459C304.326 226.212 304.229 226.515 302.229 227.804Z" fill="#00BFAD"/>
<path d="M308.388 193.408C308.742 193.945 308.88 194.595 308.773 195.229C308.666 195.863 308.323 196.433 307.813 196.824C307.533 197.03 307.214 197.175 306.875 197.249C306.536 197.324 306.185 197.326 305.845 197.257C305.505 197.187 305.183 197.047 304.901 196.845C304.618 196.644 304.381 196.385 304.205 196.086C303.85 195.532 303.729 194.859 303.871 194.215C304.012 193.572 304.403 193.011 304.957 192.656C305.512 192.301 306.185 192.18 306.829 192.321C307.472 192.463 308.033 192.853 308.388 193.408Z" fill="#00BFAD"/>
<path d="M223.118 57.4443C223.489 57.9711 223.646 58.6192 223.557 59.2574C223.468 59.8955 223.141 60.4761 222.64 60.8816C222.249 61.186 221.776 61.3669 221.282 61.4009C220.787 61.435 220.294 61.3209 219.865 61.073C219.436 60.8252 219.09 60.455 218.873 60.0097C218.655 59.5645 218.576 59.0645 218.644 58.5737C218.712 58.0829 218.926 57.6237 219.256 57.2547C219.587 56.8858 220.02 56.6239 220.501 56.5026C220.981 56.3813 221.487 56.4062 221.953 56.5739C222.42 56.7417 222.825 57.0448 223.118 57.4443Z" fill="#00BFAD"/>
<path d="M276.791 98.4891C277.328 98.1325 277.981 97.9934 278.617 98.1C279.253 98.2066 279.824 98.5509 280.215 99.0631C280.422 99.3415 280.567 99.66 280.643 99.998C280.718 100.336 280.722 100.686 280.654 101.026C280.586 101.366 280.448 101.687 280.248 101.97C280.049 102.253 279.792 102.491 279.495 102.669C278.941 103.005 278.277 103.113 277.646 102.968C277.014 102.823 276.463 102.437 276.111 101.893C275.76 101.349 275.634 100.689 275.761 100.053C275.887 99.4175 276.257 98.8564 276.791 98.4891Z" fill="#00BFAD"/>
<path d="M240.297 70.2364C239.76 70.5899 239.108 70.7262 238.474 70.6179C237.84 70.5096 237.27 70.1647 236.88 69.6529C236.675 69.3734 236.53 69.0538 236.455 68.7148C236.381 68.3759 236.378 68.025 236.448 67.685C236.517 67.345 236.657 67.0233 236.859 66.7408C237.061 66.4582 237.319 66.2211 237.618 66.0448C238.173 65.7247 238.83 65.6309 239.453 65.7828C240.075 65.9348 240.615 66.3209 240.96 66.8607C241.305 67.4006 241.429 68.0527 241.305 68.6814C241.182 69.3101 240.821 69.8671 240.297 70.2364Z" fill="#00BFAD"/>
<path d="M205.929 47.9591C206.267 48.5052 206.385 49.1587 206.26 49.7884C206.136 50.4181 205.777 50.9773 205.257 51.3536C204.973 51.5531 204.65 51.6906 204.31 51.7572C203.969 51.8238 203.618 51.8179 203.28 51.74C202.942 51.6621 202.624 51.5139 202.347 51.305C202.07 51.0961 201.84 50.8311 201.671 50.5275C201.374 49.9651 201.303 49.3101 201.473 48.6969C201.643 48.0837 202.041 47.5588 202.586 47.2301C203.131 46.9014 203.781 46.7938 204.402 46.9294C205.024 47.0649 205.57 47.4334 205.929 47.9591Z" fill="#00BFAD"/>
<path d="M161.548 46.7842C161.919 47.311 162.076 47.9591 161.987 48.5972C161.898 49.2354 161.57 49.816 161.07 50.2215C160.679 50.5259 160.206 50.7067 159.711 50.7408C159.217 50.7749 158.724 50.6607 158.295 50.4129C157.865 50.165 157.52 49.7948 157.303 49.3496C157.085 48.9043 157.005 48.4043 157.074 47.9135C157.142 47.4228 157.355 46.9635 157.686 46.5945C158.017 46.2256 158.45 45.9637 158.931 45.8425C159.411 45.7212 159.917 45.746 160.383 45.9138C160.849 46.0816 161.255 46.3846 161.548 46.7842Z" fill="#00BFAD"/>
<path d="M257.594 79.7921C257.322 79.9925 257.012 80.1356 256.683 80.2125C256.354 80.2894 256.013 80.2986 255.681 80.2396C255.348 80.1805 255.031 80.0544 254.749 79.869C254.467 79.6835 254.225 79.4426 254.039 79.1608C253.853 78.879 253.726 78.5623 253.666 78.2299C253.606 77.8975 253.614 77.5564 253.69 77.2273C253.766 76.8983 253.908 76.5881 254.108 76.3157C254.308 76.0433 254.561 75.8144 254.852 75.6429C255.402 75.3188 256.055 75.2182 256.677 75.3619C257.299 75.5056 257.842 75.8827 258.193 76.4151C258.545 76.9476 258.679 77.5949 258.568 78.2233C258.456 78.8518 258.107 79.4133 257.594 79.7921Z" fill="#00BFAD"/>
<path d="M303.483 183.349C302.946 183.702 302.294 183.838 301.66 183.73C301.026 183.622 300.456 183.277 300.066 182.765C299.861 182.487 299.716 182.168 299.641 181.83C299.566 181.492 299.563 181.143 299.632 180.803C299.7 180.464 299.84 180.143 300.04 179.861C300.241 179.579 300.499 179.343 300.797 179.166C301.35 178.857 302.001 178.77 302.616 178.924C303.231 179.077 303.765 179.46 304.107 179.994C304.45 180.527 304.576 181.171 304.46 181.795C304.344 182.418 303.995 182.974 303.483 183.349Z" fill="#00BFAD"/>
<path d="M307.323 237.543C307.394 237.803 307.429 238.071 307.428 238.34C307.308 239.151 307.128 239.951 306.89 240.735C306.804 240.994 306.355 241.215 306.032 241.292C305.709 241.369 305.437 241.183 305.155 241.117C302.634 240.595 302.893 240.937 303.395 238.393C303.693 236.893 303.677 236.648 305.396 237.113C306.043 237.293 306.748 237.456 307.323 237.543Z" fill="#00BFAD"/>
<path d="M174.666 45.9706C174.297 46.0876 174.1 46.216 173.934 46.1866C173.129 46.0449 172.326 45.8516 171.514 45.6511C170.872 45.5136 170.759 45.1099 170.906 44.5353C171.027 43.8278 171.189 43.1277 171.39 42.4384C171.497 42.1509 171.933 41.7604 172.159 41.7904C173.076 41.913 173.983 42.1018 174.873 42.3555C174.965 42.3951 175.045 42.4567 175.108 42.5349C175.17 42.6131 175.212 42.7054 175.231 42.8038C175.077 43.9089 174.852 44.9892 174.666 45.9706Z" fill="#00BFAD"/>
<path d="M253.896 62.7622C254.661 63.8318 254.578 64.6287 253.624 65.3609C252.669 66.0931 251.722 66.0984 251.037 65.1806C250.141 64.0173 250.24 63.15 251.369 62.3861C252.499 61.6222 253.182 61.7459 253.896 62.7622Z" fill="#00BFAD"/>
<path d="M275.472 85.9466C276.205 87.0374 276.09 87.7872 275.082 88.5009C274.074 89.2145 273.207 89.1835 272.483 88.2281C271.591 87.0302 271.716 86.2278 272.921 85.454C273.99 84.7493 274.752 84.8882 275.472 85.9466Z" fill="#00BFAD"/>
<path d="M113.867 45.1085C114.959 44.3838 115.686 44.5187 116.404 45.5602C117.26 46.8057 117.107 47.5263 115.799 48.2966C114.721 48.9341 113.986 48.732 113.302 47.6261C112.618 46.5203 112.781 45.8153 113.867 45.1085Z" fill="#00BFAD"/>
<path d="M236.123 53.521C236.88 54.6001 236.786 55.3813 235.816 56.1241C234.846 56.867 233.921 56.8437 233.226 55.9186C232.338 54.7542 232.446 53.8858 233.585 53.1292C234.724 52.3726 235.408 52.5047 236.123 53.521Z" fill="#00BFAD"/>
<path d="M100.453 49.3045C101.537 48.6492 102.252 48.8283 102.954 49.9403C103.656 51.0523 103.456 51.9329 102.161 52.6075C101.133 53.1701 100.355 52.9053 99.7085 51.7603C99.0622 50.6153 99.2809 50.0056 100.453 49.3045Z" fill="#00BFAD"/>
<path d="M89.4791 54.2715C90.1261 55.3566 89.947 56.0721 88.8349 56.7739C87.7229 57.4756 86.8423 57.2756 86.1677 55.9806C85.604 54.9443 85.87 54.1746 87.0222 53.5188C88.1745 52.863 88.7696 53.1007 89.4791 54.2715Z" fill="#00BFAD"/>
<path d="M75.528 60.1645C74.4328 60.8641 73.706 60.7292 72.9824 59.6456C72.1537 58.4136 72.3296 57.6729 73.6314 56.9205C74.7019 56.2925 75.4387 56.503 76.1248 57.6256C76.8109 58.7483 76.6138 59.4577 75.528 60.1645Z" fill="#00BFAD"/>
<path d="M62.0198 64.4256C60.9246 65.1251 60.1967 64.9818 59.4826 63.9056C58.6455 62.6747 58.8214 61.9339 60.1305 61.172C61.2021 60.5525 61.9304 60.7641 62.6165 61.8867C63.3026 63.0094 63.0972 63.7198 62.0198 64.4256Z" fill="#00BFAD"/>
<path d="M309.527 206.806C310.618 206.073 311.367 206.179 312.081 207.195C312.796 208.212 312.763 209.062 311.809 209.794C310.611 210.686 309.807 210.553 309.035 209.356C308.262 208.16 308.469 207.526 309.527 206.806Z" fill="#00BFAD"/>
<path d="M300.474 124.673C299.384 125.414 298.626 125.301 297.912 124.293C297.198 123.285 297.238 122.417 298.193 121.693C299.391 120.8 300.193 120.925 300.966 122.122C301.739 123.319 301.522 123.945 300.474 124.673Z" fill="#00BFAD"/>
<path d="M302.588 135.13C303.678 134.389 304.428 134.503 305.142 135.511C305.855 136.519 305.824 137.386 304.869 138.11C303.671 139.002 302.868 138.877 302.096 137.681C301.323 136.484 301.529 135.842 302.588 135.13Z" fill="#00BFAD"/>
<path d="M294.183 108.336C295.108 108.503 296.02 108.734 296.913 109.027C297.355 109.2 296.882 111.705 296.406 111.657C295.548 111.633 294.369 111.566 293.993 111.044C293.616 110.521 294.088 109.434 294.183 108.336Z" fill="#00BFAD"/>
<path d="M312.868 165.894C311.956 165.691 311.063 165.415 310.196 165.067C309.74 164.845 310.337 162.375 310.805 162.424C311.669 162.498 312.836 162.601 313.198 163.143C313.559 163.684 313.029 164.779 312.868 165.894Z" fill="#00BFAD"/>
<path d="M35.8391 70.2564C35.5005 71.3175 35.4623 72.5185 34.9077 72.8479C34.3531 73.1772 33.1875 72.7584 32.452 72.4282C32.0012 72.2484 32.572 69.7727 33.0606 69.7852C33.9973 69.8727 34.926 70.0302 35.8391 70.2564Z" fill="#00BFAD"/>
<path d="M184.99 38.1514C186.045 38.5079 187.248 38.5629 187.569 39.1186C187.89 39.6743 187.448 40.7918 187.123 41.5693C186.934 42.0128 184.453 41.4 184.476 40.9271C184.592 39.9925 184.764 39.0656 184.99 38.1514Z" fill="#00BFAD"/>
<path d="M130.175 41.1023C129.955 42.1564 130.056 43.3733 129.541 43.7486C129.027 44.1239 127.84 43.8019 127.014 43.6287C126.584 43.5402 126.839 41.0036 127.357 40.9183C128.3 40.88 129.245 40.9417 130.175 41.1023Z" fill="#00BFAD"/>
<path d="M216.252 43.1592C217.306 43.5073 218.509 43.5624 218.83 44.1181C219.151 44.6738 218.709 45.7913 218.384 46.5687C218.186 47.0133 215.713 46.3994 215.737 45.9265C215.844 44.9932 216.016 44.0686 216.252 43.1592Z" fill="#00BFAD"/>
<path d="M309.707 148.895C309.548 149.821 309.332 150.737 309.06 151.637C308.895 152.069 306.376 151.623 306.38 151.136C306.387 150.281 306.444 149.094 306.967 148.718C307.49 148.341 308.599 148.785 309.707 148.895Z" fill="#00BFAD"/>
<path d="M46.1702 65.3667C47.2327 65.5855 48.4412 65.4861 48.8165 66.0005C49.1917 66.5148 48.8697 67.702 48.705 68.5266C48.6165 68.9569 46.0799 68.7016 45.9945 68.1832C45.9572 67.2409 46.0161 66.2971 46.1702 65.3667Z" fill="#00BFAD"/>
<path d="M271.494 72.2945C271.297 73.2049 271.026 74.0977 270.684 74.9639C270.462 75.4203 267.993 74.8316 268.041 74.3554C268.123 73.4902 268.218 72.3246 268.759 71.9628C269.301 71.601 270.421 72.1283 271.494 72.2945Z" fill="#00BFAD"/>
<path d="M315.477 220.505C316.273 221.69 316.243 221.651 315.206 222.403C314.51 222.896 314.059 223.041 313.54 222.144C312.852 220.944 312.811 221.018 313.857 220.274C314.553 219.781 315.095 219.555 315.477 220.505Z" fill="#00BFAD"/>
<path d="M314.974 175.955C315.584 175.396 316.071 175.332 316.591 176.229C317.277 177.42 317.31 177.347 316.273 178.099C315.578 178.592 315.119 178.738 314.607 177.84C313.92 176.641 313.856 176.675 314.974 175.955Z" fill="#00BFAD"/>
<path d="M142.965 38.57C143.803 39.553 142.814 39.7602 142.312 40.0997C141.353 40.73 141.384 40.6405 140.513 39.4141C139.802 38.363 140.688 38.2122 141.214 37.8609C142.158 37.2412 142.222 37.2754 142.965 38.57Z" fill="#00BFAD"/>
<path d="M292.357 96.1045C293.072 96.8646 292.609 97.2416 291.887 97.6614C290.785 98.3105 290.869 98.2995 290.054 97.1682C289.446 96.3171 289.794 95.9724 290.524 95.5515C291.627 94.9107 291.605 94.871 292.357 96.1045Z" fill="#00BFAD"/>
<path d="M200.961 34.9569C200.666 35.7646 200.606 36.5413 200.233 36.7612C199.861 36.9811 199.151 36.6476 198.592 36.5588C198.732 35.9339 198.717 35.1755 199.078 34.7351C199.261 34.5059 200.133 34.8352 200.961 34.9569Z" fill="#00BFAD"/>
<path d="M156.485 33.7739C156.429 34.4065 156.302 35.0307 156.107 35.6348C155.902 36.0889 154.36 35.8649 154.272 35.3896C154.206 35.1157 154.199 34.8306 154.252 34.5538C154.306 34.277 154.418 34.015 154.582 33.7855C154.922 33.5185 155.671 33.7531 156.485 33.7739Z" fill="#00BFAD"/>
<path d="M21.912 73.8734C21.8168 74.5139 21.6409 75.1399 21.3886 75.7362C21.1226 76.1813 19.6354 75.9159 19.5753 75.3942C19.5282 75.1159 19.5408 74.8308 19.6123 74.5577C19.6838 74.2847 19.8127 74.0299 19.9902 73.8105C20.3364 73.5855 21.067 73.8138 21.912 73.8734Z" fill="#00BFAD"/>
<path d="M8.47517 78.1767C8.32917 78.8247 8.10181 79.4517 7.79844 80.0427C7.48826 80.4765 6.0225 80.1143 6.0317 79.6006C6.00602 79.3182 6.03894 79.0336 6.12845 78.7645C6.21795 78.4955 6.3621 78.2478 6.55182 78.0371C6.88744 77.7964 7.60894 78.0858 8.47517 78.1767Z" fill="#00BFAD"/>
<path d="M229.459 39.7788C230.278 40.0297 231.21 40.1033 231.249 40.3972C231.261 41.033 231.144 41.6646 230.904 42.2537C230.354 42.0955 229.584 42.086 229.33 41.7179C229.077 41.3498 229.384 40.6344 229.459 39.7788Z" fill="#00BFAD"/>
<path d="M247.19 49.1707C247.822 49.2241 248.446 49.3482 249.05 49.5408C249.505 49.7542 249.281 51.2957 248.806 51.384C248.531 51.4488 248.245 51.454 247.968 51.3991C247.692 51.3442 247.43 51.2306 247.2 51.0658C246.934 50.7335 247.194 49.9817 247.19 49.1707Z" fill="#00BFAD"/>
<path d="M288.753 81.7915C288.658 82.4346 288.482 83.0633 288.23 83.6627C287.964 84.1078 286.476 83.834 286.417 83.3207C286.368 83.0424 286.38 82.7569 286.452 82.4836C286.523 82.2102 286.653 81.9556 286.832 81.737C287.178 81.512 287.913 81.7739 288.753 81.7915Z" fill="#00BFAD"/>
<path d="M266.168 59.882C266.203 60.1507 266.147 60.5681 266.126 60.9895L264.299 60.5468C264.441 60.0069 264.419 59.2496 264.767 58.9732C265.541 58.3671 265.618 59.4077 266.168 59.882Z" fill="#00BFAD"/>
<path d="M329.854 174.162C329.385 173.848 329.036 173.723 328.903 173.433C328.81 173.309 329.053 172.756 329.123 172.764C329.441 172.779 329.75 172.88 330.015 173.056C330.116 173.171 329.964 173.575 329.854 174.162Z" fill="#00BFAD"/>
<path d="M313.689 120.256C313.221 119.95 312.872 119.826 312.745 119.578C312.618 119.329 312.895 118.9 312.963 118.9C313.283 118.917 313.592 119.021 313.857 119.2C313.917 119.269 313.766 119.674 313.689 120.256Z" fill="#00BFAD"/>
<path d="M111.367 32.5533C111.221 33.1279 111.2 33.5577 111.085 33.59C110.76 33.6429 110.426 33.604 110.122 33.4777C110.055 33.4865 110.039 32.8479 110.199 32.767C110.573 32.6276 110.968 32.5553 111.367 32.5533Z" fill="#00BFAD"/>
<path d="M316.748 131.537C317.244 131.805 317.652 131.913 317.669 132.048C317.632 132.373 317.544 132.69 317.409 132.988C317.158 132.901 316.761 132.868 316.706 132.713C316.657 132.321 316.671 131.924 316.748 131.537Z" fill="#00BFAD"/>
<path d="M97.5105 38.284C97.0431 37.9782 96.6935 37.8534 96.5669 37.6053C96.4402 37.3572 96.7241 36.9183 96.7935 36.9262C97.1139 36.9399 97.4239 37.0442 97.6874 37.2271C97.7393 37.2971 97.6128 37.6982 97.5105 38.284Z" fill="#00BFAD"/>
<path d="M318.866 235.936C318.345 235.74 317.981 235.702 317.766 235.492C317.55 235.281 317.787 235.002 317.812 234.742C318.141 234.74 318.469 234.792 318.781 234.897C318.899 234.949 318.843 235.367 318.866 235.936Z" fill="#00BFAD"/>
<path d="M319.424 189.704C319.921 189.972 320.328 190.08 320.346 190.215C320.307 190.541 320.216 190.858 320.077 191.156C319.835 191.068 319.429 191.036 319.374 190.881C319.324 190.489 319.341 190.091 319.424 189.704Z" fill="#00BFAD"/>
<path d="M125.081 30.1431C124.56 29.947 124.195 29.901 123.98 29.6987C123.766 29.4963 124.001 29.209 124.027 28.9493C124.356 28.9468 124.683 28.9989 124.996 29.1036C125.114 29.1564 125.041 29.5761 125.081 30.1431Z" fill="#00BFAD"/>
<path d="M84.8378 40.7094C84.6914 41.2839 84.6723 41.7221 84.5558 41.746C84.2306 41.7989 83.8971 41.76 83.5928 41.6337C83.534 41.6414 83.5098 41.0039 83.67 40.923C84.0439 40.7846 84.4391 40.7123 84.8378 40.7094Z" fill="#00BFAD"/>
<path d="M226.528 26.9383C227.024 27.206 227.432 27.3147 227.449 27.449C227.409 27.7747 227.318 28.0921 227.18 28.39C226.938 28.3023 226.532 28.2703 226.478 28.1152C226.428 27.7229 226.445 27.325 226.528 26.9383Z" fill="#00BFAD"/>
<path d="M325.828 160.502C325.308 160.314 324.943 160.268 324.727 160.057C324.512 159.847 324.748 159.568 324.775 159.317C325.104 159.307 325.431 159.357 325.742 159.462C325.818 159.521 325.754 159.939 325.828 160.502Z" fill="#00BFAD"/>
<path d="M328.606 217.341C328.52 217.726 328.372 218.095 328.168 218.432C328.056 218.55 327.679 218.411 327.419 218.386C327.412 218.057 327.462 217.73 327.565 217.418C327.627 217.308 328.046 217.372 328.606 217.341Z" fill="#00BFAD"/>
<path d="M70.1547 44.743C70.6513 45.0107 71.0597 45.1278 71.0763 45.2537C71.0413 45.5805 70.9502 45.8988 70.8072 46.1947C70.565 46.107 70.1593 46.075 70.1058 45.9283C70.0595 45.5331 70.0761 45.133 70.1547 44.743Z" fill="#00BFAD"/>
<path d="M213.959 31.1339C213.654 31.6013 213.528 31.9425 213.281 32.0775C213.034 32.2126 212.603 31.9276 212.602 31.8509C212.62 31.5314 212.724 31.2227 212.902 30.957C212.975 30.862 213.381 31.0221 213.959 31.1339Z" fill="#00BFAD"/>
<path d="M57.6028 48.9341C57.2886 49.4026 57.1722 49.7511 56.8737 49.8844C56.7482 49.9693 56.1951 49.7261 56.203 49.6567C56.2166 49.3363 56.321 49.0263 56.5038 48.7628C56.6114 48.6718 57.0158 48.8235 57.6028 48.9341Z" fill="#00BFAD"/>
<path d="M323.689 203.225C324.185 203.484 324.593 203.601 324.61 203.727C324.575 204.052 324.487 204.37 324.349 204.667C324.099 204.589 323.702 204.555 323.648 204.4C323.598 204.009 323.612 203.612 323.689 203.225Z" fill="#00BFAD"/>
<path d="M321.666 145.647C321.478 146.167 321.432 146.532 321.229 146.738C321.025 146.944 320.739 146.717 320.48 146.7C320.471 146.371 320.52 146.044 320.626 145.732C320.687 145.613 321.106 145.678 321.666 145.647Z" fill="#00BFAD"/>
<path d="M43.8058 54.3462C43.2845 54.1501 42.9196 54.1042 42.705 53.9018C42.4905 53.6994 42.726 53.4121 42.7516 53.1525C43.0808 53.1499 43.408 53.2021 43.7201 53.3068C43.8437 53.4016 43.7652 53.7792 43.8058 54.3462Z" fill="#00BFAD"/>
<path d="M194.881 21.416C195.377 21.6837 195.786 21.8008 195.802 21.9267C195.766 22.2519 195.678 22.5693 195.541 22.8666C195.291 22.78 194.894 22.7469 194.84 22.6002C194.79 22.2058 194.804 21.806 194.881 21.416Z" fill="#00BFAD"/>
<path d="M181.885 25.3535C182.38 25.6128 182.788 25.7299 182.805 25.8558C182.771 26.1829 182.68 26.5014 182.536 26.7968C182.295 26.7175 181.889 26.6855 181.843 26.5293C181.793 26.1376 181.807 25.7406 181.885 25.3535Z" fill="#00BFAD"/>
<path d="M168.169 29.727C168.743 29.8735 169.182 29.901 169.205 30.0091C169.258 30.3343 169.219 30.6678 169.093 30.9721C169.102 31.0393 168.463 31.055 168.382 30.8948C168.244 30.5209 168.172 30.1258 168.169 29.727Z" fill="#00BFAD"/>
<path d="M309.722 105.238C309.575 105.813 309.548 106.252 309.44 106.275C309.114 106.328 308.781 106.289 308.476 106.163C308.409 106.172 308.395 105.541 308.554 105.452C308.93 105.322 309.324 105.25 309.722 105.238Z" fill="#00BFAD"/>
<path d="M151.881 20.8105C151.575 21.2779 151.449 21.6191 151.202 21.7542C150.955 21.8892 150.516 21.6053 150.523 21.5276C150.537 21.2071 150.641 20.8972 150.824 20.6337C150.885 20.5146 151.294 20.6999 151.881 20.8105Z" fill="#00BFAD"/>
<path d="M138.881 24.7361C138.567 25.2046 138.45 25.5531 138.194 25.6808C138.068 25.7657 137.515 25.5225 137.523 25.4531C137.538 25.1345 137.639 24.826 137.816 24.5603C137.906 24.4715 138.295 24.6339 138.881 24.7361Z" fill="#00BFAD"/>
</svg>
