<svg width="40" height="41" viewBox="0 0 40 41" fill="none" xmlns="http://www.w3.org/2000/svg">
<path d="M38.654 26.6749H37.8898V26.5101C37.8898 25.3748 36.9661 24.4511 35.8307 24.4511H35.7117L37.933 18.1963C37.9665 18.198 38.0002 18.1988 38.0341 18.1988C39.111 18.1988 39.9872 17.3227 39.9872 16.2458C39.9872 15.1688 39.111 14.2927 38.0341 14.2927C37.667 14.2927 37.3234 14.3946 37.0297 14.5715L33.8427 11.6817C34.8341 11.0784 35.1832 9.79047 34.6164 8.76547L34.3127 8.21648C33.7311 7.16453 32.402 6.78195 31.3502 7.36359L29.8978 8.16672C28.6543 7.42211 27.091 7.27828 25.6671 7.89445C25.155 8.11602 24.9414 8.73219 25.213 9.22297L28.7835 15.6801C29.0543 16.1696 29.6889 16.3184 30.1501 16.0017C31.3266 15.1936 32.022 13.9437 32.1496 12.6206L32.7609 12.2826L36.252 15.4481C36.1425 15.6919 36.081 15.9617 36.081 16.2458C36.081 16.871 36.3767 17.4281 36.8352 17.7859L34.4682 24.4511H32.29C31.1546 24.4511 30.2309 25.3748 30.2309 26.5101V26.6749H21.2861C21.3057 26.5794 21.316 26.4805 21.316 26.3793C21.316 24.9345 20.1405 23.759 18.6956 23.759H18.1166L17.9103 22.1755H27.9766C29.3537 22.1755 30.4742 21.0552 30.4742 19.678V18.1717C30.4742 17.848 30.2119 17.5858 29.8883 17.5858H1.18695V2.55227C1.18695 1.82125 1.78164 1.22656 2.51258 1.22656H27.9767C28.7077 1.22656 29.3024 1.82125 29.3024 2.55227V6.04023C29.3024 6.36391 29.5648 6.62617 29.8884 6.62617C30.212 6.62617 30.4743 6.36391 30.4743 6.04023V2.55227C30.4743 1.17508 29.3538 0.0546875 27.9767 0.0546875H2.51258C1.13547 0.0546875 0.0150781 1.17508 0.0150781 2.55227V19.678C0.0150781 21.0552 1.13547 22.1756 2.51258 22.1756H12.0311L11.8248 23.7591H11.2458C9.80086 23.7591 8.62539 24.9345 8.62539 26.3794C8.62539 26.4806 8.6357 26.5795 8.65531 26.675H1.32555C0.594609 26.675 0 27.2696 0 28.0005V29.6716C0 30.4024 0.594609 30.9971 1.32555 30.9971H2.68398V38.8746C2.68398 39.5254 3.21344 40.0548 3.86422 40.0548H5.20883C5.85961 40.0548 6.38898 39.5254 6.38898 38.8746V30.997H33.6055V38.8745C33.6055 39.5253 34.1349 40.0547 34.7856 40.0547H36.1302C36.781 40.0547 37.3105 39.5253 37.3105 38.8745V30.997H38.6538C39.3848 30.997 39.9794 30.4024 39.9794 29.6715V28.0005C39.9795 27.2696 39.3848 26.6749 38.654 26.6749ZM38.034 15.4645C38.4648 15.4645 38.8152 15.8149 38.8152 16.2457C38.8152 16.6765 38.4648 17.0269 38.034 17.0269C37.6134 17.0269 37.2527 16.6846 37.2527 16.2457C37.2527 15.8147 37.6059 15.4645 38.034 15.4645ZM29.6851 14.8889L26.3623 8.87977C27.9736 8.31125 29.7364 8.99664 30.5582 10.4828C31.3859 11.9795 31.0136 13.834 29.6851 14.8889ZM33.1965 10.7025L32.0892 11.3148C31.9987 10.8367 31.832 10.3647 31.5837 9.91578C31.3874 9.56078 31.1512 9.2418 30.8849 8.95992L31.9172 8.38906C32.4037 8.12008 33.0182 8.29703 33.2872 8.78351L33.5909 9.3325C33.8598 9.81891 33.6829 10.4336 33.1965 10.7025ZM31.4027 26.5101C31.4027 26.0209 31.8007 25.623 32.2899 25.623H35.8307C36.3199 25.623 36.7179 26.0209 36.7179 26.5101V26.6749H31.4027V26.5101ZM2.51258 21.0036C1.78164 21.0036 1.18695 20.409 1.18695 19.678V18.7577H29.3024V19.678C29.3024 20.4089 28.7077 21.0036 27.9767 21.0036H2.51258ZM16.9348 23.759H13.0066L13.2129 22.1755H16.7287L16.9348 23.759ZM11.2459 24.9309H12.339C12.3394 24.9309 12.3398 24.9309 12.3402 24.9309C12.3407 24.9309 12.3413 24.9309 12.3418 24.9309H18.6956C19.4943 24.9309 20.1441 25.5806 20.1441 26.3793C20.1441 26.5423 20.0116 26.6749 19.8485 26.6749H10.093C9.93 26.6749 9.79734 26.5423 9.79734 26.3793C9.79734 25.5806 10.4471 24.9309 11.2459 24.9309ZM5.21719 38.8745C5.21719 38.8791 5.21344 38.8828 5.20891 38.8828H3.86422C3.85961 38.8828 3.85586 38.8791 3.85586 38.8745V30.997H5.21719V38.8745ZM36.1387 38.8745C36.1387 38.8791 36.135 38.8828 36.1304 38.8828H34.7857C34.7811 38.8828 34.7774 38.8791 34.7774 38.8745V30.997H36.1387V38.8745ZM38.8077 29.6715C38.8077 29.7563 38.7388 29.8252 38.654 29.8252H1.32555C1.24078 29.8252 1.17188 29.7563 1.17188 29.6715V28.0005C1.17188 27.9157 1.24078 27.8468 1.32555 27.8468H38.654C38.7388 27.8468 38.8077 27.9157 38.8077 28.0005V29.6715Z" fill="white"/>
</svg>
