<svg width="40" height="41" viewBox="0 0 40 41" fill="none" xmlns="http://www.w3.org/2000/svg">
<g clip-path="url(#clip0_4399_2023)">
<path d="M38.6592 24.5379H37.9023V24.2991C37.9023 23.1636 36.9786 22.2398 35.8431 22.2398H35.7241L37.9456 15.984C37.9791 15.9857 38.0129 15.9866 38.0468 15.9866C39.1238 15.9866 40.0001 15.1103 40.0001 14.0333C40.0001 12.9563 39.1238 12.08 38.0468 12.08C37.6797 12.08 37.3359 12.182 37.0423 12.3588L33.8548 9.46859C34.3234 9.18375 34.6632 8.74024 34.8159 8.21008C34.977 7.65047 34.9105 7.06164 34.6287 6.55195L34.3249 6.00273C33.7431 4.9507 32.4138 4.5682 31.362 5.14992L29.9094 5.9532C28.6657 5.20844 27.1022 5.06469 25.678 5.68094C25.1664 5.90234 24.9523 6.5182 25.224 7.00938L28.7951 13.4675C29.0659 13.957 29.7006 14.1059 30.1616 13.7891C31.3384 12.9809 32.0338 11.7309 32.1613 10.4075L32.7728 10.0694L36.2645 13.2355C36.1549 13.4792 36.0934 13.7491 36.0934 14.0332C36.0934 14.6585 36.3891 15.2158 36.8477 15.5735L34.4805 22.2398H32.3018C31.1663 22.2398 30.2426 23.1636 30.2426 24.2991V24.5379H27.4355V22.5085C27.4355 21.8909 27.0184 21.3516 26.4213 21.197C26.326 21.1723 26.2203 21.1459 26.106 21.1188C25.1926 18.3563 22.8857 16.3198 20.008 15.7659C19.209 15.6116 19.0278 15.5913 18.7694 15.4313C18.7674 15.4301 18.7652 15.4294 18.7633 15.4282C17.9808 14.9395 18.1479 14.0955 18.1263 13.9877C18.2749 13.8804 18.4207 13.7653 18.5627 13.6405C19.407 12.8984 19.9503 11.8463 20.0977 10.6945C20.7445 10.5762 21.2353 10.0034 21.2324 9.31984L21.2287 7.60078C21.228 7.45734 21.2046 7.31594 21.1612 7.18063C21.2073 7.0425 21.2324 6.89586 21.2324 6.74484V3.71328C21.2324 2.82023 20.5059 2.0818 19.613 2.06727C19.5901 2.06688 19.5719 2.04867 19.5715 2.0257C19.5574 1.12195 18.8105 0.386719 17.9066 0.386719H13.1198C10.8804 0.386719 9.05844 2.20867 9.05844 4.44813V6.74484C9.05844 6.81109 9.06383 6.87648 9.07305 6.9407C8.84703 7.23875 8.72195 7.60375 8.72227 7.98641L8.72305 9.02547C8.72367 9.89625 9.37031 10.6187 10.2085 10.7385C10.3659 11.8882 10.9178 12.9349 11.7677 13.6695C11.8973 13.7814 12.0297 13.8857 12.1645 13.9833C12.1427 14.093 12.3112 14.9392 11.5273 15.4284C11.5255 15.4295 11.5234 15.4302 11.5216 15.4313C11.051 15.7224 10.4141 15.6409 9.21281 16.0492C8.90648 16.1534 8.7425 16.4862 8.84664 16.7926C8.95078 17.099 9.28367 17.263 9.59 17.1588C10.4623 16.8623 11.2464 16.825 11.7419 16.6277C13.7917 18.2677 16.5028 18.2646 18.5487 16.6277C18.807 16.7305 18.9802 16.761 19.7859 16.9167C22.017 17.346 23.8465 18.8186 24.7484 20.8513C23.8152 20.7034 22.6666 20.5938 21.4342 20.6414C18.9322 20.7382 16.8317 21.4421 15.1802 22.7328C13.5286 21.4422 11.428 20.7383 8.92609 20.6414C7.66094 20.5925 6.48406 20.7092 5.53797 20.8631C5.95805 19.9159 6.58766 19.0756 7.39211 18.3989C7.63969 18.1905 7.67156 17.8209 7.4632 17.5734C7.25492 17.3256 6.88531 17.294 6.63766 17.5022C5.48875 18.4689 4.64406 19.7202 4.17852 21.1372C4.09328 21.1579 4.01297 21.178 3.93922 21.1971C3.34203 21.3517 2.925 21.8911 2.925 22.5087V24.5381H1.32563C0.594688 24.5379 0 25.1326 0 25.8635V27.5348C0 28.2657 0.594688 28.8605 1.32563 28.8605H2.68438V38.4567C2.68438 39.1565 3.25367 39.7258 3.95344 39.7258H36.0465C36.7463 39.7258 37.3155 39.1565 37.3155 38.4567V32.8101C37.3155 32.4864 37.0533 32.2241 36.7296 32.2241C36.4059 32.2241 36.1437 32.4864 36.1437 32.8101V38.4566C36.1437 38.5102 36.1 38.5538 36.0465 38.5538H34.782V28.8604H36.1438V30.0697C36.1438 30.3934 36.406 30.6556 36.7297 30.6556C37.0534 30.6556 37.3156 30.3934 37.3156 30.0697V28.8604H38.6592C39.3902 28.8604 39.9849 28.2657 39.9849 27.5347V25.8634C39.9849 25.1326 39.3902 24.5379 38.6592 24.5379ZM38.0467 13.2519C38.4776 13.2519 38.8281 13.6024 38.8281 14.0333C38.8281 14.4641 38.4776 14.8147 38.0467 14.8147C37.6159 14.8147 37.2653 14.4641 37.2653 14.0333C37.2653 13.6024 37.6159 13.2519 38.0467 13.2519ZM31.0059 10.1038C30.9655 11.0858 30.5089 12.0314 29.6966 12.6764L26.3733 6.66625C27.4486 6.2868 28.6032 6.46461 29.4966 7.08156C29.5246 7.10578 29.5545 7.12711 29.5861 7.14531C29.9794 7.43578 30.318 7.81359 30.57 8.26945C30.8704 8.81273 31.0119 9.40109 31.0087 9.98078C31.0035 10.0214 31.0024 10.0626 31.0059 10.1038ZM33.6896 7.88594C33.6152 8.14469 33.4443 8.35906 33.2087 8.48938L32.1011 9.1018C32.0105 8.62367 31.8438 8.15148 31.5955 7.7025C31.3992 7.34742 31.163 7.02836 30.8966 6.74641L31.9291 6.17547C32.4153 5.90641 33.0303 6.0832 33.2993 6.56992L33.603 7.11906C33.7334 7.35477 33.7641 7.62711 33.6896 7.88594ZM10.2303 4.44805C10.2303 2.85469 11.5266 1.55852 13.1198 1.55852H17.9066C18.1744 1.55852 18.3955 1.77625 18.3998 2.04398C18.4101 2.70336 18.9347 3.22828 19.5939 3.23898C19.8512 3.2432 20.0606 3.45594 20.0606 3.71328V6.74492C20.0606 6.83281 20.0048 6.91133 19.9217 6.94023C19.7116 7.01383 19.4779 6.91844 19.3784 6.71883C19.1399 6.24055 18.6082 5.99469 18.0849 6.12117C17.2517 6.32227 15.6163 6.39383 14.0214 4.61102C13.0213 3.49344 11.1323 4.11516 11.0584 5.63078C11.0541 5.71883 11.0566 5.64523 11.0577 7.18L10.3693 6.94031C10.2863 6.91141 10.2305 6.83289 10.2305 6.74492V4.44805H10.2303ZM12.7415 15.9104C13.0513 15.5454 13.2509 15.0984 13.3143 14.6159C14.506 15.0851 15.7939 15.0832 16.977 14.6197C17.041 15.1008 17.2402 15.5464 17.5492 15.9104C16.0755 16.9302 14.2327 16.9423 12.7415 15.9104ZM17.789 12.7602C16.2161 14.1428 14.0887 14.1262 12.534 12.7827C11.7984 12.147 11.3616 11.1892 11.3352 10.1549C11.3272 9.83727 11.0673 9.58383 10.7495 9.58383C10.7494 9.58383 10.7493 9.58383 10.7491 9.58383L10.455 9.58399C10.4549 9.58399 10.4548 9.58399 10.4547 9.58399C10.1462 9.58399 9.89508 9.33305 9.89484 9.02445L9.89406 8.01156C9.98719 8.05149 9.95148 8.03399 10.8398 8.34484C11.5137 8.57961 12.2308 8.08039 12.2296 7.35563C12.228 5.63633 12.2269 5.72695 12.2288 5.68773C12.2512 5.22875 12.8388 5.04672 13.1478 5.39211C13.8698 6.19922 15.2697 7.40133 17.202 7.40117C17.5634 7.40117 17.9435 7.35914 18.3412 7.26453C18.6692 7.89734 19.3725 8.23195 20.0578 8.11055L20.0605 9.32352C20.0609 9.44516 19.9668 9.54453 19.8505 9.545L19.5491 9.54633C19.2304 9.54774 18.9712 9.80359 18.9658 10.1223C18.9482 11.157 18.5192 12.1184 17.789 12.7602ZM31.4144 24.2991C31.4144 23.8098 31.8125 23.4117 32.3017 23.4117H35.843C36.3323 23.4117 36.7303 23.8098 36.7303 24.2991V24.538H31.4143V24.2991H31.4144ZM15.7662 23.7634C19.3116 20.8675 24.5753 21.9295 26.1275 22.3314C26.2076 22.3522 26.2636 22.4249 26.2636 22.5085V24.538H15.7662V23.7634ZM4.09695 22.5085C4.09695 22.425 4.15289 22.3522 4.23312 22.3314C5.785 21.9294 11.0487 20.867 14.5944 23.7627V24.5379H4.09695V22.5085ZM5.21797 38.5539H3.95344C3.89984 38.5539 3.85625 38.5102 3.85625 38.4567V28.8604H5.21797V38.5539ZM33.6102 38.5539H6.38984V28.8604H33.6102V38.5539ZM38.813 27.5348C38.813 27.6196 38.7441 27.6886 38.6592 27.6886H1.32563C1.24086 27.6886 1.17188 27.6196 1.17188 27.5348V25.8635C1.17188 25.7788 1.24086 25.7098 1.32563 25.7098H38.6592C38.7441 25.7098 38.813 25.7788 38.813 25.8635V27.5348Z" fill="white"/>
</g>
<defs>
<clipPath id="clip0_4399_2023">
<rect width="40" height="40" fill="white" transform="translate(0 0.0546875)"/>
</clipPath>
</defs>
</svg>
