<svg width="40" height="41" viewBox="0 0 40 41" fill="none" xmlns="http://www.w3.org/2000/svg">
<path d="M7.08867 11.214C6.57516 10.6577 5.84609 10.3281 5.05281 10.3281C4.72914 10.3281 4.4668 10.5905 4.4668 10.9141C4.4668 11.2378 4.72914 11.5002 5.05281 11.5002C5.71078 11.5002 6.29227 11.8927 6.53828 12.5016C6.72594 13.0134 7.45195 13.0123 7.63891 12.5017C7.88508 11.8928 8.46664 11.5002 9.12461 11.5002C9.44828 11.5002 9.71062 11.2378 9.71062 10.9141C9.71062 10.5905 9.44828 10.3281 9.12461 10.3281C8.33141 10.3281 7.60227 10.6578 7.08867 11.214Z" fill="white"/>
<path d="M14.8505 7.22578C14.3369 6.66953 13.6077 6.33992 12.8145 6.33992C12.4909 6.33992 12.2285 6.60227 12.2285 6.92594C12.2285 7.24961 12.4909 7.51195 12.8145 7.51195C13.4728 7.51195 14.0546 7.90492 14.3005 8.51414C14.4891 9.02586 15.2138 9.02344 15.4011 8.51258C15.6473 7.90414 16.2287 7.51187 16.8864 7.51187C17.2101 7.51187 17.4724 7.24953 17.4724 6.92586C17.4724 6.60219 17.2101 6.33984 16.8864 6.33984C16.0931 6.33992 15.364 6.66953 14.8505 7.22578Z" fill="white"/>
<path d="M39.4063 10.3062C38.8272 9.72711 37.9674 9.56992 37.2353 9.84703V8.65781C37.2353 8.33414 36.973 8.0718 36.6493 8.0718C36.3256 8.0718 36.0633 8.33414 36.0633 8.65781V10.6881L28.837 16.847C27.8645 16.7109 26.8599 16.6412 25.8458 16.6412C22.265 16.6412 20.0982 17.236 18.1855 18.0626C14.3816 16.6584 8.44062 15.0344 1.17195 14.9505V4.40078C1.17195 3.55523 1.85992 2.86727 2.70547 2.86727H34.5298C35.3754 2.86727 36.0634 3.55523 36.0634 4.40078V5.92016C36.0634 6.24383 36.3257 6.50617 36.6494 6.50617C36.973 6.50617 37.2354 6.24383 37.2354 5.92016V4.40078C37.2354 2.90891 36.0217 1.69531 34.5299 1.69531H2.70547C1.21367 1.69531 0 2.90898 0 4.40078V25.3158C0 26.8077 1.21367 28.0212 2.70547 28.0212H9.98383L9.53508 29.32C9.42937 29.6259 9.59172 29.9595 9.89758 30.0652C9.96094 30.0871 10.0255 30.0975 10.0889 30.0975C10.3319 30.0975 10.559 29.9453 10.6428 29.7027L11.2237 28.0212H13.3549L10.403 36.5647C10.2214 37.0903 9.64859 37.3699 9.12219 37.1877C8.59641 37.0061 8.31726 36.433 8.49922 35.9069L9.74719 32.2948C9.85289 31.989 9.69055 31.6553 9.38469 31.5496C9.07914 31.444 8.74523 31.6062 8.63945 31.9121L7.39148 35.5241C6.9982 36.6623 7.60101 37.9021 8.73937 38.2953C9.8825 38.6909 11.1199 38.0787 11.5108 36.9473L12.8777 32.9912H24.3577L25.7245 36.9473C26.1171 38.0833 27.3577 38.6891 28.4958 38.2954C29.6337 37.9023 30.2373 36.6627 29.8438 35.5241L27.2515 28.0212H34.5298C36.0217 28.0212 37.2353 26.8076 37.2353 25.3158V15.7483L39.5163 13.072C40.2015 12.2681 40.1532 11.0533 39.4063 10.3062ZM1.17195 16.1226C7.60125 16.1984 12.9647 17.5066 16.6776 18.7712C13.3911 20.4057 10.2402 22.238 1.17195 22.6565V16.1226ZM2.70547 26.8493C1.85992 26.8493 1.17195 26.1613 1.17195 25.3158V23.8297C17.3934 23.094 15.6023 17.8132 25.8459 17.8132C26.4426 17.8132 27.0353 17.8392 27.6193 17.8891C25.3127 19.9395 24.537 22.0198 24.1205 22.6935C22.3819 22.7423 21.0346 23.5823 20.7941 25.3131C20.708 25.936 20.6569 26.1406 20.1568 26.297C19.8855 26.382 19.518 26.4112 19.122 26.3793C18.7952 26.3525 18.4814 26.5333 18.347 26.8493H2.70547ZM29.3724 22.7958C28.1881 23.7248 27.2909 24.0916 26.4122 24.5874C26.408 24.5895 26.4031 24.589 26.3999 24.5856L25.127 23.3127C25.1237 23.3094 25.1229 23.3045 25.1251 23.3005C25.6187 22.4255 25.9871 21.5253 26.9168 20.3402L29.3724 22.7958ZM21.8052 26.2084C22.1744 26.0841 22.4277 26.1409 22.5499 26.8945C22.668 27.6226 22.9954 28.2437 23.6385 28.5987C22.4337 29.051 20.9244 28.8462 19.8364 27.5453C20.056 27.5248 20.2852 27.4849 20.507 27.4155C21.3149 27.1627 21.6468 26.6895 21.8052 26.2084ZM13.2827 31.8192L14.5949 28.0212H18.72C19.9373 29.6445 21.5986 30.2267 23.2927 29.9091L23.9527 31.8192H13.2827ZM23.7067 26.707C23.5055 25.4659 22.8128 24.9822 22.0626 24.9869C22.366 24.2034 23.308 23.9046 24.0947 23.8686C24.24 24.1348 24.3259 24.1473 25.5712 25.4144C25.6541 25.4973 25.7467 25.5654 25.8454 25.619C25.8102 26.3991 25.5198 27.0916 24.9784 27.6836C24.2178 27.7827 23.8243 27.4317 23.7067 26.707ZM28.7361 35.907C28.9179 36.4328 28.6395 37.0059 28.113 37.1877C27.5872 37.3696 27.0141 37.0907 26.8323 36.5647L24.4073 29.5459C25.0416 29.243 25.6094 28.7922 26.0737 28.2012L28.7361 35.907ZM36.0634 25.3158C36.0634 26.1613 35.3754 26.8493 34.5298 26.8493H26.8022C26.9332 26.4493 27.0061 26.0287 27.0188 25.592C27.6725 25.1837 29.9048 24.3495 32.008 21.8816L33.9569 19.5949C34.6927 19.9527 35.3985 20.3631 36.0633 20.8191V25.3158H36.0634ZM36.0634 19.4203C35.6349 19.1545 35.1933 18.9056 34.7402 18.6758L36.0634 17.1234V19.4203ZM38.6244 12.3117L31.116 21.1213C30.8453 21.4389 30.5596 21.7404 30.2604 22.0263L27.6862 19.4521C27.9721 19.153 28.2735 18.8672 28.5911 18.5966L37.4007 11.0882C37.7427 10.7968 38.2597 10.8171 38.5775 11.1351C38.8953 11.4528 38.9159 11.9697 38.6244 12.3117Z" fill="white"/>
<path d="M24.9688 9.11234C24.9688 10.7854 26.3299 12.1465 28.003 12.1465C29.676 12.1465 31.0371 10.7854 31.0371 9.11234C31.0371 7.4393 29.676 6.07812 28.003 6.07812C26.3299 6.07812 24.9688 7.4393 24.9688 9.11234ZM29.8651 9.11234C29.8651 10.1391 29.0298 10.9745 28.003 10.9745C26.9761 10.9745 26.1408 10.1391 26.1408 9.11234C26.1408 8.08547 26.9761 7.25016 28.003 7.25016C29.0298 7.25016 29.8651 8.08547 29.8651 9.11234Z" fill="white"/>
</svg>
