<svg width="40" height="41" viewBox="0 0 40 41" fill="none" xmlns="http://www.w3.org/2000/svg">
<g clip-path="url(#clip0_4399_2059)">
<path d="M35.4665 25.3516C35.2155 25.1473 34.8463 25.1854 34.6421 25.4365C34.438 25.6876 34.4759 26.0566 34.727 26.2609C37.3228 28.372 38.8116 31.5013 38.8116 34.8463V36.994C38.8116 38.0354 37.9653 38.8827 36.925 38.8827H33.7182V34.0091C33.7182 33.6854 33.4559 33.423 33.1322 33.423C32.8085 33.423 32.5462 33.6854 32.5462 34.0091V38.8827H26.0348L24.2383 30.2607L25.4251 28.8914C25.5262 28.912 25.6285 28.9223 25.7305 28.9223C26.2298 28.9223 26.7213 28.6793 27.0116 28.2362L29.5516 24.3591C29.6328 24.2351 29.6969 24.1036 29.7448 23.968L29.8527 23.9888C30.7806 24.1675 31.6809 24.4636 32.5284 24.8688C32.61 24.9078 32.6961 24.9263 32.7808 24.9263C32.9995 24.9263 33.2092 24.8034 33.3098 24.5929C33.4495 24.3009 33.3259 23.951 33.034 23.8114C32.0963 23.363 31.1005 23.0355 30.0743 22.838L29.7526 22.7759C29.6798 22.5602 29.567 22.3563 29.4124 22.1777C28.5182 21.1448 27.4385 20.5991 26.854 20.3597V19.3269C27.1509 19.1288 27.4398 18.9089 27.7204 18.6671C28.8631 17.6823 29.6067 16.265 29.8734 14.599H30.6195C31.6236 14.599 32.4405 13.7816 32.4405 12.777V10.8746C32.4405 10.0806 31.93 9.40391 31.2203 9.15493V6.55258C31.2203 4.49532 30.1158 2.57243 28.3377 1.53438C27.7548 1.19407 27.0683 1.04173 26.384 1.09602C24.0376 -0.248118 21.1413 -0.336008 18.6414 1.09594C17.9574 1.0418 17.2712 1.1943 16.6885 1.53446C14.9105 2.57243 13.8059 4.49532 13.8059 6.55258V9.1518C13.0914 9.39813 12.5765 10.0771 12.5765 10.8746V12.777C12.5765 13.7816 13.3934 14.599 14.3974 14.599H15.1543C15.4144 16.2773 16.1462 17.6687 17.3047 18.6671C17.5824 18.9065 17.8685 19.1241 18.1623 19.3207V20.3597C17.5778 20.5991 16.498 21.1448 15.6038 22.1777C15.4487 22.3569 15.3356 22.5616 15.2629 22.778L14.9522 22.838C13.9834 23.0245 13.0407 23.3291 12.1468 23.7413H2.78813C1.97148 23.7413 1.30711 24.4056 1.30711 25.2223V25.8198C0.574609 25.9481 0.015625 26.5873 0.015625 27.356C0.015625 28.1248 0.574609 28.764 1.30711 28.8923V30.1498C0.574609 30.2781 0.015625 30.9173 0.015625 31.686C0.015625 32.4548 0.574609 33.094 1.30711 33.2223V34.4798C0.574609 34.6081 0.015625 35.2473 0.015625 36.016C0.015625 36.7848 0.574609 37.424 1.30711 37.5523V38.5737C1.30711 39.3904 1.97148 40.0548 2.78813 40.0548H36.9251C38.6116 40.0548 39.9836 38.6817 39.9836 36.9941V34.8463C39.9836 31.147 38.3372 27.6863 35.4665 25.3516ZM23.338 29.5102H21.6889L20.6674 28.3317L22.5083 27.1844L24.3558 28.3359L23.338 29.5102ZM26.1045 21.9691C26.2021 22.2208 26.132 22.5102 25.9299 22.6891L22.5083 25.7189L19.0866 22.6891C18.8846 22.5102 18.8145 22.2208 18.912 21.969C19.2298 21.0771 19.3344 20.9877 19.3344 20.7697V19.9713C21.2757 20.8456 23.5533 20.9309 25.6821 19.9754V20.7698C25.6822 20.9883 25.7901 21.0864 26.1045 21.9691ZM27.2943 21.8989C27.6904 22.147 28.1313 22.4884 28.5265 22.9449C28.7111 23.1581 28.7295 23.4756 28.5713 23.717L26.0314 27.5939C25.9339 27.743 25.7469 27.7923 25.5901 27.7192C25.4617 27.628 26.1871 28.0863 23.4898 26.4152L26.7068 23.5666C27.1813 23.1463 27.3968 22.5095 27.2943 21.8989ZM31.2687 10.8747V12.777C31.2687 13.1355 30.9776 13.4271 30.6197 13.4271H29.9801C29.9805 13.4133 29.9816 13.3998 29.9819 13.3859C29.9823 13.3698 29.9819 13.3537 29.9809 13.3377V10.2247H30.6197C30.9775 10.2245 31.2687 10.5162 31.2687 10.8747ZM30.0485 6.55258V9.05258H29.7187C29.1568 9.05258 28.6995 8.59485 28.6991 8.03219L28.6972 5.42532C28.6972 5.42126 28.6972 5.41719 28.697 5.41321C28.675 4.38454 28.3849 3.44251 27.8317 2.59719C29.2016 3.43688 30.0485 4.94321 30.0485 6.55258ZM14.3976 13.427C14.0398 13.427 13.7486 13.1354 13.7486 12.777V10.8746C13.7486 10.5162 14.0397 10.2245 14.3976 10.2245H15.0477L15.0499 13.3737C15.0499 13.3777 15.0499 13.3818 15.0501 13.3858C15.0504 13.3997 15.0515 13.4131 15.0518 13.427H14.3976V13.427ZM15.3079 9.05258H14.978V6.55258C14.978 4.94321 15.8249 3.43688 17.1948 2.59719C16.6416 3.44251 16.3516 4.38454 16.3295 5.41321C16.3295 5.41727 16.3294 5.42133 16.3294 5.42532L16.3275 8.03219C16.3271 8.59485 15.8697 9.05258 15.3079 9.05258ZM18.07 17.7793C16.8066 16.6905 16.373 15.1916 16.2565 13.9588C16.2562 13.9555 16.2559 13.9523 16.2555 13.949C16.2367 13.7468 16.226 13.5515 16.222 13.3667L16.2195 10.0249C16.9734 9.67821 17.4989 8.9161 17.4995 8.03313L17.5014 5.43251C17.5298 4.18407 18.0739 3.08876 19.1171 2.17524C21.2366 0.911335 23.7966 0.914304 25.9116 2.17712C26.9534 3.09024 27.4968 4.18493 27.5252 5.43251L27.5271 8.03313C27.5277 8.9168 28.0541 9.67946 28.809 10.0258V13.3733C28.809 13.3808 28.8091 13.3882 28.8094 13.3956C28.8049 13.5711 28.7945 13.7557 28.7766 13.9466C28.776 13.9513 28.7756 13.956 28.7752 13.9608C28.6579 15.1911 28.2225 16.6873 26.9555 17.7794C24.3206 20.0503 20.7146 20.0587 18.07 17.7793ZM16.4902 22.9448C16.8827 22.4914 17.3243 22.1504 17.7219 21.9016C17.6205 22.5113 17.8361 23.147 18.3098 23.5665L21.5268 26.4151L19.4655 27.6998C19.3019 27.8017 19.0909 27.7552 18.9852 27.5938L16.4453 23.717C16.2871 23.4756 16.3056 23.158 16.4902 22.9448ZM1.18758 27.3559C1.18758 27.1413 1.36219 26.9667 1.5768 26.9667H2.24109C2.4557 26.9667 2.63031 27.1413 2.63031 27.3559C2.63031 27.5705 2.4557 27.7452 2.24109 27.7452H1.5768C1.36219 27.7452 1.18758 27.5706 1.18758 27.3559ZM1.18758 31.6859C1.18758 31.4713 1.36219 31.2967 1.5768 31.2967H2.24109C2.4557 31.2967 2.63031 31.4713 2.63031 31.6859C2.63031 31.9005 2.4557 32.0752 2.24109 32.0752H1.5768C1.36219 32.0752 1.18758 31.9006 1.18758 31.6859ZM1.5768 36.4052C1.36219 36.4052 1.18758 36.2305 1.18758 36.0159C1.18758 35.8013 1.36219 35.6267 1.5768 35.6267H2.24109C2.4557 35.6267 2.63031 35.8013 2.63031 36.0159C2.63031 36.2305 2.4557 36.4052 2.24109 36.4052C2.23078 36.4052 1.56531 36.4052 1.5768 36.4052ZM4.54219 38.8827H2.78813C2.61773 38.8827 2.47914 38.7441 2.47914 38.5737V37.5572C3.22711 37.442 3.80234 36.7959 3.80234 36.016C3.80234 35.2363 3.22711 34.5902 2.47914 34.4749V33.2272C3.22711 33.112 3.80234 32.4658 3.80234 31.686C3.80234 30.9063 3.22711 30.2602 2.47914 30.1449V28.8972C3.22711 28.782 3.80234 28.1358 3.80234 27.356C3.80234 26.5763 3.22711 25.9302 2.47914 25.8149V25.2223C2.47914 25.0519 2.61781 24.9133 2.78813 24.9133H4.54227L4.54219 38.8827ZM13.193 38.5737C13.193 38.7441 13.0544 38.8827 12.8841 38.8827H5.71422V24.9131H12.2723C12.273 24.9131 12.2737 24.9133 12.2745 24.9133C12.2754 24.9133 12.2763 24.9131 12.2773 24.9131H12.8841C13.0545 24.9131 13.193 25.0518 13.193 25.2221V38.5737ZM20.1926 38.8662L20.6934 36.4624C20.7595 36.1455 20.5562 35.8352 20.2393 35.7691C19.9225 35.7036 19.6121 35.9065 19.5461 36.2233L18.992 38.8827H14.332C14.3533 38.783 14.365 38.6798 14.365 38.5737V25.2222C14.365 24.863 14.2362 24.5334 14.0227 24.2766C14.4009 24.1607 14.785 24.0637 15.1741 23.9887L15.2725 23.9697C15.3203 24.1047 15.3841 24.2356 15.465 24.3591L18.0048 28.236C18.2953 28.6792 18.7866 28.9221 19.2859 28.9221C19.3909 28.9221 19.4962 28.9112 19.6 28.8893L20.7885 30.2605L20.105 33.5406C20.039 33.8575 20.2423 34.1678 20.5591 34.2339C20.876 34.2998 21.1863 34.0966 21.2523 33.7798L21.8978 30.682H23.1291L24.8343 38.8659H20.1926V38.8662Z" fill="white"/>
<path d="M10.9798 28.5625H7.54109C7.2175 28.5625 6.95508 28.8248 6.95508 29.1485C6.95508 29.4722 7.21742 29.7345 7.54109 29.7345H10.9798C11.3034 29.7345 11.5658 29.4722 11.5658 29.1485C11.5658 28.8248 11.3034 28.5625 10.9798 28.5625Z" fill="white"/>
<path d="M10.9798 30.875H7.54109C7.2175 30.875 6.95508 31.1373 6.95508 31.461C6.95508 31.7847 7.21742 32.047 7.54109 32.047H10.9798C11.3034 32.047 11.5658 31.7847 11.5658 31.461C11.5658 31.1373 11.3034 30.875 10.9798 30.875Z" fill="white"/>
</g>
<defs>
<clipPath id="clip0_4399_2059">
<rect width="40" height="40" fill="white" transform="translate(0 0.0546875)"/>
</clipPath>
</defs>
</svg>
