<svg width="92" height="80" viewBox="0 0 92 80" fill="none" xmlns="http://www.w3.org/2000/svg">
<path opacity="0.2" fill-rule="evenodd" clip-rule="evenodd" d="M92 55.3673V55.4873C91.9678 56.784 90.8972 57.8347 89.5932 57.8347C88.269 57.8347 87.1856 56.7513 87.1856 55.4273C87.1856 54.1031 88.269 53.0197 89.5932 53.0197C90.8972 53.0197 91.9678 54.0707 92 55.3673ZM92 36.107V36.2274C91.9678 37.5241 90.8972 38.5747 89.5932 38.5747C88.269 38.5747 87.1856 37.4914 87.1856 36.1672C87.1856 34.843 88.269 33.7596 89.5932 33.7596C90.8972 33.7596 91.9678 34.8103 92 36.107ZM0.515625 55.4271C0.515625 54.1031 1.599 53.0197 2.9232 53.0197C4.24717 53.0197 5.33055 54.1031 5.33077 55.4271C5.33077 56.7513 4.2474 57.8347 2.9232 57.8347C1.599 57.8347 0.515625 56.7513 0.515625 55.4271ZM0.515625 36.1672C0.515625 34.843 1.599 33.7596 2.9232 33.7596C4.24717 33.7596 5.33055 34.843 5.33077 36.1672C5.33077 37.4914 4.2474 38.5747 2.9232 38.5747C1.599 38.5747 0.515625 37.4914 0.515625 36.1672ZM12.5533 16.907C12.5533 14.2589 14.72 12.0921 17.3682 12.0921C20.0164 12.0921 22.1831 14.2591 22.1831 16.9073C22.1831 19.5554 20.0166 21.7222 17.3682 21.7222C14.7198 21.7222 12.5533 19.5552 12.5533 16.907ZM12.5533 36.1672C12.5533 33.519 14.72 31.3523 17.3682 31.3523C20.0164 31.3523 22.1831 33.519 22.1831 36.1672C22.1831 38.8153 20.0164 40.9821 17.3682 40.9821C14.72 40.9821 12.5533 38.8153 12.5533 36.1672ZM12.5533 55.4271C12.5533 52.7789 14.72 50.6122 17.3682 50.6122C20.0164 50.6122 22.1831 52.7789 22.1831 55.4271C22.1831 58.0755 20.0164 60.242 17.3682 60.242C14.72 60.242 12.5533 58.0753 12.5533 55.4271ZM58.2956 2.46204C58.2956 3.78624 57.2122 4.86961 55.888 4.86961C54.5641 4.86961 53.4807 3.78624 53.4805 2.46226C53.4805 1.13806 54.5638 0.0546875 55.888 0.0546875C57.2122 0.0546875 58.2956 1.13806 58.2956 2.46204ZM41.443 16.9073C41.443 19.5554 39.2763 21.7222 36.6281 21.7222C33.9799 21.7222 31.8132 19.5554 31.8132 16.9073C31.8132 14.2591 33.9799 12.0923 36.6281 12.0923C39.2763 12.0923 41.443 14.2591 41.443 16.9073ZM39.0357 2.46204C39.0357 3.78624 37.9523 4.86961 36.6281 4.86961C35.3039 4.86961 34.2205 3.78624 34.2205 2.46226C34.2205 1.13806 35.3039 0.0546875 36.6281 0.0546875C37.9523 0.0546875 39.0357 1.13806 39.0357 2.46204ZM60.7029 16.9073C60.7029 19.5554 58.5362 21.7222 55.888 21.7222C53.2399 21.7222 51.0731 19.5554 51.0731 16.9073C51.0731 14.2591 53.2399 12.0923 55.888 12.0923C58.5362 12.0923 60.7029 14.2591 60.7029 16.9073ZM12.5533 74.687C12.5533 72.0388 14.72 69.8721 17.3682 69.8721C20.0164 69.8721 22.1831 72.0388 22.1831 74.6872C22.1831 77.3354 20.0164 79.5019 17.3682 79.5019C14.72 79.5019 12.5533 77.3352 12.5533 74.687ZM48.6655 36.1672C48.6655 32.1707 51.8915 28.9447 55.888 28.9447C59.8846 28.9447 63.1105 32.1707 63.1105 36.1672C63.1105 40.1637 59.8846 43.3897 55.888 43.3897C51.8915 43.3897 48.6655 40.1637 48.6655 36.1672ZM70.3333 55.4271C70.3333 52.7789 72.5 50.6122 75.1482 50.6122C77.7963 50.6122 79.9631 52.7789 79.9631 55.4271C79.9631 58.0753 77.7963 60.242 75.1482 60.242C72.5 60.242 70.3333 58.0753 70.3333 55.4271ZM70.3333 74.687C70.3333 72.0388 72.5 69.8721 75.1482 69.8721C77.7963 69.8721 79.9631 72.0388 79.9631 74.6872C79.9631 77.3354 77.7963 79.5022 75.1482 79.5019C72.5 79.5019 70.3333 77.3352 70.3333 74.687ZM70.3333 36.1672C70.3333 33.519 72.5 31.3523 75.1482 31.3523C77.7963 31.3523 79.9631 33.519 79.9631 36.1672C79.9631 38.8153 77.7963 40.9821 75.1482 40.9821C72.5 40.9821 70.3333 38.8153 70.3333 36.1672ZM70.3333 16.907C70.3333 14.2589 72.5 12.0921 75.1482 12.0921C77.7963 12.0921 79.9631 14.2591 79.9631 16.9073C79.9631 19.5554 77.7963 21.7222 75.1482 21.7222C72.4998 21.7222 70.3333 19.5552 70.3333 16.907ZM29.4056 55.4271C29.4056 51.4306 32.6316 48.2046 36.6281 48.2046C40.6246 48.2046 43.8506 51.4306 43.8506 55.4271C43.8506 59.4236 40.6246 62.6496 36.6281 62.6496C32.6316 62.6496 29.4056 59.4236 29.4056 55.4271ZM31.8132 74.687C31.8132 72.0388 33.9799 69.8721 36.6281 69.8721C39.2763 69.8721 41.443 72.0388 41.443 74.687C41.443 77.3352 39.2763 79.5019 36.6281 79.5019C33.9799 79.5019 31.8132 77.3352 31.8132 74.687ZM29.4056 36.1672C29.4056 32.1707 32.6316 28.9447 36.6281 28.9447C40.6246 28.9447 43.8506 32.1707 43.8506 36.1672C43.8506 40.1637 40.6246 43.3897 36.6281 43.3897C32.6316 43.3897 29.4056 40.1637 29.4056 36.1672ZM51.0731 74.687C51.0731 72.0388 53.2399 69.8721 55.888 69.8721C58.5364 69.8721 60.7032 72.0388 60.7029 74.6872C60.7029 77.3354 58.5362 79.5022 55.888 79.5022C53.2399 79.5022 51.0731 77.3354 51.0731 74.687ZM48.6655 55.4271C48.6655 51.4306 51.8915 48.2046 55.888 48.2046C59.8846 48.2046 63.1105 51.4306 63.1105 55.4271C63.1105 59.4236 59.8846 62.6496 55.888 62.6496C51.8915 62.6496 48.6655 59.4236 48.6655 55.4271Z" fill="#FEC961"/>
</svg>
