<svg width="57" height="119" viewBox="0 0 57 119" fill="none" xmlns="http://www.w3.org/2000/svg">
<g opacity="0.1">
<path fill-rule="evenodd" clip-rule="evenodd" d="M33.4349 0.244342C24.8796 1.25938 24.3963 1.25938 23.9613 0.872699C23.2362 0.147673 21.6411 0.389349 21.0128 1.30772C20.4328 2.22608 7.91392 31.2271 7.91392 31.7105C7.91392 31.8555 6.12559 36.399 3.99885 41.8125C-1.94637 56.7481 -1.89801 56.7964 8.49403 57.2314C14.9226 57.4731 25.7979 59.0682 25.7979 59.6965C25.7979 60.0832 20.7227 67.6718 16.5176 73.5687C9.75068 83.0907 3.95044 93.2411 2.35538 98.3163C1.72703 100.395 1.67879 100.83 2.21047 101.845C2.54882 102.473 2.74211 103.585 2.64544 104.31C2.59711 105.035 2.79049 105.808 3.17717 106.098C4.38555 107.113 5.64217 106.243 7.91392 102.956C9.17063 101.071 14.1492 95.5128 19.6111 89.7609C24.8796 84.2991 31.3564 77.0971 34.0149 73.8104C40.0084 66.3668 51.3188 52.9779 54.5573 49.4978C56.4907 47.4194 56.974 46.646 56.974 45.5343C56.974 44.7126 56.684 43.8909 56.249 43.5043C54.0256 41.5708 48.5638 39.9758 38.0751 38.1874C33.7733 37.4624 30.1481 36.834 30.0514 36.7373C29.9547 36.6407 31.0181 34.8039 32.3715 32.5322C33.6766 30.3088 36.19 26.152 37.8334 23.3002C41.2652 17.4033 44.0203 13.2465 47.2588 8.89633C49.9172 5.36786 50.3038 3.67614 49.0471 2.03274C48.6121 1.40439 47.4521 0.727693 46.6304 0.437683C45.1803 0.051002 36.335 -0.094004 33.4349 0.244342ZM41.6036 8.36464C38.8968 12.1831 37.5917 14.3582 30.6798 26.1036C23.1879 38.8157 22.9461 39.3958 25.0729 40.7975C25.5562 41.0875 29.1814 41.8609 33.0482 42.4409C42.0868 43.8426 48.4188 45.051 49.8688 45.6793L51.0289 46.1627L45.0353 53.4129C41.7002 57.3764 36.1417 64.24 32.6616 68.5418C29.1815 72.892 24.1062 78.7405 21.4477 81.5923C18.741 84.4441 15.3575 88.0209 13.9558 89.5676C12.5058 91.066 11.3458 92.1777 11.3458 92.0327C11.3458 91.5977 18.5477 80.6256 23.7679 73.1337C25.9429 69.9436 28.5047 66.1251 29.3748 64.6267C30.2448 63.1283 31.5015 61.2916 32.1298 60.4699C33.9666 58.1981 33.4832 55.8297 31.1148 55.298C26.5713 54.283 14.7292 52.5429 10.8624 52.3012C8.15564 52.1562 5.98052 51.9629 5.98052 51.8662C5.98052 51.6245 10.9107 39.1058 17.871 21.6085L24.3962 5.36786L28.7464 5.22286C31.1631 5.17452 35.6099 5.07785 38.6067 5.02952L44.117 4.93285L41.6036 8.36464Z" fill="#1F1C35"/>
<path fill-rule="evenodd" clip-rule="evenodd" d="M34.7886 97.7343C30.8734 99.8127 22.4147 105.323 20.723 106.918C18.2579 109.238 18.6446 111.896 21.448 111.896C22.0764 111.896 36.6253 103.003 38.6554 101.456C39.3804 100.876 40.2505 99.3293 40.2505 98.701C40.2505 97.9759 38.6553 96.5742 37.7853 96.5742C37.3986 96.5742 36.0453 97.1059 34.7886 97.7343Z" fill="#1F1C35"/>
<path fill-rule="evenodd" clip-rule="evenodd" d="M27.006 114.317C26.281 114.897 26.136 115.332 26.281 116.153C26.6677 117.507 27.3445 117.7 33.628 117.99C39.2349 118.232 40.7815 117.845 41.0232 116.25C41.1682 114.993 40.2982 114.51 37.1081 114.027C32.3713 113.302 28.0694 113.447 27.006 114.317Z" fill="#1F1C35"/>
</g>
</svg>
