<svg width="70" height="45" viewBox="0 0 70 45" fill="none" xmlns="http://www.w3.org/2000/svg">
<path d="M48.964 34.6255C47.2363 34.0094 44.4167 33.9677 43.167 33.5007C42.2047 33.2504 41.2961 32.8269 40.4856 32.251C40.1449 30.8153 39.9974 29.3406 40.0471 27.866C40.6894 27.2494 41.2101 26.5176 41.5818 25.7085C41.9547 24.3201 42.202 22.9009 42.3207 21.4682C42.3207 21.4682 43.338 21.9067 43.7393 19.8655C44.0791 18.1114 44.7259 17.184 44.5571 15.8882C44.3882 14.5924 43.6625 14.9016 43.6625 14.9016C44.4496 13.0878 44.7576 11.1023 44.5571 9.13527C44.5451 7.86932 44.2728 6.61938 43.7569 5.46322C43.2411 4.30707 42.4929 3.26944 41.5588 2.41492C40.6246 1.5604 39.5247 0.907271 38.3273 0.496176C37.1299 0.0850799 35.8607 -0.0751837 34.5986 0.0253588C33.3364 -0.0752459 32.067 0.0841743 30.8689 0.493759C29.6707 0.903345 28.5693 1.55439 27.6329 2.40662C26.6964 3.25885 25.9447 4.29415 25.4243 5.44848C24.9039 6.60282 24.6258 7.85165 24.6073 9.11773C24.4089 11.083 24.7105 13.0666 25.4844 14.8841C25.4844 14.8841 24.7608 14.5749 24.5898 15.8707C24.4188 17.1665 25.0546 18.1071 25.4032 19.8611C25.8045 21.9111 26.8218 21.4638 26.8218 21.4638C26.9417 22.8964 27.189 24.3154 27.5607 25.7041C27.9324 26.5132 28.453 27.2451 29.0954 27.8616C29.1451 29.3362 28.9976 30.811 28.6569 32.2466C27.8487 32.823 26.939 33.2418 25.9755 33.481C24.7433 33.959 21.9215 34.0204 20.1785 34.6364C18.0768 35.4241 16.2702 36.8425 15.0063 38.6971C13.7424 40.5518 13.083 42.752 13.1186 44.9961H56.0086C56.0508 42.7513 55.396 40.5485 54.1344 38.6913C52.8728 36.834 51.0664 35.4136 48.964 34.6255Z" fill="#FD2121"/>
<path d="M16.7289 27.118C18.5401 27.0937 20.3139 26.5996 21.8769 25.6841C19.4871 22.0621 20.7807 17.8371 20.2896 13.8906C20.2654 12.9926 20.0555 12.1094 19.673 11.2967C19.2905 10.4839 18.7438 9.75916 18.0674 9.16817C17.3909 8.57719 16.5993 8.13275 15.7425 7.8629C14.8858 7.59304 13.9824 7.50361 13.0893 7.60024H13.0279C12.1402 7.5159 11.2445 7.61445 10.3963 7.88979C9.54808 8.16512 8.76532 8.61141 8.09632 9.20109C7.42733 9.79078 6.88632 10.5113 6.50669 11.3183C6.12706 12.1252 5.91687 13.0014 5.8891 13.8928C5.39579 17.8239 6.76611 22.5269 4.31707 25.6863C5.88492 26.5868 7.67354 27.0303 9.48045 26.9668C9.57403 27.8324 9.52215 28.7076 9.32697 29.5561C8.79635 29.9981 8.15767 30.291 7.47649 30.4046C6.12531 30.697 4.79221 31.0674 3.48391 31.514C2.43568 32.0619 1.55708 32.8857 0.94306 33.8966C0.329038 34.9075 0.00293833 36.0669 0 37.2497H12.3812C13.5065 35.2391 15.231 33.6296 17.3143 32.6454C18.5216 32.1395 19.8139 31.8672 21.1227 31.8429C21.1227 31.8429 21.7081 30.9177 19.7809 30.5625C18.7566 30.3376 17.7629 29.9909 16.821 29.5298C16.5272 29.2009 16.7289 27.118 16.7289 27.118Z" fill="#FD2121"/>
<path d="M52.4937 27.118C50.6825 27.0937 48.9087 26.5996 47.3457 25.6841C49.7355 22.0621 48.442 17.8371 48.9331 13.8906C48.9572 12.9926 49.1672 12.1094 49.5496 11.2967C49.9321 10.4839 50.4788 9.75916 51.1553 9.16817C51.8318 8.57719 52.6233 8.13275 53.4801 7.8629C54.3369 7.59304 55.2403 7.50361 56.1333 7.60024H56.1947C57.0825 7.5159 57.9781 7.61445 58.8264 7.88979C59.6746 8.16512 60.4573 8.61141 61.1263 9.20109C61.7953 9.79078 62.3363 10.5113 62.716 11.3183C63.0956 12.1252 63.3058 13.0014 63.3335 13.8928C63.8269 17.8239 62.4565 22.5269 64.9056 25.6863C63.3377 26.5868 61.5491 27.0303 59.7422 26.9668C59.6486 27.8324 59.7005 28.7076 59.8957 29.5561C60.4263 29.9981 61.065 30.291 61.7462 30.4046C63.0973 30.697 64.4304 31.0674 65.7387 31.514C66.787 32.0619 67.6656 32.8857 68.2796 33.8966C68.8936 34.9075 69.2197 36.0669 69.2226 37.2497H56.8415C55.7161 35.2391 53.9917 33.6296 51.9083 32.6454C50.701 32.1395 49.4087 31.8672 48.0999 31.8429C48.0999 31.8429 47.5145 30.9177 49.4417 30.5625C50.4661 30.3376 51.4598 29.9909 52.4016 29.5298C52.6954 29.2009 52.4937 27.118 52.4937 27.118Z" fill="#FD2121"/>
</svg>
