<svg width="25" height="25" viewBox="0 0 25 25" fill="none" xmlns="http://www.w3.org/2000/svg">
<path d="M12.4907 0.000927753C12.4895 0.00153449 12.4882 0.00185053 12.4868 0.00185116C9.57709 0.00320479 6.75906 1.02022 4.51906 2.87743C2.27852 4.73507 0.756913 7.31672 0.216921 10.1767C-0.323071 13.0366 0.152449 15.9953 1.56138 18.542C2.38357 20.0282 3.4935 21.3196 4.81385 22.3485C6.1031 23.3532 7.611 22.1307 7.97654 20.5376C8.11346 19.945 8.62172 17.784 8.99996 16.1773C9.28257 14.9769 9.05161 13.7147 9.06535 12.4815C9.06535 10.7457 10.0728 9.44988 11.3261 9.44988C12.3965 9.44988 12.9104 10.2522 12.9104 11.2079C12.9104 12.2763 12.2319 13.879 11.8715 15.3708C11.5739 16.6131 12.4981 17.6316 13.72 17.6316C15.9383 17.6316 17.6464 15.2877 17.6464 11.9159C17.6464 8.92488 15.4984 6.8397 12.4242 6.8397C8.86755 6.8397 6.78236 9.50164 6.78236 12.256C6.78236 13.3245 7.19275 14.4743 7.70665 15.1028C7.75258 15.1512 7.78457 15.2111 7.79921 15.2762C7.81386 15.3413 7.81062 15.4091 7.78983 15.4725C7.6974 15.8626 7.48112 16.7147 7.44045 16.8904C7.38869 17.1159 7.2556 17.1677 7.01898 17.0549C5.45509 16.3155 4.47905 14.0528 4.47905 12.2135C4.47905 8.27789 7.33694 4.65839 12.7329 4.65839C17.0604 4.65839 20.4322 7.74365 20.4322 11.8678C20.4322 16.1731 17.7185 19.6318 13.9622 19.6318C13.8718 19.6318 13.7818 19.6284 13.6924 19.6219C12.6159 19.5433 10.5989 20.1208 10.3224 21.1643C9.86785 22.949 10.5118 24.983 12.3534 24.9995C12.9309 25.0047 13.5094 24.9698 14.0849 24.8946C15.868 24.6616 17.5799 24.0466 19.1036 23.0916C20.6274 22.1366 21.9271 20.864 22.9141 19.3608C23.9011 17.8576 24.5522 16.1592 24.8229 14.3814C25.0935 12.6036 24.9774 10.7883 24.4825 9.0595C23.9875 7.33068 23.1254 5.729 21.9549 4.3638C20.7844 2.9986 19.3331 1.90203 17.7001 1.14893C16.0678 0.396119 14.2922 0.00423517 12.4947 4.70906e-06C12.4933 1.5008e-06 12.492 0.000317727 12.4907 0.000927753Z" fill="#C40027"/>
</svg>
