<svg width="40" height="41" viewBox="0 0 40 41" fill="none" xmlns="http://www.w3.org/2000/svg">
<path d="M4.55633 10.6673C4.87976 10.6673 5.14195 10.4052 5.14195 10.0817C5.14195 9.75829 4.87976 9.49609 4.55633 9.49609C4.2329 9.49609 3.9707 9.75829 3.9707 10.0817C3.9707 10.4052 4.2329 10.6673 4.55633 10.6673Z" fill="white"/>
<path d="M7.1618 10.6673C7.48523 10.6673 7.74742 10.4052 7.74742 10.0817C7.74742 9.75829 7.48523 9.49609 7.1618 9.49609C6.83837 9.49609 6.57617 9.75829 6.57617 10.0817C6.57617 10.4052 6.83837 10.6673 7.1618 10.6673Z" fill="white"/>
<path d="M9.76922 10.6673C10.0927 10.6673 10.3548 10.4052 10.3548 10.0817C10.3548 9.75829 10.0927 9.49609 9.76922 9.49609C9.44579 9.49609 9.18359 9.75829 9.18359 10.0817C9.18359 10.4052 9.44579 10.6673 9.76922 10.6673Z" fill="white"/>
<path d="M9.56023 25.0943L11.623 19.9081C11.7426 19.6074 11.5957 19.2667 11.2951 19.147C10.9942 19.0276 10.6537 19.1743 10.5341 19.4749L8.47133 24.6612C8.35172 24.9619 8.49859 25.3026 8.79922 25.4222C9.09992 25.5417 9.44055 25.3951 9.56023 25.0943Z" fill="white"/>
<path d="M13.7767 25.1334C14.0588 25.2969 14.4164 25.198 14.5774 24.9201L15.9625 22.5288C16.0696 22.344 16.0676 22.1155 15.9573 21.9326L14.5721 19.6351C14.405 19.358 14.045 19.2687 13.7678 19.4358C13.4907 19.603 13.4015 19.963 13.5686 20.2401L14.775 22.2411L13.5634 24.3328C13.4012 24.6127 13.4967 24.9712 13.7767 25.1334Z" fill="white"/>
<path d="M6.32636 19.4358C6.0491 19.2686 5.68909 19.358 5.52206 19.635L4.13691 21.9325C4.0266 22.1155 4.02456 22.344 4.13167 22.5288L5.51683 24.9201C5.67878 25.1998 6.03714 25.2959 6.31753 25.1334C6.59753 24.9712 6.69308 24.6127 6.53081 24.3327L5.31925 22.2411L6.52566 20.2402C6.69269 19.963 6.60355 19.6029 6.32636 19.4358Z" fill="white"/>
<path d="M32.6706 19.8203H19.6582C19.3346 19.8203 19.0723 20.0827 19.0723 20.4062C19.0723 20.7298 19.3346 20.9922 19.6582 20.9922H32.6706C32.9943 20.9922 33.2566 20.7298 33.2566 20.4062C33.2566 20.0827 32.9942 19.8203 32.6706 19.8203Z" fill="white"/>
<path d="M32.6706 24.0781H19.6582C19.3346 24.0781 19.0723 24.3405 19.0723 24.6641C19.0723 24.9877 19.3346 25.25 19.6582 25.25H32.6706C32.9943 25.25 33.2566 24.9877 33.2566 24.6641C33.2566 24.3405 32.9942 24.0781 32.6706 24.0781Z" fill="white"/>
<path d="M32.6704 28.3398H5.40234C5.07875 28.3398 4.81641 28.6022 4.81641 28.9258C4.81641 29.2494 5.07875 29.5117 5.40234 29.5117H32.6703C32.994 29.5117 33.2562 29.2494 33.2562 28.9258C33.2562 28.6022 32.994 28.3398 32.6704 28.3398Z" fill="white"/>
<path d="M32.6704 32.5977H5.40234C5.07875 32.5977 4.81641 32.86 4.81641 33.1836C4.81641 33.5072 5.07875 33.7695 5.40234 33.7695H32.6703C32.994 33.7695 33.2562 33.5072 33.2562 33.1836C33.2562 32.86 32.994 32.5977 32.6704 32.5977Z" fill="white"/>
<path d="M40 9.86812C40 5.19578 36.1987 1.39453 31.5263 1.39453C26.854 1.39453 23.0527 5.19578 23.0527 9.86812C23.0527 10.7633 23.1927 11.6263 23.4512 12.437H1.17188V8.85437C1.17188 8.23273 1.67758 7.72703 2.29922 7.72703H21.333C21.6567 7.72703 21.919 7.46469 21.919 7.14109C21.919 6.8175 21.6567 6.55516 21.333 6.55516H2.29922C1.03141 6.55516 0 7.58664 0 8.85437V36.4181C0 37.6859 1.03141 38.7173 2.29922 38.7173H34.8527C36.1205 38.7173 37.1519 37.6859 37.1519 36.4181V18.8189C37.1519 18.4953 36.8896 18.233 36.5659 18.233C36.2423 18.233 35.98 18.4953 35.98 18.8189V36.4181C35.98 37.0398 35.4743 37.5455 34.8527 37.5455H2.29922C1.67758 37.5455 1.17188 37.0398 1.17188 36.4181V13.6088H23.9246C25.3087 16.4102 28.196 18.3418 31.5263 18.3418C36.1987 18.3418 40 14.5405 40 9.86812ZM31.5263 17.1699C27.5002 17.1699 24.2246 13.8944 24.2246 9.8682C24.2246 5.84203 27.5002 2.56648 31.5263 2.56648C35.5525 2.56648 38.8281 5.84195 38.8281 9.86812C38.8281 13.8943 35.5525 17.1699 31.5263 17.1699Z" fill="white"/>
<path d="M37.4819 8.78111C37.4819 8.50393 37.3057 8.25736 37.0436 8.1676L32.2376 6.52041C31.7784 6.36299 31.2724 6.36299 30.8134 6.52041L26.0072 8.1676C25.4252 8.36721 25.4241 9.19463 26.0074 9.39463L27.3187 9.84408V11.9541C27.3187 12.7686 27.9813 13.4313 28.7958 13.4313H34.2551C35.0696 13.4313 35.7323 12.7686 35.7323 11.9541V9.844L36.31 9.64604V10.3996C36.31 10.7231 36.5723 10.9855 36.8959 10.9855C37.2196 10.9855 37.4819 10.7231 37.4819 10.3996C37.4819 10.0525 37.4819 9.40986 37.4819 8.78111ZM34.5605 11.9541C34.5605 12.1224 34.4235 12.2594 34.2552 12.2594H28.7959C28.6276 12.2594 28.4906 12.1224 28.4906 11.9541V10.2456L30.8134 11.0417C31.2724 11.1992 31.7783 11.1992 32.2376 11.0417L34.5604 10.2456V11.9541H34.5605ZM31.8577 9.93322C31.6434 10.0066 31.4075 10.0066 31.1933 9.93322L27.8317 8.78111L31.1933 7.62893C31.4075 7.55557 31.6434 7.55557 31.8577 7.62893L35.2192 8.78111L31.8577 9.93322Z" fill="white"/>
</svg>
