<svg width="40" height="41" viewBox="0 0 40 41" fill="none" xmlns="http://www.w3.org/2000/svg">
<g clip-path="url(#clip0_4399_2026)">
<path d="M29.137 13.9688H14.2051C13.8815 13.9688 13.6191 14.2311 13.6191 14.5547C13.6191 14.8783 13.8815 15.1406 14.2051 15.1406H29.137C29.4605 15.1406 29.7229 14.8783 29.7229 14.5547C29.7229 14.2311 29.4605 13.9688 29.137 13.9688Z" fill="white"/>
<path d="M29.137 16.4844H14.2051C13.8815 16.4844 13.6191 16.7467 13.6191 17.0703C13.6191 17.3939 13.8815 17.6562 14.2051 17.6562H29.137C29.4605 17.6562 29.7229 17.3939 29.7229 17.0703C29.7229 16.7467 29.4605 16.4844 29.137 16.4844Z" fill="white"/>
<path d="M11.5132 8.86586C11.5132 9.18945 11.7755 9.4518 12.0991 9.4518H21.088C21.7334 9.4518 22.2584 8.92672 22.2584 8.28125V6.19C22.2584 5.54461 21.7334 5.01953 21.088 5.01953H7.44781C6.80242 5.01953 6.27734 5.54461 6.27734 6.19V8.28133C6.27734 8.9268 6.80242 9.45187 7.44781 9.45187H9.35805C9.68164 9.45187 9.94398 9.18953 9.94398 8.86594C9.94398 8.54234 9.68164 8.28 9.35805 8.28L7.44922 8.28133L7.44781 6.19133L21.0866 6.18992L21.088 8.27984H12.0991C11.7755 8.27992 11.5132 8.54227 11.5132 8.86586Z" fill="white"/>
<path d="M33.2846 26.0748C32.961 26.0748 32.6987 26.3371 32.6987 26.6607V35.9148C32.6987 37.5514 31.3672 38.8829 29.7305 38.8829H6.27086C4.63422 38.8829 3.30273 37.5514 3.30273 35.9148V4.19469C3.30273 2.55805 4.63422 1.22656 6.27086 1.22656C25.1524 1.24258 24.1073 1.18805 24.4745 1.26914V6.96086C24.4745 8.33375 25.5915 9.4507 26.9644 9.4507H32.6561C32.6834 9.57406 32.6987 9.70086 32.6987 9.83023V14.8413C32.6987 15.1648 32.961 15.4272 33.2846 15.4272C33.6082 15.4272 33.8705 15.1648 33.8705 14.8413V9.83023C33.8705 9.05109 33.5672 8.31859 33.0163 7.76773L26.1575 0.908984C25.6066 0.358047 24.8741 0.0546875 24.095 0.0546875H6.27086C3.98805 0.0546875 2.13086 1.91188 2.13086 4.19469V35.9148C2.13086 38.1976 3.98805 40.0548 6.27086 40.0548H29.7306C32.0134 40.0548 33.8706 38.1976 33.8706 35.9148V26.6607C33.8705 26.3371 33.6082 26.0748 33.2846 26.0748ZM31.8701 8.27883H26.9644C26.2377 8.27883 25.6464 7.68758 25.6464 6.96086V2.05516L31.8701 8.27883Z" fill="white"/>
<path d="M11.3145 14.3859C11.3145 13.7854 10.826 13.2969 10.2255 13.2969H7.36641C6.76586 13.2969 6.27734 13.7854 6.27734 14.3859V17.245C6.27734 17.8455 6.76586 18.3341 7.36641 18.3341H10.2255C10.826 18.3341 11.3145 17.8455 11.3145 17.245V14.3859ZM10.1427 17.1622H7.44922V14.4688H10.1427V17.1622Z" fill="white"/>
<path d="M11.3145 21.675C11.3145 21.0745 10.826 20.5859 10.2255 20.5859H7.36641C6.76586 20.5859 6.27734 21.0745 6.27734 21.675V24.5341C6.27734 25.1346 6.76586 25.6231 7.36641 25.6231H10.2255C10.826 25.6231 11.3145 25.1346 11.3145 24.5341V21.675ZM10.1427 24.4512H7.44922V21.7578H10.1427V24.4512Z" fill="white"/>
<path d="M10.2255 27.875H7.36641C6.76586 27.875 6.27734 28.3635 6.27734 28.9641V31.8231C6.27734 32.4237 6.76586 32.9122 7.36641 32.9122H10.2255C10.826 32.9122 11.3145 32.4237 11.3145 31.8231V28.9641C11.3145 28.3635 10.826 27.875 10.2255 27.875ZM10.1427 31.7402H7.44922V29.0468H10.1427V31.7402Z" fill="white"/>
<path d="M37.0865 16.9258C36.0449 15.8841 34.3501 15.8841 33.3085 16.9258L28.9749 21.2594H14.2051C13.8815 21.2594 13.6191 21.5217 13.6191 21.8453C13.6191 22.1689 13.8815 22.4312 14.2051 22.4312H27.803L26.4594 23.7749H14.2051C13.8815 23.7749 13.6191 24.0372 13.6191 24.3608C13.6191 24.6844 13.8815 24.9468 14.2051 24.9468H25.2875L21.6838 28.5504H14.2051C13.8815 28.5504 13.6191 28.8128 13.6191 29.1364C13.6191 29.46 13.8815 29.7223 14.2051 29.7223H20.512L19.1683 31.066H14.2052C13.8816 31.066 13.6192 31.3283 13.6192 31.6519C13.6192 31.9755 13.8816 32.2379 14.2052 32.2379H18.0132C17.652 32.655 17.3713 33.1125 17.173 33.6273L15.9379 36.8327C15.8015 37.1868 15.8867 37.589 16.155 37.8572C16.4247 38.1269 16.8272 38.2101 17.1796 38.0744L20.3848 36.8393C21.0172 36.5957 21.5759 36.2143 22.0036 35.7865L25.5523 32.2378H29.137C29.4605 32.2378 29.7229 31.9754 29.7229 31.6519C29.7229 31.3283 29.4605 31.0659 29.137 31.0659H26.7242L28.0679 29.7222H29.137C29.4605 29.7222 29.7229 29.4599 29.7229 29.1363C29.7229 28.845 29.51 28.604 29.2315 28.5587L37.0866 20.7036C38.1281 19.6622 38.1281 17.9674 37.0865 16.9258ZM19.9634 35.7459L17.2026 36.8097L18.2664 34.0488C18.308 33.9407 18.3553 33.8346 18.4078 33.731L20.2813 35.6045C20.1777 35.657 20.0716 35.7042 19.9634 35.7459ZM21.2335 34.8994L19.1128 32.7787L30.6466 21.2449L32.7673 23.3656L21.2335 34.8994ZM33.596 22.537L31.4753 20.4163L32.4416 19.45L34.5623 21.5707L33.596 22.537ZM36.2579 19.8751L35.391 20.742L33.2702 18.6212L34.1371 17.7544C34.7218 17.1697 35.6731 17.1697 36.2579 17.7544C36.8426 18.339 36.8426 19.2904 36.2579 19.8751Z" fill="white"/>
</g>
<defs>
<clipPath id="clip0_4399_2026">
<rect width="40" height="40" fill="white" transform="translate(0 0.0546875)"/>
</clipPath>
</defs>
</svg>
