<svg width="40" height="41" viewBox="0 0 40 41" fill="none" xmlns="http://www.w3.org/2000/svg">
<g clip-path="url(#clip0_4399_2044)">
<path d="M4.08422 6.29344C4.36804 6.29344 4.59812 6.06335 4.59812 5.77953C4.59812 5.49571 4.36804 5.26562 4.08422 5.26562C3.8004 5.26562 3.57031 5.49571 3.57031 5.77953C3.57031 6.06335 3.8004 6.29344 4.08422 6.29344Z" fill="white"/>
<path d="M6.37133 6.29344C6.65515 6.29344 6.88523 6.06335 6.88523 5.77953C6.88523 5.49571 6.65515 5.26562 6.37133 5.26562C6.08751 5.26562 5.85742 5.49571 5.85742 5.77953C5.85742 6.06335 6.08751 6.29344 6.37133 6.29344Z" fill="white"/>
<path d="M8.65844 6.29344C8.94226 6.29344 9.17234 6.06335 9.17234 5.77953C9.17234 5.49571 8.94226 5.26562 8.65844 5.26562C8.37462 5.26562 8.14453 5.49571 8.14453 5.77953C8.14453 6.06335 8.37462 6.29344 8.65844 6.29344Z" fill="white"/>
<path d="M15.8203 14.582H4.24609C3.9225 14.582 3.66016 14.8443 3.66016 15.168C3.66016 15.4916 3.9225 15.7539 4.24609 15.7539H15.8203C16.1439 15.7539 16.4062 15.4916 16.4062 15.168C16.4062 14.8443 16.1439 14.582 15.8203 14.582Z" fill="white"/>
<path d="M15.8203 17.6992H4.24609C3.9225 17.6992 3.66016 17.9615 3.66016 18.2852C3.66016 18.6088 3.9225 18.8711 4.24609 18.8711H15.8203C16.1439 18.8711 16.4062 18.6088 16.4062 18.2852C16.4062 17.9616 16.1439 17.6992 15.8203 17.6992Z" fill="white"/>
<path d="M16.4062 21.4023C16.4062 21.0787 16.1439 20.8164 15.8203 20.8164H4.24609C3.9225 20.8164 3.66016 21.0787 3.66016 21.4023C3.66016 21.726 3.9225 21.9883 4.24609 21.9883H15.8203C16.1439 21.9883 16.4062 21.726 16.4062 21.4023Z" fill="white"/>
<path d="M4.24609 23.9375C3.9225 23.9375 3.66016 24.1998 3.66016 24.5234C3.66016 24.8471 3.9225 25.1094 4.24609 25.1094H10.5697C10.8933 25.1094 11.1556 24.8471 11.1556 24.5234C11.1556 24.1998 10.8933 23.9375 10.5697 23.9375H4.24609Z" fill="white"/>
<path d="M15.6638 31.7791H2.20977C1.63742 31.7791 1.17187 31.3135 1.17187 30.7412V9.15297H34.1021V12.9299C34.1021 13.2536 34.3644 13.5159 34.688 13.5159C35.0117 13.5159 35.274 13.2536 35.274 12.9299V4.61602C35.274 3.39758 34.2826 2.40625 33.0641 2.40625H2.20977C0.991328 2.40633 0 3.39758 0 4.61602V30.7412C0 31.9597 0.991328 32.951 2.20977 32.951H15.6638C15.9874 32.951 16.2498 32.6887 16.2498 32.3651C16.2498 32.0414 15.9874 31.7791 15.6638 31.7791ZM1.17187 4.61602C1.17187 4.04375 1.6375 3.57812 2.20977 3.57812H33.0641C33.6364 3.57812 34.102 4.04375 34.102 4.61602V7.98109H1.17187V4.61602Z" fill="white"/>
<path d="M39.1466 14.756C38.0084 13.6178 36.1664 13.6178 35.028 14.756L31.6468 18.1372C31.1396 17.8826 30.6092 17.6745 30.0636 17.5174C29.9947 16.7352 29.3348 16.12 28.5369 16.12C28.5351 16.12 28.5332 16.12 28.5314 16.12L26.3907 16.1275C25.5893 16.1303 24.9321 16.7519 24.8709 17.5358C24.2314 17.7248 23.613 17.9833 23.0294 18.3057C22.4333 17.7971 21.5277 17.8271 20.9589 18.3996L19.4485 19.9206C18.8784 20.4948 18.8573 21.4009 19.369 21.9917C19.0507 22.5774 18.7966 23.1974 18.612 23.8383C17.8323 23.9031 17.2115 24.5572 17.2143 25.3649L17.2218 27.5024C17.2246 28.3007 17.8439 28.9615 18.6298 29.0304C18.7844 29.5535 18.9867 30.0631 19.2323 30.5519L18.8008 30.9834C18.2909 31.4931 17.901 32.0927 17.6418 32.7655L16.2642 36.3408C16.1194 36.7166 16.2064 37.1268 16.4912 37.4116C16.7766 37.697 17.1874 37.7828 17.5618 37.6383L21.1371 36.2607C21.8099 36.0015 22.4095 35.6116 22.9192 35.1018L23.3505 34.6705C23.8576 34.9251 24.3877 35.1335 24.9331 35.2906C25.0005 36.073 25.6589 36.6881 26.4573 36.6881H26.4627L28.6092 36.6806C29.4155 36.6777 30.068 36.0524 30.1266 35.2722C30.7661 35.0831 31.3844 34.8246 31.9677 34.5024C32.5614 35.0088 33.4674 34.983 34.0381 34.4085L35.5486 32.8874C36.1066 32.3254 36.1499 31.4189 35.6281 30.8163C35.9464 30.2304 36.2007 29.6102 36.3852 28.9692C37.1693 28.9002 37.7855 28.2374 37.7827 27.437L37.7752 25.2871C37.7723 24.4803 37.1462 23.8322 36.3667 23.7756C36.212 23.2522 36.0098 22.7435 35.7652 22.256L39.1466 18.8745C40.2846 17.7363 40.2848 15.8942 39.1466 14.756ZM17.4939 36.4086C18.7798 33.1006 18.7291 33.1375 18.9391 32.7438L21.1587 34.9635C20.7645 35.1738 20.7998 35.1236 17.4939 36.4086ZM29.3994 22.0419C29.7667 22.2025 30.1095 22.4084 30.4217 22.6521L20.4632 32.6106L19.6469 31.7944L29.3994 22.0419ZM22.7391 26.404C22.7391 23.7796 24.8742 21.6446 27.4985 21.6446C27.7024 21.6446 27.9029 21.6589 28.1001 21.6839L22.7773 27.0067C22.7519 26.8074 22.7391 26.6063 22.7391 26.404ZM22.1081 34.2556L21.2919 33.4393L31.2504 23.4809C31.4941 23.793 31.6999 24.1358 31.8606 24.5031L22.1081 34.2556ZM32.2186 25.8024C32.2436 25.9996 32.258 26.2001 32.258 26.404C32.258 29.0284 30.1229 31.1635 27.4985 31.1635C27.2963 31.1635 27.0952 31.1506 26.8959 31.1252L32.2186 25.8024ZM36.2087 24.9432C36.4737 24.9506 36.6027 25.104 36.6033 25.2911L36.6109 27.441C36.6115 27.6274 36.4777 27.7971 36.225 27.8036C35.7895 27.8134 35.4045 28.1156 35.2888 28.5389C35.1159 29.172 34.8654 29.7831 34.5442 30.355C34.3301 30.7363 34.3837 31.2031 34.6771 31.5161C34.8763 31.728 34.8527 31.9251 34.717 32.0617L33.2066 33.5828C33.0902 33.6999 32.9411 33.6917 32.9489 33.6901C32.7818 33.6901 32.6994 33.5802 32.6916 33.5758C32.374 33.2655 31.8831 33.2023 31.4982 33.422C30.9287 33.7471 30.3195 34.0019 29.6878 34.1792C29.266 34.2974 28.9546 34.6888 28.9591 35.1513C28.9603 35.348 28.8019 35.5081 28.6052 35.5087L26.4587 35.5163C26.4582 35.5163 26.4578 35.5163 26.4573 35.5163C26.272 35.5163 26.1052 35.3834 26.099 35.1301C26.0892 34.6947 25.787 34.3099 25.3639 34.1943C24.9767 34.0886 24.598 33.9535 24.2303 33.7908L25.9052 32.116C26.4237 32.2608 26.958 32.3353 27.4986 32.3353C30.7691 32.3353 33.4299 29.6745 33.4299 26.4039C33.4299 23.1508 30.7809 20.4726 27.4986 20.4726C24.228 20.4726 21.5673 23.1334 21.5673 26.4039C21.5673 26.9447 21.6419 27.4789 21.7866 27.9974L20.1123 29.6718C19.9573 29.3217 19.8268 28.9613 19.7236 28.5936C19.6049 28.1707 19.2175 27.8709 18.7884 27.8646C18.7775 27.8643 18.7665 27.8643 18.7589 27.8642C18.5583 27.8629 18.3944 27.6987 18.3937 27.4981L18.3862 25.3606C18.3855 25.1644 18.544 25.0046 18.7413 25.0046C19.2105 25.0046 19.5941 24.6868 19.7082 24.269C19.8812 23.6359 20.1317 23.0247 20.453 22.4528C20.6633 22.0785 20.6306 21.5962 20.2754 21.246C20.1401 21.1132 20.1399 20.8874 20.2802 20.7461L21.7905 19.2252C22.0437 18.9704 22.2975 19.2285 22.3053 19.2317C22.6228 19.5423 23.1138 19.6056 23.4993 19.3857C24.0688 19.0606 24.6778 18.806 25.3092 18.6288C25.7316 18.5103 26.0313 18.1233 26.0381 17.6861L26.0383 17.6585C26.0376 17.4611 26.1977 17.2999 26.395 17.2992L28.5357 17.2917H28.537C28.7348 17.2917 28.8966 17.4523 28.8979 17.6467V17.6548C28.9013 18.1013 29.2091 18.4971 29.6463 18.6171C30.2747 18.7899 30.8812 19.0391 31.4491 19.3579C31.8262 19.5699 32.3216 19.5203 32.6563 19.1809C32.7942 19.0404 33.0211 19.051 33.1563 19.1855L34.6774 20.696C34.8081 20.8258 34.8454 21.0206 34.6417 21.2413C34.35 21.5568 34.2996 22.0239 34.5164 22.4038C34.5193 22.4088 34.5219 22.414 34.5248 22.4191C34.5256 22.4206 34.5265 22.422 34.5273 22.4236C34.8473 22.9876 35.0986 23.59 35.2739 24.2146C35.3921 24.6369 35.7791 24.9366 36.2087 24.9432ZM35.8819 20.4817C35.8077 20.2513 35.6798 20.0401 35.503 19.8645L33.982 18.3541C33.8242 18.1974 33.638 18.0807 33.4359 18.0055L34.3151 17.1263L36.7762 19.5874L35.8819 20.4817ZM38.3179 18.0457L37.6049 18.7587L35.1438 16.2976L35.8568 15.5846C36.5368 14.9044 37.6377 14.9043 38.318 15.5846C38.998 16.2647 38.9981 17.3656 38.3179 18.0457Z" fill="white"/>
</g>
<defs>
<clipPath id="clip0_4399_2044">
<rect width="40" height="40" fill="white" transform="translate(0 0.0546875)"/>
</clipPath>
</defs>
</svg>
