<svg width="40" height="41" viewBox="0 0 40 41" fill="none" xmlns="http://www.w3.org/2000/svg">
<g clip-path="url(#clip0_4399_2065)">
<path d="M17.0812 37.75C17.4048 37.75 17.6671 37.4877 17.6671 37.1641C17.6671 36.8404 17.4048 36.5781 17.0812 36.5781H15.1543C14.8307 36.5781 14.5684 36.8404 14.5684 37.1641C14.5684 37.4877 14.8307 37.75 15.1543 37.75H17.0812Z" fill="white"/>
<path d="M7.59642 6.13136C7.89648 6.08272 8.1003 5.80004 8.05165 5.49997C8.00301 5.19991 7.72033 4.9961 7.42027 5.04474C7.1202 5.09338 6.91639 5.37606 6.96503 5.67612C7.01367 5.97619 7.29635 6.18001 7.59642 6.13136Z" fill="white"/>
<path d="M10.0456 6.13136C10.3457 6.08272 10.5495 5.80004 10.5009 5.49998C10.4522 5.19991 10.1695 4.9961 9.86948 5.04474C9.56942 5.09338 9.3656 5.37606 9.41425 5.67612C9.46289 5.97619 9.74557 6.18001 10.0456 6.13136Z" fill="white"/>
<path d="M12.4949 6.13136C12.7949 6.08272 12.9987 5.80004 12.9501 5.49997C12.9014 5.19991 12.6188 4.99609 12.3187 5.04474C12.0186 5.09338 11.8148 5.37606 11.8635 5.67612C11.9121 5.97619 12.1948 6.18001 12.4949 6.13136Z" fill="white"/>
<path d="M29.9337 29.9171C29.6101 29.9171 29.3477 30.1794 29.3477 30.503V36.9688C29.3477 38.0242 28.4891 38.8828 27.4338 38.8828H4.80266C3.74727 38.8828 2.88867 38.0242 2.88867 36.9688V3.14055C2.88867 2.08516 3.74727 1.22656 4.80266 1.22656H27.4338C28.4892 1.22656 29.3478 2.08516 29.3478 3.14055V12.4327C29.3478 12.7564 29.6102 13.0187 29.9338 13.0187C30.2573 13.0187 30.5197 12.7564 30.5197 12.4327V3.14055C30.5196 1.43898 29.1354 0.0546875 27.4338 0.0546875H4.80266C3.10109 0.0546875 1.7168 1.43898 1.7168 3.14055V36.9688C1.7168 38.6704 3.10109 40.0547 4.80266 40.0547H27.4338C29.1354 40.0547 30.5197 38.6704 30.5197 36.9688V30.503C30.5196 30.1795 30.2573 29.9171 29.9337 29.9171Z" fill="white"/>
<path d="M38.2784 25.289L37.8863 21.6485C37.8241 21.0715 37.3493 20.6341 36.7737 20.6135V17.3704C36.7737 17.095 36.5519 16.8108 36.2678 16.7134L27.8638 13.833C27.8638 11.4504 27.8638 5.77977 27.8638 3.91984C27.8638 3.25328 27.3216 2.71094 26.6549 2.71094H5.58195C4.9143 2.71094 4.37305 3.25422 4.37305 3.91984V34.0808C4.37305 34.7473 4.91531 35.2897 5.58195 35.2897H26.655C27.3216 35.2897 27.8639 34.7474 27.8639 34.0808V28.5603H30.2213C31.3295 28.5603 32.2309 27.6588 32.2309 26.5507V19.5131L35.6019 18.3578V20.6135C35.0263 20.6341 34.5515 21.0715 34.4893 21.6484L34.0971 25.2889C34.0234 25.9729 34.5591 26.5747 35.2518 26.5747H37.1237C37.8127 26.5747 38.3524 25.9763 38.2784 25.289ZM5.54492 3.91984C5.54492 3.89945 5.56156 3.88281 5.58195 3.88281H26.655C26.6754 3.88281 26.692 3.89945 26.692 3.91984V7.29109H5.54492V3.91984ZM26.692 34.0807C26.692 34.1011 26.6754 34.1177 26.6549 34.1177H5.58195C5.56156 34.1177 5.54492 34.1011 5.54492 34.0807V8.46297H26.692V13.4313L23.7889 12.4363C22.7921 12.0947 21.6942 12.0947 20.6974 12.4363L8.21828 16.7134C7.91578 16.8171 7.71258 17.1017 7.71258 17.4213C7.71258 17.7411 7.91578 18.0256 8.21844 18.1295L12.2554 19.5131V26.5506C12.2554 27.6588 13.157 28.5602 14.265 28.5602H26.6919V34.0807H26.692ZM31.059 26.5507C31.059 27.0126 30.6831 27.3884 30.2213 27.3884H14.2651C13.8031 27.3884 13.4273 27.0126 13.4273 26.5507V19.9148L20.6974 22.4064C21.6984 22.7495 22.796 22.7468 23.789 22.4064L31.0591 19.9147V26.5507H31.059ZM23.409 21.2979C22.6572 21.5556 21.8291 21.5556 21.0773 21.2979L9.7668 17.4214L21.0773 13.5449C21.8291 13.2873 22.6572 13.2873 23.409 13.5449L34.7195 17.4214L23.409 21.2979ZM35.2635 25.4028L35.6534 21.7834H36.7221L37.112 25.4028H35.2635Z" fill="white"/>
</g>
<defs>
<clipPath id="clip0_4399_2065">
<rect width="40" height="40" fill="white" transform="translate(0 0.0546875)"/>
</clipPath>
</defs>
</svg>
