<svg width="193" height="245" viewBox="0 0 193 245" fill="none" xmlns="http://www.w3.org/2000/svg">
<g opacity="0.2">
<path d="M0.000114085 183.459C0.000114192 181.008 0.817146 178.557 2.45116 176.514L117.65 38.0309L111.931 34.7629C107.846 32.3119 105.803 28.2269 106.212 23.3248C106.62 18.8312 109.888 15.1546 114.382 13.9291L162.177 1.26541C169.938 -0.777114 177.7 3.71645 179.743 11.4781L192.406 59.2733C193.632 63.7668 191.998 68.2603 188.321 71.1199C184.645 73.9794 179.743 74.388 175.657 71.9369L169.938 68.6688L107.029 237.79C105.395 242.284 101.309 245.143 96.4074 244.735C91.5054 244.735 87.8288 241.467 86.1948 236.973L69.8546 180.599C69.8546 180.191 69.4461 179.782 69.0376 180.191L13.0723 194.489C8.57877 195.714 3.67673 193.672 1.2257 189.586C0.408683 187.544 0.000113996 185.501 0.000114085 183.459ZM132.764 36.3969C132.764 37.6224 132.356 39.2564 131.539 40.0734L13.4809 181.825L66.9951 168.344C73.5312 166.71 80.0672 170.387 82.1097 176.923L97.633 230.846L162.177 57.6393C162.585 56.0052 164.219 54.7796 165.853 54.3711C167.487 53.9626 169.121 53.9627 170.756 54.7797L181.785 61.3158L169.53 14.3376C169.121 12.7036 167.487 11.8866 166.262 12.2951L119.284 24.5503L130.313 31.0864C131.948 31.9034 132.764 33.5374 133.173 35.1714C132.764 35.9885 132.764 36.3969 132.764 36.3969Z" fill="white"/>
<path d="M155.646 9.85028C155.646 8.62477 156.463 7.39932 158.097 6.99082C159.731 6.58231 161.365 7.39932 161.773 9.03335L174.437 62.5475C174.845 64.1815 174.028 65.8156 172.394 66.2241C170.76 66.6326 169.126 65.8156 168.718 64.1816L156.054 10.6673C155.646 10.2588 155.646 10.2588 155.646 9.85028Z" fill="white"/>
<path d="M135.217 13.1199C135.217 11.8944 136.034 10.6689 137.668 10.2604C139.302 9.85184 140.936 10.6689 141.344 12.3029L158.093 84.6084C158.502 86.2424 157.685 87.8764 156.051 88.2849C154.417 88.6934 152.783 87.8764 152.374 86.2424L135.625 13.9369C135.217 13.5284 135.217 13.5284 135.217 13.1199Z" fill="white"/>
<path d="M120.512 42.1159C120.512 40.8904 121.329 39.6649 122.963 39.2564C124.597 38.8479 126.231 39.6649 126.639 41.299L145.839 123.409C146.248 125.043 145.431 126.677 143.797 127.085C142.163 127.494 140.529 126.677 140.12 125.043L120.92 42.933C120.512 42.5245 120.512 42.1159 120.512 42.1159Z" fill="white"/>
<path d="M100.903 60.9128C100.903 59.6873 101.72 58.4618 103.354 58.0533C104.988 57.6448 106.622 58.4618 107.03 60.0958L131.54 164.265C131.949 165.899 131.132 167.533 129.498 167.941C127.864 168.35 126.23 167.533 125.821 165.899L101.311 61.7298C100.903 61.3213 100.903 61.3213 100.903 60.9128Z" fill="white"/>
<path d="M80.8829 86.6512C80.8829 85.4257 81.6999 84.2001 83.334 83.7916C84.968 83.3831 86.602 84.2001 87.0105 85.8341L114.38 203.075C114.789 204.709 113.972 206.343 112.338 206.752C110.704 207.16 109.07 206.343 108.661 204.709L81.2914 87.4681C80.8829 87.0596 80.8829 87.0597 80.8829 86.6512Z" fill="white"/>
<path d="M62.9119 111.975C62.9119 110.75 63.7288 109.524 65.3628 109.116C66.9968 108.707 68.6309 109.524 69.0394 111.158L96.8178 229.216C97.2263 230.85 96.4093 232.484 94.7752 232.893C93.1412 233.301 91.5072 232.484 91.0987 230.85L63.3203 112.792C62.9118 112.384 62.9119 111.975 62.9119 111.975Z" fill="white"/>
<path d="M47.3871 127.503C47.3871 126.277 48.2041 125.052 49.8381 124.643C51.4721 124.235 53.1061 125.052 53.5146 126.686L64.5443 173.664C64.9528 175.298 64.1358 176.932 62.5018 177.34C60.8678 177.749 59.2338 176.932 58.8253 175.298L47.7956 128.32C47.3871 127.911 47.3871 127.911 47.3871 127.503Z" fill="white"/>
<path d="M30.6398 152.413C30.6398 151.187 31.4568 149.962 33.0908 149.553C34.7248 149.145 36.3588 149.962 36.7673 151.596L44.1205 182.642C44.529 184.276 43.712 185.91 42.078 186.319C40.444 186.727 38.81 185.91 38.4015 184.276L31.0483 153.23C30.6398 152.821 30.6398 152.413 30.6398 152.413Z" fill="white"/>
</g>
</svg>
