<svg width="196" height="161" viewBox="0 0 196 161" fill="none" xmlns="http://www.w3.org/2000/svg">
<g opacity="0.2">
<path fill-rule="evenodd" clip-rule="evenodd" d="M0.138696 84.398C0.660489 87.9636 4.13905 94.486 7.7916 98.3994C10.4875 101.356 16.2273 103.704 20.5756 103.704C30.1418 103.704 35.2728 100.313 39.795 90.6595C43.0997 83.6152 43.6215 78.1365 41.3604 73.0924C39.5341 69.179 36.9251 66.9179 28.9243 62.7435C22.8367 59.6128 22.054 59.4388 19.706 59.9606C16.5752 60.7432 11.5312 64.2219 10.0528 66.7439C9.44403 67.7875 7.96556 69.2659 6.835 69.9616C5.44355 70.9182 3.87824 73.0054 2.22589 76.0492C-0.0352142 80.2235 -0.209167 81.2672 0.138696 84.398ZM16.2273 70.8313L20.4887 68.3963L24.8369 70.7443C30.9245 73.962 33.2726 76.745 33.1856 80.2236C33.0987 83.7022 30.1418 90.4856 27.8807 92.2249C26.1414 93.6163 18.6623 94.486 16.4012 93.5294C14.2271 92.5727 9.70491 86.4851 8.83525 83.3543C8.13953 80.8323 8.22652 79.9627 10.0528 76.745C11.6182 73.8751 12.6617 72.7445 16.2273 70.8313Z" fill="#006BFF"/>
<path fill-rule="evenodd" clip-rule="evenodd" d="M45.0995 11.3427C46.1431 20.0392 54.057 26.4746 60.8403 24.0396C64.8407 22.6482 67.1018 20.7349 68.5802 17.5172C71.9719 10.0382 62.4926 -0.919511 53.7961 0.124077C48.4042 0.819801 44.4908 5.95079 45.0995 11.3427ZM57.2747 9.25546C58.0574 9.42939 59.188 10.5599 59.7098 11.6035C61.4491 15.0821 57.7096 16.2127 54.5788 13.1689C53.3613 11.6905 55.3615 8.6467 57.2747 9.25546Z" fill="#006BFF"/>
<path fill-rule="evenodd" clip-rule="evenodd" d="M55.7091 144.488C55.1003 150.75 57.0135 155.011 61.8836 158.142C65.5362 160.49 69.1887 160.664 73.9718 158.751C79.0158 156.751 80.7551 155.185 83.1902 149.88C86.9297 141.618 83.625 133.878 74.9284 129.965C69.8844 127.704 66.2319 127.791 62.6663 130.226C59.8834 132.139 56.1439 139.879 55.7091 144.488ZM67.2754 137.879C69.7974 137.009 70.5802 137.009 72.2325 138.227C74.8415 140.227 75.7981 141.792 75.885 144.14C75.885 147.271 74.6675 149.271 71.7106 150.576C68.7538 151.88 65.797 151.272 64.6665 148.837C63.7968 147.097 63.1011 142.053 63.8837 143.184C64.7534 144.488 65.1883 143.097 64.4926 141.531C63.449 139.792 63.8838 139.183 67.2754 137.879Z" fill="#006BFF"/>
<path fill-rule="evenodd" clip-rule="evenodd" d="M118.759 45.9561C119.02 48.3041 121.716 50.6522 124.151 50.8261C126.76 51.0001 130.76 48.3912 131.891 45.7822C133.891 41.3469 129.021 37.1726 123.716 38.738C121.455 39.3468 120.585 40.1294 119.716 41.9557C119.02 43.5211 118.672 45.2603 118.759 45.9561Z" fill="#006BFF"/>
<path fill-rule="evenodd" clip-rule="evenodd" d="M114.847 105.527C115.456 114.398 124.5 119.79 130.414 114.833C136.588 109.615 135.197 101.44 127.37 96.8308C124.152 95.0046 123.63 94.8307 120.847 95.7873C116.586 97.0048 114.586 100.396 114.847 105.527ZM124.239 104.136C125.63 104.745 126.587 106.31 126.239 107.18C125.717 108.31 124.152 107.702 123.63 106.136C123.109 104.745 123.369 103.701 124.239 104.136Z" fill="#006BFF"/>
<path fill-rule="evenodd" clip-rule="evenodd" d="M179.462 116.313C180.157 119.009 182.853 120.661 187.897 121.27C192.333 121.879 194.159 120.748 195.724 116.574C196.594 114.226 194.594 110.573 191.637 109.182C184.68 106.138 177.896 109.964 179.462 116.313Z" fill="#006BFF"/>
</g>
</svg>
