<svg width="123" height="48" viewBox="0 0 123 48" fill="none" xmlns="http://www.w3.org/2000/svg">
<path d="M52.2221 18.3352H56.8913L50.2561 35.0461H46.0784L39.3203 18.3352H44.1124L48.1672 29.5168L52.2221 18.3352ZM58.3658 34.9232H62.9121V18.3352H58.3658V34.9232ZM65.001 29.5168H69.5473C69.6702 30.6226 70.4074 31.7285 72.3734 31.7285C74.0936 31.7285 74.9537 31.1141 74.9537 30.254C74.9537 27.4279 65.7382 30.1311 65.7382 23.496C65.7382 20.4241 68.3186 17.9666 72.3734 17.9666C77.4112 17.9666 79.1315 21.1613 79.2543 23.6188H74.9537C74.8309 22.513 74.0936 21.6528 72.4963 21.6528C71.0218 21.6528 70.1617 22.3901 70.1617 23.2502C70.1617 26.0763 79.3772 23.2502 79.3772 30.1311C79.3772 33.0801 76.7969 35.4147 72.3734 35.4147C67.0898 35.2918 65.2467 32.7115 65.001 29.5168ZM81.5889 34.9232H86.1353V18.3352H81.5889V34.9232ZM96.8253 31.3599C99.1599 31.3599 101.003 29.6396 101.003 26.5678C101.003 23.6188 99.1599 21.7757 96.8253 21.7757C94.4907 21.7757 92.6476 23.496 92.6476 26.5678C92.6476 29.6396 94.4907 31.3599 96.8253 31.3599ZM88.1013 26.5678C88.1013 21.7757 91.5417 17.8438 96.8253 17.8438C102.109 17.8438 105.549 21.7757 105.549 26.5678C105.549 31.3599 102.109 35.2918 96.8253 35.2918C91.5417 35.2918 88.1013 31.3599 88.1013 26.5678ZM111.816 20.3012C112.553 18.8267 114.273 17.8438 116.731 17.8438C120.786 17.8438 122.875 20.547 122.875 24.4789V34.9232H118.328V24.9704C118.328 23.0045 117.468 21.6528 115.502 21.6528C113.29 21.6528 112.062 23.0045 112.062 25.3391V34.9232H107.515V18.3352H111.816V20.3012Z" fill="#FF723A"/>
<path d="M0 45.0016H41.9V3.10156H0V45.0016Z" fill="#FF723A"/>
<path d="M14.7453 16.247C16.0969 16.247 17.2027 15.264 17.2027 13.7895C17.2027 12.4379 16.0969 11.332 14.7453 11.332C13.3936 11.332 12.2878 12.315 12.2878 13.7895C12.2878 15.264 13.3936 16.247 14.7453 16.247ZM9.58455 29.2716C9.46168 29.886 9.33881 30.5004 9.33881 31.1147C9.33881 33.2036 10.4447 34.6781 12.9021 34.6781C14.991 34.6781 16.5884 33.4493 17.8171 31.4834L17.0799 34.4323H21.1347L23.4693 25.2168C24.0837 22.8822 25.1895 21.6534 26.9098 21.6534C28.2614 21.6534 29.1215 22.5136 29.1215 23.8652C29.1215 24.2338 29.1215 24.7253 28.9986 25.2168L27.7699 29.5174C27.647 30.1317 27.5241 30.7461 27.5241 31.3605C27.5241 33.3265 28.7529 34.8009 31.2104 34.8009C33.2992 34.8009 35.0195 33.4493 36.0024 30.1317L34.4051 29.5174C33.6678 31.7291 32.9306 32.0977 32.4391 32.0977C31.9476 32.0977 31.579 31.7291 31.579 30.9919C31.579 30.6232 31.7019 30.2546 31.7019 29.886L32.8077 25.7083C33.0535 24.7253 33.1763 23.8652 33.1763 23.1279C33.1763 20.0561 31.3332 18.4587 28.9986 18.4587C26.9098 18.4587 24.698 20.4247 23.5922 22.3907L24.3294 18.8273H18.1857L17.3256 22.0221H20.1517L18.4315 28.7801C17.0799 31.852 14.4995 31.9748 14.1309 31.852C13.6394 31.7291 13.2708 31.4834 13.2708 30.869C13.2708 30.5004 13.3936 29.886 13.5165 29.2716L16.2197 18.5816H9.46168L8.60156 21.7763H11.4277L9.58455 29.2716Z" fill="white"/>
</svg>
