<svg width="167" height="48" viewBox="0 0 167 48" fill="none" xmlns="http://www.w3.org/2000/svg">
<path fill-rule="evenodd" clip-rule="evenodd" d="M4.04667 38.1003V34.0536H22.2567V38.1003H4.04667ZM18.3887 17.867H7.91292L13.1517 25.1173L18.3887 17.867ZM26.3033 13.8203L13.1517 32.0303L0 13.8203H26.3033Z" fill="#006BFF"/>
<path d="M42.3526 34.0588V27.5639H36.1241V34.0588H32.3691V17.8721H36.1241V24.2068H42.3526V17.8687H46.1076V34.0554L42.3526 34.0588Z" fill="black"/>
<path d="M50.8454 34.0588V17.8722H61.1021V21.3135H54.6004V24.2069H60.5204V27.4763H54.6004V30.6343H61.1021V34.0588H50.8454Z" fill="black"/>
<path d="M65.5754 34.0588V17.8722H69.3287V30.6377H75.8236V34.0622L65.5754 34.0588Z" fill="black"/>
<path d="M78.9747 34.0588V17.8722H82.7347V30.6377H89.2279V34.0622L78.9747 34.0588Z" fill="black"/>
<path d="M99.82 34.3236C94.8055 34.3236 91.6036 30.7237 91.6036 25.9739C91.6036 21.2242 94.9606 17.6024 99.9751 17.6024C104.99 17.6024 108.192 21.2039 108.192 25.9739C108.192 30.744 104.813 34.3236 99.82 34.3236ZM99.8824 20.9611C97.3212 20.9611 95.598 23.0587 95.598 25.9739C95.598 28.8892 97.3212 30.9884 99.8824 30.9884C102.444 30.9884 104.168 28.8673 104.168 25.9739C104.168 23.0806 102.449 20.9611 99.8824 20.9611Z" fill="black"/>
<path d="M116.305 34.3236C114.472 34.3236 112.259 33.5952 110.851 32.6661L111.888 29.2652C113.191 30.2145 114.892 30.8333 116.417 30.8333C117.742 30.8333 118.249 30.2145 118.249 29.4204C118.249 28.5773 117.829 28.0057 115.356 27.0126C112.506 25.8643 111.517 24.2069 111.517 22.2628C111.517 19.9023 113.437 17.6024 117.214 17.6024C118.981 17.6024 120.794 18.2212 121.743 18.8619L120.79 22.219C119.861 21.5783 118.361 20.8937 117.211 20.8937C115.842 20.8937 115.29 21.5344 115.29 22.1971C115.29 23.2576 116.106 23.6117 118.14 24.4716C121.165 25.7531 122.07 27.2115 122.07 29.2872C122.07 31.872 120.193 34.3236 116.305 34.3236Z" fill="black"/>
<path d="M126.096 34.0588V17.8722H129.851V34.0588H126.096Z" fill="black"/>
<path d="M148.571 24.9589V32.6897C146.714 33.7915 144.588 34.357 142.43 34.3236C137.682 34.3236 133.927 30.9227 133.927 25.9739C133.927 21.0252 137.726 17.6024 142.629 17.6024C144.75 17.6024 146.45 18.1554 148.061 18.9951L146.493 22.02C145.378 21.433 144.139 21.1224 142.878 21.1146C139.653 21.1146 137.931 23.1244 137.931 25.9739C137.931 29.0663 140.007 30.9884 142.652 30.9884C143.845 30.9884 144.441 30.8552 145.038 30.5467V28.1608H141.789V24.9572L148.571 24.9589Z" fill="black"/>
<path d="M166.403 34.3674L156.64 25.5997V34.0589H152.885V17.648L153.391 17.5586L163.022 26.2606V17.8688H166.777V34.3017L166.403 34.3674Z" fill="black"/>
</svg>
