<svg width="621" height="153" viewBox="0 0 621 153" fill="none" xmlns="http://www.w3.org/2000/svg">
<mask id="path-1-outside-1_4699_820" maskUnits="userSpaceOnUse" x="-3" y="-3" width="627" height="159" fill="black">
<rect fill="white" x="-3" y="-3" width="627" height="159"/>
<path d="M0.115301 119V3.59703H25.7786V119H0.115301ZM19.7305 119V96.7694H82.9897V119H19.7305ZM19.7305 70.7792V49.3659H77.2686V70.7792H19.7305ZM19.7305 25.6642V3.59703H82.1724V25.6642H19.7305ZM131.591 120.635C124.072 120.635 117.37 118.837 111.485 115.24C105.71 111.644 101.133 106.74 97.7547 100.529C94.4855 94.3175 92.8509 87.2342 92.8509 79.2791C92.8509 71.3241 94.4855 64.2408 97.7547 58.0293C101.133 51.8178 105.71 46.914 111.485 43.3179C117.37 39.7218 124.072 37.9237 131.591 37.9237C137.04 37.9237 141.944 38.9589 146.302 41.0294C150.77 43.0999 154.421 45.9877 157.254 49.6928C160.197 53.289 161.831 57.43 162.158 62.1158V95.6252C161.831 100.311 160.251 104.561 157.418 108.375C154.584 112.08 150.934 115.077 146.466 117.365C141.998 119.545 137.04 120.635 131.591 120.635ZM136.004 98.0771C139.601 98.0771 142.706 97.3143 145.322 95.7886C147.937 94.154 150.008 91.9201 151.533 89.0868C153.059 86.2535 153.822 82.9842 153.822 79.2791C153.822 75.574 153.059 72.3593 151.533 69.635C150.117 66.8017 148.046 64.5677 145.322 62.9331C142.706 61.2985 139.655 60.4812 136.168 60.4812C132.681 60.4812 129.575 61.2985 126.851 62.9331C124.235 64.5677 122.11 66.8017 120.476 69.635C118.95 72.4683 118.187 75.683 118.187 79.2791C118.187 82.8753 118.95 86.09 120.476 88.9233C122.001 91.7566 124.126 93.9906 126.851 95.6252C129.575 97.2598 132.626 98.0771 136.004 98.0771ZM177.36 119H152.841V97.5867L156.6 78.2984L152.35 59.0101V0.327823H177.36V119ZM230.276 120.798C222.975 120.798 216.491 119.327 210.825 116.385C205.267 113.333 200.908 109.192 197.748 103.962C194.588 98.6219 193.007 92.5194 193.007 85.6541V39.5583H218.017V85.3272C218.017 88.0515 218.453 90.3944 219.325 92.356C220.305 94.3175 221.722 95.8431 223.574 96.9329C225.427 98.0226 227.661 98.5675 230.276 98.5675C233.981 98.5675 236.924 97.4232 239.103 95.1348C241.283 92.7374 242.372 89.4682 242.372 85.3272V39.5583H267.382V85.4906C267.382 92.4649 265.802 98.6219 262.641 103.962C259.481 109.192 255.122 113.333 249.565 116.385C244.007 119.327 237.578 120.798 230.276 120.798ZM328.853 120.635C323.513 120.635 318.61 119.599 314.142 117.529C309.674 115.458 306.023 112.625 303.19 109.029C300.357 105.324 298.722 101.128 298.286 96.4425V62.9331C298.722 58.2473 300.357 53.9973 303.19 50.1832C306.023 46.3691 309.674 43.3724 314.142 41.1929C318.61 39.0134 323.513 37.9237 328.853 37.9237C336.372 37.9237 343.02 39.7218 348.795 43.3179C354.68 46.914 359.257 51.8178 362.526 58.0293C365.904 64.2408 367.593 71.3241 367.593 79.2791C367.593 87.2342 365.904 94.3175 362.526 100.529C359.257 106.74 354.68 111.644 348.795 115.24C343.02 118.837 336.372 120.635 328.853 120.635ZM324.276 98.0771C327.872 98.0771 330.978 97.2598 333.593 95.6252C336.318 93.9906 338.443 91.7566 339.968 88.9233C341.494 86.09 342.257 82.8753 342.257 79.2791C342.257 75.574 341.494 72.3048 339.968 69.4715C338.443 66.6382 336.318 64.4587 333.593 62.9331C330.978 61.2985 327.927 60.4812 324.44 60.4812C320.953 60.4812 317.847 61.2985 315.122 62.9331C312.507 64.4587 310.437 66.6382 308.911 69.4715C307.385 72.3048 306.623 75.574 306.623 79.2791C306.623 82.8753 307.331 86.09 308.748 88.9233C310.273 91.7566 312.398 93.9906 315.122 95.6252C317.847 97.2598 320.898 98.0771 324.276 98.0771ZM283.084 152.509V39.5583H308.094V59.9908L304.007 79.2791L307.767 98.5675V152.509H283.084ZM413.481 120.635C406.18 120.635 399.641 118.837 393.866 115.24C388.199 111.644 383.677 106.74 380.298 100.529C377.029 94.3175 375.395 87.2342 375.395 79.2791C375.395 71.3241 377.029 64.2408 380.298 58.0293C383.677 51.8178 388.199 46.914 393.866 43.3179C399.641 39.7218 406.18 37.9237 413.481 37.9237C418.821 37.9237 423.615 38.9589 427.865 41.0294C432.224 43.0999 435.766 45.9877 438.49 49.6928C441.215 53.289 442.74 57.43 443.067 62.1158V96.4425C442.74 101.128 441.215 105.324 438.49 109.029C435.875 112.625 432.388 115.458 428.029 117.529C423.67 119.599 418.821 120.635 413.481 120.635ZM418.548 98.0771C423.888 98.0771 428.192 96.3335 431.461 92.8464C434.731 89.2502 436.365 84.7278 436.365 79.2791C436.365 75.574 435.602 72.3048 434.077 69.4715C432.66 66.6382 430.59 64.4587 427.865 62.9331C425.25 61.2985 422.199 60.4812 418.712 60.4812C415.224 60.4812 412.119 61.2985 409.394 62.9331C406.779 64.4587 404.654 66.6382 403.019 69.4715C401.494 72.3048 400.731 75.574 400.731 79.2791C400.731 82.8753 401.494 86.09 403.019 88.9233C404.545 91.7566 406.67 93.9906 409.394 95.6252C412.119 97.2598 415.17 98.0771 418.548 98.0771ZM435.385 119V97.5867L439.144 78.2984L435.385 59.0101V39.5583H459.904V119H435.385ZM488.791 119V6.70277H513.801V119H488.791ZM470.811 60.8081V39.5583H531.781V60.8081H470.811ZM595.272 119V73.7215C595.272 69.5805 593.964 66.2568 591.349 63.7504C588.842 61.1351 585.628 59.8274 581.704 59.8274C578.98 59.8274 576.583 60.4267 574.512 61.6254C572.442 62.7152 570.807 64.3498 569.608 66.5292C568.41 68.5997 567.81 70.9972 567.81 73.7215L558.166 68.9811C558.166 62.7697 559.474 57.321 562.089 52.6351C564.705 47.9493 568.355 44.3531 573.041 41.8467C577.727 39.2314 583.121 37.9237 589.224 37.9237C595.435 37.9237 600.884 39.2314 605.57 41.8467C610.256 44.3531 613.852 47.8948 616.358 52.4717C618.973 56.9396 620.281 62.1703 620.281 68.1638V119H595.272ZM542.801 119V0.327823H567.81V119H542.801Z"/>
</mask>
<path d="M0.115301 119V3.59703H25.7786V119H0.115301ZM19.7305 119V96.7694H82.9897V119H19.7305ZM19.7305 70.7792V49.3659H77.2686V70.7792H19.7305ZM19.7305 25.6642V3.59703H82.1724V25.6642H19.7305ZM131.591 120.635C124.072 120.635 117.37 118.837 111.485 115.24C105.71 111.644 101.133 106.74 97.7547 100.529C94.4855 94.3175 92.8509 87.2342 92.8509 79.2791C92.8509 71.3241 94.4855 64.2408 97.7547 58.0293C101.133 51.8178 105.71 46.914 111.485 43.3179C117.37 39.7218 124.072 37.9237 131.591 37.9237C137.04 37.9237 141.944 38.9589 146.302 41.0294C150.77 43.0999 154.421 45.9877 157.254 49.6928C160.197 53.289 161.831 57.43 162.158 62.1158V95.6252C161.831 100.311 160.251 104.561 157.418 108.375C154.584 112.08 150.934 115.077 146.466 117.365C141.998 119.545 137.04 120.635 131.591 120.635ZM136.004 98.0771C139.601 98.0771 142.706 97.3143 145.322 95.7886C147.937 94.154 150.008 91.9201 151.533 89.0868C153.059 86.2535 153.822 82.9842 153.822 79.2791C153.822 75.574 153.059 72.3593 151.533 69.635C150.117 66.8017 148.046 64.5677 145.322 62.9331C142.706 61.2985 139.655 60.4812 136.168 60.4812C132.681 60.4812 129.575 61.2985 126.851 62.9331C124.235 64.5677 122.11 66.8017 120.476 69.635C118.95 72.4683 118.187 75.683 118.187 79.2791C118.187 82.8753 118.95 86.09 120.476 88.9233C122.001 91.7566 124.126 93.9906 126.851 95.6252C129.575 97.2598 132.626 98.0771 136.004 98.0771ZM177.36 119H152.841V97.5867L156.6 78.2984L152.35 59.0101V0.327823H177.36V119ZM230.276 120.798C222.975 120.798 216.491 119.327 210.825 116.385C205.267 113.333 200.908 109.192 197.748 103.962C194.588 98.6219 193.007 92.5194 193.007 85.6541V39.5583H218.017V85.3272C218.017 88.0515 218.453 90.3944 219.325 92.356C220.305 94.3175 221.722 95.8431 223.574 96.9329C225.427 98.0226 227.661 98.5675 230.276 98.5675C233.981 98.5675 236.924 97.4232 239.103 95.1348C241.283 92.7374 242.372 89.4682 242.372 85.3272V39.5583H267.382V85.4906C267.382 92.4649 265.802 98.6219 262.641 103.962C259.481 109.192 255.122 113.333 249.565 116.385C244.007 119.327 237.578 120.798 230.276 120.798ZM328.853 120.635C323.513 120.635 318.61 119.599 314.142 117.529C309.674 115.458 306.023 112.625 303.19 109.029C300.357 105.324 298.722 101.128 298.286 96.4425V62.9331C298.722 58.2473 300.357 53.9973 303.19 50.1832C306.023 46.3691 309.674 43.3724 314.142 41.1929C318.61 39.0134 323.513 37.9237 328.853 37.9237C336.372 37.9237 343.02 39.7218 348.795 43.3179C354.68 46.914 359.257 51.8178 362.526 58.0293C365.904 64.2408 367.593 71.3241 367.593 79.2791C367.593 87.2342 365.904 94.3175 362.526 100.529C359.257 106.74 354.68 111.644 348.795 115.24C343.02 118.837 336.372 120.635 328.853 120.635ZM324.276 98.0771C327.872 98.0771 330.978 97.2598 333.593 95.6252C336.318 93.9906 338.443 91.7566 339.968 88.9233C341.494 86.09 342.257 82.8753 342.257 79.2791C342.257 75.574 341.494 72.3048 339.968 69.4715C338.443 66.6382 336.318 64.4587 333.593 62.9331C330.978 61.2985 327.927 60.4812 324.44 60.4812C320.953 60.4812 317.847 61.2985 315.122 62.9331C312.507 64.4587 310.437 66.6382 308.911 69.4715C307.385 72.3048 306.623 75.574 306.623 79.2791C306.623 82.8753 307.331 86.09 308.748 88.9233C310.273 91.7566 312.398 93.9906 315.122 95.6252C317.847 97.2598 320.898 98.0771 324.276 98.0771ZM283.084 152.509V39.5583H308.094V59.9908L304.007 79.2791L307.767 98.5675V152.509H283.084ZM413.481 120.635C406.18 120.635 399.641 118.837 393.866 115.24C388.199 111.644 383.677 106.74 380.298 100.529C377.029 94.3175 375.395 87.2342 375.395 79.2791C375.395 71.3241 377.029 64.2408 380.298 58.0293C383.677 51.8178 388.199 46.914 393.866 43.3179C399.641 39.7218 406.18 37.9237 413.481 37.9237C418.821 37.9237 423.615 38.9589 427.865 41.0294C432.224 43.0999 435.766 45.9877 438.49 49.6928C441.215 53.289 442.74 57.43 443.067 62.1158V96.4425C442.74 101.128 441.215 105.324 438.49 109.029C435.875 112.625 432.388 115.458 428.029 117.529C423.67 119.599 418.821 120.635 413.481 120.635ZM418.548 98.0771C423.888 98.0771 428.192 96.3335 431.461 92.8464C434.731 89.2502 436.365 84.7278 436.365 79.2791C436.365 75.574 435.602 72.3048 434.077 69.4715C432.66 66.6382 430.59 64.4587 427.865 62.9331C425.25 61.2985 422.199 60.4812 418.712 60.4812C415.224 60.4812 412.119 61.2985 409.394 62.9331C406.779 64.4587 404.654 66.6382 403.019 69.4715C401.494 72.3048 400.731 75.574 400.731 79.2791C400.731 82.8753 401.494 86.09 403.019 88.9233C404.545 91.7566 406.67 93.9906 409.394 95.6252C412.119 97.2598 415.17 98.0771 418.548 98.0771ZM435.385 119V97.5867L439.144 78.2984L435.385 59.0101V39.5583H459.904V119H435.385ZM488.791 119V6.70277H513.801V119H488.791ZM470.811 60.8081V39.5583H531.781V60.8081H470.811ZM595.272 119V73.7215C595.272 69.5805 593.964 66.2568 591.349 63.7504C588.842 61.1351 585.628 59.8274 581.704 59.8274C578.98 59.8274 576.583 60.4267 574.512 61.6254C572.442 62.7152 570.807 64.3498 569.608 66.5292C568.41 68.5997 567.81 70.9972 567.81 73.7215L558.166 68.9811C558.166 62.7697 559.474 57.321 562.089 52.6351C564.705 47.9493 568.355 44.3531 573.041 41.8467C577.727 39.2314 583.121 37.9237 589.224 37.9237C595.435 37.9237 600.884 39.2314 605.57 41.8467C610.256 44.3531 613.852 47.8948 616.358 52.4717C618.973 56.9396 620.281 62.1703 620.281 68.1638V119H595.272ZM542.801 119V0.327823H567.81V119H542.801Z" fill="url(#paint0_linear_4699_820)" fill-opacity="0.4"/>
<path d="M0.115301 119H-2.78028V121.896H0.115301V119ZM0.115301 3.59703V0.701443H-2.78028V3.59703H0.115301ZM25.7786 3.59703H28.6741V0.701443H25.7786V3.59703ZM25.7786 119V121.896H28.6741V119H25.7786ZM19.7305 119H16.835V121.896H19.7305V119ZM19.7305 96.7694V93.8738H16.835V96.7694H19.7305ZM82.9897 96.7694H85.8853V93.8738H82.9897V96.7694ZM82.9897 119V121.896H85.8853V119H82.9897ZM19.7305 70.7792H16.835V73.6748H19.7305V70.7792ZM19.7305 49.3659V46.4703H16.835V49.3659H19.7305ZM77.2686 49.3659H80.1641V46.4703H77.2686V49.3659ZM77.2686 70.7792V73.6748H80.1641V70.7792H77.2686ZM19.7305 25.6642H16.835V28.5597H19.7305V25.6642ZM19.7305 3.59703V0.701443H16.835V3.59703H19.7305ZM82.1724 3.59703H85.068V0.701443H82.1724V3.59703ZM82.1724 25.6642V28.5597H85.068V25.6642H82.1724ZM3.01088 119V3.59703H-2.78028V119H3.01088ZM0.115301 6.49261H25.7786V0.701443H0.115301V6.49261ZM22.883 3.59703V119H28.6741V3.59703H22.883ZM25.7786 116.104H0.115301V121.896H25.7786V116.104ZM22.6261 119V96.7694H16.835V119H22.6261ZM19.7305 99.665H82.9897V93.8738H19.7305V99.665ZM80.0941 96.7694V119H85.8853V96.7694H80.0941ZM82.9897 116.104H19.7305V121.896H82.9897V116.104ZM22.6261 70.7792V49.3659H16.835V70.7792H22.6261ZM19.7305 52.2615H77.2686V46.4703H19.7305V52.2615ZM74.373 49.3659V70.7792H80.1641V49.3659H74.373ZM77.2686 67.8836H19.7305V73.6748H77.2686V67.8836ZM22.6261 25.6642V3.59703H16.835V25.6642H22.6261ZM19.7305 6.49261H82.1724V0.701443H19.7305V6.49261ZM79.2768 3.59703V25.6642H85.068V3.59703H79.2768ZM82.1724 22.7686H19.7305V28.5597H82.1724V22.7686ZM111.485 115.24L109.955 117.698L109.965 117.705L109.976 117.711L111.485 115.24ZM97.7547 100.529L95.1924 101.878L95.2016 101.895L95.211 101.912L97.7547 100.529ZM97.7547 58.0293L95.211 56.6459L95.2016 56.6632L95.1924 56.6807L97.7547 58.0293ZM111.485 43.3179L109.976 40.8471L109.965 40.8534L109.955 40.8598L111.485 43.3179ZM146.302 41.0294L145.06 43.645L145.072 43.6508L145.085 43.6566L146.302 41.0294ZM157.254 49.6928L154.954 51.4518L154.983 51.4896L155.013 51.5264L157.254 49.6928ZM162.158 62.1158H165.054V62.0149L165.047 61.9143L162.158 62.1158ZM162.158 95.6252L165.047 95.8267L165.054 95.7261V95.6252H162.158ZM157.418 108.375L159.718 110.134L159.73 110.118L159.742 110.102L157.418 108.375ZM146.466 117.365L147.735 119.968L147.761 119.955L147.786 119.943L146.466 117.365ZM145.322 95.7886L146.781 98.2898L146.819 98.2675L146.856 98.2441L145.322 95.7886ZM151.533 89.0868L148.984 87.714L151.533 89.0868ZM151.533 69.635L148.943 70.9299L148.974 70.9906L149.007 71.0498L151.533 69.635ZM145.322 62.9331L143.787 65.3886L143.809 65.4025L143.832 65.4161L145.322 62.9331ZM126.851 62.9331L125.361 60.4502L125.338 60.4637L125.316 60.4777L126.851 62.9331ZM120.476 69.635L117.968 68.188L117.946 68.2248L117.926 68.2622L120.476 69.635ZM120.476 88.9233L117.926 90.2961L120.476 88.9233ZM177.36 119V121.896H180.255V119H177.36ZM152.841 119H149.945V121.896H152.841V119ZM152.841 97.5867L149.999 97.0327L149.945 97.3071V97.5867H152.841ZM156.6 78.2984L159.443 78.8524L159.558 78.2623L159.428 77.6753L156.6 78.2984ZM152.35 59.0101H149.455V59.3253L149.523 59.6331L152.35 59.0101ZM152.35 0.327824V-2.56776H149.455V0.327824H152.35ZM177.36 0.327824H180.255V-2.56776H177.36V0.327824ZM131.591 117.739C124.555 117.739 118.385 116.063 112.995 112.77L109.976 117.711C116.355 121.61 123.589 123.53 131.591 123.53V117.739ZM113.016 112.782C107.682 109.461 103.447 104.935 100.298 99.1456L95.211 101.912C98.8186 108.546 103.737 113.827 109.955 117.698L113.016 112.782ZM100.317 99.1804C97.2944 93.4374 95.7465 86.8276 95.7465 79.2791H89.9553C89.9553 87.6408 91.6766 95.1976 95.1924 101.878L100.317 99.1804ZM95.7465 79.2791C95.7465 71.7307 97.2944 65.1209 100.317 59.3779L95.1924 56.6807C91.6766 63.3607 89.9553 70.9175 89.9553 79.2791H95.7465ZM100.298 59.4127C103.447 53.623 107.682 49.0968 113.016 45.7759L109.955 40.8598C103.737 44.7312 98.8186 50.0126 95.211 56.6459L100.298 59.4127ZM112.995 45.7886C118.385 42.4952 124.555 40.8193 131.591 40.8193V35.0281C123.589 35.0281 116.355 36.9483 109.976 40.8471L112.995 45.7886ZM131.591 40.8193C136.666 40.8193 141.137 41.7814 145.06 43.645L147.545 38.4139C142.75 36.1365 137.414 35.0281 131.591 35.0281V40.8193ZM145.085 43.6566C149.151 45.5411 152.422 48.1404 154.954 51.4518L159.554 47.9339C156.42 43.835 152.389 40.6588 147.52 38.4022L145.085 43.6566ZM155.013 51.5264C157.572 54.6532 158.984 58.2224 159.27 62.3173L165.047 61.9143C164.679 56.6375 162.822 51.9247 159.495 47.8592L155.013 51.5264ZM159.263 62.1158V95.6252H165.054V62.1158H159.263ZM159.27 95.4236C158.982 99.551 157.601 103.273 155.093 106.648L159.742 110.102C162.901 105.849 164.681 101.071 165.047 95.8267L159.27 95.4236ZM155.118 106.616C152.566 109.953 149.26 112.681 145.146 114.788L147.786 119.943C152.608 117.473 156.603 114.207 159.718 110.134L155.118 106.616ZM145.196 114.763C141.161 116.732 136.643 117.739 131.591 117.739V123.53C137.437 123.53 142.835 122.358 147.735 119.968L145.196 114.763ZM136.004 100.973C140.017 100.973 143.646 100.118 146.781 98.2898L143.863 93.2875C141.767 94.5101 139.185 95.1815 136.004 95.1815V100.973ZM146.856 98.2441C149.917 96.3311 152.329 93.7158 154.083 90.4596L148.984 87.714C147.686 90.1244 145.957 91.977 143.787 93.3332L146.856 98.2441ZM154.083 90.4596C155.868 87.1443 156.717 83.3903 156.717 79.2791H150.926C150.926 82.5782 150.25 85.3626 148.984 87.714L154.083 90.4596ZM156.717 79.2791C156.717 75.1713 155.869 71.451 154.06 68.2202L149.007 71.0498C150.249 73.2677 150.926 75.9768 150.926 79.2791H156.717ZM154.123 68.34C152.459 65.0126 150.007 62.3672 146.811 60.4502L143.832 65.4161C146.086 66.7682 147.774 68.5907 148.943 70.9299L154.123 68.34ZM146.856 60.4777C143.723 58.5191 140.125 57.5856 136.168 57.5856V63.3768C139.185 63.3768 141.69 64.0779 143.787 65.3886L146.856 60.4777ZM136.168 57.5856C132.209 57.5856 128.578 58.5196 125.361 60.4502L128.34 65.4161C130.572 64.0774 133.153 63.3768 136.168 63.3768V57.5856ZM125.316 60.4777C122.274 62.3789 119.824 64.9695 117.968 68.188L122.984 71.082C124.396 68.6338 126.197 66.7566 128.385 65.3886L125.316 60.4777ZM117.926 68.2622C116.148 71.5651 115.292 75.2611 115.292 79.2791H121.083C121.083 76.1049 121.752 73.3715 123.025 71.0078L117.926 68.2622ZM115.292 79.2791C115.292 83.2972 116.148 86.9932 117.926 90.2961L123.025 87.5505C121.752 85.1868 121.083 82.4533 121.083 79.2791H115.292ZM117.926 90.2961C119.695 93.5818 122.184 96.2019 125.361 98.1081L128.34 93.1422C126.069 91.7792 124.307 89.9314 123.025 87.5505L117.926 90.2961ZM125.361 98.1081C128.564 100.03 132.136 100.973 136.004 100.973V95.1815C133.117 95.1815 130.586 94.4896 128.34 93.1422L125.361 98.1081ZM177.36 116.104H152.841V121.896H177.36V116.104ZM155.736 119V97.5867H149.945V119H155.736ZM155.683 98.1407L159.443 78.8524L153.758 77.7444L149.999 97.0327L155.683 98.1407ZM159.428 77.6753L155.178 58.387L149.523 59.6331L153.773 78.9214L159.428 77.6753ZM155.246 59.0101V0.327824H149.455V59.0101H155.246ZM152.35 3.2234H177.36V-2.56776H152.35V3.2234ZM174.464 0.327824V119H180.255V0.327824H174.464ZM210.825 116.385L209.431 118.923L209.46 118.939L209.49 118.954L210.825 116.385ZM197.748 103.962L195.256 105.436L195.263 105.448L195.269 105.459L197.748 103.962ZM193.007 39.5583V36.6627H190.112V39.5583H193.007ZM218.017 39.5583H220.912V36.6627H218.017V39.5583ZM219.324 92.356L216.678 93.532L216.705 93.5921L216.735 93.6509L219.324 92.356ZM223.574 96.9329L225.043 94.4371L223.574 96.9329ZM239.103 95.1348L241.2 97.1317L241.223 97.1074L241.246 97.0826L239.103 95.1348ZM242.372 39.5583V36.6627H239.477V39.5583H242.372ZM267.382 39.5583H270.277V36.6627H267.382V39.5583ZM262.641 103.962L265.12 105.459L265.127 105.448L265.133 105.436L262.641 103.962ZM249.565 116.385L250.919 118.944L250.939 118.933L250.958 118.923L249.565 116.385ZM230.276 117.902C223.372 117.902 217.358 116.514 212.159 113.815L209.49 118.954C215.625 122.14 222.578 123.694 230.276 123.694V117.902ZM212.218 113.846C207.09 111.031 203.113 107.242 200.226 102.464L195.269 105.459C198.703 111.143 203.444 115.636 209.431 118.923L212.218 113.846ZM200.24 102.487C197.371 97.6402 195.903 92.0573 195.903 85.6541H190.112C190.112 92.9816 191.804 99.6037 195.256 105.436L200.24 102.487ZM195.903 85.6541V39.5583H190.112V85.6541H195.903ZM193.007 42.4539H218.017V36.6627H193.007V42.4539ZM215.121 39.5583V85.3272H220.912V39.5583H215.121ZM215.121 85.3272C215.121 88.3514 215.604 91.1149 216.678 93.532L221.971 91.18C221.301 89.674 220.912 87.7516 220.912 85.3272H215.121ZM216.735 93.6509C217.96 96.1019 219.761 98.0493 222.106 99.4287L225.043 94.4371C223.682 93.6369 222.65 92.5331 221.914 91.061L216.735 93.6509ZM222.106 99.4287C224.491 100.832 227.256 101.463 230.276 101.463V95.6719C228.065 95.6719 226.363 95.2137 225.043 94.4371L222.106 99.4287ZM230.276 101.463C234.625 101.463 238.379 100.093 241.2 97.1317L237.006 93.1378C235.468 94.7531 233.337 95.6719 230.276 95.6719V101.463ZM241.246 97.0826C244.033 94.0166 245.268 89.9815 245.268 85.3272H239.477C239.477 88.9549 238.532 91.4582 236.961 93.187L241.246 97.0826ZM245.268 85.3272V39.5583H239.477V85.3272H245.268ZM242.372 42.4539H267.382V36.6627H242.372V42.4539ZM264.486 39.5583V85.4906H270.277V39.5583H264.486ZM264.486 85.4906C264.486 92.0119 263.014 97.6472 260.15 102.487L265.133 105.436C268.59 99.5967 270.277 92.918 270.277 85.4906H264.486ZM260.163 102.464C257.277 107.242 253.299 111.031 248.171 113.846L250.958 118.923C256.945 115.636 261.686 111.143 265.12 105.459L260.163 102.464ZM248.21 113.826C243.132 116.514 237.182 117.902 230.276 117.902V123.694C237.973 123.694 244.882 122.14 250.919 118.944L248.21 113.826ZM314.142 117.529L315.359 114.902L314.142 117.529ZM303.19 109.029L300.89 110.788L300.902 110.804L300.915 110.821L303.19 109.029ZM298.286 96.4425H295.39V96.5769L295.403 96.7107L298.286 96.4425ZM298.286 62.9331L295.403 62.6649L295.39 62.7987V62.9331H298.286ZM303.19 50.1832L300.865 48.4565L303.19 50.1832ZM314.142 41.1929L315.411 43.7954L314.142 41.1929ZM348.795 43.3179L347.265 45.7759L347.275 45.7823L347.285 45.7886L348.795 43.3179ZM362.526 58.0293L359.964 59.3779L359.973 59.3954L359.982 59.4127L362.526 58.0293ZM362.526 100.529L359.982 99.1456L359.973 99.1629L359.964 99.1804L362.526 100.529ZM348.795 115.24L347.285 112.77L347.275 112.776L347.265 112.782L348.795 115.24ZM333.593 95.6252L332.104 93.1422L332.081 93.1558L332.059 93.1697L333.593 95.6252ZM339.968 88.9233L337.419 87.5505L339.968 88.9233ZM339.968 69.4715L337.419 70.8443L339.968 69.4715ZM333.593 62.9331L332.059 65.3886L332.118 65.4255L332.179 65.4595L333.593 62.9331ZM315.122 62.9331L316.581 65.4343L316.597 65.4253L316.612 65.4161L315.122 62.9331ZM308.911 69.4715L311.46 70.8443L308.911 69.4715ZM308.747 88.9233L306.158 90.2182L306.177 90.2575L306.198 90.2961L308.747 88.9233ZM315.122 95.6252L313.633 98.1081L315.122 95.6252ZM283.084 152.509H280.189V155.405H283.084V152.509ZM283.084 39.5583V36.6627H280.189V39.5583H283.084ZM308.094 39.5583H310.989V36.6627H308.094V39.5583ZM308.094 59.9908L310.926 60.591L310.989 60.2942V59.9908H308.094ZM304.007 79.2791L301.174 78.679L301.052 79.2551L301.165 79.8331L304.007 79.2791ZM307.767 98.5675H310.662V98.2879L310.609 98.0135L307.767 98.5675ZM307.767 152.509V155.405H310.662V152.509H307.767ZM328.853 117.739C323.898 117.739 319.414 116.781 315.359 114.902L312.924 120.156C317.805 122.418 323.129 123.53 328.853 123.53V117.739ZM315.359 114.902C311.272 113.008 307.995 110.449 305.464 107.237L300.915 110.821C304.051 114.801 308.075 117.909 312.924 120.156L315.359 114.902ZM305.49 107.27C302.99 104.001 301.555 100.323 301.169 96.1743L295.403 96.7107C295.889 101.933 297.723 106.646 300.89 110.788L305.49 107.27ZM301.182 96.4425V62.9331H295.39V96.4425H301.182ZM301.169 63.2013C301.555 59.049 302.994 55.3025 305.514 51.9099L300.865 48.4565C297.719 52.6921 295.888 57.4456 295.403 62.6649L301.169 63.2013ZM305.514 51.9099C308.058 48.4854 311.34 45.7813 315.411 43.7954L312.872 38.5904C308.008 40.9635 303.988 44.2529 300.865 48.4565L305.514 51.9099ZM315.411 43.7954C319.455 41.8228 323.92 40.8193 328.853 40.8193V35.0281C323.107 35.0281 317.764 36.204 312.872 38.5904L315.411 43.7954ZM328.853 40.8193C335.89 40.8193 341.996 42.4953 347.265 45.7759L350.326 40.8598C344.043 36.9482 336.855 35.0281 328.853 35.0281V40.8193ZM347.285 45.7886C352.716 49.1074 356.933 53.6199 359.964 59.3779L365.088 56.6807C361.58 50.0158 356.644 44.7206 350.305 40.8471L347.285 45.7886ZM359.982 59.4127C363.102 65.1488 364.698 71.746 364.698 79.2791H370.489C370.489 70.9022 368.706 63.3328 365.07 56.6459L359.982 59.4127ZM364.698 79.2791C364.698 86.8123 363.102 93.4095 359.982 99.1456L365.07 101.912C368.706 95.2255 370.489 87.6561 370.489 79.2791H364.698ZM359.964 99.1804C356.933 104.938 352.716 109.451 347.285 112.77L350.305 117.711C356.644 113.838 361.58 108.543 365.088 101.878L359.964 99.1804ZM347.265 112.782C341.996 116.063 335.89 117.739 328.853 117.739V123.53C336.855 123.53 344.043 121.61 350.326 117.698L347.265 112.782ZM324.276 100.973C328.323 100.973 331.981 100.048 335.128 98.0806L332.059 93.1697C329.976 94.4717 327.421 95.1815 324.276 95.1815V100.973ZM335.083 98.1081C338.26 96.2019 340.749 93.5818 342.518 90.2961L337.419 87.5505C336.137 89.9314 334.375 91.7792 332.104 93.1422L335.083 98.1081ZM342.518 90.2961C344.296 86.9932 345.152 83.2972 345.152 79.2791H339.361C339.361 82.4533 338.692 85.1868 337.419 87.5505L342.518 90.2961ZM345.152 79.2791C345.152 75.168 344.303 71.4139 342.518 68.0987L337.419 70.8443C338.685 73.1957 339.361 75.9801 339.361 79.2791H345.152ZM342.518 68.0987C340.74 64.7965 338.228 62.2098 335.008 60.4067L332.179 65.4595C334.408 66.7077 336.146 68.4799 337.419 70.8443L342.518 68.0987ZM335.128 60.4777C331.995 58.5191 328.397 57.5856 324.44 57.5856V63.3768C327.457 63.3768 329.962 64.0779 332.059 65.3886L335.128 60.4777ZM324.44 57.5856C320.481 57.5856 316.85 58.5196 313.633 60.4502L316.612 65.4161C318.843 64.0774 321.425 63.3768 324.44 63.3768V57.5856ZM313.663 60.432C310.558 62.2432 308.123 64.8268 306.361 68.0987L311.46 70.8443C312.75 68.4496 314.456 66.6743 316.581 65.4343L313.663 60.432ZM306.361 68.0987C304.576 71.4139 303.727 75.168 303.727 79.2791H309.518C309.518 75.9801 310.194 73.1957 311.46 70.8443L306.361 68.0987ZM303.727 79.2791C303.727 83.2636 304.514 86.9315 306.158 90.2182L311.337 87.6284C310.147 85.2485 309.518 82.4869 309.518 79.2791H303.727ZM306.198 90.2961C307.967 93.5818 310.456 96.2019 313.633 98.1081L316.612 93.1422C314.341 91.7792 312.579 89.9314 311.297 87.5505L306.198 90.2961ZM313.633 98.1081C316.836 100.03 320.408 100.973 324.276 100.973V95.1815C321.388 95.1815 318.858 94.4896 316.612 93.1422L313.633 98.1081ZM285.98 152.509V39.5583H280.189V152.509H285.98ZM283.084 42.4539H308.094V36.6627H283.084V42.4539ZM305.198 39.5583V59.9908H310.989V39.5583H305.198ZM305.261 59.3907L301.174 78.679L306.84 79.8793L310.926 60.591L305.261 59.3907ZM301.165 79.8331L304.925 99.1214L310.609 98.0135L306.849 78.7252L301.165 79.8331ZM304.871 98.5675V152.509H310.662V98.5675H304.871ZM307.767 149.614H283.084V155.405H307.767V149.614ZM393.866 115.24L392.314 117.685L392.325 117.692L392.335 117.698L393.866 115.24ZM380.298 100.529L377.736 101.878L377.745 101.895L377.755 101.912L380.298 100.529ZM380.298 58.0293L377.755 56.6459L377.745 56.6632L377.736 56.6807L380.298 58.0293ZM393.866 43.3179L392.335 40.8598L392.325 40.8664L392.314 40.8731L393.866 43.3179ZM427.865 41.0294L426.597 43.6325L426.61 43.6388L426.623 43.645L427.865 41.0294ZM438.49 49.6928L436.157 51.4081L436.17 51.4248L436.182 51.4414L438.49 49.6928ZM443.067 62.1158H445.963V62.0149L445.956 61.9143L443.067 62.1158ZM443.067 96.4425L445.956 96.644L445.963 96.5434V96.4425H443.067ZM438.49 109.029L436.157 107.314L436.153 107.32L436.149 107.326L438.49 109.029ZM428.029 117.529L426.786 114.913L428.029 117.529ZM431.461 92.8463L433.574 94.8268L433.589 94.8106L433.604 94.7941L431.461 92.8463ZM434.077 69.4715L431.487 70.7665L431.507 70.8057L431.527 70.8443L434.077 69.4715ZM427.865 62.9331L426.331 65.3886L426.39 65.4255L426.451 65.4595L427.865 62.9331ZM409.394 62.9331L410.853 65.4343L410.869 65.4253L410.884 65.4161L409.394 62.9331ZM403.019 69.4715L400.511 68.0245L400.49 68.0613L400.47 68.0987L403.019 69.4715ZM403.019 88.9233L400.47 90.2961L403.019 88.9233ZM435.385 119H432.489V121.896H435.385V119ZM435.385 97.5867L432.542 97.0327L432.489 97.3071V97.5867H435.385ZM439.144 78.2984L441.986 78.8524L442.094 78.2984L441.986 77.7444L439.144 78.2984ZM435.385 59.0101H432.489V59.2896L432.542 59.564L435.385 59.0101ZM435.385 39.5583V36.6627H432.489V39.5583H435.385ZM459.904 39.5583H462.799V36.6627H459.904V39.5583ZM459.904 119V121.896H462.799V119H459.904ZM413.481 117.739C406.679 117.739 400.679 116.072 395.396 112.782L392.335 117.698C398.604 121.602 405.68 123.53 413.481 123.53V117.739ZM395.417 112.796C390.189 109.477 385.998 104.949 382.842 99.1456L377.755 101.912C381.355 108.532 386.209 113.811 392.314 117.685L395.417 112.796ZM382.861 99.1804C379.838 93.4374 378.29 86.8276 378.29 79.2791H372.499C372.499 87.6408 374.22 95.1976 377.736 101.878L382.861 99.1804ZM378.29 79.2791C378.29 71.7307 379.838 65.1209 382.861 59.3779L377.736 56.6807C374.22 63.3607 372.499 70.9175 372.499 79.2791H378.29ZM382.842 59.4127C385.998 53.6096 390.189 49.0809 395.417 45.7627L392.314 40.8731C386.209 44.7472 381.355 50.026 377.755 56.6459L382.842 59.4127ZM395.396 45.7759C400.679 42.4868 406.679 40.8193 413.481 40.8193V35.0281C405.68 35.0281 398.604 36.9567 392.335 40.8598L395.396 45.7759ZM413.481 40.8193C418.438 40.8193 422.791 41.7781 426.597 43.6325L429.134 38.4263C424.44 36.1398 419.203 35.0281 413.481 35.0281V40.8193ZM426.623 43.645C430.572 45.5206 433.731 48.1078 436.157 51.4081L440.823 47.9775C437.801 43.8676 433.877 40.6793 429.108 38.4139L426.623 43.645ZM436.182 51.4414C438.552 54.5701 439.889 58.1682 440.179 62.3173L445.956 61.9143C445.591 56.6917 443.877 52.0079 440.798 47.9443L436.182 51.4414ZM440.172 62.1158V96.4425H445.963V62.1158H440.172ZM440.179 96.241C439.889 100.392 438.55 104.06 436.157 107.314L440.823 110.744C443.88 106.587 445.592 101.865 445.956 96.644L440.179 96.241ZM436.149 107.326C433.842 110.498 430.747 113.032 426.786 114.913L429.271 120.144C434.029 117.884 437.908 114.752 440.832 110.732L436.149 107.326ZM426.786 114.913C422.855 116.781 418.437 117.739 413.481 117.739V123.53C419.204 123.53 424.484 122.418 429.271 120.144L426.786 114.913ZM418.548 100.973C424.585 100.973 429.69 98.9693 433.574 94.8268L429.349 90.8659C426.694 93.6977 423.191 95.1815 418.548 95.1815V100.973ZM433.604 94.7941C437.417 90.5993 439.261 85.3542 439.261 79.2791H433.47C433.47 84.1015 432.044 87.9011 429.319 90.8986L433.604 94.7941ZM439.261 79.2791C439.261 75.168 438.411 71.4139 436.626 68.0987L431.527 70.8443C432.794 73.1957 433.47 75.9801 433.47 79.2791H439.261ZM436.667 68.1766C434.995 64.8324 432.518 62.2202 429.28 60.4067L426.451 65.4595C428.661 66.6973 430.326 68.4441 431.487 70.7665L436.667 68.1766ZM429.4 60.4777C426.266 58.5191 422.669 57.5856 418.712 57.5856V63.3768C421.729 63.3768 424.234 64.0779 426.331 65.3886L429.4 60.4777ZM418.712 57.5856C414.752 57.5856 411.122 58.5196 407.905 60.4502L410.884 65.4161C413.115 64.0774 415.696 63.3768 418.712 63.3768V57.5856ZM407.935 60.432C404.85 62.2319 402.377 64.7907 400.511 68.0245L405.527 70.9185C406.931 68.4857 408.708 66.6856 410.853 65.4343L407.935 60.432ZM400.47 68.0987C398.685 71.4139 397.835 75.168 397.835 79.2791H403.627C403.627 75.9801 404.303 73.1957 405.569 70.8443L400.47 68.0987ZM397.835 79.2791C397.835 83.2972 398.691 86.9932 400.47 90.2961L405.569 87.5505C404.296 85.1868 403.627 82.4533 403.627 79.2791H397.835ZM400.47 90.2961C402.239 93.5818 404.728 96.2019 407.905 98.1081L410.884 93.1422C408.612 91.7792 406.851 89.9314 405.569 87.5505L400.47 90.2961ZM407.905 98.1081C411.108 100.03 414.68 100.973 418.548 100.973V95.1815C415.66 95.1815 413.13 94.4896 410.884 93.1422L407.905 98.1081ZM438.28 119V97.5867H432.489V119H438.28ZM438.227 98.1407L441.986 78.8524L436.302 77.7444L432.542 97.0327L438.227 98.1407ZM441.986 77.7444L438.227 58.4561L432.542 59.564L436.302 78.8524L441.986 77.7444ZM438.28 59.0101V39.5583H432.489V59.0101H438.28ZM435.385 42.4539H459.904V36.6627H435.385V42.4539ZM457.008 39.5583V119H462.799V39.5583H457.008ZM459.904 116.104H435.385V121.896H459.904V116.104ZM488.791 119H485.896V121.896H488.791V119ZM488.791 6.70277V3.80719H485.896V6.70277H488.791ZM513.801 6.70277H516.696V3.80719H513.801V6.70277ZM513.801 119V121.896H516.696V119H513.801ZM470.811 60.8081H467.915V63.7037H470.811V60.8081ZM470.811 39.5583V36.6627H467.915V39.5583H470.811ZM531.781 39.5583H534.677V36.6627H531.781V39.5583ZM531.781 60.8081V63.7037H534.677V60.8081H531.781ZM491.687 119V6.70277H485.896V119H491.687ZM488.791 9.59835H513.801V3.80719H488.791V9.59835ZM510.905 6.70277V119H516.696V6.70277H510.905ZM513.801 116.104H488.791V121.896H513.801V116.104ZM473.706 60.8081V39.5583H467.915V60.8081H473.706ZM470.811 42.4539H531.781V36.6627H470.811V42.4539ZM528.886 39.5583V60.8081H534.677V39.5583H528.886ZM531.781 57.9126H470.811V63.7037H531.781V57.9126ZM595.272 119H592.376V121.896H595.272V119ZM591.349 63.7504L589.258 65.7539L589.301 65.7984L589.345 65.841L591.349 63.7504ZM574.512 61.6254L575.861 64.1878L575.912 64.1606L575.963 64.1313L574.512 61.6254ZM569.608 66.5292L572.114 67.98L572.13 67.9525L572.146 67.9247L569.608 66.5292ZM567.81 73.7215L566.533 76.3201L570.706 78.3712V73.7215H567.81ZM558.166 68.9811H555.271V70.7844L556.889 71.5798L558.166 68.9811ZM573.041 41.8467L574.407 44.4L574.43 44.3878L574.452 44.3752L573.041 41.8467ZM605.57 41.8467L604.158 44.3752L604.181 44.3878L604.204 44.4L605.57 41.8467ZM616.358 52.4717L613.818 53.8624L613.838 53.8987L613.859 53.9344L616.358 52.4717ZM620.281 119V121.896H623.177V119H620.281ZM542.801 119H539.905V121.896H542.801V119ZM542.801 0.327824V-2.56776H539.905V0.327824H542.801ZM567.81 0.327824H570.706V-2.56776H567.81V0.327824ZM567.81 119V121.896H570.706V119H567.81ZM598.167 119V73.7215H592.376V119H598.167ZM598.167 73.7215C598.167 68.9148 596.621 64.7924 593.352 61.6598L589.345 65.841C591.307 67.7213 592.376 70.2462 592.376 73.7215H598.167ZM593.439 61.7469C590.338 58.5112 586.344 56.9318 581.704 56.9318V62.723C584.911 62.723 587.346 63.7589 589.258 65.7539L593.439 61.7469ZM581.704 56.9318C578.543 56.9318 575.631 57.6318 573.061 59.1195L575.963 64.1313C577.534 63.2216 579.418 62.723 581.704 62.723V56.9318ZM573.164 59.0631C570.559 60.434 568.525 62.4903 567.071 65.1338L572.146 67.9247C573.089 66.2093 574.325 64.9964 575.861 64.1878L573.164 59.0631ZM567.102 65.0785C565.615 67.6482 564.915 70.5596 564.915 73.7215H570.706C570.706 71.4347 571.205 69.5513 572.114 67.98L567.102 65.0785ZM569.088 71.1229L559.443 66.3825L556.889 71.5798L566.533 76.3201L569.088 71.1229ZM561.062 68.9811C561.062 63.1852 562.279 58.2371 564.618 54.0463L559.561 51.2239C556.669 56.4049 555.271 62.3541 555.271 68.9811H561.062ZM564.618 54.0463C566.966 49.8396 570.215 46.6422 574.407 44.4L571.675 39.2935C566.495 42.0641 562.444 46.0589 559.561 51.2239L564.618 54.0463ZM574.452 44.3752C578.65 42.032 583.546 40.8193 589.224 40.8193V35.0281C582.696 35.0281 576.803 36.4308 571.63 39.3183L574.452 44.3752ZM589.224 40.8193C595.02 40.8193 599.968 42.0361 604.158 44.3752L606.981 39.3183C601.8 36.4266 595.851 35.0281 589.224 35.0281V40.8193ZM604.204 44.4C608.404 46.6463 611.587 49.7884 613.818 53.8624L618.898 51.0809C616.116 46.0012 612.107 42.0599 606.935 39.2935L604.204 44.4ZM613.859 53.9344C616.176 57.8927 617.385 62.6023 617.385 68.1638H623.177C623.177 61.7383 621.771 55.9864 618.857 51.0089L613.859 53.9344ZM617.385 68.1638V119H623.177V68.1638H617.385ZM620.281 116.104H595.272V121.896H620.281V116.104ZM545.696 119V0.327824H539.905V119H545.696ZM542.801 3.2234H567.81V-2.56776H542.801V3.2234ZM564.915 0.327824V119H570.706V0.327824H564.915ZM567.81 116.104H542.801V121.896H567.81V116.104Z" fill="url(#paint1_linear_4699_820)" mask="url(#path-1-outside-1_4699_820)"/>
<defs>
<linearGradient id="paint0_linear_4699_820" x1="621.344" y1="325.271" x2="-11.9825" y2="303.473" gradientUnits="userSpaceOnUse">
<stop stop-color="#31B978" stop-opacity="0.04"/>
<stop offset="1" stop-color="#1AB69D" stop-opacity="0.03"/>
</linearGradient>
<linearGradient id="paint1_linear_4699_820" x1="361.75" y1="-17.5639" x2="361.75" y2="157" gradientUnits="userSpaceOnUse">
<stop stop-color="#E7E7EB" stop-opacity="0"/>
<stop offset="1" stop-color="#838385" stop-opacity="0.47"/>
</linearGradient>
</defs>
</svg>
