<svg width="452" height="240" viewBox="0 0 452 240" fill="none" xmlns="http://www.w3.org/2000/svg">
<path d="M0.444336 157.482L49.4357 54.6445H91.8067L41.4912 157.482H0.444336ZM0.444336 179.109V157.482L11.9198 146.228H127.557V179.109H0.444336ZM73.9314 211.108V116.877H112.551V211.108H73.9314Z" fill="#1F1C35"/>
<path d="M324.443 157.482L373.435 54.6445H415.806L365.49 157.482H324.443ZM324.443 179.109V157.482L335.919 146.228H451.556V179.109H324.443ZM397.93 211.108V116.877H436.55V211.108H397.93Z" fill="#1F1C35"/>
<path d="M194.292 71.0261C194.702 70.7839 195.231 70.9203 195.473 71.3307L196.45 72.9785C200.328 79.4856 201.88 81.5986 203.528 82.5539C204.884 83.339 206.285 83.0953 208.85 81.5912L209.192 81.3854C210.805 80.38 218.187 75.3095 221.041 73.4888C221.442 73.2326 221.976 73.3505 222.232 73.7522C222.488 74.1539 222.37 74.6873 221.969 74.9436L221.529 75.2263C218.349 77.288 211.205 82.1946 209.94 82.9508C206.835 84.8075 204.822 85.2248 202.804 84.126L202.663 84.0469C200.496 82.7911 198.81 80.382 193.987 72.2076C193.745 71.7972 193.881 71.2682 194.292 71.0261Z" fill="white"/>
<path d="M208.268 81.0038C208.74 80.9406 209.174 81.2722 209.238 81.7445C209.531 83.9392 210.235 86.14 211.353 88.3492C211.568 88.7744 211.397 89.2934 210.972 89.5085C210.547 89.7236 210.028 89.5532 209.813 89.128C208.61 86.7508 207.847 84.3651 207.527 81.9735C207.464 81.5012 207.796 81.067 208.268 81.0038Z" fill="white"/>
<path fill-rule="evenodd" clip-rule="evenodd" d="M308.784 133.691C308.645 134.044 308.34 134.531 307.985 134.993L308.291 135.309L308.645 135.686L308.723 135.762C308.758 135.792 308.785 135.811 308.804 135.816C308.919 135.832 308.998 135.938 308.983 136.053C308.966 136.166 308.861 136.247 308.747 136.231C308.643 136.229 308.267 136.081 307.818 135.717C307.737 135.651 307.656 135.575 307.574 135.491C307.315 135.78 307.053 136.028 306.827 136.182C306.495 136.412 306.207 136.43 306.07 136.337C305.934 136.247 305.805 135.943 306.024 135.328C306.059 135.217 306.177 135.159 306.287 135.194C306.397 135.228 306.457 135.345 306.423 135.456C306.389 135.57 306.385 135.674 306.384 135.758L306.512 135.671C306.557 135.638 306.603 135.602 306.646 135.56C306.8 135.408 306.972 135.223 307.145 135.024C306.871 134.705 306.592 134.332 306.366 133.9C306.256 133.69 306.168 133.467 306.085 133.232C306.027 133.101 306.087 132.947 306.218 132.889C306.35 132.831 306.503 132.891 306.561 133.022C306.812 133.549 307.134 134.003 307.451 134.392L307.556 134.519C307.845 134.141 308.093 133.758 308.206 133.467C308.268 133.308 308.448 133.229 308.607 133.29C308.768 133.354 308.847 133.533 308.784 133.691Z" fill="white"/>
<path fill-rule="evenodd" clip-rule="evenodd" d="M180.404 24.8456L179.879 24.7504C176.942 24.2044 174.69 23.5341 170.484 22.0758C170.002 21.9086 169.746 21.382 169.913 20.8996C170.081 20.4172 170.607 20.1618 171.09 20.329L172.138 20.6898C175.828 21.949 177.898 22.5263 180.725 23.0248C190.24 24.7024 197.363 19.8179 197.946 10.5022C197.978 9.99265 198.417 9.60543 198.926 9.63731C199.436 9.66919 199.823 10.1081 199.791 10.6176C199.136 21.0945 190.953 26.7055 180.404 24.8456Z" fill="#00BFAD"/>
<path fill-rule="evenodd" clip-rule="evenodd" d="M204.175 34.8266L204.706 36.0063L205.916 36.3536C205.982 36.3724 206.019 36.4406 206.001 36.5061C205.995 36.5262 205.984 36.5446 205.969 36.5594L205.05 37.4747L205.101 38.7919C205.104 38.8599 205.051 38.9172 204.983 38.9199C204.96 38.9208 204.937 38.9152 204.917 38.9038L203.876 38.311C203.844 38.2925 203.805 38.2897 203.77 38.3036L202.657 38.7457C202.593 38.7709 202.522 38.7399 202.497 38.6767C202.488 38.6553 202.486 38.6319 202.49 38.6093L202.724 37.312L201.941 36.2777C201.9 36.2234 201.911 36.1461 201.965 36.1051C201.982 36.0924 202.001 36.0842 202.022 36.0813L203.269 35.9057L203.959 34.8114C203.995 34.7539 204.071 34.7366 204.129 34.7729C204.149 34.7858 204.165 34.8045 204.175 34.8266Z" fill="#00160A"/>
<path d="M211.455 88.5267L211.953 88.3454C216.66 86.6562 220.632 85.9107 221.641 86.9373C222.526 87.8375 223.314 89.4678 224.062 91.8589C224.204 92.3137 223.95 92.7977 223.496 92.9398C223.041 93.082 222.557 92.8286 222.415 92.3738C221.768 90.3058 221.109 88.9141 220.485 88.226L220.459 88.1991L220.437 88.2003C220.319 88.1761 220.142 88.164 219.916 88.1683C219.419 88.1779 218.739 88.2656 217.928 88.4264C216.258 88.7573 214.148 89.3725 212.052 90.1456C208.548 91.4382 205.629 92.957 204.016 94.3289C203.424 94.8326 202.343 93.4296 203.383 92.6258C205.255 91.1796 208.093 89.7666 211.455 88.5267Z" fill="white"/>
<path d="M209.084 72.2348C209.084 75.1126 212.128 78.2286 212.775 78.4059C213.235 78.5317 205.317 83.691 205.317 83.691C202.455 84.0675 200.775 81.6491 200.775 78.0464C200.775 77.5699 209.084 71.7583 209.084 72.2348Z" fill="white"/>
<path fill-rule="evenodd" clip-rule="evenodd" d="M199.748 73.7415C200.75 73.5467 201.431 72.7116 201.269 71.8763C201.107 71.0411 200.162 70.5219 199.16 70.7167C198.158 70.9116 197.477 71.7466 197.639 72.5819C197.802 73.4171 198.746 73.9363 199.748 73.7415Z" fill="#FFB61D"/>
<path d="M342.469 45.9923C337.551 45.7408 333.678 49.5395 333.637 54.6389C333.603 58.9353 336.023 62.4732 339.347 63.1586C340.692 63.4358 343.273 63.1024 345.187 62.0288C348.094 60.4698 350.316 57.2647 350.596 54.5339C351.053 50.0848 347.451 46.247 342.469 45.9923Z" fill="white"/>
<path d="M253.342 45.0875C254.913 48.2606 257.353 55.5898 256.298 55.5545C253.367 55.4566 249.445 50.952 246.702 44.8613L246.486 44.3714C244.091 38.8415 242.657 35.3674 244.322 34.7019C246.045 34.0136 250.1 38.5385 253.342 45.0875Z" fill="white"/>
<path fill-rule="evenodd" clip-rule="evenodd" d="M244.32 34.6422C246.043 33.9539 250.157 38.2721 253.4 44.8211C254.971 47.9942 256.037 51.0381 256.315 53.2209C256.315 53.2209 251.009 42.0413 247.773 37.9465C246.53 36.3735 244.32 34.6422 244.32 34.6422Z" fill="#E7EAEE"/>
<path d="M243.414 62.7898C243.541 62.3304 244.015 62.0604 244.475 62.1867C244.934 62.3131 245.204 62.788 245.078 63.2474C244.915 63.8385 242.63 65.3886 237.644 68.4625L234.496 70.3887C228.283 74.1713 224.136 76.5917 223.618 76.5917C220.187 76.5917 217.096 73.3553 214.839 68.2488C212.868 63.79 211.845 58.4825 212.307 55.0044C212.451 53.9188 216.068 51.1087 221.653 47.3438L222.452 46.8077C227.393 43.5164 231.616 41.0755 233.144 40.7672C233.611 40.673 234.066 40.9752 234.16 41.4423C234.219 41.7345 220.601 53.2133 219.271 60.8321C218.37 65.9906 221.775 74.783 223.465 74.8626L223.618 74.8662C223.481 74.8662 223.525 74.8341 223.541 74.825L223.696 74.7448C223.811 74.6847 223.947 74.6113 224.104 74.5253L224.822 74.1237C225.096 73.9681 225.402 73.7928 225.737 73.5995L226.593 73.1021C228.228 72.1476 230.268 70.9324 232.349 69.6736L234.327 68.4705C236.734 67.0003 238.908 65.6447 240.542 64.592L241.383 64.0452C241.905 63.7032 242.345 63.4073 242.697 63.162L242.825 63.0724C243.019 62.9355 243.181 62.8177 243.307 62.721C243.307 62.721 243.449 62.6647 243.414 62.7898Z" fill="white"/>
<path fill-rule="evenodd" clip-rule="evenodd" d="M245.125 45.5824C243.043 40.9576 242.121 36.7191 242.816 34.1496C241.555 34.5507 239.979 35.2708 238.415 36.1681C236.334 37.3619 234.682 38.6963 234.644 38.9859C234.242 42.0139 235.785 47.9046 238.351 53.1563C241.095 58.7738 244.359 62.3819 246.887 62.3819C247.128 62.3819 247.821 62.2391 248.515 61.9967C249.502 61.6518 250.427 61.1493 251.185 60.4911C251.561 60.1638 251.951 59.7939 252.359 59.381L252.849 58.8738C253.139 58.5677 253.438 58.2381 253.904 57.716L254.553 56.9909L254.585 56.9557C251.333 55.7703 247.93 51.5813 245.385 46.1482L245.125 45.5824ZM232.933 38.7587C233.201 36.7413 240.745 32.3833 244.202 32.0914C244.35 31.9977 244.508 31.9167 244.678 31.8491C247.667 30.6548 252.221 35.7707 255.874 42.969L256.124 43.4686C257.773 46.7989 258.898 50.0123 259.205 52.4159C259.571 55.2871 258.74 57.1909 256.561 57.29C256.504 57.5192 256.356 57.7109 256.158 57.8261L256.124 57.8433L256.039 57.9283C255.953 58.0161 255.853 58.1251 255.697 58.298L254.625 59.4946C254.236 59.9233 253.961 60.2141 253.587 60.5928C253.151 61.0354 252.729 61.4352 252.316 61.7937C250.646 63.2447 248.177 64.1074 246.887 64.1074C246.199 64.1074 245.504 63.9468 244.807 63.6403C244.057 64.4159 241.779 65.917 237.646 68.4651L234.498 70.3913C228.285 74.1739 224.138 76.5943 223.62 76.5943C222.447 76.5943 221.313 76.2158 220.239 75.5134C220.227 75.5221 220.215 75.5305 220.202 75.5385L219.763 75.8213C218.234 76.8122 215.79 78.4603 213.523 79.989L213.523 79.989L213.523 79.989L213.379 80.0858C213.672 82.1806 214.339 84.2808 215.382 86.3887C219.09 85.2415 222.027 84.8536 222.875 85.7158C223.76 86.616 224.548 88.2463 225.296 90.6375C225.438 91.0923 225.184 91.5762 224.729 91.7184C224.275 91.8605 223.791 91.6071 223.649 91.1523C223.002 89.0843 222.343 87.6926 221.719 87.0045L221.693 86.9776L221.671 86.9788C221.553 86.9546 221.376 86.9425 221.15 86.9469C220.653 86.9564 219.973 87.0441 219.162 87.2049C217.492 87.5358 215.382 88.1511 213.286 88.9241C208.495 90.6914 204.798 92.8812 204.038 94.5407C203.815 95.0263 203.844 95.7371 204.11 96.8255L204.159 97.0216C204.199 97.1758 204.241 97.3286 204.295 97.5221L204.607 98.6247C204.62 98.673 204.633 98.7222 204.649 98.7844C204.769 99.2456 204.492 99.7166 204.03 99.8363C203.569 99.956 203.098 99.6792 202.979 99.218L202.825 98.66L202.57 97.7594C202.541 97.6529 202.515 97.5546 202.489 97.4547C202.085 95.8959 202.02 94.8035 202.469 93.8223C203.231 92.1591 205.613 90.4362 208.93 88.8695L208.207 87.0036L208.029 86.5321C207.756 85.798 207.438 84.8029 207.243 84.0758C204.651 85.4726 202.846 85.7061 201.037 84.721L200.897 84.6419C200.538 84.4341 200.193 84.1947 199.844 83.9028L189.734 90.0436C189.827 90.2459 189.922 90.4498 190.018 90.6555C190.472 91.6285 189.671 92.3174 188.444 92.8535L188.312 92.9098C187.257 93.3468 186.305 93.447 185.738 92.8249C183.387 90.2439 180.897 84.0701 182.236 82.6581C182.494 82.387 183.172 81.9833 184.456 81.3099L184.539 81.2668C184.572 81.2425 184.607 81.2203 184.643 81.2004L194.096 76.0792C194.116 76.0685 194.136 76.0586 194.156 76.0495C193.571 75.0821 192.93 74.0047 192.22 72.8026C192.138 72.6637 192.1 72.5113 192.101 72.361C192.099 72.1314 192.189 71.9019 192.369 71.7313C194.314 69.8846 196.966 67.959 200.295 65.8853L200.698 65.6357C202.135 64.7493 205.051 63.0863 207.528 61.6735L207.528 61.6734L207.529 61.6733L207.53 61.6727C209.45 60.5772 211.107 59.6322 211.606 59.3166L211.727 59.2364C211.908 59.1038 212.124 59.0522 212.331 59.075C212.167 57.5781 212.152 56.1872 212.309 55.007C212.453 53.9214 216.07 51.1113 221.655 47.3464L222.454 46.8103C227.134 43.6927 231.17 41.3381 232.882 40.8362C232.837 40.0692 232.852 39.3703 232.933 38.7587ZM233.069 42.5863C231.392 43.2004 227.197 45.6912 222.619 48.7771L221.886 49.2746C219.825 50.6808 217.921 52.0518 216.483 53.1692L216.083 53.4826C215.442 53.9912 214.922 54.4294 214.546 54.7808C214.357 54.9571 214.208 55.1079 214.103 55.228L214.03 55.3145C214.014 55.3312 214.009 55.3248 214.015 55.2704L214.02 55.2342C214.018 55.2481 214.016 55.2601 214.015 55.2704L213.992 55.4556C213.163 62.7369 218.428 74.628 223.467 74.8651L223.586 74.8679C223.596 74.8684 223.607 74.8687 223.62 74.8687L223.586 74.8679C223.491 74.8629 223.528 74.8358 223.543 74.8276L223.698 74.7474C223.813 74.6873 223.949 74.6139 224.106 74.5278L224.824 74.1263C225.098 73.9707 225.404 73.7953 225.739 73.602L226.595 73.1047C228.23 72.1502 230.27 70.935 232.351 69.6761L234.329 68.473C236.736 67.0029 238.91 65.6473 240.544 64.5946L241.385 64.0477C241.907 63.7058 242.347 63.4098 242.699 63.1645L242.827 63.0749C243.009 62.9469 243.162 62.8356 243.284 62.7427C241.065 61.1102 238.88 58.1013 236.94 54.1974L236.8 53.9137C234.925 50.0756 233.57 45.9189 233.069 42.5863ZM212.569 60.7462C211.948 61.137 210.11 62.1866 208.065 63.3547L208.064 63.3548L208.064 63.3549C205.643 64.7375 202.931 66.286 201.603 67.1045C198.466 69.0387 195.936 70.8316 194.059 72.5197L194.683 73.5734C197.406 78.1421 198.982 80.5447 200.25 81.9013C199.828 80.9019 199.609 79.6329 199.609 78.0408C199.609 77.9685 199.618 77.8982 199.634 77.831C199.552 77.5012 199.67 77.1396 199.961 76.9259L200.549 76.4892C200.901 76.2227 201.481 75.7795 202.14 75.2757L202.142 75.2747L202.143 75.2739C203.585 74.1714 205.407 72.7793 206.057 72.3135C208.103 70.8479 209.612 70.0254 210.985 69.74C211.641 69.6037 212.15 69.9917 212.298 70.5927L212.322 70.702C212.357 70.8809 212.363 71.0568 212.362 71.441L212.362 71.5627C212.355 72.9985 212.497 73.827 213.105 74.784C213.521 75.4389 214.132 76.0365 214.984 76.5717C215.072 76.6271 215.147 76.6959 215.207 76.7737C216.585 75.8485 217.875 74.9882 218.826 74.3722C217.328 72.9235 215.978 70.8249 214.841 68.2513C213.782 65.8562 212.997 63.2161 212.569 60.7462ZM257.493 52.6323C257.215 50.4495 256.149 47.4056 254.578 44.2325C251.335 37.6835 247.041 32.7613 245.318 33.4496C243.653 34.1151 244.087 38.8522 246.482 44.3821L246.699 44.872C249.442 50.9626 253.363 55.4672 256.294 55.5652C257.349 55.6004 257.762 54.7387 257.493 52.6323ZM195.048 77.5097C196.546 79.9311 197.64 81.5309 198.593 82.6437L189.008 88.4655C188.025 86.3112 187.146 84.3062 186.293 82.2691L194.918 77.5964C194.965 77.571 195.008 77.542 195.048 77.5097ZM213.727 86.9331C212.797 85.0097 212.155 83.0809 211.803 81.1479C210.564 81.9815 209.487 82.7029 208.794 83.1529C208.914 83.7499 209.354 85.1597 209.733 86.1627L210.441 87.9853L210.509 88.1647C211.206 87.8705 211.934 87.5835 212.689 87.3052L213.187 87.124C213.368 87.0589 213.548 86.9953 213.727 86.9331ZM213.698 77.7895C212.816 77.1773 212.139 76.4811 211.648 75.7093C210.854 74.4588 210.645 73.391 210.636 71.7776L210.636 71.6332L210.514 71.6789C209.639 72.0185 208.595 72.6328 207.283 73.5591L207.062 73.7163C206.438 74.1636 204.661 75.5212 203.228 76.6166L203.227 76.6168L203.227 76.6174L203.226 76.6183C202.429 77.2271 201.739 77.7546 201.411 77.9995L201.334 78.0564C201.337 80.9234 202.053 82.2393 203.385 82.8779L203.492 82.927C203.809 83.0675 204.036 83.1382 204.684 83.3155C204.697 83.3192 204.711 83.3233 204.724 83.3277C205.395 83.1016 206.165 82.7247 207.083 82.1861L207.426 81.9804C208.185 81.5069 210.224 80.1319 212.467 78.6194L212.467 78.6193L212.47 78.617L212.49 78.604L212.508 78.5916L212.518 78.5847C212.907 78.3223 213.302 78.0559 213.698 77.7895ZM184.772 83.1062L184.904 83.4209C185.821 85.5937 186.773 87.7454 187.854 90.0921L188.274 91.0026C188.136 91.0951 187.955 91.1934 187.756 91.2804C187.47 91.4053 187.179 91.493 186.961 91.5224L186.892 91.5294L186.787 91.4035C185.97 90.3979 185.022 88.6894 184.337 86.9904C183.972 86.0856 183.712 85.2555 183.595 84.6179C183.547 84.3581 183.525 84.1398 183.527 83.9742L183.532 83.8651C183.534 83.8386 183.534 83.8249 183.527 83.8229L183.553 83.8054C183.699 83.7048 184.072 83.4868 184.625 83.1859L184.772 83.1062ZM196.673 81.2041C196.34 80.864 195.793 80.8587 195.453 81.1924C194.855 81.7793 194.016 82.3259 192.552 83.139L191.061 83.9661C190.668 84.1904 190.345 84.3838 190.053 84.5732C189.809 84.7315 189.591 84.8843 189.395 85.0357C189.018 85.327 188.949 85.8689 189.24 86.2459C189.531 86.623 190.073 86.6925 190.45 86.4011C190.606 86.2808 190.786 86.1548 190.992 86.0209C191.183 85.8972 191.392 85.7691 191.635 85.6273L192.11 85.3554L193.624 84.5167C195.078 83.7002 195.955 83.1174 196.661 82.4243C197.002 82.0906 197.007 81.5443 196.673 81.2041Z" fill="#00160A"/>
<path d="M177.373 168.807C181.688 192.862 197.859 210.946 218.494 215.21C222.282 215.992 228.841 216.096 235.633 215.216C244.383 214.084 252.9 211.486 260.39 207.275C280.965 196.217 296.577 173.649 298.601 153.893C300.378 136.539 293.749 120.507 281.747 109.07C281.747 109.07 244.045 127.588 225.538 138.114C209.433 147.273 177.373 168.807 177.373 168.807Z" fill="white"/>
<path d="M265.177 97.072C257.444 93.2565 247.755 90.2425 238.254 89.7568C203.409 87.9752 176.004 115.812 175.718 151.716C175.718 151.716 214.609 126.944 234.813 114.992C244.865 109.046 265.177 97.072 265.177 97.072Z" fill="white"/>
<path fill-rule="evenodd" clip-rule="evenodd" d="M336.848 78.7814C336.731 84.7803 330.383 94.7647 320.179 106.063C312.787 114.248 304.186 122.159 296.974 127.49L296.525 127.819L296.823 129.144C298.577 136.83 300.866 145.186 300.001 153.612C297.902 174.063 281.905 197.136 260.766 208.473C253.056 212.798 244.292 215.466 235.303 216.627L234.446 216.732C227.743 217.522 221.329 217.391 217.409 216.583C202.194 213.446 189.313 202.811 181.526 187.418C181.499 187.366 181.479 187.313 181.464 187.259C180.439 187.844 179.059 188.498 178.429 188.712L176.703 189.295C158.103 195.551 139.663 200.785 132.13 197.518C129.263 196.275 128.282 193.883 129.482 190.67C130.647 187.547 133.879 183.523 139.301 178.516L139.599 178.242C144.736 173.532 156.145 164.926 173.826 152.424L173.831 152.195C174.693 115.149 203.469 86.9086 239.639 89.214C250.702 89.9191 259.512 93.8506 263.913 96.2647L265.848 95.2263C283.999 85.5211 298.562 78.6991 309.674 74.6158C327.947 67.9007 336.984 71.0404 336.848 78.7814ZM310.269 78.5893C289.836 86.098 257.543 102.985 212.582 130.15L211.216 130.976C176.206 152.17 153.023 168.271 140.765 179.508L140.16 180.066L139.588 180.603C130.386 189.297 128.754 194.168 132.817 195.929C139.771 198.945 158.446 193.861 176.734 187.863L178.429 187.304C180.06 186.763 181.142 186.453 181.811 186.31C181.84 186.289 181.872 186.27 181.906 186.253C182.135 186.137 182.391 186.133 182.612 186.22C182.66 186.229 182.691 186.244 182.707 186.265C182.856 186.345 182.983 186.471 183.065 186.633C190.625 201.576 203.083 210.682 217.757 213.707C221.566 214.493 227.993 214.608 234.68 213.781L235.082 213.73C243.864 212.595 252.418 211.172 259.936 206.954C280.593 195.876 296.245 173.301 298.285 153.43C299.156 144.937 298.044 136.601 295.086 128.842C294.842 129.013 294.6 129.181 294.36 129.345C293.906 129.654 294.075 129.153 294.868 127.84C294.91 127.669 295.005 127.513 295.14 127.396L295.385 127.009C295.47 126.874 295.56 126.734 295.654 126.588L296.677 125.725C306.315 117.573 313.722 110.632 318.898 104.901L319.489 104.243C329.065 93.5268 335.018 84.0608 335.116 78.7438C335.224 72.9111 327.528 72.2468 310.269 78.5893ZM223.632 187.704C225.947 194.779 222.445 199.33 216.28 199.565C210.584 199.783 205.396 196.193 205.661 191.093C205.889 186.684 208.908 181.972 212.624 180.241C217.118 178.148 221.336 180.687 223.632 187.704ZM213.531 182.207C210.558 183.592 208 187.585 207.812 191.215C207.624 194.829 211.62 197.595 216.194 197.42C220.977 197.238 223.431 194.048 221.579 188.385C219.65 182.489 216.716 180.724 213.531 182.207ZM255.186 169.365C246.93 175.766 245.769 183.433 250.561 187.823C253.998 190.971 259.077 191.145 263.82 188.089L263.913 188.028L263.878 188.021C263.55 187.934 263.286 187.669 263.211 187.324L263.197 187.236C263.137 186.729 263.499 186.269 264.006 186.209C265.165 186.071 266.172 185.792 267.025 185.391L267.142 185.334L267.283 185.188C267.84 184.602 268.383 183.965 268.91 183.275L269.085 183.043C269.282 182.779 269.595 182.65 269.901 182.675L269.925 182.677L269.937 182.654C271.045 180.465 270.782 177.5 269.161 174.343L269.064 174.157C265.897 168.171 259.976 165.651 255.186 169.365ZM310.167 103.012C309.692 104.7 308.246 107.017 306.03 109.76C302.165 114.542 296.36 120.108 291.286 123.915L292.412 122.677C292.401 122.667 292.391 122.654 292.383 122.639L291.995 121.925C289.456 117.29 286.627 112.719 282.055 108.992C270.222 113.871 256.653 120.54 244.291 127.514L240.239 129.804C210.4 146.707 194.701 156.826 177.914 169.266C178.547 172.12 179.346 174.905 180.302 177.603C180.452 178.026 178.492 179.611 178.133 179.415C174.784 181.659 169.539 183.289 166.554 183.374C163.644 183.456 161.963 182.278 162.829 179.93C163.553 177.965 166.282 175.163 171.194 171.407L171.754 170.982L172.886 170.132C191.369 156.294 209.668 145.064 243.444 126.011L244.857 125.218C268.023 112.287 294.849 100.637 307.136 99.562C309.661 99.3411 310.807 100.739 310.167 103.012ZM175.663 170.936L171.791 173.858C168.336 176.478 165.845 178.415 164.5 179.658L164.401 179.75C162.759 181.29 164.618 181.697 166.502 181.644C169.357 181.563 173.73 179.398 177.432 177.428C176.747 175.309 176.157 173.142 175.663 170.936ZM236.242 161.59C236.704 161.707 236.983 162.177 236.866 162.639C236.749 163.1 236.279 163.38 235.817 163.262C233.497 162.673 232.127 162.899 231.682 163.524C231.387 163.939 231.55 164.646 232.102 165.097C232.533 165.449 233.107 165.618 233.502 165.532C233.845 165.457 234.038 165.192 234.038 164.53C234.038 164.053 234.424 163.667 234.9 163.667C235.377 163.667 235.763 164.053 235.763 164.53C235.763 165.971 235.042 166.963 233.869 167.218C232.925 167.423 231.826 167.101 231.009 166.432C229.803 165.446 229.409 163.742 230.276 162.524C231.226 161.189 233.308 160.845 236.242 161.59ZM198.338 158.409C199.669 158.807 200.242 159.829 200.423 161.362L200.441 161.528L200.463 161.78C200.466 161.822 200.469 161.865 200.472 161.912L200.517 162.787L200.531 162.985C200.538 163.072 200.545 163.143 200.554 163.205L200.577 163.337L200.591 163.395L200.615 163.417C200.882 163.677 200.952 164.086 200.78 164.424L200.736 164.5C200.478 164.901 199.944 165.016 199.543 164.758C198.992 164.402 198.867 164.036 198.8 162.987L198.746 161.96C198.739 161.867 198.732 161.787 198.723 161.696C198.625 160.691 198.38 160.223 197.843 160.062C196.336 159.61 195.471 160.071 195.197 161.078C194.953 161.976 195.306 162.92 195.925 163.182L196.081 163.24C196.486 163.412 196.7 163.868 196.563 164.295C196.419 164.749 195.933 164.999 195.479 164.855C193.836 164.331 193.056 162.379 193.532 160.626C194.064 158.669 195.915 157.683 198.338 158.409ZM260.592 145.196C262.981 148.555 262.537 152.829 258.704 154.763C258.278 154.978 257.759 154.807 257.545 154.382C257.33 153.956 257.025 152.576 257.45 152.362C260.225 150.961 261.019 148.773 259.186 146.197C257.405 143.693 254.927 143.418 253.224 146.123C251.418 148.99 251.549 150.674 252.849 151.432C253.881 152.033 255.543 151.907 256 151.415L256.044 151.361C256.321 150.973 256.859 150.882 257.247 151.159C257.636 151.435 257.726 151.974 257.45 152.362C256.491 153.709 253.754 153.957 251.98 152.922C249.709 151.598 249.492 148.811 251.763 145.203C254.196 141.341 258.163 141.781 260.592 145.196ZM224.818 140.248C225.266 140.248 225.635 140.59 225.677 141.027L225.681 141.111C225.681 141.262 225.822 141.432 226.328 141.804L226.807 142.147C227.329 142.528 227.581 142.765 227.819 143.141C228.363 144.001 228.672 144.877 228.672 145.906C228.672 148.543 224.71 152.13 220.386 153.726C215.203 155.639 210.956 154.22 209.801 148.901C209.7 148.436 209.995 147.976 210.461 147.875C210.926 147.774 211.386 148.069 211.487 148.535C212.384 152.663 215.48 153.697 219.789 152.107C223.51 150.734 226.946 147.622 226.946 145.906C226.946 145.243 226.744 144.669 226.361 144.063L226.309 143.99C226.221 143.879 226.084 143.759 225.836 143.576L225.267 143.166C224.321 142.468 223.955 141.998 223.955 141.111C223.955 140.634 224.341 140.248 224.818 140.248ZM228.868 92.4408L228.323 92.5021C198.882 96.0428 176.795 119.591 175.59 151.191L178.749 148.968C187.816 142.604 198.341 135.333 210.323 127.158L212.658 125.747C219.628 121.541 226.293 117.584 232.655 113.871C232.539 113.668 232.507 113.418 232.585 113.177C233.03 111.819 233.441 110.907 234.194 109.993C236.552 107.134 239.781 105.737 242.07 107.532C242.295 107.709 242.408 107.976 242.399 108.242L244.432 107.082C250.833 103.438 256.889 100.073 262.605 96.9818L260.372 96.3466C257.062 95.4147 252.942 94.3094 248.839 93.4585C248.877 96.1889 246.833 98.3691 243.438 99.8687C240.551 101.144 236.79 101.829 234.115 101.67C229.112 101.372 226.296 96.9834 228.868 92.4408ZM280.514 129.899C282.626 135.667 280.884 140.913 275.612 140.879C268.101 140.83 260.766 134.271 261.951 128.396C262.48 125.774 264.451 123.456 267.877 122.299C273.349 120.451 278.365 124.027 280.514 129.899ZM268.43 123.932C265.598 124.888 264.053 126.706 263.643 128.735C262.702 133.398 269.088 139.108 275.623 139.151C279.367 139.175 280.654 135.299 278.894 130.49C277.032 125.401 272.868 122.433 268.43 123.932ZM204.985 103.513L205.046 103.602L205.462 104.263C205.665 104.598 205.847 104.927 206.021 105.282C207.932 109.189 207.882 114.31 204.648 121.42C203.183 124.641 199.451 128.969 196.192 131.552C192.031 134.85 188.924 135.599 185.215 135.192L184.115 135.063L183.981 135.051C183.907 135.045 183.86 135.045 183.808 135.046L183.733 135.05C183.676 135.052 183.656 135.049 183.652 135.042L183.652 135.036L183.624 135.081C183.374 135.44 182.888 135.558 182.498 135.341C182.081 135.109 181.932 134.584 182.163 134.167C182.473 133.61 182.992 133.357 183.651 133.326C183.826 133.318 184.011 133.324 184.231 133.342L184.488 133.367L185.2 133.453C188.578 133.863 191.265 133.255 195.121 130.2C198.182 127.774 201.74 123.647 203.078 120.705C206.104 114.052 206.148 109.469 204.471 106.04C204.359 105.811 204.242 105.594 204.116 105.376L203.936 105.075L203.574 104.503C203.321 104.099 203.443 103.566 203.846 103.313C204.225 103.076 204.716 103.168 204.985 103.513ZM307.283 101.297C301.768 101.779 293.121 104.504 283.153 108.557L283.445 108.815C286.219 111.303 291.816 117.205 293.568 121.415L295.313 119.48C299.618 114.691 302.742 111.095 304.685 108.691L305.078 108.198C306.934 105.842 308.134 103.874 308.503 102.561L308.556 102.361C308.786 101.413 308.52 101.189 307.283 101.297ZM224.673 104.087C226.82 105.125 227.692 107.436 226.279 109.532C226.013 109.927 225.476 110.031 225.081 109.765C224.686 109.498 224.582 108.962 224.848 108.567C225.625 107.414 225.187 106.252 223.922 105.64C222.589 104.996 221.13 105.367 220.376 106.773C219.682 108.068 219.634 109.823 220.189 110.971C220.675 111.98 221.383 112.173 222.464 111.36C222.845 111.073 223.386 111.15 223.672 111.53C223.959 111.911 223.883 112.452 223.502 112.739C221.533 114.221 219.584 113.689 218.635 111.721C217.839 110.072 217.902 107.736 218.855 105.958C220.071 103.689 222.549 103.06 224.673 104.087ZM235.524 111.077C235.122 111.565 234.835 112.08 234.568 112.74C236.792 111.449 238.977 110.187 241.125 108.955L241.063 108.919L241.003 108.876C239.685 107.842 237.363 108.846 235.524 111.077ZM231.844 92.1641L231.089 92.2171L231.039 92.2809C228.056 96.0501 229.205 99.1095 233.278 99.5439C236.203 99.8558 243.969 97.6855 244.88 96.9238C245.767 96.1819 246.889 94.4756 247.062 93.0935C244.426 92.5979 241.848 92.2336 239.549 92.116C237.199 91.9958 234.881 91.9987 232.602 92.1195L231.844 92.1641Z" fill="#00160A"/>
<path d="M309.749 78.8001C328.022 72.085 327.603 74.0773 310.344 80.4198C289.91 87.9285 212.78 134.977 212.78 134.977C177.77 156.171 175.151 152.899 209.085 132.276L211.177 131.007C211.571 130.769 250.205 106.385 277.812 93.3401C280.918 91.8721 307.668 79.5646 309.749 78.8001Z" fill="#00160A"/>
<path fill-rule="evenodd" clip-rule="evenodd" d="M341.295 45.3924C335.633 45.1029 331.213 49.5031 331.167 55.2602C331.129 60.0837 333.896 64.1794 337.861 64.9969C338.906 65.2122 341.919 65.2122 344.532 63.7461L344.749 63.6268C348.044 61.7609 350.286 58.2111 350.585 55.2909C351.117 50.1136 346.957 45.6819 341.295 45.3924ZM332.4 55.273C332.4 55.2309 332.401 55.1888 332.401 55.1468C332.437 55.1355 332.472 55.1207 332.506 55.1024C336.945 52.711 339.685 50.8886 340.78 49.5727C341.499 48.708 341.851 47.7332 341.826 46.6743C342.572 46.7568 343.282 46.9204 343.948 47.1547C343.945 47.1831 343.944 47.2122 343.945 47.2416C343.999 48.774 343.59 49.999 342.722 50.9527C341.724 52.0488 340.515 53.0919 339.14 54.0755C337.671 55.1271 336.093 56.0557 334.515 56.8507C334.146 57.0362 333.796 57.2053 333.467 57.3577L332.991 57.5738C332.923 57.604 332.859 57.6318 332.801 57.6571L332.656 57.7184C332.482 56.9438 332.393 56.1233 332.4 55.273ZM333.001 58.9102C333.391 59.9952 333.957 60.9567 334.658 61.7396L335.03 61.5255C340.823 58.1714 344.42 55.5366 345.781 53.6779C347.157 51.7985 347.648 50.3555 347.34 49.3743C347.334 49.354 347.328 49.3335 347.324 49.3131C346.717 48.6751 345.995 48.1267 345.18 47.694C345.143 49.3179 344.628 50.6898 343.633 51.7825C342.572 52.9479 341.299 54.0467 339.858 55.0778C338.332 56.1697 336.7 57.1297 335.069 57.9515C334.593 58.1912 334.145 58.4048 333.733 58.5917L333.253 58.8045L333.001 58.9102ZM337.61 63.6664C336.884 63.4484 336.208 63.0916 335.6 62.6199C341.566 59.1693 345.278 56.4504 346.775 54.4061C347.702 53.1406 348.295 52.0025 348.537 50.9865C348.836 51.5447 349.063 52.1396 349.208 52.7611C349.177 52.8242 349.157 52.8936 349.149 52.9675C348.999 54.4083 348.256 55.8384 346.898 57.2626C345.595 58.6294 342.783 60.6016 338.485 63.1513L337.61 63.6664ZM339.688 63.8689C341.014 63.7865 342.638 63.3984 343.949 62.6629C346.386 61.3564 348.341 58.8939 349.075 56.5233C348.718 57.06 348.289 57.59 347.791 58.1131C346.451 59.5181 343.757 61.4286 339.688 63.8689ZM332.759 53.5615L332.542 53.6797C333.247 49.6151 336.498 46.7002 340.591 46.6165C340.63 47.4106 340.381 48.1237 339.832 48.7847C338.938 49.8598 336.566 51.469 332.759 53.5615Z" fill="#FF723A"/>
<path fill-rule="evenodd" clip-rule="evenodd" d="M385.793 33.5708C385.908 33.584 385.988 33.688 385.975 33.8022C385.975 33.9703 385.866 34.0613 385.721 34.1204C385.59 34.173 385.38 34.1528 385.258 34.1693C383.924 34.2723 382.875 33.2903 382.413 32.0245C381.97 30.8086 382.088 29.3547 382.893 28.4579C382.985 28.3522 383.146 28.3417 383.251 28.4343C383.357 28.5269 383.958 28.6879 383.865 28.7936C383.201 29.5682 382.752 30.0382 383.378 31.8767C384.004 33.7153 385.707 33.5609 385.793 33.5708Z" fill="#E7EAEE"/>
<path fill-rule="evenodd" clip-rule="evenodd" d="M173.286 46.7252C172.935 46.4844 172.456 46.5735 172.215 46.9242C171.974 47.275 172.063 47.7545 172.414 47.9953C172.8 48.2602 173.141 48.5047 173.441 48.7319C173.118 48.9893 172.795 49.2842 172.459 49.6199L171.778 50.3118C171.478 50.614 171.481 51.1017 171.783 51.4012C172.085 51.7007 172.573 51.6986 172.872 51.3964L173.69 50.5702C174.022 50.2466 174.333 49.9758 174.647 49.7508C175.343 50.4407 175.554 50.9469 175.566 51.45L175.566 51.5791L175.57 51.6578C175.609 52.0463 175.937 52.3494 176.336 52.3494C176.762 52.3494 177.106 52.0045 177.106 51.5791L177.106 51.4276C177.092 50.6431 176.815 49.8969 176.07 49.0442C176.563 48.8973 177.118 48.8151 177.792 48.7799C178.217 48.7577 178.543 48.3953 178.521 47.9704C178.499 47.5455 178.136 47.2191 177.711 47.2413C176.542 47.3023 175.634 47.4972 174.825 47.8675C174.487 47.5912 174.104 47.3012 173.672 46.9942L173.286 46.7252Z" fill="#00160A"/>
<path fill-rule="evenodd" clip-rule="evenodd" d="M288.717 215.527L289.252 215.53C292.238 215.557 294.572 215.827 298.968 216.532C299.472 216.613 299.815 217.088 299.734 217.592C299.653 218.096 299.179 218.439 298.675 218.358L297.234 218.131C293.597 217.573 291.501 217.376 288.717 217.376C279.056 217.376 272.889 223.424 273.933 232.699C273.99 233.206 273.625 233.664 273.118 233.721C272.61 233.778 272.153 233.413 272.096 232.906C270.922 222.474 278.006 215.527 288.717 215.527ZM296.198 219.244L296.108 219.165C296.021 219.09 295.887 219.1 295.813 219.188C295.737 219.275 295.749 219.407 295.836 219.482L295.929 219.561C296.016 219.636 296.147 219.626 296.223 219.538C296.297 219.451 296.288 219.318 296.198 219.244ZM279.448 221.188C279.116 220.922 278.632 220.975 278.365 221.306C277.289 222.645 276.505 223.95 276.015 225.224C275.54 226.462 275.377 228.544 275.501 231.52L275.531 232.149C275.553 232.573 275.915 232.9 276.34 232.877C276.765 232.855 277.091 232.492 277.069 232.068C276.906 228.958 277.045 226.84 277.454 225.776C277.882 224.662 278.585 223.493 279.566 222.271C279.833 221.94 279.78 221.455 279.448 221.188ZM287.855 218.638C288.233 218.442 288.698 218.59 288.894 218.968C289.089 219.345 288.942 219.81 288.564 220.006C286.999 220.817 285.804 222.175 284.971 224.113C284.078 226.192 283.346 228.047 282.777 229.677C282.637 230.079 282.198 230.291 281.796 230.151C281.395 230.011 281.183 229.571 281.323 229.17C281.904 227.503 282.649 225.614 283.556 223.504C284.524 221.252 285.96 219.62 287.855 218.638ZM292.333 218.61C292.053 218.29 291.566 218.258 291.246 218.538C289.96 219.665 288.972 220.689 288.281 221.619C287.594 222.541 286.791 223.921 285.86 225.767C285.669 226.147 285.821 226.61 286.201 226.801C286.581 226.993 287.044 226.84 287.236 226.46C288.13 224.687 288.893 223.377 289.517 222.538C290.136 221.707 291.051 220.757 292.261 219.697C292.581 219.417 292.614 218.93 292.333 218.61ZM289.52 227.308C289.2 227.588 288.713 227.556 288.433 227.236C288.152 226.916 288.185 226.429 288.505 226.149C289.715 225.089 290.63 224.139 291.249 223.308C291.873 222.469 292.636 221.159 293.53 219.386C293.722 219.006 294.185 218.853 294.565 219.045C294.945 219.236 295.097 219.699 294.906 220.079C293.975 221.925 293.172 223.305 292.485 224.227C291.794 225.157 290.806 226.181 289.52 227.308ZM283.688 219.264C283.338 219.022 282.858 219.11 282.617 219.46C280.894 221.954 279.795 223.818 279.308 225.084C278.82 226.354 278.483 228.066 278.287 230.231C278.249 230.655 278.562 231.029 278.985 231.067C279.409 231.106 279.784 230.793 279.822 230.37C280.006 228.335 280.317 226.754 280.747 225.636C281.147 224.594 282.08 222.987 283.538 220.841L283.884 220.336C284.126 219.986 284.038 219.506 283.688 219.264Z" fill="#543EE8"/>
<path fill-rule="evenodd" clip-rule="evenodd" d="M269.063 214.741L269.594 215.92L270.804 216.268C270.869 216.286 270.907 216.355 270.888 216.42C270.883 216.44 270.872 216.459 270.857 216.473L269.937 217.389L269.989 218.706C269.992 218.774 269.939 218.831 269.871 218.834C269.848 218.835 269.825 218.829 269.805 218.818L268.764 218.225C268.731 218.207 268.692 218.204 268.657 218.218L267.544 218.66C267.481 218.685 267.409 218.654 267.384 218.591C267.376 218.569 267.373 218.546 267.377 218.523L267.612 217.226L266.829 216.192C266.788 216.138 266.798 216.06 266.853 216.019C266.869 216.006 266.889 215.998 266.91 215.995L268.156 215.82L268.846 214.726C268.883 214.668 268.959 214.651 269.016 214.687C269.037 214.7 269.053 214.719 269.063 214.741Z" fill="#00160A"/>
<path fill-rule="evenodd" clip-rule="evenodd" d="M311.933 49.5732C312.216 49.8246 312.57 50.2779 312.882 50.7687L313.284 50.5901L313.76 50.3864C313.855 50.3427 313.917 50.3085 313.936 50.2808C313.991 50.1788 314.117 50.14 314.22 50.1941C314.32 50.2481 314.361 50.3746 314.306 50.4764C314.269 50.5732 314.002 50.8767 313.506 51.1736C313.416 51.2274 313.317 51.2775 313.21 51.3262C313.393 51.6683 313.537 51.9988 313.604 52.2638C313.706 52.6546 313.625 52.9315 313.49 53.0288C313.359 53.125 313.029 53.143 312.527 52.7262C312.435 52.6558 312.42 52.5244 312.49 52.4331C312.56 52.342 312.691 52.3252 312.784 52.3956C312.879 52.466 312.976 52.5059 313.054 52.5348L313.016 52.3852C313.001 52.3317 312.982 52.276 312.957 52.2216C312.867 52.0248 312.752 51.8001 312.624 51.5693C312.231 51.7176 311.785 51.8521 311.302 51.9168C311.067 51.9485 310.827 51.9546 310.578 51.9526C310.435 51.962 310.311 51.8533 310.301 51.7099C310.292 51.5667 310.401 51.4426 310.544 51.4332C311.124 51.3772 311.661 51.2306 312.135 51.0656L312.29 51.0098C312.034 50.6091 311.759 50.2452 311.524 50.0398C311.396 49.927 311.383 49.7307 311.495 49.602C311.61 49.4729 311.805 49.46 311.933 49.5732Z" fill="#00160A"/>
<path fill-rule="evenodd" clip-rule="evenodd" d="M240.165 131.446C239.543 131.457 238.571 131.566 237.807 131.84C237.154 132.075 238.371 139.306 240.853 139.99C243.353 140.856 245.777 139.968 244.816 136.084C244.797 136.003 244.692 135.78 244.571 135.524C244.394 135.149 244.184 134.705 244.164 134.534C244.094 133.928 243.841 133.408 243.348 133.066C242.714 132.083 241.682 131.42 240.165 131.446ZM240.971 138.242C239.662 137.352 239.046 133.446 240.334 133.245C241.267 133.894 242.172 134.812 242.714 136.526C242.586 137.45 242.074 137.965 241.626 138.416C241.578 138.464 241.531 138.512 241.485 138.559C241.321 138.47 241.149 138.362 240.971 138.242Z" fill="white"/>
<path fill-rule="evenodd" clip-rule="evenodd" d="M141.756 160.754C141.652 160.129 141.723 159.429 142.037 158.682C142.18 158.344 142.555 158.068 143.024 157.882C143.572 157.666 144.242 157.559 144.665 157.531C145.695 157.465 146.318 157.896 146.635 158.565C146.93 158.789 147.042 159.145 147.02 159.568C147.01 159.769 147.275 160.495 147.284 160.634C147.491 163.326 145.749 164.026 144.155 163.498C143.55 163.806 142.966 163.857 142.526 163.53C142.132 163.239 141.83 162.623 141.76 161.538C141.742 161.258 141.74 160.997 141.756 160.754ZM144.583 158.976C143.669 159.155 143.63 161.794 144.429 162.357C144.538 162.433 144.644 162.5 144.747 162.555C145.133 162.208 145.42 161.926 145.584 161.351C145.747 160.775 145.15 159.387 144.583 158.976Z" fill="#FFB61D"/>
<path fill-rule="evenodd" clip-rule="evenodd" d="M215.211 233.862C214.86 233.621 214.381 233.71 214.14 234.061C213.899 234.412 213.988 234.891 214.339 235.132C214.725 235.397 215.065 235.641 215.366 235.869C215.043 236.126 214.72 236.421 214.384 236.757L213.703 237.449C213.403 237.751 213.405 238.238 213.708 238.538C214.01 238.837 214.497 238.835 214.797 238.533L215.614 237.707C215.947 237.383 216.258 237.113 216.571 236.887C217.267 237.577 217.479 238.084 217.491 238.587L217.491 238.716L217.495 238.795C217.534 239.183 217.862 239.486 218.261 239.486C218.686 239.486 219.031 239.141 219.031 238.716L219.031 238.564C219.017 237.78 218.74 237.034 217.995 236.181C218.488 236.034 219.043 235.952 219.716 235.917C220.141 235.894 220.468 235.532 220.446 235.107C220.423 234.682 220.061 234.356 219.636 234.378C218.467 234.439 217.559 234.634 216.75 235.004C216.412 234.728 216.029 234.438 215.596 234.131L215.211 233.862Z" fill="#00160A"/>
<path fill-rule="evenodd" clip-rule="evenodd" d="M215.211 233.862C214.86 233.621 214.381 233.71 214.14 234.061C213.899 234.412 213.988 234.891 214.339 235.132C214.725 235.397 215.065 235.641 215.366 235.869C215.043 236.126 214.72 236.421 214.384 236.757L213.703 237.449C213.403 237.751 213.405 238.238 213.708 238.538C214.01 238.837 214.497 238.835 214.797 238.533L215.614 237.707C215.947 237.383 216.258 237.113 216.571 236.887C217.267 237.577 217.479 238.084 217.491 238.587L217.491 238.716L217.495 238.795C217.534 239.183 217.862 239.486 218.261 239.486C218.686 239.486 219.031 239.141 219.031 238.716L219.031 238.564C219.017 237.78 218.74 237.034 217.995 236.181C218.488 236.034 219.043 235.952 219.716 235.917C220.141 235.894 220.468 235.532 220.446 235.107C220.423 234.682 220.061 234.356 219.636 234.378C218.467 234.439 217.559 234.634 216.75 235.004C216.412 234.728 216.029 234.438 215.596 234.131L215.211 233.862Z" fill="#00160A"/>
<path fill-rule="evenodd" clip-rule="evenodd" d="M247.292 224.311L247.823 225.491L249.033 225.838C249.099 225.857 249.137 225.925 249.118 225.99C249.112 226.011 249.101 226.029 249.086 226.044L248.167 226.959L248.218 228.276C248.221 228.344 248.168 228.402 248.1 228.404C248.077 228.405 248.054 228.4 248.034 228.388L246.993 227.795C246.961 227.777 246.922 227.774 246.887 227.788L245.774 228.23C245.71 228.255 245.639 228.224 245.614 228.161C245.605 228.14 245.603 228.116 245.607 228.094L245.841 226.796L245.058 225.762C245.017 225.708 245.028 225.631 245.082 225.589C245.099 225.577 245.118 225.569 245.139 225.566L246.386 225.39L247.076 224.296C247.112 224.238 247.188 224.221 247.246 224.257C247.266 224.27 247.283 224.289 247.292 224.311Z" fill="#00160A"/>
<path fill-rule="evenodd" clip-rule="evenodd" d="M180.507 216.198L181.41 217.125L182.665 217.037C182.733 217.033 182.792 217.084 182.797 217.152C182.798 217.173 182.795 217.194 182.786 217.213L182.235 218.387L182.734 219.607C182.759 219.67 182.729 219.742 182.666 219.768C182.645 219.777 182.622 219.779 182.599 219.776L181.418 219.574C181.381 219.568 181.343 219.579 181.315 219.604L180.421 220.4C180.37 220.445 180.292 220.441 180.247 220.39C180.231 220.373 180.221 220.352 180.217 220.329L179.994 219.03L178.904 218.326C178.847 218.289 178.83 218.212 178.867 218.155C178.879 218.138 178.895 218.123 178.913 218.113L180.024 217.522L180.298 216.258C180.313 216.191 180.379 216.149 180.445 216.163C180.469 216.169 180.49 216.181 180.507 216.198Z" fill="#00160A"/>
<path fill-rule="evenodd" clip-rule="evenodd" d="M166.417 131.717L166.948 132.897L168.158 133.244C168.224 133.263 168.262 133.331 168.243 133.397C168.237 133.417 168.226 133.435 168.211 133.45L167.292 134.365L167.343 135.683C167.346 135.751 167.293 135.808 167.225 135.81C167.202 135.811 167.179 135.806 167.159 135.794L166.118 135.202C166.086 135.183 166.047 135.18 166.012 135.194L164.899 135.636C164.835 135.661 164.764 135.631 164.739 135.567C164.73 135.546 164.728 135.523 164.732 135.5L164.966 134.203L164.183 133.168C164.142 133.114 164.153 133.037 164.207 132.996C164.224 132.983 164.243 132.975 164.264 132.972L165.511 132.796L166.201 131.702C166.237 131.644 166.313 131.627 166.371 131.664C166.391 131.676 166.408 131.695 166.417 131.717Z" fill="#00160A"/>
<path fill-rule="evenodd" clip-rule="evenodd" d="M166.293 132.886L166.518 133.387L167.032 133.535C167.06 133.543 167.076 133.572 167.068 133.6C167.066 133.608 167.061 133.616 167.055 133.622L166.664 134.011L166.686 134.571C166.687 134.6 166.665 134.624 166.636 134.625C166.626 134.625 166.616 134.623 166.608 134.618L166.166 134.366C166.152 134.359 166.135 134.357 166.12 134.363L165.648 134.551C165.621 134.562 165.59 134.549 165.58 134.522C165.576 134.513 165.575 134.503 165.577 134.493L165.676 133.942L165.344 133.503C165.326 133.48 165.331 133.447 165.354 133.429C165.361 133.424 165.369 133.421 165.378 133.419L165.908 133.345L166.201 132.88C166.216 132.855 166.248 132.848 166.273 132.864C166.282 132.869 166.288 132.877 166.293 132.886Z" fill="#E7EAEE"/>
<path fill-rule="evenodd" clip-rule="evenodd" d="M103.308 183.483L103.839 184.663L105.049 185.01C105.114 185.029 105.152 185.097 105.134 185.162C105.128 185.182 105.117 185.201 105.102 185.216L104.183 186.131L104.234 187.448C104.237 187.516 104.184 187.573 104.116 187.576C104.093 187.577 104.07 187.571 104.05 187.56L103.009 186.967C102.977 186.949 102.937 186.946 102.903 186.96L101.789 187.402C101.726 187.427 101.654 187.396 101.629 187.333C101.621 187.312 101.618 187.288 101.623 187.266L101.857 185.968L101.074 184.934C101.033 184.88 101.043 184.802 101.098 184.761C101.114 184.749 101.134 184.74 101.155 184.738L102.402 184.562L103.091 183.468C103.128 183.41 103.204 183.393 103.261 183.429C103.282 183.442 103.298 183.461 103.308 183.483Z" fill="#00160A"/>
<path fill-rule="evenodd" clip-rule="evenodd" d="M156.645 77.5377L157.03 77.8067C157.463 78.1137 159.078 79.6362 159.416 79.9125C160.224 79.5418 161.132 79.347 162.301 79.286C162.725 79.2638 163.088 79.5902 163.11 80.0151C163.132 80.4399 162.806 80.8024 162.381 80.8246C161.708 80.8597 161.153 80.9419 160.66 81.0887C161.406 81.942 161.683 82.6882 161.697 83.4727L161.698 83.6241C161.698 84.0496 161.353 84.3945 160.927 84.3945C160.528 84.3945 160.2 84.0913 160.161 83.7029L160.157 83.6241L160.157 83.495C160.146 82.9917 159.933 82.4854 159.237 81.795C158.923 82.02 158.612 82.291 158.279 82.6149L157.462 83.4411C157.162 83.7433 156.674 83.7454 156.372 83.4459C156.07 83.1464 156.068 82.6587 156.367 82.3565L157.049 81.6646C157.384 81.3287 157.708 81.0337 158.031 80.7761C157.463 79.4786 155.333 78.0875 155.574 77.7367C155.814 77.386 156.294 77.2969 156.645 77.5377Z" fill="#00160A"/>
<path fill-rule="evenodd" clip-rule="evenodd" d="M305.28 166.387L306.329 167.143L307.551 166.838C307.617 166.822 307.684 166.862 307.7 166.928C307.706 166.949 307.705 166.97 307.7 166.99L307.361 168.243L308.064 169.358C308.101 169.415 308.084 169.491 308.026 169.528C308.006 169.54 307.984 169.546 307.961 169.547L306.763 169.554C306.726 169.554 306.69 169.571 306.667 169.6L305.924 170.54C305.882 170.593 305.804 170.602 305.751 170.56C305.733 170.546 305.719 170.527 305.712 170.505L305.266 169.265L304.07 168.76C304.008 168.734 303.978 168.662 304.005 168.599C304.013 168.58 304.026 168.563 304.042 168.55L305.034 167.774L305.085 166.482C305.087 166.414 305.145 166.361 305.213 166.363C305.237 166.364 305.26 166.372 305.28 166.387Z" fill="#00160A"/>
<path fill-rule="evenodd" clip-rule="evenodd" d="M317.337 118.109L317.655 119.362L318.786 119.915C318.848 119.945 318.873 120.018 318.843 120.08C318.834 120.098 318.82 120.115 318.803 120.127L317.738 120.868L317.56 122.174C317.551 122.242 317.489 122.289 317.422 122.28C317.399 122.277 317.377 122.267 317.36 122.253L316.437 121.488C316.409 121.464 316.371 121.455 316.334 121.462L315.161 121.704C315.094 121.718 315.029 121.675 315.015 121.609C315.011 121.586 315.012 121.563 315.02 121.541L315.476 120.304L314.885 119.15C314.854 119.089 314.878 119.015 314.938 118.984C314.957 118.974 314.978 118.97 314.999 118.97L316.257 119.014L317.126 118.056C317.172 118.006 317.25 118.002 317.3 118.048C317.318 118.064 317.331 118.085 317.337 118.109Z" fill="#00160A"/>
<path fill-rule="evenodd" clip-rule="evenodd" d="M289.88 67.6398L290.198 68.8937L291.329 69.4459C291.39 69.4758 291.416 69.5496 291.386 69.6108C291.377 69.6296 291.363 69.6458 291.346 69.6578L290.281 70.3995L290.103 71.7057C290.094 71.7731 290.032 71.8204 289.965 71.8112C289.942 71.8081 289.92 71.7986 289.903 71.7839L288.98 71.0194C288.952 70.9955 288.914 70.986 288.877 70.9936L287.704 71.2357C287.637 71.2495 287.572 71.2066 287.558 71.1399C287.553 71.1174 287.555 71.094 287.563 71.0723L288.019 69.8355L287.428 68.6809C287.397 68.6204 287.421 68.5461 287.481 68.515C287.5 68.5055 287.521 68.5008 287.542 68.5016L288.8 68.5452L289.669 67.5873C289.715 67.5369 289.793 67.5331 289.843 67.5789C289.861 67.5951 289.874 67.6164 289.88 67.6398Z" fill="#00160A"/>
<path fill-rule="evenodd" clip-rule="evenodd" d="M370.992 79.9324L371.46 79.8907C371.989 79.8477 372.469 79.8237 372.905 79.8182C373.286 79.0149 373.856 78.2821 374.712 77.4842C375.023 77.1941 375.511 77.2112 375.801 77.5224C376.091 77.8336 376.074 78.3211 375.763 78.6112C375.27 79.0709 374.897 79.4906 374.614 79.9197C375.734 80.0937 376.426 80.4873 376.941 81.0791L377.039 81.195C377.312 81.5209 377.27 82.0068 376.944 82.2803C376.638 82.5367 376.192 82.5154 375.912 82.2431L375.858 82.1854L375.775 82.0865C375.443 81.7083 374.955 81.4566 373.978 81.3755C373.882 81.7495 373.818 82.1575 373.771 82.6194L373.676 83.7778C373.641 84.2017 373.269 84.5169 372.845 84.4817C372.421 84.4465 372.105 84.0742 372.141 83.6502L372.218 82.6823C372.259 82.2091 372.317 81.7753 372.4 81.37C372.024 81.3891 371.606 81.4209 371.14 81.466C370.717 81.5069 370.341 81.1969 370.3 80.7734C370.259 80.3499 370.569 79.9734 370.992 79.9324Z" fill="#00160A"/>
<path fill-rule="evenodd" clip-rule="evenodd" d="M308.784 133.098C308.645 133.45 308.34 133.937 307.985 134.399L308.291 134.716L308.645 135.093L308.723 135.168C308.758 135.198 308.785 135.217 308.804 135.222C308.919 135.239 308.998 135.344 308.983 135.46C308.966 135.572 308.861 135.654 308.747 135.637C308.643 135.635 308.267 135.488 307.818 135.123C307.737 135.057 307.656 134.981 307.574 134.898C307.315 135.186 307.053 135.434 306.827 135.588C306.495 135.818 306.207 135.836 306.07 135.743C305.934 135.653 305.805 135.349 306.024 134.735C306.059 134.624 306.177 134.565 306.287 134.6C306.397 134.635 306.457 134.752 306.423 134.863C306.389 134.976 306.385 135.081 306.384 135.164L306.512 135.077C306.557 135.045 306.603 135.008 306.646 134.966C306.8 134.814 306.972 134.63 307.145 134.43C306.871 134.112 306.592 133.738 306.366 133.307C306.256 133.097 306.168 132.873 306.085 132.639C306.027 132.507 306.087 132.353 306.218 132.295C306.35 132.238 306.503 132.298 306.561 132.429C306.812 132.955 307.134 133.409 307.451 133.798L307.556 133.925C307.845 133.547 308.093 133.165 308.206 132.873C308.268 132.715 308.448 132.635 308.607 132.696C308.768 132.76 308.847 132.939 308.784 133.098Z" fill="#E7EAEE"/>
<path d="M267.499 110.46C285.587 101.999 300.711 97.5302 310.126 96.7096C313.009 96.4583 314.317 98.048 313.587 100.634C313.045 102.554 311.394 105.188 308.863 108.308C304.451 113.747 298.634 118.402 292.841 122.731C302.109 114.177 304.472 110.599 307.331 107.075L307.78 106.514C309.899 103.835 311.269 101.596 311.691 100.102L311.751 99.8753C312.013 98.7969 311.709 98.5418 310.298 98.6648C301.095 99.4668 286.03 103.945 268.008 112.394C249.957 120.857 249.441 118.907 267.499 110.46Z" fill="white"/>
<path d="M184.771 83.0938L184.903 83.4085C185.819 85.5813 186.771 87.733 187.852 90.0797L188.272 90.9902C188.135 91.0827 187.954 91.181 187.754 91.268C187.468 91.3929 187.178 91.4806 186.96 91.51L186.89 91.517L186.785 91.3911C185.968 90.3855 185.02 88.677 184.335 86.978C183.97 86.0732 183.711 85.2431 183.593 84.6055C183.546 84.3457 183.524 84.1274 183.526 83.9618L183.531 83.8527C183.532 83.8262 183.532 83.8125 183.526 83.8105L183.552 83.793C183.697 83.6924 184.07 83.4744 184.624 83.1735L184.771 83.0938Z" fill="white"/>
<path fill-rule="evenodd" clip-rule="evenodd" d="M207.637 75.2229C208.204 74.5299 208.938 74.6333 209.868 75.1973L210.106 75.348L210.775 75.7909C210.962 75.9108 211.043 75.9522 211.152 75.9957C211.405 76.0964 211.528 76.3831 211.428 76.6361C211.327 76.8891 211.04 77.0125 210.787 76.9118L210.697 76.8747C210.526 76.8014 210.397 76.7253 210.051 76.4955L209.571 76.176C209.492 76.1244 209.424 76.0812 209.356 76.0403C208.8 75.703 208.548 75.6675 208.401 75.8468C208.309 75.9598 208.331 76.2008 208.515 76.6947L208.716 77.2128C209.116 78.2743 209.118 78.7489 208.406 79.154C207.793 79.5028 207.478 79.3398 206.598 78.4769L206.384 78.2652C205.82 77.702 205.524 77.506 205.334 77.5463C205.271 77.5596 205.197 77.6045 205.107 77.7005C205.001 77.8131 204.971 78.1733 205.036 78.8123L205.135 79.6468C205.251 80.6669 205.204 80.9312 204.783 81.213C204.203 81.6012 203.432 81.1625 202.001 79.8781C201.799 79.6962 201.782 79.3845 201.964 79.1819C202.146 78.9793 202.458 78.9625 202.66 79.1445C203.272 79.6936 203.733 80.0511 204.056 80.2345L204.128 80.2738L204.189 80.304L204.19 80.2422L204.186 80.0945C204.18 79.9735 204.165 79.8272 204.134 79.5787L204.072 79.0666C203.952 78.0281 203.989 77.4505 204.387 77.0259C204.609 76.7901 204.857 76.6393 205.13 76.5816C205.763 76.4476 206.213 76.7182 206.96 77.4484L207.337 77.8194C207.744 78.2105 207.895 78.3104 207.918 78.2969C208.011 78.2444 207.997 78.0811 207.747 77.4397L207.638 77.1619C207.289 76.2666 207.223 75.7305 207.637 75.2229Z" fill="#00160A"/>
<path fill-rule="evenodd" clip-rule="evenodd" d="M276.87 15.3907L276.402 15.4324C275.978 15.4734 275.668 15.8499 275.709 16.2734C275.734 16.5283 275.88 16.7421 276.085 16.863L276.004 16.9211C275.656 17.1667 275.574 17.6474 275.819 17.9948C276.065 18.3423 276.545 18.4248 276.893 18.1793L277.688 17.6162C277.665 17.7987 277.645 17.9871 277.628 18.1823L277.55 19.1502C277.515 19.5742 277.83 19.9465 278.254 19.9817C278.678 20.0169 279.051 19.7017 279.086 19.2778L279.181 18.1194C279.206 17.8728 279.236 17.6415 279.273 17.4226C279.541 17.9336 279.595 18.3276 279.538 18.7004L279.515 18.8276L279.506 18.9058C279.477 19.2952 279.748 19.6507 280.14 19.72C280.559 19.7939 280.959 19.5141 281.033 19.0951L281.059 18.9459C281.141 18.4257 281.103 17.902 280.893 17.3206C281.004 17.4004 281.1 17.4892 281.185 17.5865L281.268 17.6854L281.322 17.7431C281.602 18.0154 282.048 18.0367 282.354 17.7803C282.679 17.5068 282.722 17.0209 282.449 16.695L282.351 16.5791C282.316 16.5389 282.28 16.4997 282.244 16.4614C282.645 16.4838 283.001 16.1911 283.05 15.7862C283.102 15.3639 282.802 14.9795 282.38 14.9276C281.655 14.8385 281.022 14.8183 280.439 14.8702C280.648 14.6241 280.89 14.3742 281.172 14.1112C281.484 13.8211 281.501 13.3336 281.211 13.0224C280.921 12.7112 280.433 12.6941 280.122 12.9842C279.599 13.4712 279.183 13.934 278.852 14.4034C278.723 14.2669 278.588 14.127 278.446 13.9835L278.113 13.6516C277.81 13.3535 277.322 13.358 277.024 13.6616C276.726 13.9652 276.73 14.4529 277.034 14.7509C277.245 14.9584 277.44 15.1547 277.62 15.3407C277.382 15.3528 277.132 15.3694 276.87 15.3907Z" fill="#543EE8"/>
<path fill-rule="evenodd" clip-rule="evenodd" d="M231.472 0.247381C231.33 0.101185 231.099 0.105265 230.956 0.256495C230.814 0.407724 230.814 0.648835 230.957 0.795032C231.093 0.934118 231.214 1.06301 231.322 1.18292C231.094 1.27978 230.864 1.40525 230.619 1.56016L230.246 1.79913C230.082 1.90331 230.047 2.11175 230.166 2.26469C230.286 2.41763 230.515 2.45715 230.679 2.35297L231.125 2.06796C231.359 1.92504 231.569 1.81692 231.781 1.74104C232.101 2.1869 232.168 2.47288 232.127 2.73801L232.116 2.80096L232.111 2.83969C232.096 3.03231 232.223 3.20702 232.408 3.23976C232.607 3.27468 232.797 3.13484 232.833 2.92742L232.846 2.85356C232.907 2.46898 232.842 2.08152 232.567 1.60307C232.754 1.60017 232.958 1.61405 233.189 1.64361C233.391 1.66936 233.571 1.54168 233.593 1.35843C233.614 1.17517 233.469 1.00574 233.267 0.979992C232.826 0.923554 232.456 0.917096 232.117 0.962837C231.977 0.791066 231.815 0.607663 231.629 0.41019L231.472 0.247381Z" fill="#E7EAEE"/>
<path fill-rule="evenodd" clip-rule="evenodd" d="M132.499 128.729L133.029 129.909L134.239 130.256C134.305 130.275 134.343 130.343 134.324 130.408C134.318 130.429 134.307 130.447 134.292 130.462L133.373 131.377L133.425 132.694C133.427 132.762 133.374 132.82 133.306 132.822C133.283 132.823 133.26 132.818 133.24 132.806L132.2 132.213C132.167 132.195 132.128 132.192 132.093 132.206L130.98 132.648C130.917 132.673 130.845 132.642 130.82 132.579C130.811 132.558 130.809 132.534 130.813 132.512L131.047 131.214L130.264 130.18C130.223 130.126 130.234 130.048 130.288 130.007C130.305 129.995 130.325 129.987 130.345 129.984L131.592 129.808L132.282 128.714C132.318 128.656 132.394 128.639 132.452 128.675C132.472 128.688 132.489 128.707 132.499 128.729Z" fill="#00160A"/>
<path fill-rule="evenodd" clip-rule="evenodd" d="M139.576 63.2641L140.107 64.4438L141.317 64.7911C141.382 64.8099 141.42 64.8781 141.401 64.9436C141.395 64.9637 141.384 64.9821 141.37 64.9969L140.45 65.9122L140.502 67.2294C140.504 67.2974 140.451 67.3547 140.383 67.3574C140.36 67.3583 140.338 67.3527 140.318 67.3413L139.277 66.7485C139.244 66.73 139.205 66.7272 139.17 66.7411L138.057 67.1832C137.994 67.2084 137.922 67.1774 137.897 67.1142C137.888 67.0928 137.886 67.0694 137.89 67.0468L138.124 65.7495L137.341 64.7152C137.3 64.6609 137.311 64.5836 137.365 64.5426C137.382 64.5299 137.402 64.5217 137.422 64.5188L138.669 64.3432L139.359 63.2489C139.395 63.1914 139.471 63.1741 139.529 63.2104C139.55 63.2233 139.566 63.242 139.576 63.2641Z" fill="#00160A"/>
<path d="M155.608 167.513C156.003 167.226 156.557 167.313 156.844 167.709C157.131 168.104 144.613 178.3 139.757 182.972L139.193 183.52C136.419 186.234 134.374 188.584 133.222 190.441C132 192.41 131.922 193.479 132.71 193.916C135.702 195.574 140.004 196.382 146.165 195.362L146.798 195.254C149.143 194.843 166.784 190.996 166.504 191.098L166.396 191.13C165.84 191.278 158.657 193.762 156.178 194.393L155.878 194.469C152.088 195.422 149.122 196.076 146.454 196.518C139.935 197.598 135.277 197.361 131.853 195.464C129.877 194.369 130.034 192.222 131.718 189.508C133.042 187.374 135.372 184.737 138.53 181.697C143.451 176.962 150.373 171.314 155.608 167.513Z" fill="white"/>
</svg>
