<svg width="47" height="40" viewBox="0 0 47 40" fill="none" xmlns="http://www.w3.org/2000/svg">
<path d="M23.5007 18.3828C18.6001 18.3828 13.795 19.7324 9.6047 22.2864L8.87891 22.7288V31.6224C8.87891 32.8365 9.52345 33.9584 10.5697 34.5655L19.5875 39.798V34.4863C15.9178 32.9235 13.4382 29.2387 13.4382 25.1682C13.4382 24.3537 14.0953 23.6934 14.9057 23.6934C15.7161 23.6934 16.3731 24.3536 16.3731 25.1682C16.3731 28.3192 18.4695 31.1438 21.4713 32.0367C22.0946 32.2222 22.5222 32.7975 22.5222 33.4509V40.0004H24.4788V33.4509C24.4788 32.7976 24.9064 32.2222 25.5297 32.0367C28.5315 31.1438 30.628 28.3193 30.628 25.1682C30.628 24.3537 31.285 23.6934 32.0954 23.6934C32.9058 23.6934 33.5629 24.3536 33.5629 25.1682C33.5629 29.2387 31.0834 32.9235 27.4137 34.4863V39.798L36.4314 34.5656C37.4777 33.9585 38.1221 32.8366 38.1221 31.6225V22.7288L37.3963 22.2865C33.206 19.7324 28.4009 18.3828 23.5007 18.3828ZM23.5005 28.7497C22.0468 28.7497 20.8684 27.5654 20.8684 26.1044C20.8684 24.6435 22.0468 23.4591 23.5005 23.4591C24.9541 23.4591 26.1325 24.6435 26.1325 26.1044C26.1325 27.5654 24.9541 28.7497 23.5005 28.7497Z" fill="#FF723A"/>
<path d="M23.5 0L0 9.53513L8.8785 13.1375V21.0829C13.3716 18.3447 18.4359 16.9756 23.5 16.9756C28.5643 16.9756 33.6285 18.3447 38.1216 21.0829V13.1376L47 9.53523L23.5 0ZM37.4901 10.8653L37.2482 10.9635L35.7886 11.5557V13.1376V17.2258C31.9287 15.5201 27.7458 14.6308 23.5 14.6308C19.2542 14.6308 15.0713 15.5201 11.2114 17.2258V13.1375V11.5557L9.75176 10.9635L9.50987 10.8653L6.23186 9.53523L23.5 2.52862L40.7682 9.53523L37.4901 10.8653Z" fill="#FF723A"/>
</svg>
