<svg width="168" height="43" viewBox="0 0 168 43" fill="none" xmlns="http://www.w3.org/2000/svg">
<path d="M23.5007 19.4375C18.6001 19.4375 13.795 20.7871 9.6047 23.3411L8.87891 23.7835V32.6771C8.87891 33.8912 9.52345 35.0131 10.5697 35.6202L19.5875 40.8527V35.541C15.9178 33.9782 13.4382 30.2934 13.4382 26.2228C13.4382 25.4084 14.0953 24.748 14.9057 24.748C15.7161 24.748 16.3731 25.4083 16.3731 26.2228C16.3731 29.3739 18.4695 32.1985 21.4713 33.0914C22.0946 33.2769 22.5222 33.8522 22.5222 34.5056V41.0551H24.4788V34.5056C24.4788 33.8523 24.9064 33.2769 25.5297 33.0914C28.5315 32.1985 30.628 29.374 30.628 26.2228C30.628 25.4084 31.285 24.748 32.0954 24.748C32.9058 24.748 33.5629 25.4083 33.5629 26.2228C33.5629 30.2934 31.0834 33.9782 27.4137 35.541V40.8527L36.4314 35.6202C37.4777 35.0132 38.1221 33.8913 38.1221 32.6772V23.7835L37.3963 23.3412C33.206 20.7871 28.4009 19.4375 23.5007 19.4375ZM23.5005 29.8044C22.0468 29.8044 20.8684 28.6201 20.8684 27.1591C20.8684 25.6982 22.0468 24.5138 23.5005 24.5138C24.9541 24.5138 26.1325 25.6982 26.1325 27.1591C26.1325 28.6201 24.9541 29.8044 23.5005 29.8044Z" fill="#543EE8"/>
<path d="M23.5 1.05469L0 10.5898L8.8785 14.1922V22.1376C13.3716 19.3994 18.4359 18.0302 23.5 18.0302C28.5643 18.0302 33.6285 19.3994 38.1216 22.1376V14.1923L47 10.5899L23.5 1.05469ZM37.4901 11.92L37.2482 12.0181L35.7886 12.6104V14.1923V18.2805C31.9287 16.5748 27.7458 15.6855 23.5 15.6855C19.2542 15.6855 15.0713 16.5748 11.2114 18.2805V14.1922V12.6104L9.75176 12.0181L9.50987 11.92L6.23186 10.5899L23.5 3.58331L40.7682 10.5899L37.4901 11.92Z" fill="#543EE8"/>
<path d="M57.28 32.0547V11.0547H60.73V32.0547H57.28ZM59.65 32.0547V28.9047H71.41V32.0547H59.65ZM59.65 22.8447V19.8147H70.39V22.8447H59.65ZM59.65 14.2047V11.0547H71.26V14.2047H59.65ZM80.3209 32.3547C79.0209 32.3547 77.8409 32.0247 76.7809 31.3647C75.7409 30.7047 74.9109 29.8147 74.2909 28.6947C73.6909 27.5547 73.3909 26.2847 73.3909 24.8847C73.3909 23.4647 73.6909 22.1947 74.2909 21.0747C74.9109 19.9347 75.7409 19.0347 76.7809 18.3747C77.8409 17.6947 79.0209 17.3547 80.3209 17.3547C81.4209 17.3547 82.3909 17.5947 83.2309 18.0747C84.0909 18.5347 84.7709 19.1747 85.2709 19.9947C85.7709 20.8147 86.0209 21.7447 86.0209 22.7847V26.9247C86.0209 27.9647 85.7709 28.8947 85.2709 29.7147C84.7909 30.5347 84.1209 31.1847 83.2609 31.6647C82.4009 32.1247 81.4209 32.3547 80.3209 32.3547ZM80.8609 29.2347C81.6809 29.2347 82.3909 29.0547 82.9909 28.6947C83.6109 28.3147 84.0909 27.7947 84.4309 27.1347C84.7709 26.4747 84.9409 25.7147 84.9409 24.8547C84.9409 23.9947 84.7709 23.2347 84.4309 22.5747C84.0909 21.9147 83.6109 21.4047 82.9909 21.0447C82.3909 20.6647 81.6809 20.4747 80.8609 20.4747C80.0609 20.4747 79.3509 20.6647 78.7309 21.0447C78.1309 21.4047 77.6509 21.9147 77.2909 22.5747C76.9509 23.2347 76.7809 23.9947 76.7809 24.8547C76.7809 25.7147 76.9509 26.4747 77.2909 27.1347C77.6509 27.7947 78.1309 28.3147 78.7309 28.6947C79.3509 29.0547 80.0609 29.2347 80.8609 29.2347ZM88.0309 32.0547H84.7309V28.1847L85.3009 24.6747L84.7309 21.1947V10.4547H88.0309V32.0547ZM97.6033 32.3547C96.3833 32.3547 95.2933 32.0847 94.3333 31.5447C93.3933 31.0047 92.6533 30.2647 92.1133 29.3247C91.5933 28.3647 91.3333 27.2647 91.3333 26.0247V17.6547H94.6333V25.8747C94.6333 26.5747 94.7433 27.1747 94.9633 27.6747C95.2033 28.1547 95.5433 28.5247 95.9833 28.7847C96.4433 29.0447 96.9833 29.1747 97.6033 29.1747C98.5633 29.1747 99.2933 28.8947 99.7933 28.3347C100.313 27.7547 100.573 26.9347 100.573 25.8747V17.6547H103.873V26.0247C103.873 27.2847 103.603 28.3947 103.063 29.3547C102.543 30.2947 101.813 31.0347 100.873 31.5747C99.9333 32.0947 98.8433 32.3547 97.6033 32.3547ZM110.011 24.1347V21.1347H115.261C115.981 21.1347 116.611 20.9947 117.151 20.7147C117.711 20.4147 118.151 20.0047 118.471 19.4847C118.791 18.9447 118.951 18.3147 118.951 17.5947C118.951 16.8747 118.791 16.2547 118.471 15.7347C118.151 15.1947 117.711 14.7847 117.151 14.5047C116.611 14.2047 115.981 14.0547 115.261 14.0547H110.011V11.0547H115.441C116.761 11.0547 117.941 11.3247 118.981 11.8647C120.041 12.4047 120.871 13.1647 121.471 14.1447C122.091 15.1247 122.401 16.2747 122.401 17.5947C122.401 18.9147 122.091 20.0647 121.471 21.0447C120.871 22.0247 120.041 22.7847 118.981 23.3247C117.941 23.8647 116.761 24.1347 115.441 24.1347H110.011ZM107.641 32.0547V11.0547H111.091V32.0547H107.641ZM130.594 32.3547C129.294 32.3547 128.114 32.0247 127.054 31.3647C126.014 30.7047 125.184 29.8147 124.564 28.6947C123.964 27.5547 123.664 26.2847 123.664 24.8847C123.664 23.4647 123.964 22.1947 124.564 21.0747C125.184 19.9347 126.014 19.0347 127.054 18.3747C128.114 17.6947 129.294 17.3547 130.594 17.3547C131.694 17.3547 132.664 17.5947 133.504 18.0747C134.364 18.5347 135.044 19.1747 135.544 19.9947C136.044 20.8147 136.294 21.7447 136.294 22.7847V26.9247C136.294 27.9647 136.044 28.8947 135.544 29.7147C135.064 30.5347 134.394 31.1847 133.534 31.6647C132.674 32.1247 131.694 32.3547 130.594 32.3547ZM131.134 29.2347C132.354 29.2347 133.334 28.8247 134.074 28.0047C134.834 27.1847 135.214 26.1347 135.214 24.8547C135.214 23.9947 135.044 23.2347 134.704 22.5747C134.364 21.9147 133.884 21.4047 133.264 21.0447C132.664 20.6647 131.954 20.4747 131.134 20.4747C130.334 20.4747 129.624 20.6647 129.004 21.0447C128.404 21.4047 127.924 21.9147 127.564 22.5747C127.224 23.2347 127.054 23.9947 127.054 24.8547C127.054 25.7147 127.224 26.4747 127.564 27.1347C127.924 27.7947 128.404 28.3147 129.004 28.6947C129.624 29.0547 130.334 29.2347 131.134 29.2347ZM135.004 32.0547V28.1847L135.574 24.6747L135.004 21.1947V17.6547H138.304V32.0547H135.004ZM144.157 32.0547V11.6547H147.457V32.0547H144.157ZM140.707 20.6547V17.6547H150.907V20.6547H140.707ZM163.175 32.0547V23.7447C163.175 22.7847 162.865 21.9947 162.245 21.3747C161.645 20.7547 160.865 20.4447 159.905 20.4447C159.265 20.4447 158.695 20.5847 158.195 20.8647C157.695 21.1447 157.305 21.5347 157.025 22.0347C156.745 22.5347 156.605 23.1047 156.605 23.7447L155.315 23.0247C155.315 21.9247 155.555 20.9547 156.035 20.1147C156.515 19.2547 157.175 18.5847 158.015 18.1047C158.875 17.6047 159.835 17.3547 160.895 17.3547C161.975 17.3547 162.935 17.5947 163.775 18.0747C164.615 18.5547 165.275 19.2247 165.755 20.0847C166.235 20.9247 166.475 21.9047 166.475 23.0247V32.0547H163.175ZM153.305 32.0547V10.4547H156.605V32.0547H153.305Z" fill="white"/>
</svg>
