<svg width="168" height="42" viewBox="0 0 168 42" fill="none" xmlns="http://www.w3.org/2000/svg">
<path d="M23.5007 19.3828C18.6001 19.3828 13.795 20.7324 9.6047 23.2864L8.87891 23.7288V32.6224C8.87891 33.8365 9.52345 34.9584 10.5697 35.5655L19.5875 40.798V35.4863C15.9178 33.9235 13.4382 30.2387 13.4382 26.1682C13.4382 25.3537 14.0953 24.6934 14.9057 24.6934C15.7161 24.6934 16.3731 25.3536 16.3731 26.1682C16.3731 29.3192 18.4695 32.1438 21.4713 33.0367C22.0946 33.2222 22.5222 33.7975 22.5222 34.4509V41.0004H24.4788V34.4509C24.4788 33.7976 24.9064 33.2222 25.5297 33.0367C28.5315 32.1438 30.628 29.3193 30.628 26.1682C30.628 25.3537 31.285 24.6934 32.0954 24.6934C32.9058 24.6934 33.5629 25.3536 33.5629 26.1682C33.5629 30.2387 31.0834 33.9235 27.4137 35.4863V40.798L36.4314 35.5656C37.4777 34.9585 38.1221 33.8366 38.1221 32.6225V23.7288L37.3963 23.2865C33.206 20.7324 28.4009 19.3828 23.5007 19.3828ZM23.5005 29.7497C22.0468 29.7497 20.8684 28.5654 20.8684 27.1044C20.8684 25.6435 22.0468 24.4591 23.5005 24.4591C24.9541 24.4591 26.1325 25.6435 26.1325 27.1044C26.1325 28.5654 24.9541 29.7497 23.5005 29.7497Z" fill="#006BFF"/>
<path d="M23.5 1L0 10.5351L8.8785 14.1375V22.0829C13.3716 19.3447 18.4359 17.9756 23.5 17.9756C28.5643 17.9756 33.6285 19.3447 38.1216 22.0829V14.1376L47 10.5352L23.5 1ZM37.4901 11.8653L37.2482 11.9635L35.7886 12.5557V14.1376V18.2258C31.9287 16.5201 27.7458 15.6308 23.5 15.6308C19.2541 15.6308 15.0713 16.5201 11.2114 18.2258V14.1375V12.5557L9.75176 11.9635L9.50987 11.8653L6.23186 10.5352L23.5 3.52862L40.7682 10.5352L37.4901 11.8653Z" fill="#006BFF"/>
<path d="M57.28 32V11H60.73V32H57.28ZM59.65 32V28.85H71.41V32H59.65ZM59.65 22.79V19.76H70.39V22.79H59.65ZM59.65 14.15V11H71.26V14.15H59.65ZM80.3209 32.3C79.0209 32.3 77.8409 31.97 76.7809 31.31C75.7409 30.65 74.9109 29.76 74.2909 28.64C73.6909 27.5 73.3909 26.23 73.3909 24.83C73.3909 23.41 73.6909 22.14 74.2909 21.02C74.9109 19.88 75.7409 18.98 76.7809 18.32C77.8409 17.64 79.0209 17.3 80.3209 17.3C81.4209 17.3 82.3909 17.54 83.2309 18.02C84.0909 18.48 84.7709 19.12 85.2709 19.94C85.7709 20.76 86.0209 21.69 86.0209 22.73V26.87C86.0209 27.91 85.7709 28.84 85.2709 29.66C84.7909 30.48 84.1209 31.13 83.2609 31.61C82.4009 32.07 81.4209 32.3 80.3209 32.3ZM80.8609 29.18C81.6809 29.18 82.3909 29 82.9909 28.64C83.6109 28.26 84.0909 27.74 84.4309 27.08C84.7709 26.42 84.9409 25.66 84.9409 24.8C84.9409 23.94 84.7709 23.18 84.4309 22.52C84.0909 21.86 83.6109 21.35 82.9909 20.99C82.3909 20.61 81.6809 20.42 80.8609 20.42C80.0609 20.42 79.3509 20.61 78.7309 20.99C78.1309 21.35 77.6509 21.86 77.2909 22.52C76.9509 23.18 76.7809 23.94 76.7809 24.8C76.7809 25.66 76.9509 26.42 77.2909 27.08C77.6509 27.74 78.1309 28.26 78.7309 28.64C79.3509 29 80.0609 29.18 80.8609 29.18ZM88.0309 32H84.7309V28.13L85.3009 24.62L84.7309 21.14V10.4H88.0309V32ZM97.6033 32.3C96.3833 32.3 95.2933 32.03 94.3333 31.49C93.3933 30.95 92.6533 30.21 92.1133 29.27C91.5933 28.31 91.3333 27.21 91.3333 25.97V17.6H94.6333V25.82C94.6333 26.52 94.7433 27.12 94.9633 27.62C95.2033 28.1 95.5433 28.47 95.9833 28.73C96.4433 28.99 96.9833 29.12 97.6033 29.12C98.5633 29.12 99.2933 28.84 99.7933 28.28C100.313 27.7 100.573 26.88 100.573 25.82V17.6H103.873V25.97C103.873 27.23 103.603 28.34 103.063 29.3C102.543 30.24 101.813 30.98 100.873 31.52C99.9333 32.04 98.8433 32.3 97.6033 32.3ZM110.011 24.08V21.08H115.261C115.981 21.08 116.611 20.94 117.151 20.66C117.711 20.36 118.151 19.95 118.471 19.43C118.791 18.89 118.951 18.26 118.951 17.54C118.951 16.82 118.791 16.2 118.471 15.68C118.151 15.14 117.711 14.73 117.151 14.45C116.611 14.15 115.981 14 115.261 14H110.011V11H115.441C116.761 11 117.941 11.27 118.981 11.81C120.041 12.35 120.871 13.11 121.471 14.09C122.091 15.07 122.401 16.22 122.401 17.54C122.401 18.86 122.091 20.01 121.471 20.99C120.871 21.97 120.041 22.73 118.981 23.27C117.941 23.81 116.761 24.08 115.441 24.08H110.011ZM107.641 32V11H111.091V32H107.641ZM130.594 32.3C129.294 32.3 128.114 31.97 127.054 31.31C126.014 30.65 125.184 29.76 124.564 28.64C123.964 27.5 123.664 26.23 123.664 24.83C123.664 23.41 123.964 22.14 124.564 21.02C125.184 19.88 126.014 18.98 127.054 18.32C128.114 17.64 129.294 17.3 130.594 17.3C131.694 17.3 132.664 17.54 133.504 18.02C134.364 18.48 135.044 19.12 135.544 19.94C136.044 20.76 136.294 21.69 136.294 22.73V26.87C136.294 27.91 136.044 28.84 135.544 29.66C135.064 30.48 134.394 31.13 133.534 31.61C132.674 32.07 131.694 32.3 130.594 32.3ZM131.134 29.18C132.354 29.18 133.334 28.77 134.074 27.95C134.834 27.13 135.214 26.08 135.214 24.8C135.214 23.94 135.044 23.18 134.704 22.52C134.364 21.86 133.884 21.35 133.264 20.99C132.664 20.61 131.954 20.42 131.134 20.42C130.334 20.42 129.624 20.61 129.004 20.99C128.404 21.35 127.924 21.86 127.564 22.52C127.224 23.18 127.054 23.94 127.054 24.8C127.054 25.66 127.224 26.42 127.564 27.08C127.924 27.74 128.404 28.26 129.004 28.64C129.624 29 130.334 29.18 131.134 29.18ZM135.004 32V28.13L135.574 24.62L135.004 21.14V17.6H138.304V32H135.004ZM144.157 32V11.6H147.457V32H144.157ZM140.707 20.6V17.6H150.907V20.6H140.707ZM163.175 32V23.69C163.175 22.73 162.865 21.94 162.245 21.32C161.645 20.7 160.865 20.39 159.905 20.39C159.265 20.39 158.695 20.53 158.195 20.81C157.695 21.09 157.305 21.48 157.025 21.98C156.745 22.48 156.605 23.05 156.605 23.69L155.315 22.97C155.315 21.87 155.555 20.9 156.035 20.06C156.515 19.2 157.175 18.53 158.015 18.05C158.875 17.55 159.835 17.3 160.895 17.3C161.975 17.3 162.935 17.54 163.775 18.02C164.615 18.5 165.275 19.17 165.755 20.03C166.235 20.87 166.475 21.85 166.475 22.97V32H163.175ZM153.305 32V10.4H156.605V32H153.305Z" fill="#1F1C35"/>
</svg>
