<svg width="146" height="111" viewBox="0 0 146 111" fill="none" xmlns="http://www.w3.org/2000/svg">
<g opacity="0.2">
<path d="M96.9355 10.3721C96.6355 10.3721 96.3355 10.2721 96.1355 9.97209C95.7355 9.57209 95.8355 8.87209 96.2355 8.57209C96.7355 8.17209 97.3355 7.67209 97.8355 7.27209C98.2355 6.97209 98.9355 7.07209 99.2355 7.47209C99.5355 7.87209 99.4355 8.57209 99.0355 8.87209C98.5355 9.27209 98.0355 9.67209 97.5355 10.0721C97.4355 10.3721 97.2355 10.3721 96.9355 10.3721Z" fill="#FD2121"/>
<path d="M51.3355 110.473C50.8355 110.473 50.3355 110.073 50.3355 109.573C50.3355 108.973 50.7355 108.573 51.2355 108.473C51.7355 108.473 52.3355 108.373 52.8355 108.273C53.5355 108.173 54.3355 108.073 55.0355 107.873C55.5355 107.773 56.1355 108.073 56.2355 108.673C56.3355 109.173 56.0355 109.773 55.4355 109.873C54.6355 110.073 53.8355 110.173 53.1355 110.273C52.5355 110.373 51.9355 110.473 51.3355 110.473ZM47.3355 110.473C47.2355 110.473 47.2355 110.473 47.3355 110.473C45.9355 110.373 44.5355 110.173 43.1355 109.873C42.6355 109.773 42.2355 109.173 42.3355 108.673C42.4355 108.173 43.0355 107.773 43.5355 107.873C44.8355 108.173 46.0355 108.373 47.3355 108.473C47.9355 108.473 48.3355 108.973 48.2355 109.573C48.2355 110.073 47.8355 110.473 47.3355 110.473ZM59.0355 108.873C58.6355 108.873 58.2355 108.573 58.1355 108.173C57.9355 107.673 58.2355 107.073 58.7355 106.873C59.9355 106.473 61.1355 105.973 62.3355 105.373C62.8355 105.173 63.4355 105.373 63.6355 105.873C63.8355 106.373 63.6355 106.973 63.1355 107.173C61.8355 107.773 60.6355 108.273 59.3355 108.673C59.3355 108.773 59.1355 108.873 59.0355 108.873ZM39.5355 108.673C39.4355 108.673 39.3355 108.673 39.2355 108.573C37.9355 108.073 36.7355 107.573 35.4355 106.973C34.9355 106.773 34.7355 106.073 35.0355 105.673C35.2355 105.173 35.9355 104.973 36.3355 105.273C37.5355 105.873 38.7355 106.373 39.9355 106.773C40.4355 106.973 40.7355 107.573 40.5355 108.073C40.3355 108.473 39.9355 108.673 39.5355 108.673ZM66.3355 105.473C66.0355 105.473 65.6355 105.273 65.4355 104.973C65.1355 104.473 65.3355 103.873 65.8355 103.573C66.9355 102.973 68.0355 102.273 69.1355 101.473C69.6355 101.173 70.2355 101.273 70.5355 101.773C70.8355 102.273 70.7355 102.873 70.2355 103.173C69.0355 103.973 67.9355 104.673 66.8355 105.373C66.6355 105.473 66.4355 105.473 66.3355 105.473ZM72.9355 101.073C72.6355 101.073 72.3355 100.973 72.1355 100.673C71.8355 100.273 71.8355 99.5734 72.3355 99.2734C73.4355 98.4734 74.4355 97.5734 75.3355 96.7734C75.7355 96.3734 76.4355 96.4734 76.7355 96.8734C77.1355 97.2734 77.0355 97.9734 76.6355 98.2734C75.6355 99.1734 74.6355 99.9734 73.5355 100.873C73.3355 100.973 73.1355 101.073 72.9355 101.073ZM78.8355 95.7734C78.5355 95.7734 78.3355 95.6734 78.1355 95.4734C77.7355 95.0734 77.7355 94.4734 78.1355 94.0734C79.0355 93.0734 79.9355 92.1734 80.7355 91.1734C81.0355 90.7734 81.7355 90.6734 82.1355 90.9734C82.5355 91.2734 82.6355 91.9734 82.3355 92.3734C81.5355 93.3734 80.6355 94.4734 79.6355 95.4734C79.4355 95.6734 79.1355 95.7734 78.8355 95.7734ZM83.8355 89.4734C83.6355 89.4734 83.4355 89.4734 83.3355 89.2734C82.8355 88.9734 82.7355 88.3734 83.0355 87.8734C83.6355 86.8734 84.2355 85.8734 84.7355 84.8734L84.9355 84.4734C85.1355 83.9734 85.7355 83.7734 86.2355 83.9734C86.7355 84.1734 86.9355 84.7734 86.7355 85.2734L86.5355 85.6734C86.0355 86.7734 85.4355 87.7734 84.7355 88.8734C84.4355 89.3734 84.1355 89.4734 83.8355 89.4734ZM87.1355 82.2734C87.0355 82.2734 86.9355 82.2734 86.8355 82.2734C86.3355 82.0734 86.0355 81.5734 86.1355 80.9734C86.4355 79.9734 86.7355 78.8734 86.9355 77.7734C86.3355 77.6734 85.7355 77.6734 85.0355 77.4734C84.5355 77.3734 84.1355 76.8734 84.2355 76.2734C84.3355 75.7734 84.8355 75.3734 85.4355 75.4734C86.4355 75.6734 87.4355 75.7734 88.2355 75.7734C88.5355 75.7734 88.9355 75.7734 89.3355 75.7734C89.9355 75.7734 90.3355 76.2734 90.3355 76.8734C90.3355 77.4734 89.8355 77.8734 89.2355 77.8734C89.1355 77.8734 89.1355 77.8734 89.0355 77.8734C88.8355 79.0734 88.5355 80.3734 88.1355 81.5734C87.9355 81.9734 87.5355 82.2734 87.1355 82.2734ZM95.7355 78.1734C94.8355 78.1734 93.9355 78.1734 93.1355 78.1734C92.5355 78.1734 92.1355 77.6734 92.1355 77.1734C92.1355 76.5734 92.6355 76.1734 93.1355 76.1734C93.9355 76.1734 94.7355 76.1734 95.6355 76.1734C96.1355 76.1734 96.5355 76.1734 97.0355 76.1734C97.5355 76.1734 98.0355 76.5734 98.0355 77.1734C98.0355 77.7734 97.6355 78.1734 97.0355 78.1734C96.7355 78.1734 96.2355 78.1734 95.7355 78.1734ZM101.135 77.9734C100.635 77.9734 100.135 77.5734 100.135 77.0734C100.135 76.4734 100.535 76.0734 101.035 75.9734C102.335 75.8734 103.635 75.6734 104.936 75.4734C105.535 75.3734 106.035 75.7734 106.035 76.2734C106.135 76.7734 105.735 77.3734 105.235 77.3734C103.935 77.6734 102.635 77.7734 101.135 77.9734C101.235 77.9734 101.235 77.9734 101.135 77.9734ZM109.035 76.6734C108.535 76.6734 108.135 76.3734 108.035 75.8734C107.935 75.3734 108.235 74.7734 108.735 74.6734C110.035 74.3734 111.235 73.9734 112.535 73.6734C113.035 73.4734 113.635 73.7734 113.835 74.2734C114.035 74.7734 113.735 75.3734 113.235 75.5734C111.935 75.9734 110.635 76.3734 109.335 76.6734C109.235 76.6734 109.135 76.6734 109.035 76.6734ZM81.3355 76.6734C81.2355 76.6734 81.1355 76.6734 81.0355 76.6734C79.7355 76.2734 78.4355 75.7734 77.2355 75.2734C76.7355 75.0734 76.4355 74.4734 76.7355 73.9734C76.9355 73.4734 77.5355 73.1734 78.0355 73.4734C79.2355 73.9734 80.4355 74.3734 81.6355 74.7734C82.1355 74.9734 82.4355 75.4734 82.3355 76.0734C82.2355 76.3734 81.8355 76.6734 81.3355 76.6734ZM88.3355 74.4734C87.7355 74.4734 87.3355 73.9734 87.3355 73.4734V73.3734C87.3355 72.1734 87.2355 70.8734 87.0355 69.7734C86.9355 69.2734 87.3355 68.6734 87.8355 68.5734C88.4355 68.4734 88.9355 68.8734 89.0355 69.3734C89.2355 70.6734 89.3355 71.9734 89.3355 73.3734V73.5734C89.3355 73.9734 88.9355 74.4734 88.3355 74.4734ZM116.635 74.2734C116.235 74.2734 115.835 74.0734 115.735 73.6734C115.535 73.1734 115.735 72.5734 116.235 72.3734C117.435 71.8734 118.635 71.2734 119.735 70.6734C120.235 70.3734 120.835 70.5734 121.135 71.0734C121.435 71.5734 121.235 72.1734 120.735 72.4734C119.535 73.0734 118.335 73.6734 117.035 74.2734C116.835 74.1734 116.735 74.2734 116.635 74.2734ZM74.0355 73.4734C73.8355 73.4734 73.6355 73.3734 73.4355 73.2734C72.2355 72.4734 71.2355 71.4734 70.3355 70.1734C70.0355 69.6734 70.1355 69.0734 70.6355 68.7734C71.1355 68.4734 71.7355 68.5734 72.0355 69.0734C72.7355 70.0734 73.6355 70.9734 74.5355 71.5734C75.0355 71.8734 75.1355 72.4734 74.8355 72.9734C74.7355 73.2734 74.4355 73.4734 74.0355 73.4734ZM123.635 70.4734C123.335 70.4734 123.035 70.2734 122.835 70.0734C122.535 69.5734 122.635 68.9734 123.135 68.6734C124.235 67.9734 125.235 67.1734 126.235 66.3734C126.635 65.9734 127.335 66.0734 127.635 66.4734C128.035 66.8734 127.935 67.5734 127.535 67.8734C126.535 68.7734 125.435 69.5734 124.235 70.2734C124.035 70.3734 123.835 70.4734 123.635 70.4734ZM69.6355 67.0734C69.1355 67.0734 68.7355 66.7734 68.6355 66.2734C68.4355 65.5734 68.4355 64.8734 68.4355 64.1734C68.4355 63.3734 68.5355 62.5734 68.7355 61.8734C68.9355 61.3734 69.4355 61.0734 69.9355 61.1734C70.4355 61.3734 70.7355 61.8734 70.6355 62.3734C70.4355 62.9734 70.4355 63.5734 70.4355 64.1734C70.4355 64.6734 70.5355 65.2734 70.6355 65.8734C70.7355 66.3734 70.4355 66.9734 69.8355 67.0734C69.7355 67.0734 69.7355 67.0734 69.6355 67.0734ZM87.0355 66.5734C86.6355 66.5734 86.2355 66.2734 86.1355 65.8734C86.0355 65.4734 85.8355 65.0734 85.6355 64.6734C85.3355 63.8734 84.9355 63.1734 84.4355 62.4734C84.1355 61.9734 84.2355 61.3734 84.7355 61.0734C85.2355 60.7734 85.8355 60.8734 86.1355 61.3734C86.6355 62.1734 87.1355 62.9734 87.4355 63.7734C87.6355 64.1734 87.8355 64.6734 87.9355 65.0734C88.1355 65.5734 87.8355 66.1734 87.3355 66.3734C87.2355 66.5734 87.1355 66.5734 87.0355 66.5734ZM129.735 65.3734C129.435 65.3734 129.235 65.2734 129.035 65.0734C128.635 64.6734 128.635 64.0734 129.035 63.6734C129.935 62.7734 130.835 61.7734 131.635 60.7734C132.035 60.3734 132.635 60.2734 133.035 60.6734C133.435 61.0734 133.535 61.6734 133.135 62.0734C132.235 63.0734 131.335 64.1734 130.335 65.0734C130.235 65.2734 130.035 65.3734 129.735 65.3734ZM82.6355 60.0734C82.4355 60.0734 82.1355 59.9734 82.0355 59.8734C81.0355 59.0734 80.0355 58.4734 78.9355 58.0734C78.4355 57.8734 78.1355 57.3734 78.2355 56.7734C78.4355 56.2734 78.9355 55.9734 79.5355 56.0734C80.8355 56.4734 82.1355 57.1734 83.3355 58.1734C83.7355 58.5734 83.8355 59.1734 83.4355 59.5734C83.2355 59.9734 82.9355 60.0734 82.6355 60.0734ZM71.7355 59.7734C71.4355 59.7734 71.2355 59.6734 71.0355 59.4734C70.6355 59.0734 70.7355 58.4734 71.1355 58.0734C72.2355 57.0734 73.6355 56.3734 75.1355 55.9734C75.6355 55.8734 76.2355 56.1734 76.3355 56.7734C76.4355 57.2734 76.1355 57.8734 75.5355 57.9734C74.4355 58.2734 73.3355 58.7734 72.4355 59.5734C72.2355 59.6734 72.0355 59.7734 71.7355 59.7734ZM134.835 59.2734C134.635 59.2734 134.435 59.1734 134.235 59.0734C133.735 58.7734 133.635 58.1734 134.035 57.6734C134.735 56.6734 135.535 55.5734 136.135 54.3734C136.435 53.8734 137.035 53.7734 137.535 54.0734C138.035 54.3734 138.135 54.9734 137.835 55.4734C137.135 56.6734 136.435 57.7734 135.635 58.8734C135.535 59.1734 135.135 59.2734 134.835 59.2734ZM138.936 52.4734C138.736 52.4734 138.635 52.4734 138.436 52.3734C137.936 52.0734 137.735 51.4734 138.035 50.9734C138.635 49.8734 139.135 48.6734 139.735 47.3734C139.935 46.8734 140.535 46.6734 141.035 46.8734C141.535 47.0734 141.735 47.6734 141.535 48.1734C141.035 49.4734 140.435 50.6734 139.835 51.8734C139.635 52.2734 139.336 52.4734 138.936 52.4734ZM142.135 45.1734C142.035 45.1734 141.935 45.1734 141.835 45.0734C141.335 44.8734 141.035 44.2734 141.235 43.7734C141.635 42.5734 142.035 41.2734 142.436 40.0734C142.535 39.5734 143.135 39.1734 143.635 39.3734C144.135 39.4734 144.535 40.0734 144.335 40.5734C143.935 41.8734 143.535 43.1734 143.135 44.4734C142.935 44.8734 142.535 45.1734 142.135 45.1734ZM144.135 37.4734C144.035 37.4734 144.035 37.4734 143.936 37.4734C143.436 37.3734 143.035 36.8734 143.135 36.2734C143.335 34.9734 143.535 33.6734 143.635 32.3734C143.735 31.7734 144.135 31.3734 144.735 31.4734C145.335 31.5734 145.735 31.9734 145.635 32.5734C145.535 33.8734 145.335 35.2734 145.035 36.5734C145.035 37.0734 144.635 37.4734 144.135 37.4734ZM144.936 29.4734C144.336 29.4734 143.936 29.0734 143.936 28.4734V28.2734C143.936 26.9734 143.835 25.7734 143.735 24.5734C143.635 23.9734 144.135 23.5734 144.635 23.4734C145.235 23.4734 145.635 23.8734 145.735 24.3734C145.835 25.6734 145.936 26.9734 145.936 28.2734V28.4734C145.936 29.0734 145.436 29.4734 144.936 29.4734ZM144.235 21.5734C143.735 21.5734 143.335 21.2734 143.235 20.7734C142.935 19.5734 142.635 18.2734 142.135 17.1734C141.935 16.6734 142.135 16.0734 142.635 15.8734C143.135 15.6734 143.736 15.8734 143.936 16.3734C144.436 17.6734 144.835 18.9734 145.135 20.3734C145.235 20.8734 144.935 21.4734 144.335 21.5734H144.235ZM141.135 14.2734C140.835 14.2734 140.535 14.0734 140.335 13.7734C139.635 12.7734 138.836 11.6734 137.936 10.7734C137.535 10.3734 137.535 9.77344 137.936 9.37344C138.336 8.97344 138.935 8.97344 139.335 9.37344C140.335 10.3734 141.135 11.4734 141.936 12.6734C142.236 13.1734 142.135 13.7734 141.635 14.0734C141.535 14.1734 141.335 14.2734 141.135 14.2734ZM135.735 8.47344C135.535 8.47344 135.335 8.37344 135.135 8.27344C134.135 7.47344 133.035 6.77344 131.936 6.17344C131.436 5.87344 131.235 5.27344 131.535 4.77344C131.835 4.27344 132.436 4.07344 132.936 4.37344C134.135 5.07344 135.335 5.77344 136.335 6.67344C136.735 6.97344 136.835 7.67344 136.535 8.07344C136.335 8.27344 136.035 8.47344 135.735 8.47344ZM101.835 6.97344C101.535 6.97344 101.135 6.77344 100.936 6.47344C100.635 5.97344 100.835 5.37344 101.335 5.07344C102.535 4.37344 103.735 3.77344 105.035 3.27344C105.535 3.07344 106.135 3.27344 106.335 3.77344C106.535 4.27344 106.335 4.87344 105.835 5.07344C104.635 5.57344 103.535 6.17344 102.335 6.77344C102.235 6.87344 102.035 6.97344 101.835 6.97344ZM128.835 4.57344C128.735 4.57344 128.635 4.57344 128.436 4.47344C127.236 3.97344 126.035 3.67344 124.735 3.37344C124.235 3.27344 123.836 2.67344 123.936 2.17344C124.035 1.67344 124.635 1.27344 125.135 1.37344C126.435 1.67344 127.835 2.07344 129.135 2.57344C129.635 2.77344 129.935 3.37344 129.735 3.87344C129.635 4.37344 129.235 4.57344 128.835 4.57344ZM109.235 3.87344C108.835 3.87344 108.435 3.57344 108.235 3.17344C108.135 2.67344 108.436 2.07344 108.936 1.97344C110.236 1.57344 111.635 1.27344 112.936 1.07344C113.436 0.973437 114.035 1.37344 114.035 1.87344C114.135 2.37344 113.735 2.97344 113.235 2.97344C111.935 3.17344 110.736 3.47344 109.436 3.77344C109.336 3.87344 109.335 3.87344 109.235 3.87344ZM121.035 2.87344C119.635 2.77344 118.335 2.67344 117.035 2.77344C116.535 2.77344 116.035 2.37344 116.035 1.77344C116.035 1.17344 116.435 0.773438 117.035 0.773438C118.335 0.773438 119.735 0.773438 121.135 0.873438C121.735 0.873438 122.135 1.37344 122.035 1.97344C122.035 2.47344 121.535 2.87344 121.035 2.87344Z" fill="#FD2121"/>
<path d="M32.3346 105.073C32.1346 105.073 31.9346 104.973 31.7346 104.873C31.1346 104.473 30.6346 104.073 30.0346 103.673C29.6346 103.373 29.5346 102.673 29.8346 102.273C30.1346 101.873 30.8346 101.773 31.2346 102.073C31.7346 102.473 32.3346 102.873 32.8346 103.173C33.3346 103.473 33.4346 104.073 33.1346 104.573C32.9346 104.873 32.6346 105.073 32.3346 105.073Z" fill="#FD2121"/>
<path d="M2.4347 41.6711C1.7347 41.6711 1.13467 41.1711 1.03467 40.5711C0.834674 39.8711 1.33467 39.0711 2.03467 38.8711L87.0347 14.0711C87.3347 13.9711 87.6347 13.9711 87.9347 14.0711L111.435 23.4711C112.035 23.6711 112.435 24.3711 112.335 24.9711C112.235 25.5711 111.735 26.1711 111.135 26.1711L2.63468 41.5711C2.53468 41.6711 2.5347 41.6711 2.4347 41.6711ZM87.3347 16.8711L22.0347 35.8711L105.335 24.0711L87.3347 16.8711Z" fill="#FD2121"/>
<path d="M1.43502 41.1715C0.935017 41.1715 0.434999 40.8715 0.134999 40.3715C-0.165001 39.6715 0.0350048 38.8715 0.735005 38.4715L60.535 3.27152C60.935 3.07152 61.435 2.97152 61.835 3.17152L74.535 9.07152C75.035 9.27152 75.335 9.87152 75.335 10.3715C75.335 10.9715 74.935 11.4715 74.435 11.6715L1.83501 40.9715C1.73501 41.1715 1.63502 41.1715 1.43502 41.1715ZM61.335 6.17152L18.735 31.2715L70.435 10.3715L61.335 6.17152Z" fill="#FD2121"/>
<path d="M87.5344 46.1731L3.13437 41.6731C2.33437 41.6731 1.73438 40.9731 1.73438 40.1731C1.73438 39.3731 2.43437 38.7731 3.23438 38.7731L86.7344 43.2731L97.6344 26.3731C98.0344 25.6731 98.9344 25.4731 99.6344 25.9731C100.334 26.3731 100.534 27.2731 100.034 27.9731L88.6344 45.5731C88.4344 45.9731 88.0344 46.1731 87.5344 46.1731Z" fill="#FD2121"/>
<path d="M72.5357 20.9713C72.4357 20.9713 72.3357 20.9713 72.3357 20.9713C71.5357 20.8713 71.0357 20.0713 71.1357 19.3713L72.6357 10.2713C72.7357 9.47127 73.5357 8.97127 74.2357 9.07127C75.0357 9.17127 75.5357 9.97127 75.4357 10.6713L73.9357 19.7713C73.8357 20.4713 73.2357 20.9713 72.5357 20.9713Z" fill="#FD2121"/>
<path d="M25.435 42.0713C25.135 42.0713 24.835 41.8713 24.735 41.5713C24.635 41.1713 24.835 40.7713 25.135 40.6713L42.235 34.4713C42.635 34.3713 43.035 34.5713 43.135 34.8713C43.235 35.2713 43.035 35.6713 42.735 35.7713L25.635 41.9713C25.535 42.0713 25.435 42.0713 25.435 42.0713Z" fill="#FD2121"/>
<path d="M36.3351 42.2714C36.0351 42.2714 35.8351 42.0714 35.6351 41.8714C35.4351 41.4714 35.6351 41.0714 36.0351 40.9714L55.8351 32.3714C56.2351 32.1714 56.6351 32.3714 56.7351 32.7714C56.9351 33.1714 56.7351 33.5714 56.3351 33.6714L36.5351 42.2714C36.4351 42.1714 36.3351 42.2714 36.3351 42.2714Z" fill="#FD2121"/>
<path d="M47.8348 42.3696C47.5348 42.3696 47.3348 42.2696 47.2348 41.9696C47.0348 41.5696 47.2348 41.1696 47.5348 40.9696L68.8348 30.3696C69.2348 30.1696 69.6348 30.3696 69.8348 30.6696C70.0348 31.0696 69.8348 31.4696 69.5348 31.6696L48.2348 42.2696C48.0348 42.3696 47.9348 42.3696 47.8348 42.3696Z" fill="#FD2121"/>
<path d="M57.4344 43.8703C57.1344 43.8703 56.9344 43.7703 56.8344 43.4703C56.6344 43.0703 56.8344 42.6703 57.1344 42.4703L82.8344 29.1704C83.2344 28.9704 83.6344 29.1703 83.8344 29.4703C84.0344 29.8703 83.8344 30.2703 83.5344 30.4703L57.8344 43.7703C57.6344 43.8703 57.5344 43.8703 57.4344 43.8703Z" fill="#FD2121"/>
<path d="M70.1356 43.6727C69.8356 43.6727 69.6356 43.5727 69.5356 43.2727C69.3356 42.8727 69.5356 42.4727 69.8356 42.2727L97.0356 28.0727C97.4356 27.8727 97.8356 28.0727 98.0356 28.3727C98.2356 28.7727 98.0356 29.1727 97.7356 29.3727L70.5356 43.5727C70.3356 43.6727 70.2356 43.6727 70.1356 43.6727Z" fill="#FD2121"/>
<path d="M79.5343 43.8714C79.2343 43.8714 79.0343 43.6714 78.8343 43.4714C78.6343 43.0714 78.8343 42.6714 79.2343 42.5714L92.2343 36.8714C92.6343 36.6714 93.0343 36.8714 93.1343 37.2714C93.3343 37.6714 93.1343 38.0714 92.7343 38.1714L79.7343 43.8714C79.7343 43.8714 79.6343 43.8714 79.5343 43.8714Z" fill="#FD2121"/>
</g>
</svg>
