<svg width="1799" height="318" viewBox="0 0 1799 318" fill="none" xmlns="http://www.w3.org/2000/svg">
<mask id="path-1-outside-1_6913_130" maskUnits="userSpaceOnUse" x="24" y="26.9336" width="1750" height="282" fill="black">
<rect fill="white" x="24" y="26.9336" width="1750" height="282"/>
<path d="M26.2694 301.934V29.195H86.9209V301.934H26.2694ZM72.6273 301.934V249.395H222.131V301.934H72.6273ZM72.6273 187.971V137.363H208.61V187.971H72.6273ZM72.6273 81.3476V29.195H220.2V81.3476H72.6273ZM304.893 301.934V248.622H372.498C388.981 248.622 403.404 245.403 415.766 238.964C428.128 232.268 437.657 222.61 444.353 209.991C451.049 197.371 454.397 182.433 454.397 165.178C454.397 147.923 450.92 133.114 443.967 120.752C437.271 108.39 427.742 98.8605 415.379 92.1644C403.275 85.4683 388.981 82.1202 372.498 82.1202H302.962V29.195H373.271C393.875 29.195 412.804 32.5431 430.059 39.2392C447.572 45.6778 462.767 55.0781 475.645 67.4402C488.779 79.5448 498.824 93.9672 505.777 110.708C512.988 127.19 516.594 145.476 516.594 165.564C516.594 185.395 512.988 203.681 505.777 220.421C498.824 237.161 488.908 251.584 476.031 263.688C463.154 275.793 447.959 285.193 430.446 291.889C413.19 298.586 394.39 301.934 374.044 301.934H304.893ZM263.944 301.934V29.195H324.595V301.934H263.944ZM664.903 306.183C642.497 306.183 622.666 301.419 605.41 291.889C588.412 282.36 575.02 269.226 565.234 252.485C555.704 235.487 550.94 216.172 550.94 194.538V29.195H611.978V198.015C611.978 208.832 614.296 218.232 618.931 226.216C623.567 234.2 629.877 240.381 637.861 244.759C646.102 248.88 655.116 250.94 664.903 250.94C675.205 250.94 684.219 248.88 691.945 244.759C699.671 240.381 705.724 234.328 710.102 226.602C714.738 218.618 717.055 209.218 717.055 198.401V29.195H778.093V194.924C778.093 216.558 773.329 235.745 763.8 252.485C754.271 269.226 741.007 282.36 724.009 291.889C707.011 301.419 687.309 306.183 664.903 306.183ZM872.798 202.651V155.52H931.518C938.987 155.52 945.812 153.975 951.993 150.884C958.174 147.794 963.067 143.287 966.673 137.363C970.278 131.44 972.081 124.229 972.081 115.73C972.081 107.488 970.278 100.406 966.673 94.4823C963.067 88.5588 958.174 84.0518 951.993 80.9612C945.812 77.8707 938.987 76.3255 931.518 76.3255H872.798V29.195H940.403C957.659 29.195 973.24 32.6718 987.147 39.6255C1001.05 46.5792 1012 56.6234 1019.98 69.7581C1028.23 82.6353 1032.35 97.9591 1032.35 115.73C1032.35 133.5 1028.23 148.953 1019.98 162.087C1012 174.965 1001.05 185.009 987.147 192.22C973.24 199.174 957.659 202.651 940.403 202.651H872.798ZM826.44 301.934V29.195H887.092V301.934H826.44ZM1027.04 301.934L1135.21 29.195H1190.07L1297.07 301.934H1232.95L1151.05 75.5528H1173.07L1090.01 301.934H1027.04ZM1088.46 252.485V203.037H1237.2V252.485H1088.46ZM1362.21 301.934V33.0581H1422.86V301.934H1362.21ZM1276.83 82.1202V29.195H1508.24V82.1202H1276.83ZM1542.1 301.934V29.195H1602.76V301.934H1542.1ZM1710.92 301.934V29.195H1771.96V301.934H1710.92ZM1578.42 187.971V135.432H1731.01V187.971H1578.42Z"/>
</mask>
<path d="M26.2694 301.934V29.195H86.9209V301.934H26.2694ZM72.6273 301.934V249.395H222.131V301.934H72.6273ZM72.6273 187.971V137.363H208.61V187.971H72.6273ZM72.6273 81.3476V29.195H220.2V81.3476H72.6273ZM304.893 301.934V248.622H372.498C388.981 248.622 403.404 245.403 415.766 238.964C428.128 232.268 437.657 222.61 444.353 209.991C451.049 197.371 454.397 182.433 454.397 165.178C454.397 147.923 450.92 133.114 443.967 120.752C437.271 108.39 427.742 98.8605 415.379 92.1644C403.275 85.4683 388.981 82.1202 372.498 82.1202H302.962V29.195H373.271C393.875 29.195 412.804 32.5431 430.059 39.2392C447.572 45.6778 462.767 55.0781 475.645 67.4402C488.779 79.5448 498.824 93.9672 505.777 110.708C512.988 127.19 516.594 145.476 516.594 165.564C516.594 185.395 512.988 203.681 505.777 220.421C498.824 237.161 488.908 251.584 476.031 263.688C463.154 275.793 447.959 285.193 430.446 291.889C413.19 298.586 394.39 301.934 374.044 301.934H304.893ZM263.944 301.934V29.195H324.595V301.934H263.944ZM664.903 306.183C642.497 306.183 622.666 301.419 605.41 291.889C588.412 282.36 575.02 269.226 565.234 252.485C555.704 235.487 550.94 216.172 550.94 194.538V29.195H611.978V198.015C611.978 208.832 614.296 218.232 618.931 226.216C623.567 234.2 629.877 240.381 637.861 244.759C646.102 248.88 655.116 250.94 664.903 250.94C675.205 250.94 684.219 248.88 691.945 244.759C699.671 240.381 705.724 234.328 710.102 226.602C714.738 218.618 717.055 209.218 717.055 198.401V29.195H778.093V194.924C778.093 216.558 773.329 235.745 763.8 252.485C754.271 269.226 741.007 282.36 724.009 291.889C707.011 301.419 687.309 306.183 664.903 306.183ZM872.798 202.651V155.52H931.518C938.987 155.52 945.812 153.975 951.993 150.884C958.174 147.794 963.067 143.287 966.673 137.363C970.278 131.44 972.081 124.229 972.081 115.73C972.081 107.488 970.278 100.406 966.673 94.4823C963.067 88.5588 958.174 84.0518 951.993 80.9612C945.812 77.8707 938.987 76.3255 931.518 76.3255H872.798V29.195H940.403C957.659 29.195 973.24 32.6718 987.147 39.6255C1001.05 46.5792 1012 56.6234 1019.98 69.7581C1028.23 82.6353 1032.35 97.9591 1032.35 115.73C1032.35 133.5 1028.23 148.953 1019.98 162.087C1012 174.965 1001.05 185.009 987.147 192.22C973.24 199.174 957.659 202.651 940.403 202.651H872.798ZM826.44 301.934V29.195H887.092V301.934H826.44ZM1027.04 301.934L1135.21 29.195H1190.07L1297.07 301.934H1232.95L1151.05 75.5528H1173.07L1090.01 301.934H1027.04ZM1088.46 252.485V203.037H1237.2V252.485H1088.46ZM1362.21 301.934V33.0581H1422.86V301.934H1362.21ZM1276.83 82.1202V29.195H1508.24V82.1202H1276.83ZM1542.1 301.934V29.195H1602.76V301.934H1542.1ZM1710.92 301.934V29.195H1771.96V301.934H1710.92ZM1578.42 187.971V135.432H1731.01V187.971H1578.42Z" fill="url(#paint0_linear_6913_130)" fill-opacity="0.4"/>
<path d="M26.2694 301.934H24.5135V303.69H26.2694V301.934ZM26.2694 29.195V27.439H24.5135V29.195H26.2694ZM86.9209 29.195H88.6769V27.439H86.9209V29.195ZM86.9209 301.934V303.69H88.6769V301.934H86.9209ZM72.6273 301.934H70.8713V303.69H72.6273V301.934ZM72.6273 249.395V247.639H70.8713V249.395H72.6273ZM222.131 249.395H223.887V247.639H222.131V249.395ZM222.131 301.934V303.69H223.887V301.934H222.131ZM72.6273 187.971H70.8713V189.727H72.6273V187.971ZM72.6273 137.363V135.607H70.8713V137.363H72.6273ZM208.61 137.363H210.366V135.607H208.61V137.363ZM208.61 187.971V189.727H210.366V187.971H208.61ZM72.6273 81.3476H70.8713V83.1035H72.6273V81.3476ZM72.6273 29.195V27.439H70.8713V29.195H72.6273ZM220.2 29.195H221.956V27.439H220.2V29.195ZM220.2 81.3476V83.1035H221.956V81.3476H220.2ZM28.0254 301.934V29.195H24.5135V301.934H28.0254ZM26.2694 30.951H86.9209V27.439H26.2694V30.951ZM85.165 29.195V301.934H88.6769V29.195H85.165ZM86.9209 300.178H26.2694V303.69H86.9209V300.178ZM74.3833 301.934V249.395H70.8713V301.934H74.3833ZM72.6273 251.151H222.131V247.639H72.6273V251.151ZM220.375 249.395V301.934H223.887V249.395H220.375ZM222.131 300.178H72.6273V303.69H222.131V300.178ZM74.3833 187.971V137.363H70.8713V187.971H74.3833ZM72.6273 139.119H208.61V135.607H72.6273V139.119ZM206.854 137.363V187.971H210.366V137.363H206.854ZM208.61 186.215H72.6273V189.727H208.61V186.215ZM74.3833 81.3476V29.195H70.8713V81.3476H74.3833ZM72.6273 30.951H220.2V27.439H72.6273V30.951ZM218.444 29.195V81.3476H221.956V29.195H218.444ZM220.2 79.5916H72.6273V83.1035H220.2V79.5916ZM304.893 301.934H303.137V303.69H304.893V301.934ZM304.893 248.622V246.866H303.137V248.622H304.893ZM415.766 238.964L416.577 240.522L416.59 240.515L416.602 240.508L415.766 238.964ZM443.967 120.752L442.423 121.588L442.429 121.6L442.436 121.613L443.967 120.752ZM415.379 92.1644L414.529 93.7009L414.536 93.7047L414.543 93.7084L415.379 92.1644ZM302.962 82.1202H301.206V83.8762H302.962V82.1202ZM302.962 29.195V27.439H301.206V29.195H302.962ZM430.059 39.2392L429.424 40.8762L429.439 40.8819L429.454 40.8873L430.059 39.2392ZM475.645 67.4402L474.429 68.7069L474.442 68.7193L474.455 68.7315L475.645 67.4402ZM505.777 110.708L504.156 111.381L504.162 111.396L504.168 111.411L505.777 110.708ZM505.777 220.421L504.165 219.726L504.16 219.737L504.156 219.747L505.777 220.421ZM430.446 291.889L429.819 290.249L429.81 290.252L430.446 291.889ZM263.944 301.934H262.188V303.69H263.944V301.934ZM263.944 29.195V27.439H262.188V29.195H263.944ZM324.595 29.195H326.351V27.439H324.595V29.195ZM324.595 301.934V303.69H326.351V301.934H324.595ZM306.649 301.934V248.622H303.137V301.934H306.649ZM304.893 250.378H372.498V246.866H304.893V250.378ZM372.498 250.378C389.212 250.378 403.922 247.112 416.577 240.522L414.955 237.407C402.885 243.693 388.75 246.866 372.498 246.866V250.378ZM416.602 240.508C429.273 233.645 439.049 223.733 445.904 210.814L442.802 209.167C436.265 221.487 426.982 230.892 414.929 237.42L416.602 240.508ZM445.904 210.814C452.76 197.893 456.153 182.661 456.153 165.178H452.641C452.641 182.206 449.338 196.849 442.802 209.167L445.904 210.814ZM456.153 165.178C456.153 147.686 452.628 132.567 445.497 119.891L442.436 121.613C449.213 133.661 452.641 148.159 452.641 165.178H456.153ZM445.511 119.915C438.652 107.254 428.877 97.4788 416.216 90.6204L414.543 93.7084C426.606 100.242 435.889 109.526 442.423 121.588L445.511 119.915ZM416.229 90.6278C403.819 83.7625 389.222 80.3642 372.498 80.3642V83.8762C388.741 83.8762 402.731 87.174 414.529 93.7009L416.229 90.6278ZM372.498 80.3642H302.962V83.8762H372.498V80.3642ZM304.718 82.1202V29.195H301.206V82.1202H304.718ZM302.962 30.951H373.271V27.439H302.962V30.951ZM373.271 30.951C393.682 30.951 412.393 34.2671 429.424 40.8762L430.695 37.6022C413.215 30.819 394.067 27.439 373.271 27.439V30.951ZM429.454 40.8873C446.749 47.2461 461.734 56.5203 474.429 68.7069L476.861 66.1735C463.801 53.6359 448.395 44.1094 430.665 37.5911L429.454 40.8873ZM474.455 68.7315C487.4 80.6612 497.298 94.8719 504.156 111.381L507.399 110.034C500.349 93.0625 490.159 78.4283 476.835 66.1489L474.455 68.7315ZM504.168 111.411C511.272 127.648 514.838 145.69 514.838 165.564H518.35C518.35 145.262 514.705 126.733 507.386 110.004L504.168 111.411ZM514.838 165.564C514.838 185.177 511.273 203.224 504.165 219.726L507.39 221.116C514.704 204.137 518.35 185.613 518.35 165.564H514.838ZM504.156 219.747C497.295 236.265 487.52 250.479 474.828 262.409L477.234 264.968C490.296 252.689 500.352 238.058 507.399 221.095L504.156 219.747ZM474.828 262.409C462.128 274.348 447.131 283.63 429.819 290.249L431.073 293.53C448.786 286.757 464.18 277.238 477.234 264.968L474.828 262.409ZM429.81 290.252C412.777 296.862 394.194 300.178 374.044 300.178V303.69C394.585 303.69 413.604 300.309 431.081 293.526L429.81 290.252ZM374.044 300.178H304.893V303.69H374.044V300.178ZM265.7 301.934V29.195H262.188V301.934H265.7ZM263.944 30.951H324.595V27.439H263.944V30.951ZM322.839 29.195V301.934H326.351V29.195H322.839ZM324.595 300.178H263.944V303.69H324.595V300.178ZM605.41 291.889L604.552 293.421L604.561 293.427L605.41 291.889ZM565.234 252.485L563.702 253.344L563.71 253.358L563.718 253.371L565.234 252.485ZM550.94 29.195V27.439H549.184V29.195H550.94ZM611.978 29.195H613.734V27.439H611.978V29.195ZM637.861 244.759L637.016 246.299L637.046 246.315L637.076 246.33L637.861 244.759ZM691.945 244.759L692.771 246.308L692.791 246.298L692.811 246.287L691.945 244.759ZM710.102 226.602L708.583 225.72L708.579 225.728L708.574 225.736L710.102 226.602ZM717.055 29.195V27.439H715.299V29.195H717.055ZM778.093 29.195H779.849V27.439H778.093V29.195ZM763.8 252.485L762.274 251.617L763.8 252.485ZM724.009 291.889L723.15 290.358L724.009 291.889ZM664.903 304.427C642.752 304.427 623.221 299.719 606.259 290.352L604.561 293.427C622.111 303.118 642.241 307.939 664.903 307.939V304.427ZM606.269 290.358C589.542 280.981 576.378 268.068 566.75 251.599L563.718 253.371C573.663 270.383 587.283 283.74 604.552 293.421L606.269 290.358ZM566.765 251.627C557.399 234.919 552.696 215.905 552.696 194.538H549.184C549.184 216.438 554.01 236.056 563.702 253.344L566.765 251.627ZM552.696 194.538V29.195H549.184V194.538H552.696ZM550.94 30.951H611.978V27.439H550.94V30.951ZM610.222 29.195V198.015H613.734V29.195H610.222ZM610.222 198.015C610.222 209.088 612.597 218.803 617.413 227.098L620.45 225.334C615.995 217.661 613.734 208.576 613.734 198.015H610.222ZM617.413 227.098C622.207 235.354 628.748 241.764 637.016 246.299L638.705 243.219C631.006 238.997 624.927 233.045 620.45 225.334L617.413 227.098ZM637.076 246.33C645.576 250.58 654.861 252.696 664.903 252.696V249.184C655.372 249.184 646.629 247.18 638.646 243.188L637.076 246.33ZM664.903 252.696C675.442 252.696 684.749 250.587 692.771 246.308L691.119 243.21C683.688 247.173 674.967 249.184 664.903 249.184V252.696ZM692.811 246.287C700.814 241.752 707.095 235.471 711.63 227.468L708.574 225.736C704.352 233.186 698.529 239.01 691.079 243.231L692.811 246.287ZM711.62 227.484C716.437 219.189 718.811 209.474 718.811 198.401H715.299C715.299 208.962 713.039 218.047 708.583 225.72L711.62 227.484ZM718.811 198.401V29.195H715.299V198.401H718.811ZM717.055 30.951H778.093V27.439H717.055V30.951ZM776.337 29.195V194.924H779.849V29.195H776.337ZM776.337 194.924C776.337 216.292 771.634 235.172 762.274 251.617L765.326 253.354C775.023 236.318 779.849 216.824 779.849 194.924H776.337ZM762.274 251.617C752.904 268.076 739.873 280.983 723.15 290.358L724.868 293.421C742.141 283.738 755.637 270.375 765.326 253.354L762.274 251.617ZM723.15 290.358C706.452 299.719 687.054 304.427 664.903 304.427V307.939C687.564 307.939 707.571 303.118 724.868 293.421L723.15 290.358ZM872.798 202.651H871.042V204.407H872.798V202.651ZM872.798 155.52V153.764H871.042V155.52H872.798ZM951.993 150.884L951.207 149.314V149.314L951.993 150.884ZM951.993 80.9612L951.207 82.5318L951.993 80.9612ZM872.798 76.3255H871.042V78.0814H872.798V76.3255ZM872.798 29.195V27.439H871.042V29.195H872.798ZM1019.98 69.7581L1018.48 70.6702L1018.49 70.6876L1018.51 70.7047L1019.98 69.7581ZM1019.98 162.087L1018.5 161.154L1018.49 161.162L1019.98 162.087ZM987.147 192.22L987.933 193.791L987.944 193.785L987.956 193.779L987.147 192.22ZM826.44 301.934H824.684V303.69H826.44V301.934ZM826.44 29.195V27.439H824.684V29.195H826.44ZM887.092 29.195H888.848V27.439H887.092V29.195ZM887.092 301.934V303.69H888.848V301.934H887.092ZM874.554 202.651V155.52H871.042V202.651H874.554ZM872.798 157.276H931.518V153.764H872.798V157.276ZM931.518 157.276C939.237 157.276 946.334 155.677 952.778 152.455L951.207 149.314C945.289 152.273 938.736 153.764 931.518 153.764V157.276ZM952.778 152.455C959.255 149.216 964.396 144.481 968.172 138.276L965.173 136.45C961.738 142.093 957.092 146.371 951.207 149.314L952.778 152.455ZM968.172 138.276C971.98 132.022 973.837 124.478 973.837 115.73H970.325C970.325 123.979 968.577 130.858 965.173 136.45L968.172 138.276ZM973.837 115.73C973.837 107.227 971.975 99.8159 968.172 93.5693L965.173 95.3953C968.582 100.996 970.325 107.749 970.325 115.73H973.837ZM968.172 93.5693C964.396 87.3648 959.255 82.6294 952.778 79.3906L951.207 82.5318C957.092 85.4742 961.738 89.7528 965.173 95.3953L968.172 93.5693ZM952.778 79.3906C946.334 76.1685 939.237 74.5695 931.518 74.5695V78.0814C938.736 78.0814 945.289 79.5729 951.207 82.5318L952.778 79.3906ZM931.518 74.5695H872.798V78.0814H931.518V74.5695ZM874.554 76.3255V29.195H871.042V76.3255H874.554ZM872.798 30.951H940.403V27.439H872.798V30.951ZM940.403 30.951C957.416 30.951 972.724 34.3772 986.362 41.1961L987.933 38.0549C973.756 30.9665 957.901 27.439 940.403 27.439V30.951ZM986.362 41.1961C999.977 48.0038 1010.67 57.8214 1018.48 70.6702L1021.48 68.846C1013.33 55.4254 1002.13 45.1546 987.933 38.0549L986.362 41.1961ZM1018.51 70.7047C1026.54 83.2558 1030.59 98.239 1030.59 115.73H1034.1C1034.1 97.6792 1029.91 82.0147 1021.46 68.8115L1018.51 70.7047ZM1030.59 115.73C1030.59 133.219 1026.54 148.338 1018.5 161.154L1021.47 163.021C1029.91 149.567 1034.1 133.781 1034.1 115.73H1030.59ZM1018.49 161.162C1010.68 173.761 999.975 183.59 986.339 190.661L987.956 193.779C1002.13 186.427 1013.32 176.168 1021.48 163.013L1018.49 161.162ZM986.362 190.649C972.724 197.468 957.416 200.895 940.403 200.895V204.407C957.901 204.407 973.756 200.879 987.933 193.791L986.362 190.649ZM940.403 200.895H872.798V204.407H940.403V200.895ZM828.196 301.934V29.195H824.684V301.934H828.196ZM826.44 30.951H887.092V27.439H826.44V30.951ZM885.336 29.195V301.934H888.848V29.195H885.336ZM887.092 300.178H826.44V303.69H887.092V300.178ZM1027.04 301.934L1025.41 301.286L1024.45 303.69H1027.04V301.934ZM1135.21 29.195V27.439H1134.02L1133.58 28.5476L1135.21 29.195ZM1190.07 29.195L1191.7 28.5536L1191.26 27.439H1190.07V29.195ZM1297.07 301.934V303.69H1299.65L1298.71 301.292L1297.07 301.934ZM1232.95 301.934L1231.3 302.531L1231.71 303.69H1232.95V301.934ZM1151.05 75.5528V73.7969H1148.54L1149.4 76.1502L1151.05 75.5528ZM1173.07 75.5528L1174.72 76.1577L1175.58 73.7969H1173.07V75.5528ZM1090.01 301.934V303.69H1091.24L1091.66 302.538L1090.01 301.934ZM1088.46 252.485H1086.71V254.241H1088.46V252.485ZM1088.46 203.037V201.281H1086.71V203.037H1088.46ZM1237.2 203.037H1238.95V201.281H1237.2V203.037ZM1237.2 252.485V254.241H1238.95V252.485H1237.2ZM1028.67 302.581L1136.84 29.8424L1133.58 28.5476L1025.41 301.286L1028.67 302.581ZM1135.21 30.951H1190.07V27.439H1135.21V30.951ZM1188.43 29.8364L1295.44 302.575L1298.71 301.292L1191.7 28.5536L1188.43 29.8364ZM1297.07 300.178H1232.95V303.69H1297.07V300.178ZM1234.6 301.336L1152.7 74.9555L1149.4 76.1502L1231.3 302.531L1234.6 301.336ZM1151.05 77.3088H1173.07V73.7969H1151.05V77.3088ZM1171.42 74.948L1088.36 301.329L1091.66 302.538L1174.72 76.1577L1171.42 74.948ZM1090.01 300.178H1027.04V303.69H1090.01V300.178ZM1090.22 252.485V203.037H1086.71V252.485H1090.22ZM1088.46 204.793H1237.2V201.281H1088.46V204.793ZM1235.44 203.037V252.485H1238.95V203.037H1235.44ZM1237.2 250.729H1088.46V254.241H1237.2V250.729ZM1362.21 301.934H1360.45V303.69H1362.21V301.934ZM1362.21 33.0581V31.3022H1360.45V33.0581H1362.21ZM1422.86 33.0581H1424.62V31.3022H1422.86V33.0581ZM1422.86 301.934V303.69H1424.62V301.934H1422.86ZM1276.83 82.1202H1275.08V83.8762H1276.83V82.1202ZM1276.83 29.195V27.439H1275.08V29.195H1276.83ZM1508.24 29.195H1509.99V27.439H1508.24V29.195ZM1508.24 82.1202V83.8762H1509.99V82.1202H1508.24ZM1363.96 301.934V33.0581H1360.45V301.934H1363.96ZM1362.21 34.8141H1422.86V31.3022H1362.21V34.8141ZM1421.1 33.0581V301.934H1424.62V33.0581H1421.1ZM1422.86 300.178H1362.21V303.69H1422.86V300.178ZM1278.59 82.1202V29.195H1275.08V82.1202H1278.59ZM1276.83 30.951H1508.24V27.439H1276.83V30.951ZM1506.48 29.195V82.1202H1509.99V29.195H1506.48ZM1508.24 80.3642H1276.83V83.8762H1508.24V80.3642ZM1542.1 301.934H1540.35V303.69H1542.1V301.934ZM1542.1 29.195V27.439H1540.35V29.195H1542.1ZM1602.76 29.195H1604.51V27.439H1602.76V29.195ZM1602.76 301.934V303.69H1604.51V301.934H1602.76ZM1710.92 301.934H1709.17V303.69H1710.92V301.934ZM1710.92 29.195V27.439H1709.17V29.195H1710.92ZM1771.96 29.195H1773.72V27.439H1771.96V29.195ZM1771.96 301.934V303.69H1773.72V301.934H1771.96ZM1578.42 187.971H1576.66V189.727H1578.42V187.971ZM1578.42 135.432V133.676H1576.66V135.432H1578.42ZM1731.01 135.432H1732.77V133.676H1731.01V135.432ZM1731.01 187.971V189.727H1732.77V187.971H1731.01ZM1543.86 301.934V29.195H1540.35V301.934H1543.86ZM1542.1 30.951H1602.76V27.439H1542.1V30.951ZM1601 29.195V301.934H1604.51V29.195H1601ZM1602.76 300.178H1542.1V303.69H1602.76V300.178ZM1712.68 301.934V29.195H1709.17V301.934H1712.68ZM1710.92 30.951H1771.96V27.439H1710.92V30.951ZM1770.21 29.195V301.934H1773.72V29.195H1770.21ZM1771.96 300.178H1710.92V303.69H1771.96V300.178ZM1580.17 187.971V135.432H1576.66V187.971H1580.17ZM1578.42 137.188H1731.01V133.676H1578.42V137.188ZM1729.26 135.432V187.971H1732.77V135.432H1729.26ZM1731.01 186.215H1578.42V189.727H1731.01V186.215Z" fill="url(#paint1_linear_6913_130)" mask="url(#path-1-outside-1_6913_130)"/>
<path opacity="0.05" d="M153.894 226.938C162.994 231.037 171.394 234.638 179.594 238.538C181.894 239.638 181.994 241.537 180.194 243.737C179.094 245.037 177.794 246.337 176.394 247.337C172.894 249.837 169.294 252.338 165.594 254.638C164.294 255.438 162.694 255.637 160.894 256.237C160.294 252.737 162.494 251.438 164.194 250.038C165.994 248.538 167.994 247.337 170.094 245.837C166.194 244.737 106.094 244.237 102.994 245.237C109.994 250.237 118.894 249.638 126.094 253.438C126.094 253.837 126.094 254.337 125.994 254.737C124.794 255.137 123.494 255.837 122.394 255.737C118.694 255.437 114.894 255.337 111.494 254.237C105.694 252.437 99.9939 250.138 94.4939 247.638C90.4939 245.838 89.7939 242.238 93.0939 239.638C98.4939 235.338 104.294 231.738 110.094 227.938C110.794 227.538 111.994 227.837 114.094 227.837C110.194 233.437 104.594 235.238 100.094 240.138C125.194 240.138 149.294 240.138 173.394 240.138C172.494 239.638 171.394 239.038 170.194 238.438C165.694 236.238 161.194 234.137 156.794 231.938C154.694 230.938 154.794 230.737 153.894 226.938Z" fill="white"/>
<g opacity="0.2">
<path d="M1710.88 241.424C1712.88 242.096 1715.14 240.947 1715.93 239.007C1716.73 237.027 1715.51 234.985 1713.62 234.233C1711.75 233.486 1709.61 234.173 1708.81 236.103C1708.07 237.919 1708.65 240.089 1710.31 241.159C1710.86 241.508 1711.36 240.643 1710.82 240.295C1708.08 238.535 1709.94 233.863 1713.24 235.156C1714.65 235.712 1715.61 237.178 1714.98 238.676C1714.35 240.149 1712.66 240.969 1711.14 240.459C1710.53 240.254 1710.27 241.22 1710.88 241.424Z" fill="white"/>
<path d="M1708.46 250.257C1709.04 252.925 1713.71 251.74 1713.07 249.052C1712.45 246.475 1707.78 247.703 1708.62 250.234C1708.82 250.842 1709.78 250.581 1709.58 249.968C1709.15 248.675 1711.78 248.004 1712.1 249.318C1712.46 250.735 1709.73 251.402 1709.43 249.991C1709.29 249.362 1708.33 249.628 1708.46 250.257Z" fill="white"/>
<path d="M1698.01 241.977C1698.48 244.145 1702.25 243.185 1701.72 241.003C1701.22 238.905 1697.44 239.9 1698.13 241.96C1698.33 242.568 1699.3 242.307 1699.09 241.694C1698.82 240.871 1700.56 240.43 1700.76 241.269C1700.98 242.184 1699.17 242.622 1698.98 241.712C1698.84 241.083 1697.88 241.349 1698.01 241.977Z" fill="white"/>
<path d="M1715.48 260.3C1720.42 267.55 1725.35 274.8 1730.29 282.05C1732.68 285.562 1735.04 289.096 1737.47 292.584C1739.28 295.19 1741.25 297.784 1743.81 299.697C1746.08 301.385 1748.95 302.574 1751.81 302.025C1754.54 301.501 1756.33 299.292 1755.81 296.466C1755.46 294.586 1754.39 292.894 1753.46 291.252C1752.46 289.469 1751.45 287.694 1750.42 285.927C1748.33 282.325 1746.17 278.757 1743.96 275.224C1738.96 267.224 1733.67 259.409 1728.11 251.787C1727.73 251.272 1726.86 251.771 1727.24 252.292C1736.23 264.614 1744.52 277.448 1752.02 290.729C1753.5 293.344 1757.09 298.447 1753.04 300.566C1750.29 302.006 1746.95 300.713 1744.62 299.051C1742 297.185 1740.04 294.535 1738.23 291.922C1736.03 288.754 1733.88 285.551 1731.71 282.365C1726.59 274.841 1721.47 267.318 1716.35 259.794C1715.98 259.267 1715.12 259.766 1715.48 260.3Z" fill="white"/>
<path d="M1715.47 259.553C1715.08 259.706 1714.67 259.889 1714.26 259.965C1713.41 260.122 1711.76 259.754 1712.61 258.324C1712.95 257.754 1714.05 257.201 1714.59 256.784C1716.05 255.647 1717.52 254.511 1718.98 253.374C1720.38 252.287 1721.78 251.196 1723.19 250.112C1724.01 249.478 1725.05 248.541 1726.17 248.604C1727 248.651 1728.28 249.896 1727.37 250.66C1726.88 251.073 1727.59 251.778 1728.08 251.367C1729.48 250.19 1728.16 247.961 1726.65 247.656C1725.26 247.375 1724.01 248.235 1722.96 249.029C1721.65 250.031 1720.35 251.058 1719.04 252.072C1717.64 253.159 1716.24 254.246 1714.83 255.334C1714.13 255.878 1713.43 256.421 1712.73 256.965C1712.27 257.322 1711.69 257.671 1711.43 258.222C1711.03 259.059 1711.49 260 1712.17 260.527C1713.24 261.358 1714.59 260.969 1715.73 260.516C1716.32 260.283 1716.07 259.316 1715.47 259.553Z" fill="white"/>
<path d="M1749.01 290.513C1746.17 285.694 1743.34 280.829 1740.02 276.338C1739.2 275.209 1738.35 274.097 1737.5 272.988L1736.26 271.395C1736 271.182 1735.7 271.17 1735.42 271.4L1732.01 273.849L1731.57 274.148C1731.48 274.211 1731.48 274.22 1731.45 274.237C1731.44 274.255 1731.42 274.275 1731.4 274.294C1731.34 274.375 1731.31 274.489 1731.32 274.594C1731.24 274.621 1731.84 275.393 1732.19 275.938C1735.34 280.617 1738.03 285.515 1741.1 290.17C1741.88 291.313 1742.71 292.418 1743.68 293.396C1744.63 294.368 1745.75 295.241 1747.03 295.712C1747.68 295.917 1748.38 296.017 1749.04 295.845C1749.7 295.696 1750.24 295.118 1750.31 294.419C1750.4 293.73 1750.21 293.032 1749.96 292.387C1749.7 291.737 1749.36 291.12 1749.01 290.513ZM1749.01 290.513C1749.37 291.114 1749.72 291.725 1749.99 292.372C1750.26 293.016 1750.47 293.715 1750.39 294.429C1750.32 295.141 1749.8 295.812 1749.09 296.007C1748.39 296.229 1747.64 296.161 1746.95 295.981C1744.17 295.125 1742.08 292.93 1740.29 290.773C1738.52 288.553 1736.88 286.299 1735.23 284.009C1733.61 281.695 1732.11 279.354 1730.53 277.053L1729.95 276.179C1729.82 275.993 1729.38 275.35 1729.37 274.766C1729.32 274.173 1729.5 273.567 1729.87 273.098C1729.97 272.982 1730.07 272.873 1730.18 272.776C1730.3 272.68 1730.43 272.585 1730.49 272.552L1730.92 272.26L1734.46 269.981C1734.83 269.703 1735.48 269.504 1736.01 269.597C1736.56 269.667 1737.08 269.952 1737.42 270.374C1737.62 270.625 1737.65 270.706 1737.76 270.873L1738.05 271.316L1738.62 272.203C1739.37 273.391 1740.12 274.58 1740.85 275.787C1742.31 278.194 1743.63 280.681 1744.93 283.164C1746.25 285.641 1747.61 288.087 1749.01 290.513Z" fill="white"/>
<path d="M1737 279.495C1736.81 279.518 1736.61 279.537 1736.38 279.463C1736.14 279.395 1735.89 279.215 1735.71 278.939C1735.53 278.665 1735.44 278.26 1735.62 277.836C1735.79 277.409 1736.26 277.107 1736.66 277.061C1737.05 276.996 1737.59 277.153 1737.88 277.517C1738.16 277.878 1738.19 278.294 1738.09 278.607C1737.99 278.923 1737.8 279.165 1737.58 279.296C1737.38 279.432 1737.18 279.466 1737 279.495ZM1737 279.495C1737.18 279.468 1737.35 279.315 1737.36 279.137C1737.37 278.958 1737.25 278.802 1737.1 278.744C1736.95 278.683 1736.79 278.737 1736.78 278.859C1736.77 278.98 1736.92 279.056 1736.93 279.04C1736.96 279.049 1737.07 278.935 1737.02 278.822C1736.98 278.708 1736.82 278.701 1736.69 278.801C1736.56 278.898 1736.49 279.081 1736.55 279.251C1736.61 279.42 1736.81 279.521 1737 279.495Z" fill="white"/>
<path d="M1741.01 281.646C1741.2 281.623 1741.39 281.604 1741.63 281.678C1741.87 281.746 1742.12 281.926 1742.3 282.202C1742.48 282.476 1742.57 282.881 1742.39 283.305C1742.22 283.732 1741.75 284.034 1741.35 284.08C1740.96 284.145 1740.42 283.988 1740.13 283.624C1739.85 283.264 1739.82 282.847 1739.92 282.534C1740.02 282.218 1740.21 281.976 1740.42 281.845C1740.63 281.709 1740.83 281.675 1741.01 281.646ZM1741.01 281.646C1740.82 281.672 1740.65 281.825 1740.65 282.004C1740.64 282.183 1740.76 282.339 1740.91 282.397C1741.06 282.458 1741.21 282.404 1741.22 282.282C1741.23 282.161 1741.09 282.085 1741.07 282.101C1741.05 282.092 1740.94 282.206 1740.98 282.319C1741.03 282.433 1741.19 282.44 1741.32 282.34C1741.44 282.243 1741.52 282.06 1741.46 281.89C1741.4 281.721 1741.2 281.62 1741.01 281.646Z" fill="white"/>
<path d="M1742.06 289.329C1742.08 289.311 1742.11 289.276 1742.16 289.246L1742.11 289.336C1741.96 289.199 1741.85 289.003 1741.8 288.753C1741.79 288.512 1741.84 288.246 1741.96 288.023C1742.21 287.584 1742.6 287.274 1743.03 287.097C1743.47 286.923 1743.98 286.844 1744.57 287.023C1744.86 287.12 1745.16 287.313 1745.41 287.592C1745.51 287.74 1745.61 287.903 1745.68 288.065C1745.73 288.224 1745.78 288.389 1745.81 288.553L1745.77 288.372C1745.81 288.535 1745.83 288.703 1745.85 288.868C1745.85 289.042 1745.83 289.227 1745.8 289.401C1745.7 289.747 1745.52 290.046 1745.3 290.261C1744.86 290.683 1744.36 290.845 1743.89 290.888C1743.42 290.925 1742.93 290.816 1742.52 290.541C1742.1 290.267 1741.87 289.694 1742.06 289.329ZM1742.06 289.329C1742.35 289.652 1742.63 289.678 1742.87 289.629C1743.1 289.596 1743.33 289.48 1743.52 289.363C1743.72 289.241 1743.86 289.084 1743.89 288.996C1743.91 288.892 1743.85 289.013 1743.86 288.965L1743.87 288.841L1743.82 288.783C1743.79 288.748 1743.92 288.873 1743.88 288.795C1743.83 288.733 1743.63 288.667 1743.41 288.647C1743.19 288.636 1742.95 288.64 1742.74 288.708C1742.53 288.761 1742.31 288.901 1742.24 289.288L1742.21 289.4L1742.18 289.378C1742.16 289.358 1742.12 289.335 1742.06 289.329Z" fill="white"/>
</g>
<defs>
<linearGradient id="paint0_linear_6913_130" x1="1780.26" y1="588.704" x2="1.57146" y2="481.596" gradientUnits="userSpaceOnUse">
<stop stop-color="#31B978" stop-opacity="0.04"/>
<stop offset="1" stop-color="#1AB69D" stop-opacity="0.03"/>
</linearGradient>
<linearGradient id="paint1_linear_6913_130" x1="1049.42" y1="37.0364" x2="1049.42" y2="317.934" gradientUnits="userSpaceOnUse">
<stop stop-color="#E7E7EB" stop-opacity="0"/>
<stop offset="1" stop-color="#838385" stop-opacity="0.47"/>
</linearGradient>
</defs>
</svg>
