<svg width="117" height="84" viewBox="0 0 117 84" fill="none" xmlns="http://www.w3.org/2000/svg">
<path opacity="0.05" d="M65.912 26.083C45.3052 23.8814 26.4648 39.3914 15.4036 67.3288C20.5459 65.7698 22.5251 58.3832 28.8075 60.1943C29.0925 61.0368 29.6797 61.7049 29.6158 61.9432C24.8645 68.7146 20.2004 75.6371 15.1236 82.1936C13.381 84.4082 10.2663 84.5952 8.69647 81.8761C5.46952 76.2869 2.00431 70.6338 0.671038 62.7428C4.11748 64.177 6.52357 65.2048 8.12765 65.89C12.0302 57.9973 15.2179 49.913 19.7948 42.8395C30.4933 25.7863 45.9419 16.2628 66.5425 17.0581C69.8316 17.1733 71.4699 15.8246 73.4508 13.6739C81.7169 4.2689 92.3208 -0.0405154 104.809 1.00729C109.29 1.44168 114.334 2.15483 116.916 8.72053C108.96 5.05628 101.841 4.93651 94.6243 7.08892C87.6459 9.30518 81.3652 12.7299 77.3692 19.0653C81.7408 24.1951 86.5421 28.6739 89.6819 34.1121C92.9727 39.463 95.3805 45.7266 96.6841 51.822C98.075 58.0685 94.5726 63.5146 89.5409 65.614C84.5964 67.8645 78.8778 66.3322 74.5934 61.3535C67.7861 53.4003 65.0169 43.7199 65.2518 33.3122C65.5009 30.9528 65.6629 28.4424 65.912 26.083ZM72.973 27.8473C70.9658 38.674 73.3628 47.3608 78.9149 55.233C80.7869 57.7777 83.112 60.0607 86.5226 58.293C89.48 56.787 89.5313 53.7362 88.7401 50.9703C86.5581 41.958 81.6569 34.5156 72.973 27.8473Z" fill="black"/>
</svg>
