<svg width="55" height="66" viewBox="0 0 55 66" fill="none" xmlns="http://www.w3.org/2000/svg">
<path d="M38.4774 10.8945H24.5088C23.9829 10.8945 23.5566 11.3208 23.5566 11.8467C23.5566 12.3725 23.9829 12.7988 24.5088 12.7988H38.4774C39.0034 12.7988 39.4296 12.3725 39.4296 11.8467C39.4296 11.3208 39.0034 10.8945 38.4774 10.8945Z" fill="#FF723A"/>
<path d="M38.4774 14.2656H24.5088C23.9829 14.2656 23.5566 14.6919 23.5566 15.2178C23.5566 15.7436 23.9829 16.1699 24.5088 16.1699H38.4774C39.0034 16.1699 39.4296 15.7436 39.4296 15.2178C39.4296 14.6919 39.0034 14.2656 38.4774 14.2656Z" fill="#FF723A"/>
<path d="M41.3423 7.17188H21.6441C20.4252 7.17188 19.4336 8.16351 19.4336 9.38238V17.9187C19.4336 19.1376 20.4252 20.1292 21.6441 20.1292H41.3421C42.5612 20.1292 43.5527 19.1376 43.5527 17.9187V15.876C43.5527 15.3502 43.1265 14.9239 42.6005 14.9239C42.0745 14.9239 41.6484 15.3502 41.6484 15.876V17.9187C41.6484 18.0876 41.511 18.2249 41.3421 18.2249H21.6441C21.4753 18.2249 21.3379 18.0876 21.3379 17.9187V9.38238C21.3379 9.21354 21.4753 9.07617 21.6441 9.07617H41.3421C41.511 9.07617 41.6484 9.21354 41.6484 9.38238V11.4251C41.6484 11.9509 42.0745 12.3772 42.6005 12.3772C43.1265 12.3772 43.5527 11.9509 43.5527 11.4251V9.38238C43.5528 8.16351 42.5612 7.17188 41.3423 7.17188Z" fill="#FF723A"/>
<path d="M52.0593 56.8692H35.449C35.0245 55.8382 34.0093 55.1104 32.8269 55.1104H31.0733V49.4443H44.4616C46.5274 49.4443 48.2082 47.7636 48.2082 45.6978V4.51995C48.2082 2.45417 46.5274 0.773438 44.4616 0.773438H12.0197C9.95388 0.773438 8.27314 2.45417 8.27314 4.51995V5.43186H8.09884C6.56271 5.43186 5.31298 6.68158 5.31298 8.21771C5.31298 9.75385 6.56271 11.0036 8.09884 11.0036H8.27314V13.8774H8.09884C6.56271 13.8774 5.31298 15.1271 5.31298 16.6633C5.31298 18.1994 6.56271 19.4491 8.09884 19.4491H8.27314V22.3231H8.09884C6.56271 22.3231 5.31298 23.5728 5.31298 25.109C5.31298 26.6451 6.56271 27.8947 8.09884 27.8947H8.27314V30.7687H8.09884C6.56271 30.7687 5.31298 32.0184 5.31298 33.5545C5.31298 35.0906 6.56271 36.3404 8.09884 36.3404H8.27314V39.2142H8.09884C6.56271 39.2142 5.31298 40.4639 5.31298 42.0001C5.31298 43.5362 6.56271 44.7859 8.09884 44.7859H8.27314V45.6978C8.27314 47.7636 9.95388 49.4443 12.0197 49.4443H23.928V55.1104H22.1744C20.9919 55.1104 19.9768 55.8382 19.5523 56.8692H11.4509C10.9251 56.8692 10.4988 57.2955 10.4988 57.8213C10.4988 58.3472 10.9251 58.7735 11.4509 58.7735H19.3396V62.1103H2.942C2.66918 62.1103 2.44727 61.8884 2.44727 61.6156V59.2682C2.44727 58.9954 2.66918 58.7735 2.942 58.7735H6.9998C7.52564 58.7735 7.95195 58.3472 7.95195 57.8213C7.95195 57.2955 7.52564 56.8692 6.9998 56.8692H2.942C1.61915 56.8692 0.542969 57.9454 0.542969 59.2682V61.6156C0.542969 62.9384 1.61915 64.0146 2.942 64.0146H19.5522C19.9768 65.0456 20.9919 65.7734 22.1743 65.7734H32.8269C34.0093 65.7734 35.0245 65.0456 35.449 64.0146H52.0592C53.382 64.0146 54.4581 62.9384 54.4581 61.6156V59.2682C54.4582 57.9454 53.382 56.8692 52.0593 56.8692ZM8.09884 9.09928C7.61273 9.09928 7.21728 8.70382 7.21728 8.21771C7.21728 7.73161 7.61273 7.33615 8.09884 7.33615H10.3516C10.8377 7.33615 11.2332 7.73161 11.2332 8.21771C11.2332 8.70382 10.8377 9.09928 10.3516 9.09928H8.09884ZM8.09884 17.5448C7.61273 17.5448 7.21728 17.1494 7.21728 16.6633C7.21728 16.1772 7.61273 15.7817 8.09884 15.7817H10.3516C10.8377 15.7817 11.2332 16.1772 11.2332 16.6633C11.2332 17.1494 10.8377 17.5448 10.3516 17.5448H8.09884ZM8.09884 25.9904C7.61273 25.9904 7.21728 25.5949 7.21728 25.109C7.21728 24.623 7.61273 24.2274 8.09884 24.2274H10.3516C10.8377 24.2274 11.2332 24.6229 11.2332 25.109C11.2332 25.5951 10.8377 25.9904 10.3516 25.9904H8.09884ZM8.09884 34.4359C7.61273 34.4359 7.21728 34.0405 7.21728 33.5544C7.21728 33.0683 7.61273 32.6728 8.09884 32.6728H10.3516C10.8377 32.6728 11.2332 33.0683 11.2332 33.5544C11.2332 34.0405 10.8377 34.4359 10.3516 34.4359H8.09884ZM8.09884 42.8815C7.61273 42.8815 7.21728 42.486 7.21728 41.9999C7.21728 41.5138 7.61273 41.1184 8.09884 41.1184H10.3516C10.8377 41.1184 11.2332 41.5138 11.2332 41.9999C11.2332 42.486 10.8377 42.8815 10.3516 42.8815H8.09884ZM15.2113 47.5399H12.0197C11.0039 47.5399 10.1774 46.7135 10.1774 45.6977V44.7858H10.3516C11.8878 44.7858 13.1375 43.5361 13.1375 41.9999C13.1375 40.4638 11.8878 39.2141 10.3516 39.2141H10.1774V36.3402H10.3516C11.8878 36.3402 13.1375 35.0905 13.1375 33.5544C13.1375 32.0183 11.8878 30.7685 10.3516 30.7685H10.1774V27.8946H10.3516C11.8878 27.8946 13.1375 26.6448 13.1375 25.1088C13.1375 23.5727 11.8878 22.323 10.3516 22.323H10.1774V19.449H10.3516C11.8878 19.449 13.1375 18.1993 13.1375 16.6631C13.1375 15.127 11.8878 13.8773 10.3516 13.8773H10.1774V11.0036H10.3516C11.8878 11.0036 13.1375 9.75385 13.1375 8.21771C13.1375 6.68158 11.8878 5.43186 10.3516 5.43186H10.1774V4.51995C10.1774 3.5042 11.0039 2.67773 12.0197 2.67773H15.2113V47.5399ZM17.1156 47.5399V2.67773H44.4616C45.4774 2.67773 46.3039 3.5042 46.3039 4.51995V45.6977C46.3039 46.7135 45.4774 47.5399 44.4616 47.5399H17.1156ZM29.169 49.4442V55.1103H25.8323V49.4442H29.169ZM33.7573 62.9387C33.7573 63.4518 33.3399 63.8691 32.8269 63.8691H22.1743C21.6923 63.8691 21.295 63.501 21.2484 63.0311C21.2476 63.0089 21.2472 62.9867 21.2451 62.9649C21.2448 62.9561 21.2438 62.9475 21.2438 62.9386V57.945C21.2438 57.9361 21.245 57.9276 21.2451 57.9187C21.2472 57.897 21.2478 57.8747 21.2484 57.8525C21.295 57.3826 21.6923 57.0144 22.1743 57.0144H32.8269C33.3399 57.0144 33.7573 57.4319 33.7573 57.9449V62.9387ZM52.5539 61.6156C52.5539 61.8884 52.332 62.1103 52.0593 62.1103H35.6616V58.7735H52.0592C52.3318 58.7735 52.5538 58.9954 52.5538 59.2682L52.5539 61.6156Z" fill="#FF723A"/>
</svg>
