<svg width="47" height="66" viewBox="0 0 47 66" fill="none" xmlns="http://www.w3.org/2000/svg">
<path d="M23.483 0.773438C23.4249 0.773438 23.3662 0.773691 23.3081 0.774072C2.96475 0.921211 -7.47041 25.2301 6.16639 40.1104C8.49407 42.6504 10.315 45.5484 11.5915 48.734C10.0171 49.6381 9.68248 51.7461 10.8814 53.0898C9.91861 54.1688 9.91925 55.7911 10.8814 56.8695C9.47275 58.4481 10.2322 60.936 12.2383 61.4964V62.0917C12.2383 64.1219 13.89 65.7736 15.9202 65.7736H31.043C33.0732 65.7736 34.7249 64.1219 34.7249 62.0917V61.4964C36.7309 60.9361 37.4905 58.4482 36.0817 56.8695C37.0447 55.7904 37.0441 54.1681 36.0817 53.0898C37.2859 51.7404 36.9372 49.6401 35.3803 48.739C36.6622 45.5487 38.4916 42.6369 40.8304 40.0737C54.6318 24.9492 43.7049 0.773438 23.483 0.773438ZM32.8206 62.0915C32.8206 63.0717 32.0232 63.8691 31.043 63.8691H15.9202C14.94 63.8691 14.1426 63.0717 14.1426 62.0915V61.6012H32.8206V62.0915ZM33.9616 59.697H13.0017C11.7606 59.697 11.7621 57.8216 13.0017 57.8216H33.9616C35.2027 57.8215 35.2013 59.697 33.9616 59.697ZM19.3079 54.0418H33.9615C35.2027 54.0418 35.2012 55.9172 33.9615 55.9172H13.0015C11.7604 55.9172 11.762 54.0418 13.0015 54.0418H14.8208C15.3466 54.0418 15.7729 53.6156 15.7729 53.0897C15.7729 52.5637 15.3466 52.1375 14.8208 52.1375H13.0015C11.8224 52.1375 11.7323 50.3932 12.9007 50.2678C12.9045 50.2675 12.9084 50.267 12.9122 50.2666C13.0045 50.2579 11.9733 50.264 33.9615 50.262C33.9894 50.262 34.017 50.2638 34.0443 50.2662C34.0514 50.267 34.0584 50.2676 34.0654 50.2681C35.2326 50.3974 35.1373 52.1374 33.9615 52.1374H19.3079C18.7821 52.1374 18.3558 52.5636 18.3558 53.0896C18.3558 53.6155 18.7821 54.0418 19.3079 54.0418ZM33.4821 48.3578H13.4913C12.1242 44.8272 10.1349 41.6224 7.57036 38.8236C-4.95903 25.1519 4.62708 2.81332 23.3219 2.67837C23.3756 2.67799 23.429 2.67773 23.4827 2.67773C42.1273 2.67773 52.0451 24.9588 39.4238 38.7899C36.8503 41.6103 34.854 44.8264 33.4821 48.3578Z" fill="#006BFF"/>
<path d="M41.0285 19.1295L33.8446 16.6672C33.3475 16.4969 32.8057 16.7618 32.6353 17.2592C32.4649 17.7566 32.7299 18.2982 33.2273 18.4686L38.3423 20.2218L24.8614 24.8423C23.9711 25.1473 22.9904 25.1472 22.1 24.8423L8.61905 20.2218L22.1 15.6013C22.9904 15.2961 23.9711 15.2964 24.8614 15.6013L28.9875 17.0156C29.4849 17.1865 30.0265 16.921 30.1969 16.4236C30.3673 15.9262 30.1023 15.3846 29.6049 15.2143L25.4788 13.8C24.1905 13.3583 22.7712 13.3583 21.4825 13.8L5.9326 19.1294C5.46579 19.2896 5.15234 19.7287 5.15234 20.2221C5.15247 20.7155 5.4663 21.1544 5.93273 21.3141L10.8131 22.9867V31.3519C10.8131 32.9905 12.1462 34.3236 13.7848 34.3236H33.1762C34.8148 34.3236 36.1479 32.9905 36.1479 31.3519V22.9867L39.9044 21.6993V26.4096C39.9044 26.9356 40.3305 27.3618 40.8565 27.3618C41.3825 27.3618 41.8087 26.9356 41.8087 26.4096V20.2252C41.8087 20.2242 41.8088 20.2232 41.8088 20.2222C41.809 19.7287 41.4955 19.2896 41.0285 19.1295ZM34.2438 31.352C34.2438 31.9407 33.765 32.4195 33.1764 32.4195H13.7849C13.1963 32.4195 12.7175 31.9407 12.7175 31.352V23.6395L21.4826 26.6436C22.7739 27.0862 24.1928 27.0844 25.4789 26.6436L34.2439 23.6395V31.352H34.2438Z" fill="#006BFF"/>
</svg>
