<svg width="79" height="107" viewBox="0 0 79 107" fill="none" xmlns="http://www.w3.org/2000/svg">
<path opacity="0.05" d="M63.3007 99.1524C59.9007 97.0524 57.3007 95.2524 54.6007 93.6524C53.0007 92.7524 51.2007 91.7524 49.4007 94.5524C54.4007 98.4524 58.9007 102.652 64.4007 105.652C66.7007 106.952 68.2007 106.352 69.8007 104.152C70.4007 103.352 70.8007 102.452 71.2007 101.652C73.3007 97.1524 75.4007 92.6524 77.4007 88.0524C78.1007 86.5524 78.7007 84.8524 76.8007 83.8524C75.1007 82.9524 73.6007 83.8524 72.6007 85.2524C71.5007 86.8524 70.7007 88.5524 69.8007 90.2524C69.2007 91.4524 68.6007 92.7524 67.4007 93.7524C67.4007 93.1524 67.4007 92.5524 67.4007 91.9524C67.4007 85.2524 65.8007 82.8524 59.6007 80.2524C54.6007 78.2524 49.5007 77.2524 44.1007 77.7524C42.8007 77.8524 41.5007 77.9524 40.3007 78.0524C35.0007 78.2524 33.2007 76.1524 34.6007 71.0524C35.3007 68.4524 36.6007 65.9524 37.6007 63.4524C40.8007 55.9524 39.3007 51.4524 32.1007 47.4524C26.7007 44.4524 20.9007 42.6524 14.7007 42.2524C12.8007 42.1524 10.8007 42.0524 9.00067 41.6524C6.00067 40.9524 5.20066 39.4524 6.60066 36.7524C8.00066 33.8524 9.90066 31.2524 11.7007 28.5524C12.9007 26.6524 14.4007 24.9524 15.5007 22.9524C17.7007 18.8524 18.0007 14.5524 15.1007 10.6524C12.9007 7.7524 10.4007 4.95238 7.80067 2.35238C6.10067 0.652382 3.80066 -0.247597 0.700663 1.2524C1.50066 2.1524 2.20067 2.85239 2.90067 3.6524C5.50067 6.4524 8.10067 9.2524 10.5007 12.2524C12.8007 15.1524 12.4007 18.2524 10.4007 21.1524C8.60067 23.6524 6.60067 25.9524 4.90067 28.4524C3.40067 30.7524 1.80067 33.0524 0.900668 35.5524C-1.19933 40.9524 1.30067 45.6524 7.00067 46.9524C9.60067 47.5524 12.4007 47.7524 15.1007 47.8524C20.5007 48.1524 25.5007 49.8524 30.1007 52.4524C33.9007 54.6524 34.4007 56.3524 32.8007 60.3524C31.5007 63.6524 29.9007 66.8524 29.1007 70.2524C28.5007 72.4524 28.7007 75.0524 29.3007 77.3524C30.3007 81.3524 33.3007 83.4524 37.4007 83.5524C39.6007 83.5524 41.9007 83.4524 44.1007 83.0524C49.2007 82.2524 54.0007 83.5524 58.6007 85.3524C60.8007 86.2524 62.2007 87.6524 62.2007 90.3524C62.2007 93.0524 62.8007 95.6524 63.3007 99.1524Z" fill="black"/>
</svg>
