<svg width="91" height="93" viewBox="0 0 91 93" fill="none" xmlns="http://www.w3.org/2000/svg">
<g opacity="0.2">
<path d="M16.219 80.0535C20.7578 83.6927 25.7763 86.7362 31.2163 88.6173C36.6479 90.5001 42.4788 91.106 48.1135 90.3311C59.4784 88.8887 69.6364 82.2435 77.019 73.6678C92.1392 56.6255 89.6624 27.4759 72.6526 12.8388C64.2732 5.46132 52.5738 2.31539 41.3932 3.33103C30.1871 4.27498 19.2403 9.42315 11.9875 18.0501C4.75 26.7265 1.26781 38.3919 1.81916 49.7875C2.05472 55.4955 3.31449 61.2019 5.71617 66.4354C8.11785 71.657 11.67 76.4057 16.219 80.0535C11.4447 76.7027 7.56477 72.0769 4.90192 66.8314C2.21176 61.5928 0.651623 55.7857 0.148071 49.8933C-0.758321 38.1222 2.4951 25.8611 9.94766 16.3943C13.6705 11.6576 18.5149 7.8374 23.8901 5.1609C29.2601 2.4622 35.1338 0.816693 41.1047 0.238036C52.9937 -0.943176 65.6251 2.25223 74.8836 10.2613C84.0841 18.3095 89.1742 30.2053 89.9765 42.125C90.3811 48.1079 89.7273 54.1744 87.9162 59.9097C86.1478 65.6519 83.036 71.0152 78.9701 75.4038C74.9673 79.7889 70.3261 83.6159 65.1403 86.5297C59.9649 89.4383 54.2192 91.4201 48.2961 91.9834C42.3764 92.5347 36.3662 91.6283 30.904 89.4605C25.4161 87.3234 20.5171 83.9675 16.219 80.0535Z" fill="#00BFAD"/>
<path d="M33.7965 3.47523C31.8813 4.28091 30.7035 5.93665 30.2068 7.69652C29.6486 9.47516 29.8398 11.2521 30.4833 12.9164C31.1627 14.5636 32.1885 16.1016 33.4841 17.4706C34.1054 18.1243 34.8377 18.9266 35.4266 19.3704C36.0548 19.8637 36.8263 20.2307 37.3333 20.2819C37.5859 20.3177 37.7071 20.2955 37.7651 20.2631C37.8385 20.2273 37.941 20.1402 37.999 20.0071C38.1714 19.7032 38.1219 18.7764 38.0861 17.6822C38.0246 16.5863 38.3063 15.0262 38.9686 13.9747C39.595 12.8652 40.4331 12.0561 41.2371 11.3597L43.5739 9.42397C43.9563 9.09623 44.2686 8.84018 44.5264 8.51074C44.8046 8.18813 45.03 7.80407 45.2365 7.40806C45.6513 6.61262 45.9073 5.70281 45.8817 4.79983C45.8766 3.90539 45.4345 2.99216 44.4632 2.55859C44.9702 2.61322 45.4994 2.79929 45.9346 3.17482C46.3631 3.55717 46.6294 4.08633 46.812 4.62402C47.1568 5.7233 47.0749 6.8806 46.812 7.985C46.6618 8.53464 46.4553 9.07574 46.1634 9.59124C45.8851 10.1238 45.4874 10.6018 45.1648 10.9978C44.4769 11.8222 43.7378 12.5323 43.1079 13.2561C42.4763 13.9781 41.9336 14.6916 41.6109 15.3761C41.2849 16.105 41.2234 16.6205 41.3139 17.5405C41.3498 18.4486 41.6468 19.6111 41.1005 21.2344C40.7865 22.0418 40.1993 22.7689 39.385 23.2247C38.5572 23.6975 37.6115 23.7692 36.869 23.6617C33.9347 23.0916 32.3797 21.1268 31.0346 19.5667C29.6998 17.8683 28.4811 15.9343 27.9485 13.7016C27.3545 11.5167 27.5763 8.98699 28.6739 7.04448C29.7135 5.08831 31.685 3.51791 33.7965 3.47523Z" fill="#00BFAD"/>
<path d="M61.1161 5.02344C58.2194 6.11077 56.5892 9.21229 56.8999 11.8973C56.9887 12.5801 57.1764 13.169 57.5007 13.8211C57.8046 14.4799 58.2091 15.1969 58.4225 16.1237C58.6478 17.0574 58.5215 18.1448 58.0555 19.0341C57.6032 19.932 56.9204 20.6079 56.2171 21.1217C54.8174 22.1544 53.2385 22.7621 51.8678 23.3186C50.5313 23.8802 49.2442 24.5322 48.0698 25.2952C45.692 26.7973 43.9543 28.9618 43.8434 31.2883L42.9319 29.7145C44.4289 30.4673 46.4414 30.2352 48.389 29.5063C50.3367 28.8252 52.2792 27.5877 54.546 26.572C55.6777 26.0668 56.905 25.6161 58.2347 25.3788C59.5218 25.1433 61.1058 25.1808 62.4339 25.652C63.7755 26.106 65.0182 26.8571 65.9928 27.9888C66.9812 29.0847 67.5922 30.7643 67.3157 32.3569L67.1621 31.5119C67.2133 31.6075 67.1689 31.599 67.3089 31.657C67.4437 31.7014 67.7322 31.6878 68.0139 31.5802C68.6096 31.3395 69.0876 30.9384 69.2548 30.3393C69.4989 29.6394 69.5347 28.7586 69.5296 27.801C69.5518 26.811 69.4426 25.8619 69.7737 24.6175C70.1612 23.3937 71.0096 22.6153 71.8169 21.9684C72.6516 21.3351 73.5393 20.8418 74.4559 20.4338C76.2858 19.6315 78.2163 19.0802 80.1776 18.9761C78.2897 19.4608 76.5315 20.3126 74.9287 21.3163C74.135 21.8301 73.3686 22.378 72.7302 23.0181C72.0986 23.6463 71.578 24.3922 71.4688 25.0699C71.2144 26.5635 72.0013 28.5914 71.5148 30.9521C71.4056 31.512 71.0386 32.2818 70.605 32.7427C70.1629 33.2479 69.6355 33.6405 69.0295 33.9256C68.4235 34.2004 67.7203 34.3916 66.8924 34.284C66.0714 34.2055 65.1342 33.603 64.7331 32.8297L64.53 32.4371L64.5795 31.9848C64.7365 30.5629 63.2805 29.1051 61.5104 28.6306C59.841 28.1271 57.878 28.7057 55.9235 29.5967C53.9588 30.4861 51.9856 31.8311 49.5463 32.7153C48.3378 33.137 47.0473 33.4579 45.6613 33.5244C44.2821 33.5927 42.7868 33.3469 41.4571 32.6761L40.4688 32.1776L40.5456 31.1023C40.6787 29.228 41.4366 27.3845 42.5905 26.0343C43.7154 24.6466 45.0792 23.6036 46.496 22.7672C47.9111 21.9188 49.3995 21.2719 50.9187 20.7752C52.4072 20.3007 53.7318 19.8705 54.8533 19.1673C55.9679 18.4674 56.6421 17.6156 56.5022 16.4754C56.4407 15.895 56.1727 15.2242 55.9065 14.4748C55.6316 13.7255 55.4575 12.8106 55.4695 11.9724C55.4968 8.55512 58.0419 5.51163 61.1161 5.02344Z" fill="#00BFAD"/>
<path d="M86.2008 30.3672C86.5576 33.1137 85.9021 36.0087 84.5656 38.5571C83.1761 41.08 81.0919 43.2922 78.4683 44.7483C75.8038 46.2777 72.75 46.5764 70.1964 47.0578C68.8974 47.2985 67.6752 47.5528 66.5811 47.9932C65.591 48.3994 64.6539 49.0771 63.9626 49.905C63.2389 50.7073 62.8036 51.6683 62.7712 52.503C62.7575 53.3326 63.1399 54.0973 63.9166 54.7937C64.6949 55.5089 65.8591 56.1115 67.0847 56.8028C68.312 57.4565 69.6929 58.4483 70.6419 59.621C72.5981 61.8997 73.6103 64.4858 75.377 66.1961C76.2527 67.0513 77.3947 67.7017 78.622 68.0021C79.8305 68.3059 81.2421 68.1711 82.2646 67.1998C81.8976 67.7819 81.3377 68.2735 80.6652 68.5705C79.9909 68.8607 79.2399 68.9631 78.5025 68.9409C77.0174 68.8863 75.587 68.3486 74.3307 67.5071C71.8658 65.6806 70.4883 63.1407 68.696 61.4423C67.8067 60.5803 66.8815 60.0358 65.6816 59.4452C64.5055 58.8545 63.1552 58.3083 61.8289 57.2636C60.4941 56.2463 59.4068 54.4062 59.4341 52.4705C59.4699 50.557 60.3098 48.9183 61.3766 47.6774C62.4691 46.4347 63.8244 45.4908 65.3726 44.8882C66.8303 44.3488 68.3 44.045 69.698 43.8726C72.5179 43.55 75.0271 43.3486 77.2837 42.3739C81.8157 40.3512 85.4361 35.8277 86.2008 30.3672Z" fill="#00BFAD"/>
<path d="M1.48047 45.207C4.13308 49.9319 7.84912 53.6957 12.0107 56.8228C14.1068 58.3659 16.2883 59.7946 18.5807 61.0305C20.8476 62.3192 23.1946 63.3434 25.6919 64.4734C28.1311 65.6614 30.6916 66.9587 32.8936 68.9627C33.9724 69.9749 34.9453 71.1527 35.6742 72.4688C36.4099 73.7661 36.9186 75.1094 37.3214 76.4443C38.1424 79.1054 38.6033 81.7546 39.2212 84.3304C39.8153 86.913 40.5202 89.4496 42.0241 91.7113C39.9245 89.9412 38.6682 87.333 37.6253 84.8425C36.6113 82.3094 35.7869 79.7421 34.8139 77.3455C33.7897 74.9404 32.6546 72.887 30.7496 71.3832C28.9129 69.823 26.6324 68.6589 24.2376 67.5613C21.8786 66.4228 19.3045 65.2825 16.9608 63.818C14.6257 62.3431 12.3453 60.7625 10.3208 58.8695C6.23607 55.1876 2.8136 50.4969 1.48047 45.207Z" fill="#00BFAD"/>
<path d="M46.7965 90.514C46.9092 85.5365 48.5376 80.7212 49.0667 75.9127C49.3689 73.5179 49.4764 71.1316 48.8055 68.9893C48.1415 66.8386 46.9689 64.7834 45.3319 63.3495C43.712 61.9191 41.6807 61.1408 39.8031 61.6392C38.866 61.8252 37.8828 62.3646 36.8176 62.9501C35.7491 63.5339 34.5935 64.2286 33.1033 64.6383C31.6268 65.0633 29.7201 64.9234 28.2726 63.9794C26.8285 63.0628 25.9102 61.687 25.3861 60.2634C24.8484 58.8517 24.7495 57.2062 24.9663 55.8082C25.1677 54.3778 25.6149 53.0652 26.1167 51.8532C27.1836 49.4498 28.2726 47.3793 29.2661 45.1176C30.2766 42.8951 31.2154 40.6402 32.1423 38.3802C32.9958 36.1322 34.2487 33.7151 34.0182 32.1191C33.979 31.438 33.3628 30.7211 32.8643 30.5726C32.6202 30.4975 32.5007 30.4907 32.2242 30.6341C31.9545 30.7757 31.5995 31.1513 31.1813 31.6258C30.7819 32.0935 30.1793 32.6961 29.4641 33.0989C28.7591 33.5188 27.9517 33.7288 27.1819 33.7851C25.6217 33.9012 24.2066 33.442 22.9879 32.7814C21.7759 32.1191 20.6938 31.1718 19.8813 30.1203C19.0705 29.0859 18.403 28.0071 17.768 26.9522C17.1382 25.8939 16.5237 24.8577 15.7948 23.9309C15.0488 22.9715 14.2944 22.1949 13.1814 21.9474C12.0907 21.6743 10.8736 21.8194 9.7607 22.2324C8.64264 22.6438 7.59799 23.3402 6.85547 24.3354C8.0657 22.1727 10.6671 20.7252 13.3521 21.0597C14.023 21.1417 14.687 21.3994 15.2759 21.7852C15.8733 22.1846 16.3018 22.6165 16.766 23.0825C17.6673 24.0094 18.4235 25.0336 19.1626 26.0253C20.6186 28.0378 21.9945 29.9462 24.0018 30.7877C24.9782 31.2195 26.0331 31.4671 26.9412 31.3339C27.3935 31.2725 27.8083 31.1393 28.1497 30.8986C28.4945 30.6665 28.7762 30.3866 29.1551 29.8984C29.534 29.4409 29.9625 28.8332 30.7375 28.3058C31.4868 27.763 32.6919 27.5274 33.6359 27.8142C35.5169 28.3758 36.664 29.9086 36.9781 31.6582C37.2444 33.314 36.8296 34.7854 36.4285 36.0212C36.0103 37.2502 35.5938 38.3836 35.1551 39.5614C34.2794 41.8931 33.3132 44.1924 32.3181 46.4746L29.2661 53.1744C28.3563 55.2927 27.8681 57.3769 28.5235 59.1282C28.8325 60.0141 29.389 60.7823 30.0376 61.1954C30.6777 61.6067 31.4288 61.7006 32.3283 61.5094C34.206 61.1288 36.2373 59.345 39.1937 58.7186C40.66 58.4028 42.2475 58.5428 43.6164 59.0804C44.994 59.6079 46.1718 60.4494 47.1567 61.4173C49.1197 63.3717 50.3742 65.8349 50.9683 68.4363C51.5674 71.0957 51.2295 73.75 50.7106 76.1944C49.5788 81.1138 47.6722 85.6424 46.7965 90.514Z" fill="#00BFAD"/>
</g>
</svg>
