<svg width="65" height="66" viewBox="0 0 65 66" fill="none" xmlns="http://www.w3.org/2000/svg">
<path d="M28.0496 35.2824C28.4671 35.2824 28.8503 35.0054 28.9668 34.5832C29.1067 34.0764 28.8093 33.552 28.3023 33.4122C26.1172 32.8091 23.5576 32.4342 20.6946 32.2982C20.1674 32.2704 19.7234 32.6787 19.6984 33.2039C19.6735 33.7291 20.079 34.1752 20.6042 34.2001C25.5239 34.4341 27.6324 35.2824 28.0496 35.2824Z" fill="#00BFAD"/>
<path d="M20.6042 39.368C25.5237 39.6018 27.6324 40.45 28.0496 40.45C28.4671 40.45 28.8503 40.173 28.9668 39.7509C29.1067 39.244 28.8093 38.7196 28.3024 38.5799C26.1171 37.9767 23.5575 37.602 20.6946 37.466C20.1675 37.4405 19.7234 37.8466 19.6984 38.3717C19.6734 38.8971 20.0788 39.3431 20.6042 39.368Z" fill="#00BFAD"/>
<path d="M20.6042 45.0555C25.5239 45.2893 27.6324 46.1376 28.0496 46.1376C28.4671 46.1376 28.8503 45.8606 28.9668 45.4385C29.1067 44.9317 28.8093 44.4072 28.3024 44.2675C26.1172 43.6643 23.5576 43.2894 20.6946 43.1535C20.1675 43.1283 19.7234 43.5341 19.6984 44.0591C19.6734 44.5845 20.0788 45.0305 20.6042 45.0555Z" fill="#00BFAD"/>
<path d="M36.9049 35.282C37.3524 35.282 39.4074 34.4349 44.3503 34.1999C44.8755 34.175 45.2812 33.7289 45.2561 33.2037C45.2311 32.6785 44.7853 32.2728 44.2599 32.298C41.3969 32.4339 38.8373 32.8088 36.6521 33.412C36.1453 33.5519 35.8478 34.0762 35.9877 34.583C36.1042 35.0051 36.4874 35.282 36.9049 35.282Z" fill="#00BFAD"/>
<path d="M36.9049 40.45C37.3524 40.45 39.4074 39.603 44.3503 39.368C44.8755 39.3431 45.2812 38.897 45.2562 38.3718C45.2311 37.8466 44.7853 37.439 44.26 37.4661C41.397 37.6021 38.8374 37.9769 36.6522 38.58C36.1452 38.7199 35.8478 39.2441 35.9877 39.751C36.1042 40.1732 36.4872 40.45 36.9049 40.45Z" fill="#00BFAD"/>
<path d="M36.905 46.1417C37.2835 46.1417 37.9077 45.8054 40.4185 45.4333C40.9386 45.3563 41.2977 44.872 41.2207 44.352C41.1436 43.8319 40.6604 43.4717 40.1393 43.5497C38.8907 43.7346 37.7174 43.9775 36.6522 44.2715C36.1454 44.4114 35.8478 44.9357 35.9877 45.4425C36.1043 45.8648 36.4875 46.1417 36.905 46.1417Z" fill="#00BFAD"/>
<path d="M63.485 24.2287L58.5474 20.6587V11.9379C59.525 11.6656 60.2452 10.7694 60.2452 9.70632V8.38258C60.2452 7.10416 59.2052 6.06403 57.9266 6.06403H49.9071C48.6287 6.06403 47.5886 7.10416 47.5886 8.38258V9.70632C47.5886 10.7694 48.3088 11.6656 49.2863 11.9379V13.9627L34.1234 2.999C33.1524 2.29721 31.8475 2.29721 30.8765 2.999L1.51501 24.2287C-0.505067 25.6893 -0.50494 28.6917 1.51501 30.1522C2.79559 31.0781 4.51694 31.0784 5.7979 30.1522L7.10679 29.2058V57.7281H6.86101C5.11159 57.7281 3.68832 59.1514 3.68832 60.9008C3.68832 62.6503 5.11159 64.0736 6.86101 64.0736H58.1392C59.8886 64.0736 61.3118 62.6503 61.3118 60.9008C61.3118 59.1514 59.8886 57.7281 58.1392 57.7281H57.8934V53.4582C57.8934 52.9323 57.4671 52.506 56.9412 52.506C56.4154 52.506 55.9891 52.9322 55.9891 53.4582V57.7281H9.01096V27.829L31.9923 11.2125C32.2958 10.9931 32.7041 10.993 33.0078 11.2126L55.9891 27.829V48.9341C55.9891 49.4599 56.4154 49.8862 56.9412 49.8862C57.4671 49.8862 57.8934 49.46 57.8934 48.9341V29.2059L59.2023 30.1524C60.4831 31.0785 62.2042 31.0786 63.4851 30.1522C65.5051 28.6917 65.5048 25.6892 63.485 24.2287ZM49.4929 8.38258C49.4929 8.15406 49.6787 7.9682 49.9071 7.9682H57.9266C58.1551 7.9682 58.3409 8.15406 58.3409 8.38258V9.70632C58.3409 9.93483 58.155 10.1207 57.9266 10.1207H49.9071C49.6786 10.1207 49.4929 9.93483 49.4929 9.70632V8.38258ZM56.6431 12.0249V19.2819L51.1906 15.3395V12.0249H56.6431ZM58.139 59.6323C58.8384 59.6323 59.4075 60.2013 59.4075 60.9008C59.4075 61.6003 58.8385 62.1694 58.139 62.1694H6.86088C6.1615 62.1694 5.59236 61.6004 5.59236 60.9008C5.59236 60.2014 6.1615 59.6323 6.86088 59.6323H58.139ZM62.3694 28.6091C61.7558 29.0528 60.9314 29.0528 60.3179 28.6091L34.1236 9.66963C33.1524 8.96732 31.8474 8.9677 30.8765 9.6695L4.68211 28.6091C4.06867 29.0531 3.24424 29.0527 2.63067 28.6093C1.66329 27.9097 1.66304 26.4715 2.63067 25.7721L31.9921 4.54225C32.2958 4.32274 32.704 4.32249 33.0078 4.54225L62.3694 25.772C63.3369 26.4715 63.3366 27.9097 62.3694 28.6091Z" fill="#00BFAD"/>
<path d="M16.4131 34.3096C15.8872 34.3096 15.4609 34.7358 15.4609 35.2618V49.4078C15.4609 50.7203 16.5417 51.7549 17.813 51.7295C20.1447 51.6969 26.0222 51.8199 30.2177 53.6702C31.7029 54.3252 33.383 54.285 34.8055 53.6607C38.9382 51.8463 44.7271 51.7033 47.0255 51.7282C47.0343 51.7282 47.0429 51.7283 47.0517 51.7283C48.4215 51.7283 49.5406 50.6214 49.5406 49.2407V28.5806C49.5406 27.3193 48.5155 26.2777 47.2553 26.2588C44.4123 26.2166 37.3044 26.3988 32.7167 29.0115C32.5842 29.087 32.4221 29.0897 32.2849 29.0115C27.6972 26.3987 20.5891 26.2163 17.7461 26.2588C16.4861 26.2777 15.4609 27.3193 15.4609 28.5806V30.7714C15.4609 31.2973 15.8872 31.7236 16.4131 31.7236C16.9389 31.7236 17.3652 31.2974 17.3652 30.7714V28.5806C17.3652 28.3536 17.5491 28.1662 17.7749 28.1627C20.4623 28.122 27.1625 28.2856 31.3426 30.6663C31.4098 30.7045 31.4789 30.738 31.5487 30.769V52.123C31.357 52.0734 31.1687 52.0085 30.986 51.928C26.611 49.9985 20.8382 49.783 17.7861 49.8256C17.7841 49.8256 17.782 49.8256 17.7799 49.8256C17.5525 49.8256 17.3651 49.64 17.3651 49.4078V35.2618C17.3652 34.7359 16.9389 34.3096 16.4131 34.3096ZM33.453 30.769C33.5229 30.7379 33.592 30.7045 33.659 30.6663C37.8393 28.2854 44.5407 28.1214 47.2266 28.1627C47.4526 28.1661 47.6364 28.3536 47.6364 28.5806V49.2408C47.6364 49.5666 47.3715 49.8242 47.0511 49.8242C47.049 49.8242 47.047 49.8242 47.045 49.824C44.0376 49.795 38.3505 50.0249 34.0401 51.9171C33.8488 52.001 33.6523 52.0682 33.453 52.1197V30.769Z" fill="#00BFAD"/>
</svg>
