<svg width="65" height="66" viewBox="0 0 65 66" fill="none" xmlns="http://www.w3.org/2000/svg">
<g clip-path="url(#clip0_4351_666)">
<path d="M24.2139 17.166H41.0395C41.5654 17.166 41.9916 16.7397 41.9916 16.2139C41.9916 15.688 41.5654 15.2617 41.0395 15.2617H24.2139C23.688 15.2617 23.2617 15.688 23.2617 16.2139C23.2617 16.7397 23.688 17.166 24.2139 17.166Z" fill="#006BFF"/>
<path d="M24.2139 21.5059H41.0395C41.5654 21.5059 41.9916 21.0796 41.9916 20.5537C41.9916 20.0279 41.5654 19.6016 41.0395 19.6016H24.2139C23.688 19.6016 23.2617 20.0279 23.2617 20.5537C23.2617 21.0796 23.688 21.5059 24.2139 21.5059Z" fill="#006BFF"/>
<path d="M18.9111 19.807C18.3853 19.807 17.959 20.2333 17.959 20.7592V24.0239C17.959 25.4414 19.1122 26.5947 20.5298 26.5947H44.7253C46.1428 26.5947 47.2961 25.4414 47.2961 24.0239V13.0435C47.2961 11.6259 46.1428 10.4727 44.7253 10.4727H20.5298C19.1122 10.4727 17.959 11.6259 17.959 13.0435V16.3082C17.959 16.834 18.3853 17.2603 18.9111 17.2603C19.437 17.2603 19.8633 16.834 19.8633 16.3082V13.0435C19.8633 12.6759 20.1623 12.377 20.5298 12.377H44.7253C45.0928 12.377 45.3918 12.6759 45.3918 13.0435V24.0239C45.3918 24.3914 45.0928 24.6904 44.7253 24.6904H20.5298C20.1623 24.6904 19.8633 24.3914 19.8633 24.0239V20.7592C19.8633 20.2332 19.437 19.807 18.9111 19.807Z" fill="#006BFF"/>
<path d="M30.7228 63.8691H13.8405V2.67773H49.1219C50.5789 2.67773 51.7642 3.8631 51.7642 5.32001V25.9927C51.7642 26.5185 52.1903 26.9448 52.7163 26.9448C53.2423 26.9448 53.6685 26.5185 53.6685 25.9927V5.32001C53.6686 2.81307 51.629 0.773438 49.1219 0.773438H8.53384C6.02689 0.773438 3.98727 2.81307 3.98727 5.32001V8.23523H3.4905C1.66491 8.23523 0.179688 9.72046 0.179688 11.5462C0.179688 13.3718 1.66491 14.857 3.4905 14.857H3.98727V19.099H3.4905C1.66491 19.099 0.179688 20.5842 0.179688 22.4098C0.179688 24.2354 1.66491 25.7207 3.4905 25.7207H3.98727V29.9628H3.4905C1.66491 29.9628 0.179688 31.448 0.179688 33.2736C0.179688 35.0992 1.66491 36.5844 3.4905 36.5844H3.98727V40.8264H3.4905C1.66491 40.8264 0.179688 42.3116 0.179688 44.1373C0.179688 45.9629 1.66491 47.4481 3.4905 47.4481H3.98727V51.6901H3.4905C1.66491 51.6901 0.179688 53.1754 0.179688 55.001C0.179688 56.8265 1.66491 58.3119 3.4905 58.3119H3.98727V61.2271C3.98727 63.7338 6.02689 65.7734 8.53384 65.7734H30.7228C31.2487 65.7734 31.675 65.3471 31.675 64.8213C31.675 64.2954 31.2487 63.8691 30.7228 63.8691ZM3.4905 12.9527C2.71494 12.9527 2.08398 12.3217 2.08398 11.5462C2.08398 10.7706 2.71494 10.1395 3.4905 10.1395H6.3882C7.16376 10.1395 7.79472 10.7705 7.79472 11.5462C7.79472 12.3217 7.16376 12.9527 6.3882 12.9527H3.4905ZM3.4905 23.8163C2.71494 23.8163 2.08398 23.1854 2.08398 22.4097C2.08398 21.6341 2.71494 21.0032 3.4905 21.0032H6.3882C7.16376 21.0032 7.79472 21.6341 7.79472 22.4097C7.79472 23.1852 7.16376 23.8163 6.3882 23.8163H3.4905ZM3.4905 34.68C2.71494 34.68 2.08398 34.049 2.08398 33.2734C2.08398 32.4979 2.71494 31.8669 3.4905 31.8669H6.3882C7.16376 31.8669 7.79472 32.4979 7.79472 33.2734C7.79472 34.049 7.16376 34.68 6.3882 34.68H3.4905ZM3.4905 45.5436C2.71494 45.5436 2.08398 44.9126 2.08398 44.1371C2.08398 43.3615 2.71494 42.7304 3.4905 42.7304H6.3882C7.16376 42.7304 7.79472 43.3614 7.79472 44.1371C7.79472 44.9126 7.16376 45.5436 6.3882 45.5436H3.4905ZM3.4905 56.4073C2.71494 56.4073 2.08398 55.7764 2.08398 55.0007C2.08398 54.2251 2.71494 53.5942 3.4905 53.5942H6.3882C7.16376 53.5942 7.79472 54.2251 7.79472 55.0007C7.79472 55.7763 7.16376 56.4073 6.3882 56.4073H3.4905ZM11.9362 63.8691H8.53384C7.0768 63.8691 5.89156 62.6838 5.89156 61.2269V58.3116H6.38833C8.21392 58.3116 9.69914 56.8264 9.69914 55.0007C9.69914 53.1751 8.21392 51.6899 6.38833 51.6899H5.89156V47.4479H6.38833C8.21392 47.4479 9.69914 45.9627 9.69914 44.1371C9.69914 42.3115 8.21392 40.8261 6.38833 40.8261H5.89156V36.5841H6.38833C8.21392 36.5841 9.69914 35.0989 9.69914 33.2733C9.69914 31.4477 8.21392 29.9625 6.38833 29.9625H5.89156V25.7205H6.38833C8.21392 25.7205 9.69914 24.2353 9.69914 22.4095C9.69914 20.584 8.21392 19.0987 6.38833 19.0987H5.89156V14.8567H6.38833C8.21392 14.8567 9.69914 13.3715 9.69914 11.5459C9.69914 9.72033 8.21392 8.23498 6.38833 8.23498H5.89156V5.32001C5.89156 3.8631 7.07692 2.67773 8.53384 2.67773H11.9362V63.8691Z" fill="#006BFF"/>
<path d="M64.2541 58.8776L53.8562 39.635C53.7445 39.4282 53.6853 39.1945 53.6853 38.9591V36.493C55.3802 36.2408 56.6847 34.776 56.6847 33.012C56.6847 31.0711 55.1057 29.4922 53.165 29.4922H43.9877C42.0469 29.4922 40.4679 31.0712 40.4679 33.012C40.4679 34.776 41.7724 36.2406 43.4673 36.493V38.9591C43.4673 39.1945 43.4081 39.428 43.2963 39.635L32.8985 58.8775C31.2168 61.9902 33.4676 65.7743 37.0111 65.7743H60.1415C63.6793 65.7743 65.9384 61.995 64.2541 58.8776ZM42.3722 33.0121C42.3722 32.1213 43.0968 31.3966 43.9877 31.3966H53.165C54.0558 31.3966 54.7804 32.1213 54.7804 33.0121C54.7804 33.9029 54.0558 34.6276 53.165 34.6276H43.9877C43.0968 34.6276 42.3722 33.9029 42.3722 33.0121ZM44.9718 40.5404C45.2334 40.0563 45.3716 39.5096 45.3716 38.9591V36.5317H51.7809V38.9591C51.7809 39.5094 51.9192 40.0562 52.1807 40.5403L56.9525 49.3713C56.5775 49.2366 56.1327 49.1476 55.5844 49.1476C54.1977 49.1476 53.4664 49.7116 52.8787 50.165C52.394 50.5389 52.0737 50.7859 51.3362 50.7859C50.5987 50.7859 50.2787 50.5389 49.794 50.165C49.2063 49.7118 48.4749 49.1476 47.0885 49.1476C45.7019 49.1476 44.9705 49.7116 44.3829 50.165C43.8982 50.5389 43.5778 50.7859 42.8405 50.7859C42.1028 50.7859 41.7822 50.539 41.2971 50.1651C40.9852 49.9248 40.6305 49.6521 40.1575 49.4495L44.9718 40.5404ZM60.1415 63.87H37.0111C34.9144 63.87 33.5757 61.6304 34.5741 59.7829L39.2439 51.1407C39.5755 51.2433 39.8191 51.4305 40.135 51.6738C40.7229 52.1267 41.4546 52.6903 42.8406 52.6903C44.2272 52.6903 44.9586 52.1263 45.5463 51.6729C46.031 51.2991 46.3513 51.052 47.0886 51.052C47.826 51.052 48.1461 51.2991 48.6308 51.6729C49.2185 52.1262 49.9499 52.6903 51.3363 52.6903C52.7229 52.6903 53.4543 52.1263 54.042 51.6729C54.5268 51.2989 54.8472 51.0519 55.5847 51.0519C56.3222 51.0519 56.6426 51.2989 57.1274 51.6728C57.5134 51.9705 57.977 52.3275 58.6594 52.5296L62.5787 59.7828C63.577 61.6306 62.2374 63.87 60.1415 63.87Z" fill="#006BFF"/>
</g>
<defs>
<clipPath id="clip0_4351_666">
<rect width="65" height="65" fill="white" transform="translate(0 0.773438)"/>
</clipPath>
</defs>
</svg>
