<svg width="65" height="66" viewBox="0 0 65 66" fill="none" xmlns="http://www.w3.org/2000/svg">
<g clip-path="url(#clip0_4699_798)">
<path d="M15.1483 58.4469C15.6741 58.4469 16.1004 58.0206 16.1004 57.4947V57.2889H58.563C59.0889 57.2889 59.5152 56.8626 59.5152 56.3368C59.5152 55.8109 59.0889 55.3846 58.563 55.3846H16.1004V55.1787C16.1004 54.6529 15.6741 54.2266 15.1483 54.2266C14.6224 54.2266 14.1961 54.6529 14.1961 55.1787V55.3846H8.99902C8.47318 55.3846 8.04688 55.8109 8.04688 56.3368C8.04688 56.8626 8.47318 57.2889 8.99902 57.2889H14.1961V57.4947C14.1961 58.0206 14.6224 58.4469 15.1483 58.4469Z" fill="#57F2D0"/>
<path d="M8.04642 26.2667V49.7638C8.04642 50.9085 8.97774 51.8399 10.1225 51.8399H57.4388C58.5835 51.8399 59.5147 50.9085 59.5147 49.7638V49.7168V48.5985V16.0126C59.5147 14.8678 58.5835 13.9365 57.4388 13.9365H29.3511V7.94926C29.3511 5.79956 27.6023 4.05078 25.4526 4.05078H3.89848C1.74878 4.05078 0 5.79956 0 7.94926V22.3682C0 24.5179 1.74878 26.2667 3.89848 26.2667H8.04642ZM41.6735 49.9356H32.4505V48.5986C32.4505 46.7051 33.102 44.8483 34.2851 43.3703C35.3027 42.0989 36.6799 41.1511 38.2195 40.6462L39.0835 42.5967C39.4478 43.4187 40.2625 43.9111 41.1129 43.9111C41.2563 43.9111 41.4008 43.8969 41.5443 43.8681L42.6956 45.7044L41.6735 49.9356ZM41.2268 41.9832C41.0728 42.0492 40.8924 41.9784 40.8246 41.8253L39.7832 39.4746L40.6113 39.1611L43.169 41.1497L41.2268 41.9832ZM47.6557 22.3243C47.6492 22.3243 47.6428 22.3243 47.6365 22.3243C47.1377 22.3243 46.6282 22.3807 46.1218 22.492C45.3978 22.6513 44.6634 22.6513 43.9391 22.492C43.4261 22.3793 42.9103 22.3233 42.4051 22.3243C41.2675 22.3276 40.3419 23.2618 40.3419 24.407V26.3812C40.3419 26.609 40.1567 26.7943 39.9289 26.7943C39.3404 26.7943 38.877 26.7943 38.4161 26.7943V24.2827C38.4161 22.1266 40.1701 20.3726 42.3262 20.3726H47.7346C49.8905 20.3726 51.6447 22.1266 51.6447 24.2827V26.7943H50.1319C49.9041 26.7943 49.7189 26.6091 49.7189 26.3812V24.407C49.7189 23.2618 48.7934 22.3275 47.6557 22.3243ZM42.2463 26.3812V24.407C42.2463 24.3105 42.3216 24.2288 42.4108 24.2286H42.4246C42.786 24.2286 43.1578 24.2701 43.5302 24.352C44.5256 24.5708 45.5353 24.5708 46.5309 24.352C46.9079 24.2691 47.2879 24.2291 47.6502 24.2286C47.7395 24.2288 47.8147 24.3106 47.8147 24.407V26.3812C47.8147 27.568 48.7118 28.5478 49.8633 28.6817C49.8426 30.5444 49.9239 31.0667 49.7779 31.9122C49.7759 31.9214 49.7745 31.9307 49.7729 31.9401C49.6246 32.7738 49.2649 33.688 48.4651 34.3767C46.4292 36.1298 43.6518 36.1476 41.5952 34.3767C40.7938 33.6867 40.4362 32.7657 40.29 31.9269C40.2895 31.924 40.2891 31.9211 40.2884 31.9183C40.146 31.0929 40.2227 30.6735 40.1997 28.6816C41.3502 28.5466 42.2463 27.5673 42.2463 26.3812ZM47.4269 38.3194L45.029 40.1835L42.6333 38.321C42.7838 37.9881 42.8826 37.6336 42.9302 37.2701C44.2743 37.6965 45.6636 37.7355 47.1306 37.2698C47.1782 37.6328 47.2767 37.9867 47.4269 38.3194ZM43.6326 49.9356L44.4648 46.4905H45.5899L46.4221 49.9356H43.6326ZM45.8124 44.5862H44.242L43.3405 43.1483L45.0289 42.4236L46.7144 43.147L45.8124 44.5862ZM49.4466 39.1611L50.2747 39.4746L49.2333 41.8253C49.1655 41.9785 48.9852 42.0495 48.8313 41.9832L46.889 41.1497L49.4466 39.1611ZM57.6104 49.7168C57.6104 49.8374 57.5123 49.9356 57.3917 49.9356H48.3812L47.3591 45.7044L48.5106 43.8676C48.6552 43.8969 48.8007 43.9111 48.9453 43.9111C49.7955 43.9111 50.6104 43.4186 50.9745 42.5967L51.8389 40.6454C53.3791 41.1499 54.757 42.0979 55.7752 43.3694C56.9588 44.8477 57.6106 46.7046 57.6106 48.5986V49.7168H57.6104ZM29.3511 22.3682V15.8408H57.4388C57.5335 15.8408 57.6104 15.9179 57.6104 16.0126V42.6448C57.4982 42.4869 57.3831 42.3308 57.2617 42.1792C55.96 40.5535 54.1791 39.3587 52.193 38.7613C52.0284 38.3013 51.6763 37.969 51.2637 37.8128L49.954 37.3171C49.6662 37.208 49.3554 37.191 49.0609 37.2538C48.9708 36.9145 49.0095 36.6936 49.0002 36.36C49.2435 36.1952 49.4799 36.0158 49.7076 35.8198C50.5279 35.1135 51.1214 34.1675 51.4557 33.0641H52.1092C53.5604 33.0641 54.7409 31.8832 54.7409 30.4316V29.4267C54.7409 28.5069 54.2659 27.6969 53.5491 27.2261V24.2825C53.5491 21.0765 50.9408 18.4682 47.7348 18.4682H42.3262C39.1202 18.4682 36.5118 21.0765 36.5118 24.2825V27.2261C35.7951 27.6969 35.32 28.5069 35.32 29.4267V30.4316C35.32 31.8832 36.5007 33.0641 37.9517 33.0641H38.6083C38.9417 34.1689 39.5338 35.1149 40.3523 35.8198C40.5803 36.0162 40.8171 36.1957 41.0607 36.3606C41.0514 36.6941 41.0902 36.915 40.9999 37.2544C40.7046 37.1908 40.3929 37.2075 40.1041 37.3168L38.7943 37.8126C38.3886 37.9662 38.0599 38.2838 37.8925 38.6841C37.8818 38.7096 37.8738 38.736 37.8645 38.7619C35.8791 39.3599 34.0991 40.5548 32.7981 42.1801C31.3457 43.9946 30.5459 46.274 30.5459 48.5984V49.9353H10.1225C10.0278 49.9353 9.95071 49.8583 9.95071 49.7636V26.2667H18.0176C18.0346 26.2667 18.0506 26.2743 18.0612 26.2875L22.3013 31.5159C22.7746 32.0996 23.5352 32.3092 24.2364 32.0606C24.941 31.8109 25.3962 31.1664 25.3962 30.4188V26.3231C25.3962 26.292 25.4215 26.2668 25.4525 26.2668C27.6021 26.2667 29.3511 24.5178 29.3511 22.3682ZM51.7674 28.6986C52.0447 28.7005 52.1704 28.6846 52.3198 28.7302C52.6184 28.8211 52.8365 29.0989 52.8365 29.4268V30.4318C52.8365 30.8333 52.5102 31.16 52.1091 31.16H51.7631C51.7738 30.8599 51.7637 31.6705 51.7674 28.6986ZM38.3023 31.1598H37.9519C37.5507 31.1598 37.2244 30.8332 37.2244 30.4316V29.4267C37.2244 29.0988 37.4424 28.821 37.7411 28.7301C37.9165 28.6768 38.079 28.7077 38.2954 28.6985C38.302 31.5983 38.2911 30.8425 38.3023 31.1598ZM1.9043 22.3682V7.94926C1.9043 6.84959 2.79881 5.95508 3.89848 5.95508H25.4526C26.5522 5.95508 27.4468 6.84959 27.4468 7.94926V22.3682C27.4468 23.4679 26.5522 24.3624 25.4526 24.3624C24.3716 24.3624 23.492 25.2419 23.492 26.3229V29.9606L19.5405 25.0879C19.1665 24.6268 18.6115 24.3623 18.0177 24.3623H3.89848C2.79881 24.3624 1.9043 23.4678 1.9043 22.3682Z" fill="#57F2D0"/>
<path d="M61.3267 8.45312H32.8533C32.3274 8.45312 31.9011 8.87943 31.9011 9.40527C31.9011 9.93111 32.3274 10.3574 32.8533 10.3574H61.3267C62.3028 10.3574 63.097 11.1516 63.097 12.1278V58.8225C63.097 59.7987 62.3028 60.5928 61.3267 60.5928H6.23716C5.26102 60.5928 4.4668 59.7987 4.4668 58.8225V29.768C4.4668 29.2422 4.04049 28.8159 3.51465 28.8159C2.98881 28.8159 2.5625 29.2422 2.5625 29.768V58.8225C2.5625 60.8487 4.21086 62.4971 6.23716 62.4971H61.3267C63.3529 62.4971 65.0013 60.8487 65.0013 58.8225V12.1278C65.0013 10.1016 63.3529 8.45312 61.3267 8.45312Z" fill="#57F2D0"/>
<path d="M5.50539 14.5796L7.94099 15.3095V18.5485C7.94099 19.7709 8.93554 20.7654 10.158 20.7654H19.1946C20.4171 20.7654 21.4115 19.7709 21.4115 18.5485V15.3095L22.829 14.8847V15.9138C22.829 16.4396 23.2553 16.8659 23.7812 16.8659C24.307 16.8659 24.7333 16.4396 24.7333 15.9138V13.5677C24.7435 13.5025 24.7491 13.4358 24.7491 13.3679C24.7491 12.8046 24.3866 12.3177 23.8472 12.1561L15.9435 9.7878C15.1145 9.53948 14.2379 9.53948 13.409 9.7878L5.50552 12.1561C4.96597 12.3177 4.60352 12.8046 4.60352 13.3679C4.60352 13.9312 4.96597 14.418 5.50539 14.5796ZM19.5072 18.5485C19.5072 18.7209 19.367 18.8611 19.1946 18.8611H10.158C9.98557 18.8611 9.84528 18.7209 9.84528 18.5485V15.8802L13.409 16.9481C13.8235 17.0722 14.2498 17.1343 14.6761 17.1343C15.1025 17.1343 15.5288 17.0722 15.9435 16.9481L19.5071 15.8802V18.5485H19.5072ZM13.9555 11.612C14.427 11.4707 14.9256 11.4707 15.3969 11.612L21.2567 13.3679L20.1814 13.6901C20.1786 13.691 20.1757 13.6917 20.1729 13.6926L15.3971 15.1238C14.9256 15.2651 14.4271 15.2652 13.9556 15.1238L9.17941 13.6926C9.17675 13.6917 9.17395 13.691 9.17116 13.6902L8.09574 13.3679L13.9555 11.612Z" fill="#57F2D0"/>
</g>
<defs>
<clipPath id="clip0_4699_798">
<rect width="65" height="65" fill="white" transform="translate(0 0.773438)"/>
</clipPath>
</defs>
</svg>
