<svg width="65" height="66" viewBox="0 0 65 66" fill="none" xmlns="http://www.w3.org/2000/svg">
<g clip-path="url(#clip0_4699_805)">
<path d="M40.5495 12.3995C42.8231 12.5075 44.8429 12.8015 46.5529 13.2734C46.6375 13.2969 46.7228 13.3079 46.8066 13.3079C47.2243 13.3079 47.6075 13.0309 47.724 12.6089C47.864 12.102 47.5664 11.5777 47.0595 11.4378C45.2141 10.9283 43.0542 10.612 40.6399 10.4973C40.1148 10.4707 39.6686 10.8779 39.6437 11.4033C39.6185 11.9285 40.0243 12.3745 40.5495 12.3995Z" fill="#FF723A"/>
<path d="M40.5494 16.7353C42.8234 16.8434 44.8431 17.1374 46.5529 17.6093C46.6375 17.6328 46.7228 17.6438 46.8066 17.6438C47.2243 17.6438 47.6075 17.3668 47.724 16.9448C47.864 16.4379 47.5664 15.9136 47.0595 15.7737C45.2143 15.2643 43.0543 14.948 40.64 14.8331C40.1106 14.8087 39.6686 15.2137 39.6437 15.739C39.6185 16.2642 40.0243 16.7103 40.5494 16.7353Z" fill="#FF723A"/>
<path d="M40.5494 21.5087C42.8232 21.6168 44.8431 21.9108 46.5529 22.3827C46.6377 22.4062 46.7228 22.4172 46.8066 22.4172C47.2243 22.4172 47.6076 22.1402 47.724 21.7181C47.864 21.2112 47.5664 20.6869 47.0595 20.547C45.2143 20.0376 43.0543 19.7212 40.64 19.6065C40.1106 19.5825 39.6686 19.9871 39.6437 20.5124C39.6185 21.0376 40.0243 21.4837 40.5494 21.5087Z" fill="#FF723A"/>
<path d="M60.4058 10.4971C57.9914 10.6117 55.8316 10.9282 53.9862 11.4375C53.4793 11.5774 53.1817 12.1018 53.3217 12.6087C53.4383 13.0308 53.8214 13.3077 54.2391 13.3077C54.3229 13.3077 54.4082 13.2965 54.4929 13.2732C56.2028 12.8013 58.2226 12.5073 60.4962 12.3992C61.0215 12.3742 61.4272 11.9282 61.4022 11.4029C61.377 10.8777 60.9309 10.4735 60.4058 10.4971Z" fill="#FF723A"/>
<path d="M60.4057 14.833C57.9913 14.9478 55.8315 15.2641 53.9862 15.7736C53.4793 15.9135 53.1817 16.4378 53.3217 16.9447C53.4383 17.3669 53.8214 17.6437 54.2391 17.6437C54.3229 17.6437 54.4082 17.6326 54.4929 17.6092C56.2027 17.1373 58.2224 16.8433 60.4963 16.7353C61.0215 16.7103 61.4272 16.2643 61.4022 15.7389C61.377 15.2136 60.9352 14.8096 60.4057 14.833Z" fill="#FF723A"/>
<path d="M56.9316 19.9401C55.8769 20.0964 54.8859 20.3015 53.9862 20.5499C53.4793 20.6898 53.1817 21.2141 53.3217 21.721C53.4383 22.1432 53.8214 22.4201 54.2391 22.4201C54.3229 22.4201 54.4082 22.409 54.4929 22.3856C55.3182 22.1578 56.2326 21.9689 57.2109 21.824C57.731 21.7469 58.0903 21.2627 58.0131 20.7426C57.9359 20.2222 57.4514 19.863 56.9316 19.9401Z" fill="#FF723A"/>
<path d="M43.7065 37.3012C43.703 36.3396 43.0129 35.5633 42.1394 35.3929C41.961 34.8346 41.7339 34.292 41.4612 33.7729C41.9574 33.0132 41.87 31.9808 41.2022 31.3177L39.5881 29.715C38.8998 29.0314 37.8628 28.9899 37.1365 29.4802C36.6168 29.2121 36.0739 28.9894 35.5156 28.8154C35.3394 27.9442 34.5609 27.2617 33.6034 27.2617C33.601 27.2617 33.5987 27.2617 33.5963 27.2617L31.3287 27.2696C30.3634 27.2729 29.5897 27.9668 29.4202 28.8366C28.8618 29.0149 28.3191 29.2421 27.8002 29.5148C27.0407 29.0186 26.0083 29.106 25.3451 29.7739L23.7492 31.3808C23.0693 32.0656 23.0167 33.1002 23.509 33.8366C23.2402 34.3571 23.017 34.9009 22.8427 35.4602C21.9726 35.6361 21.2856 36.4158 21.2891 37.3795L21.2969 39.6473C21.3001 40.6111 21.9923 41.3855 22.8639 41.5556C23.042 42.1135 23.2689 42.6554 23.5412 43.1739C23.048 43.9201 23.1182 44.9528 23.7967 45.6262L25.4012 47.2196C26.068 47.8817 27.1031 47.964 27.8617 47.4657C28.3831 47.7351 28.9277 47.9586 29.4878 48.1333C29.6637 49.0027 30.441 49.687 31.4 49.687H31.4071L33.675 49.6791C34.6367 49.6757 35.4141 48.9844 35.5841 48.1117C36.1417 47.9336 36.6835 47.7068 37.2021 47.4344C37.9405 47.9207 38.9752 47.8629 39.6563 47.177L41.2564 45.5656C41.9303 44.8869 41.9928 43.854 41.4948 43.1113C41.7633 42.5909 41.9865 42.0473 42.1607 41.4883C43.0309 41.3123 43.7175 40.533 43.7143 39.5691L43.7065 37.3012ZM41.748 39.6225C41.1308 39.6297 40.5862 40.0501 40.4236 40.6449C40.2477 41.2881 39.993 41.9092 39.6664 42.4905C39.3676 43.0222 39.4539 43.6977 39.8727 44.1297C39.897 44.1551 39.941 44.1876 39.905 44.2238L38.3049 45.8353C38.2892 45.8507 38.2613 45.8569 38.2413 45.8376L38.2122 45.8091C37.7734 45.39 37.0974 45.3086 36.5681 45.6108C35.9889 45.9415 35.3697 46.2006 34.728 46.3809C34.1341 46.5474 33.7174 47.0951 33.7147 47.7169C33.7078 47.7296 33.7305 47.7746 33.6684 47.7748L31.4005 47.7827C31.4005 47.7827 31.4004 47.7827 31.4003 47.7827C31.3417 47.7827 31.3546 47.7254 31.3524 47.6688C31.3295 47.0683 30.9192 46.5568 30.3316 46.3962C29.6887 46.2206 29.0679 45.9658 28.4863 45.6393C27.5562 45.1172 26.8346 45.8637 26.8219 45.8696C26.7996 45.8903 26.7649 45.8899 26.7434 45.8685L25.1384 44.2751C25.1224 44.2591 25.1181 44.2342 25.1455 44.207L25.1672 44.1848C25.5861 43.7463 25.6676 43.0703 25.3654 42.5405C25.0346 41.961 24.7755 41.3416 24.5952 40.6997C24.4309 40.1141 23.9173 39.7076 23.317 39.6883C23.2582 39.6864 23.2016 39.7 23.2016 39.6409L23.1938 37.373C23.1938 37.3103 23.2426 37.333 23.2553 37.3263C23.8728 37.3192 24.4176 36.8987 24.5802 36.3037C24.756 35.6606 25.0107 35.0398 25.3372 34.4586C25.6361 33.9268 25.5497 33.2509 25.1264 32.8141C25.1187 32.8013 25.0582 32.7662 25.1008 32.7229L26.6968 31.1158C26.7153 31.097 26.7456 31.0962 26.7652 31.114C26.7674 31.1161 26.7695 31.1183 26.7717 31.1203C27.2137 31.5545 27.9026 31.6413 28.4477 31.3313C29.0232 31.0038 29.6384 30.747 30.2762 30.568C30.87 30.4013 31.2865 29.8536 31.2892 29.232L31.2889 29.2096C31.2884 29.1953 31.3072 29.1743 31.3355 29.1741L33.6033 29.1663H33.6035C33.6624 29.1663 33.6489 29.2225 33.6515 29.2814C33.6749 29.8814 34.0848 30.3923 34.6717 30.5525C35.3151 30.7282 35.9363 30.983 36.518 31.3097C37.0493 31.6082 37.7251 31.522 38.1622 31.0987C38.1789 31.0914 38.2075 31.0274 38.2465 31.0664L39.8605 32.6692C39.9061 32.7142 39.8442 32.751 39.8369 32.7637C39.4175 33.2024 39.336 33.8786 39.6384 34.4085C39.9691 34.9878 40.2282 35.6071 40.4083 36.249C40.5727 36.8347 41.0863 37.2414 41.687 37.2607C41.7458 37.2625 41.8022 37.2492 41.8022 37.3082L41.81 39.5758C41.81 39.6388 41.7606 39.6159 41.748 39.6225Z" fill="#FF723A"/>
<path d="M28.3736 34.3504C26.0994 36.6246 26.0994 40.3251 28.3736 42.5994C30.6478 44.8737 34.3483 44.8738 36.6227 42.5994C38.8968 40.3251 38.8968 36.6246 36.6227 34.3504C34.3431 32.0708 30.6532 32.0706 28.3736 34.3504ZM35.276 41.2528C33.7446 42.7845 31.252 42.7848 29.7201 41.2528C28.1885 39.721 28.1885 37.2287 29.7201 35.6969C31.2555 34.1615 33.7405 34.1614 35.276 35.6969C36.8077 37.2287 36.8077 39.721 35.276 41.2528Z" fill="#FF723A"/>
<path d="M62.1216 27.1106C63.7088 27.1007 65 25.8 65 24.2111V7.52843C65 6.38662 64.0722 5.44373 62.9319 5.4266C59.0687 5.36718 53.9864 5.85316 50.6416 7.76139C50.5809 7.79605 50.5026 7.7944 50.4371 7.75708C47.0851 5.84833 42.0073 5.36934 38.1554 5.4266C37.0146 5.44386 36.0864 6.38674 36.0864 7.52856V22.7973H11.0966C10.075 22.7973 9.24397 23.6284 9.24397 24.6498V52.2469H6.83186V22.9157C6.83186 21.5203 7.96694 20.3852 9.36241 20.3852H32.5872C33.1132 20.3852 33.5394 19.9589 33.5394 19.4331C33.5394 18.9072 33.1132 18.4809 32.5872 18.4809H9.36241C6.91704 18.4809 4.92756 20.4703 4.92756 22.9157V52.2469H2.71527C1.21812 52.2467 0 53.4648 0 54.9619C0 58.3608 2.76517 61.126 6.16408 61.126H58.836C62.2348 61.126 65.0001 58.3608 65.0001 54.9619C65.0001 53.4648 63.782 52.2468 62.2849 52.2468H60.0724V30.6821C60.0724 30.1563 59.6463 29.73 59.1203 29.73C58.5943 29.73 58.1681 30.1563 58.1681 30.6821V52.2468H55.756V27.7301C58.132 27.2314 60.5677 27.1201 62.1216 27.1106ZM37.9907 7.52843C37.9907 7.4209 38.0776 7.33216 38.1839 7.33051C40.4263 7.29776 46.0185 7.4322 49.4948 9.41178C49.5264 9.42981 49.5587 9.44619 49.5911 9.46244V27.1052C46.3017 25.5683 41.7966 25.1574 38.1891 25.2093C38.188 25.2093 38.187 25.2093 38.1861 25.2093C38.0796 25.2093 37.9909 25.1224 37.9909 25.0114V7.52843H37.9907ZM11.1483 24.7015H36.0864V25.0115C36.0864 26.1754 37.0336 27.1295 38.2158 27.1135C40.2846 27.0851 45.4726 27.2019 48.9718 28.9188C49.9509 29.3992 51.1333 29.4006 52.1148 28.9188C52.659 28.6517 53.2444 28.4242 53.8517 28.2289V52.2469H11.1483V24.7015ZM39.5492 54.151C39.1718 55.0781 38.2621 55.7342 37.2011 55.7342H27.7991C26.7379 55.7342 25.8282 55.0782 25.4509 54.151H39.5492ZM62.2847 54.151C62.7319 54.151 63.0957 54.5147 63.0957 54.9618C63.0957 57.3107 61.1848 59.2216 58.8359 59.2216H6.16408C3.8152 59.2217 1.9043 57.3107 1.9043 54.9619C1.9043 54.5148 2.26802 54.1511 2.71527 54.1511H23.4634C23.9004 56.1428 25.6779 57.6386 27.7991 57.6386H37.2011C39.3222 57.6386 41.0997 56.143 41.5368 54.1511C45.8126 54.151 57.6288 54.151 62.2847 54.151ZM51.4954 27.1052V9.46269C51.5256 9.44733 51.5558 9.43209 51.5854 9.41521C55.0613 7.4322 60.6562 7.29649 62.9032 7.33051C63.0094 7.33216 63.0957 7.42078 63.0957 7.52831V24.211C63.0957 24.7471 62.6443 25.2028 62.1099 25.2061C58.7205 25.2272 54.5525 25.6789 51.4954 27.1052Z" fill="#FF723A"/>
</g>
<defs>
<clipPath id="clip0_4699_805">
<rect width="65" height="65" fill="white" transform="translate(0 0.773438)"/>
</clipPath>
</defs>
</svg>
