<svg width="93" height="95" viewBox="0 0 93 95" fill="none" xmlns="http://www.w3.org/2000/svg">
<path fill-rule="evenodd" clip-rule="evenodd" d="M63.0824 18.7984C62.3267 18.5942 62.0567 18.6629 61.0425 19.6246C59.47 21.0605 55.9492 27.1699 51.6454 36.0458C47.6841 44.106 47.3396 44.7388 41.5078 53.7258C39.1532 57.3282 37.2186 60.5165 37.1489 60.8464C36.9312 61.7047 38.2094 62.8911 38.9148 62.4886C39.5912 62.1084 46.9519 52.4103 50.0284 47.8858C51.1239 46.3087 53.7012 41.6138 55.8226 37.4067C59.6425 29.8235 63.6675 22.2675 64.074 21.9559C64.4224 21.6889 64.5125 19.8223 64.2232 19.4449C64.0674 19.2417 63.5595 18.9397 63.0824 18.7984Z" fill="#00BFAD"/>
<path fill-rule="evenodd" clip-rule="evenodd" d="M76.8149 40.8616C76.5566 40.6449 76.0912 40.2181 75.7593 39.9655C74.5634 38.9465 71.2336 40.2545 70.3964 42.0484C70.0383 42.7838 70.4746 44.6156 71.1867 45.5446C71.9211 46.5026 73.4054 47.1162 74.5811 46.9064C75.8952 46.6365 77.5209 45.3903 77.9265 44.2959C78.1752 43.5983 77.8638 41.8091 77.4497 41.3891C77.3761 41.3533 77.0733 41.0784 76.8149 40.8616Z" fill="#00BFAD"/>
<path fill-rule="evenodd" clip-rule="evenodd" d="M68.5188 48.5588C67.5821 48.5394 64.1816 50.7773 61.8562 52.9746C55.8002 58.7229 46.8032 67.97 46.5119 68.7924C46.1219 69.9671 46.834 70.8961 48.0697 70.8246C49.8318 70.7183 55.2529 65.8254 61.8916 58.4321C63.6412 56.4457 66.0518 53.9987 67.2044 52.977C68.386 51.933 69.5008 50.8019 69.7089 50.4119C70.1473 49.6611 69.5068 48.585 68.5188 48.5588Z" fill="#00BFAD"/>
<path fill-rule="evenodd" clip-rule="evenodd" d="M38.3888 10.8139C36.7371 10.2826 35.9475 10.3347 35.1636 10.9356C32.8992 12.6714 35.0732 16.9505 38.0622 16.6411C41.8255 16.1992 42.0958 11.9822 38.3888 10.8139Z" fill="#00BFAD"/>
<path fill-rule="evenodd" clip-rule="evenodd" d="M35.7123 23.5569C35.3175 23.583 34.7504 23.9255 34.5269 24.2351C33.9995 24.8698 33.047 28.9184 31.9095 35.5515C31.4767 38.2338 30.4438 43.6806 29.6809 47.6759C28.9404 51.7003 28.2627 55.446 28.2617 56.046C28.2538 58.08 29.8494 58.8387 30.4524 57.0399C32.2497 51.929 36.3056 34.0714 37.4316 26.3409C37.633 24.6195 36.8367 23.3402 35.7123 23.5569Z" fill="#00BFAD"/>
<path fill-rule="evenodd" clip-rule="evenodd" d="M69.9682 71.1363C66.9375 70.9706 53.2389 77.6918 52.8343 79.569C52.6814 80.3315 53.1797 81.1017 53.8822 81.1163C55.3607 81.1813 68.4128 75.6009 70.416 74.0654C70.9385 73.6649 71.4011 73.1259 71.4417 72.8182C71.5212 72.0199 70.7733 71.1645 69.9682 71.1363Z" fill="#00BFAD"/>
<path fill-rule="evenodd" clip-rule="evenodd" d="M14.2399 32.0434C13.4551 31.8614 13.2364 31.9369 12.8116 32.5852C12.38 33.2848 12.4525 33.9205 13.2438 36.8167C14.6823 42.1205 16.6979 52.9274 17.0053 57.1164C17.3466 61.0489 17.7355 61.8569 18.8677 60.989C20.8709 59.4535 19.501 43.9575 16.5049 35.2388C15.5549 32.5564 15.3991 32.3532 14.2399 32.0434Z" fill="#00BFAD"/>
</svg>
