<svg width="138" height="141" viewBox="0 0 138 141" fill="none" xmlns="http://www.w3.org/2000/svg">
<g opacity="0.1">
<path fill-rule="evenodd" clip-rule="evenodd" d="M29.0041 0.834746C28.1531 1.47298 27.7986 2.89127 27.444 6.79157C26.9476 11.8265 25.1038 17.7124 21.6999 24.3075C18.2251 31.1153 12.481 36.3629 7.02056 37.7812C4.18398 38.5613 0 42.6743 0 44.8018C0 46.4328 1.56014 47.4965 5.95684 48.9148C9.78622 50.1204 12.1265 52.3896 14.2539 56.7154C16.4522 61.3958 18.8633 71.4656 19.5725 78.9826C20.5653 90.258 21.5581 92.4563 25.6002 92.4563C28.9332 92.4563 29.7841 91.109 30.4933 84.7976C31.9825 71.3238 37.4429 61.5376 46.52 56.1481C51.9804 52.886 52.335 52.5314 52.335 49.553C52.335 47.2129 52.0513 46.6455 50.0657 44.9436C44.2507 39.7668 40.8468 35.9374 39.4286 32.8881C36.2374 26.1512 35.8118 23.8111 35.1027 12.8193C34.4645 1.47298 34.039 0.0546875 31.3443 0.0546875C30.706 0.0546875 29.5714 0.409259 29.0041 0.834746ZM30.4224 32.8172C32.6916 38.9868 35.0318 42.8871 39.003 46.5037L41.9815 49.2694L39.4995 50.5458C36.1665 52.2478 31.2024 57.2827 28.8623 61.4667C27.6567 63.5941 26.8057 64.4451 26.593 63.8778C26.4511 63.3814 25.742 61.1121 25.0329 58.9847C23.4018 53.8079 20.1398 48.4184 17.1614 45.5818L14.7503 43.3126L17.7996 41.1142C20.8489 38.9159 25.6002 33.1009 27.444 29.3424C28.0113 28.2787 28.5077 27.4277 28.5077 27.4986C28.4368 27.6404 29.3586 29.9806 30.4224 32.8172Z" fill="#1F1C35"/>
<path fill-rule="evenodd" clip-rule="evenodd" d="M111.478 39.981C109.705 40.6192 108.783 44.0941 108.287 51.3273C107.649 61.1845 106.372 64.872 100.061 74.5873C96.3733 80.3314 88.9982 87.9902 84.8143 90.4013C83.2542 91.3232 80.3466 92.5287 78.2192 93.096C75.8081 93.7342 74.177 94.5852 73.397 95.6489C72.2623 97.1381 72.2624 97.2091 73.4679 99.9038C74.1062 101.393 74.9572 102.811 75.2408 103.024C75.5245 103.237 78.0065 103.662 80.6303 104.017C90.4874 105.293 95.8769 108.059 99.8481 113.803C102.117 116.994 104.458 124.724 106.443 135.361C107.152 139.12 108.358 140.609 110.982 140.609C113.747 140.609 114.598 138.978 115.095 133.163C115.804 124.866 119.137 116.569 123.888 111.321C127.15 107.704 133.958 102.244 135.164 102.244C136.582 102.244 138 100.542 138 98.9819C138 97.28 134.313 93.7342 132.398 93.7342C129.774 93.7342 123.179 85.7209 121.052 79.9768C118.711 73.8073 116.584 59.6953 116.513 50.0509C116.442 42.1794 116.3 41.2575 115.308 40.4065C114.173 39.5555 112.896 39.4137 111.478 39.981ZM114.102 86.43C116.017 90.2594 121.619 96.3581 124.172 97.3509C126.37 98.2728 126.37 98.6273 124.172 99.9747C120.981 101.889 115.308 108.059 113.251 111.888L111.265 115.647L109.563 112.101C106.514 105.648 100.983 100.684 94.0332 98.2019C92.4021 97.6345 90.9129 97.1381 90.842 97.0672C90.7711 96.9254 92.6148 95.0816 95.0259 92.7414C100.203 87.7065 103.961 82.8134 107.294 76.7148L109.776 72.2471L111.124 77.6366C111.833 80.686 113.18 84.5863 114.102 86.43Z" fill="#1F1C35"/>
</g>
</svg>
