<svg width="128" height="121" viewBox="0 0 128 121" fill="none" xmlns="http://www.w3.org/2000/svg">
<path opacity="0.1" fill-rule="evenodd" clip-rule="evenodd" d="M100.386 29.203C99.381 29.0606 96.8961 30.0964 92.5967 32.3536C86.2108 35.8332 54.6692 51.2415 51.9123 52.2783C50.5549 52.8281 50.657 52.3044 52.8965 48.0676C56.7523 40.5591 59.6485 24.8713 60.117 9.08891C60.2979 3.14434 59.6388 0.949542 57.3759 0.289149C55.2599 -0.288132 53.5527 1.49787 47.5517 11.0872C40.3249 22.5024 34.2957 30.5639 28.0492 36.9521C24.1765 40.9237 21.154 43.322 11.6653 49.891C-1.32726 58.8185 -1.32722 58.8186 1.72251 62.1337C3.06858 63.5932 3.09027 63.7605 2.10829 64.0575C0.374186 64.5879 0.924684 65.946 4.20296 68.9254C8.57444 72.9885 19.0723 84.9375 29.5971 98.1421C44.0567 115.977 46.9161 118.874 51.4406 119.923C53.9333 120.519 54.6433 120.224 70.3315 110.573C89.1916 99.152 104.681 91.6374 120.329 86.6545C125.593 85.0213 126.094 84.6844 126.777 83.1328C127.77 80.8265 126.507 79.2202 123.347 78.9821C121.86 78.7999 116.374 77.9434 111.035 77.1701C100.921 75.5166 89.9557 75.1642 79.2061 76.2132C75.8183 76.5829 72.8481 76.7626 72.7216 76.5748C72.6373 76.4495 74.8208 73.6152 77.6081 70.1922C92.5217 51.6923 102.77 37.6066 103.507 34.3805C104.082 31.9922 102.438 29.5503 100.386 29.203ZM83.8304 49.991C81.647 52.8254 78.0897 57.1305 75.905 59.6929C69.2883 67.4221 59.1004 80.9214 58.6472 82.4092C58.0497 84.3581 60.051 87.1962 62.1032 87.5435C63.0035 87.6654 66.2227 87.0452 69.2529 86.2793C78.2172 83.7936 94.9059 82.1132 102.024 82.9628L104.955 83.2647L99.8379 85.2531C85.3229 90.8383 80.9813 93.0328 68.7804 101.245L57.038 109.059L54.9485 105.279C52.5844 100.956 43.9319 89.8579 37.812 83.3324C31.1659 76.1602 20.4716 66.8909 11.6752 60.7113C10.9613 60.191 12.0033 59.3077 19.011 54.5907C30.9616 46.5466 38.8961 38.7492 46.8341 27.3101C48.8911 24.2879 50.8051 21.9987 50.9316 22.1866C51.058 22.3744 50.3879 26.6466 49.3029 31.6531C47.5835 39.6342 46.8813 41.5625 42.7739 48.9674C37.0692 59.2671 36.2458 62.0959 37.8895 64.5378C39.5332 66.9797 42.1076 67.1574 45.3612 64.9674C46.7377 64.0408 52.3103 61.1088 57.8841 58.4487C63.3953 55.8308 72.413 51.3985 77.9025 48.6132C83.4342 45.8906 87.9022 43.8839 87.8831 44.2607C87.8218 44.5749 85.9512 47.1987 83.8304 49.991ZM52.3531 113.85C51.2933 115.382 52.0507 116.237 36.7508 97.6941C29.3218 88.6834 16.0513 74.5064 10.5458 69.5689C8.54974 67.8191 6.9521 66.2561 6.93038 66.0887C7.11418 65.1461 25.7046 80.4732 31.4235 86.2679C41.9991 96.9818 53.3911 112.15 52.3531 113.85Z" fill="#1F1C35"/>
</svg>
