<svg width="117" height="152" viewBox="0 0 117 152" fill="none" xmlns="http://www.w3.org/2000/svg">
<path opacity="0.1" fill-rule="evenodd" clip-rule="evenodd" d="M40.5873 7.31951C40.3051 8.69806 40.2079 10.7237 40.4138 11.7738C41.0472 15.2267 43.8522 21.5982 46.2038 25.0632C48.8255 28.8678 60.2964 40.6506 66.4857 46.0386L70.5556 49.5156L71.2783 53.7216C72.5399 60.5266 72.953 73.3869 72.1575 79.4901C70.4867 92.1047 67.1773 98.439 60.6574 101.302C57.0499 102.853 41.0469 106.965 38.6712 106.936C37.409 106.951 37.1285 106.41 35.2234 101.81C29.4342 87.5613 20.4625 80.1451 10.3593 81.1227C6.43992 81.5276 4.66277 82.3268 2.51295 84.7113C-1.54782 89.2154 2.0296 97.8201 11.5095 106.271C16.2785 110.571 21.0492 112.95 27.2262 114.197L31.2611 115.049L31.2629 118.989C31.2692 123.99 29.4175 131.158 27.1496 135.165C25.4819 138.08 20.6463 143.231 16.1833 146.796C14.6337 148.088 14.4479 148.401 15.0247 149.786C16.5649 153.192 20.4103 152.336 26.4499 147.022C32.0594 142.185 34.9006 137.542 36.9382 130.061C37.7894 126.986 38.5041 122.251 38.5701 119.621L38.5742 114.822L40.6798 114.511C41.7777 114.252 46.9705 113.074 52.158 111.795C65.774 108.413 70.4325 105.696 74.177 98.9859C76.6255 94.5653 78.0829 89.5392 78.9114 82.1209C79.5948 76.7813 79.2451 64.1703 78.4075 57.7476C78.1703 56.0928 78.0495 54.7351 78.251 54.7247C78.4048 54.7672 80.7424 56.0101 83.5465 57.4815C90.1457 61.0297 94.1432 62.1363 99.9875 61.8338C107.799 61.48 112.357 58.7687 114.547 53.2501C117.629 45.4626 117.583 31.8761 114.443 25.8755C112.474 21.9867 110.995 20.7497 109.69 21.8781C108.915 22.5244 109.01 23.3783 109.825 25.4579C111.449 29.5161 111.748 33.3399 110.852 39.4483C109.881 46.0657 107.882 51.3724 105.786 52.8448C103.934 54.153 97.6393 54.5293 93.8485 53.5131C91.081 52.7471 79.8439 46.4585 77.4064 44.2609C76.4526 43.401 75.3415 40.478 73.941 34.8927C69.9768 19.7914 65.2389 10.2364 58.8272 4.45573C54.1111 0.203859 48.6447 -0.978178 44.7341 1.54799C41.7469 3.36965 41.0936 4.41386 40.5873 7.31951ZM50.3397 7.37036C53.0916 7.83413 55.1477 9.49582 58.2411 13.6296C61.1808 17.7208 64.9441 26.0128 66.6937 32.4894L67.6346 36.0274L65.7427 34.6097C62.0595 31.7694 52.7351 21.4415 50.5798 17.8653C46.6985 11.196 46.5697 6.75723 50.3397 7.37036ZM10.6027 87.7783C11.6529 87.5724 13.8906 87.8607 15.5341 88.3818C18.0471 89.1105 19.0383 89.7159 21.3907 92.221C24.22 95.1561 28.62 103.061 29.328 106.005C29.5496 107.358 29.3002 107.421 25.0377 106.076C20.7275 104.783 20.2558 104.454 15.5397 100.202C11.8835 96.906 10.1139 94.9264 8.83782 92.7192C7.00051 89.4297 7.39918 88.3482 10.6027 87.7783Z" fill="#1F1C35"/>
</svg>
