<svg width="147" height="145" viewBox="0 0 147 145" fill="none" xmlns="http://www.w3.org/2000/svg">
<g opacity="0.1">
<path fill-rule="evenodd" clip-rule="evenodd" d="M67.7026 1.73564C65.4182 4.34645 65.1462 5.92381 65.4182 14.7897C65.6358 23.0573 66.5604 29.693 68.7905 38.8309C70.2591 44.7052 73.1962 54.2782 73.8489 55.094C74.6104 56.0731 76.623 55.5836 77.2757 54.2782C77.7108 53.3535 77.7108 52.4833 77.1669 50.09C76.6774 47.9143 76.5142 43.3998 76.4598 33.99C76.4598 20.9359 75.9703 14.2457 74.3386 5.97816C73.2507 0.10384 70.5854 -1.58227 67.7026 1.73564ZM71.1838 19.8481C71.075 20.4464 71.0206 20.0657 71.0206 19.0322C70.9662 17.9988 71.075 17.5636 71.1838 17.9444C71.2926 18.4339 71.2926 19.3042 71.1838 19.8481Z" fill="#1F1C35"/>
<path fill-rule="evenodd" clip-rule="evenodd" d="M100.066 23.8193C96.2583 28.1706 93.7019 32.3044 89.6225 40.6807C86.1958 47.8605 85.2168 51.3416 86.5766 51.7767C87.5013 52.1031 88.6979 50.2537 92.7773 42.2581C97.4006 33.1203 99.141 30.4007 102.785 26.2669C104.689 24.0368 105.396 22.8946 105.287 22.0787C105.179 21.2629 104.798 20.8821 103.982 20.8277C103.057 20.7189 102.241 21.3716 100.066 23.8193Z" fill="#1F1C35"/>
<path fill-rule="evenodd" clip-rule="evenodd" d="M40.9955 22.2417C38.2759 23.6015 38.0584 27.6266 40.6148 28.932C42.4097 29.8566 44.4221 29.0951 45.4012 27.1914C46.5978 24.8525 46.2715 23.1664 44.3678 22.133C43.1168 21.4803 42.4641 21.4802 40.9955 22.2417Z" fill="#1F1C35"/>
<path fill-rule="evenodd" clip-rule="evenodd" d="M50.5697 36.5446C49.8626 37.6868 55.7914 50.1425 59.1093 54.4939C62.3185 58.7364 63.5695 57.3222 61.285 52.155C59.4901 48.13 54.0509 38.2851 52.963 37.0885C51.984 36.0006 51.0592 35.7831 50.5697 36.5446Z" fill="#1F1C35"/>
<path fill-rule="evenodd" clip-rule="evenodd" d="M117.634 45.2482C112.25 47.1519 97.1287 57.6495 94.8442 61.0762C93.974 62.436 94.7898 64.5029 96.3128 64.8293C97.8358 65.21 118.559 55.9634 122.258 53.2438C125.195 51.0681 126.011 47.2063 123.781 45.4658C122.312 44.2692 120.408 44.2691 117.634 45.2482Z" fill="#1F1C35"/>
<path fill-rule="evenodd" clip-rule="evenodd" d="M22.1765 46.8798C20.3815 48.3484 20.4904 50.5241 22.6661 52.8629C25.0593 55.5281 28.3227 57.4862 33.7075 59.4443C37.3518 60.7498 40.0714 62.2183 44.7491 65.3731C54.7028 72.0089 54.7573 72.0089 56.1171 70.1051C57.0961 68.691 57.0417 68.3102 55.6275 65.3731C53.9957 61.9464 50.7867 58.7916 44.1509 54.3315C37.2975 49.6538 32.8917 47.5869 28.214 46.6623C23.5907 45.6832 23.645 45.6832 22.1765 46.8798Z" fill="#1F1C35"/>
<path fill-rule="evenodd" clip-rule="evenodd" d="M141.24 66.8422C140.479 67.4405 140.152 68.202 140.152 69.3986C140.152 71.5199 141.24 72.6077 143.198 72.6077C146.244 72.6077 147.55 68.8003 145.211 66.8966C143.688 65.6999 142.654 65.7 141.24 66.8422Z" fill="#1F1C35"/>
<path fill-rule="evenodd" clip-rule="evenodd" d="M122.42 69.9971C118.885 70.3234 109.04 72.1183 107.898 72.5535C106.484 73.2062 106.375 75.0555 107.735 75.4907C108.768 75.817 129.655 72.7167 131.449 72.0096C131.993 71.7376 132.483 71.1937 132.483 70.5954C132.483 69.7251 132.211 69.6707 128.403 69.7795C126.119 69.8339 123.454 69.8883 122.42 69.9971Z" fill="#1F1C35"/>
<path fill-rule="evenodd" clip-rule="evenodd" d="M1.01817 72.281C-0.559195 73.3689 -0.232897 76.1429 1.50764 77.1219C2.64987 77.7202 2.9218 77.7202 4.06403 77.1219C5.80457 76.1429 6.13101 73.3689 4.55364 72.281C4.00972 71.8459 3.19382 71.5195 2.75868 71.5195C2.32355 71.5195 1.56209 71.8459 1.01817 72.281Z" fill="#1F1C35"/>
<path fill-rule="evenodd" clip-rule="evenodd" d="M27.7239 75.1092C24.3516 75.3811 19.8371 76.197 17.6071 76.9041C15.7034 77.5024 15.377 77.7743 15.377 78.8078C15.377 80.0044 15.377 80.0044 18.3142 79.678C25.2764 78.9166 31.4226 78.8622 35.4476 79.3517C40.5605 80.0588 42.4641 79.7869 42.4641 78.2095C42.4641 77.2304 42.0834 77.0672 39.3638 76.4145C33.7071 75.2723 30.5523 74.8916 27.7239 75.1092Z" fill="#1F1C35"/>
<path fill-rule="evenodd" clip-rule="evenodd" d="M96.6385 85.1726C95.2787 86.5324 96.2034 87.9465 99.6301 89.6327C102.676 91.1557 108.985 96.0509 113.826 100.729C119.211 105.896 120.625 106.712 123.726 106.385C126.554 106.005 127.751 105.406 128.131 103.938C128.947 100.511 125.357 96.8124 117.362 92.6242C111.923 89.8503 99.1949 84.5742 97.8895 84.5742C97.4543 84.5742 96.9649 84.8462 96.6385 85.1726ZM122.257 101.218C123.073 102.088 123.127 102.36 122.583 102.36C121.822 102.36 117.471 99.1513 116.818 98.1178C116.274 97.1931 121.06 99.9672 122.257 101.218Z" fill="#1F1C35"/>
<path fill-rule="evenodd" clip-rule="evenodd" d="M53.6154 86.5853C51.0046 87.7819 34.0888 98.1708 31.3692 100.183C24.7878 104.97 23.9175 110.572 29.5742 111.442C32.0219 111.823 34.4151 110.735 40.1262 106.547C44.26 103.501 56.335 91.6437 57.858 89.1417C59.4354 86.5309 56.9877 85.0079 53.6154 86.5853ZM41.9756 98.8235C41.9756 99.1498 34.6871 104.535 33.3817 105.187L32.4026 105.677L33.3272 104.752C34.0887 103.936 41.4316 98.7147 41.8667 98.6059C41.9211 98.6059 41.9756 98.6603 41.9756 98.8235Z" fill="#1F1C35"/>
<path fill-rule="evenodd" clip-rule="evenodd" d="M79.887 95.6706C79.3431 95.7794 78.6904 96.1602 78.4185 96.4865C77.929 97.0848 75.4268 107.474 73.6863 116.122C72.4353 122.486 71.8915 136.519 72.7073 140C74.1215 145.439 78.3097 145.874 80.431 140.816C81.5732 138.096 82.9329 130.536 83.2049 125.695C84.0751 109.432 84.4559 99.043 84.1839 98.0095C83.64 95.6707 82.6066 95.1267 79.887 95.6706ZM79.0712 121.072C78.908 124.226 78.5816 127.762 78.3096 128.904C78.0376 130.699 77.929 130.373 77.8746 126.728C77.8202 122.595 78.6359 115.415 79.1255 115.415C79.343 115.361 79.2887 117.971 79.0712 121.072Z" fill="#1F1C35"/>
<path fill-rule="evenodd" clip-rule="evenodd" d="M61.1219 100.892C58.0216 103.992 46.5449 127.816 47.252 129.719C47.4152 130.1 48.0134 130.318 48.5574 130.209C49.3732 130.1 50.6786 127.924 55.1931 119.059C58.2935 113.021 61.6114 106.766 62.5905 105.189C64.4398 102.197 64.6574 101.436 63.7328 100.511C62.9713 99.7494 62.1554 99.8582 61.1219 100.892Z" fill="#1F1C35"/>
<path fill-rule="evenodd" clip-rule="evenodd" d="M93.9743 101.383C93.2672 102.199 93.3216 102.471 95.0622 105.843C96.0956 107.91 98.7608 112.533 100.937 116.232C103.112 119.93 104.961 123.303 104.961 123.629C104.961 124.554 107.028 124.173 107.192 123.248C107.3 122.813 106.92 121.345 106.376 119.93C105.179 116.667 97.9993 104.157 96.15 102.09C94.7902 100.621 94.7358 100.567 93.9743 101.383Z" fill="#1F1C35"/>
<path fill-rule="evenodd" clip-rule="evenodd" d="M108.66 130.917C107.246 131.625 106.865 133.637 107.953 134.67C110.074 136.737 113.446 135.813 113.664 133.202C113.773 132.332 113.555 131.353 113.229 130.972C112.631 130.156 110.237 130.102 108.66 130.917Z" fill="#1F1C35"/>
</g>
</svg>
