<svg width="45" height="45" viewBox="0 0 45 45" fill="none" xmlns="http://www.w3.org/2000/svg">
<path d="M15.5988 35.857C17.0505 35.857 18.1877 34.935 18.1877 33.7577V26.331L27.4587 24.0454V29.4024C27.0854 29.2353 26.6532 29.1404 26.1884 29.1404C24.7367 29.1404 23.5995 30.0625 23.5995 31.2398C23.5995 32.417 24.7367 33.3391 26.1884 33.3391C27.6402 33.3391 28.7773 32.4171 28.7773 31.2398C28.7773 31.2203 28.7762 31.2011 28.7756 31.1818C28.7762 31.1703 28.7773 31.1588 28.7773 31.147C28.7773 29.9212 28.7773 21.2227 28.7773 19.9917C28.7773 19.5632 28.3745 19.2491 27.9602 19.3515L17.3705 21.9621C17.076 22.0347 16.869 22.299 16.869 22.6023V31.9203C16.4958 31.7531 16.0635 31.6583 15.5988 31.6583C14.147 31.6583 13.0098 32.5804 13.0098 33.7577C13.0099 34.9349 14.1471 35.857 15.5988 35.857ZM26.1884 32.0204C25.4399 32.0204 24.9182 31.6089 24.9182 31.2397C24.9182 30.8705 25.4399 30.459 26.1884 30.459C26.937 30.459 27.4587 30.8705 27.4587 31.2397C27.4588 31.609 26.9371 32.0204 26.1884 32.0204ZM18.1878 23.1189L27.4588 20.8333V22.6872L18.1878 24.9728V23.1189ZM15.5988 32.9769C16.3473 32.9769 16.869 33.3884 16.869 33.7577C16.869 34.1269 16.3473 34.5384 15.5988 34.5384C14.8501 34.5384 14.3284 34.1269 14.3284 33.7577C14.3285 33.3884 14.8502 32.9769 15.5988 32.9769Z" fill="white"/>
<path d="M36.1997 28.8068C35.8377 28.7659 35.5113 29.0258 35.4703 29.3876C35.1346 32.3473 33.8413 35.0275 31.7304 37.1383C26.6405 42.2282 18.3587 42.2284 13.2689 37.1383C11.1546 35.0241 9.8609 32.3397 9.52753 29.375C9.48683 29.013 9.16023 28.7519 8.79865 28.7934C8.43681 28.8341 8.17639 29.1604 8.21708 29.5223C8.5842 32.787 10.0086 35.743 12.3364 38.0708C15.1388 40.8731 18.8185 42.2737 22.4996 42.2737C26.1797 42.2737 29.8611 40.8724 32.6627 38.0708C34.9869 35.7466 36.4108 32.7954 36.7805 29.5361C36.8215 29.1744 36.5615 28.8478 36.1997 28.8068Z" fill="white"/>
<path d="M32.7989 14.2595C32.845 14.1034 32.8708 13.9389 32.8708 13.7692V7.66751L36.2449 6.51105V7.61197H36.0979C35.4841 7.61197 34.9595 8.07084 34.8777 8.67922L34.3956 12.2659C34.2964 13.0044 34.8714 13.661 35.6159 13.661H38.1925C38.9377 13.661 39.5119 13.0035 39.4127 12.2659L38.9307 8.67922C38.849 8.07084 38.3244 7.61197 37.7105 7.61197H37.5635V5.46823C37.5635 5.11482 37.3388 4.80026 37.0045 4.68573L24.1138 0.267561C23.0727 -0.089187 21.9262 -0.089187 20.8851 0.267561L7.99457 4.68565C7.66015 4.80017 7.43541 5.11473 7.43541 5.46814C7.43541 5.82163 7.66015 6.13619 7.99448 6.25072L12.1282 7.66751V13.7692C12.1282 13.939 12.1538 14.1034 12.2 14.2595C8.04862 17.3995 5.40039 22.3265 5.40039 27.9089C5.40039 37.4002 13.0857 44.9999 22.4994 44.9999C31.9151 44.9999 39.5985 37.3981 39.5985 27.9089C39.5985 22.3272 36.951 17.4002 32.7989 14.2595ZM37.634 8.93059L38.0925 12.3425H35.7158L36.1743 8.93059H37.634ZM9.77822 5.46823L21.3126 1.5149C22.0779 1.25273 22.9209 1.25273 23.6862 1.5149L35.2206 5.46823L23.6862 9.42146C22.9209 9.68372 22.0779 9.68372 21.3126 9.42146L9.77822 5.46823ZM31.5521 8.11945V13.7692C31.5521 13.9434 31.4403 14.0954 31.274 14.1472C25.7218 15.8776 19.642 15.9913 13.7249 14.1472C13.5585 14.0954 13.4467 13.9434 13.4467 13.7692V8.11945L20.885 10.6689C21.926 11.0256 23.0726 11.0257 24.1137 10.6689L31.5521 8.11945ZM22.4994 43.6819C7.53402 43.6803 0.817158 24.4624 13.0353 15.2809C13.327 15.4357 14.4217 15.7244 14.741 15.8077C11.2764 18.0316 8.72714 21.7568 8.21693 26.2942C8.17624 26.656 8.43666 26.9824 8.79851 27.023C8.82355 27.0259 8.84834 27.0273 8.87295 27.0273C9.20403 27.0273 9.4895 26.7783 9.52729 26.4416C10.0463 21.8263 12.8998 18.1193 16.6404 16.2409C20.5194 16.9965 24.4738 16.9975 28.3584 16.2409C32.1161 18.1278 34.9553 21.8449 35.4716 26.4433C35.5094 26.7802 35.7948 27.0291 36.126 27.0291C36.1505 27.0291 36.1754 27.0277 36.2003 27.0249C36.5622 26.9843 36.8226 26.6579 36.782 26.2961C36.2722 21.7564 33.7166 18.0281 30.2579 15.8078C30.5799 15.7237 31.6725 15.4355 31.9636 15.281C44.1586 24.4457 37.4808 43.6832 22.4994 43.6819Z" fill="white"/>
</svg>