<svg width="46" height="45" viewBox="0 0 46 45" fill="none" xmlns="http://www.w3.org/2000/svg">
<g clip-path="url(#clip0_4723_1225)">
<path d="M33.6327 4.87109H20.7432C20.379 4.87109 20.084 5.16623 20.084 5.53027C20.084 5.89432 20.379 6.18945 20.7432 6.18945H33.6327C33.9968 6.18945 34.2919 5.89432 34.2919 5.53027C34.2919 5.16623 33.9968 4.87109 33.6327 4.87109Z" fill="white"/>
<path d="M20.7432 9.21289H30.0294C30.3936 9.21289 30.6886 8.91775 30.6886 8.55371C30.6886 8.18967 30.3936 7.89453 30.0294 7.89453H20.7432C20.379 7.89453 20.084 8.18967 20.084 8.55371C20.084 8.91775 20.379 9.21289 20.7432 9.21289Z" fill="white"/>
<path d="M33.6327 13.9609H20.7432C20.379 13.9609 20.084 14.2561 20.084 14.6201C20.084 14.9842 20.379 15.2793 20.7432 15.2793H33.6327C33.9968 15.2793 34.2919 14.9842 34.2919 14.6201C34.2919 14.2561 33.9968 13.9609 33.6327 13.9609Z" fill="white"/>
<path d="M20.7432 18.3027H30.0294C30.3936 18.3027 30.6886 18.0076 30.6886 17.6436C30.6886 17.2795 30.3936 16.9844 30.0294 16.9844H20.7432C20.379 16.9844 20.084 17.2795 20.084 17.6436C20.084 18.0076 20.379 18.3027 20.7432 18.3027Z" fill="white"/>
<path d="M33.6327 23.1758H20.7432C20.379 23.1758 20.084 23.4709 20.084 23.835C20.084 24.199 20.379 24.4941 20.7432 24.4941H33.6327C33.9968 24.4941 34.2919 24.199 34.2919 23.835C34.2919 23.4709 33.9968 23.1758 33.6327 23.1758Z" fill="white"/>
<path d="M30.0294 26.1992H20.7432C20.379 26.1992 20.084 26.4944 20.084 26.8584C20.084 27.2224 20.379 27.5176 20.7432 27.5176H30.0294C30.3936 27.5176 30.6886 27.2224 30.6886 26.8584C30.6886 26.4944 30.3936 26.1992 30.0294 26.1992Z" fill="white"/>
<path d="M40.8393 6.38244H38.4352V2.09109C38.4352 0.938057 37.4972 0 36.3441 0H9.65508C8.50204 0 7.56399 0.938057 7.56399 2.09109V6.38244H5.15991C3.31957 6.38244 1.82227 7.87966 1.82227 9.72009V33.7161C1.82227 35.5564 3.31948 37.0537 5.15991 37.0537H18.681L18.3499 39.596H17.3966C15.4613 39.596 13.8868 41.1704 13.8868 43.1057C13.8868 44.1503 14.7367 45.0001 15.7812 45.0001H29.4503C30.4949 45.0001 31.3447 44.1503 31.3447 43.1057C31.3447 41.1704 29.7703 39.596 27.835 39.596H26.8815L26.5505 37.0537H40.8392C42.6795 37.0537 44.1768 35.5565 44.1768 33.7161V9.72C44.1768 7.87966 42.6796 6.38244 40.8393 6.38244ZM27.8351 40.9142C29.0434 40.9142 30.0265 41.8973 30.0265 43.1056C30.0265 43.4232 29.7681 43.6816 29.4504 43.6816H15.7812C15.4637 43.6816 15.2052 43.4232 15.2052 43.1056C15.2052 41.8973 16.1883 40.9142 17.3966 40.9142H27.8351ZM19.6795 39.5959L20.0106 37.0536H25.2209L25.5519 39.5959H19.6795ZM42.8585 33.716C42.8585 34.8294 41.9526 35.7353 40.8392 35.7353H5.15991C4.04651 35.7353 3.14063 34.8295 3.14063 33.716V32.2646H42.8584V33.716H42.8585ZM42.8585 30.9464H38.4352V21.7835C38.4352 21.4195 38.1402 21.1243 37.776 21.1243C37.4119 21.1243 37.1169 21.4195 37.1169 21.7835V30.9463H8.88234V13.1722C8.88234 12.8081 8.5873 12.513 8.22317 12.513C7.85903 12.513 7.56399 12.8081 7.56399 13.1722V30.9463H3.14071V9.72C3.14071 8.6066 4.0466 7.70071 5.16 7.70071H7.56407V10.0907C7.56407 10.4548 7.85912 10.7499 8.22325 10.7499C8.58738 10.7499 8.88243 10.4548 8.88243 10.0907V2.09109C8.88243 1.665 9.22907 1.31836 9.65517 1.31836H36.3442C36.7703 1.31836 37.1169 1.665 37.1169 2.09109V18.7064C37.1169 19.0704 37.412 19.3656 37.7761 19.3656C38.1403 19.3656 38.4353 19.0704 38.4353 18.7064V7.7008H40.8394C41.9528 7.7008 42.8587 8.60669 42.8587 9.72009V30.9464H42.8585Z" fill="white"/>
<path d="M15.6129 4.25781H12.4811C11.7539 4.25781 11.1621 4.84949 11.1621 5.57679V8.70859C11.1621 9.4358 11.7538 10.0275 12.4811 10.0275H15.6129C16.3401 10.0275 16.9319 9.4358 16.9319 8.70859V5.57679C16.9319 4.84949 16.3401 4.25781 15.6129 4.25781ZM15.6129 8.70912L12.4805 8.70859L12.4811 5.57617L15.6135 5.57679L15.6139 8.70912C15.6139 8.70912 15.6136 8.70912 15.6129 8.70912Z" fill="white"/>
<path d="M15.6129 13.25H12.4811C11.7539 13.25 11.1621 13.8417 11.1621 14.569V17.7008C11.1621 18.4281 11.7538 19.0198 12.4811 19.0198H15.6129C16.3401 19.0198 16.9319 18.4281 16.9319 17.7008V14.569C16.9319 13.8417 16.3401 13.25 15.6129 13.25ZM15.6129 17.7014L12.4805 17.7008L12.4811 14.5684L15.6135 14.569L15.6139 17.7013C15.6139 17.7013 15.6136 17.7014 15.6129 17.7014Z" fill="white"/>
<path d="M15.6129 22.2383H12.4811C11.7539 22.2383 11.1621 22.83 11.1621 23.5572V26.689C11.1621 27.4163 11.7538 28.0079 12.4811 28.0079H15.6129C16.3401 28.0079 16.9319 27.4163 16.9319 26.689V23.5572C16.9319 22.83 16.3401 22.2383 15.6129 22.2383ZM15.6129 26.6896L12.4805 26.689L12.4811 23.5566L15.6135 23.5572L15.6139 26.6895C15.6139 26.6895 15.6136 26.6896 15.6129 26.6896Z" fill="white"/>
</g>
<defs>
<clipPath id="clip0_4723_1225">
<rect width="45" height="45" fill="white" transform="translate(0.5)"/>
</clipPath>
</defs>
</svg>