<svg width="45" height="45" viewBox="0 0 45 45" fill="none" xmlns="http://www.w3.org/2000/svg">
<path d="M34.5841 15.818C34.025 15.2589 33.4239 14.7369 32.7926 14.2595C32.9216 13.8236 32.839 14.0807 32.8645 7.66742L36.2386 6.51105V7.61197H36.0917C35.4777 7.61197 34.9531 8.07084 34.8713 8.67922L34.3893 12.2659C34.342 12.6179 34.4489 12.9731 34.6828 13.2404C34.9167 13.5078 35.2545 13.661 35.6096 13.661H38.1862C38.9314 13.661 39.5057 13.0036 39.4066 12.2659L38.9244 8.67913C38.8426 8.07076 38.318 7.61197 37.7041 7.61197H37.5572V5.46823C37.5572 5.11482 37.3325 4.80026 36.9981 4.68573L24.1075 0.267561C23.0665 -0.089187 21.9199 -0.089187 20.8789 0.267561L7.98832 4.68565C7.24547 4.94 7.24433 5.99601 7.98823 6.25072L12.1218 7.66742V9.19593C12.1218 9.56006 12.417 9.85529 12.7812 9.85529C13.1453 9.85529 13.4405 9.56015 13.4405 9.19593V8.11945L20.879 10.6689C21.92 11.0256 23.0666 11.0257 24.1075 10.6689L31.546 8.11945V13.7692C31.546 13.9434 31.4342 14.0954 31.2678 14.1472C25.5274 15.9363 19.4592 15.9364 13.7186 14.1472C13.5523 14.0953 13.4405 13.9434 13.4405 13.7692V12.2957C13.4405 11.9316 13.1454 11.6364 12.7812 11.6364C12.417 11.6364 12.1218 11.9315 12.1218 12.2957V13.7692C12.1218 13.939 12.1476 14.1034 12.1937 14.2595C11.5625 14.7369 10.9613 15.2589 10.4022 15.818C-0.282715 26.503 7.28757 44.9999 22.4932 44.9999C26.9826 44.9999 31.3296 43.2542 34.5841 39.9997C35.8116 38.7722 36.8395 37.3775 37.6389 35.8546C37.8081 35.5321 37.684 35.1336 37.3616 34.9643C37.0392 34.7951 36.6406 34.9191 36.4714 35.2416C35.8351 36.4536 35.0411 37.5773 34.1076 38.5908L27.8488 32.3319C30.7655 29.6818 34.5696 28.5728 38.2381 28.9765C38.1586 30.1455 37.9504 31.3161 37.604 32.4679C37.4992 32.8166 37.6968 33.1843 38.0455 33.2892C38.3965 33.3943 38.7624 33.1946 38.8668 32.8477C40.6846 26.8029 39.0435 20.2774 34.5841 15.818ZM37.6278 8.93059L38.0863 12.3425H35.7095L36.1681 8.93059H37.6278ZM23.68 9.42146C22.9146 9.68381 22.0717 9.68364 21.3064 9.42146L9.77197 5.46823L21.3064 1.5149C22.0717 1.25273 22.9147 1.25273 23.68 1.5149L35.2144 5.46823L23.68 9.42146ZM22.476 16.8076C22.4817 16.8076 22.4874 16.8078 22.4931 16.8078C25.5773 16.8078 28.6616 16.3405 31.66 15.4059C31.7646 15.3733 31.8635 15.3307 31.9573 15.2809C32.3791 15.5979 32.7867 15.9363 33.1755 16.294L22.4932 26.9764L19.0029 23.4861C20.6705 21.6597 21.9107 19.3796 22.476 16.8076ZM13.029 15.2809C13.1229 15.3308 13.2218 15.3734 13.3264 15.406C15.8834 16.203 18.5029 16.6589 21.1314 16.7761C20.6112 18.9367 19.5728 20.8993 18.0701 22.5532L11.8109 16.294C12.1997 15.9363 12.6072 15.5979 13.029 15.2809ZM10.879 17.2271L17.1376 23.4857C14.2545 26.1052 10.4657 27.2481 6.75662 26.8421C6.98988 23.3686 8.36432 19.9587 10.879 17.2271ZM6.72322 28.1653C10.7503 28.5747 14.8847 27.3273 18.0703 24.4185L21.5607 27.9088L10.879 38.5906C8.16894 35.6469 6.78369 31.9152 6.72322 28.1653ZM22.2371 43.6789C18.4871 43.6186 14.7553 42.2333 11.8115 39.523L22.4932 28.8413L25.9835 32.3316C23.1572 35.4271 21.8149 39.5247 22.2371 43.6789ZM33.175 39.5231C30.4435 42.0378 27.0336 43.4123 23.5601 43.6456C23.1546 39.9383 24.2949 36.1498 26.9164 33.2645L33.175 39.5231ZM26.916 31.3991L23.4257 27.9088L34.1071 17.2274C36.762 20.1121 38.2126 23.8309 38.2738 27.6539C34.2259 27.24 30.0931 28.4983 26.916 31.3991Z" fill="white"/>
</svg>