<svg width="108" height="102" viewBox="0 0 108 102" fill="none" xmlns="http://www.w3.org/2000/svg">
<g clip-path="url(#clip0_4340_2948)">
<path d="M106.559 101.053H105.266C97.6625 101.053 90.1348 100.976 82.5311 100.976C66.7915 100.976 50.7477 100.976 35.2361 100.976C24.2868 100.976 13.2615 101.053 2.31216 101.053H1.01953L1.70386 99.91C2.31216 98.9198 2.84442 97.8535 3.45271 96.8633L4.74534 97.625C4.36516 98.2343 3.98497 98.9198 3.68082 99.5292C14.25 99.5292 24.7431 99.5292 35.3122 99.453C50.8237 99.453 66.8675 99.3769 82.6072 99.453C89.7546 99.453 96.9021 99.5292 104.05 99.5292C103.821 99.1484 103.593 98.7675 103.441 98.3867L103.061 97.7773L104.354 97.0156L104.734 97.625C105.114 98.2343 105.418 98.8437 105.798 99.453C105.874 99.6054 105.951 99.7577 106.027 99.91L106.559 101.053Z" fill="#1F1C35"/>
<path d="M14.4784 33.2617L12.8816 39.5076L11.3609 33.2617H9.99219L12.1973 42.3258V51.1614H13.5659V42.402L15.847 33.2617H14.4784Z" fill="#1F1C35"/>
<path d="M25.8848 51.1614H31.2834V49.7904H27.2534V42.859H29.1544V41.5641H27.2534V34.5566H31.2834V33.2617H25.8848V51.1614Z" fill="#1F1C35"/>
<path d="M43.1441 49.7904V33.5664L42.6878 33.2617H42.1556L41.7754 33.5664V51.1614H46.7938L47.174 50.7806V50.1712L46.7938 49.7904H43.1441Z" fill="#1F1C35"/>
<path d="M58.9605 49.7904V33.5664L58.5803 33.2617H58.048L57.5918 33.5664V51.1614H62.6102L62.9904 50.7806V50.1712L62.6102 49.7904H58.9605Z" fill="#1F1C35"/>
<path d="M78.8049 35.1659C78.1966 33.8711 77.3602 33.2617 76.2196 33.2617H76.0675C75.3072 33.2617 74.6228 33.5664 74.1666 34.1757C73.6344 34.5566 73.4062 35.3183 73.4062 36.537V47.9623C73.4062 48.8002 73.4823 49.3334 73.6344 49.5619C74.1666 50.6282 75.003 51.1614 76.1436 51.1614C76.3717 51.1614 76.6758 51.0853 77.056 51.0091C78.2726 50.4759 78.9569 49.638 78.9569 48.4193V35.8515L78.8049 35.1659ZM77.5883 48.4193L77.5122 48.8763C77.2081 49.4857 76.8279 49.7904 76.2957 49.7904H76.1436C75.9915 49.7904 75.9155 49.7904 75.9155 49.7904C75.1551 49.5619 74.7749 49.1049 74.7749 48.4193V36.0038C74.7749 35.6991 74.851 35.4706 74.927 35.2421C75.2311 34.7089 75.6874 34.4804 76.1436 34.4804C76.4477 34.4804 76.6758 34.5566 76.904 34.7089C77.3602 35.0136 77.5122 35.3945 77.5122 35.7753L77.5883 48.4193Z" fill="#1F1C35"/>
<path d="M95.6858 33.2617V33.4141C94.9254 39.5076 94.4692 43.2399 94.1651 45.1441L93.7849 42.2497L94.8494 33.2617H93.5568L93.1005 36.9178L92.6443 33.2617H91.2757L92.4162 42.2497L92.036 45.2964L90.5153 33.2617H89.2227L91.4277 51.1614H92.6443L93.1005 47.5815L93.5568 51.1614H94.7734L96.9784 33.2617H95.6858Z" fill="#1F1C35"/>
<path d="M30.5231 63.1992V63.4277H29.4586V65.3319H29.9908V65.5605H29.4586V67.4647H30.5231V67.6932H29.2305V63.1992H30.5231Z" fill="#1F1C35"/>
<path d="M30.5227 67.8455H29.2301C29.154 67.8455 29.002 67.7693 29.002 67.617V63.123C29.002 63.0469 29.078 62.8945 29.2301 62.8945H30.5227C30.5987 62.8945 30.7508 62.9707 30.7508 63.123V63.3515C30.7508 63.4277 30.6748 63.5801 30.5227 63.5801H29.6863V65.1034H29.9904C30.0665 65.1034 30.2185 65.1796 30.2185 65.3319V65.5604C30.2185 65.6366 30.1425 65.789 29.9904 65.789H29.6863V67.3123H30.5227C30.5987 67.3123 30.7508 67.3885 30.7508 67.5408V67.7693C30.6748 67.7693 30.5987 67.8455 30.5227 67.8455Z" fill="#1F1C35"/>
<path d="M33.4871 63.1992C33.7912 63.1992 33.9433 63.3516 34.0954 63.5801C34.0954 63.6562 34.1714 63.7324 34.1714 63.8086V63.8847H33.9433V63.8086C33.9433 63.6562 33.8673 63.5039 33.7152 63.4277H33.5631C33.411 63.4277 33.335 63.5039 33.1829 63.6562C33.1829 63.7324 33.1069 63.8086 33.1069 63.8847V64.9511C33.1069 65.0273 33.1069 65.1796 33.1829 65.2558C33.259 65.3319 33.411 65.4081 33.6391 65.4081C33.7912 65.4081 33.9433 65.4843 34.0193 65.6366C34.0954 65.789 34.1714 65.8651 34.1714 66.0175V67.0838C34.1714 67.3123 34.0193 67.5408 33.7912 67.6932C33.7152 67.7694 33.6391 67.7694 33.4871 67.7694C33.1829 67.7694 33.0308 67.617 32.8788 67.3123C32.8788 67.2362 32.8027 67.16 32.8027 67.0838V67.0077H33.0308V67.0838C33.0308 67.2362 33.1069 67.3885 33.335 67.4647H33.4871C33.6391 67.4647 33.7912 67.3885 33.8673 67.16V67.0077V66.0175C33.8673 65.789 33.7912 65.6366 33.6391 65.5605C33.4871 65.5605 33.335 65.4843 33.335 65.4843C33.259 65.4843 33.1069 65.4081 33.0308 65.2558C32.9548 65.1034 32.8788 64.9511 32.8788 64.7226V63.8847C32.8788 63.5801 32.9548 63.4277 33.0308 63.3516C33.1069 63.2754 33.259 63.1992 33.4871 63.1992Z" fill="#1F1C35"/>
<path d="M33.4868 67.8475C33.2587 67.8475 32.8785 67.7713 32.7264 67.3143C32.6504 67.2381 32.6504 67.162 32.6504 67.0096V66.9334C32.6504 66.8573 32.7264 66.7049 32.8785 66.7049H33.1066C33.1827 66.7049 33.3347 66.7811 33.3347 66.9334V67.0858C33.3347 67.162 33.3347 67.2381 33.4868 67.3143H33.5628C33.6389 67.3143 33.7149 67.3143 33.7909 67.1619V67.0858V66.0956C33.7909 65.8671 33.7149 65.8671 33.6389 65.8671C33.4868 65.8671 33.4108 65.7909 33.3347 65.7909C33.1827 65.7909 33.0306 65.6386 32.8785 65.4862C32.7264 65.3339 32.6504 65.1054 32.6504 64.8769V64.039C32.6504 63.6582 32.7264 63.4297 32.8785 63.3535C33.0306 63.2012 33.1827 63.125 33.4868 63.125C33.7149 63.125 34.0191 63.2012 34.2472 63.6582C34.3232 63.7343 34.3232 63.8867 34.3232 63.9629V64.039C34.3232 64.1152 34.2472 64.2675 34.0951 64.2675H33.867C33.7909 64.2675 33.6389 64.1914 33.6389 64.039V63.9629C33.6389 63.8867 33.6389 63.8105 33.4868 63.7343H33.4108C33.3347 63.7343 33.2587 63.7344 33.1826 63.8867V63.9629V65.0292L33.2587 65.1816C33.3347 65.2577 33.4108 65.2577 33.5628 65.2577C33.7909 65.2577 33.943 65.4101 34.0951 65.5624C34.2472 65.7147 34.2472 65.9432 34.2472 66.0956V67.0858C34.2472 67.3905 34.0951 67.619 33.7909 67.8475C33.7149 67.8475 33.5628 67.8475 33.4868 67.8475Z" fill="#1F1C35"/>
<path d="M37.6696 63.1992V63.4277H37.1373V67.6932H36.9092V63.4277H36.377V63.1992H37.6696Z" fill="#1F1C35"/>
<path d="M37.1369 67.8455H36.9088C36.8328 67.8455 36.6807 67.7693 36.6807 67.617V63.5801H36.3765C36.3005 63.5801 36.1484 63.5039 36.1484 63.3515V63.123C36.1484 63.0469 36.2245 62.8945 36.3765 62.8945H37.6692C37.7452 62.8945 37.8973 62.9707 37.8973 63.123V63.3515C37.8973 63.4277 37.8212 63.5801 37.6692 63.5801H37.365V67.617C37.365 67.7693 37.289 67.8455 37.1369 67.8455Z" fill="#1F1C35"/>
<path d="M40.4834 63.2012C40.7876 63.2012 40.9397 63.2773 41.0157 63.3535C41.1678 63.5058 41.2438 63.6582 41.2438 63.8105V67.0096C41.2438 67.3143 41.0917 67.4666 40.7876 67.619C40.7115 67.619 40.6355 67.619 40.5595 67.619H39.9512V63.125H40.4834V63.2012ZM40.1793 63.4297V67.3905H40.6355C40.7876 67.3905 40.8636 67.3143 41.0157 67.1619V67.0096V63.7343C41.0157 63.582 40.9397 63.5058 40.7876 63.3535C40.7115 63.3535 40.6355 63.3535 40.5595 63.3535H40.1793V63.4297Z" fill="#1F1C35"/>
<path d="M40.5591 67.8455H39.9508C39.8747 67.8455 39.7227 67.7693 39.7227 67.617V63.123C39.7227 63.0469 39.7987 62.8945 39.9508 62.8945H40.483C40.7872 62.8945 41.0153 62.9707 41.1674 63.123C41.3194 63.2754 41.4715 63.5039 41.4715 63.7324V66.9315C41.4715 67.16 41.3955 67.5408 40.9392 67.6932C40.7872 67.8455 40.7111 67.8455 40.5591 67.8455ZM40.407 67.2362H40.6351C40.6351 67.2362 40.7111 67.2362 40.7872 67.0838V67.0077V63.7324C40.7872 63.7324 40.7872 63.6562 40.6351 63.5801C40.6351 63.5801 40.6351 63.5801 40.483 63.5801H40.331V67.2362H40.407Z" fill="#1F1C35"/>
<path d="M67.5533 63.1992V67.6932H67.3252V63.8847C67.2492 63.9609 67.0971 63.9609 66.793 63.9609V63.7324H66.869C67.0211 63.7324 67.0971 63.6562 67.2492 63.5039L67.3252 63.3516V63.1992H67.5533Z" fill="#1F1C35"/>
<path d="M67.5529 67.8455H67.3248C67.2488 67.8455 67.0967 67.7693 67.0967 67.617V64.0371C67.0207 64.0371 66.8686 64.0371 66.7926 64.0371C66.7165 64.0371 66.5645 63.9609 66.5645 63.8085V63.58C66.5645 63.5039 66.6405 63.3515 66.7926 63.3515H66.8686C66.9446 63.3515 67.0207 63.3515 67.0967 63.1992V63.123V62.9707C67.0967 62.8945 67.1727 62.7422 67.3248 62.7422H67.5529C67.629 62.7422 67.781 62.8184 67.781 62.9707V67.4647C67.781 67.7693 67.629 67.8455 67.5529 67.8455Z" fill="#1F1C35"/>
<path d="M70.4423 63.1992C70.6704 63.1992 70.8225 63.2754 70.9745 63.4277C71.0506 63.5801 71.1266 63.7324 71.1266 63.8086V67.0838C71.1266 67.2362 71.0506 67.4647 70.8225 67.5408C70.7464 67.617 70.5944 67.6932 70.4423 67.6932C70.1381 67.6932 69.9861 67.5408 69.834 67.2362V67.0838V67.0077H70.0621C70.0621 67.2362 70.1381 67.3885 70.2902 67.4647H70.4423H70.5183C70.6704 67.4647 70.8225 67.3885 70.8985 67.2362C70.8985 67.16 70.8985 67.0838 70.8985 67.0077V65.5605H70.5183C70.2142 65.5605 69.9861 65.4081 69.91 65.1034C69.91 65.0273 69.91 64.9511 69.91 64.7988V63.9609C69.91 63.6562 69.9861 63.5039 70.0621 63.3516C70.1381 63.2754 70.2902 63.1992 70.4423 63.1992ZM70.0621 63.9609V64.7988C70.0621 65.0273 70.1381 65.1796 70.2142 65.2558C70.2902 65.3319 70.3662 65.3319 70.4423 65.3319H70.8225V63.9609C70.8225 63.6562 70.6704 63.5039 70.4423 63.5039C70.2902 63.5039 70.2142 63.5801 70.0621 63.7324C70.0621 63.7324 70.0621 63.8086 70.0621 63.9609Z" fill="#1F1C35"/>
<path d="M70.4416 67.8455C70.1375 67.8455 69.8333 67.7693 69.6052 67.2362C69.6052 67.16 69.5292 67.0838 69.5292 67.0077V66.9315C69.5292 66.8553 69.6052 66.703 69.7573 66.703H69.9854C70.0614 66.703 70.2135 66.7791 70.2135 66.9315C70.2135 67.16 70.2895 67.2362 70.3656 67.2362H70.4416C70.4416 67.2362 70.5176 67.2362 70.5937 67.0838C70.5937 67.0838 70.5937 67.0838 70.5937 66.9315V65.7128H70.3656C70.1375 65.7128 69.7573 65.6366 69.5292 65.1034C69.5292 64.9511 69.4531 64.8749 69.4531 64.7226V63.8847C69.4531 63.5039 69.5292 63.2754 69.6812 63.123C69.8333 62.9707 69.9854 62.8945 70.2895 62.8945C70.5937 62.8945 70.7458 62.9707 70.8978 63.1992C71.0499 63.3515 71.0499 63.5039 71.1259 63.7324V67.0838C71.1259 67.3123 70.9739 67.5408 70.7458 67.6932C70.8218 67.8455 70.6697 67.8455 70.4416 67.8455ZM70.4416 63.6562C70.3656 63.6562 70.3656 63.6562 70.2895 63.8086C70.2895 63.8086 70.2895 63.8847 70.2895 63.9609V64.7988C70.2895 64.8749 70.2895 65.0273 70.3656 65.0273L70.5176 65.1034H70.7458V63.8847C70.6697 63.6562 70.5176 63.6562 70.4416 63.6562Z" fill="#1F1C35"/>
<path d="M74.0165 63.1992C74.2446 63.1992 74.3967 63.2754 74.5488 63.4277C74.6248 63.5801 74.7008 63.7324 74.7008 63.8086V67.0838C74.7008 67.2362 74.6248 67.4647 74.3967 67.5408C74.3206 67.617 74.1686 67.6932 74.0165 67.6932C73.7124 67.6932 73.5603 67.5408 73.4082 67.2362V67.0838V67.0077H73.6363C73.6363 67.2362 73.7124 67.3885 73.8644 67.4647H74.0165C74.1686 67.4647 74.3206 67.3885 74.3967 67.2362C74.3967 67.16 74.3967 67.0838 74.3967 67.0077V65.5605H74.0165C73.7124 65.5605 73.4842 65.4081 73.4082 65.1034C73.4082 65.0273 73.4082 64.9511 73.4082 64.7988V63.9609C73.4082 63.6562 73.4842 63.5039 73.5603 63.3516C73.7124 63.2754 73.8644 63.1992 74.0165 63.1992ZM73.6363 63.9609V64.7988C73.6363 65.0273 73.7124 65.1796 73.7884 65.2558C73.8644 65.3319 73.9405 65.3319 74.0165 65.3319H74.3967V63.9609C74.3967 63.6562 74.2446 63.5039 74.0165 63.5039C73.8644 63.5039 73.7884 63.5801 73.6363 63.7324C73.6363 63.7324 73.6363 63.8086 73.6363 63.9609Z" fill="#1F1C35"/>
<path d="M74.016 67.8455C73.7118 67.8455 73.4077 67.7693 73.1796 67.2362C73.1796 67.16 73.1035 67.0838 73.1035 67.0077V66.9315C73.1035 66.8553 73.1795 66.703 73.3316 66.703H73.5597C73.6358 66.703 73.7878 66.7791 73.7878 66.9315C73.7878 67.16 73.8639 67.2362 73.9399 67.2362H74.016C74.016 67.2362 74.092 67.2362 74.168 67.0838C74.168 67.0838 74.168 67.0838 74.168 66.9315V65.7128H74.016C73.7878 65.7128 73.4077 65.6366 73.1796 65.1034C73.1796 64.9511 73.1035 64.8749 73.1035 64.7226V63.8847C73.1035 63.5039 73.1795 63.2754 73.3316 63.123C73.4837 62.9707 73.6358 62.8945 73.9399 62.8945C74.2441 62.8945 74.3961 62.9707 74.5482 63.1992C74.7003 63.3515 74.7003 63.5039 74.7763 63.7324V67.0838C74.7763 67.3123 74.6243 67.5408 74.3961 67.6932C74.3961 67.8455 74.168 67.8455 74.016 67.8455ZM74.016 63.6562C73.9399 63.6562 73.9399 63.6562 73.8639 63.8086C73.8639 63.8086 73.8639 63.8847 73.8639 63.9609V64.7988C73.8639 64.8749 73.8639 65.0273 73.9399 65.0273L74.092 65.1034H74.3201V63.8847C74.2441 63.6562 74.092 63.6562 74.016 63.6562Z" fill="#1F1C35"/>
<path d="M76.9803 63.1992H78.273L77.7407 65.3319H78.0449V65.5605H77.6647L77.1324 67.6932H76.9043L77.4366 65.5605H77.1324V65.3319H77.5126L77.9688 63.4277H76.9803V63.1992Z" fill="#1F1C35"/>
<path d="M77.1341 67.8436H76.906L76.7539 67.7674V67.615L77.2101 65.7108H77.1341C77.0581 65.7108 76.906 65.6347 76.906 65.4823V65.2538C76.906 65.1776 76.982 65.0253 77.1341 65.0253H77.3622L77.7424 63.5019H76.982C76.906 63.5019 76.7539 63.4258 76.7539 63.2734V63.0449C76.7539 62.9687 76.8299 62.8164 76.982 62.8164H78.2746L78.4267 62.8926V63.0449L77.9705 64.9491H78.0465C78.1226 64.9491 78.2746 65.0253 78.2746 65.1776V65.5585C78.2746 65.6347 78.1986 65.787 78.0465 65.787H77.8184L77.3622 67.7674C77.3622 67.8436 77.2862 67.8436 77.1341 67.8436Z" fill="#1F1C35"/>
<path d="M29.4579 82.6211C29.7621 82.6211 29.9141 82.6973 29.9902 82.7734C30.1422 82.9258 30.2183 83.0781 30.2183 83.3066V84.4491C30.2183 84.7538 30.1422 84.9062 29.9902 84.9823C29.9902 84.9823 30.0662 85.0585 30.1422 85.2108C30.2183 85.287 30.2183 85.4393 30.2183 85.5155V86.658C30.2183 86.8866 30.0662 87.1151 29.8381 87.2674C29.7621 87.3436 29.61 87.3436 29.5339 87.3436H28.8496V82.6211H29.4579ZM29.1538 82.8496V84.83H29.5339C29.7621 84.83 29.9141 84.7538 29.9902 84.5253V84.373V83.3066C29.9902 83.0781 29.9141 82.9258 29.686 82.8496H29.5339H29.1538ZM29.1538 85.0585V87.0389H29.61C29.7621 87.0389 29.9141 86.9627 29.9902 86.7342V86.5819V85.5155C29.9902 85.287 29.9141 85.1347 29.686 85.0585C29.61 85.0585 29.5339 85.0585 29.4579 85.0585H29.1538Z" fill="#1F1C35"/>
<path d="M29.5335 87.4998H28.8492L28.6971 87.4236L28.6211 87.2713V82.5488C28.6211 82.4727 28.6971 82.3203 28.8492 82.3203H29.3815C29.6856 82.3203 29.9137 82.3965 30.0658 82.5488C30.2939 82.7012 30.3699 82.9297 30.3699 83.2343V84.3769C30.3699 84.6815 30.2939 84.8339 30.2179 84.9101L30.2939 85.0624C30.3699 85.2147 30.3699 85.3671 30.3699 85.4432V86.5858C30.3699 86.8904 30.2179 87.1951 29.9137 87.3475C29.8377 87.4998 29.6856 87.4998 29.5335 87.4998ZM29.3054 86.8904H29.6096C29.6856 86.8904 29.7616 86.8905 29.8377 86.7381V86.6619V85.5956C29.8377 85.4432 29.7616 85.3671 29.6856 85.3671C29.6856 85.3671 29.6096 85.3671 29.5335 85.3671H29.3815V86.8904H29.3054ZM29.3054 84.6815H29.5335C29.6856 84.6815 29.7616 84.6054 29.7616 84.453V84.3769V83.3105C29.7616 83.1582 29.6856 83.082 29.5335 83.082H29.4575H29.3054V84.6815Z" fill="#1F1C35"/>
<path d="M32.9566 82.623H33.1847V86.5838C33.1847 86.8123 33.2608 86.9647 33.4128 87.0408H33.5649C33.717 87.0408 33.8691 86.9647 33.9451 86.7362V86.5838V82.5469H34.1732V86.5077C34.1732 86.8885 34.0211 87.117 33.641 87.1932C33.5649 87.1932 33.4889 87.1932 33.4128 87.1932C33.1087 87.1932 32.9566 87.0408 32.8046 86.7362C32.8046 86.66 32.7285 86.5838 32.7285 86.5077V82.623H32.9566Z" fill="#1F1C35"/>
<path d="M33.6391 87.4979C33.411 87.4979 33.1069 87.4217 32.8788 86.9647C32.8027 86.8123 32.8027 86.7362 32.8027 86.66V82.623C32.8027 82.5469 32.8788 82.3945 33.0308 82.3945H33.259C33.335 82.3945 33.4871 82.4707 33.4871 82.623V86.5838C33.4871 86.8123 33.5631 86.8885 33.6391 86.8885H33.7152C33.7912 86.8885 33.9433 86.8885 34.0193 86.7362V86.66V82.623C34.0193 82.5469 34.0954 82.3945 34.2474 82.3945H34.4755C34.5516 82.3945 34.7037 82.4707 34.7037 82.623V86.5838C34.7037 87.0408 34.4755 87.3455 34.0954 87.4979C33.7912 87.4979 33.7152 87.4979 33.6391 87.4979Z" fill="#1F1C35"/>
<path d="M37.6708 82.6211C37.9749 82.6211 38.2031 82.7734 38.3551 83.0781C38.3551 83.1543 38.4312 83.2304 38.4312 83.3066V83.3828H38.2031V83.3066C38.2031 83.1543 38.127 83.0019 37.8989 82.9258H37.7468C37.5948 82.9258 37.4427 83.0019 37.3666 83.1543C37.3666 83.2304 37.2906 83.3066 37.2906 83.3828V84.4491C37.2906 84.5253 37.3666 84.6777 37.4427 84.7538C37.5187 84.83 37.6708 84.9062 37.8989 84.9062C38.051 84.9062 38.2031 84.9823 38.3551 85.1347C38.4312 85.287 38.5072 85.4393 38.5072 85.5155V86.658C38.5072 86.8866 38.3551 87.1151 38.127 87.2674C38.051 87.3436 37.8989 87.3436 37.8229 87.3436C37.5187 87.3436 37.2906 87.1912 37.2146 86.8866C37.2146 86.8104 37.1385 86.7342 37.1385 86.658V86.5057H37.3666V86.5819C37.3666 86.7342 37.4427 86.8866 37.6708 86.9627H37.8229H37.8989C38.051 86.9627 38.2031 86.8866 38.2791 86.658V86.5057V85.5155C38.2791 85.287 38.2031 85.1347 37.9749 85.0585C37.8229 85.0585 37.6708 84.9823 37.5948 84.9823C37.5187 84.9823 37.3666 84.9062 37.2146 84.7538C37.1385 84.6015 37.0625 84.4491 37.0625 84.2206V83.3066C37.0625 83.0019 37.1385 82.8496 37.2146 82.6973C37.2906 82.6973 37.4427 82.6211 37.6708 82.6211Z" fill="#1F1C35"/>
<path d="M37.6703 87.4939C37.4421 87.4939 37.062 87.4178 36.8338 86.9608C36.7578 86.8846 36.7578 86.7322 36.7578 86.6561V86.5037C36.7578 86.4276 36.8338 86.2752 36.9859 86.2752H37.214C37.2901 86.2752 37.4421 86.3514 37.4421 86.5037V86.5799C37.4421 86.6561 37.4421 86.7322 37.5942 86.8084H37.6703C37.7463 86.8084 37.8223 86.8084 37.8984 86.6561V86.5799V85.5897C37.8984 85.3612 37.8223 85.3612 37.7463 85.285C37.5942 85.285 37.4421 85.2089 37.4421 85.2089C37.2901 85.1327 37.138 85.0565 36.9859 84.9042C36.8338 84.7519 36.7578 84.5233 36.7578 84.2187V83.3046C36.7578 82.9238 36.8338 82.6953 36.9859 82.543C37.138 82.3906 37.3661 82.2383 37.5942 82.2383C37.8223 82.2383 38.2025 82.3144 38.3546 82.7715C38.4306 82.8476 38.4306 83 38.4306 83.0761V83.1523C38.4306 83.2285 38.3546 83.3808 38.2025 83.3808H37.9744C37.8984 83.3808 37.7463 83.3046 37.7463 83.1523V83.0761C37.7463 83 37.7463 82.9238 37.5942 82.8476H37.5182C37.4421 82.8476 37.3661 82.8476 37.2901 83V83.1523V84.2187L37.5182 84.5995C37.5942 84.6757 37.6703 84.6757 37.8223 84.6757C38.0504 84.6757 38.2025 84.828 38.3546 84.9804C38.5067 85.1327 38.5067 85.3612 38.5067 85.5135V86.6561C38.5067 86.9608 38.3546 87.2654 38.0504 87.4178C37.9744 87.4939 37.8223 87.4939 37.6703 87.4939Z" fill="#1F1C35"/>
<path d="M46.2632 82.6211V82.8496H45.6549V87.3436H45.4268V82.8496H44.8945V82.6211H46.2632Z" fill="#1F1C35"/>
<path d="M45.6544 87.4979H45.4263C45.3502 87.4979 45.1981 87.4217 45.1981 87.2693V83.0801H44.818C44.7419 83.0801 44.5898 83.0039 44.5898 82.8515V82.623C44.5898 82.5469 44.6659 82.3945 44.818 82.3945H46.1866C46.2627 82.3945 46.4147 82.4707 46.4147 82.623V82.8515C46.4147 82.9277 46.3387 83.0801 46.1866 83.0801H45.8825V87.3455C45.8825 87.4217 45.8064 87.4979 45.6544 87.4979Z" fill="#1F1C35"/>
<path d="M49.6082 82.6211C49.9123 82.6211 50.1404 82.7734 50.2925 83.0781V83.3066V86.658C50.2925 86.9627 50.1404 87.1912 49.8363 87.3436C49.7602 87.3436 49.6842 87.3436 49.6082 87.3436C49.304 87.3436 49.1519 87.1912 48.9999 86.9627C48.9238 86.8866 48.9238 86.7342 48.9238 86.5819V83.5351C48.9238 83.2304 48.9999 83.0781 49.0759 82.9258C49.228 82.6973 49.3801 82.6211 49.6082 82.6211ZM49.1519 83.3066V86.658C49.1519 86.8866 49.228 87.0389 49.4561 87.1151H49.5321C49.6842 87.1151 49.8363 87.0389 49.9123 86.8104V86.658V83.2304C49.9123 83.0781 49.8363 83.0019 49.7602 82.9258C49.6842 82.8496 49.6082 82.8496 49.5321 82.8496C49.3801 82.8496 49.228 82.9258 49.1519 83.0781C49.228 83.1543 49.1519 83.2304 49.1519 83.3066Z" fill="#1F1C35"/>
<path d="M49.6079 87.4998C49.2277 87.4998 48.9996 87.3475 48.8475 86.9666C48.7715 86.8904 48.7715 86.7381 48.7715 86.4334V83.3867C48.7715 83.0058 48.8475 82.7773 48.9996 82.625C49.1517 82.4727 49.3798 82.3203 49.6079 82.3203H49.6839C49.912 82.3203 50.2922 82.3965 50.5203 82.9297V83.0058V83.2343V86.6619C50.5203 86.9666 50.4443 87.2713 49.912 87.4998C49.76 87.4998 49.6839 87.4998 49.6079 87.4998ZM49.6079 83.0058C49.5319 83.0058 49.4558 83.0058 49.3798 83.1582V83.3105V86.6619C49.3798 86.7381 49.3798 86.8143 49.6079 86.8904H49.6839C49.6839 86.8904 49.836 86.8905 49.912 86.7381V86.6619V83.3105C49.912 83.2343 49.836 83.1582 49.76 83.1582L49.6079 83.0058Z" fill="#1F1C35"/>
<path d="M57.4403 82.6211C57.7445 82.6211 57.9726 82.7734 58.1247 83.0781C58.1247 83.1543 58.2007 83.2304 58.2007 83.3066V83.3828H57.9726V83.3066C57.9726 83.1543 57.8965 83.0019 57.6684 82.9258H57.5164C57.3643 82.9258 57.2122 83.0019 57.1362 83.1543C57.1362 83.2304 57.0601 83.3066 57.0601 83.3828V84.4491C57.0601 84.5253 57.1362 84.6777 57.2122 84.7538C57.2883 84.83 57.4403 84.9062 57.6684 84.9062C57.8205 84.9062 57.9726 84.9823 58.1247 85.1347C58.2007 85.287 58.2767 85.4393 58.2767 85.5155V86.658C58.2767 86.8866 58.1247 87.1151 57.8965 87.2674C57.8205 87.3436 57.6684 87.3436 57.5924 87.3436C57.2883 87.3436 57.0601 87.1912 56.9841 86.8866C56.9841 86.8104 56.9081 86.7342 56.9081 86.658V86.5057H57.1362V86.5819C57.1362 86.7342 57.2122 86.8866 57.4403 86.9627H57.5924H57.6684C57.8205 86.9627 57.9726 86.8866 58.0486 86.658V86.5057V85.5155C58.0486 85.287 57.9726 85.1347 57.7445 85.0585C57.5924 85.0585 57.4403 84.9823 57.3643 84.9823C57.2883 84.9823 57.1362 84.9062 56.9841 84.7538C56.9081 84.6015 56.832 84.4491 56.832 84.2206V83.3066C56.832 83.0019 56.9081 82.8496 56.9841 82.6973C57.1362 82.6973 57.2882 82.6211 57.4403 82.6211Z" fill="#1F1C35"/>
<path d="M57.516 87.4939C57.2879 87.4939 56.9077 87.4178 56.6796 86.9608C56.6035 86.8846 56.6035 86.7322 56.6035 86.6561V86.5037C56.6035 86.4276 56.6796 86.2752 56.8316 86.2752H57.0597C57.1358 86.2752 57.2878 86.3514 57.2878 86.5037V86.5799C57.2878 86.6561 57.2878 86.7322 57.4399 86.8084H57.516C57.592 86.8084 57.668 86.8084 57.7441 86.6561V86.5799V85.5897C57.7441 85.3612 57.668 85.3612 57.592 85.285C57.4399 85.285 57.2878 85.2089 57.2878 85.2089C57.1358 85.1327 56.9837 85.0565 56.8316 84.9042C56.6796 84.7519 56.6035 84.5233 56.6035 84.2187V83.3046C56.6035 82.9238 56.6796 82.6953 56.8316 82.543C56.9837 82.3906 57.2118 82.2383 57.4399 82.2383C57.668 82.2383 58.0482 82.3144 58.2003 82.7715C58.2763 82.8476 58.2763 83 58.2763 83.0761V83.1523C58.2763 83.2285 58.2003 83.3808 58.0482 83.3808H57.8201C57.7441 83.3808 57.592 83.3046 57.592 83.1523V83.0761C57.592 83 57.592 82.9238 57.4399 82.8476H57.3639C57.2878 82.8476 57.2118 82.8476 57.1358 83V83.1523V84.2187L57.2878 84.5995C57.3639 84.6757 57.4399 84.6757 57.592 84.6757C57.8201 84.6757 57.9722 84.828 58.1243 84.9804C58.2763 85.1327 58.2763 85.3612 58.2763 85.5135V86.6561C58.2763 86.9608 58.1243 87.2654 57.8201 87.4178C57.7441 87.4939 57.592 87.4939 57.516 87.4939Z" fill="#1F1C35"/>
<path d="M61.5457 82.6211C61.8498 82.6211 62.0779 82.7734 62.23 83.0781C62.23 83.1543 62.306 83.2304 62.306 83.3066V83.3828H62.0779V83.3066C62.0779 83.1543 62.0019 83.0019 61.7738 82.9258H61.6217C61.4696 82.9258 61.3175 83.0019 61.2415 83.1543C61.2415 83.2304 61.1655 83.3066 61.1655 83.3828V86.7342C61.1655 86.9627 61.2415 87.1151 61.4696 87.1912H61.5457H61.6217C61.7738 87.1912 61.9258 87.1151 62.0019 86.8866C62.0019 86.8104 62.0019 86.7342 62.0019 86.658H62.23V86.7342C62.23 86.9627 62.0779 87.1912 61.8498 87.3436C61.7738 87.4197 61.6217 87.4197 61.5457 87.4197C61.2415 87.4197 61.0894 87.2674 60.9374 87.0389C60.8613 86.9627 60.8613 86.8104 60.8613 86.658V83.6113C60.8613 83.3066 60.9374 83.1543 61.0134 83.0019C61.1655 82.6973 61.3176 82.6211 61.5457 82.6211Z" fill="#1F1C35"/>
<path d="M61.5454 87.4979C61.1652 87.4979 60.9371 87.3455 60.785 86.9647C60.709 86.8885 60.709 86.7362 60.709 86.5077V83.4609C60.709 83.0801 60.785 82.8515 60.9371 82.6992C61.0892 82.5469 61.3173 82.3945 61.5454 82.3945C61.7735 82.3945 62.1537 82.4707 62.3058 82.9277C62.3818 83.0039 62.3818 83.1562 62.3818 83.2324V83.3086C62.3818 83.3847 62.3058 83.5371 62.1537 83.5371H61.9256C61.8495 83.5371 61.6975 83.4609 61.6975 83.3086V83.2324C61.6975 83.1562 61.6975 83.0801 61.5454 83.0039H61.4694C61.3933 83.0039 61.3173 83.0039 61.2412 83.1562V83.3086V86.66C61.2412 86.7362 61.2412 86.8123 61.4694 86.8885H61.5454C61.5454 86.8885 61.6975 86.8885 61.7735 86.7362C61.7735 86.7362 61.7735 86.66 61.7735 86.5838C61.7735 86.5077 61.8495 86.3553 62.0016 86.3553H62.2297C62.3058 86.3553 62.4578 86.4315 62.4578 86.5838V86.66C62.4578 86.9647 62.3058 87.2693 62.0016 87.4217C61.7735 87.4978 61.6975 87.4979 61.5454 87.4979Z" fill="#1F1C35"/>
<path d="M65.1948 82.6211V84.83H66.0312V82.6211H66.3353V87.3436H66.0312V85.0585H65.1948V87.3436H64.8906V82.6211H65.1948Z" fill="#1F1C35"/>
<path d="M66.3349 87.4998H66.1068C66.0308 87.4998 65.8787 87.4236 65.8787 87.2713V85.2147H65.4225V87.2713C65.4225 87.3475 65.3464 87.4998 65.1944 87.4998H64.8902C64.8142 87.4998 64.6621 87.4236 64.6621 87.2713V82.5488C64.6621 82.4727 64.7381 82.3203 64.8902 82.3203H65.1183C65.1944 82.3203 65.3464 82.3965 65.3464 82.5488V84.6054H65.8027V82.5488C65.8027 82.4727 65.8787 82.3203 66.0308 82.3203H66.2589C66.3349 82.3203 66.487 82.3965 66.487 82.5488V87.2713C66.487 87.4236 66.411 87.4998 66.3349 87.4998Z" fill="#1F1C35"/>
<path d="M69.6804 82.6211C69.9846 82.6211 70.2127 82.7734 70.3648 83.0781V83.3066V86.658C70.3648 86.9627 70.2127 87.1912 69.9085 87.3436C69.8325 87.3436 69.7565 87.3436 69.6804 87.3436C69.3763 87.3436 69.2242 87.1912 69.0721 86.9627C68.9961 86.8866 68.9961 86.7342 68.9961 86.5819V83.5351C68.9961 83.2304 69.0721 83.0781 69.1482 82.9258C69.3002 82.6973 69.4523 82.6211 69.6804 82.6211ZM69.2242 83.3066V86.658C69.2242 86.8866 69.3002 87.0389 69.5283 87.1151H69.6044C69.7565 87.1151 69.9085 87.0389 69.9846 86.8104V86.658V83.2304C69.9846 83.0781 69.9085 83.0019 69.8325 82.9258C69.7565 82.8496 69.6804 82.8496 69.6044 82.8496C69.4523 82.8496 69.3002 82.9258 69.2242 83.0781C69.2242 83.1543 69.2242 83.2304 69.2242 83.3066Z" fill="#1F1C35"/>
<path d="M69.6821 87.4998C69.3019 87.4998 69.0738 87.3475 68.9217 86.9666C68.8457 86.8904 68.8457 86.7381 68.8457 86.4334V83.3867C68.8457 83.0058 68.9217 82.7773 69.0738 82.625C69.2259 82.4727 69.454 82.3203 69.6821 82.3203C69.9102 82.3203 70.2904 82.3965 70.5185 82.9297V83.0058V83.2343V86.6619C70.5185 86.9666 70.4425 87.2713 69.9102 87.4998C69.8342 87.4998 69.7582 87.4998 69.6821 87.4998ZM69.6821 83.0058C69.6061 83.0058 69.53 83.0058 69.454 83.1582V83.3105V86.6619C69.454 86.7381 69.454 86.8143 69.6821 86.8904H69.7581C69.7581 86.8904 69.9102 86.8905 69.9863 86.7381V86.6619V83.3105C69.9863 83.2343 69.9102 83.2343 69.8342 83.1582L69.6821 83.0058Z" fill="#1F1C35"/>
<path d="M73.7117 82.6211C74.0158 82.6211 74.2439 82.7734 74.396 83.0781V83.3066V86.658C74.396 86.9627 74.2439 87.1912 73.9398 87.3436C73.8638 87.3436 73.7877 87.3436 73.7117 87.3436C73.4075 87.3436 73.2555 87.1912 73.1034 86.9627C73.0273 86.8866 73.0273 86.7342 73.0273 86.5819V83.5351C73.0273 83.2304 73.1034 83.0781 73.1794 82.9258C73.3315 82.6973 73.4836 82.6211 73.7117 82.6211ZM73.3315 83.3066V86.658C73.3315 86.8866 73.4075 87.0389 73.6356 87.1151H73.7117C73.8638 87.1151 74.0158 87.0389 74.0919 86.8104V86.658V83.2304C74.0919 83.0781 74.0158 83.0019 73.9398 82.9258C73.8638 82.8496 73.7877 82.8496 73.7117 82.8496C73.5596 82.8496 73.4075 82.9258 73.3315 83.0781C73.3315 83.1543 73.3315 83.2304 73.3315 83.3066Z" fill="#1F1C35"/>
<path d="M73.7114 87.4998C73.3312 87.4998 73.1031 87.3475 72.951 86.9666C72.875 86.8904 72.875 86.7381 72.875 86.4334V83.3867C72.875 83.0058 72.951 82.7773 73.1031 82.625C73.2552 82.4727 73.4833 82.3203 73.7114 82.3203C73.9395 82.3203 74.3197 82.3965 74.5478 82.9297V83.0058V83.2343V86.6619C74.5478 86.9666 74.4718 87.2713 73.9395 87.4998C73.8635 87.4998 73.7874 87.4998 73.7114 87.4998ZM73.7114 83.0058C73.6354 83.0058 73.5593 83.0058 73.4833 83.1582V83.3105V86.6619C73.4833 86.7381 73.4833 86.8143 73.7114 86.8904H73.7874C73.7874 86.8904 73.9395 86.8905 74.0156 86.7381V86.6619V83.3105C74.0156 83.2343 73.9395 83.2343 73.8635 83.1582L73.7114 83.0058Z" fill="#1F1C35"/>
<path d="M77.2088 82.6211H77.2849L77.3609 82.6973V87.0389H78.3494L78.4254 87.1151V87.2674L78.3494 87.3436H77.1328V82.6973L77.2088 82.6211Z" fill="#1F1C35"/>
<path d="M78.3489 87.4998H77.0562C76.9802 87.4998 76.8281 87.4236 76.8281 87.2713V82.625L76.9042 82.4726L76.9802 82.3965L77.1323 82.3203H77.2083L77.3604 82.3965L77.4364 82.4726L77.5125 82.625V86.8143H78.3489L78.5009 86.8904L78.577 86.9666L78.653 87.119V87.1951L78.577 87.3475L78.5009 87.4236L78.3489 87.4998Z" fill="#1F1C35"/>
<path d="M24.9718 20.9999H23.0709C22.6147 20.9999 22.3105 20.6953 22.3105 20.2383C22.3105 19.7812 22.6147 19.4766 23.0709 19.4766H24.9718C25.4281 19.4766 25.7322 19.7812 25.7322 20.2383C25.7322 20.6191 25.4281 20.9999 24.9718 20.9999Z" fill="#1F1C35"/>
<path d="M78.5784 20.9999H74.7765C74.3203 20.9999 74.0161 20.6953 74.0161 20.2383C74.0161 19.7812 74.3203 19.4766 74.7765 19.4766H78.5784C79.0346 19.4766 79.3387 19.7812 79.3387 20.2383C79.3387 20.6191 79.0346 20.9999 78.5784 20.9999ZM70.9747 20.9999H67.1728C66.7166 20.9999 66.4125 20.6953 66.4125 20.2383C66.4125 19.7812 66.7166 19.4766 67.1728 19.4766H70.9747C71.4309 19.4766 71.735 19.7812 71.735 20.2383C71.735 20.6191 71.3549 20.9999 70.9747 20.9999ZM63.2949 20.9999H59.4931C59.0369 20.9999 58.7327 20.6953 58.7327 20.2383C58.7327 19.7812 59.0369 19.4766 59.4931 19.4766H63.2949C63.7512 19.4766 64.0553 19.7812 64.0553 20.2383C64.0553 20.6191 63.6751 20.9999 63.2949 20.9999ZM55.6152 20.9999H51.8134C51.3571 20.9999 51.053 20.6953 51.053 20.2383C51.053 19.7812 51.3571 19.4766 51.8134 19.4766H55.6152C56.0714 19.4766 56.3756 19.7812 56.3756 20.2383C56.3756 20.6191 56.0714 20.9999 55.6152 20.9999ZM47.9355 20.9999H44.1336C43.6774 20.9999 43.3733 20.6953 43.3733 20.2383C43.3733 19.7812 43.6774 19.4766 44.1336 19.4766H47.9355C48.3917 19.4766 48.6959 19.7812 48.6959 20.2383C48.6959 20.6191 48.3917 20.9999 47.9355 20.9999ZM40.3318 20.9999H36.5299C36.0737 20.9999 35.7696 20.6953 35.7696 20.2383C35.7696 19.7812 36.0737 19.4766 36.5299 19.4766H40.3318C40.788 19.4766 41.0922 19.7812 41.0922 20.2383C41.0922 20.6191 40.712 20.9999 40.3318 20.9999ZM32.6521 20.9999H28.8502C28.394 20.9999 28.0898 20.6953 28.0898 20.2383C28.0898 19.7812 28.394 19.4766 28.8502 19.4766H32.6521C33.1083 19.4766 33.4124 19.7812 33.4124 20.2383C33.4124 20.6191 33.0322 20.9999 32.6521 20.9999Z" fill="#1F1C35"/>
<path d="M84.3566 20.9999H82.4557C81.9995 20.9999 81.6953 20.6953 81.6953 20.2383C81.6953 19.7812 81.9995 19.4766 82.4557 19.4766H84.3566C84.8128 19.4766 85.117 19.7812 85.117 20.2383C85.117 20.6191 84.7368 20.9999 84.3566 20.9999Z" fill="#1F1C35"/>
<path d="M102.987 94.0451H4.51874C2.998 94.0451 1.5533 93.2073 0.792933 91.9124C0.0325639 90.5414 0.0325639 88.9418 0.792933 87.6469L17.7492 58.2457C18.0533 57.7126 18.7376 57.4841 19.2699 57.8649C19.8022 58.1696 20.0303 58.8551 19.6501 59.3883L2.84593 88.7895C2.46575 89.3988 2.46575 90.1605 2.84593 90.7699C3.22611 91.3792 3.83441 91.7601 4.59478 91.7601H103.063C103.747 91.7601 104.431 91.3792 104.811 90.7699C105.192 90.1605 105.192 89.3988 104.811 88.7895L87.8552 59.4644C87.5511 58.9313 87.7031 58.2457 88.2354 57.9411C88.7677 57.6364 89.452 57.7887 89.7561 58.3219L106.712 87.6469C107.473 89.018 107.473 90.6175 106.712 91.9124C105.952 93.2073 104.583 94.0451 102.987 94.0451Z" fill="#1F1C35"/>
<path d="M24.9718 77.3671H23.0709C22.6147 77.3671 22.3105 77.0625 22.3105 76.6054C22.3105 76.1484 22.6147 75.8438 23.0709 75.8438H24.9718C25.4281 75.8438 25.7322 76.1484 25.7322 76.6054C25.7322 76.9863 25.4281 77.3671 24.9718 77.3671Z" fill="#1F1C35"/>
<path d="M78.5784 77.3671H74.7765C74.3203 77.3671 74.0161 77.0625 74.0161 76.6054C74.0161 76.1484 74.3203 75.8438 74.7765 75.8438H78.5784C79.0346 75.8438 79.3387 76.1484 79.3387 76.6054C79.3387 76.9863 79.0346 77.3671 78.5784 77.3671ZM70.9747 77.3671H67.1728C66.7166 77.3671 66.4125 77.0625 66.4125 76.6054C66.4125 76.1484 66.7166 75.8438 67.1728 75.8438H70.9747C71.4309 75.8438 71.735 76.1484 71.735 76.6054C71.735 76.9863 71.3549 77.3671 70.9747 77.3671ZM63.2949 77.3671H59.4931C59.0369 77.3671 58.7327 77.0625 58.7327 76.6054C58.7327 76.1484 59.0369 75.8438 59.4931 75.8438H63.2949C63.7512 75.8438 64.0553 76.1484 64.0553 76.6054C64.0553 76.9863 63.6751 77.3671 63.2949 77.3671ZM55.6152 77.3671H51.8134C51.3571 77.3671 51.053 77.0625 51.053 76.6054C51.053 76.1484 51.3571 75.8438 51.8134 75.8438H55.6152C56.0714 75.8438 56.3756 76.1484 56.3756 76.6054C56.3756 76.9863 56.0714 77.3671 55.6152 77.3671ZM47.9355 77.3671H44.1336C43.6774 77.3671 43.3733 77.0625 43.3733 76.6054C43.3733 76.1484 43.6774 75.8438 44.1336 75.8438H47.9355C48.3917 75.8438 48.6959 76.1484 48.6959 76.6054C48.6959 76.9863 48.3917 77.3671 47.9355 77.3671ZM40.3318 77.3671H36.5299C36.0737 77.3671 35.7696 77.0625 35.7696 76.6054C35.7696 76.1484 36.0737 75.8438 36.5299 75.8438H40.3318C40.788 75.8438 41.0922 76.1484 41.0922 76.6054C41.0922 76.9863 40.712 77.3671 40.3318 77.3671ZM32.6521 77.3671H28.8502C28.394 77.3671 28.0898 77.0625 28.0898 76.6054C28.0898 76.1484 28.394 75.8438 28.8502 75.8438H32.6521C33.1083 75.8438 33.4124 76.1484 33.4124 76.6054C33.4124 76.9863 33.0322 77.3671 32.6521 77.3671Z" fill="#1F1C35"/>
<path d="M84.3566 77.3671H82.4557C81.9995 77.3671 81.6953 77.0625 81.6953 76.6054C81.6953 76.1484 81.9995 75.8438 82.4557 75.8438H84.3566C84.8128 75.8438 85.117 76.1484 85.117 76.6054C85.117 76.9863 84.7368 77.3671 84.3566 77.3671Z" fill="#1F1C35"/>
<path d="M49.608 56.4961C49.2278 56.4961 48.8477 56.8008 48.8477 57.2578C48.8477 57.6386 49.1518 58.0195 49.608 58.0195C49.9882 58.0195 50.3684 57.7148 50.3684 57.2578C50.3684 56.8008 49.9882 56.4961 49.608 56.4961ZM49.608 57.4863C49.456 57.4863 49.3039 57.334 49.3039 57.1816C49.3039 57.0293 49.456 56.8769 49.608 56.8769C49.7601 56.8769 49.9122 57.0293 49.9122 57.1816C49.9122 57.4101 49.7601 57.4863 49.608 57.4863Z" fill="#1F1C35"/>
<path d="M51.2799 56.4961C50.8997 56.4961 50.5195 56.8008 50.5195 57.2578C50.5195 57.6386 50.8237 58.0195 51.2799 58.0195C51.6601 58.0195 52.0403 57.7148 52.0403 57.2578C51.9642 56.8008 51.6601 56.4961 51.2799 56.4961ZM51.2799 57.4863C51.1278 57.4863 50.9758 57.334 50.9758 57.1816C50.9758 57.0293 51.1278 56.8769 51.2799 56.8769C51.432 56.8769 51.584 57.0293 51.584 57.1816C51.508 57.4101 51.432 57.4863 51.2799 57.4863Z" fill="#1F1C35"/>
<path d="M56.2994 56.4961C55.9192 56.4961 55.5391 56.8008 55.5391 57.2578C55.5391 57.6386 55.8432 58.0195 56.2994 58.0195C56.6796 58.0195 57.0598 57.7148 57.0598 57.2578C57.0598 56.8008 56.6796 56.4961 56.2994 56.4961ZM56.2994 57.4863C56.1474 57.4863 55.9953 57.334 55.9953 57.1816C55.9953 57.0293 56.1474 56.8769 56.2994 56.8769C56.4515 56.8769 56.6036 57.0293 56.6036 57.1816C56.6036 57.4101 56.4515 57.4863 56.2994 57.4863Z" fill="#1F1C35"/>
<path d="M57.9713 56.4961C57.5911 56.4961 57.2109 56.8008 57.2109 57.2578C57.2109 57.6386 57.5151 58.0195 57.9713 58.0195C58.3515 58.0195 58.7317 57.7148 58.7317 57.2578C58.6556 56.8008 58.3515 56.4961 57.9713 56.4961ZM57.9713 57.4863C57.8192 57.4863 57.6672 57.334 57.6672 57.1816C57.6672 57.0293 57.8192 56.8769 57.9713 56.8769C58.1234 56.8769 58.2755 57.0293 58.2755 57.1816C58.1994 57.4101 58.1234 57.4863 57.9713 57.4863Z" fill="#1F1C35"/>
<path d="M49.0761 64.3398C48.4678 64.3398 47.9355 64.873 47.9355 65.4824C47.9355 66.0917 48.4678 66.6249 49.0761 66.6249C49.6844 66.6249 50.2167 66.0917 50.2167 65.4824C50.2167 64.873 49.6844 64.3398 49.0761 64.3398ZM49.0761 66.0917C48.6959 66.0917 48.3918 65.7871 48.3918 65.4062C48.3918 65.0254 48.6959 64.7207 49.0761 64.7207C49.4563 64.7207 49.7604 65.0254 49.7604 65.4062C49.7604 65.8632 49.4563 66.0917 49.0761 66.0917Z" fill="#1F1C35"/>
<path d="M58.5038 66.6249C59.1121 66.6249 59.6444 66.0917 59.6444 65.4824C59.6444 64.873 59.1121 64.3398 58.5038 64.3398C57.8955 64.3398 57.3633 64.873 57.3633 65.4824C57.3633 66.0917 57.8195 66.6249 58.5038 66.6249ZM58.5038 64.7969C58.884 64.7969 59.1882 65.1015 59.1882 65.4824C59.1882 65.8632 58.884 66.1679 58.5038 66.1679C58.1237 66.1679 57.8195 65.8632 57.8195 65.4824C57.8195 65.1015 58.1237 64.7969 58.5038 64.7969Z" fill="#1F1C35"/>
<path d="M46.1101 62.9704H46.4143V69.2924V69.7494V71.5013C46.4143 72.5677 47.2507 73.4055 48.3152 73.4055C49.3797 73.4055 50.2161 72.5677 50.2161 71.5013V70.2064H57.4396V71.5013C57.4396 72.5677 58.276 73.4055 59.3406 73.4055C60.4051 73.4055 61.2415 72.5677 61.2415 71.5013V69.7494V69.2924V62.9704H61.5456C62.382 62.9704 63.0664 62.2849 63.0664 61.447V59.619C63.0664 58.7811 62.382 58.0956 61.5456 58.0956H61.0894C60.5572 56.3437 58.9604 55.125 57.1355 55.125H50.6724C48.7714 55.125 47.1747 56.4199 46.7184 58.0956H46.2622C45.4258 58.0956 44.7415 58.7811 44.7415 59.619V61.447C44.5134 62.2849 45.1977 62.9704 46.1101 62.9704ZM61.4696 59.0858C61.7737 59.0858 62.0779 59.3905 62.0779 59.6951V61.5232C62.0779 61.8279 61.7737 62.1325 61.4696 62.1325H61.1655V59.3143C61.1655 59.2381 61.1655 59.162 61.1655 59.0858H61.4696ZM60.253 71.5013C60.253 72.0345 59.7968 72.4915 59.2645 72.4915C58.7323 72.4915 58.2761 72.0345 58.2761 71.5013V70.2064H60.177V71.5013H60.253ZM60.253 59.2381V62.2849H54.018V58.7811H60.177C60.177 58.9334 60.253 59.0858 60.253 59.2381ZM48.2392 56.953C48.8475 56.3437 49.6078 56.039 50.5203 56.039H56.9834C57.8959 56.039 58.6562 56.4199 59.2645 56.953C59.6447 57.3339 59.9489 57.7909 60.1009 58.3241H47.4788C47.6309 57.8671 47.935 57.3339 48.2392 56.953ZM47.3267 59.2381C47.3267 59.0858 47.3267 58.9334 47.3267 58.7811H53.4857V62.2849H47.2507V59.2381H47.3267ZM47.3267 62.7419H60.253V66.9312H56.7553V64.7985C56.7553 63.9606 56.071 63.3512 55.3106 63.3512H52.3452C51.5088 63.3512 50.9005 64.0368 50.9005 64.7985V66.9312H47.4028V62.7419H47.3267ZM56.2991 64.8746V67.0074H51.3567V64.8746C51.3567 64.3414 51.8129 63.8844 52.3452 63.8844H55.3106C55.8429 63.8844 56.2991 64.3414 56.2991 64.8746ZM47.3267 68.8354V67.9214H60.253V68.8354V69.2924H57.4396H50.2161H47.4028V68.8354H47.3267ZM47.3267 70.2064H49.2277V71.5013C49.2277 72.0345 48.7714 72.4915 48.2392 72.4915C47.7069 72.4915 47.2507 72.0345 47.2507 71.5013V70.2064H47.3267ZM45.5018 59.619C45.5018 59.3143 45.806 59.0096 46.1101 59.0096H46.4143C46.4143 59.0858 46.4143 59.1619 46.4143 59.2381V62.0564H46.1101C45.806 62.0564 45.5018 61.7517 45.5018 61.447V59.619Z" fill="#1F1C35"/>
<path d="M70.2907 27.8563C69.9105 27.8563 69.5303 27.6278 69.3022 27.247L55.5395 3.32995C55.1594 2.7206 54.475 2.33976 53.7907 2.33976C53.1064 2.33976 52.422 2.7206 52.0418 3.32995L38.2792 27.247C37.975 27.7802 37.2907 28.0087 36.7584 27.6278C36.2262 27.3232 35.9981 26.6376 36.3782 26.1045L50.0649 2.18742C50.8253 0.816377 52.1939 0.0546875 53.7907 0.0546875C55.3114 0.0546875 56.7561 0.892546 57.5165 2.18742L71.2792 26.1045C71.5833 26.6376 71.4313 27.3232 70.899 27.6278C70.6709 27.7802 70.4428 27.8563 70.2907 27.8563Z" fill="#1F1C35"/>
</g>
<defs>
<clipPath id="clip0_4340_2948">
<rect width="107.06" height="101" fill="white" transform="translate(0.259766 0.0546875)"/>
</clipPath>
</defs>
</svg>
