<svg width="117" height="102" viewBox="0 0 117 102" fill="none" xmlns="http://www.w3.org/2000/svg">
<g clip-path="url(#clip0_4340_2810)">
<path d="M20.0874 20.5066L16.9994 18.1354C16.8523 17.9872 16.7788 17.7649 16.9259 17.6167C17.0729 17.4685 17.2935 17.3944 17.4405 17.5426L18.6905 18.5059L19.7198 17.1721L18.4699 16.2087C18.3228 16.0605 18.2493 15.8382 18.3964 15.69C18.5434 15.5418 18.764 15.4677 18.911 15.6159L21.9991 17.9872C22.1461 18.1354 22.2197 18.3577 22.0726 18.5059C21.9256 18.6541 21.705 18.7282 21.5579 18.58L20.308 17.6167L19.2787 18.9505L20.5286 19.9138C20.6756 20.062 20.7492 20.2843 20.6021 20.4325C20.4551 20.6548 20.2345 20.6548 20.0874 20.5066Z" fill="#1F1C35"/>
<path d="M20.3078 20.7298C20.2343 20.7298 20.0872 20.7298 20.0137 20.6557L16.9257 18.2845C16.8521 18.2104 16.7786 18.0622 16.7051 17.914C16.7051 17.7658 16.7051 17.6176 16.7786 17.5435C16.9257 17.3212 17.2933 17.2471 17.5139 17.4694L18.6167 18.3586L19.499 17.2471L18.3962 16.3578C18.3226 16.2837 18.2491 16.1355 18.1756 15.9873C18.1756 15.8391 18.1756 15.6909 18.2491 15.6168C18.3226 15.4686 18.4697 15.4686 18.6167 15.3945C18.7638 15.3945 18.9108 15.3945 18.9844 15.4686L22.0724 17.8399C22.293 17.9881 22.3665 18.3586 22.1459 18.5809C21.9989 18.8032 21.6312 18.8773 21.4107 18.655L20.3078 17.8399L19.4255 18.9514L20.5284 19.8406C20.6019 19.9147 20.6754 20.0629 20.7489 20.2111C20.7489 20.3593 20.7489 20.5075 20.6754 20.5816C20.6019 20.7298 20.4548 20.7298 20.3078 20.7298ZM20.1607 20.4334C20.2343 20.5075 20.3813 20.5075 20.4548 20.3593L20.5284 20.2111L20.4548 20.0629L19.0579 19.0255L20.3078 17.3953L21.7048 18.4327C21.7783 18.5068 21.9253 18.5068 21.9989 18.3586C22.0724 18.2845 22.0724 18.1363 21.9989 18.0622L18.9108 15.6909L18.7638 15.6168L18.6167 15.6909L18.5432 15.8391L18.6167 15.9873L20.0137 17.0248L18.7638 18.655L17.3668 17.6176C17.2933 17.5435 17.1462 17.5435 17.0727 17.6917L16.9992 17.8399L17.0727 17.9881L20.1607 20.4334Z" fill="#1F1C35"/>
<path d="M22.3661 12.0595C22.2191 11.9113 22.2191 11.689 22.3661 11.5408C22.5132 11.3926 22.7338 11.3926 22.8808 11.5408L25.4542 14.4308C25.6012 14.579 25.6012 14.8013 25.4542 14.9495C25.3071 15.0977 25.0866 15.0977 24.9395 14.9495L22.3661 12.0595Z" fill="#1F1C35"/>
<path d="M25.2345 15.3218C25.0875 15.3218 24.9404 15.2477 24.8669 15.1736L22.2935 12.2837C22.22 12.2096 22.1465 12.0614 22.1465 11.9132C22.1465 11.765 22.22 11.6167 22.2935 11.5426C22.5141 11.3203 22.8082 11.3944 23.0288 11.5426L25.6022 14.4326C25.8227 14.6549 25.7492 14.9513 25.5286 15.1736C25.4551 15.2477 25.3081 15.3218 25.2345 15.3218ZM22.4406 11.9873L25.014 14.8772C25.0875 14.9513 25.2345 14.9513 25.3081 14.8772C25.3816 14.8031 25.3816 14.6549 25.3081 14.5808L22.7347 11.6908C22.6612 11.6167 22.5141 11.6167 22.4406 11.6908L22.3671 11.8391L22.4406 11.9873Z" fill="#1F1C35"/>
<path d="M27.5865 10.2827C26.9248 9.09707 27.2924 7.68914 28.4688 6.94813C28.9835 6.65173 29.4982 6.57763 30.0129 6.65173C30.2334 6.65173 30.3805 6.87403 30.3805 7.09633C30.3805 7.31864 30.1599 7.46684 29.9393 7.39274C29.5717 7.31864 29.2041 7.39274 28.8365 7.61504C28.3953 7.83735 28.1747 8.20785 28.0277 8.65246C27.8806 9.09707 27.9542 9.54168 28.1747 9.91218C28.3953 10.2827 28.7629 10.5791 29.2041 10.6532C29.6452 10.7273 30.0864 10.7273 30.454 10.4309C30.7481 10.2827 30.9687 9.98628 31.1157 9.76398L30.6746 8.94887L29.8658 9.46757C29.7188 9.54168 29.4247 9.54168 29.3511 9.31937C29.2776 9.17117 29.2776 8.87476 29.4982 8.80066L30.6011 8.13375C30.7481 8.05965 31.0422 8.05965 31.1157 8.28195L31.851 9.54168L31.9245 9.61578C31.9245 9.68988 31.9245 9.76398 31.9245 9.83808C31.7039 10.3568 31.4098 10.8014 30.8952 11.0237C29.7188 11.7647 28.2483 11.3942 27.5865 10.2827Z" fill="#1F1C35"/>
<path d="M29.6453 11.5419C28.763 11.5419 27.9542 11.0973 27.513 10.2822C26.7778 9.09657 27.2189 7.46634 28.4689 6.72533C28.9835 6.42892 29.5717 6.28072 30.0864 6.35482C30.2335 6.35482 30.3805 6.42892 30.454 6.57712C30.5275 6.72533 30.6011 6.79943 30.6011 6.94763C30.6011 7.09583 30.5276 7.24404 30.3805 7.31814C30.2335 7.39224 30.1599 7.46634 30.0129 7.39224C29.6453 7.31814 29.3512 7.39224 29.0571 7.61454C28.6894 7.83685 28.4689 8.13325 28.3218 8.57786C28.2483 8.94836 28.2483 9.39297 28.4689 9.68938C28.6894 10.0599 28.9835 10.2822 29.3512 10.3563C29.7188 10.4304 30.1599 10.4304 30.5276 10.2081C30.7481 10.0599 30.9687 9.91168 31.1158 9.68938L30.7481 9.09657L30.0864 9.54117C29.9394 9.61528 29.8658 9.61528 29.7188 9.61528C29.5717 9.61528 29.4982 9.46707 29.4247 9.39297C29.2776 9.17067 29.3512 8.80016 29.6453 8.65196L30.7481 7.98505C31.0422 7.83685 31.3363 7.91095 31.4834 8.13325L32.2186 9.39297L32.2921 9.46707V9.54117C32.2921 9.68938 32.2921 9.76348 32.2921 9.83758C31.851 10.4304 31.4834 10.875 30.9687 11.1714C30.5276 11.4678 30.0864 11.5419 29.6453 11.5419ZM27.6601 10.2081C28.3218 11.2455 29.6453 11.616 30.7481 10.9491C31.1893 10.6527 31.5569 10.2822 31.7039 9.83758V9.68938V9.61528L30.9687 8.35555C30.8952 8.28145 30.7481 8.20735 30.6746 8.28145L29.5717 8.94836C29.4982 9.02247 29.4247 9.17067 29.4982 9.24477L29.6453 9.31887H29.7923L30.7481 8.72606L31.3363 9.68938L31.2628 9.76348C31.1158 10.0599 30.8217 10.3563 30.5276 10.5045C30.0864 10.7268 29.5717 10.8009 29.1306 10.7268C28.6894 10.6527 28.2483 10.3563 28.0277 9.91168C27.8071 9.46707 27.7336 9.02247 27.8807 8.57786C28.0277 8.13325 28.3218 7.68864 28.6894 7.46634C29.0571 7.24404 29.4247 7.16993 29.8658 7.24404L30.0129 7.16993L30.0864 7.02173L30.0129 6.87353L29.8658 6.79943C29.3512 6.72533 28.8365 6.87353 28.3953 7.09583C27.4395 7.76274 27.0719 9.17067 27.6601 10.2081Z" fill="#1F1C35"/>
<path d="M35.894 8.20742L34.5705 4.50235C34.497 4.28005 34.5705 4.13185 34.7911 4.05775C35.0117 3.98364 35.1587 4.05775 35.2323 4.28005L35.7469 5.76207L37.3645 5.16926L36.8498 3.68724C36.7763 3.46494 36.8498 3.31673 37.0704 3.24263C37.291 3.16853 37.438 3.24263 37.5115 3.46494L38.835 7.17C38.9085 7.3923 38.835 7.5405 38.6144 7.6146C38.3938 7.68871 38.2468 7.6146 38.1733 7.3923L37.6586 5.91028L36.041 6.50309L36.5557 7.98511C36.6292 8.20741 36.5557 8.35562 36.3351 8.42972C36.1146 8.50382 35.9675 8.35562 35.894 8.20742Z" fill="#1F1C35"/>
<path d="M36.1882 8.57699C36.1147 8.57699 36.0411 8.57699 35.9676 8.50289C35.8206 8.42878 35.747 8.35468 35.6735 8.20648L34.3501 4.50142C34.2765 4.35322 34.2765 4.20501 34.3501 4.13091C34.4236 3.98271 34.4971 3.90861 34.6442 3.83451C34.7912 3.76041 34.9383 3.76041 35.0118 3.83451C35.1588 3.90861 35.2324 3.98271 35.3059 4.13091L35.8206 5.46473L37.144 5.02013L36.7764 3.76041C36.7029 3.464 36.8499 3.1676 37.0705 3.09349C37.3646 3.01939 37.6587 3.1676 37.7322 3.3899L39.0557 7.09496C39.1292 7.24316 39.1292 7.39137 39.0557 7.46547C38.9821 7.61367 38.9086 7.68777 38.7616 7.76187C38.4675 7.83597 38.1734 7.68777 38.0998 7.46547L37.5852 6.13165L36.2617 6.50215L36.7764 7.83597C36.8499 7.98418 36.8499 8.13238 36.7764 8.20648C36.7029 8.35468 36.6293 8.42878 36.4823 8.50289L36.1882 8.57699ZM36.0411 8.13238L36.1147 8.28058H36.2617L36.4088 8.13238V7.98418L35.8206 6.35395L37.7322 5.68704L38.3204 7.31727C38.3939 7.46547 38.4675 7.46547 38.6145 7.46547L38.7616 7.31727V7.16906L37.4381 3.464C37.3646 3.3158 37.2911 3.3158 37.144 3.3158C37.0705 3.3899 36.997 3.5381 36.997 3.6122L37.5852 5.24243L35.6735 5.90934L35.0853 4.27911L34.9383 4.13091H34.7912L34.6442 4.20501V4.35322L36.0411 8.13238Z" fill="#1F1C35"/>
<path d="M47.8801 4.35336C47.9536 4.20516 48.1742 4.13106 48.3212 4.27926C48.6153 4.50156 49.13 4.72387 49.6446 4.64977C49.9387 4.64977 50.2329 4.50156 50.4534 4.27926C50.6005 4.13106 50.674 3.90875 50.674 3.76055C50.674 3.68645 50.674 3.61235 50.6005 3.53825C50.5269 3.46415 50.4534 3.39004 50.3799 3.39004C50.2328 3.24184 49.8652 3.16774 49.4976 3.16774C49.2035 3.16774 48.9094 3.09364 48.6153 3.01954C48.3212 2.94544 48.1006 2.79724 47.9536 2.57493C47.8065 2.42673 47.733 2.27853 47.733 2.05622C47.6595 1.68572 47.88 1.31521 48.1741 1.0188C48.4682 0.796501 48.8359 0.574198 49.277 0.574198C49.9387 0.500096 50.3799 0.796501 50.7475 0.944704C50.8946 1.01881 50.9681 1.24111 50.8946 1.38931C50.7475 1.53751 50.6005 1.61161 50.3799 1.53751C50.0123 1.31521 49.6446 1.16701 49.277 1.24111C48.9829 1.24111 48.7623 1.38931 48.5418 1.53751C48.3947 1.68572 48.3212 1.83392 48.3212 1.98212C48.3212 2.05622 48.3212 2.13032 48.3947 2.13032C48.4683 2.20442 48.4683 2.20442 48.6153 2.27853C48.8359 2.35263 49.13 2.42673 49.4976 2.50083C49.8652 2.50083 50.1593 2.57493 50.4534 2.64903C50.7475 2.72313 50.9681 2.87134 51.1887 3.09364C51.3357 3.24184 51.4092 3.46415 51.4092 3.61235C51.4092 4.13106 51.2622 4.50156 50.9681 4.79797C50.674 5.09437 50.2328 5.24258 49.7917 5.31668C49.0565 5.39078 48.4683 5.09437 48.0271 4.87207C47.8801 4.72387 47.8065 4.50156 47.8801 4.35336Z" fill="#1F1C35"/>
<path d="M49.5697 5.46453C48.908 5.46453 48.3198 5.16812 47.9522 4.94582C47.7316 4.79762 47.6581 4.50121 47.8051 4.27891C47.8787 4.20481 47.9522 4.1307 48.0992 4.0566C48.2463 4.0566 48.3933 4.0566 48.4669 4.1307C48.761 4.27891 49.2756 4.50121 49.6433 4.42711C49.9374 4.42711 50.1579 4.27891 50.3785 4.1307C50.5256 3.9825 50.5991 3.9084 50.5991 3.7602L50.5256 3.612C50.452 3.53789 50.452 3.53789 50.3785 3.46379C50.1579 3.38969 49.8638 3.31559 49.4962 3.24149C49.1286 3.24149 48.8345 3.16739 48.5404 3.09329C48.2463 3.01919 47.9522 2.79688 47.8051 2.57458C47.6581 2.42638 47.5846 2.20407 47.5846 1.98177C47.511 1.53716 47.7316 1.16665 48.0257 0.87025C48.3198 0.573845 48.761 0.425642 49.2021 0.351541C49.8638 0.27744 50.3785 0.573845 50.7461 0.722047C51.0402 0.87025 51.1138 1.16665 50.9667 1.38896C50.9667 1.53716 50.8197 1.61126 50.7461 1.68536C50.5991 1.75946 50.452 1.68536 50.3785 1.68536C50.0109 1.46306 49.7168 1.38896 49.3492 1.38896C49.1286 1.38896 48.908 1.53716 48.6874 1.68536C48.6139 1.75946 48.5404 1.90767 48.5404 1.98177V2.05587C48.5404 2.05587 48.6139 2.12997 48.6874 2.20407C48.908 2.27817 49.2021 2.27817 49.4962 2.35227C49.9374 2.35227 50.2315 2.42638 50.452 2.50048C50.8197 2.64868 51.0402 2.79688 51.2608 3.01919C51.4079 3.16739 51.4814 3.38969 51.4814 3.612C51.5549 4.0566 51.3343 4.50121 50.9667 4.79762C50.6726 5.09402 50.2315 5.31632 49.7168 5.31632C49.7168 5.46453 49.6433 5.46453 49.5697 5.46453ZM48.0257 4.42711C47.9522 4.50121 48.0257 4.64941 48.0992 4.72351C48.4669 4.94582 49.0551 5.24222 49.7903 5.16812C50.2315 5.09402 50.5991 4.94582 50.8932 4.72351C51.1873 4.42711 51.3343 4.1307 51.3343 3.7602C51.3343 3.612 51.2608 3.38969 51.1138 3.31559C50.9667 3.16739 50.7461 3.01919 50.452 2.87098C50.2315 2.79688 49.9374 2.72278 49.5697 2.72278C49.2021 2.72278 48.8345 2.64868 48.6139 2.50048C48.5404 2.42638 48.3933 2.35227 48.3933 2.27817C48.3198 2.20407 48.3198 2.12997 48.3198 2.05587C48.3198 1.90767 48.3198 1.68536 48.5404 1.46306C48.761 1.31486 49.0551 1.16665 49.3492 1.09255C49.7903 1.01845 50.1579 1.24076 50.5256 1.38896H50.6726L50.7461 1.31486C50.8197 1.24076 50.7461 1.09255 50.6726 1.01845C50.305 0.87025 49.8638 0.573845 49.2756 0.647946C48.908 0.722047 48.5404 0.87025 48.2463 1.09255C47.9522 1.31486 47.8051 1.68536 47.8787 1.98177C47.8787 2.12997 47.9522 2.27817 48.0257 2.42638C48.1728 2.57458 48.3933 2.72278 48.6139 2.79688C48.8345 2.94508 49.1286 3.01919 49.4962 3.01919C49.9374 3.01919 50.305 3.09329 50.5256 3.24149C50.6726 3.31559 50.7461 3.38969 50.8197 3.46379C50.8932 3.53789 50.8932 3.612 50.9667 3.7602C50.9667 3.9084 50.9667 4.1307 50.6726 4.42711C50.452 4.64941 50.1579 4.79762 49.7903 4.79762C49.2756 4.87172 48.761 4.64941 48.3933 4.42711H48.2463H48.0257Z" fill="#1F1C35"/>
<path d="M58.1733 0.944138H57.1439L57.2175 4.501C57.2175 4.7233 57.0704 4.8715 56.8498 4.8715C56.6293 4.8715 56.4822 4.7233 56.4822 4.501L56.4087 0.944138H55.3793C55.1588 0.944138 55.0117 0.795935 55.0117 0.573631C55.0117 0.351327 55.1588 0.203125 55.3793 0.203125H58.1733C58.3939 0.203125 58.5409 0.351327 58.5409 0.573631C58.5409 0.795935 58.3939 0.944138 58.1733 0.944138Z" fill="#1F1C35"/>
<path d="M56.8504 5.01947C56.5563 5.01947 56.3357 4.79717 56.3357 4.50076L56.2622 1.0921H55.3799C55.2329 1.0921 55.0858 1.018 55.0123 0.943902C54.9388 0.869801 54.8652 0.721599 54.8652 0.573396C54.8652 0.425194 54.9388 0.276991 55.0123 0.20289C55.0858 0.128789 55.2329 0.0546875 55.3799 0.0546875H58.1739C58.468 0.0546875 58.6885 0.276991 58.6885 0.573396C58.6885 0.869801 58.468 1.0921 58.1739 1.0921H57.2916L57.3651 4.50076C57.3651 4.79717 57.1445 5.01947 56.8504 5.01947ZM56.5563 0.7957L56.6298 4.50076C56.6298 4.64896 56.7034 4.72307 56.8504 4.72307C56.9975 4.72307 57.071 4.64896 57.071 4.50076L56.9975 0.7957H58.1739C58.3209 0.7957 58.3944 0.721599 58.3944 0.573396C58.3944 0.425194 58.3209 0.351092 58.1739 0.351092H55.3799L55.2329 0.425194L55.1593 0.573396L55.2329 0.7957C55.3064 0.7957 55.3064 0.7957 55.3799 0.7957H56.5563Z" fill="#1F1C35"/>
<path d="M64.496 3.98264L62.8785 3.90854L62.5109 4.72365C62.4373 4.87186 62.2903 4.94596 62.1432 4.94596H61.9962C61.7756 4.87186 61.7021 4.64955 61.7756 4.42725L63.4667 0.648085C63.5402 0.499883 63.6873 0.425781 63.8343 0.425781C63.9814 0.425781 64.1284 0.499883 64.2019 0.648085L65.3783 4.64955C65.4519 4.87186 65.3048 5.02006 65.1578 5.09416H65.0107C64.8637 5.09416 64.7166 5.02006 64.7166 4.87186L64.496 3.98264ZM64.2755 3.24163L63.8343 1.7596L63.1726 3.16753L64.2755 3.24163Z" fill="#1F1C35"/>
<path d="M65.158 5.31623C64.9374 5.31623 64.7168 5.16803 64.6433 4.94572L64.4227 4.13061L63.0258 4.05651L62.6581 4.79752C62.5846 5.01982 62.364 5.09392 62.1434 5.09392H61.9964C61.7023 4.94572 61.6288 4.64932 61.7023 4.42701L63.4669 0.573749C63.5404 0.351445 63.761 0.277344 63.9816 0.277344C64.2021 0.277344 64.3492 0.425546 64.4227 0.64785L65.5991 4.64932C65.6726 4.94572 65.5256 5.24213 65.2315 5.31623H65.158ZM62.8052 3.7601L64.6433 3.9083L64.9374 4.87162C64.9374 4.94572 65.0109 5.01982 65.158 5.01982H65.2315C65.3785 5.01982 65.3785 4.87162 65.3785 4.72342L64.2021 0.721951C64.2021 0.64785 64.1286 0.573749 63.9816 0.573749C63.908 0.573749 63.761 0.64785 63.761 0.721951L61.9964 4.50111C61.9229 4.64932 61.9964 4.72342 62.1434 4.79752H62.217C62.2905 4.79752 62.364 4.72342 62.4375 4.64932L62.8052 3.7601ZM64.4962 3.3896L63.0258 3.31549L63.908 1.38886L64.4962 3.3896ZM63.4669 3.09319L64.1286 3.16729L63.8345 2.27808L63.4669 3.09319Z" fill="#1F1C35"/>
<path d="M70.0849 5.38956C70.0849 5.61186 69.8643 5.68597 69.6437 5.68597C69.4231 5.68597 69.3496 5.46366 69.3496 5.31546L70.0849 1.46219C70.0849 1.31399 70.1584 1.23989 70.3054 1.16579C70.4525 1.09169 70.6731 1.16579 70.8201 1.31399L72.2906 4.64855L72.8053 1.9809C72.8053 1.7586 73.0259 1.6845 73.2464 1.6845C73.467 1.6845 73.5405 1.9068 73.5405 2.12911L72.8788 5.90827C72.8788 6.13057 72.6582 6.20467 72.4377 6.20467C72.3641 6.20467 72.2171 6.13057 72.2171 6.05647V5.98237L70.6731 2.72192L70.0849 5.38956Z" fill="#1F1C35"/>
<path d="M72.4363 6.35209H72.3627C72.2157 6.35209 72.0686 6.20389 71.9951 6.12979L71.9216 6.05569L70.5981 3.16574L70.157 5.46288C70.0835 5.75928 69.8629 5.90749 69.5688 5.90749C69.3482 5.83339 69.2012 5.53698 69.2012 5.24058L69.8629 1.46141C69.8629 1.31321 70.0099 1.16501 70.157 1.09091C70.3776 0.942704 70.7452 1.09091 70.8187 1.31321L72.2157 4.20316L72.6568 1.98012C72.6568 1.83192 72.7304 1.75782 72.8774 1.68372C72.9509 1.53551 73.098 1.53551 73.245 1.53551C73.3921 1.53551 73.4656 1.60961 73.5391 1.75782C73.6127 1.90602 73.6127 1.98012 73.6127 2.12832L72.9509 5.98159C72.9509 6.12979 72.8774 6.20389 72.7304 6.27799C72.6568 6.35209 72.5098 6.35209 72.4363 6.35209ZM70.5246 2.20242L72.2892 5.98159L72.4363 6.05569H72.5833L72.6568 5.90749L73.3186 2.12832V1.98012L73.1715 1.90602H73.0245L72.9509 2.05422L72.3627 5.16647L70.5981 1.46141C70.5246 1.38731 70.4511 1.31321 70.304 1.38731L70.157 1.53551L69.4217 5.31468C69.4217 5.46288 69.4953 5.53698 69.5688 5.53698C69.7158 5.53698 69.7894 5.46288 69.7894 5.38878L70.5246 2.20242Z" fill="#1F1C35"/>
<path d="M76.9214 6.94344L78.1713 3.23837C78.2449 3.01607 78.4654 2.94197 78.6125 3.01607L79.3477 3.23837C80.5241 3.68298 81.1859 5.0168 80.7447 6.20242C80.3036 7.38804 78.9801 8.05495 77.8037 7.68445L77.0685 7.46214C76.9214 7.38804 76.8479 7.16574 76.9214 6.94344ZM77.7302 6.86933L78.0978 7.01754C78.9066 7.31394 79.7889 6.86933 80.083 6.05422C80.3771 5.23911 79.9359 4.34989 79.1272 4.05349L78.7595 3.90528L77.7302 6.86933Z" fill="#1F1C35"/>
<path d="M78.6126 7.98374C78.3185 7.98374 78.0979 7.90964 77.8038 7.83554L77.0686 7.61324C76.7745 7.53914 76.6274 7.24273 76.7745 6.94633L78.0244 3.24126C78.0979 2.94486 78.392 2.79666 78.6861 2.94486L79.4214 3.16716C80.0096 3.38947 80.5243 3.83407 80.8184 4.42688C81.1125 5.01969 81.1125 5.68661 80.8919 6.27942C80.5978 7.31683 79.642 7.98374 78.6126 7.98374ZM77.0686 7.02043C76.9951 7.16863 77.0686 7.24273 77.2156 7.31683L77.9509 7.53914C79.0538 7.90964 80.3037 7.31683 80.6713 6.20531C80.8919 5.68661 80.8184 5.0938 80.5978 4.57509C80.3772 4.05638 79.9361 3.68587 79.3479 3.46357L78.6126 3.24126H78.4656L78.392 3.38947L77.0686 7.02043ZM78.6126 7.24273C78.392 7.24273 78.245 7.24273 78.0244 7.16863L77.5097 7.02043L78.6126 3.75997L79.1273 3.90818C80.0096 4.20458 80.5243 5.242 80.1566 6.13121C80.0096 6.79812 79.3479 7.24273 78.6126 7.24273ZM77.8774 6.79812L78.0979 6.87223C78.8332 7.09453 79.642 6.72402 79.9361 5.98301C80.1566 5.242 79.789 4.42688 79.0538 4.13048L78.8332 4.05638L77.8774 6.79812Z" fill="#1F1C35"/>
<path d="M86.0396 10.2063L84.6426 9.39119L83.9073 9.984C83.7603 10.0581 83.6132 10.0581 83.4662 9.984L83.3927 9.9099C83.2456 9.7617 83.3191 9.53939 83.4662 9.39119L86.6278 6.72354C86.7748 6.64944 86.9218 6.64944 87.0689 6.72354C87.2159 6.79765 87.2895 6.94585 87.2895 7.09405L86.6278 11.2437C86.6278 11.466 86.4072 11.6142 86.1866 11.5401L86.0396 11.466C85.8925 11.3919 85.819 11.2437 85.8925 11.0955L86.0396 10.2063ZM86.1866 9.46529L86.4072 7.98327L85.2308 8.94658L86.1866 9.46529Z" fill="#1F1C35"/>
<path d="M86.2597 11.6891H86.1862C86.1127 11.6891 86.0391 11.615 86.0391 11.615C85.8186 11.5409 85.7451 11.3186 85.8186 11.0963L85.9656 10.2812L84.7157 9.61429L84.054 10.133C83.9069 10.2812 83.6864 10.2812 83.4658 10.2071L83.3187 10.133C83.0982 9.91069 83.1717 9.61429 83.3923 9.39198L86.5538 6.72434C86.7009 6.57614 86.995 6.57613 87.142 6.65024C87.2891 6.72434 87.4361 6.94664 87.4361 7.16895L86.7744 11.3186C86.7009 11.5409 86.4803 11.6891 86.2597 11.6891ZM84.6422 9.24378L86.1862 10.133L86.0391 11.1704C86.0391 11.2445 86.0392 11.3186 86.1127 11.3927H86.1862C86.3333 11.3927 86.4068 11.3186 86.4803 11.1704L87.142 7.02074C87.142 6.94664 87.142 6.87254 86.995 6.79844C86.9214 6.72434 86.7744 6.72434 86.7009 6.79844L83.5393 9.46608C83.4658 9.54018 83.4658 9.68839 83.5393 9.76249L83.6128 9.83659C83.6864 9.91069 83.7599 9.83659 83.8334 9.83659L84.6422 9.24378ZM86.2597 9.68839L84.9363 8.94738L86.5538 7.61355L86.2597 9.68839ZM85.5245 8.94738L86.1127 9.24378L86.2597 8.35456L85.5245 8.94738Z" fill="#1F1C35"/>
<path d="M92.0679 15.5448C91.9943 15.7671 91.7738 15.8412 91.5532 15.7671L91.4061 15.693C91.3326 15.6189 91.2591 15.5448 91.2591 15.4707C91.2591 15.3966 91.2591 15.2484 91.2591 15.1743C91.3326 14.952 91.4061 14.7297 91.7002 14.5074C91.7738 14.4333 91.8473 14.3592 91.8473 14.211C91.8473 14.1369 91.8473 14.0628 91.8473 13.9146C91.7738 13.7664 91.7002 13.6182 91.7002 13.5441L91.112 13.0254L90.1562 14.1369C90.0092 14.2851 89.7886 14.2851 89.6415 14.1369C89.4945 13.9887 89.4945 13.7664 89.6415 13.6182L92.2149 10.6541C92.362 10.5059 92.5825 10.5059 92.7296 10.6541L93.6119 11.4692C94.2001 11.9879 94.2736 12.8772 93.7589 13.47C93.4648 13.7664 93.0972 13.9887 92.6561 13.9146C92.6561 13.9887 92.6561 14.1369 92.6561 14.2851C92.6561 14.5074 92.509 14.7297 92.362 14.952C92.2149 15.1002 92.1414 15.1743 92.1414 15.2484C92.0679 15.3225 92.1414 15.4707 92.0679 15.5448ZM93.0972 12.9513C93.3178 12.6549 93.3178 12.2102 93.0237 11.9879L92.4355 11.4692L91.5532 12.5067L92.1414 13.0254C92.4355 13.2477 92.8766 13.1736 93.0972 12.9513Z" fill="#1F1C35"/>
<path d="M91.6998 15.911C91.6262 15.911 91.5527 15.911 91.4792 15.8369L91.3321 15.7628C91.2586 15.6887 91.1851 15.6146 91.1116 15.4664C91.038 15.3182 91.1116 15.17 91.1116 15.0959C91.1851 14.8736 91.3321 14.6513 91.5527 14.3549C91.6262 14.2808 91.6262 14.2067 91.6262 14.1326C91.6262 14.1326 91.6262 14.0585 91.6262 13.9103C91.6262 13.7621 91.4792 13.6139 91.4792 13.6139L91.038 13.2434L90.1557 14.2067C90.0822 14.2808 89.9352 14.3549 89.7881 14.3549C89.6411 14.3549 89.494 14.2808 89.4205 14.2067C89.347 14.1326 89.2734 13.9844 89.2734 13.8362C89.2734 13.688 89.347 13.5398 89.4205 13.4657L91.9939 10.5016C92.2144 10.2793 92.5085 10.2793 92.7291 10.4275L93.6114 11.2426C94.2731 11.8354 94.3467 12.7987 93.7585 13.4657C93.4644 13.7621 93.0967 13.9844 92.7291 13.9844C92.7291 14.0585 92.7291 14.1326 92.7291 14.2067C92.7291 14.5031 92.5821 14.7254 92.3615 14.9477C92.288 15.0218 92.2144 15.0959 92.2144 15.17C92.288 15.3182 92.288 15.3923 92.2144 15.5405C92.1409 15.6887 92.0674 15.7628 91.9203 15.8369L91.6998 15.911ZM91.038 12.7987L91.6998 13.3916C91.7733 13.4657 91.8468 13.688 91.9203 13.8362C91.9203 13.9844 91.9939 14.0585 91.9203 14.2067C91.9203 14.2808 91.8468 14.429 91.7733 14.5031C91.5527 14.7254 91.4057 14.9477 91.4057 15.17C91.4057 15.2441 91.4057 15.3182 91.4057 15.3923C91.4057 15.4664 91.4792 15.5405 91.4792 15.5405L91.5527 15.6146H91.6998L91.8468 15.4664V15.2441L91.7733 15.17L91.8468 15.0959C91.9203 14.9477 91.9939 14.8736 92.1409 14.7254C92.288 14.5772 92.3615 14.3549 92.435 14.1326C92.435 14.0585 92.435 13.9103 92.435 13.8362V13.688H92.5821C92.9497 13.688 93.3173 13.5398 93.5379 13.2434C93.7585 13.021 93.9055 12.6505 93.832 12.3541C93.832 11.9836 93.6849 11.6872 93.3908 11.4649L92.5085 10.6498C92.435 10.5757 92.288 10.5757 92.2144 10.6498L89.6411 13.6139L89.5675 13.7621L89.6411 13.9103L89.7881 13.9844L89.9352 13.9103L91.038 12.7987ZM92.6556 13.3175C92.435 13.3175 92.288 13.2434 92.1409 13.0952L91.4057 12.4282L92.5085 11.1685L93.2438 11.8354C93.3908 11.9836 93.5379 12.2059 93.5379 12.4282C93.5379 12.6505 93.4644 12.8728 93.3173 13.021C93.0967 13.2434 92.8762 13.3175 92.6556 13.3175ZM91.7733 12.4282L92.288 12.8728C92.5085 13.0952 92.8762 13.0211 93.0232 12.7987C93.0967 12.7246 93.1703 12.5764 93.1703 12.4282C93.1703 12.28 93.0967 12.1318 93.0232 12.0577L92.5085 11.6131L91.7733 12.4282Z" fill="#1F1C35"/>
<path d="M94.6409 18.6553L97.8024 16.3581C97.9495 16.2099 98.17 16.284 98.3171 16.4322L98.7582 17.0991C99.4935 18.1366 99.2729 19.6186 98.2436 20.3596C97.2142 21.1006 95.7437 20.8783 95.0085 19.8409L94.5673 19.174C94.4203 19.0258 94.4203 18.8035 94.6409 18.6553ZM95.3026 19.0999L95.5232 19.4704C96.0378 20.2114 96.9937 20.3596 97.7289 19.8409C98.4642 19.3222 98.6112 18.3589 98.0965 17.6178L97.8759 17.2473L95.3026 19.0999Z" fill="#1F1C35"/>
<path d="M96.8478 20.9527C96.7008 20.9527 96.5537 20.9527 96.4067 20.9527C95.745 20.8786 95.2303 20.5081 94.7891 19.9153L94.348 19.2484C94.2009 19.0261 94.2745 18.7297 94.495 18.5074L97.6566 16.2103C97.8037 16.1362 97.8772 16.0621 98.0242 16.1362C98.1713 16.1362 98.2448 16.2103 98.3183 16.3585L98.7595 17.0254C99.5683 18.1369 99.2742 19.693 98.1713 20.434C97.8772 20.8045 97.3625 20.9527 96.8478 20.9527ZM94.7156 18.8038C94.6421 18.8779 94.5686 19.0261 94.6421 19.1002L95.0832 19.7671C95.4509 20.2117 95.892 20.5822 96.4802 20.6563C97.0684 20.7304 97.6566 20.5822 98.0978 20.2858C99.0536 19.6189 99.2742 18.211 98.6124 17.2477L98.1713 16.5808L98.0242 16.5067L97.8772 16.5808L94.7156 18.8038ZM96.8478 20.2117C96.3332 20.2117 95.8185 19.9894 95.4509 19.4707L95.1568 19.0261L97.9507 17.0254L98.2448 17.47C98.7595 18.211 98.6124 19.3225 97.8037 19.9153C97.5096 20.1376 97.2155 20.2117 96.8478 20.2117ZM95.5244 19.1002L95.6714 19.3225C96.1126 19.9894 96.9949 20.1376 97.6566 19.6189C98.3183 19.1743 98.4654 18.2851 98.0242 17.6182L97.8772 17.3959L95.5244 19.1002Z" fill="#1F1C35"/>
<path d="M17.7349 85.2711L20.6759 82.6776C20.823 82.5294 21.0435 82.5294 21.1906 82.6776C21.3376 82.8258 21.3376 83.0481 21.1906 83.1963L20.0142 84.2337L21.1171 85.4934L22.2935 84.456C22.4405 84.3078 22.6611 84.3078 22.8081 84.456C22.9552 84.6042 22.9552 84.8265 22.8081 84.9747L19.8671 87.5682C19.7201 87.7164 19.4995 87.7164 19.3525 87.5682C19.2054 87.42 19.2054 87.1977 19.3525 87.0495L20.5289 86.0121L19.426 84.7524L18.2496 85.7898C18.1025 85.938 17.882 85.938 17.7349 85.7898C17.5143 85.6416 17.5879 85.4193 17.7349 85.2711Z" fill="#1F1C35"/>
<path d="M19.5729 87.8664C19.4259 87.8664 19.2788 87.7923 19.2053 87.7182C19.1318 87.6441 19.0583 87.4959 19.0583 87.3477C19.0583 87.1995 19.1318 87.0513 19.2053 86.9772L20.3082 86.0139L19.3524 84.9765L18.2495 85.9398C18.176 86.0139 18.0289 86.088 17.8819 86.088C17.7348 86.088 17.5878 86.0139 17.5142 85.9398C17.4407 85.8657 17.3672 85.7175 17.3672 85.5693C17.3672 85.4211 17.4407 85.2729 17.5142 85.1988L20.4552 82.6052C20.5288 82.5311 20.6758 82.457 20.8229 82.457C20.9699 82.457 21.117 82.5311 21.1905 82.6052C21.264 82.6793 21.3375 82.8275 21.3375 82.9757C21.3375 83.1239 21.264 83.2721 21.1905 83.3462L20.0876 84.3096L21.0434 85.347L22.1463 84.3837C22.2198 84.3096 22.3669 84.2355 22.5139 84.2355C22.661 84.2355 22.808 84.3096 22.8816 84.3837C23.1021 84.606 23.0286 84.9024 22.808 85.1247L19.867 87.7182C19.7935 87.8664 19.72 87.8664 19.5729 87.8664ZM19.4259 84.5319L20.7493 86.0139L19.4259 87.1995L19.3524 87.3477L19.4259 87.4959L19.5729 87.57L19.72 87.4959L22.661 84.9024C22.7345 84.8283 22.7345 84.6801 22.661 84.606L22.5139 84.5319L22.3669 84.606L21.0434 85.7916L19.72 84.3096L21.0434 83.1239L21.117 82.9757L21.0434 82.8275L20.8964 82.7534L20.7493 82.8275L17.8083 85.4211L17.7348 85.5693L17.8083 85.7175L17.9554 85.7916L18.1024 85.7175L19.4259 84.5319Z" fill="#1F1C35"/>
<path d="M25.4537 87.4947C25.6008 87.3465 25.8214 87.2724 25.9684 87.4206C26.1155 87.5688 26.189 87.7911 26.0419 87.9393L23.6156 90.9775C23.4686 91.1257 23.248 91.1257 23.1009 91.0516C22.9539 90.9034 22.8804 90.6811 23.0274 90.5329L25.4537 87.4947Z" fill="#1F1C35"/>
<path d="M23.3231 91.3466C23.176 91.3466 23.1025 91.2725 23.029 91.1984C22.8084 91.0502 22.7349 90.6797 22.9554 90.4574L25.3818 87.4193C25.5288 87.197 25.8964 87.1229 26.117 87.3452C26.1905 87.4193 26.2641 87.5675 26.3376 87.7157C26.3376 87.8639 26.3376 88.0121 26.2641 88.0862L23.8377 91.1243C23.6172 91.1984 23.4701 91.2725 23.3231 91.3466ZM25.5288 87.5675L23.1025 90.6056C23.029 90.6797 23.029 90.8279 23.1025 90.902L23.2495 90.9761L23.3966 90.902L25.8229 87.8639L25.8964 87.7157L25.8229 87.5675C25.7494 87.4934 25.6759 87.4934 25.5288 87.5675Z" fill="#1F1C35"/>
<path d="M27.9544 91.6454C28.5426 90.4597 30.0131 90.0151 31.1895 90.682C31.7042 90.9784 32.0718 91.349 32.2924 91.8677C32.3659 92.09 32.2924 92.3123 32.0718 92.3864C31.8512 92.4605 31.6307 92.3864 31.5571 92.1641C31.4101 91.8677 31.1895 91.5713 30.8219 91.349C30.3807 91.1266 29.9396 91.0525 29.572 91.2008C29.1308 91.349 28.8367 91.5713 28.6161 92.0159C28.3956 92.3864 28.3956 92.831 28.5426 93.2756C28.6897 93.7202 28.9102 94.0166 29.3514 94.2389C29.6455 94.3871 29.9396 94.4612 30.2337 94.4612L30.6748 93.6461L29.8661 93.2015C29.719 93.1274 29.6455 92.9051 29.719 92.6828C29.7925 92.4605 30.0131 92.4605 30.2337 92.5346L31.4101 93.1274C31.6307 93.2015 31.7042 93.4238 31.5571 93.6461L30.8954 94.9058L30.8219 94.9799C30.7484 95.054 30.7484 95.054 30.6013 95.054C30.0866 95.1281 29.4984 95.054 29.0573 94.8317C27.7338 94.313 27.2927 92.831 27.9544 91.6454Z" fill="#1F1C35"/>
<path d="M30.0858 95.348C29.6447 95.348 29.2771 95.2739 28.9094 95.0516C28.3212 94.7552 27.8801 94.1624 27.6595 93.5696C27.4389 92.9026 27.5125 92.2357 27.8066 91.6429C28.4683 90.3832 30.0123 89.9386 31.2622 90.6055C31.7769 90.9019 32.218 91.3465 32.4386 91.8652C32.5121 92.0134 32.5121 92.1616 32.4386 92.2357C32.3651 92.3839 32.2916 92.458 32.1445 92.5321C31.9975 92.6062 31.8504 92.6062 31.7034 92.5321C31.5563 92.458 31.4828 92.3839 31.4093 92.2357C31.2622 91.9393 31.0416 91.6429 30.7475 91.4947C30.3799 91.2724 29.9388 91.2724 29.5712 91.3465C29.2035 91.4206 28.8359 91.717 28.6889 92.0875C28.5418 92.458 28.4683 92.8285 28.6153 93.1991C28.7624 93.5696 28.9829 93.9401 29.3506 94.0883C29.5711 94.2365 29.8652 94.3106 30.0858 94.3106L30.3799 93.7178L29.6447 93.3473C29.4976 93.2732 29.4241 93.1991 29.4241 93.0509C29.3506 92.9027 29.4241 92.7544 29.4976 92.6803C29.6447 92.458 29.9388 92.3098 30.2329 92.458L31.4093 93.0509C31.7034 93.1991 31.7769 93.4955 31.6298 93.7919L30.9681 95.0516L30.8946 95.1257L30.8211 95.1998C30.7475 95.2739 30.674 95.2739 30.527 95.348C30.3799 95.348 30.2329 95.348 30.0858 95.348ZM30.0123 90.5314C29.2035 90.5314 28.4683 90.976 28.0271 91.717C27.733 92.2357 27.6595 92.8285 27.8801 93.4214C28.0271 94.0142 28.4683 94.4588 28.9829 94.7552C29.4241 94.9775 29.9388 95.0516 30.4534 94.9775H30.527L31.1887 93.7178C31.2622 93.5696 31.1887 93.4955 31.1152 93.4214L29.9388 92.8285C29.7917 92.7544 29.7182 92.8286 29.6447 92.9027V93.0509L29.7182 93.1991L30.674 93.7178L30.1593 94.7552H30.0858C29.7182 94.7552 29.4241 94.6811 29.13 94.5329C28.6889 94.3106 28.3948 93.9401 28.2477 93.4214C28.1007 92.9768 28.1742 92.458 28.3212 92.0875C28.5418 91.6429 28.9094 91.3465 29.4241 91.1983C29.8652 91.0501 30.3799 91.1242 30.8211 91.3465C31.1887 91.5688 31.4828 91.8652 31.6298 92.2357L31.7769 92.3839H31.9239L32.071 92.2357V92.0875C31.8504 91.6429 31.4828 91.1983 31.0416 90.976C30.7475 90.6796 30.3799 90.5314 30.0123 90.5314Z" fill="#1F1C35"/>
<path d="M34.5705 97.0528L35.7469 93.3477C35.8205 93.1254 36.041 93.0513 36.1881 93.1254C36.4087 93.1995 36.4822 93.4218 36.4087 93.5701L35.894 95.0521L37.5115 95.5708L38.0262 94.0888C38.0997 93.8665 38.3203 93.7924 38.4674 93.8665C38.6879 93.9406 38.7615 94.1629 38.6879 94.3111L37.5115 98.0161C37.438 98.2384 37.2174 98.3125 37.0704 98.2384C36.8498 98.1643 36.7763 97.942 36.8498 97.7938L37.3645 96.3118L35.7469 95.7931L35.2323 97.2751C35.1587 97.4974 34.9382 97.5715 34.7911 97.4974C34.5705 97.4233 34.497 97.2751 34.5705 97.0528Z" fill="#1F1C35"/>
<path d="M37.2177 98.4611H37.0706C36.7765 98.387 36.6295 98.0905 36.7765 97.7941L37.2177 96.3862L35.8942 95.9416L35.4531 97.3495C35.3795 97.4977 35.306 97.5718 35.2325 97.6459C35.0854 97.72 34.9384 97.72 34.8649 97.6459C34.7178 97.5718 34.6443 97.4977 34.5708 97.4236C34.4972 97.2754 34.4972 97.1272 34.5708 97.0531L35.7472 93.3481C35.8207 93.1999 35.8942 93.1258 35.9677 93.0517C36.1148 92.9776 36.2618 92.9776 36.3354 93.0517C36.4824 93.1258 36.5559 93.1999 36.6295 93.274C36.703 93.4222 36.703 93.5704 36.6295 93.6445L36.1883 95.0524L37.5118 95.497L37.9529 94.0891C38.0264 93.9409 38.1 93.8668 38.1735 93.7927C38.3205 93.7186 38.4676 93.7186 38.5411 93.7927C38.6882 93.8668 38.7617 93.9409 38.8352 94.015C38.9087 94.1632 38.9087 94.3114 38.8352 94.3855L37.6588 98.0906C37.5853 98.2388 37.5118 98.3129 37.3647 98.387C37.3647 98.387 37.2912 98.4611 37.2177 98.4611ZM35.6736 95.5711L37.5853 96.1639L36.9971 97.8683C36.9236 98.0165 36.9971 98.0905 37.1441 98.1647C37.2912 98.2388 37.3647 98.1647 37.4382 98.0165L38.6146 94.3114C38.6882 94.1632 38.6146 94.0891 38.4676 94.015H38.3205L38.247 94.1632L37.7323 95.7934L35.8207 95.2006L36.3354 93.5704V93.4222L36.1883 93.3481H36.0413L35.9677 93.4963L34.7913 97.2013V97.3495L34.9384 97.4236H35.0854L35.159 97.2754L35.6736 95.5711Z" fill="#1F1C35"/>
<path d="M41.9238 99.1301L42.6591 95.2769C42.6591 95.0546 42.8797 94.9805 43.1002 94.9805L45.2324 95.351C45.453 95.351 45.5265 95.5733 45.5265 95.7956C45.453 96.0179 45.306 96.1661 45.0854 96.092L43.3208 95.7956L43.1002 96.9812L44.6442 97.2776C44.8648 97.2776 44.9383 97.4999 44.9383 97.7222C44.8648 97.9445 44.7178 98.0927 44.4972 98.0186L42.9532 97.7222L42.7326 98.9078L44.4972 99.2042C44.7178 99.2042 44.7913 99.4265 44.7913 99.6488C44.7913 99.8711 44.5707 99.9453 44.3501 99.9453L42.2179 99.5747C41.9974 99.5006 41.9238 99.3524 41.9238 99.1301Z" fill="#1F1C35"/>
<path d="M44.425 100.089H44.3515L42.2192 99.7189H42.1457C41.9251 99.6448 41.7046 99.4225 41.7781 99.1261L42.5133 95.2728C42.5133 95.1246 42.5869 95.0506 42.7339 94.9764C42.8074 94.9023 42.9545 94.9023 43.1015 94.9023L45.2338 95.2728C45.3808 95.2728 45.4543 95.347 45.5279 95.4952C45.6014 95.6434 45.6014 95.7175 45.6014 95.8657C45.5279 96.1621 45.3073 96.3103 45.0132 96.3103L43.3956 96.0139L43.2486 96.9031L44.6456 97.1254C44.9397 97.1995 45.0867 97.4218 45.0867 97.7182C45.0132 98.0146 44.7926 98.1628 44.4985 98.1628L43.1015 97.9405L42.9545 98.8297L44.572 99.1261C44.7191 99.1261 44.7926 99.2002 44.8661 99.3484C44.9397 99.4966 44.9397 99.5707 44.9397 99.7189C44.9397 99.8671 44.8661 99.9412 44.7191 100.015C44.6456 100.089 44.4985 100.089 44.425 100.089ZM42.4398 99.4225L44.425 99.793H44.572L44.6456 99.6448L44.572 99.4966L44.425 99.4225L42.5133 99.052L42.8074 97.57L44.4985 97.8664C44.6456 97.8664 44.7191 97.7923 44.7191 97.7182C44.7191 97.57 44.6456 97.4959 44.572 97.4959L42.881 97.1995L43.1751 95.7175L45.0867 96.088C45.2338 96.088 45.3073 96.0139 45.3073 95.9398V95.7916L45.1602 95.7175L43.028 95.347C42.9545 95.347 42.881 95.347 42.881 95.347L42.8074 95.4952L42.0722 99.3484C42.0722 99.4225 42.0722 99.5707 42.2192 99.5707L42.4398 99.4225Z" fill="#1F1C35"/>
<path d="M48.6142 99.3505C48.7613 99.2023 48.9818 99.2023 49.1289 99.3505C49.423 99.6469 49.8641 99.9433 50.3788 99.9433C50.6729 99.9433 51.0405 99.8692 51.1876 99.7951C51.4081 99.6469 51.4817 99.4987 51.4817 99.3505C51.4817 99.2764 51.4817 99.2023 51.4081 99.1282C51.4081 99.0541 51.3346 98.98 51.2611 98.9059C51.114 98.7577 50.7464 98.6095 50.3788 98.5354C50.0847 98.4613 49.7906 98.3131 49.57 98.239C49.3494 98.0908 49.1289 97.9426 48.9818 97.6462C48.9083 97.498 48.8348 97.2757 48.9083 97.0534C48.9083 96.6829 49.2024 96.3124 49.4965 96.1642C49.7906 95.9419 50.2317 95.8677 50.6729 95.9419C51.3346 96.016 51.7758 96.3124 52.0699 96.6088C52.2169 96.757 52.2169 96.9793 52.1434 97.0534C51.9963 97.2016 51.8493 97.2016 51.7022 97.1275C51.4081 96.9052 51.114 96.6829 50.6729 96.6088C50.3788 96.6088 50.0847 96.6829 49.9376 96.757C49.7171 96.9052 49.6435 96.9793 49.6435 97.1275C49.6435 97.2016 49.6435 97.2757 49.6435 97.3498C49.6435 97.4239 49.7171 97.498 49.7906 97.5721C49.9377 97.7203 50.2317 97.8685 50.5994 97.9426C50.8935 98.0167 51.2611 98.1649 51.4817 98.3131C51.7758 98.4613 51.9963 98.6836 52.0699 98.9059C52.1434 99.0541 52.2169 99.2764 52.2169 99.4987C52.2169 99.9433 51.9228 100.24 51.5552 100.462C51.1876 100.684 50.7464 100.758 50.3053 100.758C49.57 100.684 49.0554 100.314 48.6877 99.9433C48.4672 99.721 48.4672 99.4987 48.6142 99.3505Z" fill="#1F1C35"/>
<path d="M50.454 100.832C50.3805 100.832 50.307 100.832 50.2335 100.832C49.4982 100.758 48.91 100.313 48.5424 100.017C48.3218 99.7944 48.3218 99.498 48.5424 99.3498C48.763 99.1275 49.0571 99.1275 49.2041 99.3498C49.4247 99.5721 49.9394 99.8685 50.307 99.9426C50.6011 99.9426 50.8952 99.9426 51.0422 99.7944C51.1893 99.7203 51.2628 99.5721 51.2628 99.4239V99.2757C51.2628 99.2016 51.1893 99.1275 51.1158 99.1275C50.9687 98.9793 50.6746 98.8311 50.307 98.757C49.9394 98.6829 49.6453 98.5347 49.4247 98.3865C49.1306 98.2383 48.91 98.016 48.763 97.7937C48.6894 97.5714 48.6159 97.3491 48.6159 97.1268C48.6159 96.6822 48.91 96.3117 49.2776 96.0894C49.6453 95.8671 50.0864 95.793 50.5276 95.793C51.1893 95.8671 51.6304 96.2376 51.9981 96.4599C52.2186 96.6822 52.2922 96.9786 52.0716 97.1268C51.9981 97.2009 51.851 97.275 51.7775 97.275C51.6304 97.275 51.4834 97.275 51.4099 97.2009C51.1158 96.9786 50.8217 96.7563 50.454 96.7563C50.2335 96.7563 49.9394 96.7563 49.7923 96.9045C49.7188 96.9786 49.5717 97.0527 49.5717 97.2009V97.275C49.5717 97.275 49.6453 97.3491 49.7188 97.4232C49.8658 97.5714 50.1599 97.6455 50.454 97.7196C50.8217 97.8678 51.1158 97.9419 51.4099 98.0901C51.704 98.3124 51.9245 98.5347 52.0716 98.757C52.1451 98.9793 52.2186 99.2016 52.2186 99.4239C52.2186 99.8685 51.9245 100.239 51.4834 100.535C51.2628 100.684 50.8217 100.832 50.454 100.832ZM48.6894 99.4239C48.6159 99.498 48.6159 99.6462 48.6894 99.7203C49.0571 100.017 49.5717 100.387 50.2335 100.461C50.6746 100.461 51.0422 100.387 51.4099 100.239C51.7775 100.017 51.9981 99.7203 51.9981 99.3498C51.9981 99.2016 51.9981 98.9793 51.9245 98.8311C51.851 98.6088 51.6304 98.4606 51.3363 98.3124C51.1158 98.1642 50.8217 98.0901 50.454 97.9419C50.0864 97.8678 49.7923 97.7196 49.5717 97.5714C49.4982 97.4973 49.4247 97.4232 49.3512 97.3491C49.2776 97.275 49.2776 97.2009 49.2776 97.0527C49.2776 96.9045 49.3512 96.6822 49.6453 96.534C49.8658 96.3858 50.1599 96.3117 50.454 96.3858C50.8952 96.3858 51.1893 96.6822 51.5569 96.9045L51.704 96.9786L51.851 96.9045C51.9245 96.8304 51.9245 96.6822 51.851 96.6081C51.5569 96.3858 51.1158 96.0153 50.5276 96.0153C50.1599 96.0153 49.7188 96.0894 49.4247 96.2376C49.1306 96.4599 48.91 96.7563 48.91 97.0527C48.91 97.2009 48.91 97.3491 48.9835 97.4973C49.0571 97.7196 49.2776 97.8678 49.4982 98.016C49.7188 98.1642 49.9394 98.2383 50.307 98.3124C50.7481 98.3865 51.0422 98.5347 51.2628 98.757C51.3363 98.8311 51.4099 98.9052 51.4834 99.0534C51.5569 99.1275 51.5569 99.2757 51.5569 99.3498C51.5569 99.498 51.4834 99.7203 51.1893 99.9426C50.9687 100.091 50.6011 100.165 50.2335 100.165C49.7188 100.165 49.2041 99.7944 48.91 99.498C48.91 99.3498 48.763 99.3498 48.6894 99.4239Z" fill="#1F1C35"/>
<path d="M58.6147 97.0535H57.5853V100.61C57.5853 100.833 57.4383 100.981 57.2177 100.981C56.9971 100.981 56.8501 100.833 56.8501 100.61V97.0535H55.8207C55.6002 97.0535 55.4531 96.9053 55.4531 96.683C55.4531 96.4607 55.6002 96.3125 55.8207 96.3125H58.6147C58.8353 96.3125 58.9823 96.4607 58.9823 96.683C58.9823 96.8312 58.8353 97.0535 58.6147 97.0535Z" fill="#1F1C35"/>
<path d="M57.2163 101.055C56.9222 101.055 56.7017 100.832 56.7017 100.536V97.1273H55.8194C55.6723 97.1273 55.5253 97.0532 55.4517 96.9791C55.3782 96.905 55.3047 96.7568 55.3047 96.6086C55.3047 96.4603 55.3782 96.3121 55.4517 96.238C55.5253 96.1639 55.6723 96.0898 55.8194 96.0898H58.6133C58.9074 96.0898 59.128 96.3121 59.128 96.6086C59.128 96.905 58.9074 97.1273 58.6133 97.1273H57.731V100.536C57.731 100.684 57.6575 100.832 57.584 100.906C57.5104 101.055 57.3634 101.055 57.2163 101.055ZM55.8194 96.4603L55.6723 96.5344L55.5988 96.6826L55.6723 96.8309L55.8194 96.905H56.9958V100.61C56.9958 100.758 57.0693 100.832 57.2163 100.832L57.3634 100.758L57.4369 100.61V96.905H58.6133C58.7604 96.905 58.8339 96.8308 58.8339 96.6826C58.8339 96.5344 58.7604 96.4603 58.6133 96.4603H55.8194Z" fill="#1F1C35"/>
<path d="M70.673 99.2749C70.7466 99.4231 70.673 99.6454 70.526 99.7936L70.3789 99.8677C70.3054 99.8677 70.2319 99.8677 70.0848 99.8677C70.0113 99.7936 69.9378 99.7195 69.8643 99.6454C69.7172 99.4972 69.6437 99.2749 69.6437 98.9044C69.6437 98.7562 69.5702 98.6821 69.4966 98.608C69.4231 98.5339 69.3496 98.4598 69.2761 98.4598C69.129 98.3857 68.982 98.3857 68.9084 98.3857L68.1732 98.5339L68.3938 99.9418C68.3938 100.164 68.3202 100.312 68.0997 100.386C67.8791 100.386 67.732 100.312 67.6585 100.09L67.0703 96.2368C67.0703 96.0145 67.1438 95.8663 67.3644 95.7922L68.5408 95.644C69.3496 95.4958 70.0113 96.0886 70.1584 96.8296C70.2319 97.2742 70.0848 97.6447 69.7907 98.0152C69.8643 98.0893 70.0113 98.1634 70.0848 98.2375C70.2319 98.3857 70.3789 98.608 70.3789 98.9044C70.3789 99.1267 70.4525 99.2008 70.4525 99.2749C70.526 99.1267 70.5995 99.2008 70.673 99.2749ZM69.3496 96.8296C69.2761 96.4591 68.982 96.1627 68.5408 96.2368L67.732 96.385L67.9526 97.7188L68.7614 97.5706C69.2025 97.4965 69.4231 97.2001 69.3496 96.8296Z" fill="#1F1C35"/>
<path d="M67.9511 100.386C67.7305 100.386 67.51 100.238 67.4364 99.9417L66.8482 96.0884C66.7747 95.792 66.9953 95.5697 67.2894 95.4956L68.4658 95.3474C68.9069 95.2733 69.2746 95.4215 69.6422 95.6438C70.0098 95.8661 70.2304 96.2366 70.2304 96.6812C70.3039 97.0517 70.2304 97.4963 69.9363 97.7927L70.0833 97.9409C70.3039 98.1632 70.3774 98.3856 70.451 98.682C70.451 98.7561 70.451 98.9043 70.5245 98.9784C70.6715 99.0525 70.7451 99.1266 70.8186 99.2007C70.8921 99.3489 70.8921 99.4971 70.8186 99.5712C70.7451 99.7194 70.6715 99.7935 70.598 99.8676C70.5245 99.8676 70.5245 99.9417 70.3774 99.9417C70.3039 99.9417 70.1569 99.9417 70.0098 99.8676C69.8628 99.7935 69.7892 99.7194 69.7157 99.6453C69.5687 99.423 69.4951 99.2007 69.4216 98.8302C69.4216 98.7561 69.3481 98.682 69.3481 98.6079C69.3481 98.6079 69.2746 98.5338 69.201 98.4597C69.054 98.3856 68.9069 98.3855 68.8334 98.3855L68.2452 98.4597L68.4658 99.7194C68.4658 99.8676 68.4658 100.016 68.3923 100.09C68.3187 100.164 68.1717 100.238 68.0246 100.312L67.9511 100.386ZM68.6864 95.6438H68.4658L67.2894 95.792C67.1423 95.792 67.0688 95.9402 67.0688 96.0143L67.657 99.8676C67.657 100.016 67.8041 100.09 67.8776 100.016L68.0246 99.9417L68.0982 99.7935L67.8776 98.2373L68.7599 98.0891C68.9069 98.0891 69.054 98.0891 69.201 98.2373C69.3481 98.3114 69.4216 98.3856 69.4951 98.4597C69.5687 98.5338 69.6422 98.682 69.6422 98.7561C69.7157 99.0525 69.7892 99.2748 69.8628 99.4971L70.0098 99.6453C70.0833 99.6453 70.1569 99.6453 70.2304 99.6453H70.3774L70.451 99.4971V99.3489L70.3039 99.2007H70.2304V99.1266C70.1569 98.9784 70.1569 98.9043 70.1569 98.682C70.1569 98.4597 70.0098 98.2373 69.8628 98.0891C69.7892 98.015 69.7157 97.9409 69.6422 97.9409L69.4951 97.8668L69.6422 97.7186C69.8628 97.4222 70.0098 97.0517 69.9363 96.6812C69.8628 96.3107 69.7157 96.0143 69.4216 95.8661C69.201 95.7179 68.9805 95.6438 68.6864 95.6438ZM67.8776 97.8668L67.657 96.2366L68.6128 96.0884C68.8334 96.0884 69.054 96.0884 69.201 96.2366C69.3481 96.3848 69.4951 96.533 69.4951 96.7553C69.5687 97.1999 69.2746 97.6445 68.8334 97.7186L67.8776 97.8668ZM67.9511 96.4589L68.0982 97.4963L68.7599 97.4222C69.054 97.3481 69.2746 97.1258 69.201 96.8294C69.201 96.6812 69.1275 96.533 68.9805 96.4589C68.8334 96.3848 68.7599 96.3107 68.6128 96.3848L67.9511 96.4589Z" fill="#1F1C35"/>
<path d="M76.7017 97.274L75.1577 97.7186L75.0842 98.6078C75.0842 98.756 74.9371 98.9042 74.7901 98.9042H74.643C74.4224 98.9042 74.2754 98.6819 74.2754 98.5337L74.643 94.3841C74.643 94.2359 74.7901 94.0877 74.9371 94.0877C75.0842 94.0136 75.2312 94.0877 75.3047 94.2359L77.7311 97.6445C77.8781 97.7927 77.8046 98.015 77.6575 98.1632L77.5105 98.2373C77.3634 98.3114 77.2164 98.2373 77.1429 98.0891L76.7017 97.274ZM76.2606 96.6812L75.3783 95.4215L75.2312 96.9776L76.2606 96.6812Z" fill="#1F1C35"/>
<path d="M74.7158 99.1302C74.4217 99.1302 74.2012 98.8338 74.2012 98.5374L74.5688 94.3877C74.5688 94.1654 74.7894 94.0172 74.9364 93.9431C75.157 93.869 75.3776 93.9431 75.4511 94.0913L77.8774 97.5C78.0245 97.7223 78.0245 98.0928 77.7304 98.241L77.5833 98.3151C77.3627 98.3892 77.1422 98.3151 77.0686 98.0928L76.554 97.4259L75.2305 97.7964L75.157 98.6115C75.157 98.8338 75.0099 98.982 74.7894 99.0561L74.7158 99.1302ZM75.0835 94.2395C74.9364 94.2395 74.8629 94.3877 74.8629 94.4618L74.4953 98.6115C74.4953 98.7597 74.5688 98.8338 74.7158 98.8338H74.7894C74.8629 98.8338 74.9364 98.7597 74.9364 98.6115L75.0099 97.5741L76.7745 97.0554L77.3627 97.8705C77.4363 97.9446 77.5098 97.9446 77.5833 97.9446H77.6568C77.7304 97.8705 77.8039 97.7223 77.7304 97.6482L75.304 94.2395H75.0835ZM75.0835 97.1295L75.304 94.9806L76.554 96.6849L75.0835 97.1295ZM75.4511 95.8698L75.3776 96.759L75.9658 96.6108L75.4511 95.8698Z" fill="#1F1C35"/>
<path d="M82.143 92.2377L81.1871 92.6823L82.5841 95.9427C82.6576 96.165 82.5841 96.3132 82.3635 96.3873C82.2165 96.4614 81.9959 96.3873 81.9224 96.165L80.5254 92.9046L79.5696 93.3492C79.349 93.4233 79.202 93.3492 79.0549 93.1269C78.9814 92.9046 79.0549 92.7564 79.2755 92.6823L81.8489 91.5708C81.9959 91.4967 82.2165 91.5708 82.29 91.7931C82.4371 91.9413 82.29 92.1636 82.143 92.2377Z" fill="#1F1C35"/>
<path d="M82.216 96.6086C81.9954 96.6086 81.8484 96.4604 81.7749 96.3122L80.4514 93.2L79.6427 93.5705C79.4956 93.6446 79.3486 93.6446 79.275 93.5705C79.128 93.4964 79.0544 93.4223 78.9809 93.2741C78.9074 93.1259 78.9074 92.9777 78.9809 92.9036C79.0544 92.7554 79.128 92.6813 79.275 92.6072L81.8484 91.4956C82.1425 91.3474 82.4366 91.4956 82.5101 91.792C82.5836 92.0885 82.5101 92.3849 82.216 92.459L81.4072 92.8295L82.7307 95.9417C82.8042 96.0899 82.8042 96.2381 82.7307 96.3122C82.6572 96.4604 82.5836 96.5345 82.4366 96.6086H82.216ZM80.5985 92.7554L82.069 96.164C82.1425 96.3122 82.216 96.3122 82.3631 96.3122L82.5101 96.164V96.0158L81.0396 92.6072L82.1425 92.1626C82.216 92.0885 82.2895 92.0143 82.2895 91.8661C82.216 91.7179 82.1425 91.7179 81.9954 91.7179L79.4221 92.8295L79.275 92.9777V93.1259L79.4221 93.2741H79.5691L80.5985 92.7554Z" fill="#1F1C35"/>
<path d="M87.5092 93.3494L85.377 90.0889C85.23 89.9407 85.3035 89.7184 85.4506 89.5702L87.2152 88.3846C87.3622 88.3105 87.5828 88.3105 87.7298 88.4587C87.8769 88.6069 87.8034 88.8292 87.6563 88.9774L86.1858 89.9407L86.8475 90.9782L88.171 90.163C88.318 90.0889 88.5386 90.0889 88.6857 90.2371C88.8327 90.3853 88.7592 90.6077 88.6121 90.7559L87.2887 91.571L87.9504 92.6084L89.4209 91.6451C89.5679 91.571 89.7885 91.571 89.9356 91.7933C90.0091 91.9415 90.0091 92.1638 89.862 92.312L88.0974 93.4976C87.8769 93.5717 87.6563 93.5717 87.5092 93.3494Z" fill="#1F1C35"/>
<path d="M87.8764 93.7218C87.7294 93.7218 87.5823 93.6477 87.4353 93.4995L85.3031 90.239C85.156 90.0167 85.2295 89.7203 85.4501 89.498L87.2882 88.3124C87.4353 88.2383 87.5088 88.2383 87.6559 88.2383C87.8029 88.2383 87.8764 88.3124 87.95 88.4606C88.0235 88.6088 88.0235 88.6829 88.0235 88.8311C88.0235 88.9793 87.95 89.0534 87.8029 89.1275L86.4059 90.0167L86.9206 90.7577L88.097 90.0167C88.2441 89.9426 88.3176 89.9426 88.4646 89.9426C88.6117 89.9426 88.6852 90.0167 88.7587 90.1649C88.8323 90.3131 88.8323 90.3872 88.8323 90.5354C88.8323 90.6836 88.7587 90.7577 88.6117 90.8318L87.4353 91.5728L87.95 92.3138L89.3469 91.4246C89.5675 91.2764 89.9351 91.3505 90.0822 91.5728C90.2292 91.7951 90.1557 92.1656 89.9351 92.3138L88.097 93.4995L88.0235 93.5736L87.8764 93.7218ZM87.6559 93.2772C87.7294 93.3513 87.8029 93.4254 87.8764 93.3513L87.95 93.129L88.097 93.2772L89.7881 92.1656C89.8616 92.0915 89.9351 91.9433 89.8616 91.8692C89.7881 91.7951 89.641 91.721 89.5675 91.7951L87.95 92.8326L87.1412 91.5728L88.5382 90.6095L88.6117 90.4613V90.3131L88.4646 90.239H88.3176L86.9206 91.2023L86.1118 89.9426L87.7294 88.9052L87.8029 88.757V88.6088L87.6559 88.5347H87.5088L85.7442 89.7203C85.5972 89.7944 85.5972 89.9426 85.6707 90.0167L87.6559 93.2772Z" fill="#1F1C35"/>
<path d="M92.582 88.6807C92.582 88.4584 92.7291 88.3102 92.8761 88.3102C93.2437 88.3102 93.8319 88.0879 94.126 87.7915C94.3466 87.5692 94.4937 87.2728 94.5672 87.0505C94.6407 86.8282 94.5672 86.6058 94.4201 86.5317C94.3466 86.4576 94.2731 86.4576 94.1996 86.4576C94.126 86.4576 94.0525 86.4576 93.9055 86.4576C93.6849 86.5317 93.3908 86.6799 93.0231 86.9023C92.7291 87.0505 92.5085 87.1987 92.2144 87.3469C91.9203 87.421 91.6997 87.4951 91.4056 87.421C91.2586 87.3469 91.038 87.2728 90.8909 87.1246C90.5968 86.8282 90.5233 86.4576 90.5968 86.0871C90.6704 85.7166 90.8909 85.3461 91.185 85.0497C91.6262 84.6051 92.2144 84.531 92.582 84.3828C92.7291 84.3828 92.9496 84.4569 92.9496 84.6792C93.0232 84.8274 92.8761 85.0497 92.6555 85.0497C92.2879 85.1238 91.9203 85.1979 91.6262 85.4943C91.4056 85.7166 91.2586 85.9389 91.2586 86.1612C91.2586 86.3835 91.2586 86.5317 91.4056 86.6058L91.5527 86.68C91.6262 86.68 91.6997 86.68 91.7732 86.68C91.9938 86.68 92.2879 86.5317 92.582 86.3094C92.8761 86.0871 93.1702 85.9389 93.3908 85.8648C93.6849 85.7907 93.979 85.7166 94.2731 85.7907C94.4201 85.8648 94.6407 85.9389 94.7877 86.0871C95.0818 86.3835 95.1554 86.8282 95.0818 87.1987C95.0083 87.5692 94.7877 88.0138 94.4936 88.3102C93.979 88.8289 93.3173 88.9771 92.8026 89.0512C92.8026 88.9771 92.582 88.8289 92.582 88.6807Z" fill="#1F1C35"/>
<path d="M92.9497 89.1249C92.7291 89.1249 92.5085 88.9026 92.435 88.6803C92.435 88.5321 92.435 88.458 92.582 88.3098C92.6556 88.2357 92.8026 88.1616 92.9497 88.1616C93.3173 88.1616 93.832 88.0134 94.1261 87.717C94.3466 87.4947 94.4937 87.2724 94.4937 87.0501C94.4937 86.9019 94.4937 86.7537 94.4202 86.6055L94.2731 86.5314C94.1996 86.5314 94.1261 86.5314 94.0525 86.5314C93.832 86.6055 93.5379 86.6796 93.2438 86.9019C92.9497 87.1242 92.6556 87.2724 92.435 87.3465C92.1409 87.4206 91.8468 87.4947 91.5527 87.4206C91.3321 87.3465 91.1851 87.2724 90.9645 87.1242C90.6704 86.8278 90.5233 86.3832 90.5969 85.9386C90.6704 85.494 90.891 85.1235 91.1851 84.8271C91.6262 84.3825 92.2144 84.2343 92.6556 84.1602C92.8026 84.1602 92.9497 84.1602 93.0232 84.2343C93.0967 84.3084 93.1702 84.4566 93.2438 84.5307C93.2438 84.6789 93.2438 84.753 93.1702 84.9012C93.0967 84.9753 93.0232 85.0494 92.8761 85.1235C92.5085 85.1976 92.1409 85.2717 91.9203 85.494C91.7733 85.6422 91.6262 85.8645 91.6262 86.0868C91.6262 86.235 91.6262 86.3832 91.6997 86.4573L91.7733 86.5314C91.7733 86.5314 91.8468 86.5314 91.9938 86.5314C92.2144 86.5314 92.435 86.3832 92.7291 86.1609C93.0967 85.9386 93.3908 85.7904 93.6114 85.7163C93.979 85.5681 94.2731 85.5681 94.5672 85.6422C94.7878 85.7163 95.0084 85.7904 95.1554 85.9386C95.4495 86.235 95.5966 86.6796 95.523 87.1983C95.4495 87.6429 95.2289 88.0875 94.8613 88.3839C94.1996 88.9026 93.4643 89.0508 92.9497 89.1249ZM92.7291 88.6803C92.7291 88.7544 92.8761 88.9026 92.9497 88.8285C93.3908 88.7544 94.0525 88.6062 94.4937 88.1616C94.7878 87.8652 95.0084 87.4947 95.0819 87.1242C95.1554 86.7537 95.0819 86.3832 94.7878 86.0868C94.6407 85.9386 94.4937 85.8645 94.3466 85.8645C94.1261 85.7904 93.9055 85.8645 93.5379 85.9386C93.3173 86.0127 93.0232 86.1609 92.7291 86.3832C92.435 86.6055 92.0674 86.7537 91.8468 86.7537C91.6997 86.7537 91.6262 86.7537 91.5527 86.7537C91.4792 86.7537 91.4056 86.6796 91.3321 86.6055C91.2586 86.5314 91.1115 86.3091 91.1851 86.0127C91.2586 85.7163 91.4056 85.494 91.6262 85.2717C91.9203 84.9753 92.2879 84.9012 92.7291 84.753L92.8761 84.6789V84.5307L92.8026 84.3825H92.6556C92.2879 84.4566 91.7733 84.6048 91.3321 84.9753C91.038 85.2717 90.891 85.5681 90.8174 85.9386C90.7439 86.3091 90.8174 86.6796 91.1115 86.9019C91.2586 87.0501 91.4056 87.1242 91.5527 87.1242C91.7733 87.1983 91.9938 87.1242 92.2879 87.0501C92.5085 86.976 92.7291 86.8278 93.0232 86.6796C93.3908 86.4573 93.6849 86.3091 93.979 86.235C94.1261 86.235 94.1996 86.235 94.3466 86.235C94.4202 86.235 94.4937 86.3091 94.6407 86.3832C94.7143 86.5314 94.8613 86.6796 94.7878 87.0501C94.7143 87.3465 94.5672 87.6429 94.3466 87.8652C93.979 88.2357 93.3908 88.3839 93.0232 88.458C92.8026 88.458 92.7291 88.5321 92.7291 88.6803Z" fill="#1F1C35"/>
<path d="M5.01414 60.9648C5.82291 61.6317 6.63168 62.3727 7.44046 63.0396C8.32276 62.8914 9.27858 62.7432 10.1609 62.5209C10.9697 61.5576 11.7784 60.5943 12.5872 59.7051C12.5872 58.1489 12.5872 56.6669 12.5872 55.1108C8.91096 53.11 5.16119 51.0352 1.48494 48.8122C1.48494 46.2186 1.48494 43.551 1.48494 40.9574C2.95544 39.3272 4.42594 37.7711 5.89643 36.2891C7.80808 36.2891 9.79325 36.2891 11.7049 36.2891C13.1754 37.7711 14.6459 39.1049 16.1164 40.5128C16.1164 41.9949 16.1164 43.4028 16.1164 44.8848C14.8665 44.9589 13.6165 45.033 12.3666 45.1071C12.3666 44.0697 12.3666 43.1064 12.3666 42.069C11.6314 41.3279 10.8226 40.5869 10.0874 39.8459C9.20505 39.8459 8.32276 39.92 7.44046 39.92C6.70521 40.7351 5.89643 41.5502 5.16119 42.3654C5.16119 43.7733 5.16119 45.1812 5.16119 46.5891C8.83743 48.8863 12.5137 50.9611 16.2634 52.9618C16.2634 55.4813 16.2634 58.0748 16.2634 60.5943C14.7194 62.2986 13.2489 64.0029 11.7049 65.7814C9.71973 66.1519 7.80808 66.5965 5.82291 66.967C4.35241 65.7073 2.80839 64.4475 1.33789 63.1878C1.33789 61.2612 1.33789 59.4086 1.33789 57.482C2.58781 57.2597 3.83774 57.1115 5.01414 56.8892C5.01414 58.223 5.01414 59.631 5.01414 60.9648Z" fill="#1F1C35"/>
<path d="M5.74982 67.4112L5.60277 67.263C4.05875 66.0033 2.51473 64.7436 1.04423 63.4098L0.970703 63.3357V57.1112L1.2648 57.0371C2.51473 56.8148 3.76465 56.6666 4.94105 56.4442H5.3822V60.8162C6.11745 61.409 6.85269 62.0759 7.51442 62.6688C8.32319 62.5206 9.13197 62.3724 9.94074 62.2241C10.676 61.3349 11.4848 60.4457 12.22 59.6306V55.4068C8.32319 53.332 4.72047 51.2572 1.2648 49.1823L1.11775 49.1082V40.883L1.19128 40.8089C2.66178 39.2528 4.13227 37.6225 5.6763 36.1405L5.74982 36.0664H11.8524L11.9994 36.1405C13.4699 37.5484 14.9404 38.9564 16.4109 40.3643L16.558 40.4384V45.3291H16.1904C14.9404 45.4032 13.6905 45.4773 12.4406 45.5514H12.073V42.2909C11.4112 41.624 10.676 40.9571 10.0143 40.2902L7.73499 40.3643C7.07327 41.1053 6.33802 41.8463 5.6763 42.5873V46.4406C9.05844 48.5154 12.6612 50.5903 16.558 52.6651L16.7786 52.7392V60.7421L16.558 60.8162C15.014 62.5206 13.4699 64.299 11.9994 66.0033L11.9259 66.0774H11.7789C9.79369 66.4479 7.80852 66.8925 5.89687 67.263L5.74982 67.4112ZM1.70595 62.9652C3.10293 64.1508 4.4999 65.3364 5.9704 66.522C7.80852 66.1515 9.72017 65.7069 11.5583 65.4105C12.9553 63.7062 14.4993 62.0018 15.9698 60.3716V53.1097C12.073 50.9608 8.47024 48.96 5.0881 46.8852L4.86752 46.737V42.1427L4.94105 42.0686C5.6763 41.2535 6.48507 40.4384 7.22032 39.6233L7.29384 39.5492L10.2348 39.4751L10.3819 39.5492C11.1171 40.2902 11.9259 41.0312 12.6612 41.7722L12.8082 41.8463V44.6622C13.8376 44.5881 14.7934 44.5139 15.8227 44.5139V40.6607C14.4258 39.3269 12.9553 37.993 11.6318 36.6592H6.11745C4.64695 38.1412 3.24997 39.6233 1.853 41.1053V48.5895C5.30867 50.6644 8.83787 52.6651 12.7347 54.814L12.9553 54.8881V59.8529L12.8817 59.927C12.073 60.8162 11.2642 61.7795 10.4554 62.7429L10.3819 62.817H10.2348C9.35254 62.9652 8.39672 63.1134 7.51442 63.3357H7.36737L7.22032 63.2616C6.41155 62.5947 5.60277 61.9277 4.794 61.1867L4.64695 61.1126V57.2594C3.69112 57.4076 2.66178 57.5558 1.70595 57.704V62.9652Z" fill="#1F1C35"/>
<path d="M32.5852 41.4058C31.7765 40.7389 31.0412 40.072 30.2324 39.4051C29.3502 39.4051 28.4679 39.4051 27.512 39.4792C26.7033 40.2202 25.968 40.8871 25.1592 41.6281C25.1592 47.1116 25.0857 52.5951 25.0857 58.0786C25.8945 58.7455 26.6297 59.4124 27.4385 60.0794C28.3208 60.0053 29.2031 59.857 30.0854 59.7829C30.8942 58.9678 31.7029 58.1527 32.5117 57.3376C32.5117 56.3743 32.5117 55.411 32.5117 54.4477C33.7616 54.3736 35.0116 54.2254 36.335 54.1513C36.335 55.4851 36.335 56.893 36.335 58.2268C34.791 59.7088 33.3205 61.265 31.7765 62.8211C29.7913 63.0434 27.8061 63.2657 25.821 63.5621C24.3505 62.3024 22.88 61.0427 21.3359 59.7829C21.3359 53.3361 21.4095 46.8893 21.4095 40.4425C22.9535 39.0346 24.424 37.6267 25.968 36.2188C27.9532 36.2188 29.8648 36.2188 31.85 36.2188C33.3205 37.5526 34.8645 38.8123 36.335 40.1461C36.335 41.4058 36.335 42.7397 36.335 43.9994C35.0851 43.9994 33.8352 44.0735 32.5852 44.1476C32.5852 43.1843 32.5852 42.2951 32.5852 41.4058Z" fill="#1F1C35"/>
<path d="M25.6756 63.8579L25.5286 63.7838C24.0581 62.5241 22.5876 61.2644 21.0435 60.0047L20.8965 59.8565L20.97 40.2196L21.1171 40.1455C22.5876 38.7376 24.1316 37.3297 25.6756 35.9218L25.7491 35.8477H31.9252L31.9987 35.9218C33.4692 37.2556 35.0133 38.5153 36.4838 39.8491L36.6308 39.9973V44.4434H36.2632C35.0133 44.4434 33.7633 44.5175 32.5134 44.5916H32.1458V41.7017C31.4105 41.1088 30.7488 40.516 30.0136 39.8491L27.5873 39.9232C26.852 40.5901 26.1903 41.257 25.455 41.8499V57.8557C26.1903 58.4485 26.852 59.0413 27.5873 59.6342C28.396 59.5601 29.1313 59.486 29.94 59.4119C30.6753 58.6708 31.4105 57.8557 32.1458 57.1147V54.0025H32.5134C33.7633 53.9284 35.0133 53.7802 36.3367 53.7061H36.7043V58.3003L36.6308 58.3744C35.0868 59.9306 33.5428 61.4867 32.0723 62.9687L31.9987 63.0428H31.8517C29.8665 63.2651 27.8814 63.4874 25.8962 63.7838L25.6756 63.8579ZM21.7053 59.486C23.1022 60.6716 24.4992 61.8572 25.8962 63.0428C27.7343 62.8205 29.6459 62.5982 31.5576 62.3759C32.9546 60.8939 34.4251 59.4119 35.8956 57.9298V54.4471C34.8662 54.5212 33.8369 54.5953 32.8075 54.6694V57.4111L32.734 57.4852C31.9252 58.3003 31.1164 59.1154 30.3077 59.9306L30.2341 60.0788H30.0871C29.2048 60.1529 28.3225 60.227 27.4402 60.3752H27.2932L27.1461 60.3011C26.3373 59.6342 25.6021 58.9672 24.7933 58.3003L24.6463 58.1521L24.7198 41.4052L24.8668 41.3311C25.6756 40.5901 26.4109 39.8491 27.2196 39.1822L27.2932 39.1081L30.3077 39.034L30.3812 39.1081C31.19 39.775 31.9252 40.4419 32.734 41.1088L32.881 41.257V43.7024C33.9104 43.7024 34.9397 43.6283 35.8956 43.6283V40.2937C34.4986 39.1081 33.0281 37.8484 31.6311 36.5887H26.0432C24.5727 37.9225 23.1022 39.2563 21.7053 40.5901V59.486Z" fill="#1F1C35"/>
<path d="M41.2617 61.7059C41.2617 53.2584 41.3352 44.8108 41.3352 36.4374C42.5852 36.4374 43.8351 36.4374 45.085 36.4374C45.085 40.1424 45.085 43.8475 45.0115 47.4785C47.3643 47.4044 49.7171 47.4044 52.0699 47.3303C52.0699 43.6993 52.0699 39.9942 52.0699 36.3633C53.3198 36.3633 54.5697 36.3633 55.8196 36.3633C55.8196 44.5885 55.8196 52.8138 55.8196 61.1131C54.5697 61.1131 53.2463 61.1131 51.9964 61.1872C51.9964 57.5562 51.9964 53.8512 51.9964 50.2202C49.6436 50.2202 47.2908 50.2943 44.938 50.3684C44.938 54.0735 44.938 57.7785 44.8644 61.4095C43.7616 61.5577 42.5116 61.6318 41.2617 61.7059Z" fill="#1F1C35"/>
<path d="M40.8945 62.1499L40.9681 36.0663H45.4531L45.3796 47.1074C47.5118 47.0333 49.5705 47.0333 51.7027 46.9592V35.9922H56.1877V61.483H55.8201C54.5702 61.483 53.3202 61.483 51.9968 61.5571H51.6292V50.5901C49.5705 50.5901 47.4382 50.6642 45.306 50.7383L45.2325 61.7794H44.8649C43.615 61.8535 42.365 61.9276 41.0416 62.0017L40.8945 62.1499ZM41.7033 36.8073L41.6298 61.3348C42.6591 61.2607 43.6885 61.1866 44.7178 61.1125L44.7914 49.9973H45.159C47.5118 49.9232 49.8646 49.8491 52.2174 49.8491H52.585L52.4379 60.8161C53.4673 60.8161 54.4966 60.742 55.526 60.742V36.7332H52.5115V47.7002H52.1438C49.791 47.7002 47.4382 47.7743 45.0855 47.8484H44.7178L44.7914 36.7332L41.7033 36.8073Z" fill="#1F1C35"/>
<path d="M76.7742 57.8523C75.2302 59.112 73.6126 60.3717 72.0686 61.6314C70.0834 61.5573 68.0248 61.4091 66.0396 61.4091C64.4956 60.0012 62.878 58.6674 61.334 57.3336C61.334 51.4796 61.334 45.6256 61.334 39.8457C62.878 38.586 64.4956 37.3262 66.0396 36.1406C68.0248 36.1406 70.0099 36.1406 71.9951 36.1406C73.5391 37.4003 75.1567 38.6601 76.7007 39.9939C76.7007 45.8479 76.7007 51.8501 76.7742 57.8523ZM72.9509 56.4444C72.9509 51.3314 72.9509 46.2184 72.8774 41.1054C72.0686 40.4385 71.1863 39.7716 70.3775 39.1047C69.4217 39.1047 68.4659 39.1047 67.5836 39.1047C66.7748 39.7716 65.8925 40.4385 65.0838 41.1054C65.0838 46.1443 65.0838 51.1832 65.0838 56.2962C65.9661 57.0372 66.7748 57.7782 67.6571 58.5192C68.6129 58.5192 69.4952 58.5933 70.4511 58.5933C71.2598 57.8523 72.1421 57.1113 72.9509 56.4444Z" fill="#1F1C35"/>
<path d="M72.1419 62.0053H71.9948C70.0097 61.9312 67.951 61.783 65.9658 61.783H65.8187L65.7452 61.7089C64.2012 60.3009 62.6572 58.9671 61.0396 57.6333L60.8926 57.5592V39.7008L61.0396 39.5526C62.5836 38.2929 64.2012 37.0332 65.7452 35.8475L65.8187 35.7734H71.9948L72.0684 35.8475C73.6124 37.1073 75.2299 38.367 76.774 39.7008L76.921 39.7749L76.9945 58.0779L76.8475 58.2261C75.3035 59.4858 73.6859 60.7456 72.1419 62.0053ZM66.1864 60.9679C68.098 61.042 70.0097 61.1161 71.9213 61.1902C73.3918 60.0045 74.8623 58.8189 76.4063 57.6333L76.3328 40.0713C74.8623 38.8116 73.3183 37.626 71.8478 36.4403H66.1864C64.7159 37.626 63.2454 38.8116 61.7014 39.9972V57.1887C63.1718 58.3743 64.7159 59.7081 66.1864 60.9679ZM70.5243 58.893H70.3773C69.495 58.8189 68.5392 58.8189 67.6569 58.8189H67.5098L67.4363 58.7448C66.554 58.0038 65.7452 57.2628 64.8629 56.5218L64.7159 56.3736V40.8864L64.8629 40.7382L67.4363 38.6634H70.5243L70.5979 38.7375C71.4066 39.4044 72.2889 40.0713 73.0977 40.7382L73.2448 40.8123L73.3183 56.5218L70.5243 58.893ZM67.8039 58.0779C68.6127 58.0779 69.495 58.152 70.3038 58.152L72.583 56.2995L72.5095 41.2569C71.7743 40.6641 70.9655 39.9972 70.2302 39.4044H67.6569L65.3776 41.1828V56.0031C66.2599 56.67 66.9951 57.3369 67.8039 58.0779Z" fill="#1F1C35"/>
<path d="M97.5093 59.8528C95.9653 61.1125 94.4212 62.3722 92.8772 63.632C90.892 63.3355 88.9069 63.1132 86.9217 62.8909C85.3777 61.3348 83.8336 59.7787 82.2161 58.2226C82.2161 52.1463 82.1426 46.07 82.1426 39.9196C83.6866 38.6598 85.2306 37.326 86.8482 35.9922C88.8333 35.9922 90.8185 35.9922 92.8037 35.9922C94.3477 37.326 95.9653 38.7339 97.5093 40.216C97.4358 46.811 97.5093 53.3319 97.5093 59.8528ZM93.7595 58.1485C93.7595 52.5909 93.686 47.1074 93.686 41.5498C92.8772 40.8088 91.9949 40.0678 91.1861 39.3267C90.2303 39.3267 89.2745 39.3267 88.3922 39.2526C87.5834 39.9196 86.7746 40.6606 85.8923 41.3275C85.8923 46.6628 85.9659 51.9981 85.9659 57.3333C86.8482 58.1485 87.6569 59.0377 88.5392 59.8528C89.4215 59.9269 90.3774 60.0751 91.2597 60.1492C92.0684 59.4823 92.8772 58.8154 93.7595 58.1485Z" fill="#1F1C35"/>
<path d="M92.9505 64.006H92.8034C90.8183 63.7096 88.8331 63.4873 86.8479 63.265H86.7009L86.6273 63.1909C85.1568 61.6348 83.5393 60.0786 81.9217 58.5966L81.7747 58.5225L81.7012 39.9231L81.8482 39.7749C83.4658 38.4411 85.0098 37.1814 86.5538 35.8475L86.6273 35.7734H92.8034L92.877 35.8475C94.4945 37.2555 96.112 38.6634 97.5825 40.0713L97.7296 40.1454L97.8031 60.0786L97.6561 60.2268C96.1856 61.4125 94.6416 62.6722 92.9505 64.006ZM86.995 62.524C88.9066 62.7463 90.8183 62.9686 92.7299 63.265C94.2739 62.0053 95.7444 60.8938 97.1414 59.7081L97.0679 40.4418C95.5974 39.108 94.1269 37.7742 92.5829 36.4403H86.9214C85.5245 37.626 84.054 38.8857 82.5099 40.1454L82.5835 58.0779C84.054 59.5599 85.598 61.042 86.995 62.524ZM91.3329 60.5233H91.1859C90.3036 60.4491 89.3478 60.3009 88.4655 60.2268H88.3184L88.2449 60.1527C87.3626 59.2635 86.5538 58.4484 85.6715 57.6333L85.5245 57.5592L85.4509 41.1828L85.598 41.0346C86.4068 40.3677 87.2155 39.7008 88.0978 38.9598L88.1714 38.8857L91.2594 38.9598L91.3329 39.0339C92.1417 39.7749 93.024 40.5159 93.8328 41.2569L93.9798 41.331L94.0534 58.3002L93.9063 58.4484C93.0975 59.1153 92.2152 59.8563 91.4065 60.5233H91.3329ZM88.6125 59.4858C89.4213 59.5599 90.2301 59.634 91.1124 59.7822C91.8476 59.1894 92.6564 58.5225 93.3916 57.9297L93.3181 41.6274C92.5829 40.9605 91.7741 40.2936 91.0388 39.6267L88.4655 39.5526C87.7302 40.1454 86.995 40.8123 86.1862 41.4051L86.2597 57.1146C87.0685 57.9297 87.8773 58.7448 88.6125 59.4858Z" fill="#1F1C35"/>
<path d="M106.332 36.4375C106.332 45.1073 106.405 53.7031 106.405 62.3729C109.493 62.8916 112.581 63.4845 115.743 64.1514C115.743 65.337 115.743 66.5967 115.743 67.7823C111.405 66.7449 107.067 65.8557 102.729 65.0406C102.656 55.4815 102.656 45.9225 102.582 36.4375C103.832 36.4375 105.082 36.4375 106.332 36.4375Z" fill="#1F1C35"/>
<path d="M116.111 68.2262L115.67 68.1521C111.405 67.1147 106.994 66.2255 102.656 65.4104L102.362 65.3363L102.215 35.9922H106.7L106.773 61.9276C109.788 62.4463 112.802 63.0391 115.817 63.632L116.111 63.7061V68.2262ZM103.097 64.7435C107.215 65.4845 111.332 66.3737 115.376 67.337V64.4471C112.435 63.8543 109.347 63.2614 106.406 62.7427L106.112 62.6686L106.038 36.8073H103.024L103.097 64.7435Z" fill="#1F1C35"/>
<path d="M41.3356 26.4351H29.204C28.7628 26.4351 28.4688 26.1387 28.4688 25.6941C28.4688 25.2495 28.7628 24.9531 29.204 24.9531H41.3356C41.7768 24.9531 42.0709 25.2495 42.0709 25.6941C42.0709 26.1387 41.7768 26.4351 41.3356 26.4351Z" fill="#1F1C35"/>
<path d="M86.8473 26.4351H74.7157C74.2746 26.4351 73.9805 26.1387 73.9805 25.6941C73.9805 25.2495 74.2746 24.9531 74.7157 24.9531H86.8473C87.2885 24.9531 87.5826 25.2495 87.5826 25.6941C87.5826 26.1387 87.2885 26.4351 86.8473 26.4351Z" fill="#1F1C35"/>
<path d="M36.1902 75.0445H24.7938C24.3527 75.0445 24.0586 74.7481 24.0586 74.3035C24.0586 73.8589 24.3527 73.5625 24.7938 73.5625H36.1902C36.6314 73.5625 36.9255 73.8589 36.9255 74.3035C36.9255 74.7481 36.5578 75.0445 36.1902 75.0445Z" fill="#1F1C35"/>
<path d="M91.2586 75.0445H79.8622C79.4211 75.0445 79.127 74.7481 79.127 74.3035C79.127 73.8589 79.4211 73.5625 79.8622 73.5625H91.2586C91.6997 73.5625 91.9938 73.8589 91.9938 74.3035C91.9938 74.7481 91.6997 75.0445 91.2586 75.0445Z" fill="#1F1C35"/>
<path d="M44.4245 74.1558V74.8968H42.954V76.7494H44.7921V77.4904H42.2188V71.4141C43.1746 71.4141 43.6893 71.4141 44.6451 71.4141V72.1551H42.8805V74.0817H44.4245V74.1558Z" fill="#1F1C35"/>
<path d="M44.9378 77.6383H42.0703V71.2656H44.7907V72.303H43.0261V73.9333H44.4966V74.9707H43.0261V76.5268H44.8643V77.6383H44.9378ZM42.3644 77.3419H44.6437V76.8973H42.8056V74.6743H44.2761V74.2297H42.8056V72.0066H44.5702V71.562H42.4379V77.3419H42.3644Z" fill="#1F1C35"/>
<path d="M46.6298 76.3047L47.0709 76.8234H47.6591L48.1003 76.3047V75.3414L45.9681 73.8594V72.3033L46.7768 71.4141H47.9532L48.762 72.3033V73.2666H48.0268V72.6738L47.5856 72.1551H47.0709L46.6298 72.6738V73.4889L48.8355 74.9709V76.6011L47.9532 77.5645H46.7768L45.8945 76.6011V75.4896H46.6298V76.3047Z" fill="#1F1C35"/>
<path d="M48.0261 77.7126H46.7761L45.8203 76.6751V75.3413H46.8497V76.2305L47.2173 76.6751H47.5849L47.9525 76.2305V75.4154L45.8203 73.9334V72.3032L46.7761 71.3398H48.0261L48.9819 72.3032V73.4147H47.9525V72.6737L47.5849 72.3032H47.2173L46.7761 72.6737V73.4147L48.9084 74.8967V76.6751L48.0261 77.7126ZM46.8497 77.4161H47.879L48.6878 76.601V75.119L46.5556 73.637V72.6737L47.0702 72.0809H47.732L48.2466 72.6737V73.1924H48.6878V72.4514L47.879 71.6362H46.8497L46.0409 72.4514V73.8593L48.1731 75.3413V76.4528L47.5849 77.0456H46.9232L46.335 76.4528V75.7118H45.8938V76.601L46.8497 77.4161Z" fill="#1F1C35"/>
<path d="M50.8939 72.1552H49.791V71.4883H52.6585V72.1552H51.5556V77.4905H50.8939V72.1552Z" fill="#1F1C35"/>
<path d="M51.7032 77.6383H50.6739V72.2289H49.6445V71.2656H52.8061V72.2289H51.7032V77.6383ZM51.0415 77.3419H51.4827V71.9325H52.512V71.562H49.9386V71.9325H50.968V77.3419H51.0415Z" fill="#1F1C35"/>
<path d="M53.8359 71.4883H55.7476L56.6299 72.3775V76.6013L55.7476 77.4905C55.0859 77.4905 54.4977 77.4905 53.8359 77.4905V71.4883ZM55.4535 76.8236L55.8946 76.379V72.6739L55.4535 72.2293H54.5712V76.8236H55.4535Z" fill="#1F1C35"/>
<path d="M55.8197 77.6384H53.6875V71.3398H55.8197L56.7755 72.3032V76.6751L55.8197 77.6384ZM53.9816 77.342H55.6727L56.4814 76.5269V72.4514L55.6727 71.6362H53.9816V77.342ZM55.5256 76.9715H54.4227V72.0809H55.5256L56.1138 72.5996V76.3046L55.5256 76.9715ZM54.7168 76.6751H55.3786L55.7462 76.3046V72.8219L55.3786 72.3773H54.7168V76.6751Z" fill="#1F1C35"/>
<path d="M61.2621 71.4883V76.8236H62.1444V77.4905H59.6445V76.8236H60.5268V72.2293H59.7181V71.4883H61.2621Z" fill="#1F1C35"/>
<path d="M62.2913 77.6383H59.4238V76.675H60.3061V72.303H59.4974V71.2656H61.3355V76.6009H62.2178V77.6383H62.2913ZM59.7915 77.3419H61.9972V76.9714H61.1149V71.6361H59.865V72.0807H60.6737V77.0455H59.7915V77.3419Z" fill="#1F1C35"/>
<path d="M63.9819 74.971L63.0996 74.0818V72.3775L63.9819 71.4883H65.0848L65.9671 72.3775V76.6754L65.0848 77.5646H63.9819L63.1731 76.6754V75.8603H63.9084V76.379L64.276 76.8236H64.7907L65.2318 76.379V75.0451H63.9819V74.971ZM65.3054 74.3041V72.6739L64.8642 72.1552H64.3495L63.8349 72.6739V73.7854L64.276 74.3041H65.3054Z" fill="#1F1C35"/>
<path d="M65.1589 77.7122H63.9089L63.0266 76.7489V75.7115H64.056V76.3043L64.3501 76.6007H64.7177L65.0853 76.2302V75.0446H63.9089L62.9531 74.0071V72.1546L63.9089 71.1172H65.1589L66.1147 72.1546V76.5266L65.1589 77.7122ZM64.056 77.4158H65.0853L65.8941 76.6007V72.451L65.0853 71.6359H64.056L63.2472 72.451V74.0071L64.056 74.8222H65.3794V76.3784L64.8648 76.8971H64.203L63.6884 76.3784V75.9338H63.2472V76.5266L64.056 77.4158ZM65.453 74.4517H64.2766L63.7619 73.8589V72.5992L64.2766 72.0064H64.9383L65.453 72.5992V74.4517ZM64.3501 74.1553H65.0853V72.7474L64.7177 72.3769H64.3501L63.9825 72.7474V73.7848L64.3501 74.1553Z" fill="#1F1C35"/>
<path d="M68.2456 74.971L67.3633 74.0818V72.3775L68.2456 71.4883H69.3485L70.2307 72.3775V76.6754L69.3485 77.5646H68.2456L67.4368 76.6754V75.8603H68.1721V76.379L68.5397 76.8236H69.0544L69.4955 76.379V75.0451H68.2456V74.971ZM69.4955 74.3041V72.6739L69.0544 72.1552H68.5397L68.0985 72.6739V73.7854L68.5397 74.3041H69.4955Z" fill="#1F1C35"/>
<path d="M69.4225 77.7122H68.1726L67.2903 76.7489V75.7115H68.3197V76.3043L68.6138 76.6007H68.9814L69.349 76.2302V75.0446H68.1726L67.2168 74.0071V72.1546L68.1726 71.1172H69.4225L70.3784 72.1546V76.5266L69.4225 77.7122ZM68.3197 77.4158H69.349L70.1578 76.6007V72.451L69.349 71.6359H68.3197L67.5109 72.451V74.0071L68.3197 74.8222H69.6431V76.3784L69.1284 76.8971H68.4667L67.952 76.3784V75.9338H67.5109V76.5266L68.3197 77.4158ZM69.6431 74.4517H68.4667L67.952 73.8589V72.5992L68.4667 72.0064H69.1284L69.6431 72.5992V74.4517ZM68.6138 74.1553H69.349V72.7474L68.9814 72.3769H68.6138L68.2461 72.7474V73.7848L68.6138 74.1553Z" fill="#1F1C35"/>
<path d="M73.3198 72.4516V72.1552H72.1435V72.8221H71.4082V71.4883H74.0551V72.5257L72.4375 77.5646H71.7023L73.3198 72.4516Z" fill="#1F1C35"/>
<path d="M72.5832 77.7126H71.4803L73.1714 72.4514V72.3773H72.2891V72.9701H71.2598V71.3398H74.2743V72.5996L72.5832 77.7126ZM71.848 77.4161H72.2891L73.8331 72.5996V71.7103H71.5539V72.6737H71.995V72.0809H73.539V72.5255L71.848 77.4161Z" fill="#1F1C35"/>
<path d="M50.7469 19.6916V29.6953C50.7469 29.9917 50.9674 30.214 51.2615 30.214C51.5556 30.214 51.7762 29.9917 51.7762 29.6953V19.6916C54.2025 19.3952 56.1142 17.3204 56.1142 14.8751C56.1142 14.5787 55.8936 14.3563 55.5995 14.3563C55.3054 14.3563 55.0848 14.5787 55.0848 14.8751C55.0848 15.9125 54.6437 16.8758 53.982 17.5427C53.3202 18.2096 52.3644 18.6542 51.3351 18.6542C50.3057 18.6542 49.3499 18.2096 48.6882 17.5427C48.0264 16.8758 47.5853 15.9125 47.5853 14.8751C47.5853 13.8376 48.0264 12.8743 48.6882 12.2074C49.3499 11.5405 50.3057 11.0959 51.3351 11.0959H64.2019C65.2313 11.0959 66.1871 11.5405 66.8488 12.2074C67.5105 12.8743 67.9517 13.8376 67.9517 14.8751C67.9517 15.9125 67.5105 16.8758 66.8488 17.5427C66.1871 18.2096 65.2313 18.6542 64.2019 18.6542C63.1726 18.6542 62.2168 18.2096 61.555 17.5427C60.8933 16.8758 60.4522 15.9125 60.4522 14.8751C60.4522 14.5787 60.2316 14.3563 59.9375 14.3563C59.6434 14.3563 59.4228 14.5787 59.4228 14.8751C59.4228 17.3945 61.3345 19.4693 63.7608 19.6916V29.6953C63.7608 29.9917 63.9813 30.214 64.2754 30.214C64.5695 30.214 64.7901 29.9917 64.7901 29.6953V19.6916C67.2164 19.3952 69.1281 17.3204 69.1281 14.8751C69.1281 12.2074 66.9959 9.98438 64.2754 9.98438H51.3351C48.6882 9.98438 46.4824 12.1333 46.4824 14.8751C46.4824 17.3204 48.3205 19.3952 50.7469 19.6916Z" fill="#1F1C35"/>
<path d="M64.1283 30.3619C63.7606 30.3619 63.4665 30.0655 63.4665 29.695V19.7654C60.9667 19.3949 59.1286 17.32 59.1286 14.8006C59.1286 14.4301 59.4227 14.1337 59.7903 14.1337C60.1579 14.1337 60.452 14.4301 60.452 14.8006C60.452 15.7639 60.8197 16.7272 61.4814 17.3941C62.1431 18.0611 63.0989 18.4316 64.0547 18.4316C65.0106 18.4316 65.9664 18.0611 66.6281 17.3941C67.2898 16.7272 67.6575 15.7639 67.6575 14.8006C67.6575 13.8373 67.2898 12.874 66.6281 12.2071C65.9664 11.5401 65.0106 11.1696 64.0547 11.1696H51.3349C50.3791 11.1696 49.4233 11.5401 48.7616 12.2071C48.0998 12.874 47.7322 13.8373 47.7322 14.8006C47.7322 15.7639 48.0998 16.7272 48.7616 17.3941C49.4233 18.0611 50.3791 18.4316 51.3349 18.4316C52.2908 18.4316 53.2466 18.0611 53.9083 17.3941C54.57 16.7272 54.9377 15.7639 54.9377 14.8006C54.9377 14.4301 55.2318 14.1337 55.5994 14.1337C55.967 14.1337 56.2611 14.4301 56.2611 14.8006C56.2611 17.32 54.423 19.469 51.9231 19.7654V29.695C51.9231 30.0655 51.629 30.3619 51.2614 30.3619C50.8938 30.3619 50.5997 30.0655 50.5997 29.695V19.7654C48.0998 19.3949 46.2617 17.32 46.2617 14.8006C46.2617 12.0589 48.4675 9.76172 51.2614 9.76172H64.1283C66.8487 9.76172 69.128 11.9848 69.128 14.8006C69.128 17.32 67.2898 19.469 64.79 19.7654V29.695C64.79 30.0655 64.4959 30.3619 64.1283 30.3619ZM59.8638 14.4301C59.6433 14.4301 59.4962 14.5783 59.4962 14.8006C59.4962 17.2459 61.2608 19.2467 63.6871 19.469H63.8342V29.695C63.8342 29.9173 63.9812 30.0655 64.2018 30.0655C64.4224 30.0655 64.5694 29.9173 64.5694 29.695V19.5431H64.7165C67.0693 19.2467 68.9074 17.2459 68.9074 14.8747C68.9074 12.2812 66.7752 10.1322 64.2018 10.1322H51.3349C48.7616 10.1322 46.6293 12.2812 46.6293 14.8747C46.6293 17.32 48.3939 19.3208 50.8203 19.5431H50.9673V29.695C50.9673 29.9173 51.1144 30.0655 51.3349 30.0655C51.5555 30.0655 51.7026 29.9173 51.7026 29.695V19.5431H51.8496C54.2024 19.2467 56.0405 17.2459 56.0405 14.8747C56.0405 14.6524 55.8935 14.5042 55.6729 14.5042C55.4523 14.5042 55.3053 14.6524 55.3053 14.8747C55.3053 15.9121 54.8641 16.9495 54.1289 17.6906C53.3936 18.4316 52.4378 18.8762 51.3349 18.8762C50.3056 18.8762 49.2762 18.4316 48.541 17.6906C47.8057 16.9495 47.3646 15.9862 47.3646 14.8747C47.3646 13.8373 47.8057 12.7999 48.541 12.0589C49.2762 11.3178 50.2321 10.8732 51.3349 10.8732H64.2018C65.2311 10.8732 66.2605 11.3178 66.9957 12.0589C67.731 12.7999 68.1721 13.7632 68.1721 14.8747C68.1721 15.9121 67.731 16.9495 66.9957 17.6906C66.2605 18.4316 65.3047 18.8762 64.2018 18.8762C63.1724 18.8762 62.1431 18.4316 61.4078 17.6906C60.6726 16.9495 60.2315 15.9862 60.2315 14.8747C60.2315 14.5783 60.0844 14.4301 59.8638 14.4301Z" fill="#1F1C35"/>
<path d="M55.8206 29.92V19.1753C55.8206 19.0271 55.6736 18.8789 55.5265 18.8789C55.3795 18.8789 55.2324 19.0271 55.2324 19.1753V29.92C55.2324 30.0682 55.3795 30.2164 55.5265 30.2164C55.7471 30.2164 55.8206 30.0682 55.8206 29.92Z" fill="#1F1C35"/>
<path d="M55.5994 30.3605C55.3788 30.3605 55.1582 30.1382 55.1582 29.9158V19.1712C55.1582 18.9489 55.3788 18.7266 55.5994 18.7266C55.8199 18.7266 56.0405 18.9489 56.0405 19.1712V29.9158C55.967 30.1382 55.8199 30.3605 55.5994 30.3605ZM55.5994 19.023L55.4523 19.1712V29.9158L55.5994 30.0641L55.7464 29.9158V19.1712L55.5994 19.023Z" fill="#1F1C35"/>
<path d="M60.1585 29.92V19.1753C60.1585 19.0271 60.0115 18.8789 59.8644 18.8789C59.7174 18.8789 59.5703 19.0271 59.5703 19.1753V29.92C59.5703 30.0682 59.7174 30.2164 59.8644 30.2164C60.0115 30.2164 60.1585 30.0682 60.1585 29.92Z" fill="#1F1C35"/>
<path d="M59.865 30.3605C59.6444 30.3605 59.4238 30.1382 59.4238 29.9158V19.1712C59.4238 18.9489 59.6444 18.7266 59.865 18.7266C60.0856 18.7266 60.3061 18.9489 60.3061 19.1712V29.9158C60.3061 30.1382 60.0856 30.3605 59.865 30.3605ZM59.865 19.023L59.7179 19.1712V29.9158L59.865 30.0641L60.012 29.9158V19.1712L59.865 19.023Z" fill="#1F1C35"/>
<path d="M65.7462 14.8013C65.7462 15.6905 65.011 16.4315 64.1287 16.4315C63.2464 16.4315 62.5111 15.6905 62.5111 14.8013C62.5111 14.6531 62.3641 14.5049 62.217 14.5049C62.07 14.5049 61.9229 14.6531 61.9229 14.8013C61.9229 15.9869 62.8788 16.9502 64.0552 16.9502C65.2316 16.9502 66.1874 15.9869 66.1874 14.8013C66.1874 13.6157 65.2316 12.6523 64.0552 12.6523H51.3353C50.1589 12.6523 49.2031 13.6157 49.2031 14.8013C49.2031 15.9869 50.1589 16.9502 51.3353 16.9502C52.5117 16.9502 53.4676 15.9869 53.4676 14.8013C53.4676 14.6531 53.3205 14.5049 53.1735 14.5049C53.0264 14.5049 52.8794 14.6531 52.8794 14.8013C52.8794 15.6905 52.1441 16.4315 51.2618 16.4315C50.3795 16.4315 49.6443 15.6905 49.6443 14.8013C49.6443 13.9121 50.3795 13.1711 51.2618 13.1711H64.0552C65.011 13.1711 65.7462 13.9121 65.7462 14.8013Z" fill="#1F1C35"/>
<path d="M64.128 17.0982C62.8781 17.0982 61.8487 16.0608 61.8487 14.801C61.8487 14.5787 62.0693 14.3564 62.2899 14.3564C62.5104 14.3564 62.731 14.5787 62.731 14.801C62.731 15.6162 63.3927 16.2831 64.2015 16.2831C65.0103 16.2831 65.672 15.6162 65.672 14.801C65.672 13.9859 65.0103 13.319 64.2015 13.319H51.3347C50.5259 13.319 49.8642 13.9859 49.8642 14.801C49.8642 15.6162 50.5259 16.2831 51.3347 16.2831C52.1434 16.2831 52.8052 15.6162 52.8052 14.801C52.8052 14.5787 53.0257 14.3564 53.2463 14.3564C53.4669 14.3564 53.6874 14.5787 53.6874 14.801C53.6874 16.0608 52.6581 17.0982 51.4082 17.0982C50.1583 17.0982 49.1289 16.0608 49.1289 14.801C49.1289 13.5413 50.1583 12.5039 51.4082 12.5039H64.2015C65.4514 12.5039 66.4808 13.5413 66.4808 14.801C66.4073 16.0608 65.3779 17.0982 64.128 17.0982ZM62.2899 14.6528L62.1428 14.801C62.1428 15.9126 63.0251 16.8018 64.128 16.8018C65.2309 16.8018 66.1132 15.9126 66.1132 14.801C66.1132 13.6895 65.2309 12.8003 64.128 12.8003H51.3347C50.2318 12.8003 49.3495 13.6895 49.3495 14.801C49.3495 15.9126 50.2318 16.8018 51.3347 16.8018C52.4375 16.8018 53.3198 15.9126 53.3198 14.801L53.1728 14.6528L53.0257 14.801C53.0257 15.7644 52.217 16.5795 51.2611 16.5795C50.3053 16.5795 49.4965 15.7644 49.4965 14.801C49.4965 13.8377 50.3053 13.0226 51.2611 13.0226H64.0545C65.0103 13.0226 65.8191 13.8377 65.8191 14.801C65.8191 15.7644 65.0103 16.5795 64.0545 16.5795C63.0986 16.5795 62.2899 15.7644 62.2899 14.801V14.6528Z" fill="#1F1C35"/>
</g>
<defs>
<clipPath id="clip0_4340_2810">
<rect width="115.14" height="101" fill="white" transform="translate(0.970703 0.0546875)"/>
</clipPath>
</defs>
</svg>
