<svg width="70" height="72" viewBox="0 0 70 72" fill="none" xmlns="http://www.w3.org/2000/svg">
<g opacity="0.2">
<path d="M7.87214 68.3115C9.63514 69.2535 11.5111 69.9655 13.4461 70.2705C15.3801 70.5725 17.3601 70.4215 19.1871 69.8245C22.8771 68.6645 25.8451 65.8605 27.8241 62.5945C31.8371 56.1295 29.3621 46.6535 23.0261 42.7715C16.6941 38.8315 7.16813 41.2285 3.28013 47.7185C1.34813 50.9655 0.761133 55.0245 1.51313 58.8195C2.20513 62.6235 4.40814 66.2535 7.87214 68.3115C4.17214 66.6535 1.60314 62.9795 0.557139 59.0395C-0.471861 55.0715 -0.108865 50.6555 1.92514 46.9435C6.08513 39.4535 16.6061 36.5505 24.0731 41.0695C27.7421 43.3515 30.1951 47.1865 31.1381 51.2755C32.0821 55.3535 31.5341 59.9135 29.1381 63.4265C26.8921 66.8715 23.5051 69.7485 19.4511 70.7635C17.4391 71.2575 15.3261 71.2525 13.3471 70.7885C11.3581 70.3385 9.52114 69.4355 7.87214 68.3115Z" fill="#00BFAD"/>
<path d="M2.29492 62.1215C4.02192 61.4955 5.89892 61.3215 7.74092 61.4275C9.58792 61.5345 11.4229 61.9165 13.1639 62.5565C14.9069 63.1915 16.5569 64.0885 18.0319 65.2115C19.5019 66.3325 20.8089 67.7045 21.6759 69.3245C20.1859 68.2605 18.7139 67.3365 17.1859 66.5225C15.6589 65.7115 14.0829 65.0295 12.4759 64.4325C10.8649 63.8445 9.21892 63.3485 7.52892 62.9665C5.83592 62.5885 4.11392 62.3205 2.29492 62.1215Z" fill="#00BFAD"/>
<path d="M9.5 41.3398C11.175 42.2788 12.733 43.3188 14.299 44.2988C15.864 45.2798 17.435 46.1998 19.046 47.0068C20.656 47.8048 22.316 48.4938 24.048 48.9958C25.782 49.4968 27.572 49.8168 29.486 49.9498C27.688 50.6458 25.673 50.7738 23.736 50.5248C21.791 50.2768 19.896 49.6718 18.152 48.7958C16.407 47.9258 14.814 46.8028 13.371 45.5468C11.927 44.2888 10.624 42.8958 9.5 41.3398Z" fill="#00BFAD"/>
<path d="M24.4141 33.993C26.1571 30.582 28.1971 27.334 30.4081 24.21C32.6101 21.076 35.0221 18.093 37.5561 15.219C40.1171 12.37 42.8031 9.63 45.6611 7.08C48.5101 4.522 51.5011 2.122 54.6901 0L46.7471 8.201C44.1381 10.951 41.5511 13.712 39.0481 16.548C36.5171 19.36 34.0731 22.248 31.6411 25.156L24.4141 33.993Z" fill="#00BFAD"/>
<path d="M30.2109 38.1024C32.8999 35.2504 35.8339 32.6414 38.9009 30.2024C41.9619 27.7524 45.1859 25.5094 48.4979 23.4104C51.8299 21.3424 55.2539 19.4194 58.7939 17.7324C62.3259 16.0354 65.9529 14.5334 69.6939 13.3594L59.5219 19.1134C56.1669 21.0634 52.8319 23.0334 49.5599 25.1044C46.2679 27.1444 43.0409 29.2864 39.8229 31.4554L30.2109 38.1024Z" fill="#00BFAD"/>
<path d="M36.5859 44.5022C37.9809 42.8732 39.6209 41.4792 41.3769 40.2562C43.1279 39.0212 45.0219 37.9962 46.9779 37.1172C48.9489 36.2722 50.9859 35.5742 53.0809 35.1222C55.1699 34.6592 57.3069 34.3992 59.4509 34.4792L53.5219 36.6192C51.5829 37.3562 49.6609 38.1042 47.7799 38.9472C45.8839 39.7562 44.0319 40.6632 42.1749 41.5892L36.5859 44.5022Z" fill="#00BFAD"/>
</g>
</svg>
