<svg width="53" height="79" viewBox="0 0 53 79" fill="none" xmlns="http://www.w3.org/2000/svg">
<path opacity="0.05" d="M1.14876 78.5414C0.848764 76.7414 0.248764 74.9414 0.148764 73.1414C-0.551236 56.1414 1.14877 39.4414 6.74877 23.3414C8.54877 18.2414 10.9488 13.2414 13.7488 8.64138C16.6488 3.64138 20.7488 -0.458625 27.1488 0.0413751C33.5488 0.541375 36.5488 5.54137 39.0488 10.7414C42.0488 17.0414 43.3488 23.8414 44.2488 30.6414C44.4488 32.1414 44.6488 33.7414 45.6488 35.4414C47.2488 32.1414 48.8488 28.9414 50.5488 25.4414C52.7488 27.0414 52.1488 28.8414 51.8488 30.1414C50.0488 37.4414 48.1488 44.7414 46.0488 51.9414C45.1488 55.1414 42.6488 55.5414 40.7488 53.0414C36.4488 47.1414 33.9488 40.4414 32.8488 33.1414C32.8488 32.9414 33.1488 32.6414 33.4488 32.1414C37.5488 32.4414 36.4488 37.2414 39.4488 39.2414C38.7488 28.8414 37.5488 19.1414 32.6488 10.2414C32.0488 9.14137 31.2488 8.14137 30.3488 7.24137C27.8488 4.74137 25.2488 4.34138 22.7488 6.84138C19.9488 9.64138 17.3488 12.8414 15.4488 16.2414C10.9488 24.3414 8.34878 33.1414 6.84878 42.1414C5.24878 52.2414 4.34876 62.4414 3.14876 72.6414C2.94876 74.4414 2.84876 76.3414 2.64876 78.2414C2.24876 78.3414 1.74876 78.4414 1.14876 78.5414Z" fill="black"/>
</svg>
