<svg width="65" height="65" viewBox="0 0 65 65" fill="none" xmlns="http://www.w3.org/2000/svg">
<g clip-path="url(#clip0_4527_617)">
<path d="M62.8212 39.7847H61.5913V39.3966C61.5913 37.5515 60.0902 36.0503 58.2451 36.0503H58.0516L61.6616 25.8846C61.7161 25.8874 61.7709 25.8888 61.826 25.8888C63.5762 25.8888 65.0001 24.4649 65.0001 22.7147C65.0001 20.9646 63.5762 19.5406 61.826 19.5406C61.2295 19.5406 60.6709 19.7063 60.1937 19.9937L55.0141 15.2971C55.7756 14.8342 56.3277 14.1135 56.5758 13.252C56.8376 12.3427 56.7295 11.3858 56.2716 10.5576L55.778 9.66509C54.8326 7.95554 52.6725 7.33397 50.9633 8.27927L48.6027 9.5846C46.5818 8.37436 44.0411 8.14076 41.7268 9.14217C40.8954 9.50195 40.5476 10.5027 40.989 11.3009L46.792 21.7953C47.232 22.5907 48.2635 22.8327 49.0127 22.3179C50.9248 21.0045 52.055 18.9733 52.2622 16.8228L53.2558 16.2734L58.9297 21.4183C58.7517 21.8144 58.6518 22.253 58.6518 22.7146C58.6518 23.7307 59.1324 24.6363 59.8776 25.2176L56.0308 36.0503H52.4904C50.6453 36.0503 49.1442 37.5515 49.1442 39.3966V39.7847H44.5826V36.487C44.5826 35.4834 43.9048 34.6069 42.9347 34.3557C42.7798 34.3156 42.608 34.2728 42.4223 34.2287C40.9379 29.7396 37.1893 26.4303 32.5129 25.5303C31.2146 25.2796 30.9202 25.2466 30.5002 24.9866C30.4971 24.9845 30.4935 24.9834 30.4903 24.9815C29.2188 24.1874 29.4903 22.8159 29.4553 22.6407C29.6967 22.4663 29.9336 22.2793 30.1644 22.0764C31.5364 20.8705 32.4193 19.1608 32.6588 17.2893C33.7099 17.0969 34.5074 16.1662 34.5027 15.0554L34.4966 12.2619C34.4956 12.0288 34.4575 11.799 34.3869 11.5792C34.4619 11.3547 34.5027 11.1164 34.5027 10.871V5.94473C34.5027 4.49353 33.3221 3.29356 31.8711 3.26995C31.8339 3.26932 31.8043 3.23974 31.8037 3.20241C31.7808 1.73382 30.5671 0.539062 29.0983 0.539062H21.3197C17.6806 0.539062 14.72 3.49974 14.72 7.13885V10.871C14.72 10.9787 14.7287 11.0849 14.7437 11.1893C14.3764 11.6736 14.1732 12.2667 14.1737 12.8886L14.175 14.577C14.176 15.9921 15.2268 17.166 16.5888 17.3607C16.8446 19.229 17.7414 20.9299 19.1226 22.1235C19.3331 22.3054 19.5482 22.4749 19.7674 22.6335C19.7318 22.8117 20.0057 24.1869 18.7319 24.9817C18.7289 24.9835 18.7256 24.9846 18.7225 24.9866C17.9579 25.4596 16.9229 25.327 14.9708 25.9906C14.473 26.1599 14.2066 26.7007 14.3758 27.1986C14.545 27.6965 15.086 27.9631 15.5837 27.7936C17.0012 27.312 18.2754 27.2513 19.0805 26.9306C22.4115 29.5957 26.8171 29.5906 30.1417 26.9306C30.5614 27.0978 30.8429 27.1473 32.1521 27.4003C35.7777 28.0979 38.7505 30.4909 40.2162 33.7941C38.6996 33.5536 36.8332 33.3755 34.8306 33.4529C30.7648 33.6102 27.3515 34.7541 24.6678 36.8515C21.984 34.7542 18.5706 33.6104 14.5049 33.4529C12.449 33.3735 10.5366 33.5631 8.9992 33.8132C9.68183 32.2739 10.7049 30.9085 12.0122 29.8089C12.4145 29.4703 12.4663 28.8697 12.1277 28.4674C11.7892 28.0648 11.1886 28.0134 10.7862 28.3517C8.91922 29.9226 7.5466 31.956 6.79009 34.2586C6.65158 34.2922 6.52107 34.3248 6.40123 34.3559C5.4308 34.6072 4.75312 35.4837 4.75312 36.4872V39.7851H2.15414C0.966367 39.7847 0 40.7511 0 41.9389V44.6546C0 45.8424 0.966367 46.8089 2.15414 46.8089H4.36211V62.4028C4.36211 63.5399 5.28722 64.465 6.42434 64.465H58.5755C59.7127 64.465 60.6378 63.5399 60.6378 62.4028V53.227C60.6378 52.7011 60.2116 52.2749 59.6856 52.2749C59.1596 52.2749 58.7335 52.7011 58.7335 53.227V62.4027C58.7335 62.4898 58.6625 62.5606 58.5755 62.5606H56.5208V46.8088H58.7336V48.7739C58.7336 49.2999 59.1598 49.726 59.6857 49.726C60.2117 49.726 60.6379 49.2999 60.6379 48.7739V46.8088H62.8212C64.009 46.8088 64.9755 45.8424 64.9755 44.6545V41.9387C64.9755 40.7511 64.009 39.7847 62.8212 39.7847ZM61.8259 21.4449C62.5261 21.4449 63.0957 22.0146 63.0957 22.7147C63.0957 23.4149 62.5261 23.9845 61.8259 23.9845C61.1258 23.9845 60.5561 23.4149 60.5561 22.7147C60.5561 22.0146 61.1258 21.4449 61.8259 21.4449ZM50.3845 16.3294C50.319 17.925 49.577 19.4617 48.257 20.5098L42.8566 10.7433C44.604 10.1267 46.4802 10.4156 47.932 11.4182C47.9775 11.4575 48.0261 11.4922 48.0774 11.5218C48.7165 11.9938 49.2667 12.6077 49.6763 13.3485C50.1644 14.2313 50.3943 15.1874 50.3891 16.1294C50.3807 16.1954 50.3789 16.2623 50.3845 16.3294ZM54.7456 12.7253C54.6246 13.1458 54.347 13.4941 53.9641 13.7059L52.1643 14.7011C52.0171 13.9241 51.7462 13.1568 51.3428 12.4272C51.0237 11.8502 50.6398 11.3317 50.2069 10.8736L51.8847 9.94578C52.6749 9.50855 53.6743 9.79585 54.1114 10.5868L54.6049 11.4791C54.8167 11.8621 54.8667 12.3047 54.7456 12.7253ZM16.6243 7.13872C16.6243 4.54951 18.7307 2.44323 21.3197 2.44323H29.0983C29.5334 2.44323 29.8928 2.79705 29.8996 3.23212C29.9164 4.3036 30.7689 5.1566 31.8401 5.17399C32.2583 5.18085 32.5985 5.52654 32.5985 5.94473V10.8711C32.5985 11.014 32.5079 11.1416 32.3728 11.1885C32.0313 11.3081 31.6516 11.1531 31.4898 10.8287C31.1024 10.0515 30.2383 9.65201 29.388 9.85755C28.034 10.1843 25.3764 10.3006 22.7848 7.40354C21.1597 5.58748 18.0901 6.59777 17.97 9.06066C17.963 9.20374 17.967 9.08415 17.9688 11.5781L16.8501 11.1887C16.7152 11.1417 16.6245 11.0141 16.6245 10.8711V7.13872H16.6243ZM20.7049 25.765C21.2083 25.1719 21.5326 24.4456 21.6357 23.6614C23.5723 24.4239 25.6651 24.4208 27.5877 23.6676C27.6917 24.4494 28.0154 25.1736 28.5175 25.765C26.1228 27.4223 23.1282 27.442 20.7049 25.765ZM28.9071 20.646C26.3512 22.8927 22.8941 22.8657 20.3677 20.6825C19.1725 19.6496 18.4625 18.0931 18.4198 16.4124C18.4067 15.8962 17.9843 15.4844 17.4679 15.4844C17.4677 15.4844 17.4676 15.4844 17.4674 15.4844L16.9894 15.4846C16.9892 15.4846 16.9891 15.4846 16.9889 15.4846C16.4875 15.4846 16.0795 15.0768 16.0791 14.5754L16.0779 12.9294C16.2292 12.9943 16.1712 12.9659 17.6147 13.471C18.7097 13.8525 19.875 13.0413 19.8731 11.8635C19.8704 9.06968 19.8687 9.21694 19.8717 9.15321C19.9082 8.40736 20.863 8.11156 21.3652 8.67282C22.5385 9.98438 24.8132 11.9378 27.9533 11.9375C28.5405 11.9375 29.1582 11.8692 29.8044 11.7155C30.3375 12.7438 31.4803 13.2876 32.5939 13.0903L32.5983 15.0614C32.599 15.259 32.446 15.4205 32.257 15.4213L31.7674 15.4234C31.2494 15.4257 30.8283 15.8415 30.8194 16.3593C30.7908 18.0407 30.0937 19.603 28.9071 20.646ZM51.0484 39.3967C51.0484 38.6015 51.6953 37.9547 52.4903 37.9547H58.2448C59.0399 37.9547 59.6868 38.6016 59.6868 39.3967V39.7848H51.0482V39.3967H51.0484ZM25.62 38.5262C31.3814 33.8203 39.9349 35.546 42.4572 36.1992C42.5873 36.2329 42.6783 36.3511 42.6783 36.487V39.7848H25.62V38.5262ZM6.65755 36.487C6.65755 36.3513 6.74845 36.2329 6.87883 36.1992C9.40063 35.5459 17.9542 33.8196 23.7159 38.5251V39.7847H6.65755V36.487ZM8.4792 62.5607H6.42434C6.33725 62.5607 6.26641 62.4898 6.26641 62.4028V46.8088H8.4792V62.5607ZM54.6165 62.5607H10.3835V46.8088H54.6165V62.5607ZM63.0712 44.6546C63.0712 44.7925 62.9591 44.9046 62.8212 44.9046H2.15414C2.0164 44.9046 1.9043 44.7925 1.9043 44.6546V41.9389C1.9043 41.8011 2.0164 41.689 2.15414 41.689H62.8212C62.9591 41.689 63.0712 41.8011 63.0712 41.9389V44.6546Z" fill="#006BFF"/>
</g>
<defs>
<clipPath id="clip0_4527_617">
<rect width="65" height="65" fill="white"/>
</clipPath>
</defs>
</svg>
