<svg width="54" height="96" viewBox="0 0 54 96" fill="none" xmlns="http://www.w3.org/2000/svg">
<path opacity="0.1" d="M40.7128 83.1647C45.1052 83.0809 48.1975 78.5778 53.107 81.1364C52.2331 81.9886 51.7098 82.6019 51.1441 82.9018C44.3182 86.6976 37.3755 90.573 30.47 94.2519C29.3386 94.8517 27.5007 95.4196 26.5741 94.9387C24.819 93.9955 25.5656 92.2031 26.2565 90.7056C28.3848 85.9181 30.4336 81.0137 32.5805 76.128C35.1693 78.0433 35.1693 78.0433 32.8434 86.5592C46.1424 77.0689 47.7059 59.1467 35.9258 48.2637C34.8792 49.4903 33.9308 50.7355 32.8842 51.9621C29.7816 55.4455 26.0977 57.6991 21.3175 58.2184C17.889 58.5866 14.899 57.7148 12.9267 54.6949C10.973 51.5767 11.7465 48.5681 13.6195 45.6661C17.5567 39.3892 24.1829 37.1841 31.0947 39.9185C31.9418 40.2826 32.8261 40.4501 34.0847 40.7903C36.5036 31.7832 36.3359 22.9984 32.174 14.8819C25.8092 2.27677 13.5349 2.59759 4.65613 7.02219C3.54331 7.52381 2.57115 8.35742 0.855374 9.35548C1.72718 6.36551 3.59704 5.0913 5.44829 3.91535C12.6382 -0.727441 23.117 -0.167075 29.8396 5.17771C34.0717 8.62576 37.0183 12.9498 38.4643 18.2109C40.5629 25.9366 40.8185 33.7202 38.4451 41.4129C38.1979 42.1803 38.049 42.9663 37.7646 43.9302C42.8593 49.2719 47.1359 55.1711 47.7845 63.0292C48.2739 70.6535 44.1774 76.6966 40.7128 83.1647ZM32.3256 45.2407C26.1418 40.8122 19.5238 41.8993 16.5029 47.6373C15.7324 49.018 15.538 51.1185 16.0821 52.5447C16.8278 54.518 19.0266 54.731 21.0423 54.2987C26.3086 53.3626 29.767 50.1502 32.3256 45.2407Z" fill="black"/>
</svg>
