<svg width="65" height="66" viewBox="0 0 65 66" fill="none" xmlns="http://www.w3.org/2000/svg">
<g clip-path="url(#clip0_4382_445)">
<path d="M50.3475 45.9687C56.1971 40.2319 59.4186 32.5633 59.4186 24.3755C59.4186 16.2989 56.2734 8.70593 50.5626 2.9952C50.5626 2.9952 50.5626 2.9952 50.5624 2.9952C50.0149 2.44752 49.4379 1.91305 48.8472 1.4065C47.7999 0.508565 46.2119 0.573184 45.2314 1.55364C44.134 2.65115 44.205 4.4544 45.3877 5.47154C45.6147 5.6668 45.8395 5.86802 46.0614 6.07317L44.942 7.19265C41.1057 3.67414 36.1964 1.54349 31.0428 1.1333C25.5906 0.699503 20.1441 2.19425 15.7076 5.34294C15.2787 5.64737 15.1778 6.24177 15.4822 6.67062C15.7866 7.09946 16.3809 7.20052 16.8099 6.89596C20.8826 4.00549 25.8838 2.633 30.8918 3.03176C31.1007 3.04839 31.3087 3.06921 31.5164 3.09193C29.1133 3.7008 26.825 4.38279 26.1237 6.88733C25.6865 8.44872 25.1901 8.77347 24.8547 8.88201C24.3003 9.06089 23.4356 8.86805 22.4341 8.64448C22.1343 8.57758 21.8243 8.50839 21.4969 8.44288C20.0127 8.14657 18.7395 9.10913 17.3909 10.1287C15.6671 11.4319 14.0271 12.6704 11.7817 11.8938C12.3171 11.1502 12.9021 10.4358 13.5372 9.75697C13.8965 9.37294 13.8765 8.77042 13.4924 8.41114C13.1082 8.05174 12.5058 8.07192 12.1464 8.45596C8.00318 12.8845 5.77389 18.6687 5.86898 24.7429C5.95899 30.4874 8.12481 35.9171 11.9997 40.1351L10.8798 41.2549C10.675 41.0333 10.4741 40.8086 10.2788 40.5817C9.26243 39.4 7.45957 39.3255 6.36028 40.425C5.37982 41.4055 5.31521 42.9936 6.21315 44.0407C11.4959 50.1994 19.1285 54.1807 27.765 54.5774L27.2669 56.4517H24.5588C22.8622 56.4517 21.4819 57.832 21.4819 59.5286V59.9526C19.4216 60.0158 17.7647 61.7104 17.7647 63.7858C17.7647 64.8819 18.6565 65.7736 19.7526 65.7736H45.2423C46.3385 65.7736 47.2302 64.8819 47.2302 63.7858C47.2302 61.7104 45.5733 60.0158 43.513 59.9526V59.5286C43.513 57.832 42.1328 56.4517 40.4362 56.4517H37.7279L36.9675 53.5906C38.1615 53.2712 39.34 52.8783 40.4993 52.4104C44.1976 50.9178 47.511 48.7506 50.3475 45.9687ZM43.7664 8.70034C47.7403 12.3975 50.1172 17.4166 50.5291 22.7021C50.9203 27.7252 49.5313 32.7352 46.6183 36.8095C46.3124 37.2374 46.4112 37.832 46.8389 38.138C47.0067 38.258 47.2002 38.3157 47.392 38.3157C47.6889 38.3157 47.9815 38.1772 48.1673 37.9173C51.3408 33.4792 52.8537 28.0232 52.4278 22.5545C52.0202 17.3233 49.8495 12.3803 46.2915 8.53695L47.4097 7.41862C51.7285 12.0673 54.1504 18.3026 54.0783 24.6655C54.0053 31.119 51.4745 37.2094 46.9521 41.8149C37.6754 51.2626 22.2589 51.9558 12.2246 42.6036L13.3437 41.4846C22.179 49.6759 36.0601 49.8704 45.1014 41.4121C45.4855 41.0528 45.5055 40.4503 45.1462 40.0663C44.7871 39.6822 44.1844 39.6619 43.8004 40.0213C41.2991 42.3615 38.3263 44.0351 35.1103 44.9574C35.2452 44.4968 35.1732 43.3414 36.2296 42.4246C36.4649 42.1445 37.9064 41.3799 37.8601 39.5493L37.8045 37.3594C37.7202 34.0346 35.2563 31.5396 33.1756 30.8224C32.0169 30.2908 30.1856 30.2593 29.2928 28.3931C28.8396 27.4455 28.839 26.3584 29.2911 25.4103C30.7027 22.4508 33.807 19.5465 37.1947 19.5937C38.4702 19.613 39.685 20.2368 40.4442 21.2622C42.4362 23.9526 46.6204 25.1413 47.6863 21.862C48.2434 20.1482 47.2896 19.0242 46.1214 17.6755C45.2086 16.6217 43.9492 15.9034 42.5749 15.6528C42.5644 15.6509 42.5539 15.6491 42.5433 15.6476C37.775 14.9455 37.9116 15.0479 37.7665 14.7367C37.5949 14.3685 37.9537 14.018 38.3271 13.8593L39.692 13.2793C40.2267 13.052 40.6117 12.5758 40.7221 12.0053C40.8322 11.4349 40.6525 10.8494 40.241 10.4392C40.124 10.3224 40.1307 10.1359 40.2432 10.0234L40.8392 9.4274C41.1217 9.14493 41.4642 9.40938 41.7323 9.46282C42.4824 9.70746 43.3347 9.42042 43.7664 8.70034ZM10.7163 13.5247C13.7846 14.8272 16.0773 13.5092 18.5394 11.6478C19.537 10.8936 20.479 10.1809 21.1235 10.3102C21.4301 10.3716 21.7295 10.4383 22.0192 10.5031C24.2559 11.0026 26.7907 11.5683 27.9577 7.40072C28.3616 5.9579 29.8871 5.46672 31.8394 4.97452C32.5718 4.78981 33.2637 4.61537 33.7973 4.33912C34.1838 4.13904 34.443 3.90469 34.6168 3.66411C37.3596 4.38432 39.9389 5.64522 42.1972 7.37368L42.1512 7.59661L41.8806 7.50851C41.0356 7.2334 40.1208 7.45277 39.4924 8.08107L38.8963 8.67711C38.0832 9.49037 38.0477 10.763 38.7398 11.6148C37.9262 12.0195 37.0475 12.1381 36.3154 13.0835C35.7681 13.7899 35.6627 14.7318 36.0403 15.5415C36.4097 16.3339 37.1732 16.8534 38.0423 16.9081L42.2483 17.529C43.1915 17.7045 44.0553 18.199 44.6818 18.9224C45.7799 20.1899 46.091 20.6094 45.8751 21.2731C45.7668 21.6065 45.5241 21.8589 45.2051 21.9721C44.1161 22.0154 42.7137 21.1274 41.9746 20.129C40.8645 18.6297 39.0883 17.7177 37.2232 17.6895C33.1205 17.6264 29.3426 20.8781 27.572 24.5906C26.871 26.0603 26.872 27.7457 27.5747 29.2148C28.8885 31.9613 31.576 32.1471 32.5546 32.6228C34.0269 33.1303 35.8396 34.998 35.9004 37.4076L35.956 39.5977C35.9757 40.3616 35.3236 40.6202 34.9811 40.9863C33.7182 42.0824 33.2718 43.566 33.104 45.4289C25.5772 46.818 17.9632 44.1515 12.9522 38.3425C14.7076 37.7901 15.6781 37.4649 16.0029 34.5262C16.0238 34.3361 16.0438 34.1556 16.0684 34.0102C16.1503 33.9427 16.3646 33.8355 16.5111 33.7623C17.1433 33.446 18.0989 32.9682 18.3937 31.68C18.9085 29.431 16.2091 28.1574 15.3294 27.2778C14.3347 26.2831 14.427 25.6509 14.6485 25.1636C15.5172 23.2525 13.4675 23.1063 12.6363 20.0022C12.1598 18.2225 10.754 16.9685 9.35968 16.2579C9.74485 15.3173 10.198 14.4041 10.7163 13.5247ZM11.7155 36.7664C9.22168 33.2631 7.84183 29.0904 7.77327 24.7131C7.73747 22.4322 8.05904 20.1961 8.7112 18.0714C9.61346 18.5816 10.5047 19.4046 10.7967 20.4949C11.4599 22.9719 12.5948 23.8928 12.9215 24.3604C12.9194 24.3651 12.9172 24.3702 12.9147 24.3756C12.2551 25.8267 12.6145 27.2562 13.9827 28.6244C14.8122 29.4539 16.7155 30.4762 16.5371 31.255C16.4509 31.6314 16.2278 31.7745 15.6591 32.0588C14.2963 32.7403 14.2319 33.2119 14.1099 34.3169C13.9971 35.3375 13.8768 36.0232 13.2559 36.2455C12.7265 36.435 12.1926 36.5578 11.7155 36.7664ZM43.394 61.8537C44.4592 61.8537 45.3259 62.7203 45.3259 63.7856C45.3259 63.8315 45.2884 63.869 45.2425 63.869H19.7526C19.7066 63.869 19.6692 63.8315 19.6692 63.7856C19.6692 62.7203 20.5357 61.8537 21.601 61.8537H43.394ZM36.9923 58.3559C36.9933 58.3559 36.9943 58.3562 36.9952 58.3562C36.9965 58.3562 36.9978 58.3559 36.999 58.3559H40.4363C41.0827 58.3559 41.6087 58.8819 41.6087 59.5283V59.9493H23.3865V59.5283C23.3865 58.8817 23.9124 58.3559 24.5589 58.3559H27.996C27.9973 58.3559 27.9986 58.3562 27.9998 58.3562C28.0008 58.3562 28.0019 58.3559 28.0027 58.3559H36.9923ZM29.2376 56.4515L29.7282 54.6052C31.5459 54.5726 33.344 54.378 35.1124 54.0234L35.7576 56.4515H29.2376ZM7.65889 42.8006C7.40498 42.5044 7.42606 42.0523 7.707 41.7715C8.02197 41.4564 8.53867 41.4788 8.83511 41.8234C19.3318 54.0268 37.559 54.0988 48.3109 43.1491C53.1793 38.191 55.9039 31.6344 55.9825 24.6868C56.0694 17.0046 52.7863 9.32267 46.6294 4.02771C46.2863 3.73241 46.2618 3.21673 46.5784 2.90024C46.8592 2.61929 47.3113 2.59809 47.6075 2.85212C53.9273 8.27238 57.5143 16.0366 57.5143 24.3756C57.5143 32.0478 54.4956 39.2335 49.0142 44.6092C37.496 55.9048 18.5164 55.4591 7.65889 42.8006Z" fill="#00BFAD"/>
</g>
<defs>
<clipPath id="clip0_4382_445">
<rect width="65" height="65" fill="white" transform="translate(0 0.773438)"/>
</clipPath>
</defs>
</svg>
