<svg width="25" height="25" viewBox="0 0 25 25" fill="none" xmlns="http://www.w3.org/2000/svg">
<path d="M24.9929 12.4961C24.9928 10.1076 24.3083 7.7692 23.0203 5.75774C21.7323 3.74628 19.8948 2.14607 17.7255 1.14663C15.5561 0.147187 13.1458 -0.209623 10.78 0.118456C8.4141 0.446535 6.19182 1.44576 4.37631 2.99779C2.56079 4.54982 1.22809 6.58965 0.536043 8.87568C-0.156007 11.1617 -0.178418 13.5982 0.471463 15.8966C1.12135 18.195 2.41629 20.259 4.20295 21.8441C4.80783 22.3808 5.46048 22.8549 6.15079 23.2618C8.27892 24.5163 10.5525 22.607 10.5525 20.1367V17.7048C10.5525 16.8271 9.84097 16.1155 8.96319 16.1155C8.08541 16.1155 7.37382 15.4039 7.37382 14.5261V14.0827C7.37382 13.2065 8.08416 12.4961 8.96041 12.4961C9.83665 12.4961 10.547 11.7858 10.547 10.9096V9.74137C10.547 6.61078 12.4131 4.87979 15.2679 4.87979C15.7335 4.8863 16.1986 4.90975 16.6623 4.95004C17.4742 5.02059 18.0652 5.72318 18.0652 6.5382V6.62374C18.0652 7.49385 17.3599 8.19921 16.4897 8.19921C14.9365 8.19921 14.4533 9.16375 14.4533 10.1505V10.8957C14.4533 11.7796 15.1698 12.4961 16.0537 12.4961C17.0345 12.4961 17.7845 13.3703 17.6355 14.3398L17.5681 14.7781C17.4504 15.5432 16.7921 16.1081 16.0179 16.1081C15.1518 16.1081 14.4496 16.8102 14.4496 17.6764V20.1305C14.4496 22.6032 16.7268 24.5131 18.8552 23.2545C20.0322 22.5585 21.096 21.6689 21.9979 20.6129C23.9306 18.3501 24.9925 15.472 24.9929 12.4961Z" fill="#4676ED"/>
<path d="M16.0188 16.1185C16.791 16.1185 17.4477 15.5551 17.565 14.7919L17.633 14.3502C17.782 13.3808 17.032 12.5066 16.0512 12.5066C15.1673 12.5066 14.4508 11.79 14.4508 10.9062V10.1535C14.4508 9.16678 14.934 8.20224 16.4872 8.20224C17.3573 8.20224 18.0627 7.49687 18.0627 6.62676V6.54123C18.0627 5.7262 17.4717 5.02362 16.6597 4.95306C16.1961 4.91277 15.731 4.88933 15.2653 4.88281C12.4106 4.88281 10.5445 6.6138 10.5445 9.74439V10.9144C10.5445 11.7897 9.83496 12.4992 8.95973 12.4992C8.08451 12.4992 7.375 13.2087 7.375 14.0839V14.5319C7.375 15.4082 8.08534 16.1185 8.96158 16.1185C9.83783 16.1185 10.5482 16.8288 10.5482 17.7051V22.8902C10.5482 24.0191 11.3725 25.003 12.5013 25.003C13.6302 25.003 14.4545 24.0191 14.4545 22.8902V17.6829C14.4545 16.8189 15.1549 16.1185 16.0188 16.1185Z" fill="white"/>
</svg>
