<svg width="25" height="25" viewBox="0 0 25 25" fill="none" xmlns="http://www.w3.org/2000/svg">
<path d="M12.5 25C19.4036 25 25 19.4036 25 12.5C25 5.59644 19.4036 0 12.5 0C5.59644 0 0 5.59644 0 12.5C0 19.4036 5.59644 25 12.5 25Z" fill="#4467AD"/>
<path d="M13.4552 9.90921C13.4587 10.2189 13.8195 10.3406 14.0471 10.1307C14.3519 9.83358 14.7126 9.60005 15.1084 9.44364C15.5042 9.28722 15.9272 9.21105 16.3527 9.21954C16.843 9.21109 17.3322 9.27029 17.8064 9.39547C18.8916 9.71029 19.5212 10.4566 19.823 11.5158C20.0231 12.3096 20.1134 13.1271 20.0916 13.9455C20.0916 15.6732 20.0916 17.3992 20.0916 19.1307C20.0916 19.2918 20.0471 19.3344 19.8879 19.3325C18.9965 19.3251 18.107 19.3251 17.2193 19.3325C17.0619 19.3325 17.0341 19.2862 17.0341 19.1473C17.0341 17.5041 17.0341 15.8609 17.0341 14.2177C17.0434 13.8049 16.9948 13.3929 16.8897 12.9936C16.6767 12.2529 16.149 11.8825 15.3767 11.9214C14.323 11.9769 13.773 12.501 13.6397 13.5732C13.607 13.8287 13.5909 14.0861 13.5916 14.3436C13.5916 15.9418 13.5916 17.5399 13.5916 19.1381C13.5916 19.2973 13.5508 19.3436 13.3878 19.3418C12.4934 19.3418 11.5971 19.3418 10.7008 19.3418C10.5564 19.3418 10.5156 19.3047 10.5156 19.1566C10.5156 15.9936 10.5156 12.83 10.5156 9.66584C10.5156 9.50843 10.5656 9.48065 10.7138 9.48065C11.5656 9.48806 12.4169 9.48806 13.2675 9.48065C13.423 9.48065 13.4638 9.53066 13.4527 9.6788C13.4535 9.75483 13.4543 9.83168 13.4552 9.90921Z" fill="white"/>
<path d="M8.58374 14.4101C8.58374 15.9749 8.58374 17.5397 8.58374 19.1045C8.58374 19.2786 8.54114 19.3323 8.36151 19.3305C7.47077 19.3194 6.58189 19.3305 5.693 19.3305C5.55041 19.3305 5.50781 19.2953 5.50781 19.1453C5.50781 15.9749 5.50781 12.8058 5.50781 9.63788C5.50781 9.5064 5.54114 9.45269 5.68003 9.46195C6.58189 9.46195 7.48373 9.46195 8.38559 9.46195C8.55966 9.46195 8.58188 9.52677 8.58188 9.67677C8.58065 11.2545 8.58127 12.8323 8.58374 14.4101Z" fill="white"/>
<path d="M8.83308 6.32135C8.83492 6.67315 8.73222 7.01756 8.53803 7.3109C8.34385 7.60425 8.06691 7.83331 7.74235 7.96904C7.41779 8.10477 7.06024 8.14104 6.71504 8.07327C6.36983 8.00549 6.05252 7.83672 5.80338 7.58835C5.55423 7.33999 5.38446 7.02322 5.3156 6.67823C5.24674 6.33324 5.2819 5.97557 5.41661 5.65058C5.55131 5.3256 5.77951 5.04794 6.07225 4.85284C6.36498 4.65773 6.70906 4.55396 7.06086 4.55469C7.52918 4.55711 7.9777 4.74384 8.30938 5.07447C8.64105 5.40511 8.82919 5.85305 8.83308 6.32135Z" fill="white"/>
</svg>
