<svg width="65" height="66" viewBox="0 0 65 66" fill="none" xmlns="http://www.w3.org/2000/svg">
<g clip-path="url(#clip0_4351_704)">
<path d="M44.036 0.859375H6.52539C2.92729 0.859375 0 3.78679 0 7.38489V59.1679C0 62.766 2.92729 65.6933 6.52539 65.6933H44.0361C47.6342 65.6933 50.5614 62.7659 50.5614 59.1679V7.38489C50.5615 3.78679 47.6341 0.859375 44.036 0.859375ZM48.6572 59.1678C48.6572 61.7159 46.5842 63.7889 44.0362 63.7889H6.52539C3.97731 63.7889 1.9043 61.7159 1.9043 59.1678V7.38489C1.9043 4.83682 3.97731 2.7638 6.52539 2.7638H44.036C46.5841 2.7638 48.6571 4.83682 48.6571 7.38489V59.1678H48.6572Z" fill="#FEC961"/>
<path d="M42.9407 7.51562H7.62121C6.28249 7.51562 5.19336 8.60476 5.19336 9.9436V21.6241C5.19336 22.9628 6.28249 24.0519 7.62121 24.0519H42.9407C44.2794 24.0519 45.3686 22.9628 45.3686 21.6241V9.9436C45.3686 8.60476 44.2794 7.51562 42.9407 7.51562ZM43.4643 21.6241C43.4643 21.9127 43.2294 22.1476 42.9407 22.1476H7.62121C7.33252 22.1476 7.09766 21.9127 7.09766 21.6241V9.9436C7.09766 9.65491 7.33252 9.41992 7.62121 9.41992H42.9407C43.2294 9.41992 43.4643 9.65491 43.4643 9.9436V21.6241Z" fill="#FEC961"/>
<path d="M11.131 28.1562H7.44068C6.20149 28.1562 5.19336 29.1644 5.19336 30.4036V34.0938C5.19336 35.333 6.20149 36.3412 7.44068 36.3412H11.131C12.3701 36.3412 13.3784 35.333 13.3784 34.0938V30.4036C13.3784 29.1645 12.3701 28.1562 11.131 28.1562ZM11.4741 34.094C11.4741 34.2831 11.3202 34.437 11.131 34.437H7.44068C7.25152 34.437 7.09766 34.2831 7.09766 34.094V30.4037C7.09766 30.2145 7.25152 30.0607 7.44068 30.0607H11.131C11.3201 30.0607 11.4741 30.2145 11.4741 30.4037V34.094Z" fill="#FEC961"/>
<path d="M21.7932 28.1562H18.1028C16.8636 28.1562 15.8555 29.1644 15.8555 30.4036V34.0938C15.8555 35.333 16.8636 36.3412 18.1028 36.3412H21.7932C23.0324 36.3412 24.0405 35.333 24.0405 34.0938V30.4036C24.0406 29.1645 23.0325 28.1562 21.7932 28.1562ZM22.1363 34.094C22.1363 34.2831 21.9825 34.437 21.7933 34.437H18.1029C17.9138 34.437 17.7599 34.2831 17.7599 34.094V30.4037C17.7599 30.2145 17.9138 30.0607 18.1029 30.0607H21.7933C21.9825 30.0607 22.1363 30.2145 22.1363 30.4037V34.094Z" fill="#FEC961"/>
<path d="M28.767 36.3412H32.4573C33.6964 36.3412 34.7046 35.333 34.7046 34.0938V30.4036C34.7046 29.1644 33.6964 28.1562 32.4573 28.1562H28.767C27.5278 28.1562 26.5195 29.1644 26.5195 30.4036V34.0938C26.5195 35.333 27.5277 36.3412 28.767 36.3412ZM28.4238 30.4034C28.4238 30.2143 28.5777 30.0604 28.767 30.0604H32.4573C32.6464 30.0604 32.8003 30.2143 32.8003 30.4034V34.0937C32.8003 34.2829 32.6464 34.4367 32.4573 34.4367H28.767C28.5778 34.4367 28.4238 34.2829 28.4238 34.0937V30.4034Z" fill="#FEC961"/>
<path d="M43.1213 28.1562H39.431C38.1917 28.1562 37.1836 29.1644 37.1836 30.4036V34.0938C37.1836 35.333 38.1917 36.3412 39.431 36.3412H43.1213C44.3605 36.3412 45.3686 35.333 45.3686 34.0938V30.4036C45.3686 29.1645 44.3605 28.1562 43.1213 28.1562ZM43.4643 34.094C43.4643 34.2831 43.3105 34.437 43.1213 34.437H39.431C39.2419 34.437 39.0879 34.2831 39.0879 34.094V30.4037C39.0879 30.2145 39.2419 30.0607 39.431 30.0607H43.1213C43.3105 30.0607 43.4643 30.2145 43.4643 30.4037V34.094Z" fill="#FEC961"/>
<path d="M11.131 39.5039H7.44068C6.20149 39.5039 5.19336 40.512 5.19336 41.7512V45.4415C5.19336 46.6807 6.20149 47.6888 7.44068 47.6888H11.131C12.3701 47.6888 13.3784 46.6807 13.3784 45.4415V41.7512C13.3784 40.512 12.3701 39.5039 11.131 39.5039ZM11.4741 45.4415C11.4741 45.6307 11.3202 45.7845 11.131 45.7845H7.44068C7.25152 45.7845 7.09766 45.6307 7.09766 45.4415V41.7512C7.09766 41.5621 7.25152 41.4082 7.44068 41.4082H11.131C11.3201 41.4082 11.4741 41.5621 11.4741 41.7512V45.4415Z" fill="#FEC961"/>
<path d="M21.7932 39.5039H18.1028C16.8636 39.5039 15.8555 40.512 15.8555 41.7512V45.4415C15.8555 46.6807 16.8636 47.6888 18.1028 47.6888H21.7932C23.0324 47.6888 24.0405 46.6807 24.0405 45.4415V41.7512C24.0406 40.512 23.0325 39.5039 21.7932 39.5039ZM22.1363 45.4415C22.1363 45.6307 21.9825 45.7845 21.7933 45.7845H18.1029C17.9138 45.7845 17.7599 45.6307 17.7599 45.4415V41.7512C17.7599 41.5621 17.9138 41.4082 18.1029 41.4082H21.7933C21.9825 41.4082 22.1363 41.5621 22.1363 41.7512V45.4415Z" fill="#FEC961"/>
<path d="M26.5195 45.4415C26.5195 46.6807 27.5277 47.6888 28.767 47.6888H32.4573C33.6964 47.6888 34.7046 46.6807 34.7046 45.4415V41.7512C34.7046 40.512 33.6964 39.5039 32.4573 39.5039H28.767C27.5278 39.5039 26.5195 40.512 26.5195 41.7512V45.4415ZM28.4238 41.7512C28.4238 41.5621 28.5777 41.4082 28.767 41.4082H32.4573C32.6464 41.4082 32.8003 41.5621 32.8003 41.7512V45.4415C32.8003 45.6307 32.6464 45.7845 32.4573 45.7845H28.767C28.5778 45.7845 28.4238 45.6307 28.4238 45.4415V41.7512Z" fill="#FEC961"/>
<path d="M43.1213 39.5039H39.431C38.1917 39.5039 37.1836 40.512 37.1836 41.7512V45.4415C37.1836 46.6807 38.1917 47.6888 39.431 47.6888H43.1213C44.3605 47.6888 45.3686 46.6807 45.3686 45.4415V41.7512C45.3686 40.512 44.3605 39.5039 43.1213 39.5039ZM43.4643 45.4415C43.4643 45.6307 43.3105 45.7845 43.1213 45.7845H39.431C39.2419 45.7845 39.0879 45.6307 39.0879 45.4415V41.7512C39.0879 41.5621 39.2419 41.4082 39.431 41.4082H43.1213C43.3105 41.4082 43.4643 41.5621 43.4643 41.7512V45.4415Z" fill="#FEC961"/>
<path d="M11.131 50.8516H7.44068C6.20149 50.8516 5.19336 51.8597 5.19336 53.0989V56.7892C5.19336 58.0285 6.20149 59.0366 7.44068 59.0366H11.131C12.3701 59.0366 13.3784 58.0285 13.3784 56.7892V53.0989C13.3784 51.8597 12.3701 50.8516 11.131 50.8516ZM11.4741 56.7892C11.4741 56.9783 11.3202 57.1323 11.131 57.1323H7.44068C7.25152 57.1323 7.09766 56.9783 7.09766 56.7892V53.0989C7.09766 52.9097 7.25152 52.7559 7.44068 52.7559H11.131C11.3201 52.7559 11.4741 52.9097 11.4741 53.0989V56.7892Z" fill="#FEC961"/>
<path d="M21.7932 50.8516H18.1028C16.8636 50.8516 15.8555 51.8597 15.8555 53.0989V56.7892C15.8555 58.0285 16.8636 59.0366 18.1028 59.0366H21.7932C23.0324 59.0366 24.0405 58.0285 24.0405 56.7892V53.0989C24.0406 51.8597 23.0325 50.8516 21.7932 50.8516ZM22.1363 56.7892C22.1363 56.9783 21.9825 57.1323 21.7933 57.1323H18.1029C17.9138 57.1323 17.7599 56.9783 17.7599 56.7892V53.0989C17.7599 52.9097 17.9138 52.7559 18.1029 52.7559H21.7933C21.9825 52.7559 22.1363 52.9097 22.1363 53.0989V56.7892Z" fill="#FEC961"/>
<path d="M43.1207 50.8516H28.767C27.5278 50.8516 26.5195 51.8597 26.5195 53.0989V56.7892C26.5195 58.0283 27.5277 59.0365 28.767 59.0365H33.54C34.066 59.0365 34.4922 58.6103 34.4922 58.0843C34.4922 57.5584 34.066 57.1322 33.54 57.1322H28.767C28.5778 57.1322 28.4238 56.9783 28.4238 56.7892V53.0989C28.4238 52.9097 28.5777 52.7559 28.767 52.7559H43.1207C43.3098 52.7559 43.4637 52.9097 43.4637 53.0989V56.7892C43.4637 56.9783 43.3098 57.1322 43.1207 57.1322H37.9811C37.4551 57.1322 37.029 57.5584 37.029 58.0843C37.029 58.6103 37.4551 59.0365 37.9811 59.0365H43.1207C44.3599 59.0365 45.368 58.0283 45.368 56.7892V53.0989C45.368 51.8597 44.3599 50.8516 43.1207 50.8516Z" fill="#FEC961"/>
<path d="M60.0865 0.859375C57.3765 0.859375 55.1719 3.06392 55.1719 5.77386V55.2151C55.1719 55.5557 55.1951 55.9163 55.2408 56.2872V56.2876V56.2885C55.4976 58.3492 56.2107 59.1702 58.5655 64.7044C58.8363 65.3142 59.419 65.6932 60.0862 65.6932C60.7537 65.6932 61.3365 65.3142 61.6071 64.7042C64.0302 59.0095 64.6715 58.3768 64.9318 56.2885C64.9318 56.2883 64.9318 56.2879 64.9318 56.2876C64.9318 56.2875 64.9318 56.2874 64.9318 56.2872C64.9775 55.9163 65.0007 55.5556 65.0007 55.2151C65.0007 52.6757 65.0007 7.95034 65.0007 5.77386C65.001 3.06404 62.7964 0.859375 60.0865 0.859375ZM60.0865 63.4366L58.8733 60.7024H61.2998L60.0865 63.4366ZM62.1446 58.7981H58.0283C57.7392 58.1226 57.5394 57.7701 57.351 57.123H62.8218C62.6329 57.772 62.4318 58.1269 62.1446 58.7981ZM63.0967 55.2152V55.2187H61.0388V26.3309C61.0388 25.8049 60.6126 25.3787 60.0866 25.3787C59.5606 25.3787 59.1345 25.8049 59.1345 26.3309V55.2187H57.0764C57.0764 55.2175 57.0764 55.2164 57.0764 55.2152V14.5313H59.1346V21.8898C59.1346 22.4158 59.5608 22.8419 60.0867 22.8419C60.6127 22.8419 61.0389 22.4158 61.0389 21.8898V14.5313H63.0967V55.2152ZM63.0967 12.627H57.0763V10.9067H63.0967V12.627ZM63.0967 9.0024H57.0762V5.77386C57.0762 4.11407 58.4266 2.76367 60.0865 2.76367C61.7463 2.76367 63.0967 4.11407 63.0967 5.77386V9.0024Z" fill="#FEC961"/>
</g>
<defs>
<clipPath id="clip0_4351_704">
<rect width="65" height="65" fill="white" transform="translate(0 0.773438)"/>
</clipPath>
</defs>
</svg>
