<svg width="65" height="66" viewBox="0 0 65 66" fill="none" xmlns="http://www.w3.org/2000/svg">
<g clip-path="url(#clip0_4699_795)">
<path d="M54.4193 47.2939C52.2876 44.2884 49.358 42.0485 46.1516 40.8281C47.213 40.014 48.0654 38.9257 48.6044 37.6607C49.4812 35.6032 49.454 33.3512 48.5281 31.3198L48.4894 31.2357C46.7368 27.4494 47.4866 25.1241 47.2986 21.3716C47.2997 20.1197 47.1432 18.8783 46.8334 17.6733C46.9586 17.4777 47.046 17.2578 47.0858 17.025L47.8315 12.664C47.8318 12.6624 47.8319 12.6607 47.8322 12.6591L52.4246 10.9205L52.4231 12.5184C51.6024 12.615 50.9395 13.2621 50.8415 14.101L50.3061 18.681C50.1811 19.7511 51.0174 20.696 52.0984 20.6967L54.6372 20.6991H54.6388C55.7176 20.6991 56.5564 19.758 56.4333 18.6866L55.9061 14.106C55.8098 13.2665 55.148 12.6183 54.3275 12.5203L54.3304 9.30955C54.3304 9.30599 54.3299 9.30256 54.3299 9.29901C54.3261 8.76301 54.0015 8.2943 53.4995 8.10324L35.6641 1.31455C33.7738 0.595104 31.6906 0.592819 29.7984 1.30922L11.9512 8.06579C11.4455 8.25711 11.1183 8.72988 11.118 9.27045C11.1173 9.81114 11.4435 10.2847 11.9489 10.4771L17.6101 12.632C17.6103 12.6336 17.6103 12.6351 17.6106 12.6367C18.3959 17.2586 18.3372 16.9787 18.3821 17.15C17.9785 18.5088 17.7708 19.9179 17.7695 21.3448C17.5885 24.8364 18.3005 27.4677 16.5599 31.2093L16.5225 31.2903C15.5928 33.3207 15.5616 35.5727 16.4346 37.6318C16.9713 38.8976 17.8217 39.9876 18.8818 40.8036C15.7288 41.9971 12.7738 44.2043 10.6015 47.2562C8.22991 50.5884 6.97447 54.5608 6.97078 58.7442L6.96875 60.9317C6.96609 63.5746 8.9901 65.7712 11.5179 65.7735H53.4707H53.4745C55.9835 65.7733 58.026 63.6229 58.0284 60.9777L58.0305 58.7902C58.0341 54.6054 56.7854 50.63 54.4193 47.2939ZM54.0242 14.4101L54.5288 18.7947L52.2103 18.7926L52.7227 14.409C53.1615 14.4094 53.5429 14.4096 54.0242 14.4101ZM46.8526 36.9144C46.2329 38.3684 45.0709 39.5125 43.6413 40.089C43.5485 40.069 41.7584 39.6992 41.7457 39.6967C40.172 39.3715 38.9771 38.0368 38.9771 36.3762L38.9781 35.185C39.2628 34.958 39.5381 34.7162 39.801 34.4573C41.3388 32.9433 42.3442 31.0284 42.7238 28.9458L43.1815 28.9461H43.1853C44.061 28.9461 44.8947 28.6738 45.5912 28.1705C45.8091 29.522 46.2035 30.8304 46.7629 32.0385L46.7953 32.1091C47.4966 33.6482 47.517 35.3549 46.8526 36.9144ZM27.4095 47.4232L23.7249 41.5336C26.1243 41.0177 27.958 38.9516 27.9683 36.3808C30.829 37.7849 34.2097 37.7879 37.073 36.389C37.0786 38.9574 38.9061 41.0288 41.3072 41.5493L37.6119 47.4323C34.3091 48.671 30.71 48.6677 27.4095 47.4232ZM36.1362 49.8575C35.5599 50.8204 34.6412 52.3554 33.1761 54.8041C32.8498 55.354 32.157 55.3529 31.8302 54.7998C30.5203 52.6016 29.5361 50.9502 28.8809 49.851C31.2013 50.3822 33.662 50.4193 36.1362 49.8575ZM21.8868 20.689C21.8854 20.689 21.8842 20.689 21.883 20.689C21.0707 20.689 20.3131 20.9265 19.6741 21.3343C19.676 20.3604 19.7877 19.3966 20.0048 18.4563C20.1711 18.463 20.3388 18.4476 20.5027 18.406C24.8448 17.3047 29.1227 16.7876 33.4038 16.8539C31.4716 18.8007 29.1817 17.9152 26.1893 18.1315C26.1881 18.1315 26.1869 18.1315 26.1858 18.1315C24.4855 18.1315 23.0291 19.1939 22.4435 20.6895L21.8868 20.689ZM22.1672 22.5935L22.1633 27.0229L21.881 27.0227C20.6681 27.0217 19.6788 26.0467 19.6693 24.8254V24.786C19.6812 23.5749 20.6695 22.5933 21.883 22.5933H21.885L22.1672 22.5935ZM24.0719 22.1477C24.073 20.9826 25.0211 20.0357 26.1858 20.0357H26.1877C29.002 19.7804 32.0977 20.8891 34.7681 18.1828C36.1686 16.7633 38.4898 16.7222 39.9328 18.1678C41.3244 19.5616 40.9318 21.184 40.9952 21.6573V21.6581C40.9952 21.6581 40.9952 21.6587 40.9952 21.659C40.6131 25.1247 42.223 29.3996 38.4648 33.1002C35.1739 36.3405 29.88 36.3479 26.5821 33.0895C25.1609 31.6852 24.2985 29.8616 24.1083 27.8952C24.1077 27.8869 24.107 27.8785 24.1062 27.8701C24.0321 27.0793 24.0839 27.0661 24.0719 22.1477ZM42.8995 20.7079C42.894 19.6536 42.595 18.6457 42.0426 17.7758C43.8952 18.1405 44.7685 18.4024 45.0622 18.4531C45.2812 19.4011 45.3935 20.373 45.394 21.3533C44.206 20.5952 43.0135 20.7225 42.8995 20.7079ZM45.3928 24.6871L45.3926 24.9748C45.3575 25.5112 45.1338 26.011 44.75 26.3944C44.3318 26.8119 43.7761 27.0419 43.1853 27.0419C43.1845 27.0419 43.1838 27.0419 43.1832 27.0419L42.8948 27.0416L42.8988 22.6122L43.1871 22.6125C44.3603 22.6135 45.3199 23.5321 45.3928 24.6871ZM18.3704 10.8839L14.1396 9.27349L30.4726 3.09024C31.9289 2.53888 33.5319 2.54066 34.9867 3.0943L51.3084 9.30676L47.0746 10.9095C46.9255 10.811 46.7598 10.7327 46.5788 10.6823C39.6035 8.74118 32.869 8.25152 25.9893 9.18602C25.4684 9.25686 25.1032 9.73662 25.174 10.2575C25.2448 10.7785 25.724 11.1439 26.2456 11.0729C32.8182 10.1803 39.259 10.6401 45.9312 12.4789L45.2366 16.5412C36.7771 14.4065 28.5665 14.4228 20.1982 16.5188L19.511 12.4552C20.3073 12.2372 21.1107 12.0368 21.9009 11.8586C22.4139 11.743 22.736 11.2333 22.6203 10.7204C22.5046 10.2074 21.9949 9.88579 21.482 10.0009C20.9826 10.1137 18.8019 10.5999 18.3704 10.8839ZM18.1877 36.8886C17.526 35.3278 17.5497 33.6215 18.2526 32.0861L18.2875 32.0102C18.8488 30.8036 19.2456 29.4953 19.4656 28.1432C20.1631 28.651 20.9999 28.9262 21.8794 28.9271L22.331 28.9275C22.7069 31.0108 23.7088 32.9273 25.2438 34.4441C25.5062 34.7035 25.781 34.9457 26.0653 35.1733C26.0631 36.362 26.0668 36.3876 26.0605 36.5273C25.9912 38.0638 24.8518 39.3604 23.2816 39.6818C22.6343 39.8201 22.0223 39.9324 21.3944 40.0694C19.9653 39.4904 18.8048 38.3441 18.1877 36.8886ZM56.1241 60.9759C56.1227 62.5717 54.9343 63.8692 53.4745 63.8692C53.4738 63.8692 53.4731 63.8692 53.4723 63.8692L48.9894 63.8651L48.9952 57.4116C48.9957 56.8856 48.5698 56.459 48.0439 56.4585C48.0436 56.4585 48.0433 56.4585 48.043 56.4585C47.5176 56.4585 47.0914 56.8842 47.0909 57.4098L47.0851 63.8633L17.91 63.8371L17.9157 57.4114C17.9162 56.8855 17.4901 56.4589 16.9644 56.4584C16.9642 56.4584 16.9638 56.4584 16.9635 56.4584C16.4381 56.4584 16.0119 56.8841 16.0114 57.4097L16.0057 63.8353L11.5195 63.8312C10.0874 63.8299 8.87127 62.5656 8.87292 60.9333L8.87495 58.7457C8.87826 54.9597 10.0118 51.3684 12.1529 48.3601C13.8217 46.0155 16.0528 44.1622 18.5657 43.0014L21.0665 47.2469C21.3315 47.6969 21.9141 47.8528 22.3701 47.584C22.8232 47.317 22.9741 46.7335 22.7071 46.2805L20.3655 42.3054C20.7807 42.1752 21.1781 42.0654 21.805 41.9288C22.0202 42.5183 22.1059 42.4912 26.2898 49.2242C26.4021 49.4114 28.8844 53.5766 30.1924 55.7715C31.2553 57.57 33.7528 57.5635 34.8117 55.7787C36.1383 53.5617 38.6645 49.3402 38.7239 49.2419L42.9516 42.5111C43.0449 42.3655 43.1466 42.1641 43.2261 41.9474C43.7629 42.0623 44.1899 42.1767 44.6647 42.3271L36.1093 56.7914C34.4361 59.6211 30.5654 59.6204 28.8947 56.7848L24.9679 50.1186C24.7009 49.6654 24.1175 49.5148 23.6644 49.7816C23.2113 50.0485 23.0603 50.632 23.3273 51.0851L27.2541 57.7513C29.6607 61.837 35.3363 61.84 37.7484 57.7607L46.4634 43.0266C48.9739 44.1921 51.2014 46.0489 52.8657 48.3954C55.002 51.4072 56.1293 55.0011 56.1259 58.7883L56.1241 60.9759Z" fill="#FD2121"/>
</g>
<defs>
<clipPath id="clip0_4699_795">
<rect width="65" height="65" fill="white" transform="translate(0 0.773438)"/>
</clipPath>
</defs>
</svg>
