<svg width="118" height="125" viewBox="0 0 118 125" fill="none" xmlns="http://www.w3.org/2000/svg">
<path opacity="0.2" fill-rule="evenodd" clip-rule="evenodd" d="M65.0145 3.3691C46.7854 9.6372 24.3316 16.062 17.2903 17.2373C15.8821 17.4723 14.4738 17.9424 14.1609 18.4125C12.9873 19.7445 8.29309 33.7694 5.32011 44.0334C3.91186 49.2829 2.11244 55.316 1.33008 57.5098C0.625948 59.7037 0 62.1325 0 62.9161C0 65.0315 2.89474 69.8893 5.86773 72.71C11.266 77.8811 26.8351 90.4173 34.8935 95.9803C39.4312 99.1927 48.3501 105.853 54.6872 110.867C70.7257 123.482 72.3686 124.5 77.0628 124.892C85.0429 125.597 86.6859 123.403 94.0401 101.543C96.8567 93.238 101.238 81.0152 103.741 74.3553C107.888 63.0728 115.399 39.0973 116.416 33.691C116.65 32.4374 117.198 30.4786 117.589 29.4601C118.137 28.1281 118.137 27.1095 117.589 26.0126C116.65 23.8971 110.392 19.5878 100.612 13.9465C96.309 11.5176 89.5806 7.44337 85.5906 4.77943C81.2094 1.80208 77.7669 0 76.6716 0C75.4981 0.0783513 70.3346 1.56702 65.0145 3.3691ZM74.794 11.2826C74.5593 13.0847 74.1681 18.1775 74.0117 22.7219C73.777 27.2662 73.3858 30.9487 73.2293 30.9487C71.5081 30.9487 57.6602 17.2373 57.4255 15.2001C57.3473 14.8084 73.151 8.38358 74.7157 8.14853C74.9504 8.22688 75.0287 9.55885 74.794 11.2826ZM86.2165 14.495C89.4242 16.4538 94.2748 19.1177 96.8566 20.4497C104.915 24.5239 104.915 24.2889 96.7002 27.2662C92.7102 28.7549 86.9988 30.8704 84.1041 32.124C81.1311 33.2993 78.7058 34.2395 78.7058 34.2395C78.4711 34.0044 80.0358 10.8908 80.1923 10.8908C80.2705 10.8125 82.9306 12.4578 86.2165 14.495ZM47.8807 18.7259C45.7683 23.8971 44.0471 30.1652 43.4212 35.023C43.03 38.1571 42.5606 40.8994 42.4824 40.9777C42.2477 41.4478 29.9646 32.124 25.8963 28.3631L21.9062 24.8373L30.5905 22.6435C35.2847 21.4682 40.9959 19.8229 43.1865 19.1177C48.2719 17.394 48.5066 17.3156 47.8807 18.7259ZM57.5037 24.0538C59.3814 26.326 63.3715 30.0085 66.2662 32.2807L71.6646 36.2766L68.4568 37.4519C66.7356 38.1571 61.7285 40.2725 57.3473 42.3097C53.0443 44.1901 49.1325 45.7571 48.7413 45.7571C47.7242 45.7571 48.5066 32.3591 49.8366 27.4229C51.3231 21.9383 52.8878 18.5692 53.5137 19.2744C53.8266 19.6662 55.626 21.7816 57.5037 24.0538ZM24.6444 34.3178C27.0698 36.59 31.8422 40.6643 35.1281 43.2499C38.4923 45.8355 41.2306 48.186 41.387 48.4211C41.6218 49.2046 10.8749 59.9387 8.21482 59.9387C7.98011 59.9387 7.98018 59.3902 8.29313 58.7634C8.52784 58.1366 9.93602 53.0438 11.3443 47.5592C12.8308 41.9963 14.865 34.9447 15.8038 31.8106L17.525 26.1693L18.855 28.1281C19.6374 29.1467 22.2191 31.9673 24.6444 34.3178ZM110.626 29.225C110.626 31.8106 84.4953 111.102 82.2265 115.333C81.5224 116.508 81.4441 113.531 81.2876 100.603C81.2094 91.671 80.8182 80.2317 80.427 75.2955C80.0358 70.3594 79.41 61.349 79.097 55.4727C78.8623 49.5963 78.3928 44.2685 78.1581 43.6416C77.8452 42.8581 78.7058 42.2313 82.2265 40.821C96.3873 35.4148 107.027 30.7137 107.888 29.6168C109.14 28.1281 110.626 27.893 110.626 29.225ZM75.5764 77.4894C76.0458 96.0586 76.2805 111.259 76.124 111.494C75.6546 111.886 72.9163 106.244 69.4739 97.8607C67.8309 93.7864 64.2321 86.3431 61.4938 81.4069C55.4696 70.3594 47.9589 55.2376 48.2719 54.9242C48.4284 54.6892 50.8536 53.749 53.5919 52.5737C56.3302 51.4768 61.9632 49.0479 66.0315 47.1675C70.0998 45.287 73.7769 43.7984 74.0899 43.72C74.4811 43.7984 75.0287 54.9242 75.5764 77.4894ZM48.5065 66.912C51.2448 72.6316 54.8437 79.6049 56.6431 82.5039C60.242 88.772 65.3274 98.7226 67.9874 105.226C69.9433 109.848 75.0287 116.352 76.7499 116.352C77.2976 116.352 77.6887 116.743 77.6887 117.292C77.6887 117.84 78.2364 118.467 78.8623 118.702C79.9576 119.094 79.9576 119.172 78.9405 119.799C76.8281 120.896 73.5422 118.624 64.7015 110.397C56.0173 102.248 49.6019 97.1555 37.0058 88.3019C27.461 81.5637 11.0313 67.9305 11.7355 67.3037C11.9702 66.9903 17.4467 65.1882 23.7057 63.3078C30.0428 61.4274 36.9276 59.2335 39.1182 58.2933C41.3088 57.4315 43.1865 56.648 43.343 56.648C43.4994 56.5696 45.8465 61.1923 48.5065 66.912Z" fill="#00BFAD"/>
</svg>
