<svg width="127" height="48" viewBox="0 0 127 48" fill="none" xmlns="http://www.w3.org/2000/svg">
<path fill-rule="evenodd" clip-rule="evenodd" d="M122.957 31.9808C123.033 32.8503 123.729 33.9572 124.934 33.9572H125.639C125.913 33.9572 126.137 33.7332 126.137 33.4597V17.9539H126.133C126.12 17.6927 125.904 17.4835 125.639 17.4835H123.455C123.19 17.4835 122.974 17.6927 122.961 17.9539H122.957V19.2139C121.619 17.564 119.508 16.8792 117.392 16.8792C112.582 16.8792 108.683 20.7816 108.683 25.5958C108.683 30.4103 112.582 34.3128 117.392 34.3128C119.508 34.3128 121.815 33.4916 122.957 31.9789V31.9808ZM117.4 31.2622C114.341 31.2622 111.861 28.7255 111.861 25.5958C111.861 22.4667 114.341 19.93 117.4 19.93C120.461 19.93 122.94 22.4667 122.94 25.5958C122.94 28.7255 120.461 31.2622 117.4 31.2622Z" fill="#0D0E10"/>
<path fill-rule="evenodd" clip-rule="evenodd" d="M105.92 24.4905C105.92 19.9677 103.069 16.9165 98.5225 16.9165C96.3521 16.9165 94.573 18.1725 93.9446 19.2514C93.8088 18.4078 93.3613 17.521 91.9735 17.521H91.2661C90.9925 17.521 90.769 17.7452 90.769 18.0187V32.0196C90.769 32.02 90.769 32.0211 90.769 32.0218V33.5257H90.7718C90.7861 33.7865 91.0021 33.996 91.2663 33.996H93.451C93.4844 33.996 93.5172 33.992 93.5489 33.9858C93.5634 33.983 93.5768 33.9773 93.5909 33.9733C93.6071 33.9683 93.624 33.9645 93.6395 33.9581C93.6589 33.9501 93.6765 33.9393 93.6946 33.9291C93.7035 33.9237 93.7128 33.9199 93.7213 33.9143C93.7431 33.9002 93.7631 33.8832 93.7824 33.866C93.7856 33.8628 93.7894 33.8606 93.7926 33.8577C93.8143 33.8366 93.8342 33.8135 93.8517 33.7894C93.9063 33.7143 93.9397 33.6233 93.9452 33.5257H93.948V24.3661C93.948 21.937 95.9159 19.9677 98.3433 19.9677C100.771 19.9677 102.738 21.937 102.738 24.3661L102.74 32.0223L102.741 32.0196C102.741 32.0264 102.742 32.0333 102.742 32.0406V33.5257H102.745C102.759 33.7865 102.975 33.996 103.239 33.996H105.424C105.458 33.996 105.49 33.992 105.522 33.9858C105.535 33.9835 105.547 33.9782 105.56 33.9747C105.577 33.9695 105.596 33.965 105.613 33.9581C105.631 33.9507 105.647 33.9404 105.664 33.9308C105.674 33.9251 105.685 33.9208 105.695 33.9143C105.715 33.901 105.734 33.8849 105.752 33.8691C105.756 33.8648 105.762 33.8616 105.766 33.8573C105.787 33.8373 105.805 33.8157 105.822 33.7931C105.823 33.7914 105.825 33.79 105.826 33.7883C105.88 33.7139 105.913 33.624 105.918 33.527C105.918 33.5263 105.918 33.5257 105.918 33.5257H105.921L105.92 24.4905Z" fill="#0D0E10"/>
<path fill-rule="evenodd" clip-rule="evenodd" d="M83.1683 31.9808C83.2447 32.8503 83.9403 33.9571 85.1453 33.9571H85.8503C86.1235 33.9571 86.3473 33.7331 86.3473 33.4596V17.9539H86.3445C86.3303 17.6927 86.1141 17.4835 85.8503 17.4835H83.6656C83.4014 17.4835 83.1856 17.6927 83.1708 17.9539H83.1683V19.2139C81.8297 17.564 79.7193 16.8792 77.6031 16.8792C72.7929 16.8792 68.8936 20.7816 68.8936 25.5959C68.8936 30.4103 72.7929 34.3129 77.6031 34.3129C79.7193 34.3129 82.0257 33.4917 83.1681 31.9788L83.1683 31.9808ZM77.6116 31.2621C74.5525 31.2621 72.0723 28.7255 72.0723 25.5959C72.0723 22.4667 74.5525 19.93 77.6116 19.93C80.671 19.93 83.1508 22.4667 83.1508 25.5959C83.1508 28.7255 80.671 31.2621 77.6116 31.2621Z" fill="#0D0E10"/>
<path fill-rule="evenodd" clip-rule="evenodd" d="M55.9744 29.76C57.4328 30.7712 59.0247 31.2623 60.5545 31.2623C62.0119 31.2623 63.5186 30.5062 63.5186 29.19C63.5186 27.433 60.2355 27.1596 58.1728 26.458C56.1096 25.7564 54.3327 24.306 54.3327 21.9573C54.3327 18.3633 57.5325 16.8789 60.5191 16.8789C62.4114 16.8789 64.3638 17.5034 65.6296 18.3979C66.0655 18.7285 65.8 19.108 65.8 19.108L64.5918 20.8351C64.456 21.0296 64.2185 21.1977 63.8777 20.9871C63.5368 20.7767 62.3412 19.9298 60.5191 19.9298C58.6969 19.9298 57.5993 20.772 57.5993 21.8158C57.5993 23.0675 59.0258 23.4612 60.6968 23.8878C63.6087 24.6733 66.7852 25.6175 66.7852 29.19C66.7852 32.3566 63.8255 34.3136 60.5545 34.3136C58.0757 34.3136 55.9653 33.6064 54.1953 32.3065C53.8265 31.9372 54.084 31.5942 54.084 31.5942L55.2864 29.876C55.5311 29.5547 55.8395 29.6667 55.9744 29.76Z" fill="#0D0E10"/>
<path fill-rule="evenodd" clip-rule="evenodd" d="M47.5757 31.9808C47.652 32.8503 48.3476 33.9571 49.5525 33.9571H50.2576C50.5309 33.9571 50.7549 33.7331 50.7549 33.4596V17.9539H50.7518C50.7375 17.6927 50.5217 17.4835 50.2576 17.4835H48.0729C47.8087 17.4835 47.5929 17.6927 47.5783 17.9539H47.5757V19.2139C46.2371 17.564 44.1268 16.8792 42.0106 16.8792C37.2003 16.8792 33.3008 20.7816 33.3008 25.5959C33.3008 30.4103 37.2003 34.3129 42.0106 34.3129C44.1268 34.3129 46.4331 33.4917 47.5753 31.9788L47.5757 31.9808ZM42.0191 31.2621C38.9598 31.2621 36.4796 28.7255 36.4796 25.5959C36.4796 22.4667 38.9598 19.93 42.0191 19.93C45.0783 19.93 47.5582 22.4667 47.5582 25.5959C47.5582 28.7255 45.0783 31.2621 42.0191 31.2621Z" fill="#0D0E10"/>
<path fill-rule="evenodd" clip-rule="evenodd" d="M21.0895 26.1881C17.8525 26.1881 15.2282 28.8123 15.2282 32.0497C15.2282 35.2868 17.8525 37.911 21.0895 37.911C24.3267 37.911 26.9509 35.2868 26.9509 32.0497C26.9509 28.8123 24.3267 26.1881 21.0895 26.1881ZM5.86134 26.1886C2.62424 26.1886 0 28.8123 0 32.0497C0 35.2868 2.62424 37.911 5.86134 37.911C9.09858 37.911 11.723 35.2868 11.723 32.0497C11.723 28.8123 9.09858 26.1886 5.86134 26.1886ZM19.3367 18.8612C19.3367 22.0986 16.7126 24.7231 13.4755 24.7231C10.2382 24.7231 7.61414 22.0986 7.61414 18.8612C7.61414 15.6245 10.2382 13 13.4755 13C16.7126 13 19.3367 15.6245 19.3367 18.8612Z" fill="#FD2121"/>
</svg>
