<svg width="45" height="45" viewBox="0 0 45 45" fill="none" xmlns="http://www.w3.org/2000/svg">
<g clip-path="url(#clip0_4723_1216)">
<path d="M43.2322 38.3827V37.1192C43.2322 36.5058 42.8202 35.9614 42.2303 35.7952C42.1781 35.7805 42.1208 35.7647 42.0612 35.7484V34.0837C42.0612 33.469 41.6475 32.9241 41.0552 32.7584C37.135 31.6623 32.298 31.3131 28.2059 32.395V29.0754C28.2059 28.7113 27.9108 28.4162 27.5468 28.4162C27.1827 28.4162 26.8876 28.7113 26.8876 29.0754V32.8011C25.2643 33.3757 23.8075 34.1824 22.5257 35.2177C21.2913 34.2208 19.8951 33.4356 18.344 32.8657V22.4588H26.8877V26.0036C26.8877 26.3677 27.1828 26.6628 27.5469 26.6628C27.9109 26.6628 28.206 26.3677 28.206 26.0036V22.4165C28.9113 22.2531 29.439 21.621 29.439 20.8668V18.9911C29.439 18.2369 28.9113 17.6049 28.206 17.4415V16.9021C28.206 15.8283 29.2849 14.5816 29.7627 11.9533H41.9425C43.6285 11.9533 45.0002 10.5817 45.0002 8.8957C45.0002 7.2097 43.6286 5.83799 41.9425 5.83799C40.5382 5.83799 31.1378 5.83799 29.9127 5.83799C29.7175 5.00479 28.9701 4.38182 28.0782 4.38182H27.294C27.0056 4.38182 26.7322 4.44686 26.4876 4.56305C26.1647 3.9864 25.5476 3.59572 24.841 3.59572H24.0567C23.7383 3.59572 23.4381 3.675 23.1748 3.81492C22.8366 3.30665 22.2586 2.97091 21.6037 2.97091H20.8194C20.4593 2.97091 20.1225 3.07233 19.8359 3.2482C19.49 2.81842 18.9599 2.54297 18.3664 2.54297H17.5822C16.5423 2.54297 15.6965 3.38892 15.6965 4.42857L15.6962 5.83799H6.42542C5.67431 5.83799 4.94534 5.99241 4.25892 6.29704L0.64793 7.89929C0.254355 8.07393 0 8.46504 0 8.89561C0 9.32619 0.254355 9.71731 0.64793 9.89194L4.259 11.4942C4.94552 11.7987 5.67439 11.9532 6.42551 11.9532H13.1495C13.3233 13.3409 14.033 14.653 15.0897 15.4851C15.8528 16.1768 16.7095 16.4732 16.9661 17.5528C16.4269 17.8081 16.0523 18.3559 16.0523 18.991V20.8668C16.0523 21.5252 16.4541 22.0917 17.0255 22.3336V32.443C12.9258 31.3122 8.01844 31.6334 3.99586 32.7584C3.40356 32.9239 2.98986 33.4689 2.98986 34.0836V35.7483C2.93019 35.7646 2.87288 35.7804 2.82067 35.7951C2.23084 35.9613 1.81881 36.5058 1.81881 37.1191V38.3827C0.843399 38.5398 0.0958008 39.3872 0.0958008 40.4063C0.0958008 41.5368 1.01549 42.4565 2.14594 42.4565H42.905C44.0354 42.4565 44.9551 41.5368 44.9551 40.4063C44.9552 39.3873 44.2076 38.5399 43.2322 38.3827ZM40.9577 7.15635H41.9424C42.9014 7.15635 43.6817 7.93655 43.6817 8.8957C43.6817 9.85477 42.9015 10.635 41.9424 10.635H40.9577V7.15635ZM38.1592 7.15635H39.6394V10.635H38.1592V7.15635ZM29.9638 7.15635H36.8409V8.23652H29.9638V7.15635ZM29.9638 9.72135V9.55479H36.8409V10.6349H29.9298C29.9521 10.3316 29.9638 10.0269 29.9638 9.72135ZM5.18774 10.4402C4.83812 10.3268 4.90711 10.3319 1.65296 8.8957C4.90702 7.45948 4.83785 7.46467 5.18774 7.3512V10.4402ZM41.8729 37.064C41.8974 37.071 41.9138 37.0931 41.9138 37.1191V38.3563H24.8882C29.7338 35.4212 36.5259 35.5588 41.8729 37.064ZM23.1848 36.381C27.8579 32.4746 34.9697 32.4257 40.7001 34.0281C40.7257 34.0353 40.7428 34.0576 40.7428 34.0837V35.425C34.8555 34.1287 28.1103 34.3445 23.1848 37.9055V36.381ZM28.1204 20.8668C28.1204 21.0177 27.9977 21.1404 27.8468 21.1404H17.6442C17.4933 21.1404 17.3706 21.0177 17.3706 20.8668V18.991C17.3706 18.8401 17.4933 18.7174 17.6442 18.7174H27.8467C27.9976 18.7174 28.1203 18.8401 28.1203 18.991V20.8668H28.1204ZM13.766 10.6349H6.5061V9.55479H9.28002C9.64406 9.55479 9.9392 9.25966 9.9392 8.89561C9.9392 8.53157 9.64406 8.23643 9.28002 8.23643H6.5061V7.15626H15.6956L15.6954 8.23643H12.3518C11.9878 8.23643 11.6926 8.53157 11.6926 8.89561C11.6926 9.25966 11.9878 9.55479 12.3518 9.55479H15.6427C15.4738 10.1761 14.9063 10.6349 14.2323 10.6349H13.766ZM15.9053 14.4493C15.1542 13.8579 14.6371 12.9347 14.4774 11.9426C15.8965 11.8182 17.0133 10.6233 17.0136 9.17256C17.0138 8.1801 17.0143 5.41805 17.0145 4.42875C17.0145 4.11586 17.269 3.86142 17.5818 3.86142H18.3661C18.679 3.86142 18.9334 4.11595 18.9334 4.42884V4.85678C18.9334 5.22082 19.2285 5.51596 19.5926 5.51596C19.9566 5.51596 20.2518 5.22082 20.2518 4.85678C20.2518 4.54389 20.5063 4.28944 20.8191 4.28944H21.6033C21.9162 4.28944 22.1707 4.54397 22.1707 4.85678V5.4815C22.1707 5.84555 22.4658 6.14068 22.8299 6.14068C23.1939 6.14068 23.489 5.84555 23.489 5.4815C23.489 5.16861 23.7436 4.91417 24.0564 4.91417H24.8406C25.1534 4.91417 25.4079 5.1687 25.4079 5.4815V6.2676C25.4079 6.63164 25.7031 6.92678 26.0671 6.92678C26.4312 6.92678 26.7263 6.63164 26.7263 6.2676C26.7263 5.95471 26.9808 5.70026 27.2936 5.70026H28.0779C28.3907 5.70026 28.6452 5.9548 28.6452 6.26769V9.72152C28.6452 13.4749 26.8873 15.1331 26.8873 16.9022V17.3992H18.2808C17.9449 15.6326 16.5448 15.0643 15.9053 14.4493ZM4.30831 34.0836C4.30831 34.0575 4.32545 34.0351 4.35103 34.028C10.0883 32.4236 17.2317 32.5068 21.8664 36.3809V37.9054C16.9288 34.3357 10.1802 34.1341 4.3084 35.4253L4.30831 34.0836ZM3.13726 37.1192C3.13726 37.0932 3.15378 37.071 3.17812 37.0641C8.54095 35.5542 15.3265 35.4267 20.1629 38.3564H3.13726V37.1192ZM42.9051 41.1381H2.14603C1.74252 41.1381 1.41425 40.8098 1.41425 40.4063C1.41425 40.0029 1.74252 39.6746 2.14603 39.6746H42.9051C43.3085 39.6746 43.6368 40.0029 43.6368 40.4063C43.6368 40.8099 43.3085 41.1381 42.9051 41.1381Z" fill="white"/>
</g>
<defs>
<clipPath id="clip0_4723_1216">
<rect width="45" height="45" fill="white"/>
</clipPath>
</defs>
</svg>