<svg width="107" height="102" viewBox="0 0 107 102" fill="none" xmlns="http://www.w3.org/2000/svg">
<g clip-path="url(#clip0_4340_2695)">
<path d="M0 58.0368V42.5703H2.21982V49.1885H6.58785V42.5703H8.80766V58.0368H6.58785V51.4186H2.21982V58.0368H0Z" fill="#1F1C35"/>
<path d="M13.1046 42.5703H10.8848V58.0368H13.1046V42.5703Z" fill="#1F1C35"/>
<path d="M16.3983 56.7436C15.539 55.8803 15.1094 54.8732 15.1094 53.5783V46.9601C15.1094 45.7372 15.539 44.7301 16.3983 43.7949C17.2576 42.9316 18.2601 42.5 19.549 42.5C20.7663 42.5 21.7688 42.9316 22.6997 43.7949C23.559 44.6581 23.9886 45.6652 23.9886 46.8882H21.7688C21.7688 46.3127 21.554 45.7372 21.1244 45.3056C20.6947 44.8739 20.1935 44.6581 19.549 44.6581C18.9762 44.6581 18.4033 44.8739 17.9737 45.3056C17.544 45.7372 17.3292 46.2407 17.3292 46.8882V53.5064C17.3292 54.0819 17.544 54.6574 17.9737 55.089C18.4033 55.5207 18.9045 55.7365 19.549 55.7365C20.1219 55.7365 20.6947 55.5207 21.1244 55.089C21.554 54.6574 21.7688 54.1538 21.7688 53.5064V51.2764H19.549V49.0463H23.9886V53.5064C23.9886 54.7293 23.559 55.8084 22.6997 56.6716C21.8404 57.5349 20.8379 57.9665 19.6206 57.9665C18.2601 58.0385 17.2576 57.6068 16.3983 56.7436Z" fill="#1F1C35"/>
<path d="M25.9219 58.0368V42.5703H28.1417V49.1885H32.5097V42.5703H34.7295V58.0368H32.5097V51.4186H28.1417V58.0368H25.9219Z" fill="#1F1C35"/>
<path d="M44.4686 56.7413C43.6093 55.8781 43.1797 54.8709 43.1797 53.5761H45.3995C45.3995 54.1516 45.6143 54.7271 46.044 55.1587C46.4736 55.5903 46.9749 55.8061 47.6193 55.8061C48.1922 55.8061 48.765 55.5903 49.1947 55.1587C49.6243 54.7271 49.8391 54.2235 49.8391 53.5761C49.8391 53.0006 49.6243 52.4251 49.1947 51.9934C48.765 51.5618 48.2638 51.346 47.6193 51.346C46.402 51.346 45.3279 50.9144 44.4686 50.0511C43.6093 49.1879 43.1797 48.1808 43.1797 46.8859C43.1797 45.663 43.6093 44.6558 44.4686 43.7207C45.3279 42.8574 46.3304 42.4258 47.6193 42.4258C48.8366 42.4258 49.8391 42.8574 50.77 43.7207C51.6293 44.5839 52.059 45.591 52.059 46.814H49.8391C49.8391 46.2385 49.6243 45.663 49.1947 45.2313C48.765 44.7997 48.2638 44.5839 47.6193 44.5839C47.0465 44.5839 46.4736 44.7997 46.044 45.2313C45.6143 45.663 45.3995 46.1665 45.3995 46.814C45.3995 47.3895 45.6143 47.965 46.044 48.3966C46.4736 48.8282 46.9749 49.044 47.6193 49.044C48.8366 49.044 49.8391 49.4756 50.77 50.3389C51.6293 51.2021 52.059 52.2093 52.059 53.4322C52.059 54.6551 51.6293 55.7342 50.77 56.5974C49.9107 57.4607 48.9082 57.8923 47.6909 57.8923C46.3304 58.0362 45.3279 57.6046 44.4686 56.7413Z" fill="#1F1C35"/>
<path d="M55.2088 56.7436C54.3496 55.8803 53.9199 54.8732 53.9199 53.5783V46.9601C53.9199 45.7372 54.3496 44.7301 55.2088 43.7949C56.0681 42.9316 57.0706 42.5 58.3596 42.5C59.5769 42.5 60.5794 42.9316 61.5103 43.7949C62.3695 44.6581 62.7992 45.6652 62.7992 46.8882H60.5794C60.5794 46.3127 60.3645 45.7372 59.9349 45.3056C59.5053 44.8739 59.004 44.6581 58.3596 44.6581C57.7867 44.6581 57.2138 44.8739 56.7842 45.3056C56.3546 45.7372 56.1397 46.2407 56.1397 46.8882V53.5064C56.1397 54.0819 56.3546 54.6574 56.7842 55.089C57.2138 55.5207 57.7151 55.7365 58.3596 55.7365C58.9324 55.7365 59.5053 55.5207 59.9349 55.089C60.3645 54.6574 60.5794 54.1538 60.5794 53.5064H62.7992C62.7992 54.7293 62.3695 55.8084 61.5103 56.6716C60.651 57.5349 59.6485 57.9665 58.4312 57.9665C57.1422 58.0385 56.1397 57.6068 55.2088 56.7436Z" fill="#1F1C35"/>
<path d="M64.8047 58.0368V42.5703H66.9529V49.1885H71.3925V42.5703H73.6124V58.0368H71.3925V51.4186H66.9529V58.0368H64.8047Z" fill="#1F1C35"/>
<path d="M76.9061 56.7436C76.0468 55.8803 75.6172 54.8732 75.6172 53.5783V46.9601C75.6172 45.7372 76.0468 44.7301 76.9061 43.7949C77.7654 42.9316 78.7679 42.5 80.0568 42.5C81.2741 42.5 82.2766 42.9316 83.2075 43.7949C84.0668 44.6581 84.4965 45.6652 84.4965 46.8882V53.5064C84.4965 54.7293 84.0668 55.8084 83.2075 56.6716C82.3482 57.5349 81.3458 57.9665 80.1284 57.9665C78.7679 58.0385 77.7654 57.6068 76.9061 56.7436ZM81.5606 55.161C81.9902 54.7293 82.205 54.2258 82.205 53.5783V46.9601C82.205 46.3846 81.9902 45.8091 81.5606 45.3775C81.1309 44.9459 80.6297 44.7301 79.9852 44.7301C79.4124 44.7301 78.8395 44.9459 78.4099 45.3775C77.9802 45.8091 77.7654 46.3127 77.7654 46.9601V53.5783C77.7654 54.1538 77.9802 54.7293 78.4099 55.161C78.8395 55.5926 79.3408 55.8084 79.9852 55.8084C80.6297 55.8084 81.1309 55.5926 81.5606 55.161Z" fill="#1F1C35"/>
<path d="M87.6464 56.7436C86.7871 55.8803 86.3574 54.8732 86.3574 53.5783V46.9601C86.3574 45.7372 86.7871 44.7301 87.6464 43.7949C88.5056 42.9316 89.5081 42.5 90.7971 42.5C92.0144 42.5 93.0169 42.9316 93.9478 43.7949C94.807 44.6581 95.2367 45.6652 95.2367 46.8882V53.5064C95.2367 54.7293 94.807 55.8084 93.9478 56.6716C93.0885 57.5349 92.086 57.9665 90.8687 57.9665C89.5797 58.0385 88.5056 57.6068 87.6464 56.7436ZM92.3724 55.161C92.8021 54.7293 93.0169 54.2258 93.0169 53.5783V46.9601C93.0169 46.3846 92.8021 45.8091 92.3724 45.3775C91.9428 44.9459 91.4415 44.7301 90.7971 44.7301C90.2242 44.7301 89.6513 44.9459 89.2217 45.3775C88.7921 45.8091 88.5772 46.3127 88.5772 46.9601V53.5783C88.5772 54.1538 88.7921 54.7293 89.2217 55.161C89.6513 55.5926 90.1526 55.8084 90.7971 55.8084C91.4415 55.8084 91.9428 55.5926 92.3724 55.161Z" fill="#1F1C35"/>
<path d="M97.2422 58.0368V42.5703H99.462V55.8068H106.05V58.0368H97.2422Z" fill="#1F1C35"/>
<path d="M13.1762 37.104H10.8848V24.9465L52.6317 0.775608C54.207 -0.159578 56.1404 -0.159578 57.7158 0.775608L98.8898 24.6588L97.7441 26.6011L56.57 2.71792C55.7108 2.21435 54.565 2.21435 53.7058 2.71792L13.1762 26.2414V37.104Z" fill="#1F1C35"/>
<path d="M55.1373 101.054C54.278 101.054 53.3471 100.838 52.5595 100.335L11.457 76.5233L12.6027 74.581L53.7768 98.4642C54.6361 98.9677 55.7818 98.9677 56.6411 98.4642L97.2422 74.9407V64.0781H99.5337V76.2355L57.8584 100.406C56.9275 100.838 56.0682 101.054 55.1373 101.054Z" fill="#1F1C35"/>
<path d="M37.7361 69.1877H35.3014C35.2298 69.1877 35.1582 69.1157 35.1582 69.0438V65.5189C35.1582 65.4469 35.2298 65.375 35.3014 65.375H37.7361C37.8077 65.375 37.8793 65.4469 37.8793 65.5189V65.8066C37.8793 65.8786 37.8077 65.9505 37.7361 65.9505H35.7311V67.0296H37.2348C37.3064 67.0296 37.378 67.1015 37.378 67.1734V67.4612C37.378 67.5331 37.3064 67.6051 37.2348 67.6051H35.7311V68.6841H37.7361C37.8077 68.6841 37.8793 68.7561 37.8793 68.828V69.1157C37.8793 69.1157 37.8077 69.1877 37.7361 69.1877Z" fill="#1F1C35"/>
<path d="M37.7367 69.3309H35.3021C35.1588 69.3309 35.0156 69.187 35.0156 69.0431V65.5182C35.0156 65.3743 35.1588 65.2305 35.3021 65.2305H37.7367C37.8799 65.2305 38.0231 65.3743 38.0231 65.5182V65.806C38.0231 65.9498 37.8799 66.0937 37.7367 66.0937H35.8749V66.885H37.2354C37.3787 66.885 37.5219 67.0289 37.5219 67.1728V67.4605C37.5219 67.6044 37.3787 67.7483 37.2354 67.7483H35.8749V68.5396H37.7367C37.8799 68.5396 38.0231 68.6835 38.0231 68.8273V69.1151C38.0231 69.259 37.9515 69.3309 37.7367 69.3309ZM37.7367 65.5182H35.3021V69.0431H37.6651V68.7554H35.5169V67.3886H37.2354V67.1008H35.5885V65.734H37.7367V65.5182Z" fill="#1F1C35"/>
<path d="M41.7466 69.1877H41.1737C40.6009 69.1877 40.0996 68.6841 40.0996 68.1086C40.0996 68.0367 40.1712 67.9647 40.2428 67.9647H40.5293C40.6009 67.9647 40.6725 68.0367 40.6725 68.1086C40.6725 68.3964 40.8873 68.6841 41.2453 68.6841H41.8182C42.1046 68.6841 42.391 68.4683 42.391 68.1086C42.391 67.8209 42.1762 67.5331 41.8182 67.5331H41.2453C40.6725 67.5331 40.1712 67.0296 40.1712 66.4541C40.1712 65.8786 40.6725 65.375 41.2453 65.375H41.8182C42.391 65.375 42.8923 65.8786 42.8923 66.4541C42.8923 66.526 42.8207 66.5979 42.7491 66.5979H42.4626C42.391 66.5979 42.3194 66.526 42.3194 66.4541C42.3194 66.1663 42.1046 65.8786 41.7466 65.8786H41.1737C40.8873 65.8786 40.6009 66.0944 40.6009 66.4541C40.6009 66.7418 40.8157 67.0296 41.1737 67.0296H41.7466C42.3194 67.0296 42.8207 67.5331 42.8207 68.1086C42.8207 68.6841 42.391 69.1877 41.7466 69.1877Z" fill="#1F1C35"/>
<path d="M41.7472 69.3293H41.1744C40.5299 69.3293 39.957 68.7538 39.957 68.1063C39.957 67.9625 40.1002 67.8186 40.2435 67.8186H40.5299C40.6731 67.8186 40.8163 67.9625 40.8163 68.1063C40.8163 68.3222 40.9595 68.466 41.1744 68.466H41.7472C41.962 68.466 42.1052 68.3222 42.1052 68.1063C42.1052 67.8905 41.962 67.7467 41.7472 67.7467H41.1744C40.5299 67.7467 39.957 67.1712 39.957 66.5237C39.957 65.8763 40.5299 65.3008 41.1744 65.3008H41.7472C42.3917 65.3008 42.9645 65.8763 42.9645 66.5237C42.9645 66.6676 42.8213 66.8115 42.6781 66.8115H42.3917C42.2485 66.8115 42.1052 66.6676 42.1052 66.5237C42.1052 66.3079 41.962 66.164 41.7472 66.164H41.1744C40.9595 66.164 40.8163 66.3079 40.8163 66.5237C40.8163 66.7395 40.9595 66.8834 41.1744 66.8834H41.7472C42.3917 66.8834 42.9645 67.4589 42.9645 68.1063C43.0361 68.8257 42.4633 69.3293 41.7472 69.3293ZM40.5299 68.1063H40.2435C40.2435 68.6099 40.6731 69.0415 41.1744 69.0415H41.7472C42.2485 69.0415 42.6781 68.6099 42.6781 68.1063C42.6781 67.6028 42.2485 67.1712 41.7472 67.1712H41.1744C40.8163 67.1712 40.4583 66.8834 40.4583 66.4518C40.4583 66.0921 40.7447 65.7324 41.1744 65.7324H41.7472C42.1052 65.7324 42.4633 66.0202 42.4633 66.4518H42.7497C42.7497 65.9482 42.3201 65.5166 41.8188 65.5166H41.246C40.7447 65.5166 40.3151 65.9482 40.3151 66.4518C40.3151 66.9553 40.7447 67.387 41.246 67.387H41.8188C42.1769 67.387 42.5349 67.6747 42.5349 68.1063C42.5349 68.466 42.2485 68.8257 41.8188 68.8257H41.246C40.8879 68.8257 40.5299 68.466 40.5299 68.1063Z" fill="#1F1C35"/>
<path d="M47.6911 65.9505H46.7602V69.0438C46.7602 69.1157 46.6886 69.1877 46.617 69.1877H46.3306C46.259 69.1877 46.1874 69.1157 46.1874 69.0438V65.9505H45.2565C45.1849 65.9505 45.1133 65.8786 45.1133 65.8066V65.5189C45.1133 65.4469 45.1849 65.375 45.2565 65.375H47.6911C47.7627 65.375 47.8344 65.4469 47.8344 65.5189V65.8066C47.8344 65.8786 47.7627 65.9505 47.6911 65.9505Z" fill="#1F1C35"/>
<path d="M46.6157 69.3309H46.3293C46.1861 69.3309 46.0429 69.187 46.0429 69.0431V66.0937H45.2552C45.112 66.0937 44.9688 65.9498 44.9688 65.806V65.5182C44.9688 65.3743 45.112 65.2305 45.2552 65.2305H47.6898C47.833 65.2305 47.9762 65.3743 47.9762 65.5182V65.806C47.9762 65.9498 47.833 66.0937 47.6898 66.0937H46.9021V69.0431C46.9021 69.259 46.7589 69.3309 46.6157 69.3309ZM46.1861 65.806H46.3293V69.1151H46.6157V65.8779H47.6898V65.5182H45.2552V65.806H46.1861Z" fill="#1F1C35"/>
<path d="M51.6997 69.1877H50.1959C50.1243 69.1877 50.0527 69.1157 50.0527 69.0438V65.5189C50.0527 65.4469 50.1243 65.375 50.1959 65.375H51.6997C52.2725 65.375 52.7738 65.8786 52.7738 66.4541V68.1086C52.7738 68.6841 52.2725 69.1877 51.6997 69.1877ZM52.2009 66.4541C52.2009 66.1663 51.9861 65.8786 51.6281 65.8786H50.554V68.6122H51.6281C51.9145 68.6122 52.2009 68.3964 52.2009 68.0367V66.4541Z" fill="#1F1C35"/>
<path d="M51.7003 69.3309H50.1966C50.0534 69.3309 49.9102 69.187 49.9102 69.0431V65.5182C49.9102 65.3743 50.0534 65.2305 50.1966 65.2305H51.7003C52.3448 65.2305 52.9177 65.806 52.9177 66.4534V68.108C52.9177 68.8273 52.3448 69.3309 51.7003 69.3309ZM50.1966 65.5182V69.0431H51.7003C52.2016 69.0431 52.6312 68.6115 52.6312 68.108V66.4534C52.6312 65.9498 52.2016 65.5182 51.7003 65.5182H50.1966ZM51.7003 68.8273H50.483V65.806H51.7003C52.0584 65.806 52.4164 66.0937 52.4164 66.5253V68.1799C52.3448 68.4676 52.0584 68.8273 51.7003 68.8273ZM50.7694 68.5396H51.7003C51.9152 68.5396 52.0584 68.3957 52.0584 68.1799V66.5253C52.0584 66.3095 51.9152 66.1657 51.7003 66.1657H50.7694V68.5396Z" fill="#1F1C35"/>
<path d="M60.2927 69.1854H57.8581C57.7865 69.1854 57.7148 69.1135 57.7148 69.0415V68.7538C57.7148 68.6818 57.7865 68.6099 57.8581 68.6099H58.7889V66.3079L58.1445 66.9553H57.9297L57.7148 66.7395V66.5237L58.7889 65.4447C58.7889 65.3727 58.8606 65.3008 58.9322 65.3008H59.2186C59.2902 65.3008 59.3618 65.3727 59.3618 65.4447V68.538H60.2927C60.3643 68.538 60.4359 68.6099 60.4359 68.6818V68.9696C60.4359 69.1135 60.3643 69.1854 60.2927 69.1854Z" fill="#1F1C35"/>
<path d="M60.2933 69.3309H57.8587C57.7155 69.3309 57.5723 69.187 57.5723 69.0431V68.7554C57.5723 68.6115 57.7155 68.4676 57.8587 68.4676H58.6464V66.6692L58.2167 67.1008C58.0735 67.2447 57.9303 67.2447 57.7871 67.1008L57.5723 66.885C57.429 66.7412 57.429 66.5973 57.5723 66.4534L58.5748 65.4463C58.5748 65.3024 58.718 65.2305 58.8612 65.2305H59.1476C59.2908 65.2305 59.434 65.3743 59.434 65.5182V68.4676H60.2217C60.3649 68.4676 60.5081 68.6115 60.5081 68.7554V69.0431C60.5797 69.259 60.4365 69.3309 60.2933 69.3309ZM57.8587 68.8273V69.1151H60.2217V68.8273H59.1476V65.5182H58.8612V65.5902V65.6621L57.7871 66.7412L58.0019 66.885L58.9328 65.9498V68.8273H57.8587Z" fill="#1F1C35"/>
<path d="M64.3032 69.1877H63.7304C63.1575 69.1877 62.6562 68.6841 62.6562 68.1086C62.6562 68.0367 62.7279 67.9647 62.7995 67.9647H63.0859C63.1575 67.9647 63.2291 68.0367 63.2291 68.1086C63.2291 68.3964 63.4439 68.6841 63.802 68.6841H64.3748C64.6612 68.6841 64.9477 68.4683 64.9477 68.1086V67.5331H63.7304C63.1575 67.5331 62.6562 67.0296 62.6562 66.4541C62.6562 65.8786 63.1575 65.375 63.7304 65.375H64.3032C64.8761 65.375 65.3773 65.8786 65.3773 66.4541V68.1086C65.3773 68.6841 64.8761 69.1877 64.3032 69.1877ZM64.8045 66.4541C64.8045 66.1663 64.5896 65.8786 64.2316 65.8786H63.7304C63.4439 65.8786 63.1575 66.0944 63.1575 66.4541C63.1575 66.7418 63.3723 67.0296 63.7304 67.0296H64.8045V66.4541Z" fill="#1F1C35"/>
<path d="M64.3038 69.3293H63.731C63.0865 69.3293 62.5137 68.7538 62.5137 68.1063C62.5137 67.9625 62.6569 67.8186 62.8001 67.8186H63.0865C63.2297 67.8186 63.373 67.9625 63.373 68.1063C63.373 68.3222 63.5162 68.466 63.731 68.466H64.3038C64.5187 68.466 64.6619 68.3222 64.6619 68.1063V67.7467H63.731C63.0865 67.7467 62.5137 67.1712 62.5137 66.5237C62.5137 65.8763 63.0865 65.3008 63.731 65.3008H64.3038C64.9483 65.3008 65.5212 65.8763 65.5212 66.5237V68.1783C65.5212 68.8257 64.9483 69.3293 64.3038 69.3293ZM63.0865 68.1063H62.8001C62.8001 68.6099 63.2297 69.0415 63.731 69.0415H64.3038C64.8051 69.0415 65.2347 68.6099 65.2347 68.1063V66.4518C65.2347 65.9482 64.8051 65.5166 64.3038 65.5166H63.731C63.2297 65.5166 62.8001 65.9482 62.8001 66.4518C62.8001 66.9553 63.2297 67.387 63.731 67.387H64.9483V68.1063C64.9483 68.466 64.6619 68.8257 64.2322 68.8257H63.731C63.373 68.8257 63.0865 68.466 63.0865 68.1063ZM64.9483 67.1712H63.731C63.373 67.1712 63.0149 66.8834 63.0149 66.4518C63.0149 66.0921 63.3013 65.7324 63.731 65.7324H64.3038C64.6619 65.7324 65.0199 66.0202 65.0199 66.4518V67.1712H64.9483ZM63.731 66.0921C63.5162 66.0921 63.373 66.236 63.373 66.4518C63.373 66.6676 63.5162 66.8115 63.731 66.8115H64.6619V66.4518C64.6619 66.236 64.5187 66.0921 64.3038 66.0921H63.731Z" fill="#1F1C35"/>
<path d="M69.2446 69.1877H68.6718C68.0989 69.1877 67.5977 68.6841 67.5977 68.1086C67.5977 68.0367 67.6693 67.9647 67.7409 67.9647H68.0273C68.0989 67.9647 68.1705 68.0367 68.1705 68.1086C68.1705 68.3964 68.3853 68.6841 68.7434 68.6841H69.3162C69.6027 68.6841 69.8891 68.4683 69.8891 68.1086V67.5331H68.815C68.2421 67.5331 67.7409 67.0296 67.7409 66.4541C67.7409 65.8786 68.2421 65.375 68.815 65.375H69.3878C69.9607 65.375 70.4619 65.8786 70.4619 66.4541V68.1086C70.3187 68.6841 69.8175 69.1877 69.2446 69.1877ZM69.7459 66.4541C69.7459 66.1663 69.531 65.8786 69.173 65.8786H68.6002C68.3137 65.8786 68.0273 66.0944 68.0273 66.4541C68.0273 66.7418 68.2421 67.0296 68.6002 67.0296H69.6743V66.4541H69.7459Z" fill="#1F1C35"/>
<path d="M69.2433 69.3293H68.6704C68.026 69.3293 67.4531 68.7538 67.4531 68.1063C67.4531 67.9625 67.5963 67.8186 67.7396 67.8186H68.026C68.1692 67.8186 68.3124 67.9625 68.3124 68.1063C68.3124 68.3222 68.4556 68.466 68.6704 68.466H69.2433C69.4581 68.466 69.6013 68.3222 69.6013 68.1063V67.7467H68.6704C68.026 67.7467 67.4531 67.1712 67.4531 66.5237C67.4531 65.8763 68.026 65.3008 68.6704 65.3008H69.2433C69.8878 65.3008 70.4606 65.8763 70.4606 66.5237V68.1783C70.4606 68.8257 69.8878 69.3293 69.2433 69.3293ZM68.026 68.1063H67.7396C67.7396 68.6099 68.1692 69.0415 68.6704 69.0415H69.2433C69.7445 69.0415 70.1742 68.6099 70.1742 68.1063V66.4518C70.1742 65.9482 69.7445 65.5166 69.2433 65.5166H68.6704C68.1692 65.5166 67.7396 65.9482 67.7396 66.4518C67.7396 66.9553 68.1692 67.387 68.6704 67.387H69.8878V68.1063C69.8878 68.466 69.6013 68.8257 69.1717 68.8257H68.5988C68.3124 68.8257 68.026 68.466 68.026 68.1063ZM69.9594 67.1712H68.7421C68.384 67.1712 68.026 66.8834 68.026 66.4518C68.026 66.0921 68.3124 65.7324 68.7421 65.7324H69.3149C69.6729 65.7324 70.031 66.0202 70.031 66.4518V67.1712H69.9594ZM68.6704 66.0921C68.4556 66.0921 68.3124 66.236 68.3124 66.4518C68.3124 66.6676 68.4556 66.8115 68.6704 66.8115H69.6013V66.4518C69.6013 66.236 69.4581 66.0921 69.2433 66.0921H68.6704Z" fill="#1F1C35"/>
<path d="M75.1872 66.3821L74.1847 67.4612V69.1157C74.1847 69.1877 74.1131 69.2596 74.0415 69.2596H73.7551C73.6835 69.2596 73.6119 69.1877 73.6119 69.1157V67.3173L73.6835 67.2454L74.7576 66.1663V66.0224H72.7526C72.681 66.0224 72.6094 65.9505 72.6094 65.8786V65.5189C72.6094 65.4469 72.681 65.375 72.7526 65.375H75.1872C75.2588 65.375 75.3304 65.4469 75.3304 65.5189V66.2382L75.1872 66.3821Z" fill="#1F1C35"/>
<path d="M74.0408 69.3309H73.7544C73.6112 69.3309 73.468 69.187 73.468 69.0431V67.2447C73.468 67.1728 73.468 67.1008 73.5396 67.0289L74.4705 66.0937H72.6087C72.4655 66.0937 72.3223 65.9498 72.3223 65.806V65.5182C72.3223 65.3743 72.4655 65.2305 72.6087 65.2305H75.0433C75.1865 65.2305 75.3298 65.3743 75.3298 65.5182V66.2376C75.3298 66.3095 75.3298 66.3815 75.2582 66.4534L74.2557 67.4605V69.0431C74.3273 69.259 74.184 69.3309 74.0408 69.3309ZM74.7569 65.806H74.9001V66.1657L73.826 67.2447V69.0431H74.1124V67.3886L75.1865 66.3095L75.3298 66.3815L75.2582 66.2376V65.5182H72.8235V65.806H74.7569Z" fill="#1F1C35"/>
<path d="M32.5811 35.8791H32.2947C32.2231 35.8791 32.1515 35.8071 32.1515 35.7352V34.2245H30.5045V35.7352C30.5045 35.8071 30.4329 35.8791 30.3613 35.8791H30.0749C30.0032 35.8791 29.9316 35.8071 29.9316 35.7352V33.1455C29.9316 32.57 30.4329 32.0664 31.0057 32.0664H31.5786C32.1515 32.0664 32.6527 32.57 32.6527 33.1455V35.7352C32.7243 35.8071 32.6527 35.8791 32.5811 35.8791ZM32.1515 33.1455C32.1515 32.8577 31.9366 32.57 31.5786 32.57H31.0057C30.7193 32.57 30.4329 32.7858 30.4329 33.1455V33.721H32.0799V33.1455H32.1515Z" fill="#1F1C35"/>
<path d="M32.5804 36.0223H32.294C32.1508 36.0223 32.0076 35.8784 32.0076 35.7346V34.3677H30.7187V35.7346C30.7187 35.8784 30.5754 36.0223 30.4322 36.0223H30.1458C30.0026 36.0223 29.8594 35.8784 29.8594 35.7346V33.1448C29.8594 32.4974 30.4322 31.9219 31.0767 31.9219H31.6496C32.294 31.9219 32.8669 32.4974 32.8669 33.1448V35.7346C32.8669 35.8784 32.7237 36.0223 32.5804 36.0223ZM30.4322 34.08H32.3656V35.7346H32.5804V33.1448C32.5804 32.6412 32.1508 32.2096 31.6496 32.2096H31.0767C30.5754 32.2096 30.1458 32.6412 30.1458 33.1448V35.7346H30.4322V34.08ZM32.3656 33.8642H30.4322V33.1448C30.4322 32.7851 30.7187 32.4254 31.1483 32.4254H31.7212C32.0792 32.4254 32.4372 32.7132 32.4372 33.1448V33.8642H32.3656ZM30.7187 33.5764H32.0076V33.1448C32.0076 32.929 31.8644 32.7851 31.6496 32.7851H31.0767C30.8619 32.7851 30.7187 32.929 30.7187 33.1448V33.5764Z" fill="#1F1C35"/>
<path d="M35.5884 34.2229H35.4452L36.6625 35.4458V35.6616L36.4477 35.8775H36.2328L34.6575 34.2948H34.5143V35.8055C34.5143 35.8775 34.4427 35.9494 34.371 35.9494H34.0846C34.013 35.9494 33.9414 35.8775 33.9414 35.8055V32.2806C33.9414 32.2087 34.013 32.1367 34.0846 32.1367H35.5884C36.1612 32.1367 36.6625 32.6403 36.6625 33.2158C36.7341 33.7913 36.2328 34.2229 35.5884 34.2229ZM35.5884 32.6403H34.5143V33.7193H35.5884C35.8748 33.7193 36.1612 33.5035 36.1612 33.1438C36.1612 32.8561 35.9464 32.6403 35.5884 32.6403Z" fill="#1F1C35"/>
<path d="M36.3767 36.0223C36.3051 36.0223 36.2335 36.0223 36.1619 35.9504L34.6581 34.4397V35.7346C34.6581 35.8784 34.5149 36.0223 34.3717 36.0223H34.0853C33.942 36.0223 33.7988 35.8784 33.7988 35.7346V32.2096C33.7988 32.0658 33.942 31.9219 34.0853 31.9219H35.589C36.2335 31.9219 36.8063 32.4974 36.8063 33.1448C36.8063 33.7922 36.3767 34.2958 35.7322 34.3677L36.6631 35.3029C36.8063 35.4468 36.8063 35.5907 36.6631 35.7346L36.4483 35.9504C36.5199 36.0223 36.4483 36.0223 36.3767 36.0223ZM34.1569 32.2096V35.7346H34.4433V34.08H34.8013L36.4483 35.7346L36.5915 35.5187L35.1594 34.08H35.6606C36.1619 34.08 36.5915 33.6484 36.5915 33.1448C36.5915 32.6412 36.1619 32.2096 35.6606 32.2096H34.1569ZM35.589 33.8642H34.3717V32.4974H35.589C35.947 32.4974 36.3051 32.7851 36.3051 33.2167C36.3051 33.5764 36.0186 33.8642 35.589 33.8642ZM34.6581 33.5764H35.589C35.8038 33.5764 35.947 33.4326 35.947 33.2167C35.947 33.0009 35.8038 32.8571 35.589 32.8571H34.6581V33.5764Z" fill="#1F1C35"/>
<path d="M40.529 32.6419H39.5981V35.7352C39.5981 35.8071 39.5265 35.8791 39.4549 35.8791H39.1685C39.0969 35.8791 39.0253 35.8071 39.0253 35.7352V32.6419H38.0944C38.0228 32.6419 37.9512 32.57 37.9512 32.498V32.2103C37.9512 32.1383 38.0228 32.0664 38.0944 32.0664H40.529C40.6006 32.0664 40.6722 32.1383 40.6722 32.2103V32.498C40.6722 32.57 40.6006 32.6419 40.529 32.6419Z" fill="#1F1C35"/>
<path d="M39.4556 36.0223H39.1691C39.0259 36.0223 38.8827 35.8784 38.8827 35.7346V32.7851H38.095C37.9518 32.7851 37.8086 32.6412 37.8086 32.4974V32.2096C37.8086 32.0658 37.9518 31.9219 38.095 31.9219H40.5297C40.6729 31.9219 40.8161 32.0658 40.8161 32.2096V32.4974C40.8161 32.6412 40.6729 32.7851 40.5297 32.7851H39.742V35.7346C39.742 35.8784 39.5988 36.0223 39.4556 36.0223ZM39.0259 32.4974H39.1691V35.8065H39.4556V32.5693H40.5297V32.2816H38.095V32.5693L39.0259 32.4974Z" fill="#1F1C35"/>
<path d="M48.3357 35.23L48.6221 35.5178V35.7336L48.4073 35.9494H48.1925L47.9777 35.5897C47.6912 35.8055 47.4048 35.8775 47.0468 35.8775C46.4739 35.8775 45.9727 35.3739 45.9727 34.7984C45.9727 34.4387 46.1159 34.151 46.3307 34.0071C46.1159 33.7913 45.9727 33.5035 45.9727 33.2158C45.9727 32.6403 46.4739 32.1367 47.0468 32.1367C47.4764 32.1367 47.906 32.4964 47.906 33C47.906 33.2158 47.8344 33.4316 47.6196 33.5755L47.1184 34.0071L47.906 34.7984C47.9777 34.6545 48.0493 34.4387 48.0493 34.2229V33.8632C48.0493 33.7913 48.1209 33.7193 48.1925 33.7193H48.4789C48.5505 33.7193 48.6221 33.7913 48.6221 33.8632V34.2948C48.6221 34.5826 48.5505 34.9423 48.3357 35.23ZM47.0468 32.6403C46.7603 32.6403 46.4739 32.8561 46.4739 33.2158C46.4739 33.4316 46.5455 33.5755 46.6887 33.6474L47.19 33.1438C47.2616 33.0719 47.2616 33 47.2616 32.928C47.3332 32.7842 47.19 32.6403 47.0468 32.6403ZM46.6887 34.3668C46.5455 34.4387 46.4739 34.6545 46.4739 34.7984C46.4739 35.0861 46.6887 35.3739 47.0468 35.3739C47.2616 35.3739 47.4048 35.302 47.6196 35.23L46.6887 34.3668Z" fill="#1F1C35"/>
<path d="M48.3344 36.023C48.2628 36.023 48.1912 36.023 48.1195 35.951L47.9763 35.8071C47.6899 35.951 47.4035 36.0949 47.0454 36.0949C46.401 36.0949 45.8281 35.5194 45.8281 34.872C45.8281 34.5842 45.9713 34.2965 46.1146 34.0807C45.8997 33.8648 45.8281 33.5771 45.8281 33.2893C45.8281 32.6419 46.401 32.0664 47.0454 32.0664C47.6183 32.0664 48.0479 32.498 48.0479 33.0735C48.0479 33.3613 47.9763 33.5771 47.7615 33.7929L47.4035 34.1526L47.9763 34.7281C47.9763 34.6562 48.0479 34.5123 48.0479 34.4403V33.8648C48.0479 33.721 48.1912 33.5771 48.3344 33.5771H48.6208C48.764 33.5771 48.9072 33.721 48.9072 33.8648V34.2965C48.9072 34.6561 48.8356 34.9439 48.6208 35.2316L48.764 35.3755C48.9072 35.5194 48.9072 35.6633 48.764 35.8071L48.5492 36.023C48.4776 36.023 48.406 36.023 48.3344 36.023ZM47.9763 35.3755L48.3344 35.7352L48.4776 35.5194L48.1195 35.1597L48.1912 35.0878C48.3344 34.872 48.4776 34.5842 48.4776 34.2245V33.8648H48.1912V34.2245C48.1912 34.4403 48.1195 34.6562 48.0479 34.872L47.9763 35.0158L46.9022 33.9368L47.4751 33.3613C47.6183 33.2174 47.6899 33.0735 47.6899 32.8577C47.6899 32.498 47.4035 32.2103 47.0454 32.2103C46.5442 32.2103 46.1146 32.6419 46.1146 33.1455C46.1146 33.4332 46.2578 33.649 46.401 33.8648L46.5442 34.0087L46.401 34.1526C46.1862 34.2965 46.1146 34.5842 46.1146 34.872C46.1146 35.3755 46.5442 35.8071 47.0454 35.8071C47.3319 35.8071 47.6899 35.7352 47.9047 35.5194L47.9763 35.3755ZM47.0454 35.5194C46.6874 35.5194 46.3294 35.2316 46.3294 34.8C46.3294 34.5842 46.4726 34.3684 46.6158 34.2245L46.6874 34.1526L47.7615 35.2316L47.6183 35.3036C47.4751 35.4475 47.2603 35.5194 47.0454 35.5194ZM46.6874 34.5123C46.6158 34.5842 46.6158 34.6562 46.6158 34.7281C46.6158 34.9439 46.759 35.0878 46.9738 35.0878C47.0454 35.0878 47.1887 35.0878 47.2603 35.0158L46.6874 34.5123ZM46.759 33.7929L46.6874 33.721C46.4726 33.5771 46.401 33.3613 46.401 33.1455C46.401 32.7858 46.6874 32.4261 47.1171 32.4261C47.3319 32.4261 47.5467 32.6419 47.5467 32.8577C47.5467 33.0016 47.4751 33.0735 47.4035 33.1455L46.759 33.7929ZM47.0454 32.7858C46.8306 32.7858 46.6874 32.9297 46.6874 33.1455C46.6874 33.2174 46.6874 33.3613 46.759 33.3613L47.1887 32.9297L47.2603 32.8577C47.1171 32.8577 47.117 32.7858 47.0454 32.7858Z" fill="#1F1C35"/>
<path d="M55.4946 35.8791H54.9218C54.3489 35.8791 53.8477 35.3755 53.8477 34.8C53.8477 34.7281 53.9193 34.6561 53.9909 34.6561H54.2773C54.3489 34.6561 54.4205 34.7281 54.4205 34.8C54.4205 35.0878 54.6353 35.3755 54.9934 35.3755H55.5662C55.8527 35.3755 56.1391 35.1597 56.1391 34.8C56.1391 34.5123 55.9243 34.2245 55.5662 34.2245H54.9934C54.4205 34.2245 53.9193 33.721 53.9193 33.1455C53.9193 32.57 54.4205 32.0664 54.9934 32.0664H55.5662C56.1391 32.0664 56.6403 32.57 56.6403 33.1455C56.6403 33.2174 56.5687 33.2893 56.4971 33.2893H56.2107C56.1391 33.2893 56.0675 33.2174 56.0675 33.1455C56.0675 32.8577 55.8527 32.57 55.4946 32.57H54.9218C54.6353 32.57 54.3489 32.7858 54.3489 33.1455C54.3489 33.4332 54.5637 33.721 54.9218 33.721H55.4946C56.0675 33.721 56.5687 34.2245 56.5687 34.8C56.5687 35.3755 56.0675 35.8791 55.4946 35.8791Z" fill="#1F1C35"/>
<path d="M55.4953 36.0223H54.9224C54.2779 36.0223 53.7051 35.4468 53.7051 34.7994C53.7051 34.6555 53.8483 34.5116 53.9915 34.5116H54.2779C54.4212 34.5116 54.5644 34.6555 54.5644 34.7994C54.5644 35.0152 54.7076 35.1591 54.9224 35.1591H55.4953C55.7101 35.1591 55.8533 35.0152 55.8533 34.7994C55.8533 34.5836 55.7101 34.4397 55.4953 34.4397H54.9224C54.2779 34.4397 53.7051 33.8642 53.7051 33.1448C53.7051 32.4974 54.2779 31.9219 54.9224 31.9219H55.4953C56.1397 31.9219 56.7126 32.4974 56.7126 33.1448C56.7126 33.2887 56.5694 33.4326 56.4261 33.4326H56.1397C55.9965 33.4326 55.8533 33.2887 55.8533 33.1448C55.8533 32.929 55.7101 32.7851 55.4953 32.7851H54.9224C54.7076 32.7851 54.5644 32.929 54.5644 33.1448C54.5644 33.3606 54.7076 33.5045 54.9224 33.5045H55.4953C56.1397 33.5045 56.7126 34.08 56.7126 34.7274C56.7126 35.3749 56.2113 36.0223 55.4953 36.0223ZM54.2779 34.7994H53.9915C53.9915 35.3029 54.4211 35.7346 54.9224 35.7346H55.4953C55.9965 35.7346 56.4261 35.3029 56.4261 34.7994C56.4261 34.2958 55.9965 33.8642 55.4953 33.8642H54.9224C54.5644 33.8642 54.2063 33.5764 54.2063 33.1448C54.2063 32.7851 54.4928 32.4254 54.9224 32.4254H55.4953C55.8533 32.4254 56.2113 32.7132 56.2113 33.1448H56.4978C56.4978 32.6412 56.0681 32.2096 55.5669 32.2096H54.994C54.4928 32.2096 54.0631 32.6412 54.0631 33.1448C54.0631 33.6484 54.4928 34.08 54.994 34.08H55.5669C55.9249 34.08 56.2829 34.3677 56.2829 34.7994C56.2829 35.1591 55.9965 35.5187 55.5669 35.5187H54.994C54.5644 35.5187 54.2779 35.1591 54.2779 34.7994Z" fill="#1F1C35"/>
<path d="M59.5063 35.8791H58.9335C58.3606 35.8791 57.8594 35.3755 57.8594 34.8V33.1455C57.8594 32.57 58.3606 32.0664 58.9335 32.0664H59.5063C60.0792 32.0664 60.5804 32.57 60.5804 33.1455C60.5804 33.2174 60.5088 33.2893 60.4372 33.2893H60.1508C60.0792 33.2893 60.0076 33.2174 60.0076 33.1455C60.0076 32.8577 59.7928 32.57 59.4347 32.57H58.8619C58.5754 32.57 58.289 32.7858 58.289 33.1455V34.8C58.289 35.0878 58.5038 35.3755 58.8619 35.3755H59.4347C59.7212 35.3755 60.0076 35.1597 60.0076 34.8C60.0076 34.7281 60.0792 34.6561 60.1508 34.6561H60.4372C60.5088 34.6561 60.5804 34.7281 60.5804 34.8C60.5804 35.3755 60.0792 35.8791 59.5063 35.8791Z" fill="#1F1C35"/>
<path d="M59.505 36.0223H58.9322C58.2877 36.0223 57.7148 35.4468 57.7148 34.7994V33.1448C57.7148 32.4974 58.2877 31.9219 58.9322 31.9219H59.505C60.1495 31.9219 60.7223 32.4974 60.7223 33.1448C60.7223 33.2887 60.5791 33.4326 60.4359 33.4326H60.1495C60.0063 33.4326 59.8631 33.2887 59.8631 33.1448C59.8631 32.929 59.7198 32.7851 59.505 32.7851H58.9322C58.7173 32.7851 58.5741 32.929 58.5741 33.1448V34.7994C58.5741 35.0152 58.7173 35.1591 58.9322 35.1591H59.505C59.7198 35.1591 59.8631 35.0152 59.8631 34.7994C59.8631 34.6555 60.0063 34.5116 60.1495 34.5116H60.4359C60.5791 34.5116 60.7223 34.6555 60.7223 34.7994C60.7223 35.4468 60.1495 36.0223 59.505 36.0223ZM58.9322 32.2096C58.4309 32.2096 58.0013 32.6412 58.0013 33.1448V34.7994C58.0013 35.3029 58.4309 35.7346 58.9322 35.7346H59.505C60.0063 35.7346 60.4359 35.3029 60.4359 34.7994H60.1495C60.1495 35.1591 59.8631 35.4468 59.505 35.4468H58.9322C58.5741 35.4468 58.2161 35.1591 58.2161 34.7274V33.1448C58.2161 32.7851 58.5025 32.4254 58.9322 32.4254H59.505C59.8631 32.4254 60.2211 32.7132 60.2211 33.1448H60.5075C60.5075 32.6412 60.0779 32.2096 59.5766 32.2096H58.9322Z" fill="#1F1C35"/>
<path d="M64.3747 35.8807H61.9401C61.8685 35.8807 61.7969 35.8088 61.7969 35.7368V35.4491C61.7969 35.3771 61.8685 35.3052 61.9401 35.3052H62.871V32.5716H62.4413C62.3697 32.5716 62.2981 32.4997 62.2981 32.4277V32.14C62.2981 32.068 62.3697 31.9961 62.4413 31.9961H63.8019C63.8735 31.9961 63.9451 32.068 63.9451 32.14V32.4277C63.9451 32.4997 63.8735 32.5716 63.8019 32.5716H63.3722V35.3052H64.3031C64.3747 35.3052 64.4463 35.3771 64.4463 35.4491V35.7368C64.5179 35.8088 64.4463 35.8807 64.3747 35.8807Z" fill="#1F1C35"/>
<path d="M64.3754 36.0239H61.9407C61.7975 36.0239 61.6543 35.8801 61.6543 35.7362V35.4484C61.6543 35.3046 61.7975 35.1607 61.9407 35.1607H62.7284V32.7148H62.442C62.2988 32.7148 62.1555 32.5709 62.1555 32.4271V32.1393C62.1555 31.9954 62.2988 31.8516 62.442 31.8516H63.8025C63.9457 31.8516 64.0889 31.9954 64.0889 32.1393V32.4271C64.0889 32.5709 63.9457 32.7148 63.8025 32.7148H63.5161V35.1607H64.3038C64.447 35.1607 64.5902 35.3046 64.5902 35.4484V35.7362C64.6618 35.8801 64.5902 36.0239 64.3754 36.0239ZM61.9407 35.5204V35.8081H64.3038V35.5204H63.2297V32.499H63.8025V32.2112H62.442V32.499H63.0148V35.5204H61.9407Z" fill="#1F1C35"/>
<path d="M68.3845 35.8791H65.9499C65.8782 35.8791 65.8066 35.8071 65.8066 35.7352V32.2103C65.8066 32.1383 65.8782 32.0664 65.9499 32.0664H68.3845C68.4561 32.0664 68.5277 32.1383 68.5277 32.2103V32.498C68.5277 32.57 68.4561 32.6419 68.3845 32.6419H66.3795V33.721H67.8832C67.9549 33.721 68.0265 33.7929 68.0265 33.8648V34.1526C68.0265 34.2245 67.9549 34.2965 67.8832 34.2965H66.3795V35.3036H68.3845C68.4561 35.3036 68.5277 35.3755 68.5277 35.4475V35.7352C68.5277 35.8071 68.4561 35.8791 68.3845 35.8791Z" fill="#1F1C35"/>
<path d="M68.3851 36.0223H65.9505C65.8073 36.0223 65.6641 35.8784 65.6641 35.7346V32.2096C65.6641 32.0658 65.8073 31.9219 65.9505 31.9219H68.3851C68.5283 31.9219 68.6716 32.0658 68.6716 32.2096V32.4974C68.6716 32.6412 68.5283 32.7851 68.3851 32.7851H66.5234V33.5764H67.8839C68.0271 33.5764 68.1703 33.7203 68.1703 33.8642V34.1519C68.1703 34.2958 68.0271 34.4397 67.8839 34.4397H66.5234V35.231H68.3851C68.5283 35.231 68.6716 35.3749 68.6716 35.5187V35.8065C68.6716 35.8784 68.5283 36.0223 68.3851 36.0223ZM68.3851 32.2096H65.9505V35.7346H68.3135V35.4468H66.1653V34.08H67.8123V33.7922H66.1653V32.4254H68.3135L68.3851 32.2096Z" fill="#1F1C35"/>
<path d="M72.3233 35.8791H72.0369C71.9652 35.8791 71.8936 35.8071 71.8936 35.7352V35.1597L70.2467 33.5052V35.7352C70.2467 35.8071 70.1751 35.8791 70.1035 35.8791H69.817C69.7454 35.8791 69.6738 35.8071 69.6738 35.7352V32.2103C69.6738 32.1383 69.7454 32.0664 69.817 32.0664H70.1751C70.2467 32.0664 70.3183 32.1383 70.3183 32.2103V32.7858L71.9653 34.4403V32.2103C71.9653 32.1383 72.0369 32.0664 72.1085 32.0664H72.3949C72.4665 32.0664 72.5381 32.1383 72.5381 32.2103V35.7352C72.4665 35.8071 72.4665 35.8791 72.3233 35.8791Z" fill="#1F1C35"/>
<path d="M72.3226 36.0223H72.0362C71.893 36.0223 71.7498 35.8784 71.7498 35.7346V35.231L70.4609 33.9361V35.7346C70.4609 35.8784 70.3176 36.0223 70.1744 36.0223H69.888C69.7448 36.0223 69.6016 35.8784 69.6016 35.7346V32.2096C69.6016 32.0658 69.7448 31.9219 69.888 31.9219H70.1744C70.3176 31.9219 70.4609 32.0658 70.4609 32.2096V32.7132L71.7498 34.0081V32.2096C71.7498 32.0658 71.893 31.9219 72.0362 31.9219H72.3226C72.4658 31.9219 72.6091 32.0658 72.6091 32.2096V35.7346C72.6091 35.8784 72.5375 36.0223 72.3226 36.0223ZM70.1744 33.1448L72.1078 35.0871V35.7346H72.3226V32.2096H72.0362V34.7274L70.1744 32.8571V32.2096H69.888V35.7346H70.1744V33.1448Z" fill="#1F1C35"/>
<path d="M75.4028 35.8791H74.83C74.2571 35.8791 73.7559 35.3755 73.7559 34.8V33.1455C73.7559 32.57 74.2571 32.0664 74.83 32.0664H75.4028C75.9757 32.0664 76.4769 32.57 76.4769 33.1455C76.4769 33.2174 76.4053 33.2893 76.3337 33.2893H76.0473C75.9757 33.2893 75.9041 33.2174 75.9041 33.1455C75.9041 32.8577 75.6892 32.57 75.3312 32.57H74.7584C74.4719 32.57 74.1855 32.7858 74.1855 33.1455V34.8C74.1855 35.0878 74.4003 35.3755 74.7584 35.3755H75.3312C75.6176 35.3755 75.9041 35.1597 75.9041 34.8C75.9041 34.7281 75.9757 34.6561 76.0473 34.6561H76.3337C76.4053 34.6561 76.4769 34.7281 76.4769 34.8C76.4769 35.3755 75.9757 35.8791 75.4028 35.8791Z" fill="#1F1C35"/>
<path d="M75.4015 36.0223H74.8286C74.1842 36.0223 73.6113 35.4468 73.6113 34.7994V33.1448C73.6113 32.4974 74.1842 31.9219 74.8286 31.9219H75.4015C76.046 31.9219 76.6188 32.4974 76.6188 33.1448C76.6188 33.2887 76.4756 33.4326 76.3324 33.4326H76.046C75.9027 33.4326 75.7595 33.2887 75.7595 33.1448C75.7595 32.929 75.6163 32.7851 75.4015 32.7851H74.8286C74.6138 32.7851 74.4706 32.929 74.4706 33.1448V34.7994C74.4706 35.0152 74.6138 35.1591 74.8286 35.1591H75.4015C75.6163 35.1591 75.7595 35.0152 75.7595 34.7994C75.7595 34.6555 75.9027 34.5116 76.046 34.5116H76.3324C76.4756 34.5116 76.6188 34.6555 76.6188 34.7994C76.6188 35.4468 76.046 36.0223 75.4015 36.0223ZM74.8286 32.2096C74.3274 32.2096 73.8978 32.6412 73.8978 33.1448V34.7994C73.8978 35.3029 74.3274 35.7346 74.8286 35.7346H75.4015C75.9028 35.7346 76.3324 35.3029 76.3324 34.7994H76.046C76.046 35.1591 75.7595 35.4468 75.4015 35.4468H74.8286C74.4706 35.4468 74.1126 35.1591 74.1126 34.7274V33.1448C74.1126 32.7851 74.399 32.4254 74.8286 32.4254H75.4015C75.7595 32.4254 76.1176 32.7132 76.1176 33.1448H76.404C76.404 32.6412 75.9744 32.2096 75.4731 32.2096H74.8286Z" fill="#1F1C35"/>
<path d="M80.3435 35.8791H77.9088C77.8372 35.8791 77.7656 35.8071 77.7656 35.7352V32.2103C77.7656 32.1383 77.8372 32.0664 77.9088 32.0664H80.3435C80.4151 32.0664 80.4867 32.1383 80.4867 32.2103V32.498C80.4867 32.57 80.4151 32.6419 80.3435 32.6419H78.3385V33.721H79.8422C79.9138 33.721 79.9854 33.7929 79.9854 33.8648V34.1526C79.9854 34.2245 79.9138 34.2965 79.8422 34.2965H78.3385V35.3036H80.3435C80.4151 35.3036 80.4867 35.3755 80.4867 35.4475V35.7352C80.4151 35.8071 80.4151 35.8791 80.3435 35.8791Z" fill="#1F1C35"/>
<path d="M80.3422 36.0223H77.9075C77.7643 36.0223 77.6211 35.8784 77.6211 35.7346V32.2096C77.6211 32.0658 77.7643 31.9219 77.9075 31.9219H80.3422C80.4854 31.9219 80.6286 32.0658 80.6286 32.2096V32.4974C80.6286 32.6412 80.4854 32.7851 80.3422 32.7851H78.4804V33.5764H79.8409C79.9841 33.5764 80.1273 33.7203 80.1273 33.8642V34.1519C80.1273 34.2958 79.9841 34.4397 79.8409 34.4397H78.4804V35.231H80.3422C80.4854 35.231 80.6286 35.3749 80.6286 35.5187V35.8065C80.6286 35.8784 80.4854 36.0223 80.3422 36.0223ZM80.2706 32.2096H77.8359V35.7346H80.1989V35.4468H78.0507V34.08H79.6977V33.7922H78.0507V32.4254H80.1989L80.2706 32.2096Z" fill="#1F1C35"/>
<path d="M30.1473 67.9642H25.636C25.3496 67.9642 25.1348 67.7483 25.1348 67.4606C25.1348 67.1728 25.3496 66.957 25.636 66.957H30.1473C30.4337 66.957 30.6485 67.1728 30.6485 67.4606C30.6485 67.7483 30.4337 67.9642 30.1473 67.9642Z" fill="#1F1C35"/>
<path d="M84.8543 67.9642H80.343C80.0566 67.9642 79.8418 67.7483 79.8418 67.4606C79.8418 67.1728 80.0566 66.957 80.343 66.957H84.8543C85.1407 66.957 85.3555 67.1728 85.3555 67.4606C85.3555 67.7483 85.1407 67.9642 84.8543 67.9642Z" fill="#1F1C35"/>
<path d="M70.1739 18.1796C70.1023 18.1077 69.9591 17.9638 69.8158 17.9638L65.3046 15.8776C64.9466 15.7337 64.5169 15.5898 64.0873 15.5898H41.8175C41.2446 15.5898 40.7434 15.8057 40.3854 16.1653C40.0273 16.525 39.8125 17.0286 39.8125 17.6041V20.4816C39.8125 21.0571 40.0273 21.5606 40.3854 21.9203C40.7434 22.28 41.2446 22.4958 41.8175 22.4958H64.0873C64.5169 22.4958 64.9466 22.4239 65.3046 22.2081L69.8158 20.1219C69.9591 20.05 70.1023 19.978 70.1739 19.9061C70.6751 19.4025 70.6751 18.6831 70.1739 18.1796ZM41.8175 21.4168C41.5311 21.4168 41.3162 21.2729 41.1014 21.129C40.9582 20.9851 40.815 20.6974 40.815 20.4096V17.5322C40.815 17.2444 40.9582 17.0286 41.1014 16.8128C41.2446 16.6689 41.5311 16.525 41.8175 16.525H44.6102V21.3448L41.8175 21.4168ZM45.1114 21.4168V16.597H46.0423V21.4168H45.1114ZM64.1589 21.4168H46.6152V16.597H64.1589C64.0873 17.1725 63.8725 17.676 63.5144 18.0357C63.0848 18.4673 62.5119 18.7551 61.7959 18.7551H47.4745C47.3312 18.7551 47.188 18.899 47.188 19.0428C47.188 19.1867 47.3312 19.3306 47.4745 19.3306H61.7959C62.4403 19.3306 63.0132 19.6183 63.4428 20.05C63.8725 20.3377 64.0873 20.9132 64.1589 21.4168ZM64.875 21.2729C64.8034 21.3448 64.7317 21.3448 64.5885 21.3448C64.5169 20.6974 64.2305 20.05 63.8009 19.6183C63.586 19.4025 63.2996 19.1867 62.9416 19.0428C63.2996 18.899 63.586 18.6831 63.8009 18.4673C64.2305 18.0357 64.5169 17.3883 64.5885 16.7408C64.6601 16.7408 64.7317 16.8128 64.875 16.8128L66.5935 17.6041V20.4816L64.875 21.2729ZM69.3862 19.1867L67.0948 20.2658V17.8199L69.3862 18.899H69.4578L69.5294 19.0428L69.3862 19.1867Z" fill="#1F1C35"/>
<path d="M39.3131 83.0701C39.3847 83.1421 39.528 83.214 39.5996 83.286C40.3156 83.7176 41.3181 84.2211 42.249 84.7247C42.7503 84.9405 43.1799 85.1563 43.6096 85.3002C44.0392 85.4441 44.4688 85.516 44.8269 85.516C45.6146 85.516 46.259 85.2283 46.6887 84.7966C46.7603 84.7247 46.8319 84.5808 46.9035 84.5089H46.9751L49.7678 84.8686C53.4197 85.3721 55.9976 85.516 59.7211 85.3002C62.3706 85.1563 64.4472 84.7966 67.0251 84.2211C67.7411 84.0773 68.2424 83.9334 68.7436 83.7895C69.2449 83.6456 69.7461 83.4298 70.3906 83.286C70.6054 83.214 70.8202 83.1421 70.9634 82.9982C71.1783 82.7824 71.3215 82.4227 71.3215 82.135C71.3215 81.8472 71.1783 81.4875 70.9634 81.2717C70.8918 81.1998 70.7486 81.1278 70.6054 81.0559L70.5338 80.984L70.3906 80.912C69.7461 80.7682 69.2449 80.5523 68.7436 80.4085C68.2424 80.2646 67.6695 80.1207 67.0251 79.9768C63.946 79.3294 61.4397 78.9697 58.3606 78.8258C55.1383 78.682 53.0617 78.8978 49.911 79.3294L46.9035 79.761C46.8319 79.6891 46.7603 79.5452 46.6887 79.4733C46.259 78.9697 45.5429 78.7539 44.8269 78.7539C44.4688 78.7539 44.0392 78.8258 43.6096 78.9697C42.3206 79.4013 40.6737 80.3365 39.528 80.912C39.3847 80.984 39.3131 81.0559 39.2415 81.1278C38.8119 81.6314 38.8119 82.4946 39.3131 83.0701ZM44.8985 84.2931C44.7553 84.2931 44.4688 84.2211 44.1108 84.0773C43.8244 84.0053 43.4663 83.7895 43.0367 83.6456C43.538 83.7176 43.9676 83.7176 44.3972 83.7176C45.1849 83.6456 45.8294 83.4298 46.3306 83.214C46.259 83.5018 46.1158 83.7176 45.901 83.9334C45.6862 84.1492 45.3997 84.2931 44.8985 84.2931ZM41.1033 82.4227H46.4738C46.0442 82.7105 45.3281 83.0701 44.3256 83.1421C43.3947 83.214 42.3206 82.9982 41.1033 82.4227ZM58.4322 79.9768C61.5113 80.1207 63.8743 80.4804 66.8818 81.0559C67.5263 81.1998 68.0276 81.3436 68.5288 81.4875C68.9584 81.6314 69.4597 81.7753 70.0326 81.9911L70.1758 82.063C69.5313 82.2788 68.9584 82.4227 68.4572 82.5666C67.9559 82.7105 67.4547 82.8543 66.8102 82.9982C64.2324 83.5018 62.299 83.8615 59.7211 84.0053C57.7161 84.1492 56.0692 84.1492 54.3506 84.0053V79.9049C55.6395 79.9049 56.8569 79.9049 58.4322 79.9768ZM53.7778 80.0488V84.0053C53.3481 84.0053 52.9185 83.9334 52.4888 83.8615V80.1207C52.9901 80.1207 53.4197 80.1207 53.7778 80.0488ZM50.1258 80.4804C50.7703 80.4085 51.3431 80.3365 51.916 80.2646V83.8615C51.3431 83.7895 50.6987 83.7176 50.0542 83.6456L47.7628 83.3579V80.8401L50.1258 80.4804ZM44.0392 80.0488C44.3972 79.9049 44.6837 79.833 44.8269 79.833C45.3281 79.833 45.6146 79.9768 45.8294 80.1927C45.9726 80.3365 46.1158 80.6243 46.259 80.912C45.7578 80.6243 45.0417 80.4085 44.1824 80.4085C43.7528 80.4085 43.2515 80.4085 42.7503 80.4804C43.2515 80.3365 43.6812 80.1207 44.0392 80.0488ZM44.254 81.0559C45.2565 81.1278 46.0442 81.4875 46.4738 81.7753H41.1033C42.249 81.1998 43.3231 80.984 44.254 81.0559Z" fill="#1F1C35"/>
</g>
<defs>
<clipPath id="clip0_4340_2695">
<rect width="106.05" height="101" fill="white" transform="translate(0 0.0546875)"/>
</clipPath>
</defs>
</svg>
