<svg width="123" height="102" viewBox="0 0 123 102" fill="none" xmlns="http://www.w3.org/2000/svg">
<g clip-path="url(#clip0_4340_2750)">
<path d="M11.74 45.3558C12.8786 46.5699 13.5617 48.1634 13.5617 49.9846C13.5617 51.8058 12.8786 53.3993 11.74 54.6135C10.6773 55.8276 9.00733 56.5864 7.33738 56.5864C5.59152 56.5864 3.92157 55.8276 2.85887 54.6135C1.72027 53.3993 1.03711 51.8058 1.03711 49.9846C1.03711 48.1634 1.72027 46.5699 2.85887 45.3558C3.99748 44.1416 5.59152 43.3828 7.33738 43.3828C9.08323 43.3828 10.6773 44.1416 11.74 45.3558ZM11.5123 50.0605C11.5123 48.8464 10.9809 47.6323 10.2977 46.8734C9.53867 46.0387 8.47598 45.5834 7.41328 45.5834C6.27468 45.5834 5.21199 46.0387 4.45292 46.8734C3.69385 47.7081 3.23841 48.8464 3.23841 50.0605C3.23841 51.2746 3.69385 52.4887 4.45292 53.2476C5.21199 54.0823 6.27468 54.5376 7.41328 54.5376C8.55189 54.5376 9.53867 54.0064 10.2977 53.2476C11.0568 52.4129 11.5123 51.2746 11.5123 50.0605Z" fill="#1F1C35"/>
<path d="M16.8262 55.6017V44.8263C16.8262 44.2951 17.2816 43.8398 17.813 43.8398C18.4202 43.8398 18.8757 44.2951 18.8757 44.8263V54.6152H23.8855C24.4169 54.6152 24.8723 55.0705 24.8723 55.6776C24.8723 56.2087 24.4169 56.664 23.8855 56.664H17.9648C17.2816 56.664 16.8262 56.2087 16.8262 55.6017Z" fill="#1F1C35"/>
<path d="M27.0742 55.6017V44.8263C27.0742 44.2951 27.5297 43.8398 28.061 43.8398H30.2623C33.8299 43.8398 36.6385 46.7234 36.6385 50.214C36.6385 53.7805 33.754 56.664 30.2623 56.664H28.061C27.5297 56.664 27.0742 56.2087 27.0742 55.6017ZM29.1237 54.6152H30.2623C32.6913 54.6152 34.6649 52.6422 34.6649 50.214C34.6649 47.7857 32.6913 45.8128 30.2623 45.8128H29.1237V54.6152Z" fill="#1F1C35"/>
<path d="M44.6844 53.4758C44.988 53.0964 45.5953 53.0205 46.0507 53.324C46.8857 54.007 48.252 54.7658 49.5424 54.7658C50.4533 54.7658 51.2883 54.4623 51.8197 54.0829C52.351 53.7034 52.5787 53.2482 52.5787 52.7929C52.5787 52.5652 52.5028 52.4134 52.4269 52.1858C52.351 52.034 52.1233 51.8064 51.8956 51.6546C51.3642 51.2752 50.4533 50.9717 49.3906 50.8199C48.5557 50.6681 47.7207 50.4405 47.0375 50.137C46.3544 49.8334 45.7471 49.3781 45.3676 48.6952C45.0639 48.2399 44.9121 47.7087 44.9121 47.1775C44.9121 46.0393 45.5194 45.1287 46.3544 44.5216C47.1893 43.9146 48.3279 43.5352 49.5424 43.5352C51.2883 43.5352 52.5787 44.3699 53.5655 44.9769C54.021 45.2805 54.0969 45.8875 53.7932 46.2669C53.4896 46.7222 52.9583 46.7981 52.5028 46.5705C51.5919 45.9634 50.6811 45.4322 49.5424 45.4322C48.7075 45.4322 47.9484 45.6599 47.493 46.0393C46.9616 46.4187 46.8098 46.7981 46.8098 47.1775C46.8098 47.4052 46.8098 47.5569 46.9616 47.7087C47.0375 47.8605 47.1893 48.0122 47.493 48.164C47.9484 48.4675 48.7834 48.7711 49.7702 48.9987C50.6811 49.1505 51.5919 49.454 52.2751 49.7575C53.0342 50.137 53.7173 50.5923 54.0969 51.2752C54.4005 51.7305 54.5523 52.2617 54.5523 52.8687C54.5523 54.007 53.8691 55.0693 52.9583 55.6764C52.0474 56.3594 50.8329 56.7388 49.5424 56.7388C47.5689 56.7388 45.8989 55.7523 44.8362 54.9176C44.3808 54.4623 44.3049 53.8552 44.6844 53.4758Z" fill="#1F1C35"/>
<path d="M56.5254 50.0627C56.5254 46.4204 59.5617 43.4609 63.2811 43.4609C64.8751 43.4609 66.3933 43.9921 67.5319 44.9027C67.9873 45.2821 68.0632 45.8892 67.6837 46.3445C67.3042 46.7998 66.621 46.8757 66.2415 46.5721C65.4065 45.8892 64.4197 45.5857 63.2811 45.5857C61.9907 45.5857 60.8521 46.1168 59.9412 46.8757C59.1062 47.7104 58.5749 48.8486 58.5749 50.0627C58.5749 51.2769 59.1062 52.4151 59.9412 53.2498C60.7762 54.0845 61.9907 54.5398 63.2811 54.5398C64.4197 54.5398 65.4065 54.1604 66.2415 53.5533C66.6969 53.2498 67.3801 53.3257 67.6837 53.781C67.9873 54.2363 67.9114 54.9192 67.5319 55.2228C66.3933 56.1334 64.8751 56.6645 63.2811 56.6645C59.5617 56.6645 56.5254 53.7051 56.5254 50.0627Z" fill="#1F1C35"/>
<path d="M70.873 55.6017V44.8263C70.873 44.2951 71.3285 43.8398 71.8598 43.8398C72.4671 43.8398 72.9225 44.2951 72.9225 44.8263V49.2275H77.7047V44.8263C77.7047 44.2951 78.1601 43.8398 78.6914 43.8398C79.2987 43.8398 79.7541 44.2951 79.7541 44.8263V55.6776C79.7541 56.2087 79.2987 56.664 78.6914 56.664C78.1601 56.664 77.7047 56.2087 77.7047 55.6776V51.2764H72.9225V55.6776C72.9225 56.2087 72.4671 56.664 71.8598 56.664C71.3285 56.664 70.873 56.2087 70.873 55.6017Z" fill="#1F1C35"/>
<path d="M93.6443 45.3558C94.7829 46.5699 95.466 48.1634 95.466 49.9846C95.466 51.8058 94.7829 53.3993 93.6443 54.6135C92.5816 55.8276 90.9116 56.5864 89.2417 56.5864C87.4958 56.5864 85.8259 55.8276 84.7632 54.6135C83.6246 53.3993 82.9414 51.8058 82.9414 49.9846C82.9414 48.1634 83.6246 46.5699 84.7632 45.3558C85.9018 44.1416 87.4958 43.3828 89.2417 43.3828C90.9875 43.3828 92.5816 44.1416 93.6443 45.3558ZM93.4166 50.0605C93.4166 48.8464 92.8852 47.6323 92.202 46.8734C91.443 46.0387 90.3803 45.5834 89.3176 45.5834C88.179 45.5834 87.1163 46.0387 86.3572 46.8734C85.5981 47.7081 85.1427 48.8464 85.1427 50.0605C85.1427 51.2746 85.5981 52.4887 86.3572 53.2476C87.1163 54.0823 88.179 54.5376 89.3176 54.5376C90.4562 54.5376 91.443 54.0064 92.202 53.2476C92.8852 52.4129 93.4166 51.2746 93.4166 50.0605Z" fill="#1F1C35"/>
<path d="M108.826 45.3558C109.965 46.5699 110.648 48.1634 110.648 49.9846C110.648 51.8058 109.965 53.3993 108.826 54.6135C107.763 55.8276 106.093 56.5864 104.423 56.5864C102.677 56.5864 101.008 55.8276 99.9448 54.6135C98.8062 53.3993 98.123 51.8058 98.123 49.9846C98.123 48.1634 98.8062 46.5699 99.9448 45.3558C101.083 44.1416 102.677 43.3828 104.423 43.3828C106.093 43.3828 107.687 44.1416 108.826 45.3558ZM108.522 50.0605C108.522 48.8464 107.991 47.6323 107.308 46.8734C106.549 46.0387 105.486 45.5834 104.423 45.5834C103.285 45.5834 102.222 46.0387 101.463 46.8734C100.704 47.7081 100.248 48.8464 100.248 50.0605C100.248 51.2746 100.704 52.4887 101.463 53.2476C102.222 54.0823 103.285 54.5376 104.423 54.5376C105.562 54.5376 106.549 54.0064 107.308 53.2476C108.067 52.4129 108.522 51.2746 108.522 50.0605Z" fill="#1F1C35"/>
<path d="M113.91 55.6017V44.8263C113.91 44.2951 114.366 43.8398 114.897 43.8398C115.504 43.8398 115.96 44.2951 115.96 44.8263V54.6152H120.969C121.501 54.6152 121.956 55.0705 121.956 55.6776C121.956 56.2087 121.501 56.664 120.969 56.664H115.049C114.29 56.664 113.91 56.2087 113.91 55.6017Z" fill="#1F1C35"/>
<path d="M14.0935 38.9067H0.0507812V36.6302H12.4236C18.648 15.0795 38.6115 0.0546875 61.1558 0.0546875C83.3206 0.0546875 103.132 14.7001 109.66 35.7955H122.261V38.072H107.914L107.687 37.2373C101.766 16.673 82.6374 2.33117 61.1558 2.33117C39.2946 2.33117 20.0902 17.0524 14.3213 38.072L14.0935 38.9067Z" fill="#1F1C35"/>
<path d="M40.0538 38.9068H31.2486C31.0209 38.9068 30.7932 38.755 30.6414 38.6032C30.4896 38.3756 30.4896 38.1479 30.5655 37.9203C35.8031 25.4755 47.8722 17.5078 61.2318 17.5078C74.2119 17.5078 86.0534 25.0961 91.5187 36.8579C91.5946 37.0856 91.5946 37.3891 91.4428 37.6168C91.291 37.8444 91.0632 37.9962 90.8355 37.9962H82.258C81.8026 37.9962 81.499 37.6926 81.499 37.2373C81.499 36.782 81.8026 36.4785 82.258 36.4785H89.621C84.2316 25.8549 73.2251 19.0255 61.2318 19.0255C48.7831 19.0255 37.6248 26.1585 32.3872 37.3891H40.0538C40.5093 37.3891 40.8129 37.6926 40.8129 38.1479C40.8129 38.6032 40.5093 38.9068 40.0538 38.9068Z" fill="#1F1C35"/>
<path d="M27.1498 32.5326H27.0738H26.9979L23.3544 32.1532C23.2026 32.1532 23.0508 32.0015 23.0508 31.7738C23.0508 31.622 23.2026 31.4703 23.4303 31.4703L26.3148 31.7738L24.493 29.4973C24.4171 29.3456 24.4171 29.1179 24.5689 29.042C24.7207 28.9661 24.8725 28.9661 25.0244 29.1179L27.3016 32.0015V32.0773V32.1532V32.2291V32.305V32.3809V32.4568V32.5326H27.1498Z" fill="#1F1C35"/>
<path d="M27.0736 32.759L26.9977 32.6831L23.3541 32.3037C23.2023 32.3037 23.1264 32.2278 23.0505 32.1519C22.9746 32.076 22.9746 31.9243 22.9746 31.7725C22.9746 31.6966 23.0505 31.5449 23.1264 31.469C23.2023 31.3931 23.3541 31.3172 23.506 31.3931L26.0109 31.6966L24.4168 29.7237C24.3409 29.6478 24.3409 29.496 24.3409 29.3443C24.3409 29.1925 24.4168 29.1166 24.4927 29.0407C24.5687 28.9648 24.7205 28.9648 24.7964 28.9648C24.9482 28.9648 25.0241 29.0407 25.1 29.1166L27.3772 32.0002L27.4531 32.076V32.1519V32.2278V32.3037L27.3772 32.3796V32.4555V32.5313L27.2254 32.6831H27.1495L27.0736 32.759ZM23.3541 31.6966L23.2782 31.7725L23.2023 31.8484V32.0002L23.2782 32.076L26.8459 32.4555H26.9218L26.9977 32.3796L26.9218 32.2278L24.7205 29.4201L24.6446 29.3443H24.4927L24.4168 29.4201V29.5719L26.4663 32.1519L23.3541 31.6966Z" fill="#1F1C35"/>
<path d="M27.1492 25.706C26.9974 25.6301 26.9974 25.4025 27.0733 25.2507C27.1492 25.099 27.3769 25.099 27.5287 25.1748L30.2614 27.2237C30.4132 27.2996 30.4132 27.5272 30.3373 27.679C30.2614 27.8307 30.0337 27.8307 29.8818 27.7549L27.1492 25.706Z" fill="#1F1C35"/>
<path d="M30.1106 27.9776C30.0347 27.9776 29.8828 27.9776 29.8069 27.9017L27.0743 25.8529C26.8466 25.7011 26.8466 25.3976 26.9984 25.1699C27.1502 24.9423 27.4538 24.9423 27.6815 25.0941L30.4142 27.1429C30.4901 27.2188 30.566 27.2947 30.566 27.4464C30.566 27.5982 30.566 27.6741 30.4901 27.8258C30.4142 27.9017 30.2624 27.9017 30.1106 27.9776ZM27.3779 25.3217L27.2261 25.3976C27.1502 25.4735 27.1502 25.5494 27.2261 25.6252L29.9588 27.6741H30.1106L30.1865 27.5982V27.4464V27.3705L27.4538 25.3217H27.3779Z" fill="#1F1C35"/>
<path d="M33.1461 23.8092C33.2979 23.9609 33.2979 24.1127 33.1461 24.2644C32.9943 24.4162 32.8425 24.4162 32.6907 24.2644L30.2616 21.9121C30.1857 21.8362 30.1098 21.7603 30.1857 21.6086C30.1857 21.4568 30.3376 21.305 30.5653 21.3809L33.6775 21.8362L32.0075 20.1668C31.8557 20.015 31.8557 19.8632 32.0075 19.7115C32.1593 19.5597 32.3111 19.5597 32.4629 19.7115L34.892 22.0638C35.0438 22.2156 35.0438 22.3674 34.892 22.5191C34.8161 22.595 34.7401 22.595 34.6642 22.595H34.5883L31.4762 22.1397L33.1461 23.8092Z" fill="#1F1C35"/>
<path d="M32.9177 24.4876C32.7658 24.4876 32.6899 24.4117 32.614 24.3358L30.185 21.9835C30.1091 21.9076 30.0332 21.7558 30.0332 21.6041C30.1091 21.3764 30.3368 21.1488 30.5646 21.2247L33.2213 21.6041L31.9309 20.2382C31.7791 20.0864 31.7791 19.7829 31.9309 19.5552C32.0827 19.4035 32.3863 19.4035 32.614 19.5552L35.0431 21.9076C35.119 21.9835 35.1949 22.1352 35.1949 22.2111C35.1949 22.3629 35.119 22.4388 35.0431 22.5147C34.9671 22.5905 34.8153 22.6664 34.6635 22.6664H34.5876L31.9309 22.287L33.2972 23.6529C33.449 23.8047 33.449 24.1082 33.2972 24.3358C33.1454 24.4117 33.0695 24.4876 32.9177 24.4876ZM30.4886 21.4523C30.4127 21.4523 30.3368 21.5282 30.3368 21.6041L30.4127 21.7558L32.8418 24.1082H33.0695V23.8805L31.02 21.9076L34.5876 22.4388C34.6635 22.4388 34.7394 22.4388 34.7394 22.3629L34.8153 22.2111L34.7394 22.0594L32.3104 19.7829H32.0827V20.0105L34.1322 21.9835L30.4886 21.4523Z" fill="#1F1C35"/>
<path d="M38.1563 15.4599L37.3973 15.9911L39.219 18.4952C39.2949 18.647 39.2949 18.7988 39.1431 18.9505C38.9913 19.0264 38.8395 19.0264 38.6877 18.8747L36.8659 16.3705L36.1069 16.9017C35.955 16.9776 35.7273 16.9776 35.6514 16.8258C35.5755 16.6741 35.5755 16.5223 35.7273 16.3705L37.7009 14.9288C37.8527 14.8529 38.0045 14.8529 38.1563 15.0046C38.3082 15.0805 38.3082 15.3082 38.1563 15.4599Z" fill="#1F1C35"/>
<path d="M38.9907 19.1011C38.763 19.1011 38.6871 19.0252 38.6112 18.8735L36.8654 16.5211L36.2581 16.9764C36.1822 17.0523 36.0304 17.0523 35.8786 17.0523C35.7268 17.0523 35.6508 16.9764 35.5749 16.8246C35.4231 16.597 35.499 16.2935 35.6508 16.1417L37.6244 14.6999C37.8521 14.5481 38.1558 14.624 38.3076 14.7758C38.4594 15.0034 38.3835 15.307 38.2317 15.4587L37.6244 15.9899L39.3703 18.3423C39.5221 18.5699 39.4462 18.8735 39.2944 19.0252C39.1426 19.1011 39.0667 19.1011 38.9907 19.1011ZM36.9413 16.1417L38.8389 18.7217L38.9148 18.7976H39.0667L39.1426 18.7217V18.5699L37.2449 15.9899L38.0799 15.3829C38.1558 15.307 38.1558 15.2311 38.0799 15.1552C38.004 15.0793 37.9281 15.0793 37.8521 15.1552L35.8786 16.597L35.8027 16.6729V16.8246L35.8786 16.9005H36.0304L36.9413 16.1417Z" fill="#1F1C35"/>
<path d="M44.4552 14.5462L43.2407 15.2291L43.3166 15.9879C43.3166 16.1397 43.2407 16.2156 43.1648 16.2915H43.0889C42.9371 16.2915 42.7853 16.2156 42.7093 15.9879L42.2539 12.3456C42.2539 12.1938 42.3298 12.042 42.4057 12.042C42.5575 11.9661 42.6334 11.9661 42.7853 12.1179L45.442 14.5462C45.5938 14.6979 45.5938 14.8497 45.442 15.0015L45.3661 15.0773C45.2902 15.1532 45.1384 15.1532 44.9866 15.0015L44.4552 14.5462ZM43.9998 14.0909L43.013 13.1803L43.1648 14.4703L43.9998 14.0909Z" fill="#1F1C35"/>
<path d="M43.0144 16.5191C42.7867 16.5191 42.559 16.3674 42.559 16.1397L42.1035 12.4973C42.1035 12.2697 42.1794 12.1179 42.4071 12.042C42.559 11.9661 42.7867 11.9661 42.9385 12.1179L45.5952 14.5462C45.8229 14.6979 45.8229 15.0015 45.5952 15.2291L45.4434 15.305C45.2916 15.3809 45.0639 15.3809 44.9121 15.2291L44.3807 14.7738L43.318 15.305L43.3939 15.9879C43.3939 16.2156 43.318 16.3674 43.1662 16.4432L43.0144 16.5191ZM42.6349 12.2697H42.559C42.483 12.2697 42.483 12.3456 42.483 12.4214L42.9385 15.9879C42.9385 16.0638 43.0144 16.1397 43.1662 16.1397H43.2421C43.318 16.1397 43.318 16.0638 43.318 15.9879L43.2421 15.0773L44.6843 14.3185L45.3675 14.9256H45.5193H45.5952C45.6711 14.8497 45.6711 14.7738 45.5952 14.6979L42.9385 12.2697H42.6349ZM43.0144 14.7738L42.7867 12.8767L44.2289 14.1667L43.0144 14.7738ZM43.1662 13.6356L43.2421 14.3185L43.6976 14.0909L43.1662 13.6356Z" fill="#1F1C35"/>
<path d="M48.025 11.8147C47.7214 10.6765 48.3287 9.53821 49.4673 9.23468C49.9227 9.08291 50.454 9.08291 50.8336 9.31056C50.9854 9.38644 51.0613 9.53821 51.0613 9.76586C50.9854 9.91762 50.8336 9.99351 50.6059 9.91762C50.3022 9.84174 49.9986 9.76586 49.6191 9.91762C49.2395 10.0694 48.9359 10.297 48.7841 10.6006C48.6323 10.9041 48.5564 11.2835 48.6323 11.6629C48.7082 12.0423 49.0118 12.3459 49.3154 12.4976C49.6191 12.6494 49.9986 12.7253 50.454 12.5735C50.7577 12.4976 50.9854 12.3459 51.1372 12.1182L50.9095 11.3594L50.1504 11.587C49.9986 11.6629 49.7709 11.5112 49.7709 11.3594C49.695 11.2076 49.8468 10.98 49.9986 10.98L51.0613 10.6765C51.2131 10.6006 51.4408 10.6765 51.4408 10.9041L51.8204 12.1182V12.1941L51.7445 12.3459C51.5167 12.7253 51.0613 13.0288 50.6059 13.1806C49.5432 13.56 48.3287 12.9529 48.025 11.8147Z" fill="#1F1C35"/>
<path d="M49.9976 13.4116C49.6181 13.4116 49.3145 13.3357 48.9349 13.1839C48.4036 12.8804 48.024 12.4251 47.7963 11.8939C47.4168 10.6798 48.0999 9.46565 49.3145 9.08624C49.7699 8.93447 50.3012 8.93447 50.8326 9.16212C50.9844 9.23801 51.0603 9.31389 51.1362 9.38977C51.2121 9.54154 51.2121 9.61742 51.1362 9.76919C51.0603 9.92095 50.9844 9.99683 50.9085 10.0727C50.7567 10.1486 50.6808 10.1486 50.529 10.0727C50.2253 9.99683 49.9217 9.99683 49.694 10.0727C49.3145 10.1486 49.0867 10.3762 48.9349 10.6798C48.7831 10.9833 48.7072 11.3627 48.859 11.6663C48.9349 11.9698 49.1626 12.2733 49.4663 12.4251C49.7699 12.5768 50.1494 12.6527 50.4531 12.501C50.6808 12.4251 50.8326 12.3492 50.9844 12.1974L50.8326 11.6663L50.1494 11.7421C49.9976 11.7421 49.9217 11.7421 49.7699 11.7421C49.6181 11.6663 49.5422 11.5904 49.5422 11.4386C49.5422 11.2868 49.5422 11.211 49.5422 11.0592C49.6181 10.9833 49.694 10.8315 49.8458 10.8315L50.9085 10.528C51.0603 10.4521 51.1362 10.528 51.288 10.528C51.4398 10.6039 51.5158 10.6798 51.5158 10.8315L51.8953 12.0457V12.1216V12.1974C51.8953 12.2733 51.8953 12.3492 51.8194 12.4251C51.5157 12.8045 51.1362 13.108 50.6049 13.2598C50.4531 13.4116 50.2253 13.4116 49.9976 13.4116ZM50.0735 9.23801C49.8458 9.23801 49.694 9.23801 49.4663 9.31389C48.4036 9.61742 47.7963 10.7557 48.1758 11.7421C48.3277 12.1974 48.6313 12.6527 49.1626 12.8804C49.6181 13.108 50.1494 13.1839 50.6808 13.0321C51.1362 12.8804 51.4398 12.6527 51.7435 12.2733V12.1974V12.1216L51.3639 10.9074C51.3639 10.8315 51.2121 10.7557 51.1362 10.8315L50.0735 11.1351L49.9976 11.211V11.3627L50.0735 11.4386H50.2253L51.1362 11.1351L51.4398 12.1216L51.2121 12.1974C50.9844 12.4251 50.7567 12.5768 50.4531 12.6527C49.9976 12.8045 49.6181 12.7286 49.2385 12.5768C48.859 12.3492 48.5554 12.0457 48.4795 11.6663C48.3277 11.2868 48.4036 10.8315 48.6313 10.4521C48.859 10.0727 49.1626 9.76919 49.6181 9.6933C49.9217 9.61742 50.3012 9.61742 50.6808 9.6933H50.8326L50.9085 9.61742V9.46565L50.8326 9.38977C50.529 9.31389 50.3012 9.23801 50.0735 9.23801Z" fill="#1F1C35"/>
<path d="M55.9182 11.6647L55.4629 8.32581C55.4629 8.17405 55.5388 8.02228 55.7664 7.9464L57.5876 7.71875C57.7394 7.71875 57.8911 7.79463 57.967 8.02228C57.967 8.17405 57.8911 8.32581 57.6635 8.40169L56.1458 8.55346L56.2976 9.61582L57.6635 9.46405C57.8153 9.46405 57.967 9.53994 58.0429 9.76759C58.0429 9.91935 57.967 10.0711 57.7394 10.147L56.3735 10.2988L56.5253 11.3611L58.0429 11.2094C58.1947 11.2094 58.3464 11.2852 58.4223 11.5129C58.4223 11.6647 58.3464 11.8164 58.1188 11.8923L56.2217 11.9682C56.07 11.9682 55.9182 11.8164 55.9182 11.6647Z" fill="#1F1C35"/>
<path d="M56.1458 12.121C56.0699 12.121 55.994 12.0452 55.9181 11.9693C55.8422 11.8934 55.7663 11.8175 55.7663 11.6657L55.3867 8.25102C55.3867 8.09925 55.3867 8.02337 55.4626 7.8716C55.5385 7.79572 55.6144 7.71984 55.7663 7.71984L57.6639 7.49219C57.8916 7.49219 58.1194 7.64395 58.1953 7.8716C58.1953 8.02337 58.1953 8.09925 58.1194 8.25102C58.0435 8.3269 57.8916 8.40278 57.8157 8.40278L56.4494 8.55455L56.5253 9.31337L57.7398 9.16161C57.8916 9.16161 57.9675 9.16161 58.1194 9.23749C58.1953 9.31337 58.2712 9.46514 58.2712 9.54102C58.2712 9.76867 58.1194 10.0722 57.8916 10.0722L56.6771 10.224L56.753 10.9828L58.1194 10.831C58.3471 10.831 58.5748 10.9828 58.6507 11.2863C58.6507 11.4381 58.6507 11.514 58.5748 11.6657C58.4989 11.7416 58.3471 11.8175 58.2712 11.8175L56.2217 12.121H56.1458ZM57.6639 7.8716L55.7663 8.09925L55.6144 8.17513V8.3269L55.994 11.7416L56.0699 11.8175H56.1458L56.2976 11.5899V11.8175L58.0435 11.5899L58.1194 11.514V11.3622C58.1194 11.2863 58.0435 11.2104 57.9676 11.2104L56.3735 11.4381L56.2217 10.0722L57.7398 9.92044C57.8157 9.92044 57.8916 9.84455 57.8916 9.76867L57.7398 9.61691H57.588L56.0699 9.76867L55.994 8.40278L57.6639 8.17513L57.7398 8.09925V7.94748C57.8157 7.94748 57.7398 7.8716 57.6639 7.8716Z" fill="#1F1C35"/>
<path d="M67.8356 12.1179L67.7597 12.042V11.9661L67.0007 8.3996C66.9248 8.24783 67.0766 8.09607 67.2284 8.02018C67.3802 7.9443 67.532 8.09607 67.6079 8.24783L68.2152 11.0555L69.8092 8.62725C69.8851 8.47548 70.1128 8.47548 70.2647 8.55136C70.4165 8.62725 70.4165 8.85489 70.3406 9.00666L68.2911 12.042V12.1179H68.2152H68.1393H68.0634H67.9874H67.9115H67.8356Z" fill="#1F1C35"/>
<path d="M68.14 12.4241H68.0641H67.9882H67.9123H67.8364H67.6846V12.3482V12.1964H67.6087V12.1205V12.0446L66.8496 8.47816C66.8496 8.32639 66.8496 8.25051 66.9255 8.09874C67.0014 8.02286 67.0773 7.94698 67.2291 7.87109C67.3051 7.87109 67.4569 7.87109 67.5328 7.94698C67.6087 8.02286 67.6846 8.09874 67.7605 8.25051L68.2918 10.7546L69.6582 8.62992C69.7341 8.55404 69.81 8.47816 69.9618 8.40227C70.1136 8.40227 70.1895 8.40227 70.3413 8.47816C70.4172 8.55404 70.4931 8.62992 70.569 8.78169C70.569 8.93345 70.569 9.00934 70.4931 9.1611L68.4437 12.1964V12.2723H68.3677H68.2918L68.14 12.4241ZM68.0641 12.0446H68.14L68.2159 11.9688L70.1895 8.93345V8.78169L70.1136 8.7058H69.9618L69.8859 8.78169L68.0641 11.5135L67.381 8.32639L67.305 8.25051H67.1532L67.0773 8.32639V8.47816L67.9123 12.1205L68.0641 12.0446Z" fill="#1F1C35"/>
<path d="M74.3629 10.0714C74.4387 9.91963 74.5905 9.84375 74.7423 9.84375C74.894 9.91963 74.9699 10.0714 74.9699 10.2232L73.8317 13.4102C73.7558 13.562 73.604 13.6379 73.4523 13.6379C73.3005 13.562 73.2246 13.4102 73.2246 13.2585L74.3629 10.0714Z" fill="#1F1C35"/>
<path d="M73.5278 13.7893H73.376C73.1484 13.7134 72.9966 13.4099 73.0725 13.1822L74.2107 9.99515C74.2866 9.7675 74.5901 9.61573 74.8178 9.69161C74.9695 9.7675 75.0454 9.84338 75.1213 9.91926C75.1972 10.071 75.1972 10.1469 75.1213 10.2987L73.9831 13.4858C73.9072 13.6375 73.8313 13.7134 73.7554 13.7893C73.6795 13.7893 73.6037 13.7893 73.5278 13.7893ZM74.5142 10.071L73.376 13.2581C73.376 13.334 73.376 13.4099 73.4519 13.4858H73.6037L73.6795 13.4099L74.8178 10.2228V10.071L74.7419 9.99515C74.5901 9.91926 74.5142 9.99515 74.5142 10.071Z" fill="#1F1C35"/>
<path d="M77.3989 14.9278L78.9166 11.8925C78.9924 11.7407 79.2201 11.6648 79.3719 11.7407C79.5236 11.8166 79.5995 12.0442 79.5236 12.196L78.1577 14.9278L79.5236 15.6107C79.6754 15.6866 79.7513 15.9143 79.6754 16.066C79.5995 16.2178 79.3719 16.2937 79.2201 16.2178L77.5507 15.3831C77.3989 15.3072 77.323 15.0796 77.3989 14.9278Z" fill="#1F1C35"/>
<path d="M79.3719 16.3677C79.296 16.3677 79.2202 16.3677 79.1443 16.2918L77.4749 15.4571C77.2472 15.3053 77.1713 15.0777 77.2472 14.85L78.7649 11.8147C78.9166 11.587 79.1443 11.5112 79.3719 11.587C79.4478 11.6629 79.5996 11.7388 79.5996 11.8906C79.6755 12.0423 79.5996 12.1182 79.5996 12.27L78.2337 14.85L79.5237 15.4571C79.5996 15.533 79.7513 15.6088 79.7513 15.7606C79.8272 15.9124 79.7513 15.9883 79.7513 16.14C79.7513 16.2918 79.5237 16.3677 79.3719 16.3677ZM77.5507 15.0018C77.4749 15.0777 77.5507 15.1535 77.6266 15.2294L79.296 16.0641C79.3719 16.14 79.4478 16.0641 79.5237 15.9883V15.8365L79.4478 15.7606L77.9302 15.0018L79.3719 12.1182V11.9665L79.296 11.8906C79.2202 11.8147 79.1443 11.8906 79.0684 11.9665L77.5507 15.0018Z" fill="#1F1C35"/>
<path d="M82.6377 17.8888L84.6107 15.157C84.6866 15.0052 84.9142 15.0052 85.066 15.0811C85.2177 15.157 85.2177 15.3846 85.1419 15.5364L83.3207 18.0405L84.6107 18.9511C84.7625 19.027 84.7625 19.2546 84.6866 19.4064C84.6107 19.5582 84.383 19.5582 84.2313 19.4823L82.7136 18.4199C82.5619 18.2682 82.5619 18.0405 82.6377 17.8888Z" fill="#1F1C35"/>
<path d="M84.4582 19.7073C84.3823 19.7073 84.2305 19.7073 84.1546 19.6314L82.637 18.569C82.4093 18.4173 82.3334 18.1137 82.4852 17.8861L84.4582 15.1543C84.6099 14.9267 84.9135 14.9267 85.1411 15.0784C85.3688 15.2302 85.3688 15.5337 85.217 15.7614L83.4717 18.1137L84.6099 18.9484C84.8376 19.1002 84.8376 19.4037 84.6858 19.6314C84.6858 19.6314 84.534 19.7073 84.4582 19.7073ZM82.7887 18.0379C82.7129 18.1137 82.7887 18.1896 82.7887 18.2655L84.3064 19.4037C84.3823 19.4796 84.4582 19.4037 84.534 19.4037C84.6099 19.3279 84.534 19.252 84.534 19.1761L83.1682 18.1896L85.0652 15.5337C85.1411 15.4578 85.0652 15.382 84.9893 15.3061C84.9135 15.2302 84.8376 15.3061 84.7617 15.3061L82.7887 18.0379Z" fill="#1F1C35"/>
<path d="M89.2408 22.6672L88.2541 21.6807L87.495 21.9843C87.3432 22.0602 87.2673 21.9843 87.1154 21.9084L87.0395 21.8325C86.9636 21.6807 87.0395 21.4531 87.1914 21.3772L90.4554 19.8596C90.6072 19.7837 90.759 19.8596 90.8349 19.9354C90.9108 20.0113 90.9867 20.1631 90.9108 20.3149L89.4686 23.6537C89.3927 23.8055 89.2408 23.8813 89.0131 23.8055L88.9372 23.7296C88.8613 23.6537 88.7854 23.5019 88.8613 23.3502L89.2408 22.6672ZM89.5445 22.0602L90.0758 20.846L88.8613 21.3772L89.5445 22.0602Z" fill="#1F1C35"/>
<path d="M89.2415 24.0331L89.0138 23.9572L88.8619 23.8813C88.7101 23.7296 88.7101 23.5019 88.786 23.3502L89.0897 22.7431L88.2547 21.9084L87.6474 22.2119C87.4956 22.2878 87.2679 22.2878 87.1161 22.136L87.0402 21.9843C86.9643 21.7566 87.0402 21.4531 87.2679 21.3772L90.5319 19.8596C90.6837 19.7837 90.9114 19.8596 91.0632 19.9354C91.2151 20.0872 91.2151 20.239 91.1392 20.4666L89.621 23.8055C89.621 23.8813 89.3933 24.0331 89.2415 24.0331ZM88.3306 21.529L89.4692 22.6672L89.0897 23.5019V23.6537H89.1656C89.2415 23.7296 89.3933 23.6537 89.3933 23.5778L90.8355 20.239L90.7596 20.0872L90.5319 20.0113L87.2679 21.529C87.192 21.6049 87.1161 21.6807 87.192 21.7566V21.8325H87.3438L88.3306 21.529ZM89.621 22.2878L88.6342 21.3013L90.3801 20.5425L89.621 22.2878ZM89.1656 21.4531L89.5451 21.8325L89.8487 21.2254L89.1656 21.4531Z" fill="#1F1C35"/>
<path d="M92.9615 25.0924C93.8724 24.4095 95.2387 24.6371 95.9218 25.5477C96.2255 25.9271 96.3773 26.3824 96.3014 26.8377C96.3014 26.9895 96.1496 27.1412 95.9978 27.1412C95.8459 27.1412 95.6941 26.9895 95.6941 26.7618C95.6941 26.4583 95.6182 26.1548 95.3905 25.8512C95.1628 25.5477 94.7832 25.3201 94.4037 25.2442C94.0242 25.1683 93.6446 25.2442 93.341 25.4718C93.0374 25.6995 92.8097 26.003 92.8097 26.3824C92.7338 26.7618 92.8097 27.1412 93.1133 27.4448C93.2651 27.6724 93.4928 27.8242 93.7205 27.976L94.3278 27.5207L93.8724 26.8377C93.7965 26.6859 93.7964 26.4583 93.9483 26.3824C94.1001 26.3065 94.3278 26.3065 94.4037 26.4583L95.0869 27.3689C95.1628 27.5207 95.1628 27.7483 95.011 27.8242L93.9483 28.583L93.8724 28.6589H93.7205C93.2651 28.5071 92.8856 28.2795 92.5819 27.9001C91.8229 27.0654 92.0506 25.7754 92.9615 25.0924Z" fill="#1F1C35"/>
<path d="M93.7958 29.0397H93.644C93.1886 28.888 92.7331 28.5844 92.4295 28.205C92.05 27.7497 91.8981 27.1427 91.9741 26.5356C92.05 25.9285 92.3536 25.3974 92.8849 25.0938C93.3404 24.7144 93.9476 24.5626 94.5549 24.7144C95.1621 24.7903 95.6935 25.1697 95.9971 25.625C96.3007 26.0044 96.4526 26.5356 96.4526 27.0668C96.4526 27.2185 96.3767 27.2944 96.3007 27.3703C96.2248 27.4462 96.073 27.5221 95.9212 27.5221C95.7694 27.5221 95.6935 27.4462 95.6176 27.3703C95.5417 27.2944 95.4658 27.1427 95.4658 26.9909C95.4658 26.6874 95.3899 26.3838 95.2381 26.1562C95.0103 25.8527 94.7067 25.7009 94.4031 25.625C94.0235 25.5491 93.7199 25.625 93.4163 25.8526C93.1127 26.0803 92.9608 26.3079 92.9608 26.6874C92.8849 26.9909 92.9608 27.3703 93.1886 27.6738C93.3404 27.8256 93.4922 27.9774 93.7199 28.1291L94.1754 27.8256L93.7958 27.2944C93.644 27.0668 93.7199 26.7632 93.8717 26.6115C93.9476 26.5356 94.0994 26.5356 94.2513 26.5356C94.4031 26.5356 94.479 26.6115 94.5549 26.7632L95.2381 27.6738C95.3899 27.9015 95.3899 28.205 95.1621 28.3568L94.0994 29.1156L94.0235 29.1915H93.9476L93.7958 29.0397ZM94.1754 24.8662C93.7958 24.8662 93.4163 25.0179 93.0368 25.2456C92.6572 25.5491 92.3536 26.0044 92.2777 26.5356C92.2018 27.0668 92.3536 27.598 92.6572 27.9774C92.8849 28.3568 93.2645 28.5844 93.7199 28.7362H93.7958H93.8717L94.9344 27.9774L95.0103 27.9015V27.7497L94.3272 26.8391L94.1754 26.7632H94.0235C93.9476 26.8391 93.9476 26.915 93.9476 26.9909L94.5549 27.7497L93.7199 28.3568H93.644C93.3404 28.205 93.1127 28.0532 92.9608 27.8256C92.7331 27.4462 92.5813 27.0668 92.6572 26.6115C92.7331 26.1562 92.9608 25.8526 93.2645 25.5491C93.5681 25.3215 94.0235 25.1697 94.479 25.2456C94.8585 25.3215 95.2381 25.5491 95.5417 25.9285C95.7694 26.2321 95.8453 26.6115 95.8453 26.915L95.9212 27.0668L96.073 27.1427L96.2248 27.0668L96.3007 26.915C96.3007 26.4597 96.1489 26.0044 95.9212 25.7009C95.6176 25.2456 95.1621 25.0179 94.6308 24.9421C94.4031 24.8662 94.2513 24.8662 94.1754 24.8662Z" fill="#1F1C35"/>
<path d="M95.7695 32.5318L98.8058 31.0141C98.9576 30.9383 99.1853 31.0141 99.2612 31.1659L100.096 32.8353C100.172 32.9871 100.096 33.2147 99.9444 33.2906C99.7925 33.3665 99.5648 33.2906 99.4889 33.1389L98.8058 31.773L97.8949 32.2283L98.5021 33.4424C98.578 33.5942 98.5021 33.8218 98.3503 33.8977C98.1985 33.9736 97.9708 33.8977 97.8949 33.7459L97.2876 32.5318L96.3767 32.9871L97.0599 34.353C97.1358 34.5048 97.0599 34.7324 96.9081 34.8083C96.7563 34.8842 96.5286 34.8083 96.4526 34.6565L95.6177 32.9871C95.5418 32.7595 95.6177 32.6077 95.7695 32.5318Z" fill="#1F1C35"/>
<path d="M96.757 34.9593H96.6051C96.4533 34.8834 96.3774 34.8075 96.3015 34.7316L95.3906 32.9104C95.3906 32.8346 95.3906 32.7587 95.3906 32.6828C95.4665 32.531 95.5424 32.4551 95.6183 32.3793L98.6546 30.8616C98.7305 30.7857 98.8823 30.7857 99.0341 30.8616C99.186 30.9375 99.2619 31.0134 99.3378 31.0893L100.173 32.7587C100.325 32.9863 100.173 33.2899 99.945 33.3657C99.8691 33.4416 99.7173 33.4416 99.5655 33.3657C99.4137 33.2899 99.3378 33.214 99.2619 33.1381L98.7305 31.924L98.0474 32.2275L98.5787 33.2898C98.7305 33.5175 98.5787 33.821 98.351 33.8969C98.1233 34.0487 97.8196 33.8969 97.7437 33.6693L97.2124 32.6828L96.5292 33.0622L97.1365 34.3522C97.2883 34.5799 97.1365 34.8834 96.9088 34.9593C96.9088 34.9593 96.8329 34.9593 96.757 34.9593ZM95.8461 32.9863L96.6051 34.504L96.681 34.5799H96.8329C96.9088 34.504 96.9847 34.4281 96.9088 34.3522L96.1497 32.8346L97.3642 32.2275L98.0474 33.5934C98.1233 33.6693 98.1992 33.6693 98.2751 33.6693C98.351 33.5934 98.351 33.5175 98.351 33.4416L97.6678 32.0757L98.8823 31.4687L99.6414 32.9863L99.7173 33.0622H99.8691C99.945 32.9863 99.945 32.9104 99.945 32.8346L99.1101 31.1651C99.0342 31.0892 98.9582 31.0134 98.8823 31.0893L95.8461 32.6069L95.7702 32.6828V32.7587L96.0738 32.8346L95.8461 32.9863Z" fill="#1F1C35"/>
<path d="M34.8913 82.9975C35.0431 82.9216 35.2708 83.0734 35.2708 83.2251C35.3467 83.6045 35.5744 84.0598 35.9539 84.2875C36.1817 84.4392 36.4853 84.591 36.713 84.591C36.9407 84.591 37.0926 84.5151 37.1685 84.3634C37.2444 84.2875 37.2444 84.2116 37.2444 84.1357C37.2444 84.0598 37.2444 83.984 37.2444 83.9081C37.1685 83.6804 37.0166 83.4528 36.713 83.1492C36.4853 82.9216 36.3335 82.6939 36.1817 82.4663C36.0299 82.2386 35.9539 82.011 36.0299 81.7075C36.0299 81.5557 36.1058 81.3281 36.2576 81.2522C36.4853 80.9486 36.8648 80.7969 37.1685 80.7969C37.548 80.7969 37.9275 80.9486 38.2312 81.1763C38.6866 81.5557 38.9143 82.011 38.9902 82.3904C39.0661 82.5422 38.9902 82.7698 38.7625 82.7698C38.6107 82.8457 38.383 82.7698 38.383 82.5422C38.2312 82.1628 38.1552 81.8592 37.8516 81.6316C37.6239 81.4798 37.3962 81.4039 37.1685 81.4039C36.9407 81.4039 36.7889 81.4798 36.713 81.5557L36.6371 81.7075C36.6371 81.7833 36.6371 81.8592 36.6371 81.9351C36.713 82.0869 36.8648 82.3904 37.0925 82.6181C37.3203 82.8457 37.4721 83.0734 37.6239 83.3769C37.7757 83.6045 37.8516 83.9081 37.7757 84.1357C37.7757 84.2875 37.6998 84.5151 37.548 84.6669C37.3203 84.9704 36.9407 85.1222 36.5612 85.1222C36.1817 85.1222 35.8021 84.9704 35.4226 84.7428C34.8913 84.3634 34.6635 83.7563 34.5117 83.301C34.5876 83.2251 34.7394 83.0734 34.8913 82.9975Z" fill="#1F1C35"/>
<path d="M36.7132 85.4212C36.2578 85.4212 35.8023 85.2695 35.4987 84.9659C34.9674 84.5107 34.6637 83.9036 34.5119 83.4483C34.436 83.2206 34.5878 82.9171 34.8156 82.8412C35.0433 82.7653 35.3469 82.9171 35.4228 83.2206C35.4987 83.5242 35.7264 83.9795 36.0301 84.2071C36.2578 84.3589 36.4855 84.4348 36.7132 84.4348C36.865 84.4348 37.0169 84.3589 37.0928 84.283L37.1687 84.1312C37.1687 84.0554 37.1687 83.9795 37.1687 83.9036C37.0928 83.7518 36.941 83.4483 36.7132 83.2206C36.4855 82.993 36.3337 82.6895 36.1819 82.5377C36.0301 82.2342 35.9542 82.0065 36.0301 81.703C36.0301 81.4753 36.106 81.3236 36.2578 81.0959C36.4855 80.7924 36.865 80.6406 37.3205 80.6406C37.7 80.6406 38.1555 80.7924 38.4591 81.02C38.9904 81.3995 39.1422 81.9306 39.2941 82.31C39.37 82.6136 39.2182 82.8412 38.9904 82.9171C38.9145 82.993 38.7627 82.993 38.6109 82.9171C38.4591 82.8412 38.3832 82.7653 38.3832 82.6136C38.2314 82.2342 38.1555 81.9306 37.8518 81.7789C37.7 81.6271 37.4723 81.5512 37.2446 81.5512C37.0928 81.5512 37.0169 81.5512 36.9409 81.6271L36.865 81.703C36.865 81.703 36.865 81.7789 36.865 81.8548C36.941 82.0065 37.0928 82.2342 37.3205 82.4618C37.5482 82.7653 37.7759 82.993 37.8518 83.2206C38.0036 83.5242 38.0796 83.8277 38.0796 84.0554C38.0796 84.283 38.0036 84.4348 37.8518 84.6624C37.5482 85.1936 37.1687 85.4212 36.7132 85.4212ZM34.8915 83.1448C34.8156 83.1448 34.7397 83.2965 34.7397 83.3724C34.8156 83.7518 35.1192 84.3589 35.5746 84.7383C35.8783 84.9659 36.2578 85.1177 36.6373 85.1177C37.0169 85.1177 37.3205 84.9659 37.5482 84.7383C37.6241 84.5865 37.7 84.4348 37.7 84.283C37.7 84.0554 37.7 83.8277 37.5482 83.6001C37.4723 83.3724 37.2446 83.1448 37.0169 82.9171C36.7891 82.6136 36.5614 82.3859 36.4855 82.1583C36.4855 82.0824 36.4096 81.9306 36.4096 81.8548C36.4096 81.7789 36.4096 81.703 36.4855 81.6271C36.5614 81.5512 36.7132 81.3995 37.0169 81.3995C37.2446 81.3995 37.5482 81.4753 37.7759 81.703C38.0796 81.9306 38.2314 82.31 38.3832 82.6895L38.4591 82.7653H38.6109L38.6868 82.6895V82.5377C38.535 82.1583 38.3832 81.703 37.9277 81.3995C37.6241 81.1718 37.3205 81.02 36.9409 81.02C36.6373 81.02 36.3337 81.1718 36.106 81.3995C36.0301 81.5512 35.9542 81.6271 35.9542 81.7789C35.9542 82.0065 35.9542 82.2342 36.106 82.4618C36.1819 82.6895 36.3337 82.8412 36.5614 83.0689C36.865 83.3724 37.0169 83.6759 37.0928 83.9036C37.1687 84.0554 37.1687 84.1312 37.1687 84.2071C37.1687 84.283 37.0928 84.3589 37.0928 84.5107C37.0169 84.6624 36.7891 84.7383 36.4855 84.7383C36.1819 84.7383 35.8783 84.5865 35.6505 84.4348C35.271 84.1312 35.0433 83.6759 34.9674 83.2206C35.1192 83.2206 34.9674 83.1448 34.8915 83.1448Z" fill="#1F1C35"/>
<path d="M42.5578 86.7129C43.0891 85.5746 44.4555 85.1193 45.5182 85.6505C46.0495 85.8782 46.429 86.2576 46.6568 86.7129C46.7327 86.8646 46.6568 87.0923 46.5049 87.1682C46.3531 87.2441 46.1254 87.1682 46.0495 87.0164C45.8977 86.7129 45.67 86.4852 45.2904 86.2576C44.9109 86.1058 44.4555 86.1058 44.0759 86.1817C43.6964 86.3335 43.3928 86.5611 43.241 86.9405C43.0891 87.3199 43.0891 87.7752 43.241 88.0788C43.3928 88.4582 43.6964 88.7617 44.0759 88.9135C44.4555 89.0653 44.7591 89.1411 45.1386 88.9894C45.2904 88.9894 45.5182 89.0653 45.5941 89.2929C45.5941 89.4447 45.5182 89.6723 45.3663 89.7482C44.9109 89.9 44.3796 89.8241 43.8482 89.5964C42.5578 89.1411 42.0264 87.7752 42.5578 86.7129Z" fill="#1F1C35"/>
<path d="M44.684 90.0513C44.3045 90.0513 44.0008 89.9754 43.6213 89.8236C42.4068 89.2925 41.8754 87.8507 42.4068 86.6366C42.9381 85.4224 44.3804 84.8913 45.5949 85.4983C46.1262 85.726 46.5058 86.1054 46.7335 86.6366C46.8853 86.8642 46.7335 87.1678 46.5058 87.3195C46.278 87.4713 45.9744 87.3195 45.8226 87.0919C45.6708 86.7883 45.4431 86.5607 45.1394 86.4089C44.8358 86.2572 44.3804 86.2572 44.0767 86.333C43.6972 86.4848 43.4695 86.7125 43.3177 87.016C43.1659 87.3195 43.1659 87.6989 43.3177 88.0783C43.4695 88.4578 43.6972 88.6854 44.0767 88.8372C44.3804 88.9889 44.684 88.9889 45.0635 88.9131C45.2913 88.8372 45.5949 89.0648 45.6708 89.2925C45.7467 89.596 45.5949 89.8236 45.2913 89.8995C45.0635 89.9754 44.8358 90.0513 44.684 90.0513ZM42.7104 86.7883C42.255 87.8507 42.7104 89.0648 43.7731 89.596C44.2286 89.8236 44.684 89.8236 45.2153 89.7478C45.2913 89.7478 45.3672 89.596 45.3672 89.5201C45.3672 89.4442 45.2153 89.3683 45.1394 89.3683C44.7599 89.4442 44.3804 89.4442 44.0008 89.2925C43.6213 89.1407 43.2418 88.7613 43.09 88.306C42.9381 87.9266 42.9381 87.3954 43.09 87.016C43.2418 86.6366 43.6213 86.333 44.0008 86.1813C44.4563 86.0295 44.9117 86.0295 45.2913 86.2572C45.6708 86.4089 45.9744 86.7125 46.1262 87.016C46.2021 87.0919 46.278 87.1677 46.4299 87.0919C46.5058 87.016 46.5817 86.9401 46.5058 86.7883C46.278 86.333 45.8985 86.0295 45.4431 85.8019C44.4563 85.2707 43.1659 85.726 42.7104 86.7883Z" fill="#1F1C35"/>
<path d="M51.6674 88.2322C51.7433 88.0804 51.895 87.9287 52.0468 88.0046C52.1986 88.0804 52.3503 88.2322 52.2745 88.384L51.4397 91.9505C51.3639 92.1022 51.2121 92.254 51.0603 92.1781C50.9086 92.1022 50.7568 91.9505 50.8327 91.7987L51.6674 88.2322Z" fill="#1F1C35"/>
<path d="M51.1367 92.3262H50.9849C50.8331 92.3262 50.7572 92.2503 50.6814 92.0986C50.6055 92.0227 50.6055 91.8709 50.6055 91.7192L51.4402 88.1527C51.5161 87.8491 51.7437 87.6974 52.0472 87.7732C52.3508 87.8491 52.5025 88.0768 52.4267 88.3803L51.5919 91.9468C51.5919 92.0986 51.5161 92.1744 51.3643 92.2503C51.3643 92.3262 51.2884 92.3262 51.1367 92.3262ZM51.8196 88.2285L50.9849 91.795V91.9468L51.1367 92.0227H51.2884L51.3643 91.8709L52.199 88.3044C52.199 88.2285 52.1231 88.0768 52.0472 88.0768C51.9714 88.0768 51.8955 88.1527 51.8196 88.2285Z" fill="#1F1C35"/>
<path d="M57.209 92.86L57.4366 89.2176C57.4366 88.9899 57.5884 88.9141 57.816 88.9141L59.789 88.9899C59.9408 88.9899 60.0925 89.1417 60.0925 89.3694C60.0925 89.597 59.9408 89.6729 59.7131 89.6729L58.0437 89.597L57.9678 90.7353L59.4096 90.8111C59.5613 90.8111 59.7131 90.9629 59.7131 91.1905C59.7131 91.4182 59.5613 91.4941 59.3337 91.4941L57.8919 91.4182L57.816 92.5564L59.4855 92.6323C59.6372 92.6323 59.789 92.7841 59.789 93.0117C59.789 93.1635 59.6372 93.3153 59.4096 93.3153L57.4366 93.2394C57.3607 93.1635 57.209 93.0117 57.209 92.86Z" fill="#1F1C35"/>
<path d="M59.5618 93.4664L57.3605 93.3147C57.1328 93.2388 56.9809 93.0112 57.0569 92.8594L57.2846 89.217C57.2846 88.9135 57.5123 88.7617 57.8159 88.7617L59.8654 88.8376C60.169 88.8376 60.3209 89.0652 60.3209 89.3688C60.3209 89.6723 60.0931 89.8241 59.7895 89.8241L58.2714 89.7482L58.1955 90.5829L59.4859 90.6588C59.7895 90.6588 59.9413 90.8864 59.9413 91.19C59.9413 91.3417 59.8654 91.4176 59.7895 91.5694C59.7136 91.6453 59.5618 91.7211 59.41 91.7211L58.1196 91.6453L58.0436 92.48L59.5618 92.5559C59.7136 92.5559 59.7895 92.6317 59.8654 92.7076C59.9413 92.7835 60.0172 92.9353 60.0172 93.087C60.0931 93.2388 59.8654 93.4664 59.5618 93.4664ZM57.74 93.0112L59.6377 93.087C59.7136 93.087 59.8654 93.0112 59.8654 92.9353L59.7895 92.7835L59.6377 92.7076L57.74 92.6317L57.8159 91.19L59.41 91.2658L59.5618 91.19L59.6377 91.0382C59.6377 90.9623 59.5618 90.8106 59.4859 90.8106L57.8918 90.7347L57.9677 89.2929L59.7895 89.3688C59.8654 89.3688 60.0172 89.2929 60.0172 89.217C60.0172 89.1411 59.9413 88.9894 59.8654 88.9894L57.8918 88.9135C57.74 88.9135 57.6641 88.9894 57.6641 89.0653L57.4364 92.7076C57.4364 92.7835 57.5123 92.8594 57.5882 92.8594L57.8159 92.6317L57.74 93.0112Z" fill="#1F1C35"/>
<path d="M66.2419 92.6322C66.2419 92.784 66.1659 93.0117 65.9382 93.0117C65.7864 93.0117 65.5587 92.9358 65.5587 92.7081L65.0273 89.1416C65.0273 89.0658 65.0273 88.914 65.1032 88.8381C65.2551 88.6863 65.4828 88.6863 65.5587 88.8381L67.9877 91.2664L67.6082 88.7622C67.6082 88.6105 67.6841 88.3828 67.9118 88.3828C68.0636 88.3828 68.2913 88.4587 68.2913 88.6863L68.8227 92.2528C68.8227 92.4046 68.7468 92.6322 68.5191 92.6322C68.4432 92.6322 68.2913 92.6322 68.2154 92.5564L65.8623 90.1281L66.2419 92.6322Z" fill="#1F1C35"/>
<path d="M65.938 93.1621C65.7102 93.1621 65.4825 93.0103 65.4825 92.7827L64.9512 89.2162C64.9512 89.0644 64.9512 88.9127 65.103 88.7609C65.3307 88.6091 65.6343 88.6091 65.7861 88.7609L67.8356 90.8097L67.532 88.7609C67.4561 88.5333 67.6838 88.2297 67.9115 88.2297C68.1393 88.1538 68.4429 88.3815 68.4429 88.6091L68.9742 92.1756C69.0501 92.4792 68.8224 92.7068 68.5947 92.7068C68.4429 92.7068 68.2911 92.7068 68.2152 92.5551L68.1393 92.4792L66.0898 90.4303L66.3934 92.4792C66.4693 92.7068 66.2416 93.0103 66.0139 93.0103L65.938 93.1621ZM65.4066 88.9127L65.2548 88.9886L65.1789 89.1403L65.7102 92.7068C65.7102 92.7827 65.7861 92.8586 65.938 92.8586C66.0139 92.8586 66.0898 92.7068 66.0898 92.6309L65.6343 89.5956L68.367 92.3274L68.5188 92.4033C68.5947 92.4033 68.6706 92.2515 68.6706 92.1756L68.1393 88.6091C68.1393 88.5333 67.9874 88.4574 67.9115 88.4574C67.8356 88.4574 67.7597 88.5333 67.7597 88.685L68.2152 91.6445L65.4825 88.9127H65.4066Z" fill="#1F1C35"/>
<path d="M73.9839 88.8364C73.5284 87.6982 74.0598 86.4081 75.2743 85.877C75.8056 85.6493 76.337 85.6493 76.7924 85.8011C76.9442 85.877 77.096 86.0287 77.0201 86.2564C76.9442 86.484 76.7924 86.5599 76.5647 86.484C76.2611 86.4081 75.8815 86.4081 75.502 86.5599C75.1225 86.7117 74.8188 87.0152 74.667 87.3946C74.5152 87.774 74.5152 88.1534 74.667 88.5329C74.8188 88.9123 75.1225 89.2158 75.502 89.3676C75.8815 89.5193 76.337 89.5193 76.7165 89.3676C77.096 89.2158 77.3238 88.9882 77.4756 88.6846C77.5515 88.5329 77.7792 88.457 77.931 88.5329C78.0828 88.6087 78.1587 88.8364 78.0828 88.9882C77.8551 89.4435 77.4756 89.747 76.9442 89.9746C75.8056 90.5058 74.4393 89.9746 73.9839 88.8364Z" fill="#1F1C35"/>
<path d="M76.0337 90.3557C75.1229 90.3557 74.212 89.8245 73.8324 88.9139C73.377 87.6998 73.9084 86.3339 75.1988 85.8027C75.7301 85.5751 76.2615 85.5751 76.7928 85.7269C77.0205 85.8027 77.1723 86.1063 77.1723 86.3339C77.0964 86.6375 76.7928 86.7892 76.5651 86.7133C76.2615 86.6375 75.9578 86.6375 75.5783 86.7892C75.2747 86.941 74.971 87.1686 74.8192 87.5481C74.6674 87.9275 74.6674 88.231 74.8192 88.6104C74.971 88.9139 75.1988 89.2175 75.5783 89.3692C75.9578 89.521 76.3374 89.521 76.641 89.3692C76.9446 89.2175 77.1723 89.0657 77.3242 88.7622C77.476 88.5345 77.7796 88.4586 78.0073 88.6104C78.235 88.7622 78.3109 89.0657 78.235 89.2934C77.9314 89.7487 77.5519 90.1281 77.0205 90.3557C76.7169 90.3557 76.4133 90.3557 76.0337 90.3557ZM74.1361 88.7622C74.5915 89.8245 75.806 90.3557 76.8687 89.9004C77.3242 89.7487 77.7037 89.3692 77.9314 88.9898C78.0073 88.9139 77.9314 88.7622 77.8555 88.6863C77.7796 88.6104 77.6278 88.6863 77.5519 88.7622C77.3242 89.1416 77.0964 89.3692 76.7169 89.521C76.3374 89.6728 75.806 89.6728 75.4265 89.521C75.047 89.3692 74.6674 88.9898 74.5156 88.6104C74.3638 88.231 74.3638 87.7757 74.5156 87.3204C74.7433 86.8651 75.047 86.5616 75.4265 86.4098C75.806 86.258 76.1856 86.258 76.5651 86.3339C76.641 86.3339 76.7928 86.3339 76.7928 86.1822C76.7928 86.1063 76.7169 85.9545 76.641 85.9545C76.1856 85.8027 75.7301 85.8786 75.1988 86.0304C74.212 86.4857 73.6806 87.7757 74.1361 88.7622Z" fill="#1F1C35"/>
<path d="M83.3962 86.3349L81.3467 83.2996C81.2708 83.1479 81.2708 82.9202 81.4226 82.8443L83.0926 81.7061C83.2444 81.6302 83.4721 81.6302 83.548 81.782C83.6239 81.9337 83.6239 82.1614 83.4721 82.2373L82.1058 83.1479L82.7131 84.0585L83.9276 83.2238C84.0794 83.1479 84.3071 83.1479 84.383 83.2996C84.4589 83.4514 84.4589 83.6791 84.3071 83.7549L83.0926 84.5896L83.6998 85.5002L85.0662 84.5896C85.218 84.5138 85.4457 84.5138 85.5216 84.6655C85.5975 84.8173 85.5975 85.0449 85.4457 85.1208L83.7758 86.2591C83.6999 86.4867 83.4721 86.4867 83.3962 86.3349Z" fill="#1F1C35"/>
<path d="M83.6232 86.5615H83.5473C83.3955 86.5615 83.3196 86.4857 83.2437 86.3339L81.1942 83.2986C81.0424 83.0709 81.1183 82.7674 81.346 82.6156L83.016 81.4774C83.2437 81.3256 83.5473 81.4015 83.6991 81.6292C83.775 81.705 83.7751 81.8568 83.7751 82.0086C83.7751 82.1603 83.6991 82.2362 83.5473 82.3121L82.2569 83.1468L82.7124 83.8298L83.7751 83.0709C83.851 82.9951 84.0028 82.9951 84.1546 82.9951C84.3064 82.9951 84.3823 83.0709 84.4582 83.2227C84.61 83.4503 84.5341 83.7539 84.3064 83.9056L83.2437 84.6645L83.6991 85.3474L84.9896 84.5127C85.2173 84.3609 85.5209 84.4368 85.6727 84.6645C85.8245 84.8921 85.7486 85.1957 85.5209 85.3474L83.7751 86.4857C83.7751 86.5615 83.6991 86.5615 83.6232 86.5615ZM83.4714 86.1821L83.6232 86.258H83.6991L83.7751 85.9545L83.9269 86.1062L85.445 85.0439C85.5209 84.968 85.5209 84.8921 85.5209 84.8162C85.445 84.7404 85.3691 84.7404 85.2173 84.7404L83.6991 85.8027L82.8642 84.5886L84.1546 83.678C84.2305 83.6021 84.2305 83.5262 84.2305 83.3745L84.0787 83.2986H83.9269L82.6364 84.2092L81.8015 82.9951L83.3196 81.9327L83.3955 81.7809V81.6292C83.3196 81.5533 83.2437 81.5533 83.1678 81.5533L81.4978 82.6915C81.4219 82.7674 81.346 82.8433 81.4219 82.9951L83.4714 86.1821Z" fill="#1F1C35"/>
<path d="M60.9281 101.055C38.7633 101.055 18.9516 86.4097 12.4236 65.3143H0.0507812V63.0378H14.0935L14.3213 63.8725C20.3179 84.4368 39.4464 98.7786 60.9281 98.7786C82.7892 98.7786 101.994 84.0574 107.763 63.0378L107.99 62.2031H122.261V64.4796H109.66C103.436 86.0303 83.5483 101.055 60.9281 101.055Z" fill="#1F1C35"/>
<path d="M60.8523 83.5998C47.8722 83.5998 36.0308 76.0115 30.5655 64.2497C30.4896 64.0221 30.4896 63.7185 30.6414 63.4909C30.7932 63.2632 31.0209 63.1115 31.2486 63.1115H40.0538C40.5093 63.1115 40.8129 63.415 40.8129 63.8703C40.8129 64.3256 40.5093 64.6291 40.0538 64.6291H32.4632C37.8525 75.2527 48.859 82.0063 60.8523 82.0063C73.301 82.0063 84.4593 74.8733 89.6969 63.6427H82.3339C81.8785 63.6427 81.5749 63.3391 81.5749 62.8838C81.5749 62.4285 81.8785 62.125 82.3339 62.125H90.9114C91.1391 62.125 91.3669 62.2768 91.5187 62.4285C91.6705 62.6562 91.6705 62.8838 91.5946 63.1115C86.2811 75.6321 74.2878 83.5998 60.8523 83.5998Z" fill="#1F1C35"/>
<path d="M30.0335 77.0787C29.8057 77.0787 29.578 77.0028 29.4262 76.7751C26.314 73.1328 23.7332 69.0351 21.8355 64.4821C21.6837 64.1027 21.8355 63.6474 22.2151 63.4957C22.5946 63.3439 23.05 63.4957 23.2018 63.8751C25.0236 68.2004 27.5285 72.2222 30.4889 75.7128C30.7925 76.0163 30.7166 76.5475 30.413 76.7751C30.3371 77.0787 30.1853 77.0787 30.0335 77.0787Z" fill="#1F1C35"/>
<path d="M90.7598 78.0594C90.608 78.0594 90.3803 77.9835 90.2285 77.8317C89.9248 77.5282 89.9248 77.0729 90.1526 76.7694C93.872 72.6717 96.7565 67.967 98.8059 62.6552C98.9578 62.2758 99.4132 62.0481 99.7927 62.1999C100.172 62.3516 100.4 62.8069 100.248 63.1864C98.1228 68.6499 95.1624 73.5064 91.2912 77.7559C91.1393 77.9076 90.9116 78.0594 90.7598 78.0594Z" fill="#1F1C35"/>
<path d="M72.8445 65.3887C72.3132 64.9334 71.63 64.7058 71.0227 64.7058C70.3396 64.7058 69.7323 64.9334 69.201 65.3887C69.0492 65.4646 68.9733 65.6922 68.9733 65.844C68.9733 65.9958 68.9733 66.1475 68.9733 66.2993C68.9733 67.2099 69.1251 68.0446 69.5046 68.7276C69.6564 69.107 69.8841 69.3346 70.1119 69.5623C70.1878 69.6381 70.3396 69.714 70.4914 69.7899V71.6111L66.8479 70.1693V67.8928C66.8479 66.4511 66.0129 65.1611 64.6466 64.6299L63.4321 64.1746C61.4585 63.4158 59.1813 63.4158 57.2077 64.1746L55.9932 64.554C54.6269 65.0852 53.7919 66.3752 53.7919 67.817V70.0934L50.1484 71.5352L49.9966 71.6111C49.6929 71.7629 49.4652 71.9905 49.3134 72.2182C49.1616 72.5217 49.0098 72.8252 49.0098 73.2046C49.0098 73.5841 49.0857 73.8876 49.3134 74.1911C49.5411 74.4946 49.7688 74.7223 50.1484 74.8741L58.0427 77.9094C58.8017 78.2129 59.5608 78.3647 60.3199 78.3647C61.079 78.3647 61.838 78.2129 62.5971 77.9094L70.4914 74.8741C70.8709 74.7223 71.0987 74.4946 71.3264 74.1911C71.4782 73.9635 71.5541 73.7358 71.5541 73.4323V73.2805V69.714C71.7059 69.6382 71.7818 69.5623 71.9336 69.4864C72.3132 69.1829 72.5409 68.7276 72.7686 68.1205C72.9204 67.5893 73.0722 66.9064 73.0722 66.2234C73.0722 66.0717 73.0722 65.9199 73.0722 65.7681C73.0722 65.6164 72.9963 65.4646 72.8445 65.3887ZM71.8577 66.2234C71.8577 66.9064 71.7059 67.5893 71.4782 68.1205C71.4782 68.1964 71.4023 68.2723 71.4023 68.3481V65.9958C71.5541 65.9958 71.7059 66.0717 71.8577 66.2234ZM65.6334 69.6381L62.5971 68.4999C61.1549 67.9687 59.4849 67.9687 58.0427 68.4999L55.0064 69.6381V67.817C55.0064 66.8305 55.5378 65.9958 56.4486 65.6922L57.6631 65.2369C58.4981 64.9334 59.409 64.7058 60.3199 64.7058C61.2308 64.7058 62.1416 64.8575 62.9766 65.2369L64.1911 65.6922C65.0261 65.9958 65.6334 66.9064 65.6334 67.817V69.6381ZM60.3199 69.3346C60.9271 69.3346 61.5344 69.4864 62.1416 69.6381L70.036 72.6735C70.1119 72.7493 70.1878 72.7493 70.2637 72.9011C70.3396 72.977 70.3396 73.1288 70.3396 73.2046C70.3396 73.2805 70.3396 73.4323 70.2637 73.5082C70.1878 73.5841 70.1119 73.6599 70.036 73.7358L62.1416 76.7711C61.003 77.2264 59.6367 77.2264 58.4981 76.7711L50.6038 73.7358C50.5279 73.6599 50.452 73.6599 50.3761 73.5082C50.3002 73.4323 50.3002 73.2805 50.3002 73.2046C50.3002 73.1288 50.3002 72.977 50.3761 72.9011C50.452 72.8252 50.5279 72.7493 50.6038 72.6735L58.4981 69.6381C59.0295 69.4105 59.6367 69.3346 60.3199 69.3346ZM70.6432 65.9958V68.3481C70.5673 68.1964 70.4914 68.0446 70.4155 67.7411C70.2637 67.2858 70.1878 66.7546 70.1878 66.2234V66.1475C70.3396 66.0717 70.4914 65.9958 70.6432 65.9958Z" fill="#1F1C35"/>
<path d="M49.2392 35.8716C49.7705 36.3269 50.4537 36.5545 51.0609 36.5545C51.7441 36.5545 52.3514 36.3269 52.8827 35.8716C53.0345 35.7957 53.1104 35.5681 53.1104 35.4163C53.1104 35.2645 53.1104 35.1128 53.1104 34.961C53.1104 34.0504 52.9586 33.2157 52.5791 32.5327C52.4273 32.1533 52.1995 31.9257 51.9718 31.698C51.8959 31.6222 51.7441 31.5463 51.5923 31.4704V29.6492L55.1599 31.0151V33.2916C55.1599 34.7333 55.9949 36.0234 57.3612 36.5545L58.5757 37.0098C59.5625 37.3892 60.6252 37.6169 61.6879 37.6169C62.7506 37.6169 63.8133 37.3892 64.8001 37.0098L66.0146 36.5545C67.3809 36.0234 68.2159 34.7333 68.2159 33.2916V31.0151L71.8594 29.5733L72.0112 29.4974C72.3148 29.3457 72.5426 29.118 72.6944 28.8904C72.8462 28.5868 72.998 28.2833 72.998 27.9039C72.998 27.5245 72.9221 27.221 72.6944 26.9174C72.4667 26.6139 72.2389 26.3862 71.8594 26.2345L63.9651 23.1992C62.5229 22.668 60.8529 22.668 59.4107 23.1992L51.5164 26.2345C51.1368 26.3862 50.9091 26.6139 50.6814 26.9174C50.5296 27.1451 50.4537 27.3727 50.4537 27.6763V27.828V31.3945C50.3019 31.4704 50.226 31.5463 50.0741 31.6222C49.6946 31.9257 49.4669 32.381 49.2392 32.988C49.0874 33.5192 48.9355 34.2022 48.9355 34.8851C48.9355 35.0369 48.9355 35.1886 48.9355 35.3404C49.0115 35.5681 49.0874 35.7198 49.2392 35.8716ZM50.226 34.961C50.226 34.2781 50.3778 33.5951 50.6055 33.0639C50.6055 32.988 50.6814 32.9122 50.6814 32.8363V35.1886C50.5296 35.1886 50.3778 35.1128 50.226 34.961ZM56.5262 31.5463L59.5625 32.6845C61.0047 33.2157 62.6747 33.2157 64.1169 32.6845L67.1532 31.5463V33.3675C67.1532 34.3539 66.6218 35.1886 65.711 35.4922L64.4964 35.9475C62.7506 36.6304 60.8529 36.6304 59.183 35.9475L57.9685 35.4922C57.1335 35.1886 56.5262 34.2781 56.5262 33.3675V31.5463ZM59.942 31.5463L52.0477 28.511C51.9718 28.4351 51.8959 28.4351 51.82 28.2833C51.7441 28.2074 51.6682 28.1315 51.6682 27.9798C51.6682 27.9039 51.6682 27.7521 51.7441 27.6763C51.82 27.6004 51.8959 27.5245 51.9718 27.4486L59.8661 24.4133C61.0806 23.958 62.3711 23.958 63.5097 24.4133L71.404 27.4486C71.4799 27.5245 71.5558 27.5245 71.6317 27.6763C71.7076 27.7521 71.7076 27.9039 71.7076 27.9798C71.7076 28.0557 71.7076 28.2074 71.6317 28.2833C71.5558 28.3592 71.4799 28.4351 71.404 28.511L63.5097 31.5463C62.447 32.0016 61.1565 32.0016 59.942 31.5463ZM51.4405 35.2645V32.9122C51.5164 33.0639 51.5923 33.2157 51.6682 33.5192C51.82 33.9745 51.8959 34.5057 51.8959 35.0369V35.1128C51.82 35.1128 51.5923 35.1886 51.4405 35.2645Z" fill="#1F1C35"/>
</g>
<defs>
<clipPath id="clip0_4340_2750">
<rect width="122.21" height="101" fill="white" transform="translate(0.0507812 0.0546875)"/>
</clipPath>
</defs>
</svg>
