<svg width="167" height="102" viewBox="0 0 167 102" fill="none" xmlns="http://www.w3.org/2000/svg">
<g clip-path="url(#clip0_4340_3010)">
<path d="M16.2401 48.1504H15.8977L12.7307 68.7627H8.70787L5.62651 48.1504H5.19854V70.9098H2.11719V45.0586C4.94176 45.0586 5.45532 45.0586 8.2799 45.0586L9.73498 55.1929L10.6765 64.2108H10.7621L11.7036 55.3647L13.1587 45.0586H19.3214V70.9098H16.1545V48.1504H16.2401Z" fill="#1F1C35"/>
<path d="M19.4076 71.1672H16.2406C16.0695 71.1672 15.8983 70.9955 15.8983 70.8237V49.6103L12.9881 68.7625C12.9881 68.9342 12.8169 69.0201 12.7313 69.0201H8.70844C8.53726 69.0201 8.45166 68.9342 8.45166 68.7625L5.54149 49.6103V70.9096C5.54149 71.0813 5.37031 71.2531 5.19912 71.2531H2.11776C1.94658 71.2531 1.77539 71.0813 1.77539 70.9096V45.0584C1.77539 44.8866 1.94658 44.7148 2.11776 44.7148H8.28048C8.45166 44.7148 8.53726 44.8007 8.53726 44.9725L9.99234 55.1068L10.6771 61.8058L11.3618 55.2786L12.8169 44.9725C12.8169 44.8007 12.9881 44.7148 13.0737 44.7148H19.2364C19.4076 44.7148 19.5788 44.8866 19.5788 45.0584V70.9096C19.6644 71.0813 19.5788 71.1672 19.4076 71.1672ZM16.583 70.566H19.1508V45.316H13.5017L12.0466 55.3645L11.1051 64.2106C11.1051 64.3824 10.9339 64.4682 10.8483 64.4682H10.7627C10.5915 64.4682 10.5059 64.3824 10.5059 64.2106L9.56437 55.1927L8.0237 45.316H2.37454V70.566H4.94234V48.1502C4.94234 47.9784 5.11353 47.8067 5.28471 47.8067H5.62709C5.79827 47.8067 5.88387 47.8926 5.88387 48.0643L8.96522 68.4189H12.4745L15.5559 48.0643C15.5559 47.8926 15.7271 47.8067 15.8127 47.8067H16.1551C16.3262 47.8067 16.4974 47.9784 16.4974 48.1502V70.566H16.583Z" fill="#1F1C35"/>
<path d="M26.3396 45.0586H32.4168L36.2684 70.9098H33.1015L31.9888 64.2108H26.5964L25.5693 70.9098H22.4023L26.3396 45.0586ZM29.6778 48.1504H28.993L27.11 61.0331H31.5608L29.6778 48.1504Z" fill="#1F1C35"/>
<path d="M36.1838 71.2531H33.0168C32.8456 71.2531 32.76 71.1672 32.76 70.9955L31.7329 64.4682H26.8541L25.9126 70.9955C25.9126 71.1672 25.7414 71.2531 25.6558 71.2531H22.4889C22.4033 71.2531 22.3177 71.2531 22.2321 71.1672C22.1465 71.0813 22.1465 70.9955 22.1465 70.9096L25.9982 44.9725C25.9982 44.8007 26.1694 44.7148 26.255 44.7148H32.3321C32.5033 44.7148 32.5889 44.8007 32.5889 44.9725L36.4406 70.8237C36.4406 70.9096 36.4406 70.9955 36.355 71.0813C36.355 71.1672 36.2694 71.2531 36.1838 71.2531ZM33.2736 70.6519H35.8414L32.0753 45.4019H26.5117L22.7456 70.6519H25.3134L26.255 64.1247C26.255 63.9529 26.4261 63.8671 26.5117 63.8671H31.9897C32.1609 63.8671 32.2465 63.9529 32.2465 64.1247L33.2736 70.6519ZM31.5617 61.3764H27.1109C27.0253 61.3764 26.9397 61.3764 26.8541 61.2905C26.7685 61.2046 26.7685 61.1188 26.7685 61.0329L28.6516 48.1502C28.6516 47.9784 28.8228 47.8926 28.9083 47.8926H29.5931C29.7643 47.8926 29.8499 47.9784 29.8499 48.1502L31.8185 61.0329C31.8185 61.1188 31.8185 61.2046 31.7329 61.2905C31.7329 61.2905 31.6473 61.3764 31.5617 61.3764ZM27.4533 60.7752H31.2194L29.4219 48.4938H29.2507L27.4533 60.7752Z" fill="#1F1C35"/>
<path d="M41.2334 47.8068H36.6113V44.9727H48.9367V47.8068H44.3147V70.9097H41.2334V47.8068Z" fill="#1F1C35"/>
<path d="M44.3149 71.2531H41.148C40.9768 71.2531 40.8056 71.0813 40.8056 70.9095V48.1502H36.526C36.3548 48.1502 36.1836 47.9784 36.1836 47.8066V44.9724C36.1836 44.8007 36.3548 44.6289 36.526 44.6289H48.7658C48.937 44.6289 49.1082 44.8007 49.1082 44.9724V47.8066C49.1082 47.9784 48.937 48.1502 48.7658 48.1502H44.4861V70.9095C44.6573 71.0813 44.4861 71.2531 44.3149 71.2531ZM41.4904 70.6519H44.0582V47.8066C44.0582 47.6349 44.2294 47.4631 44.4005 47.4631H48.6802V45.2301H36.9539V47.4631H41.2336C41.4048 47.4631 41.576 47.6349 41.576 47.8066V70.6519H41.4904Z" fill="#1F1C35"/>
<path d="M52.1035 70.9098V45.1445H55.2705V56.4813H61.0908V45.1445H64.1722V70.9098H61.0908V59.5731H55.2705V70.9098H52.1035Z" fill="#1F1C35"/>
<path d="M64.1724 71.2493H61.091C60.9198 71.2493 60.7487 71.0775 60.7487 70.9057V59.8266H55.5275V70.9057C55.5275 71.0775 55.3563 71.2493 55.1851 71.2493H52.0182C51.847 71.2493 51.6758 71.0775 51.6758 70.9057V45.1404C51.6758 44.9686 51.847 44.7969 52.0182 44.7969H55.1851C55.3563 44.7969 55.5275 44.9686 55.5275 45.1404V56.2195H60.7487V45.1404C60.7487 44.9686 60.9198 44.7969 61.091 44.7969H64.258C64.4292 44.7969 64.6004 44.9686 64.6004 45.1404V70.9916C64.5148 71.0775 64.3436 71.2493 64.1724 71.2493ZM61.3478 70.6481H63.9156V45.3981H61.3478V56.4771C61.3478 56.6489 61.1766 56.7348 61.0054 56.7348H55.1851C55.0139 56.7348 54.8427 56.563 54.8427 56.4771V45.3981H52.2749V70.6481H54.8427V59.569C54.8427 59.3972 55.0139 59.2254 55.1851 59.2254H61.091C61.2622 59.2254 61.4334 59.3972 61.4334 59.569V70.6481H61.3478Z" fill="#1F1C35"/>
<path d="M77.011 65.8425L78.9797 67.9896H81.2907L83.3449 65.8425V61.7201L74.1009 55.2787V48.7515L77.7814 44.8867H82.5746L86.2551 48.7515V52.7022H83.1738V50.0398L81.2051 47.9786H79.0653L77.1822 50.0398V53.6469L86.4263 60.0883V67.1308L82.5746 71.0814H77.6958L73.9297 67.1308V62.4071H77.011V65.8425Z" fill="#1F1C35"/>
<path d="M82.5748 71.4248H77.6104C77.5248 71.4248 77.4392 71.4248 77.3536 71.3389L73.5875 67.3023L73.502 67.1306V62.4069C73.502 62.2351 73.6731 62.0634 73.8443 62.0634H76.9257C77.0969 62.0634 77.2681 62.2351 77.2681 62.4069V65.7564L79.1511 67.7317H81.2053L83.0884 65.7564V61.8916L73.9299 55.4503C73.8443 55.3644 73.8443 55.2785 73.8443 55.1926V48.6654L73.9299 48.4937L77.6104 44.6289C77.696 44.543 77.7816 44.543 77.8672 44.543H82.6604C82.746 44.543 82.8316 44.543 82.9172 44.6289L86.5977 48.4937L86.6833 48.6654V52.6161C86.6833 52.7879 86.5121 52.9596 86.3409 52.9596H83.2596C83.0884 52.9596 82.9172 52.7879 82.9172 52.6161V50.0396L81.1198 48.1501H79.2367L77.5248 50.0396V53.3891L86.5977 59.8304C86.6833 59.9163 86.6833 60.0022 86.6833 60.088V67.0447L86.5977 67.2164L82.8316 71.3389C82.746 71.3389 82.6604 71.4248 82.5748 71.4248ZM77.7816 70.8236H82.4892L86.0842 66.9588V60.2598L77.0113 53.8185C76.9257 53.7326 76.9257 53.6467 76.9257 53.5608V49.9537L77.0113 49.7819L78.8943 47.7207C78.9799 47.6348 79.0655 47.6348 79.1511 47.6348H81.2909C81.3765 47.6348 81.4621 47.6348 81.5477 47.7207L83.5164 49.7819L83.602 49.9537V52.4443H86.0842V48.9231L82.5748 45.23H78.0384L74.5291 48.9231V55.1067L83.6875 61.5481C83.7731 61.634 83.7731 61.7198 83.7731 61.8057V65.9282L83.6875 66.0999L81.6333 68.2471C81.5477 68.3329 81.4621 68.3329 81.3765 68.3329H79.0655C78.9799 68.3329 78.8943 68.3329 78.8087 68.2471L76.7545 66.0999L76.6689 65.9282V62.7505H74.1867V67.0447L77.7816 70.8236Z" fill="#1F1C35"/>
<path d="M99.4371 49.9499L97.4684 47.9746H95.243L93.2744 49.9499V65.7527L95.243 67.9857H97.3828L99.4371 65.7527V62.9185L102.518 62.8326V66.955L98.7523 71.0775H93.8735L90.1074 66.955V48.7476L93.8735 44.7969H98.7523L102.518 48.7476V52.6124H99.4371V49.9499Z" fill="#1F1C35"/>
<path d="M98.7529 71.4248H93.7885C93.7029 71.4248 93.6173 71.4248 93.5317 71.3389L89.8512 67.1306L89.7656 66.9588V48.7513C89.7656 48.6654 89.7656 48.5795 89.8512 48.5795L93.6173 44.6289C93.7029 44.543 93.7885 44.543 93.8741 44.543H98.7529C98.8385 44.543 98.9241 44.543 99.0097 44.6289L102.776 48.5795C102.861 48.6654 102.861 48.7513 102.861 48.7513V52.6161C102.861 52.7879 102.69 52.9596 102.519 52.9596H99.3521C99.1809 52.9596 99.0097 52.7879 99.0097 52.6161V50.0396L97.2122 48.1501H95.3292L93.5317 50.0396V65.5846L95.3292 67.6459H97.2122L99.0097 65.5846V62.8363C99.0097 62.6646 99.1809 62.5787 99.2665 62.4928H102.433L102.69 62.5787C102.776 62.6646 102.776 62.7505 102.776 62.7505V66.787L102.69 66.9588L98.9241 71.1671C98.9241 71.3389 98.8385 71.4248 98.7529 71.4248ZM93.9597 70.8236H98.5817L102.177 66.787V63.094H99.6088V65.6705L99.5233 65.8423L97.5546 68.0753C97.469 68.1612 97.3834 68.1612 97.2978 68.1612H95.158C95.0724 68.1612 94.9868 68.1612 94.9012 68.0753L92.9326 65.8423L92.847 65.6705V49.9537L92.9326 49.7819L94.9012 47.7207C94.9868 47.6348 95.0724 47.6348 95.158 47.6348H97.3834C97.469 47.6348 97.5546 47.6348 97.6402 47.7207L99.6088 49.7819C99.6944 49.8678 99.6944 49.9537 99.6944 49.9537V52.2726H102.262V48.7513L98.6673 44.9724H94.0453L90.4504 48.7513V66.7011L93.9597 70.8236Z" fill="#1F1C35"/>
<path d="M106.371 70.9098V45.1445H109.538V56.4813H115.358V45.1445H118.525V70.9098H115.358V59.5731H109.538V70.9098H106.371Z" fill="#1F1C35"/>
<path d="M118.524 71.2493H115.357C115.186 71.2493 115.015 71.0775 115.015 70.9057V59.8266H109.879V70.9057C109.879 71.0775 109.708 71.2493 109.537 71.2493H106.37C106.199 71.2493 106.027 71.0775 106.027 70.9057V45.1404C106.027 44.9686 106.199 44.7969 106.37 44.7969H109.537C109.708 44.7969 109.879 44.9686 109.879 45.1404V56.2195H115.1V45.1404C115.1 44.9686 115.271 44.7969 115.443 44.7969H118.61C118.781 44.7969 118.952 44.9686 118.952 45.1404V70.9916C118.781 71.0775 118.695 71.2493 118.524 71.2493ZM115.699 70.6481H118.267V45.3981H115.699V56.4771C115.699 56.6489 115.528 56.7348 115.357 56.7348H109.537C109.365 56.7348 109.194 56.563 109.194 56.4771V45.3981H106.626V70.6481H109.194V59.569C109.194 59.3972 109.365 59.2254 109.537 59.2254H115.357C115.528 59.2254 115.699 59.3972 115.699 59.569V70.6481Z" fill="#1F1C35"/>
<path d="M135.129 66.873L131.277 70.9955H126.313L122.461 66.873V48.5796L126.313 44.7148H131.277L135.129 48.5796V66.873ZM132.047 65.6706V49.8679L129.993 47.8067H127.682L125.628 49.8679V65.6706L127.768 67.9036H130.079L132.047 65.6706Z" fill="#1F1C35"/>
<path d="M131.278 71.3388H126.313C126.228 71.3388 126.142 71.3388 126.056 71.253L122.205 67.1305L122.119 66.9587V48.5795C122.119 48.4936 122.119 48.4077 122.205 48.4077L126.056 44.5429C126.142 44.457 126.228 44.457 126.228 44.457H131.192C131.278 44.457 131.363 44.457 131.363 44.5429L135.215 48.4077C135.3 48.4936 135.3 48.5795 135.3 48.5795V66.8729L135.215 67.0446L131.363 71.1671C131.449 71.3388 131.363 71.3388 131.278 71.3388ZM126.399 70.7376H131.106L134.787 66.787V48.7512L131.106 45.0582H126.399L122.718 48.7512V66.787L126.399 70.7376ZM129.908 68.247H127.597C127.512 68.247 127.426 68.247 127.34 68.1611L125.2 65.9281L125.115 65.7564V49.8677C125.115 49.7819 125.115 49.696 125.2 49.696L127.255 47.6348C127.34 47.5489 127.426 47.5489 127.426 47.5489H129.737C129.823 47.5489 129.908 47.5489 129.908 47.6348L131.962 49.696C132.048 49.7819 132.048 49.8677 132.048 49.8677V65.6705L131.962 65.8422L129.823 68.0752C130.079 68.1611 129.994 68.247 129.908 68.247ZM127.768 67.6458H129.823L131.791 65.5846V50.0395L129.908 48.1501H127.854L125.971 50.0395V65.5846L127.768 67.6458Z" fill="#1F1C35"/>
<path d="M151.82 66.873L147.968 70.9955H143.004L139.152 66.873V48.5796L143.004 44.7148H147.968L151.82 48.5796V66.873ZM148.653 65.6706V49.8679L146.599 47.8067H144.288L142.234 49.8679V65.6706L144.374 67.9036H146.685L148.653 65.6706Z" fill="#1F1C35"/>
<path d="M147.883 71.3388H142.919C142.833 71.3388 142.747 71.3388 142.662 71.253L138.81 67.1305L138.725 66.9587V48.5795C138.725 48.4936 138.725 48.4077 138.81 48.4077L142.662 44.5429C142.747 44.457 142.833 44.457 142.833 44.457H147.797C147.883 44.457 147.969 44.457 147.969 44.5429L151.82 48.4077C151.906 48.4936 151.906 48.5795 151.906 48.5795V66.8729L151.82 67.0446L147.969 71.1671C148.054 71.3388 147.969 71.3388 147.883 71.3388ZM143.09 70.7376H147.797L151.478 66.787V48.7512L147.797 45.0582H143.09L139.409 48.7512V66.787L143.09 70.7376ZM146.514 68.247H144.203C144.117 68.247 144.031 68.247 143.946 68.1611L141.806 65.9281L141.72 65.7564V49.8677C141.72 49.7819 141.72 49.696 141.806 49.696L143.86 47.6348C143.946 47.5489 144.031 47.5489 144.031 47.5489H146.342C146.428 47.5489 146.514 47.5489 146.514 47.6348L148.568 49.696C148.653 49.7819 148.653 49.8677 148.653 49.8677V65.6705L148.568 65.8422L146.428 68.0752C146.685 68.1611 146.599 68.247 146.514 68.247ZM144.374 67.6458H146.428L148.397 65.5846V50.0395L146.514 48.1501H144.459L142.576 50.0395V65.5846L144.374 67.6458Z" fill="#1F1C35"/>
<path d="M158.925 45.0586V67.9038H166.714V70.9098H155.758V45.0586H158.925Z" fill="#1F1C35"/>
<path d="M166.712 71.2531H155.756C155.585 71.2531 155.414 71.0813 155.414 70.9096V45.0584C155.414 44.8866 155.585 44.7148 155.756 44.7148H158.923C159.095 44.7148 159.266 44.8866 159.266 45.0584V67.646H166.712C166.884 67.646 167.055 67.8177 167.055 67.9895V70.9955C166.969 71.0813 166.884 71.2531 166.712 71.2531ZM156.099 70.6519H166.37V68.2472H158.923C158.752 68.2472 158.581 68.0754 158.581 67.9036V45.316H156.013V70.6519H156.099Z" fill="#1F1C35"/>
<path d="M43.2887 13.7946V14.7393H41.3201V17.3158H43.8023V18.2606H40.293V10.1016C41.5769 10.1016 42.2616 10.1016 43.6311 10.1016V11.0463H41.3201V13.7946H43.2887Z" fill="#1F1C35"/>
<path d="M44.0584 18.5181H40.1211V9.92969H43.8872V11.3038H41.5762V13.5368H43.5448V14.911H41.5762V17.0581H44.0584V18.5181ZM40.5491 18.0887H43.6304V17.5734H41.1482V14.5674H43.1169V14.0521H41.1482V10.9603H43.4592V10.3591H40.5491V18.0887Z" fill="#1F1C35"/>
<path d="M46.2833 16.7147L46.8825 17.4017H47.6528L48.252 16.7147V15.4264L45.3418 13.3652V11.3039L46.5401 10.1016H47.9952L49.1935 11.3039V12.5922H48.252V11.7334L47.5672 11.1322H46.9681L46.3689 11.7334V12.8499L49.1935 14.9111V17.0582L48.0808 18.3465H46.4545L45.3418 17.0582V15.5982H46.2833V16.7147Z" fill="#1F1C35"/>
<path d="M48.1676 18.522H46.4558L45.1719 17.1478V15.3443H46.5414V16.5466L47.0549 17.0619H47.5685L48.082 16.5466V15.516L45.1719 13.4548V11.2218L46.4558 9.84766H48.1676L49.4515 11.2218V12.7677H48.082V11.823L47.5685 11.3077H47.0549L46.5414 11.823V12.7677L49.4515 14.8289V17.2337L48.1676 18.522ZM46.627 18.0926H47.9965L49.0236 16.9761V15.0007L46.1134 12.9395V11.6512L46.7981 10.8783H47.6541L48.3388 11.6512V12.3383H48.8524V11.3936L47.9109 10.363H46.5414L45.5142 11.4795V13.283L48.4244 15.3443V16.8043L47.6541 17.5772H46.7981L46.0278 16.8043V15.8596H45.5142V17.0619L46.627 18.0926Z" fill="#1F1C35"/>
<path d="M52.0176 11.0502H50.5625V10.1914H54.4142V11.0502H52.9591V18.2645H52.0176V11.0502Z" fill="#1F1C35"/>
<path d="M53.2172 18.5181H51.8477V11.218H50.3926V9.92969H54.6722V11.218H53.2172V18.5181ZM52.19 18.0887H52.7036V10.8744H54.2443V10.3591H50.8205V10.7885H52.2756V18.0887H52.19Z" fill="#1F1C35"/>
<path d="M56.041 10.1914H58.6088L59.8071 11.3938V17.0622L58.6088 18.2645C57.7529 18.2645 56.8969 18.2645 56.041 18.2645V10.1914ZM58.1808 17.3198L58.78 16.7186V11.8232L58.1808 11.222H56.9825V17.3198H58.1808Z" fill="#1F1C35"/>
<path d="M58.6953 18.5182H55.7852V10.0156H58.6953L60.0648 11.3898V17.2299L58.6953 18.5182ZM56.2131 18.0888H58.5241L59.6369 16.9723V11.4757L58.5241 10.445H56.2131V18.0888ZM58.2674 17.4876H56.8123V10.9604H58.2674L59.0377 11.7333V16.8005L58.2674 17.4876ZM57.2402 17.0581H58.0962L58.6097 16.5428V11.9051L58.0962 11.3898H57.2402V17.0581Z" fill="#1F1C35"/>
<path d="M108.597 10.1914V17.4057H109.881V18.2645H106.457V17.4057H107.655V11.1361H106.543V10.1914H108.597Z" fill="#1F1C35"/>
<path d="M110.051 18.5182H106.199V17.144H107.398V11.3898H106.285V10.0156H108.853V17.2299H110.051V18.5182ZM106.627 18.0888H109.623V17.5734H108.425V10.3592H106.713V10.8745H107.825V17.4876H106.627V18.0888Z" fill="#1F1C35"/>
<path d="M112.362 14.915L111.164 13.7127V11.3938L112.362 10.1914H113.903L115.101 11.3938V17.148L113.903 18.3504H112.362L111.25 17.148V16.1174H112.191V16.8045L112.705 17.4057H113.389L113.989 16.8045V15.0009H112.362V14.915ZM114.074 13.9703V11.8232L113.475 11.1361H112.79L112.191 11.8232V13.3691L112.79 14.0562H114.074V13.9703Z" fill="#1F1C35"/>
<path d="M113.988 18.5181H112.276L111.078 17.2299V15.8557H112.447V16.7146L112.875 17.144H113.389L113.902 16.7146V15.1686H112.276L110.992 13.7945V11.3038L112.276 9.92969H113.988L115.272 11.3038V17.2299L113.988 18.5181ZM112.447 18.0887H113.817L114.844 17.0581V11.4756L113.817 10.3591H112.447L111.42 11.4756V13.6227L112.447 14.6533H114.33V16.8004L113.56 17.4875H112.704L112.019 16.8004V16.1992H111.506V16.9722L112.447 18.0887ZM114.245 14.138H112.618L111.848 13.3651V11.6474L112.618 10.8744H113.474L114.245 11.6474V14.138ZM112.875 13.7086H113.902V11.8191L113.389 11.3038H112.875L112.362 11.8191V13.1933L112.875 13.7086Z" fill="#1F1C35"/>
<path d="M118.011 14.915L116.812 13.7127V11.3938L118.011 10.1914H119.551L120.75 11.3938V17.148L119.551 18.3504H118.011L116.898 17.148V16.1174H117.84V16.8045L118.353 17.4057H119.038L119.637 16.8045V15.0009H118.011V14.915ZM119.723 13.9703V11.8232L119.124 11.1361H118.439L117.84 11.8232V13.3691L118.439 14.0562H119.723V13.9703Z" fill="#1F1C35"/>
<path d="M119.636 18.5181H117.925L116.726 17.2299V15.8557H118.096V16.7146L118.524 17.144H119.037L119.551 16.7146V15.1686H117.925L116.641 13.7945V11.3038L117.925 9.92969H119.636L120.92 11.3038V17.2299L119.636 18.5181ZM118.096 18.0887H119.465L120.492 17.0581V11.4756L119.465 10.3591H118.096L117.069 11.4756V13.6227L118.096 14.7392H119.979V16.8863L119.208 17.5734H118.352L117.668 16.8863V16.2851H117.154V17.0581L118.096 18.0887ZM119.979 14.138H118.352L117.582 13.3651V11.6474L118.352 10.8744H119.208L119.979 11.6474V14.138ZM118.524 13.7086H119.551V11.8191L119.037 11.3038H118.524L118.01 11.8191V13.1933L118.524 13.7086Z" fill="#1F1C35"/>
<path d="M124.944 11.4797V11.1361H123.318V11.995H122.291V10.1914H125.886V11.6514L123.746 18.2645H122.719L124.944 11.4797Z" fill="#1F1C35"/>
<path d="M123.917 18.5182H122.462L124.773 11.4757V11.3898H123.575V12.2486H122.205V10.0156H126.228V11.7333L123.917 18.5182ZM122.975 18.0888H123.575L125.714 11.5615V10.3592H122.547V11.7333H123.061V10.8745H125.115V11.4757L122.975 18.0888Z" fill="#1F1C35"/>
<path d="M37.2109 100.965V95.2969H39.0084C40.8059 95.2969 41.9186 96.1557 41.9186 98.0452C41.9186 99.9346 40.8059 100.965 39.1796 100.965H37.2109ZM40.8059 98.0452C40.8059 96.7569 40.2067 96.3275 39.0084 96.3275H38.4092V99.8487H39.1796C40.2067 99.9346 40.8059 99.2476 40.8059 98.0452Z" fill="#1F1C35"/>
<path d="M43.7168 100.965V95.2969H47.1405V96.3275H44.9151V97.444H46.4558V98.4746H44.9151V99.9346H47.1405V100.965H43.7168Z" fill="#1F1C35"/>
<path d="M49.1094 100.965V95.2969H52.6187V96.3275H50.3077V97.444H51.934V98.4746H50.3077V99.9346H52.6187V100.965H49.1094Z" fill="#1F1C35"/>
<path d="M54.5 100.965V95.2969H56.5542C57.6669 95.2969 58.3517 95.9839 58.3517 97.1863C58.3517 98.3028 57.6669 99.0758 56.5542 99.0758H55.6127V101.051H54.5V100.965ZM57.3246 97.1863C57.3246 96.671 56.9822 96.4134 56.3831 96.4134H55.6127V98.0452H56.3831C56.9822 97.9593 57.3246 97.7016 57.3246 97.1863Z" fill="#1F1C35"/>
<path d="M63.0605 99.9384L64.0021 99.2514C64.2589 99.6808 64.6012 99.9384 65.0292 99.9384C65.3716 99.9384 65.6283 99.6808 65.6283 99.3372C65.6283 98.4784 63.4029 98.1349 63.4029 96.5889C63.4029 95.7301 64.1733 95.1289 64.9436 95.1289C65.5427 95.1289 66.0563 95.3866 66.3131 95.9019L65.5427 96.5889C65.3716 96.3313 65.2004 96.1595 64.9436 96.1595C64.6868 96.1595 64.5156 96.3313 64.5156 96.5889C64.5156 97.276 66.6555 97.7054 66.6555 99.2514C66.6555 100.196 65.8851 100.969 64.858 100.969C64.1733 101.055 63.4029 100.711 63.0605 99.9384Z" fill="#1F1C35"/>
<path d="M68.7088 100.965V96.4134H67.6816V95.2969H71.0198V96.4134H69.9071V100.965H68.7088Z" fill="#1F1C35"/>
<path d="M75.2995 99.0758V95.2969H76.4978V98.9899C76.4978 100.45 75.5563 101.137 74.5292 101.137C73.5021 101.137 72.5605 100.536 72.5605 98.9899V95.2969H73.7589V99.0758C73.7589 99.677 74.1012 100.021 74.5292 100.021C74.9572 100.021 75.2995 99.677 75.2995 99.0758Z" fill="#1F1C35"/>
<path d="M78.5527 100.965V95.2969H80.3502C82.1476 95.2969 83.2604 96.1557 83.2604 98.0452C83.2604 99.9346 82.1476 100.965 80.5214 100.965H78.5527ZM82.0621 98.0452C82.0621 96.7569 81.4629 96.3275 80.2646 96.3275H79.6654V99.8487H80.4358C81.5485 99.9346 82.0621 99.2476 82.0621 98.0452Z" fill="#1F1C35"/>
<path d="M85.9134 100.965V98.5605L84.2871 95.2969H85.571L86.2558 97.0146C86.3413 97.2722 86.4269 97.444 86.4269 97.5299C86.4269 97.5299 86.5125 97.2722 86.5981 97.0146L87.3685 95.2969H88.6524L86.9405 98.5605V100.965H85.9134Z" fill="#1F1C35"/>
<path d="M96.2695 101.055C94.6433 101.055 93.3594 99.7667 93.3594 98.1349C93.3594 96.5031 94.6433 95.2148 96.2695 95.2148C97.2111 95.2148 97.8958 95.5584 98.4094 96.2455L97.5534 97.0184C97.2111 96.6749 96.7831 96.4172 96.2695 96.4172C95.328 96.4172 94.5577 97.1902 94.5577 98.2208C94.5577 99.2514 95.328 100.024 96.2695 100.024C96.7831 100.024 97.2111 99.7667 97.639 99.3373L98.495 100.024C97.8958 100.626 97.2111 101.055 96.2695 101.055Z" fill="#1F1C35"/>
<path d="M100.121 100.965V95.2969H101.234V99.9346H103.202V100.965H100.121Z" fill="#1F1C35"/>
<path d="M107.655 99.6809H105.943L105.515 101.055H104.316L106.114 95.3867H107.398L109.195 101.055H107.997L107.655 99.6809ZM106.199 98.7362H107.398L107.227 98.135C107.055 97.5338 106.884 96.9326 106.799 96.5032C106.713 96.9326 106.542 97.5338 106.371 98.135L106.199 98.7362Z" fill="#1F1C35"/>
<path d="M110.223 99.9384L111.164 99.2514C111.421 99.6808 111.763 99.9384 112.191 99.9384C112.534 99.9384 112.79 99.6808 112.79 99.3372C112.79 98.4784 110.565 98.1349 110.565 96.5889C110.565 95.7301 111.335 95.1289 112.106 95.1289C112.705 95.1289 113.218 95.3866 113.475 95.9019L112.705 96.5889C112.534 96.3313 112.362 96.1595 112.106 96.1595C111.849 96.1595 111.678 96.3313 111.678 96.5889C111.678 97.276 113.818 97.7054 113.818 99.2514C113.818 100.196 113.047 100.969 112.02 100.969C111.335 101.055 110.565 100.711 110.223 99.9384Z" fill="#1F1C35"/>
<path d="M114.93 99.9384L115.871 99.2514C116.128 99.6808 116.47 99.9384 116.898 99.9384C117.241 99.9384 117.497 99.6808 117.497 99.3372C117.497 98.4784 115.272 98.1349 115.272 96.5889C115.272 95.7301 116.042 95.1289 116.813 95.1289C117.412 95.1289 117.925 95.3866 118.182 95.9019L117.412 96.5889C117.241 96.3313 117.07 96.1595 116.813 96.1595C116.556 96.1595 116.385 96.3313 116.385 96.5889C116.385 97.276 118.525 97.7054 118.525 99.2514C118.525 100.196 117.754 100.969 116.727 100.969C116.128 101.055 115.358 100.711 114.93 99.9384Z" fill="#1F1C35"/>
<path d="M120.322 100.965V95.2969H123.746V96.3275H121.435V97.444H123.061V98.4746H121.435V99.9346H123.746V100.965H120.322Z" fill="#1F1C35"/>
<path d="M125.201 99.9384L126.143 99.2514C126.399 99.6808 126.742 99.9384 127.17 99.9384C127.512 99.9384 127.769 99.6808 127.769 99.3372C127.769 98.4784 125.544 98.1349 125.544 96.5889C125.544 95.7301 126.314 95.1289 127.084 95.1289C127.683 95.1289 128.197 95.3866 128.454 95.9019L127.683 96.5889C127.512 96.3313 127.341 96.1595 127.084 96.1595C126.827 96.1595 126.656 96.3313 126.656 96.5889C126.656 97.276 128.796 97.7054 128.796 99.2514C128.796 100.196 128.026 100.969 126.999 100.969C126.314 101.055 125.629 100.711 125.201 99.9384Z" fill="#1F1C35"/>
<path d="M165.344 83.706H1.17624C0.662685 83.706 0.320312 83.3624 0.320312 82.8471C0.320312 82.3318 0.662685 81.9883 1.17624 81.9883H165.344C165.858 81.9883 166.2 82.3318 166.2 82.8471C166.2 83.2765 165.772 83.706 165.344 83.706Z" fill="#1F1C35"/>
<path d="M70.2496 23.0717H71.3623V28.053C71.3623 29.3413 72.3894 30.4578 73.7589 30.4578C75.0428 30.4578 76.1555 29.4271 76.1555 28.053V23.0717H90.4496V28.053C90.4496 29.3413 91.4767 30.4578 92.8462 30.4578C94.1301 30.4578 95.2428 29.4271 95.2428 28.053V23.0717H96.3555C98.3241 23.0717 99.8648 21.5258 99.8648 19.5504V3.57595C99.8648 1.60061 98.3241 0.0546875 96.3555 0.0546875H70.2496C68.2809 0.0546875 66.7402 1.60061 66.7402 3.57595V19.6363C66.7402 21.5258 68.3665 23.0717 70.2496 23.0717ZM74.4436 28.1389C74.4436 28.4824 74.1013 28.8259 73.7589 28.8259C73.4165 28.8259 73.0741 28.4824 73.0741 28.1389V23.1576H74.4436V28.1389ZM93.4453 28.1389C93.4453 28.4824 93.1029 28.8259 92.7606 28.8259C92.4182 28.8259 92.0758 28.4824 92.0758 28.1389V23.1576H93.4453V28.1389ZM96.2699 21.4399H95.1572H94.3013H93.4453H92.0758H91.2199H90.364H76.0699H75.214H74.358H73.0741H72.2182H71.3623H70.2496C69.308 21.4399 68.6233 20.7528 68.4521 19.894H71.3623H72.2182H73.0741H74.4436H75.2996H76.1555H90.4496H91.3055H92.1614H93.5309H94.3868H95.2428H98.1529C97.8962 20.7528 97.1258 21.4399 96.2699 21.4399ZM68.4521 3.57595C68.4521 2.54533 69.308 1.77237 70.2496 1.77237H71.7046H72.8174H74.5292H75.6419H90.7063H91.819H93.5309H94.6436H96.0987C97.1258 1.77237 97.8962 2.63122 97.8962 3.57595V19.121H94.986H94.1301H93.2741H91.9046H91.0487H90.1928H76.0699H75.214H74.358H73.0741H72.2182H71.3623H68.4521V3.57595Z" fill="#1F1C35"/>
<path d="M76.5848 11.1328H77.8687L79.6661 15.5129C79.7517 15.7706 80.0941 15.9424 80.3509 15.9424H80.4365C80.7789 15.9424 81.0356 15.6847 81.1212 15.4271L83.5178 6.4092H88.3111C88.739 6.4092 89.0814 6.06566 89.0814 5.63624C89.0814 5.20682 88.739 4.86328 88.3111 4.86328H82.9187C82.5763 4.86328 82.3195 5.12093 82.2339 5.37859L80.2653 12.9364L79.067 10.1022C78.9814 9.84457 78.639 9.67281 78.3822 9.67281H76.5848C76.4136 9.67281 76.2424 9.75869 76.0712 9.84457C75.9 10.0163 75.8145 10.1881 75.8145 10.3599C75.8145 10.6175 75.9 10.7893 76.0712 10.8752C76.2424 11.047 76.4136 11.1328 76.5848 11.1328Z" fill="#1F1C35"/>
<path d="M84.5441 9.15625C84.1161 9.15625 83.8594 9.49979 83.8594 9.84332V10.7881C83.8594 11.1316 84.2017 11.4751 84.5441 11.4751C84.8865 11.4751 85.2288 11.1316 85.2288 10.7881V10.5304H88.0534C88.3958 10.5304 88.7382 10.7881 88.7382 11.2175C88.7382 11.6469 88.4814 11.9045 88.0534 11.9045H86.3416C85.9992 11.9045 85.6568 12.2481 85.6568 12.5916C85.6568 13.021 85.9992 13.2787 86.3416 13.2787H88.3102C88.6526 13.2787 88.995 13.6222 88.995 13.9658C88.995 14.3093 88.6526 14.6528 88.3102 14.6528H85.6568C85.4 14.6528 85.2288 14.4811 85.0577 14.2234C84.9721 13.8799 84.5441 13.7081 84.2017 13.794C83.8594 13.8799 83.6882 14.3093 83.7738 14.6528C84.0305 15.5117 84.7153 16.027 85.6568 16.027H88.3102C89.4229 16.027 90.3644 15.0823 90.3644 13.9658C90.3644 13.3646 90.1077 12.8493 89.6797 12.4199C89.9365 12.0763 90.1077 11.6469 90.1077 11.2175C90.1077 10.101 89.1661 9.15625 88.0534 9.15625H84.5441Z" fill="#1F1C35"/>
</g>
<defs>
<clipPath id="clip0_4340_3010">
<rect width="166.65" height="101" fill="white" transform="translate(0.320312 0.0546875)"/>
</clipPath>
</defs>
</svg>
