<svg width="109" height="101" viewBox="0 0 109 101" fill="none" xmlns="http://www.w3.org/2000/svg">
<g clip-path="url(#clip0_4381_1177)">
<path d="M45.344 73.4414H45.4814C46.3058 73.4414 46.9241 73.9237 47.3363 74.8193L47.405 75.3705V85.2224C47.405 86.1181 46.9241 86.7381 46.031 87.1515C45.8249 87.2204 45.6188 87.2204 45.4127 87.2204C44.5882 87.2204 43.9699 86.807 43.5577 86.0492C43.4203 85.8425 43.3516 85.4291 43.3516 84.878V75.9216C43.3516 75.026 43.5577 74.4748 43.9012 74.1992C44.3134 73.6481 44.7943 73.4414 45.344 73.4414ZM44.1073 75.4394V85.1535C44.1073 85.7736 44.4508 86.187 45.0691 86.3937C45.1378 86.3937 45.2065 86.3937 45.344 86.3937H45.4127C45.8936 86.3937 46.2371 86.1181 46.5119 85.6358L46.5806 85.2224V75.3016C46.5806 74.9571 46.3745 74.6126 46.031 74.337C45.8249 74.1993 45.5501 74.1304 45.344 74.1304C44.863 74.1304 44.5195 74.337 44.2447 74.8193C44.176 75.026 44.1073 75.2327 44.1073 75.4394Z" fill="#1F1C35"/>
<path d="M45.4117 87.4942C44.5186 87.4942 43.8316 87.0119 43.3506 86.1163C43.2132 85.9096 43.1445 85.4274 43.1445 84.8073V75.851C43.1445 74.8864 43.3506 74.2664 43.7629 73.9219C44.1751 73.4396 44.7247 73.1641 45.343 73.1641H45.4804C46.4423 73.1641 47.1293 73.7152 47.6102 74.6798V74.7486L47.6789 75.2998V85.1518C47.6789 86.1852 47.1293 86.8742 46.1675 87.2875C45.824 87.4253 45.6178 87.4942 45.4117 87.4942ZM45.343 73.7152C44.8621 73.7152 44.4499 73.9219 44.1064 74.2664C43.7629 74.542 43.6255 75.0242 43.6255 75.7821V84.7384C43.6255 85.4274 43.6942 85.7029 43.7629 85.7718C44.1064 86.4608 44.656 86.8053 45.343 86.8053C45.4804 86.8053 45.6865 86.8053 45.8927 86.7364C46.6484 86.3919 47.0606 85.8407 47.0606 85.0829V75.2309L46.9919 74.7486C46.6484 73.9219 46.0988 73.5774 45.4117 73.5774H45.343V73.7152ZM45.4804 86.7364H45.343C45.1369 86.7364 45.0682 86.7364 44.9995 86.6675C44.0377 86.3919 43.8316 85.7029 43.8316 85.1518V75.4376C43.8316 75.162 43.9003 74.8864 44.0377 74.6798C44.3812 74.1286 44.7934 73.853 45.343 73.853C45.6178 73.853 45.8927 73.9219 46.1675 74.1286C46.6484 74.4731 46.8545 74.8864 46.8545 75.2998V85.2207L46.7858 85.7029C46.4423 86.5297 45.8927 86.7364 45.4804 86.7364ZM45.4117 74.4042C45.0682 74.4042 44.7934 74.6109 44.5186 74.9553C44.4499 75.0931 44.3812 75.2998 44.3812 75.4376V85.1518C44.3812 85.634 44.656 85.9785 45.1369 86.1163C45.1369 86.1163 45.2056 86.1163 45.2743 86.1163H45.343C45.5491 86.1163 45.8927 86.0474 46.1675 85.4963L46.2362 85.1518V75.2998C46.2362 75.0242 46.0988 74.8175 45.824 74.542C45.7552 74.4731 45.5491 74.4042 45.4117 74.4042Z" fill="#1F1C35"/>
<path d="M56.3374 76.7484V87.1515H55.6504V73.4414H56.2687L58.8794 83.9134V73.4414H59.6352V87.1515H59.2917V87.2204H58.9481L56.3374 76.7484Z" fill="#1F1C35"/>
<path d="M59.2911 87.4995H58.9476C58.8102 87.4995 58.7415 87.4306 58.6728 87.2928L56.6117 79.0255V87.224C56.6117 87.3617 56.4743 87.4995 56.3368 87.4995H55.6498C55.5124 87.4995 55.375 87.3617 55.375 87.224V73.5139C55.375 73.3761 55.5124 73.2383 55.6498 73.2383H56.3368C56.4743 73.2383 56.543 73.3072 56.6117 73.445L58.6728 81.7124V73.5139C58.6728 73.3761 58.8102 73.2383 58.9476 73.2383H59.7033C59.8407 73.2383 59.9781 73.3761 59.9781 73.5139V87.224C59.9781 87.3617 59.8407 87.4995 59.7033 87.4995H59.4285H59.2911ZM59.1537 86.9484H59.2911H59.3598V73.7205H59.1537V83.8481C59.1537 83.9859 59.0163 84.1237 58.8789 84.1237C58.7415 84.1237 58.604 84.0548 58.604 83.917L56.062 73.7205H55.8559V86.8795H56.062V76.683C56.062 76.5452 56.1994 76.4074 56.3368 76.4074C56.4743 76.4074 56.6117 76.4763 56.6117 76.6141L59.1537 86.9484Z" fill="#1F1C35"/>
<path d="M68.085 73.4414H68.4285L68.6346 73.6481V86.4626H71.5889L71.795 86.6692V87.0137L71.5889 87.2204H67.8789V73.6481L68.085 73.4414Z" fill="#1F1C35"/>
<path d="M71.5883 87.4942H67.8783C67.7409 87.4942 67.6035 87.3564 67.6035 87.2186V73.6463C67.6035 73.5774 67.6722 73.5085 67.6722 73.4396L67.8783 73.233C67.947 73.1641 68.0157 73.1641 68.0844 73.1641H68.3592C68.428 73.1641 68.4967 73.1641 68.5654 73.233L68.7715 73.4396C68.8402 73.5085 68.8402 73.5774 68.8402 73.6463V86.1852H71.5196C71.5883 86.1852 71.657 86.1852 71.7257 86.2541L71.9318 86.4608C72.0005 86.5297 72.0005 86.5986 72.0005 86.6675V87.012C72.0005 87.0808 72.0005 87.1497 71.9318 87.2186L71.7257 87.4253C71.7257 87.4253 71.657 87.4942 71.5883 87.4942ZM68.1531 86.9431H71.4509L71.5196 86.8742V86.8053L71.4509 86.7364H68.6341C68.4967 86.7364 68.3592 86.5986 68.3592 86.4608V73.7841L68.2905 73.7152H68.1531L68.0844 73.7841V86.9431H68.1531Z" fill="#1F1C35"/>
<path d="M80.9315 73.4414H80.1758V87.2204H80.9315V73.4414Z" fill="#1F1C35"/>
<path d="M80.9329 87.4942H80.1772C80.0397 87.4942 79.9023 87.3564 79.9023 87.2186V73.4396C79.9023 73.3019 80.0397 73.1641 80.1772 73.1641H80.9329C81.0703 73.1641 81.2077 73.3019 81.2077 73.4396V87.2186C81.2077 87.3564 81.0703 87.4942 80.9329 87.4942ZM80.452 86.9431H80.6581V73.7152H80.452V86.9431Z" fill="#1F1C35"/>
<path d="M90.4823 76.7484V87.1515H89.7266V73.4414H90.4136L93.0243 83.9134V73.4414H93.78V87.1515H93.4365V87.2204H93.093L90.4823 76.7484Z" fill="#1F1C35"/>
<path d="M93.436 87.4995H93.0924C92.955 87.4995 92.8863 87.4306 92.8176 87.2928L90.7565 79.0255V87.224C90.7565 87.3617 90.6191 87.4995 90.4817 87.4995H89.726C89.5886 87.4995 89.4512 87.3617 89.4512 87.224V73.5139C89.4512 73.3761 89.5886 73.2383 89.726 73.2383H90.413C90.5504 73.2383 90.6191 73.3072 90.6878 73.445L92.7489 81.7124V73.5139C92.7489 73.3761 92.8863 73.2383 93.0237 73.2383H93.7795C93.9169 73.2383 94.0543 73.3761 94.0543 73.5139V87.224C94.0543 87.3617 93.9169 87.4995 93.7795 87.4995H93.5047H93.436ZM93.2986 86.9484H93.436H93.5047V73.7205H93.2986V83.8481C93.2986 83.9859 93.1611 84.1237 93.0237 84.1237C92.8863 84.1237 92.7489 84.0548 92.7489 83.917L90.2069 73.6516H90.0008V86.8106H90.2069V76.6141C90.2069 76.4763 90.3443 76.3386 90.4817 76.3386C90.6191 76.3386 90.7565 76.4074 90.7565 76.5452L93.2986 86.9484Z" fill="#1F1C35"/>
<path d="M105.871 73.4414V74.1992H102.71V79.9864H104.291V80.6754H102.71V86.4626H105.871V87.2204H102.023V73.4414H105.871Z" fill="#1F1C35"/>
<path d="M105.871 87.4942H101.954C101.817 87.4942 101.68 87.3564 101.68 87.2186V73.4396C101.68 73.3019 101.817 73.1641 101.954 73.1641H105.871C106.008 73.1641 106.145 73.3019 106.145 73.4396V74.1975C106.145 74.3353 106.008 74.4731 105.871 74.4731H102.985V79.7091H104.222C104.359 79.7091 104.497 79.8469 104.497 79.9847V80.7425C104.497 80.8803 104.359 81.0181 104.222 81.0181H102.985V86.2541H105.871C106.008 86.2541 106.145 86.3919 106.145 86.5297V87.2875C106.145 87.3564 106.077 87.4942 105.871 87.4942ZM102.298 86.9431H105.664V86.7364H102.779C102.642 86.7364 102.504 86.5986 102.504 86.4608V80.6736C102.504 80.5358 102.642 80.398 102.779 80.398H104.016V80.1913H102.779C102.642 80.1913 102.504 80.0536 102.504 79.9158V74.1286C102.504 73.9908 102.642 73.853 102.779 73.853H105.664V73.7152H102.298V86.9431Z" fill="#1F1C35"/>
<path d="M9.5502 50.2926C8.93187 49.6036 8.24484 48.9147 7.62651 48.2257C6.93948 48.5702 6.18375 48.9147 5.49672 49.2591C4.87839 50.5681 4.26006 51.8771 3.64173 53.255C3.64173 61.1091 3.64173 69.032 3.64173 76.886C4.26006 77.575 4.87839 78.2639 5.56542 78.884C6.25245 78.4017 6.93948 77.9194 7.69522 77.4372C8.31355 75.9215 9.00058 74.4058 9.61891 72.959C9.61891 71.5811 9.61891 70.2032 9.61891 68.8253C10.6495 68.2052 11.68 67.5852 12.7105 66.9651C12.7105 68.8942 12.7105 70.8233 12.7105 72.6834C11.4739 75.4392 10.2372 78.195 9.06928 81.0886C7.48911 82.1909 5.84023 83.2932 4.26006 84.4645C3.09211 83.2243 1.85545 81.9842 0.6875 80.6752C0.6875 71.3744 0.6875 62.1425 0.6875 52.8417C1.92416 50.2237 3.09211 47.6057 4.32877 45.1254C5.90894 44.4365 7.48911 43.7475 9.06928 43.0586C10.3059 44.4365 11.5426 45.8144 12.7105 47.1234C12.7105 48.9836 12.7105 50.7748 12.7105 52.635C11.68 53.1173 10.6495 53.5995 9.61891 54.1507C9.5502 52.8417 9.5502 51.6016 9.5502 50.2926Z" fill="#1F1C35"/>
<path d="M4.12219 85.2916L3.77867 84.9471C2.61072 83.707 1.37406 82.4669 0.206109 81.1579L0 81.0201V52.8421L0.0687031 52.7043C1.23666 50.0863 2.47331 47.4683 3.70997 44.988L3.77867 44.7813L3.98478 44.7125C5.56495 44.0235 7.14512 43.2657 8.7253 42.6456L9.13751 42.5078L9.41233 42.8523C10.649 44.2302 11.8856 45.6081 13.0536 46.9171L13.191 47.0549V53.1865L12.8475 53.3243C11.8169 53.8066 10.7864 54.2888 9.82455 54.84L9.00011 55.1156V50.5685C8.51919 50.0174 8.03826 49.5351 7.55734 48.9839C7.00772 49.2595 6.5268 49.4662 5.97717 49.7418C5.42755 50.913 4.80922 52.1531 4.25959 53.3932V76.6797C4.74051 77.162 5.22144 77.6442 5.63366 78.1265C6.18328 77.782 6.6642 77.4376 7.21383 77.0931C7.83216 75.6463 8.45048 74.2684 9.06881 72.8905V68.5501L9.34362 68.4123C10.3742 67.7923 11.4047 67.1722 12.4353 66.5521L13.3284 66.001V72.8905L13.2597 73.0283C12.023 75.7152 10.8551 78.5399 9.61844 81.3646L9.54973 81.5024L9.41233 81.5713C7.76345 82.6736 6.18328 83.8448 4.67181 84.9471L4.12219 85.2916ZM1.16795 80.5378C2.1985 81.6401 3.22905 82.7425 4.25959 83.7759C5.63366 82.7425 7.07642 81.7779 8.51919 80.7445C9.68714 77.9887 10.9238 75.2329 12.0917 72.6149V68.0678C11.4734 68.4812 10.8551 68.8257 10.1681 69.2391V73.1661L10.0994 73.3039C9.48103 74.7507 8.794 76.2663 8.17567 77.782L8.10697 77.9198L7.96956 77.9887C7.28253 78.471 6.5955 78.9532 5.83976 79.4355L5.42755 79.7111L5.08403 79.3666C4.4657 78.6777 3.77867 78.0576 3.16034 77.3687L3.02294 77.2309V77.0242V53.2554L3.09164 53.1176C3.70997 51.8086 4.3283 50.4307 4.94662 49.1217L5.01533 48.915L5.22144 48.8461C5.97717 48.5017 6.6642 48.1572 7.41994 47.8127L7.83215 47.606L8.10697 47.9505C8.7253 48.6395 9.34362 49.3284 10.0307 50.0174L10.1681 50.1552V53.2554C10.7864 52.911 11.4047 52.6354 12.0917 52.3598V47.4682C10.9925 46.297 9.96195 45.1258 8.8627 43.8857C7.48864 44.5058 6.11458 45.0569 4.67181 45.677C3.50386 48.0194 2.33591 50.5685 1.16795 53.0487V80.5378Z" fill="#1F1C35"/>
<path d="M28.6485 63.5221C27.3431 65.9334 26.0378 68.4136 24.8011 70.8938C23.1522 71.8584 21.5034 72.8229 19.9232 73.8563C18.6865 72.8229 17.3812 71.7206 16.1445 70.5494C16.1445 62.2131 16.1445 53.8079 16.1445 45.4716C17.4499 43.1292 18.6865 40.9245 19.9919 38.7199C21.6408 38.1687 23.221 37.6176 24.8698 37.0664C26.1752 38.3065 27.4118 39.5466 28.7172 40.7178C28.6485 48.3652 28.6485 55.9436 28.6485 63.5221ZM25.5569 63.6599C25.5569 56.9082 25.5569 50.2253 25.5569 43.5425C24.8698 42.9225 24.1828 42.3024 23.4958 41.6135C22.74 41.8891 21.9843 42.1646 21.1599 42.4402C20.4728 43.6114 19.7858 44.7826 19.0988 46.0228C19.0988 53.05 19.0988 60.1462 19.0988 67.1735C19.7858 67.7936 20.4728 68.4136 21.1599 68.9648C21.9156 68.5514 22.6713 68.0691 23.4271 67.6558C24.1141 66.2779 24.8011 64.9689 25.5569 63.6599Z" fill="#1F1C35"/>
<path d="M19.7876 74.6117L19.4441 74.3361C18.2075 73.3027 16.9021 72.2004 15.5967 71.0292L15.3906 70.8225V70.5469V45.3313L15.4593 45.1936C16.7647 42.8511 18.0013 40.5776 19.3067 38.4418L19.4441 38.2352L19.6502 38.1663C21.2991 37.6151 22.948 37.064 24.5281 36.5128L24.8717 36.375L25.1465 36.6506C26.4518 37.8907 27.6885 39.1308 28.9938 40.302L29.2 40.5087V40.7843V63.6574L29.1313 63.7952C27.8259 66.2065 26.5205 68.6867 25.2839 71.167L25.2152 71.3047L25.0778 71.3736C23.4289 72.3382 21.78 73.3027 20.1998 74.3361L19.7876 74.6117ZM16.6273 70.3402C17.7265 71.3047 18.8258 72.2693 19.925 73.1649C21.3678 72.2693 22.8793 71.3736 24.322 70.478C25.5587 68.0667 26.7953 65.6554 28.032 63.3818V41.0599C26.864 40.0264 25.7648 38.9241 24.5968 37.8218C23.1541 38.3041 21.7113 38.7863 20.2685 39.2686C19.0319 41.3354 17.8639 43.4712 16.6273 45.6758V70.3402ZM21.1617 69.6513L20.8182 69.3757C20.1311 68.7556 19.4441 68.2045 18.7571 67.5844L18.551 67.4466V45.8136L18.6197 45.6758C19.3067 44.4357 19.9937 43.2645 20.6808 42.0933L20.8182 41.8866L21.0243 41.8177C21.78 41.5421 22.6045 41.2665 23.3602 40.991L23.7037 40.8532L23.9785 41.1288C24.6655 41.7488 25.3526 42.4378 26.0396 43.0578L26.2457 43.2645V43.5401V63.8641L26.177 64.0019C25.49 65.3109 24.803 66.6888 24.1159 67.9978L24.0472 68.1356L23.7037 68.2045C22.948 68.6178 22.1922 69.0312 21.4365 69.5135L21.1617 69.6513ZM19.7189 66.8955C20.2685 67.3777 20.7495 67.7911 21.2991 68.2734C21.8487 67.9289 22.467 67.5844 23.0167 67.3088C23.635 66.0687 24.322 64.7597 24.9404 63.5885V43.8157C24.3907 43.3334 23.8411 42.8511 23.3602 42.3C22.7419 42.5067 22.1922 42.7133 21.5739 42.92C20.9556 43.9534 20.3373 45.0558 19.7189 46.1581V66.8955Z" fill="#1F1C35"/>
<path d="M35.383 34.4453C35.383 43.4017 35.383 52.358 35.383 61.3143C37.9937 60.0053 40.5357 58.8341 43.1464 57.6629C43.1464 58.7652 43.1464 59.8675 43.1464 60.9699C39.5052 62.6922 35.8639 64.5524 32.2227 66.5504C32.2227 56.1472 32.2227 45.7441 32.2227 35.2721C33.2532 34.9965 34.3525 34.7209 35.383 34.4453Z" fill="#1F1C35"/>
<path d="M31.6719 67.5149V34.8587L32.0841 34.7209C33.1146 34.4453 34.1452 34.1698 35.2444 33.8942L36.0002 33.6875V60.4187C38.2674 59.3164 40.6033 58.2141 42.9392 57.1807L43.7636 56.8362V61.3833L43.4201 61.5211C39.7788 63.2434 36.1376 65.1725 32.565 67.1016L31.6719 67.5149ZM32.8398 35.7543V65.5859C36.0689 63.8635 39.2979 62.21 42.5957 60.6254V58.6275C40.2598 59.6609 37.9239 60.7632 35.6567 61.9344L34.8322 62.3478V35.2721C34.1452 35.4099 33.4582 35.5477 32.8398 35.7543Z" fill="#1F1C35"/>
<path d="M48.5041 31.4844C48.5041 39.4073 48.5041 47.3991 48.5041 55.322C51.1148 54.2197 53.7255 53.1863 56.2675 52.2218C56.2675 53.1863 56.2675 54.1508 56.2675 55.1153C52.6263 56.631 48.985 58.2156 45.3438 59.938C45.3438 50.6372 45.3438 41.4052 45.3438 32.1044C46.443 31.8977 47.4735 31.6911 48.5041 31.4844Z" fill="#1F1C35"/>
<path d="M44.7949 60.8351V31.6236L45.2758 31.5547C46.3064 31.348 47.4056 31.1414 48.4362 30.9347L49.1232 30.7969V54.4967C51.4591 53.5322 53.795 52.5677 56.1309 51.7409L56.8867 51.4654V55.5991L56.5432 55.7368C52.9019 57.1836 49.2606 58.8371 45.6194 60.4906L44.7949 60.8351ZM45.9629 32.5881V58.9749C49.1919 57.4592 52.4897 56.0124 55.7187 54.7034V53.0499C53.3828 53.9456 51.0469 54.9101 48.711 55.8746L47.8866 56.2191V32.1748C47.2682 32.3126 46.6499 32.4504 45.9629 32.5881Z" fill="#1F1C35"/>
<path d="M67.9468 38.6489C67.9468 39.5445 67.9468 40.4401 67.9468 41.2669C65.8857 41.7491 63.8246 42.2314 61.7635 42.7825C61.7635 45.1939 61.7635 47.6741 61.7635 50.0854C64.3742 49.1898 67.0537 48.2941 69.6644 47.5363C69.6644 48.4319 69.6644 49.2587 69.6644 50.1543C66.0231 51.3944 62.3131 52.7034 58.6719 54.1502C58.6719 46.0206 58.6719 37.9599 58.6719 29.8303C62.8628 29.2791 65.0613 29.0725 69.2522 28.7969C69.2522 29.6925 69.2522 30.5192 69.2522 31.4149C66.6414 31.6905 64.1681 32.0349 61.6948 32.3794C61.6948 34.9285 61.6948 37.4087 61.6948 39.9579C63.7559 39.4756 65.817 39.0622 67.9468 38.6489Z" fill="#1F1C35"/>
<path d="M57.9844 55.0448V29.347L58.4653 29.2781C62.6562 28.7269 64.9234 28.5203 69.0456 28.2447L69.6639 28.1758V31.965L69.1143 32.0339C66.8471 32.2406 64.5112 32.5162 62.244 32.8606V39.199C64.099 38.7856 65.9539 38.3722 67.7402 38.0278L68.4272 37.89V41.7481L68.015 41.8859C66.0913 42.2992 64.1677 42.7815 62.244 43.2638V49.3265C64.6486 48.4998 67.0532 47.7419 69.3891 47.053L70.1448 46.8463V50.6355L69.7326 50.7733C66.0913 52.0134 62.3814 53.3224 58.7401 54.7692L57.9844 55.0448ZM59.1523 30.4493V53.3913C62.4501 52.0823 65.7478 50.9111 68.9769 49.8088V48.4309C66.641 49.1198 64.2364 49.9466 61.8317 50.7733L61.076 50.98V42.3681L61.4882 42.2303C63.4119 41.7481 65.3356 41.2658 67.2593 40.7836V39.3368C65.4043 39.6812 63.5493 40.0946 61.763 40.508L61.076 40.6458V31.8272L61.5569 31.7583C63.8241 31.4138 66.16 31.1383 68.4959 30.9316V29.4848C64.9921 29.7604 62.7936 29.967 59.1523 30.4493Z" fill="#1F1C35"/>
<path d="M81.6871 32.1021C81.0001 31.6198 80.3131 31.1375 79.626 30.6553C78.8016 30.6553 77.9772 30.7242 77.1527 30.7931C76.4657 31.3442 75.7787 31.9643 75.0916 32.5154C75.0916 36.4425 75.0916 40.4384 75.0916 44.3654C75.7787 44.7787 76.4657 45.1921 77.1527 45.5366C77.9772 45.3299 78.7329 45.1232 79.5573 44.9165C80.2444 44.2276 80.9314 43.4697 81.6184 42.8497C81.6184 41.5407 81.6184 40.2317 81.6184 38.8538C80.4505 38.9916 79.3512 39.1982 78.1833 39.4049C78.1833 38.6471 78.1833 37.8892 78.1833 37.1314C80.3818 36.8558 82.5116 36.5802 84.7101 36.3736C84.7101 38.5782 84.7101 40.8517 84.7101 43.0564C83.4734 44.2276 82.2368 45.3988 81.0001 46.7078C79.2825 47.1901 77.4962 47.6723 75.7787 48.2235C74.542 47.6034 73.3054 46.8456 72 46.1566C72 41.4029 72 36.5802 72 31.8265C73.2367 30.6553 74.542 29.6218 75.7787 28.5884C77.4962 28.5195 79.2138 28.5195 80.9314 28.5195C82.1681 29.4152 83.4734 30.3108 84.7101 31.1375C84.7101 32.171 84.7101 33.2044 84.7101 34.3067C83.6795 34.3756 82.649 34.4445 81.6184 34.5134C81.6871 33.6867 81.6871 32.9288 81.6871 32.1021Z" fill="#1F1C35"/>
<path d="M75.7108 48.9167L75.5047 48.7789C74.268 48.09 72.9626 47.401 71.726 46.7121L71.4512 46.5743V31.6241L71.6573 31.4174C72.8939 30.2462 74.1993 29.2128 75.5047 28.1793L75.6421 28.0416H75.8482C77.5657 27.9727 79.352 27.9727 81.0696 27.9727H81.2757L81.4131 28.1104C82.6498 29.0061 83.8864 29.9017 85.1231 30.7285L85.3979 30.9351V34.931L84.8483 34.9999C83.8177 35.0688 82.7872 35.1377 81.7566 35.2066L81.0696 35.1377V32.4508C80.52 32.1064 79.9704 31.693 79.4207 31.3485C78.7337 31.3485 78.0467 31.4174 77.3596 31.4174C76.81 31.8997 76.2604 32.3819 75.6421 32.8642V44.0941C76.1917 44.4385 76.6726 44.7141 77.2222 44.9897C77.9093 44.8519 78.5276 44.6452 79.2146 44.5074C79.833 43.8874 80.3826 43.2673 81.0009 42.7162V39.6848C80.1078 39.8226 79.1459 39.9604 78.2528 40.0982L77.5657 40.236V36.7223L78.0467 36.6534C80.2452 36.3778 82.4437 36.1023 84.5735 35.8956L85.1918 35.8267V43.4051L84.9857 43.6118C83.749 44.783 82.5124 45.9542 81.2757 47.2632L81.1383 47.401L81.0009 47.4699C79.2833 47.9522 77.497 48.4345 75.7795 48.9167H75.7108ZM72.6191 45.8164C73.7184 46.4365 74.7489 47.0566 75.8482 47.6077C77.497 47.1255 79.0772 46.6432 80.7261 46.2298C81.894 45.0586 83.062 43.8874 84.1612 42.854V37.0668C82.375 37.2735 80.5887 37.4802 78.8024 37.6868V38.7892C79.6955 38.6514 80.6574 38.5136 81.5505 38.3758L82.2376 38.3069V43.1984L82.0315 43.4051C81.3444 44.0941 80.6574 44.783 79.9704 45.472L79.8329 45.6098L79.6955 45.6787C78.8711 45.8853 78.1154 46.092 77.2909 46.2987L77.0848 46.3676L76.8787 46.2298C76.1917 45.8164 75.5047 45.4031 74.8176 44.9897L74.5428 44.8519V32.3819L74.7489 32.1752C75.436 31.5552 76.123 31.004 76.81 30.4529L76.9474 30.3151H77.1535C77.978 30.2462 78.8024 30.2462 79.6268 30.1773H79.8329L79.9704 30.3151C80.6574 30.7974 81.3444 31.2796 82.0315 31.693L82.3063 31.8997V33.9665C82.9246 33.8976 83.6116 33.8976 84.2299 33.8287V31.5552C83.1307 30.7973 81.9627 30.0395 80.8635 29.2128C79.2833 29.2128 77.7032 29.2128 76.123 29.2817C74.955 30.1773 73.8558 31.1418 72.6878 32.1752L72.6191 45.8164Z" fill="#1F1C35"/>
<path d="M97.4204 35.5511C97.4204 36.1022 97.4204 36.6534 97.4204 37.2045C95.428 37.2734 93.3669 37.4112 91.3745 37.6179C91.3745 39.2025 91.3745 40.856 91.3745 42.4406C93.9165 42.0272 96.5272 41.6138 99.0692 41.3382C99.0692 41.8894 99.0692 42.4406 99.0692 42.9917C95.4967 43.5429 91.9241 44.2318 88.3516 45.0586C88.3516 39.6159 88.3516 34.1732 88.3516 28.7305C92.405 28.9372 94.6035 29.1438 98.5883 29.6261C98.5883 30.1773 98.5883 30.7284 98.5883 31.2796C96.1837 31.0729 93.7791 30.9351 91.3745 30.8662C91.3745 32.5197 91.3745 34.1732 91.3745 35.8955C93.4356 35.62 95.428 35.5511 97.4204 35.5511Z" fill="#1F1C35"/>
<path d="M87.7344 45.6762V28.0391H88.3527C92.4749 28.2457 94.6734 28.4524 98.6582 28.9347L99.2078 29.0036V31.8283L98.5895 31.7594C96.4597 31.5527 94.1925 31.4149 91.994 31.346V35.1352C93.8489 35.0663 95.6352 34.9975 97.4215 34.9975H98.0398V37.8221H97.4902C95.7039 37.891 93.8489 38.0288 91.994 38.1666V41.7492C94.3299 41.3358 96.6658 40.9913 99.0017 40.7157L99.6887 40.6468V43.4026L99.2078 43.4715C95.7039 44.0227 92.1314 44.7116 88.4901 45.5384L87.7344 45.6762ZM88.9023 29.2792V44.2294C92.1314 43.5404 95.3604 42.9204 98.4521 42.4381V41.9558C96.1162 42.2314 93.7803 42.5759 91.4443 42.9893L90.7573 43.1271V37.0643L91.3069 36.9954C93.1619 36.8576 95.0169 36.7198 96.8032 36.6509V36.0998C95.0169 36.0998 93.1619 36.1687 91.3756 36.3065H90.7573V30.1059H91.3756C93.5741 30.1748 95.7726 30.3126 97.9711 30.5193V30.037C94.536 29.6925 92.4062 29.4859 88.9023 29.2792Z" fill="#1F1C35"/>
<path d="M31.1223 20.1201H26.107C25.6947 20.1201 25.4199 19.8445 25.4199 19.4311C25.4199 19.0178 25.6947 18.7422 26.107 18.7422H31.0536C31.4658 18.7422 31.7406 19.0178 31.7406 19.4311C31.7406 19.8445 31.4658 20.1201 31.1223 20.1201Z" fill="#1F1C35"/>
<path d="M74.8856 20.1201H69.939C69.5268 20.1201 69.252 19.8445 69.252 19.4311C69.252 19.0178 69.5268 18.7422 69.939 18.7422H74.8856C75.2978 18.7422 75.5726 19.0178 75.5726 19.4311C75.5726 19.8445 75.2978 20.1201 74.8856 20.1201Z" fill="#1F1C35"/>
<path d="M11.4047 35.412H9.34363V14.6746L51.1151 0L92.8866 14.6746V22.8042H90.8255V16.1903L51.1151 2.20464L11.4047 16.1903V35.412Z" fill="#1F1C35"/>
<path d="M92.8867 100.997H9.34375V87.3555H11.4048V98.9298H90.8256V93.8316H92.8867V100.997Z" fill="#1F1C35"/>
<path d="M38.6113 19.2916V19.9806H37.3059V21.703H38.9548V22.3919H36.6189V16.9492C37.5121 16.9492 37.993 16.9492 38.8174 16.9492V17.6382H37.2372V19.2916H38.6113Z" fill="#1F1C35"/>
<path d="M39.0912 22.4566H36.4805V16.7383H38.9538V17.7028H37.3736V19.2185H38.679V20.183H37.3736V21.6298H39.0225V22.4566H39.0912ZM36.7553 22.181H38.8164V21.7676H37.1675V19.7697H38.4729V19.3563H37.1675V17.2894H38.7477V16.8761H36.824V22.181H36.7553Z" fill="#1F1C35"/>
<path d="M40.6027 21.2218L41.0836 21.704H41.5645L41.9768 21.2218V20.395L39.9844 19.0171V17.6392L40.8088 16.8125H41.7707L42.5951 17.6392V18.466H41.9081V17.9148L41.4958 17.5014H41.0836L40.6714 17.9148V18.6727L42.5951 20.0506V21.4974L41.8394 22.3241H40.7401L39.9844 21.4974V20.5328H40.6027V21.2218Z" fill="#1F1C35"/>
<path d="M41.84 22.459H40.6721L39.8477 21.5634V20.3922H40.7408V21.2189L41.0843 21.5634H41.4278L41.7713 21.2189V20.4611L39.8477 19.0832V17.5675L40.6721 16.6719H41.7713L42.5958 17.5675V18.6009H41.7026V17.9809L41.3591 17.6364H41.0156L40.6721 17.9809V18.6009L42.5958 19.9788V21.5634L41.84 22.459ZM40.8095 22.1835H41.7026L42.3897 21.4256V20.1166L40.466 18.7387V17.8431L40.9469 17.3608H41.4965L41.9775 17.8431V18.3254H42.321V17.7053L41.6339 16.9475H40.7408L40.0538 17.7053V18.9454L41.9775 20.3233V21.2878L41.4965 21.839H40.8782L40.3973 21.2878V20.6678H40.0538V21.4945L40.8095 22.1835Z" fill="#1F1C35"/>
<path d="M44.4501 17.4301H43.4883V16.8789H46.099V17.4301H45.1372V22.3216H44.4501V17.4301Z" fill="#1F1C35"/>
<path d="M45.2753 22.4566H44.3134V17.6339H43.3516V16.7383H46.2371V17.6339H45.2753V22.4566ZM44.5882 22.181H45.0004V17.3583H45.9623V17.0139H43.6264V17.3583H44.5882V22.181Z" fill="#1F1C35"/>
<path d="M47.1309 16.8789H48.8484L49.6729 17.7056V21.4949L48.8484 22.3216C48.2988 22.3216 47.6805 22.3216 47.1309 22.3216V16.8789ZM48.6423 21.6327L49.0545 21.2193V17.9812L48.6423 17.5679H47.8179V21.7016H48.6423V21.6327Z" fill="#1F1C35"/>
<path d="M48.9159 22.4566H46.9922V16.7383H48.9159L49.809 17.6339V21.5609L48.9159 22.4566ZM47.267 22.181H48.7785L49.5342 21.4231V17.7717L48.7785 17.0139H47.267V22.181ZM48.6411 21.7676H47.6792V17.3583H48.6411L49.122 17.8406V21.2165L48.6411 21.7676ZM47.954 21.492H48.5724L48.9159 21.1476V17.9784L48.5724 17.6339H47.954V21.492Z" fill="#1F1C35"/>
<path d="M53.863 16.8789V21.7016H54.6875V22.3216H52.3516V21.7016H53.176V17.5679H52.4203V16.8789H53.863Z" fill="#1F1C35"/>
<path d="M54.8256 22.459H52.2148V21.5634H53.0393V17.6364H52.2835V16.6719H54.0011V21.4945H54.8256V22.459ZM52.4897 22.1835H54.482V21.839H53.6576V17.0163H52.4897V17.4297H53.2454V21.9079H52.421V22.1835H52.4897Z" fill="#1F1C35"/>
<path d="M56.3362 20.0481L55.5117 19.2213V17.7056L56.3362 16.8789H57.3667L58.1224 17.7056V21.5638L57.3667 22.3216H56.3362L55.5804 21.5638V20.8748H56.2675V21.3571L56.611 21.7016H57.0919L57.5041 21.2882V20.0481H56.3362ZM57.5041 19.428V17.9812L57.0919 17.5679H56.611L56.1987 17.9812V19.0147L56.611 19.428H57.5041Z" fill="#1F1C35"/>
<path d="M57.4358 22.4566H56.3365L55.5121 21.6298V20.6653H56.4739V21.2165L56.7487 21.492H57.0235L57.367 21.1476V20.1141H56.2678L55.4434 19.2874V17.6339L56.3365 16.7383H57.4358L58.3289 17.6339V21.6298L57.4358 22.4566ZM56.4052 22.181H57.2983L57.9854 21.492V17.7717L57.2983 17.0139H56.4052L55.7182 17.7717V19.2185L56.4052 19.9763H57.6419V21.3542L57.1609 21.8365H56.5426L56.1304 21.3542V20.9409H55.7182V21.492L56.4052 22.181ZM57.6419 19.563H56.5426L56.0617 19.0118V17.9095L56.5426 17.3583H57.0922L57.5732 17.9095V19.563H57.6419ZM56.68 19.2874H57.367V18.0473L57.0235 17.6339H56.68L56.3365 17.9784V18.874L56.68 19.2874Z" fill="#1F1C35"/>
<path d="M60.1838 20.0481L59.3594 19.2213V17.7056L60.1838 16.8789H61.2144L61.9701 17.7056V21.5638L61.2144 22.3216H60.1838L59.4281 21.5638V20.8748H60.1151V21.3571L60.4586 21.7016H60.9395L61.3518 21.2882V20.0481H60.1838ZM61.3518 19.428V17.9812L60.9395 17.5679H60.4586L60.0464 17.9812V19.0147L60.4586 19.428H61.3518Z" fill="#1F1C35"/>
<path d="M61.215 22.4566H60.1158L59.2914 21.6298V20.6653H60.2532V21.2165L60.528 21.492H60.8715L61.215 21.1476V20.1141H60.1158L59.2227 19.2874V17.6339L60.1158 16.7383H61.215L62.1082 17.6339V21.6298L61.215 22.4566ZM60.2532 22.181H61.1463L61.8334 21.492V17.7717L61.1463 17.0139H60.2532L59.5662 17.7717V19.2185L60.2532 19.9763H61.4899V21.3542L61.0089 21.8365H60.3906L59.9784 21.3542V20.9409H59.5662V21.492L60.2532 22.181ZM61.4899 19.563H60.3906L59.9097 19.0118V17.9095L60.3906 17.3583H60.9402L61.4212 17.9095V19.563H61.4899ZM60.528 19.2874H61.215V18.0473L60.8715 17.7028H60.528L60.1845 18.0473V18.9429L60.528 19.2874Z" fill="#1F1C35"/>
<path d="M64.7863 17.7745V17.499H63.687V18.0501H63V16.8789H65.4733V17.8434L63.9618 22.3216H63.2748L64.7863 17.7745Z" fill="#1F1C35"/>
<path d="M64.0996 22.459H63.1378L64.7179 17.7053V17.6364H63.8935V18.1876H62.9316V16.6719H65.6111V17.8431L64.0996 22.459ZM63.4813 22.1835H63.8935L65.3362 17.8431V17.0163H63.2065V17.912H63.6187V17.3608H64.9927V17.7742L63.4813 22.1835Z" fill="#1F1C35"/>
<path d="M77.2227 59.593C77.2227 61.591 78.0471 63.4511 79.3525 64.7601C80.6578 66.0691 82.5128 66.8959 84.5052 66.8959H93.6427C95.6351 66.8959 97.4901 66.0691 98.7954 64.7601C99.9634 63.5889 100.719 62.0043 100.925 60.2131C100.994 60.2131 101.131 60.2819 101.269 60.2819C101.75 60.4197 102.299 60.6264 102.712 61.0398C103.055 61.3843 103.33 61.8665 103.33 62.6244C103.33 63.52 103.605 64.2779 104.154 64.7601C104.498 65.1046 104.841 65.3113 105.254 65.4491C105.803 65.6558 106.353 65.7247 106.834 65.7247C107.246 65.7247 107.521 65.6558 107.589 65.6558C107.933 65.5869 108.139 65.3113 108.07 64.9668C108.002 64.6223 107.727 64.4156 107.383 64.4845C107.383 64.4845 106.902 64.5534 106.421 64.4845C106.147 64.4845 105.872 64.4156 105.666 64.3468C105.391 64.2779 105.185 64.1401 105.047 63.9334C104.773 63.6578 104.635 63.3133 104.566 62.6244C104.566 61.591 104.154 60.7642 103.605 60.2131C102.986 59.593 102.231 59.3174 101.612 59.1107C101.406 59.0418 101.2 59.0418 101.063 58.9729C100.925 57.1817 100.169 55.5282 98.9328 54.2881C97.6275 52.9791 95.7725 52.1523 93.7801 52.1523H84.6426C82.6502 52.1523 80.7952 52.9791 79.4899 54.2881C78.0471 55.7349 77.2227 57.595 77.2227 59.593ZM98.0397 63.9334C96.9404 65.0357 95.3603 65.7247 93.7114 65.7247H92.406V61.3843H95.7038C96.1847 61.3843 96.6656 61.1776 97.0091 60.8331C97.284 60.5575 97.4214 60.2131 97.4901 59.8686H99.8947C99.6886 61.4532 99.0702 62.9 98.0397 63.9334ZM91.5816 59.1107C91.6503 59.0418 91.719 59.0418 91.7877 58.9729C91.8564 58.9729 91.9251 58.9041 92.0625 58.9041H92.1312H92.406H95.7038C95.9099 58.9041 96.0473 58.9729 96.116 59.1107L96.1847 59.2485C96.2534 59.3174 96.2534 59.4552 96.2534 59.5241C96.2534 59.6619 96.1847 59.7308 96.1847 59.7997L96.116 59.9375C95.9786 60.0753 95.8412 60.1442 95.7038 60.1442H92.406H92.1312H92.0625C91.9938 60.1442 91.8564 60.1442 91.7877 60.0753C91.719 60.0753 91.6503 60.0064 91.5816 59.9375C91.4442 59.7997 91.3755 59.6619 91.3755 59.5241C91.3755 59.3863 91.4442 59.2485 91.5816 59.1107ZM93.6427 53.3925C95.3603 53.3925 96.8717 54.0814 97.971 55.1837C99.0015 56.2171 99.6886 57.6639 99.7573 59.2485H97.3527C97.284 58.8352 97.0779 58.4907 96.8717 58.284C96.5282 57.9395 96.116 57.7328 95.5664 57.7328H92.2686V53.3925H93.6427ZM84.5052 53.3925H91.719V57.7328C91.3068 57.8017 90.9633 57.9395 90.6885 58.2151C90.3449 58.5596 90.1388 58.9729 90.1388 59.5241C90.1388 60.0064 90.3449 60.4886 90.6885 60.8331C90.9633 61.1087 91.3068 61.3154 91.719 61.3154V65.6558H84.5052C82.7876 65.6558 81.2761 64.9668 80.1769 63.8645C79.0776 62.7622 78.3906 61.1776 78.3906 59.5241C78.3906 57.8017 79.0776 56.286 80.1769 55.1837C81.2761 54.0814 82.8563 53.3925 84.5052 53.3925Z" fill="#1F1C35"/>
<path d="M93.6434 67.0337H84.5059C82.5135 67.0337 80.6585 66.2758 79.2844 64.829C77.9104 63.3822 77.0859 61.5221 77.0859 59.593C77.0859 57.595 77.8417 55.7349 79.2844 54.357C80.6585 52.9791 82.5822 52.1523 84.5059 52.1523H93.6434C95.6358 52.1523 97.4908 52.9102 98.8648 54.357C100.101 55.5971 100.857 57.2506 100.995 58.9729C101.132 58.9729 101.269 59.0418 101.476 59.1107C102.3 59.3174 102.987 59.7308 103.537 60.2131C104.155 60.8331 104.498 61.7287 104.498 62.6933C104.498 63.3822 104.705 63.7267 104.911 63.9334C105.048 64.0712 105.254 64.209 105.529 64.2779C105.735 64.3468 106.01 64.4156 106.285 64.4156C106.766 64.4845 107.247 64.4156 107.247 64.4156C107.659 64.3468 108.002 64.6223 108.002 64.9668C108.071 65.3113 107.796 65.7247 107.453 65.7247C107.453 65.7247 107.109 65.7935 106.697 65.7935C106.079 65.7935 105.598 65.7247 105.117 65.518C104.636 65.3802 104.292 65.1046 104.018 64.829C103.468 64.2779 103.193 63.52 103.193 62.6244C103.193 62.0043 102.987 61.5221 102.643 61.1087C102.231 60.6953 101.613 60.4886 101.269 60.3508C101.201 60.3508 101.132 60.2819 101.063 60.2819C100.857 61.9354 100.101 63.52 98.9335 64.7601C97.4908 66.2758 95.6358 67.0337 93.6434 67.0337ZM84.5059 52.359C82.5822 52.359 80.7959 53.1169 79.4218 54.4948C78.0478 55.8727 77.292 57.6639 77.292 59.593C77.292 61.5221 78.0478 63.3133 79.4218 64.6912C80.7959 66.0691 82.5822 66.827 84.5059 66.827H93.6434C95.5671 66.827 97.3534 66.0691 98.7274 64.6912C99.8954 63.52 100.651 61.9354 100.789 60.2131V60.0753H100.926C100.995 60.0753 101.132 60.1442 101.269 60.1442C101.613 60.2131 102.3 60.4886 102.781 60.9709C103.193 61.4532 103.399 61.9354 103.399 62.6244C103.399 63.4511 103.674 64.209 104.155 64.6912C104.43 64.9668 104.773 65.1735 105.186 65.3113C105.666 65.4491 106.147 65.5869 106.697 65.5869C107.109 65.5869 107.384 65.518 107.453 65.518C107.59 65.518 107.728 65.4491 107.796 65.3113C107.865 65.1735 107.934 65.1046 107.865 64.9668C107.865 64.829 107.796 64.6912 107.659 64.6223C107.521 64.5534 107.453 64.4845 107.315 64.5534C107.315 64.5534 106.834 64.6223 106.285 64.5534C106.01 64.5534 105.735 64.4845 105.46 64.3468C105.186 64.2779 104.979 64.0712 104.773 63.9334C104.43 63.5889 104.292 63.1755 104.292 62.5555C104.292 61.6599 103.949 60.7642 103.399 60.2131C102.918 59.7308 102.231 59.3863 101.407 59.1796C101.201 59.1107 100.995 59.1107 100.857 59.0418H100.789V58.9729C100.651 57.2506 99.8954 55.5971 98.7274 54.357C97.3534 52.9791 95.5671 52.2212 93.6434 52.2212H84.5059V52.359ZM93.6434 65.8624H92.2006V61.3154H95.5671C96.048 61.3154 96.4602 61.1087 96.8037 60.8331C97.0785 60.5575 97.216 60.2819 97.2847 59.9375V59.8686H99.8954V60.0064C99.8267 61.591 99.2083 63.0377 98.1091 64.1401C96.8724 65.1735 95.361 65.8624 93.6434 65.8624ZM92.4754 65.6558H93.7121C95.2923 65.6558 96.8037 65.0357 97.9717 63.8645C99.0022 62.8311 99.6206 61.4532 99.758 60.0064H97.5595C97.4908 60.3508 97.2847 60.6953 97.0785 60.9709C96.735 61.3154 96.2541 61.5221 95.7045 61.5221H92.5441V65.6558H92.4754ZM91.8571 65.8624H84.5059C82.857 65.8624 81.2768 65.2424 80.1089 64.0023C78.9409 62.8311 78.3226 61.3154 78.2539 59.6619H77.773V59.4552H78.2539C78.2539 57.8017 78.9409 56.286 80.1089 55.1148C81.2768 53.9436 82.857 53.2547 84.5059 53.2547H91.8571V57.8706H91.7884C91.4449 57.9395 91.1014 58.0773 90.8266 58.3529C90.483 58.6974 90.3456 59.1107 90.3456 59.593C90.3456 60.0753 90.5517 60.4886 90.8266 60.8331C91.1014 61.1087 91.4449 61.2465 91.7884 61.3154H91.8571V65.8624ZM78.46 59.593C78.46 61.1776 79.0783 62.6933 80.2463 63.8645C81.4142 65.0357 82.9257 65.6558 84.5059 65.6558H91.651V61.4532C91.2388 61.3843 90.8953 61.1776 90.6204 60.902C90.2769 60.5575 90.0708 60.0753 90.0708 59.5241C90.0708 59.0418 90.2769 58.5596 90.6204 58.1462C90.8953 57.8706 91.2388 57.6639 91.651 57.595V53.3925H84.5059C82.9257 53.3925 81.4142 54.0125 80.2463 55.1837C79.147 56.4238 78.46 58.0084 78.46 59.593ZM95.6358 60.3508H91.9945C91.9258 60.3508 91.7884 60.3508 91.7197 60.2819C91.651 60.2131 91.5823 60.2131 91.5136 60.1442C91.3762 60.0064 91.3075 59.8686 91.3075 59.7308H90.8266V59.5241H91.3075C91.3075 59.3863 91.3762 59.2485 91.5136 59.1107C91.5823 59.0418 91.651 58.9729 91.7197 58.9729C91.7884 58.9041 91.9258 58.9041 91.9945 58.9041H92.338H95.6358C95.8419 58.9041 95.9793 58.9729 96.1854 59.1107L96.3228 59.2485C96.3915 59.3863 96.3915 59.4552 96.3915 59.593C96.3915 59.7308 96.3915 59.7997 96.3228 59.9375L96.1854 60.1442C95.9793 60.2131 95.8419 60.3508 95.6358 60.3508ZM91.5136 59.593C91.5136 59.7308 91.5823 59.8686 91.651 59.9375C91.7197 60.0064 91.7197 60.0064 91.7884 60.0753C91.8571 60.0753 91.9258 60.1442 91.9945 60.1442H95.6358C95.7732 60.1442 95.9106 60.0753 95.9793 60.0064L96.048 59.8686C96.1167 59.7997 96.1167 59.7308 96.1167 59.593C96.1167 59.5241 96.1167 59.4552 96.048 59.3174L95.9793 59.1796C95.9106 59.1107 95.7732 59.0418 95.6358 59.0418H91.9945C91.9258 59.0418 91.8571 59.0418 91.7884 59.1107C91.7197 59.1107 91.651 59.1796 91.651 59.2485C91.5136 59.3174 91.5136 59.4552 91.5136 59.593ZM99.8954 59.3863H97.2847V59.3174C97.216 58.9729 97.0785 58.6285 96.8037 58.4218C96.4602 58.0773 96.048 57.9395 95.5671 57.9395H92.2006V53.3925H93.6434C95.2923 53.3925 96.8724 54.0125 98.0404 55.2526C99.1396 56.3549 99.758 57.8017 99.8267 59.3863H99.8954ZM97.4908 59.1796H99.6893C99.6206 57.7328 99.0022 56.3549 97.903 55.3215C96.735 54.1503 95.2236 53.5302 93.6434 53.5302H92.4067V57.6639H95.5671C96.048 57.6639 96.5289 57.8706 96.9411 58.2151C97.216 58.4907 97.4221 58.8352 97.4908 59.1796Z" fill="#1F1C35"/>
</g>
<defs>
<clipPath id="clip0_4381_1177">
<rect width="108.07" height="101" fill="white"/>
</clipPath>
</defs>
</svg>
