<svg width="60" height="60" viewBox="0 0 60 60" fill="none" xmlns="http://www.w3.org/2000/svg">
<path d="M10.632 17.5163C9.86176 16.6819 8.76816 16.1875 7.57824 16.1875C7.09273 16.1875 6.69922 16.581 6.69922 17.0665C6.69922 17.552 7.09273 17.9455 7.57824 17.9455C8.56519 17.9455 9.43742 18.5344 9.80644 19.4477C10.0879 20.2154 11.177 20.2137 11.4574 19.4479C11.8266 18.5345 12.699 17.9455 13.6859 17.9455C14.1714 17.9455 14.565 17.552 14.565 17.0665C14.565 16.581 14.1714 16.1875 13.6859 16.1875C12.4961 16.1875 11.4024 16.682 10.632 17.5163Z" fill="#FF723A"/>
<path d="M22.2767 11.5281C21.5063 10.6938 20.4126 10.1993 19.2228 10.1993C18.7373 10.1993 18.3438 10.5929 18.3438 11.0784C18.3438 11.5639 18.7373 11.9574 19.2228 11.9574C20.2102 11.9574 21.0829 12.5468 21.4517 13.4607C21.7346 14.2282 22.8217 14.2246 23.1026 13.4583C23.472 12.5457 24.344 11.9573 25.3306 11.9573C25.8161 11.9573 26.2096 11.5637 26.2096 11.0782C26.2096 10.5927 25.8161 10.1992 25.3306 10.1992C24.1407 10.1993 23.047 10.6938 22.2767 11.5281Z" fill="#FF723A"/>
<path d="M59.1095 16.1508C58.2408 15.2821 56.9511 15.0463 55.853 15.462V13.6781C55.853 13.1926 55.4594 12.7991 54.9739 12.7991C54.4884 12.7991 54.0949 13.1926 54.0949 13.6781V16.7236L43.2554 25.962C41.7968 25.7578 40.2899 25.6532 38.7687 25.6532C33.3975 25.6532 30.1473 26.5454 27.2783 27.7853C21.5725 25.6791 12.6609 23.243 1.75793 23.1172V7.29258C1.75793 6.02426 2.78988 4.99231 4.0582 4.99231H51.7948C53.0631 4.99231 54.095 6.02426 54.095 7.29258V9.57164C54.095 10.0571 54.4886 10.4507 54.9741 10.4507C55.4596 10.4507 55.8531 10.0571 55.8531 9.57164V7.29258C55.8531 5.05477 54.0326 3.23438 51.7949 3.23438H4.0582C1.82051 3.23438 0 5.05488 0 7.29258V38.6651C0 40.9029 1.82051 42.7233 4.0582 42.7233H14.9757L14.3026 44.6714C14.1441 45.1302 14.3876 45.6307 14.8464 45.7893C14.9414 45.8221 15.0382 45.8377 15.1334 45.8377C15.4978 45.8377 15.8385 45.6094 15.9642 45.2455L16.8356 42.7233H20.0324L15.6045 55.5384C15.3321 56.3269 14.4729 56.7463 13.6833 56.4729C12.8946 56.2006 12.4759 55.341 12.7488 54.5517L14.6208 49.1337C14.7793 48.6749 14.5358 48.1744 14.077 48.0158C13.6187 47.8574 13.1179 48.1008 12.9592 48.5596L11.0872 53.9776C10.4973 55.6848 11.4015 57.5446 13.1091 58.1344C14.8237 58.7277 16.6799 57.8095 17.2662 56.1124L19.3166 50.1782H36.5365L38.5868 56.1124C39.1757 57.8163 41.0365 58.725 42.7437 58.1345C44.4506 57.5448 45.356 55.6854 44.7657 53.9776L40.8772 42.7233H51.7948C54.0326 42.7233 55.853 40.9028 55.853 38.6651V24.3138L59.2745 20.2993C60.3022 19.0936 60.2298 17.2713 59.1095 16.1508ZM1.75793 24.8753C11.4019 24.9889 19.447 26.9514 25.0164 28.8483C20.0866 31.3 15.3602 34.0484 1.75793 34.6761V24.8753ZM4.0582 40.9654C2.78988 40.9654 1.75793 39.9334 1.75793 38.6651V36.4359C26.0902 35.3324 23.4034 27.4112 38.7688 27.4112C39.6639 27.4112 40.553 27.4502 41.4289 27.5251C37.969 30.6007 36.8055 33.7211 36.1808 34.7317C33.5728 34.8049 31.5519 36.0649 31.1912 38.6611C31.0621 39.5954 30.9854 39.9023 30.2352 40.137C29.8283 40.2643 29.2771 40.3083 28.683 40.2604C28.1927 40.2202 27.7221 40.4913 27.5205 40.9654H4.0582ZM44.0586 34.8851C42.2822 36.2786 40.9364 36.8288 39.6183 37.5725C39.6121 37.5757 39.6047 37.5749 39.5999 37.5698L37.6904 35.6604C37.6855 35.6555 37.6843 35.6482 37.6876 35.6421C38.4281 34.3297 38.9807 32.9794 40.3752 31.2016L44.0586 34.8851ZM32.7078 40.0039C33.2617 39.8176 33.6415 39.9027 33.8249 41.0332C34.002 42.1253 34.4931 43.0569 35.4578 43.5895C33.6506 44.2679 31.3866 43.9607 29.7546 42.0094C30.084 41.9786 30.4277 41.9188 30.7605 41.8147C31.9724 41.4355 32.4702 40.7256 32.7078 40.0039ZM19.924 48.4202L21.8924 42.7233H28.08C29.906 45.1582 32.3979 46.0315 34.9391 45.5551L35.929 48.4202H19.924ZM35.5601 40.7518C35.2583 38.8902 34.2192 38.1647 33.0939 38.1717C33.549 36.9964 34.9621 36.5483 36.142 36.4943C36.36 36.8936 36.4888 36.9124 38.3568 38.813C38.4812 38.9373 38.6201 39.0395 38.7681 39.1199C38.7152 40.29 38.2798 41.3288 37.4677 42.2168C36.3267 42.3655 35.7364 41.839 35.5601 40.7518ZM43.1041 54.5518C43.3768 55.3406 42.9593 56.2002 42.1695 56.473C41.3808 56.7458 40.5211 56.3275 40.2485 55.5384L36.6109 45.0102C37.5625 44.5559 38.4141 43.8797 39.1106 42.9932L43.1041 54.5518ZM54.095 38.6651C54.095 39.9334 53.0631 40.9654 51.7948 40.9654H40.2033C40.3998 40.3654 40.5091 39.7344 40.5282 39.0795C41.5087 38.4669 44.8571 37.2156 48.012 33.5138L50.9353 30.0838C52.0391 30.6204 53.0978 31.2361 54.0949 31.92L54.095 38.6651ZM54.095 29.8219C53.4524 29.4231 52.7899 29.0498 52.1103 28.7051L54.095 26.3764V29.8219ZM57.9366 19.159L46.674 32.3734C46.268 32.8498 45.8394 33.302 45.3906 33.7309L41.5293 29.8696C41.9582 29.4209 42.4103 28.9922 42.8866 28.5863L56.1011 17.3237C56.614 16.8866 57.3895 16.9171 57.8662 17.394C58.343 17.8706 58.3739 18.6459 57.9366 19.159Z" fill="#FF723A"/>
<path d="M37.4531 14.3638C37.4531 16.8734 39.4949 18.915 42.0045 18.915C44.514 18.915 46.5557 16.8734 46.5557 14.3638C46.5557 11.8543 44.514 9.8125 42.0045 9.8125C39.4949 9.8125 37.4531 11.8543 37.4531 14.3638ZM44.7976 14.3638C44.7976 15.904 43.5446 17.157 42.0045 17.157C40.4641 17.157 39.2112 15.904 39.2112 14.3638C39.2112 12.8235 40.4641 11.5705 42.0045 11.5705C43.5446 11.5705 44.7976 12.8235 44.7976 14.3638Z" fill="#FF723A"/>
</svg>
