<svg width="65" height="65" viewBox="0 0 65 65" fill="none" xmlns="http://www.w3.org/2000/svg">
<path d="M7.40477 17.2431C7.93034 17.2431 8.35641 16.8171 8.35641 16.2915C8.35641 15.7659 7.93034 15.3398 7.40477 15.3398C6.87919 15.3398 6.45312 15.7659 6.45312 16.2915C6.45312 16.8171 6.87919 17.2431 7.40477 17.2431Z" fill="#00BFAD"/>
<path d="M11.6391 17.2431C12.1647 17.2431 12.5908 16.8171 12.5908 16.2915C12.5908 15.7659 12.1647 15.3398 11.6391 15.3398C11.1136 15.3398 10.6875 15.7659 10.6875 16.2915C10.6875 16.8171 11.1136 17.2431 11.6391 17.2431Z" fill="#00BFAD"/>
<path d="M15.8755 17.2431C16.401 17.2431 16.8271 16.8171 16.8271 16.2915C16.8271 15.7659 16.401 15.3398 15.8755 15.3398C15.3499 15.3398 14.9238 15.7659 14.9238 16.2915C14.9238 16.8171 15.3499 17.2431 15.8755 17.2431Z" fill="#00BFAD"/>
<path d="M15.5364 40.6889L18.8883 32.2612C19.0827 31.7726 18.844 31.219 18.3555 31.0246C17.8666 30.8305 17.3132 31.0689 17.1188 31.5574L13.7669 39.9851C13.5725 40.4737 13.8112 41.0274 14.2997 41.2217C14.7883 41.4158 15.3419 41.1777 15.5364 40.6889Z" fill="#00BFAD"/>
<path d="M22.3871 40.751C22.8455 41.0166 23.4266 40.856 23.6882 40.4044L25.9391 36.5185C26.1132 36.2181 26.1099 35.8469 25.9306 35.5496L23.6797 31.8162C23.4082 31.3659 22.8231 31.2207 22.3727 31.4924C21.9224 31.764 21.7775 32.3491 22.049 32.7994L24.0093 36.0509L22.0405 39.45C21.777 39.9049 21.9321 40.4873 22.3871 40.751Z" fill="#00BFAD"/>
<path d="M10.2806 31.4924C9.83002 31.2207 9.24502 31.366 8.9736 31.8161L6.72272 35.5496C6.54346 35.8469 6.54016 36.2181 6.71421 36.5185L8.96509 40.4044C9.22827 40.8589 9.8106 41.015 10.2662 40.751C10.7212 40.4874 10.8765 39.9048 10.6128 39.4498L8.64403 36.051L10.6044 32.7995C10.8759 32.3491 10.731 31.764 10.2806 31.4924Z" fill="#00BFAD"/>
<path d="M53.0895 32.1172H31.9443C31.4185 32.1172 30.9922 32.5435 30.9922 33.0693C30.9922 33.5952 31.4185 34.0215 31.9443 34.0215H53.0895C53.6155 34.0215 54.0417 33.5952 54.0417 33.0693C54.0417 32.5435 53.6154 32.1172 53.0895 32.1172Z" fill="#00BFAD"/>
<path d="M53.0895 39.0352H31.9443C31.4185 39.0352 30.9922 39.4615 30.9922 39.9873C30.9922 40.5131 31.4185 40.9395 31.9443 40.9395H53.0895C53.6155 40.9395 54.0417 40.5131 54.0417 39.9873C54.0417 39.4615 53.6154 39.0352 53.0895 39.0352Z" fill="#00BFAD"/>
<path d="M53.0889 45.9609H8.77832C8.25248 45.9609 7.82617 46.3872 7.82617 46.9131C7.82617 47.4389 8.25248 47.8652 8.77832 47.8652H53.0888C53.6147 47.8652 54.0409 47.4389 54.0409 46.9131C54.0409 46.3872 53.6147 45.9609 53.0889 45.9609Z" fill="#00BFAD"/>
<path d="M53.0889 52.8828H8.77832C8.25248 52.8828 7.82617 53.3091 7.82617 53.835C7.82617 54.3608 8.25248 54.7871 8.77832 54.7871H53.0888C53.6147 54.7871 54.0409 54.3608 54.0409 53.835C54.0409 53.3091 53.6147 52.8828 53.0889 52.8828Z" fill="#00BFAD"/>
<path d="M65 15.9454C65 8.35281 58.823 2.17578 51.2303 2.17578C43.6377 2.17578 37.4607 8.35281 37.4607 15.9454C37.4607 17.4 37.6882 18.8025 38.1082 20.1197H1.9043V14.298C1.9043 13.2879 2.72606 12.4661 3.73623 12.4661H34.6662C35.1922 12.4661 35.6183 12.0398 35.6183 11.5139C35.6183 10.9881 35.1922 10.5618 34.6662 10.5618H3.73623C1.67604 10.5618 0 12.238 0 14.298V59.0891C0 61.1493 1.67604 62.8254 3.73623 62.8254H56.6356C58.6958 62.8254 60.3718 61.1493 60.3718 59.0891V30.4904C60.3718 29.9646 59.9456 29.5382 59.4197 29.5382C58.8937 29.5382 58.4675 29.9646 58.4675 30.4904V59.0891C58.4675 60.0993 57.6457 60.9211 56.6356 60.9211H3.73623C2.72606 60.9211 1.9043 60.0993 1.9043 59.0891V22.024H38.8775C41.1267 26.5763 45.8185 29.7151 51.2303 29.7151C58.823 29.7151 65 23.5379 65 15.9454ZM51.2303 27.8108C44.6878 27.8108 39.365 22.488 39.365 15.9455C39.365 9.40297 44.6878 4.0802 51.2303 4.0802C57.7728 4.0802 63.0957 9.40284 63.0957 15.9454C63.0957 22.4879 57.7728 27.8108 51.2303 27.8108Z" fill="#00BFAD"/>
<path d="M60.9071 14.178C60.9071 13.7276 60.6208 13.3269 60.1949 13.181L52.3851 10.5044C51.639 10.2485 50.8167 10.2485 50.0707 10.5044L42.2607 13.181C41.315 13.5054 41.3131 14.85 42.261 15.175L44.3919 15.9053V19.3341C44.3919 20.6577 45.4686 21.7345 46.7922 21.7345H55.6635C56.9872 21.7345 58.064 20.6577 58.064 19.3341V15.9052L59.0028 15.5835V16.808C59.0028 17.3338 59.429 17.7601 59.9549 17.7601C60.4809 17.7601 60.9071 17.3338 60.9071 16.808C60.9071 16.244 60.9071 15.1997 60.9071 14.178ZM56.1598 19.3341C56.1598 19.6077 55.9373 19.8302 55.6637 19.8302H46.7923C46.5189 19.8302 46.2963 19.6077 46.2963 19.3341V16.5579L50.0707 17.8515C50.8167 18.1073 51.6387 18.1073 52.3851 17.8515L56.1597 16.5579V19.3341H56.1598ZM51.7677 16.0502C51.4196 16.1694 51.0362 16.1694 50.6881 16.0502L45.2256 14.178L50.6881 12.3057C51.0362 12.1865 51.4196 12.1865 51.7677 12.3057L57.2303 14.178L51.7677 16.0502Z" fill="#00BFAD"/>
</svg>
