<svg width="65" height="65" viewBox="0 0 65 65" fill="none" xmlns="http://www.w3.org/2000/svg">
<path d="M6.63588 10.1389C7.09709 10.1389 7.47098 9.76506 7.47098 9.30385C7.47098 8.84264 7.09709 8.46875 6.63588 8.46875C6.17467 8.46875 5.80078 8.84264 5.80078 9.30385C5.80078 9.76506 6.17467 10.1389 6.63588 10.1389Z" fill="#FD2121"/>
<path d="M10.3527 10.1389C10.8139 10.1389 11.1878 9.76506 11.1878 9.30385C11.1878 8.84264 10.8139 8.46875 10.3527 8.46875C9.89146 8.46875 9.51758 8.84264 9.51758 9.30385C9.51758 9.76506 9.89146 10.1389 10.3527 10.1389Z" fill="#FD2121"/>
<path d="M14.0695 10.1389C14.5307 10.1389 14.9046 9.76506 14.9046 9.30385C14.9046 8.84264 14.5307 8.46875 14.0695 8.46875C13.6083 8.46875 13.2344 8.84264 13.2344 9.30385C13.2344 9.76506 13.6083 10.1389 14.0695 10.1389Z" fill="#FD2121"/>
<path d="M25.7075 23.6055H6.89941C6.37357 23.6055 5.94727 24.0317 5.94727 24.5576C5.94727 25.0836 6.37357 25.5098 6.89941 25.5098H25.7075C26.2334 25.5098 26.6597 25.0836 26.6597 24.5576C26.6597 24.0317 26.2334 23.6055 25.7075 23.6055Z" fill="#FD2121"/>
<path d="M25.7075 28.6719H6.89941C6.37357 28.6719 5.94727 29.0981 5.94727 29.624C5.94727 30.15 6.37357 30.5762 6.89941 30.5762H25.7075C26.2334 30.5762 26.6597 30.15 26.6597 29.624C26.6597 29.0982 26.2334 28.6719 25.7075 28.6719Z" fill="#FD2121"/>
<path d="M26.6597 34.6904C26.6597 34.1646 26.2334 33.7383 25.7075 33.7383H6.89941C6.37357 33.7383 5.94727 34.1645 5.94727 34.6904C5.94727 35.2164 6.37357 35.6426 6.89941 35.6426H25.7075C26.2334 35.6426 26.6597 35.2164 26.6597 34.6904Z" fill="#FD2121"/>
<path d="M6.89941 38.8086C6.37357 38.8086 5.94727 39.2348 5.94727 39.7607C5.94727 40.2867 6.37357 40.7129 6.89941 40.7129H17.1753C17.7011 40.7129 18.1274 40.2867 18.1274 39.7607C18.1274 39.2348 17.7011 38.8086 17.1753 38.8086H6.89941Z" fill="#FD2121"/>
<path d="M25.4537 51.5513H3.59087C2.66081 51.5513 1.9043 50.7946 1.9043 49.8647V14.7837H55.4159V20.9213C55.4159 21.4472 55.8421 21.8734 56.3681 21.8734C56.894 21.8734 57.3202 21.4472 57.3202 20.9213V7.41118C57.3202 5.43122 55.7093 3.82031 53.7292 3.82031H3.59087C1.61091 3.82044 0 5.43122 0 7.41118V49.8647C0 51.8446 1.61091 53.4556 3.59087 53.4556H25.4537C25.9796 53.4556 26.4059 53.0294 26.4059 52.5034C26.4059 51.9774 25.9796 51.5513 25.4537 51.5513ZM1.9043 7.41118C1.9043 6.48125 2.66094 5.72461 3.59087 5.72461H53.7291C54.6591 5.72461 55.4158 6.48125 55.4158 7.41118V12.8794H1.9043V7.41118Z" fill="#FD2121"/>
<path d="M63.6122 23.8872C61.7626 22.0377 58.7694 22.0375 56.9196 23.8871L51.4251 29.3817C50.6009 28.9679 49.739 28.6297 48.8524 28.3745C48.7404 27.1034 47.6681 26.1037 46.3714 26.1037C46.3685 26.1037 46.3655 26.1037 46.3626 26.1037L42.8839 26.1159C41.5816 26.1205 40.5137 27.1305 40.4142 28.4044C39.3751 28.7115 38.3702 29.1316 37.4219 29.6555C36.4531 28.8289 34.9815 28.8778 34.0572 29.8081L31.6029 32.2797C30.6764 33.2127 30.6422 34.6851 31.4736 35.6453C30.9564 36.597 30.5434 37.6045 30.2436 38.6459C28.9766 38.7512 27.9677 39.8142 27.9722 41.1267L27.9844 44.6C27.989 45.8974 28.9954 46.9711 30.2724 47.0831C30.5236 47.9332 30.8524 48.7612 31.2514 49.5555L30.5503 50.2567C29.7218 51.0849 29.0882 52.0593 28.6669 53.1526L26.4284 58.9625C26.1931 59.5731 26.3344 60.2398 26.7972 60.7025C27.2611 61.1664 27.9286 61.3057 28.5369 61.0709L34.3468 58.8324C35.4401 58.4111 36.4145 57.7775 37.2427 56.9491L37.9437 56.2482C38.7676 56.662 39.629 57.0006 40.5153 57.2559C40.6248 58.5273 41.6947 59.5269 42.9921 59.5269H43.0008L46.489 59.5146C47.7992 59.5099 48.8595 58.4938 48.9547 57.226C49.9939 56.9188 50.9986 56.4987 51.9465 55.975C52.9113 56.7981 54.3836 56.756 55.311 55.8224L57.7655 53.3507C58.6723 52.4375 58.7426 50.9644 57.8947 49.9853C58.4119 49.0331 58.8252 48.0252 59.125 46.9836C60.3991 46.8715 61.4005 45.7945 61.396 44.4938L61.3836 41.0001C61.3789 39.6891 60.3615 38.636 59.0949 38.5441C58.8434 37.6935 58.515 36.8668 58.1174 36.0746L63.6123 30.5797C65.4615 28.7301 65.4618 25.7368 63.6122 23.8872ZM28.4266 59.0727C30.5161 53.6971 30.4337 53.7572 30.775 53.1174L34.3819 56.7243C33.7413 57.0661 33.7986 56.9846 28.4266 59.0727ZM47.7731 35.7268C48.3699 35.9878 48.927 36.3223 49.4343 36.7184L33.2517 52.901L31.9253 51.5746L47.7731 35.7268ZM36.9501 42.8152C36.9501 38.5506 40.4196 35.0811 44.6841 35.0811C45.0155 35.0811 45.3412 35.1044 45.6616 35.1451L37.0122 43.7945C36.9709 43.4708 36.9501 43.1439 36.9501 42.8152ZM35.9247 55.574L34.5983 54.2476L50.7809 38.0651C51.177 38.5723 51.5114 39.1294 51.7725 39.7262L35.9247 55.574ZM52.3542 41.8377C52.3949 42.1581 52.4182 42.4838 52.4182 42.8152C52.4182 47.0798 48.9487 50.5493 44.6841 50.5493C44.3556 50.5493 44.0286 50.5284 43.7048 50.4871L52.3542 41.8377ZM58.8382 40.4414C59.2689 40.4535 59.4783 40.7027 59.4794 41.0068L59.4917 44.5004C59.4927 44.8032 59.2752 45.0789 58.8646 45.0896C58.157 45.1054 57.5314 45.5966 57.3434 46.2844C57.0624 47.3133 56.6553 48.3063 56.1334 49.2356C55.7854 49.8553 55.8725 50.6138 56.3493 51.1224C56.673 51.4667 56.6346 51.787 56.4142 52.0089L53.9597 54.4807C53.7705 54.6711 53.5283 54.6576 53.541 54.6551C53.2694 54.6551 53.1355 54.4765 53.1228 54.4694C52.6067 53.9651 51.8091 53.8624 51.1836 54.2194C50.2582 54.7478 49.2683 55.1618 48.2417 55.4498C47.5563 55.642 47.0503 56.2779 47.0575 57.0296C47.0595 57.3492 46.8022 57.6093 46.4825 57.6103L42.9944 57.6226C42.9936 57.6226 42.993 57.6226 42.9922 57.6226C42.6911 57.6226 42.42 57.4067 42.4099 56.9951C42.394 56.2876 41.9029 55.6622 41.2154 55.4744C40.5862 55.3027 39.9707 55.0832 39.3733 54.8187L42.0949 52.0971C42.9376 52.3325 43.8057 52.4535 44.6842 52.4535C49.9989 52.4535 54.3226 48.1297 54.3226 42.8151C54.3226 37.5287 50.018 33.1767 44.6842 33.1767C39.3696 33.1767 35.0459 37.5004 35.0459 42.8151C35.0459 43.6938 35.1671 44.5619 35.4023 45.4045L32.6814 48.1254C32.4296 47.5565 32.2176 46.9709 32.0499 46.3733C31.857 45.6861 31.2275 45.1989 30.5301 45.1887C30.5125 45.1882 30.4946 45.1882 30.4822 45.1881C30.1562 45.1859 29.89 44.9191 29.8889 44.593L29.8767 41.1197C29.8755 40.8008 30.133 40.5412 30.4537 40.5412C31.216 40.5412 31.8395 40.0248 32.0248 39.3458C32.3059 38.317 32.7131 37.3238 33.2351 36.3945C33.5768 35.7863 33.5238 35.0025 32.9465 34.4335C32.7266 34.2177 32.7264 33.8508 32.9543 33.6211L35.4087 31.1496C35.82 30.7356 36.2325 31.1551 36.2452 31.1601C36.7611 31.6649 37.559 31.7677 38.1854 31.4105C39.1109 30.8822 40.1005 30.4684 41.1265 30.1806C41.8128 29.988 42.2999 29.3591 42.311 28.6486L42.3112 28.6037C42.3101 28.283 42.5702 28.021 42.8909 28.0198L46.3695 28.0076H46.3717C46.6931 28.0076 46.9559 28.2687 46.9581 28.5846V28.5977C46.9637 29.3233 47.4637 29.9664 48.1743 30.1615C49.1954 30.4422 50.1809 30.8472 51.1037 31.3653C51.7165 31.7098 52.5216 31.6291 53.0655 31.0776C53.2896 30.8494 53.6583 30.8665 53.878 31.0851L56.3498 33.5396C56.5622 33.7506 56.6228 34.0671 56.2918 34.4258C55.8178 34.9385 55.7359 35.6976 56.0882 36.3148C56.0929 36.3231 56.0972 36.3314 56.1019 36.3397C56.1032 36.3422 56.1046 36.3445 56.106 36.3471C56.6258 37.2635 57.0342 38.2425 57.3191 39.2575C57.5112 39.9436 58.14 40.4306 58.8382 40.4414ZM58.3071 33.1915C58.1865 32.8171 57.9786 32.4738 57.6913 32.1885L55.2197 29.7341C54.9634 29.4795 54.6608 29.2899 54.3324 29.1676L55.761 27.739L59.7603 31.7383L58.3071 33.1915ZM62.2656 29.233L61.107 30.3916L57.1077 26.3923L58.2663 25.2337C59.3713 24.1283 61.1603 24.1282 62.2657 25.2337C63.3708 26.3388 63.371 28.1279 62.2656 29.233Z" fill="#FD2121"/>
</svg>
