<svg width="100" height="200" viewBox="0 0 100 200" fill="none" xmlns="http://www.w3.org/2000/svg">
<path d="M100 50C100 56.5661 98.7067 63.0679 96.194 69.1342C93.6812 75.2005 89.9983 80.7124 85.3553 85.3553C80.7124 89.9983 75.2004 93.6812 69.1342 96.194C63.0679 98.7067 56.5661 100 50 100C43.4339 100 36.9321 98.7067 30.8658 96.194C24.7995 93.6812 19.2876 89.9983 14.6447 85.3553C10.0017 80.7124 6.31876 75.2004 3.80602 69.1342C1.29329 63.0679 -5.74026e-07 56.5661 0 50L50 50H100Z" fill="#006BFF"/>
<path d="M100 150C100 143.434 98.7067 136.932 96.194 130.866C93.6812 124.8 89.9983 119.288 85.3553 114.645C80.7124 110.002 75.2004 106.319 69.1342 103.806C63.0679 101.293 56.5661 100 50 100C43.4339 100 36.9321 101.293 30.8658 103.806C24.7995 106.319 19.2876 110.002 14.6447 114.645C10.0017 119.288 6.31876 124.8 3.80602 130.866C1.29329 136.932 -5.74026e-07 143.434 0 150L50 150H100Z" fill="#00BFAD"/>
</svg>
