<svg width="73" height="79" viewBox="0 0 73 79" fill="none" xmlns="http://www.w3.org/2000/svg">
<g opacity="0.4">
<path d="M67.641 78.7478C61.657 72.4888 55.808 66.1068 50.077 59.6238C44.325 53.1588 38.683 46.5988 33.06 40.0258C27.465 33.4288 21.89 26.8158 16.382 20.1458C10.853 13.4948 5.401 6.77681 0 0.0078125C5.986 6.26481 11.837 12.6458 17.567 19.1298C23.319 25.5958 28.96 32.1548 34.582 38.7298C40.175 45.3288 45.75 51.9418 51.258 58.6118C56.786 65.2638 62.239 71.9808 67.641 78.7478Z" fill="#FEC961"/>
<path d="M0.492188 0C6.45919 0.036 12.4172 0.206998 18.3672 0.531998C24.3182 0.828998 30.2612 1.268 36.1992 1.774C42.1332 2.317 48.0632 2.93001 53.9722 3.71001C59.8852 4.46201 65.7762 5.39499 71.6392 6.50099C65.6812 6.16599 59.7402 5.75301 53.8092 5.26201L36.0222 3.765C30.0982 3.221 24.1702 2.697 18.2482 2.082C12.3232 1.496 6.40419 0.807 0.492188 0Z" fill="#FEC961"/>
<path d="M68.1897 78.6142C67.7817 72.5832 67.7537 66.5292 67.9037 60.4942C68.0327 54.4562 68.3507 48.4272 68.7157 42.4052C69.1187 36.3852 69.5757 30.3692 70.1507 24.3642C70.6967 18.3562 71.3767 12.3612 72.1447 6.36719C72.1527 12.4102 71.9927 18.4472 71.7077 24.4722C71.4497 30.4992 71.0787 36.5172 70.7107 42.5332L69.4567 60.5682C69.0447 66.5802 68.5557 72.5832 68.1897 78.6142Z" fill="#FEC961"/>
<path d="M57.0099 41.27C54.9609 39.367 53.0799 37.321 51.2709 35.218C49.4519 33.122 47.7429 30.9399 46.0699 28.7299C44.4269 26.4979 42.8219 24.237 41.3319 21.896C39.8309 19.563 38.4079 17.176 37.1699 14.668C39.0909 16.701 40.8649 18.8289 42.5979 20.9839C44.3409 23.1319 46.0069 25.332 47.6719 27.535C49.3059 29.76 50.9409 31.984 52.5019 34.268C54.0719 36.544 55.6069 38.85 57.0099 41.27Z" fill="#FEC961"/>
<path d="M37.4375 14.5014C39.2125 14.1924 40.9755 14.0804 42.7345 14.0384C44.4935 13.9964 46.2485 14.0234 47.9985 14.1294C49.7495 14.2284 51.4945 14.4124 53.2365 14.6614C54.9785 14.9114 56.7155 15.2334 58.4405 15.7534C56.6655 16.0644 54.9025 16.1774 53.1435 16.2194C51.3845 16.2594 49.6295 16.2354 47.8795 16.1254C46.1295 16.0224 44.3835 15.8414 42.6415 15.5904C40.9005 15.3384 39.1635 15.0184 37.4375 14.5014Z" fill="#FEC961"/>
<path d="M57.0042 41.2733C56.8932 39.0943 56.9542 36.9483 57.0622 34.8093C57.1572 32.6693 57.3452 30.5433 57.5312 28.4163C57.7542 26.2933 57.9782 24.1713 58.2902 22.0543C58.5902 19.9353 58.9332 17.8173 59.4402 15.6953C59.7642 17.8533 59.8552 20.0133 59.8472 22.1663C59.8512 24.3213 59.7102 26.4683 59.5202 28.6093C59.2922 30.7473 59.0182 32.8793 58.6052 34.9933C58.2052 37.1083 57.7132 39.2093 57.0042 41.2733Z" fill="#FEC961"/>
<path d="M57.7528 66.9406C57.7398 66.3546 57.8778 65.9146 58.0498 65.5076C58.2308 65.1096 58.4688 64.7666 58.7548 64.4696C59.0398 64.1726 59.3758 63.9246 59.7678 63.7306C60.1678 63.5446 60.6048 63.3946 61.1918 63.3906C61.2058 63.9776 61.0698 64.4186 60.8968 64.8246C60.7158 65.2226 60.4778 65.5656 60.1898 65.8606C59.9028 66.1556 59.5668 66.4036 59.1748 66.5976C58.7738 66.7836 58.3388 66.9356 57.7528 66.9406Z" fill="#FEC961"/>
<path d="M49.9668 57.7361C50.1588 56.9931 50.4918 56.4041 50.8578 55.8501C51.2328 55.3051 51.6608 54.8181 52.1338 54.3811C52.6068 53.9431 53.1268 53.5571 53.7008 53.2281C54.2828 52.9081 54.8978 52.6251 55.6558 52.4961C55.4658 53.2411 55.1328 53.8311 54.7668 54.3841C54.3918 54.9291 53.9638 55.4161 53.4888 55.8511C53.0138 56.2871 52.4938 56.6731 51.9198 57.0021C51.3378 57.3211 50.7238 57.6051 49.9668 57.7361Z" fill="#FEC961"/>
<path d="M42.9751 49.8256C42.8671 49.2606 42.9741 48.7966 43.1441 48.3766C43.3241 47.9626 43.5931 47.6076 43.9221 47.3246C44.2511 47.0406 44.6431 46.8286 45.0791 46.7136C45.5201 46.6086 45.9961 46.5746 46.5391 46.7696C46.3771 47.3216 46.1691 47.6866 45.9541 48.0216C45.7331 48.3456 45.4951 48.6126 45.2241 48.8426C44.9531 49.0736 44.6531 49.2686 44.2991 49.4366C43.9351 49.5976 43.5431 49.7486 42.9751 49.8256Z" fill="#FEC961"/>
<path d="M35.6133 40.3954C35.7593 39.7394 36.0383 39.2454 36.3473 38.7894C36.6643 38.3424 37.0303 37.9574 37.4393 37.6234C37.8473 37.2894 38.3003 37.0093 38.8023 36.7903C39.3113 36.5803 39.8533 36.4093 40.5263 36.4023C40.3813 37.0603 40.1033 37.5554 39.7943 38.0114C39.4773 38.4574 39.1113 38.8434 38.7013 39.1754C38.2913 39.5074 37.8393 39.7873 37.3373 40.0063C36.8253 40.2133 36.2853 40.3854 35.6133 40.3954Z" fill="#FEC961"/>
<path d="M28.9355 33.5323C28.9465 32.9993 29.0835 32.6323 29.2505 32.3033C29.4255 31.9843 29.6475 31.7283 29.9105 31.5253C30.1735 31.3223 30.4795 31.1743 30.8325 31.0883C31.1925 31.0123 31.5835 30.9753 32.1025 31.1063C32.0935 31.6413 31.9565 32.0093 31.7885 32.3373C31.6135 32.6563 31.3915 32.9123 31.1265 33.1133C30.8615 33.3143 30.5565 33.4623 30.2035 33.5483C29.8435 33.6233 29.4535 33.6613 28.9355 33.5323Z" fill="#FEC961"/>
<path d="M23.0461 25.7994C23.0311 25.2134 23.1661 24.7734 23.3371 24.3654C23.5161 23.9664 23.7521 23.6224 24.0371 23.3244C24.3211 23.0264 24.6561 22.7764 25.0471 22.5814C25.4471 22.3944 25.8821 22.2414 26.4701 22.2344C26.4871 22.8214 26.3521 23.2634 26.1811 23.6704C26.0011 24.0684 25.7661 24.4134 25.4791 24.7094C25.1931 25.0054 24.8591 25.2554 24.4671 25.4514C24.0661 25.6374 23.6311 25.7904 23.0461 25.7994Z" fill="#FEC961"/>
<path d="M15.5978 18.053C15.5308 17.548 15.6048 17.197 15.7118 16.881C15.8278 16.575 15.9968 16.326 16.2108 16.127C16.4248 15.927 16.6868 15.779 17.0008 15.688C17.3238 15.606 17.6798 15.561 18.1798 15.67C18.2488 16.177 18.1748 16.529 18.0678 16.843C17.9518 17.149 17.7828 17.398 17.5668 17.596C17.3508 17.794 17.0898 17.942 16.7748 18.033C16.4508 18.114 16.0948 18.161 15.5978 18.053Z" fill="#FEC961"/>
<path d="M8.73828 10.3064C8.89228 9.70844 9.1613 9.28643 9.4563 8.90343C9.7583 8.53143 10.1023 8.22543 10.4833 7.97643C10.8643 7.72643 11.2833 7.53544 11.7453 7.40944C12.2133 7.29344 12.7093 7.21944 13.3203 7.32244C13.1673 7.92244 12.8993 8.34643 12.6043 8.72743C12.3023 9.09943 11.9583 9.40542 11.5753 9.65242C11.1933 9.90042 10.7743 10.0914 10.3123 10.2174C9.84329 10.3314 9.34728 10.4064 8.73828 10.3064Z" fill="#FEC961"/>
</g>
</svg>
